<?xml version="1.0" encoding="UTF-8" standalone="no"?>
<svg
   viewBox="0 0 16 16"
   version="1.1"
   id="svg6"
   sodipodi:docname="accept_signal.svg"
   inkscape:version="1.2.2 (b0a8486541, 2022-12-01)"
   xmlns:inkscape="http://www.inkscape.org/namespaces/inkscape"
   xmlns:sodipodi="http://sodipodi.sourceforge.net/DTD/sodipodi-0.dtd"
   xmlns="http://www.w3.org/2000/svg"
   xmlns:svg="http://www.w3.org/2000/svg">
  <sodipodi:namedview
     id="namedview8"
     pagecolor="#ffffff"
     bordercolor="#000000"
     borderopacity="0.24705882"
     inkscape:showpageshadow="false"
     inkscape:pageopacity="0.0"
     inkscape:pagecheckerboard="0"
     inkscape:deskcolor="#ffffff"
     showgrid="true"
     showborder="false"
     inkscape:zoom="42.603867"
     inkscape:cx="2.2415805"
     inkscape:cy="7.7223037"
     inkscape:window-width="2560"
     inkscape:window-height="1363"
     inkscape:window-x="0"
     inkscape:window-y="0"
     inkscape:window-maximized="1"
     inkscape:current-layer="svg6">
    <inkscape:grid
       type="xygrid"
       id="grid237" />
    <inkscape:grid
       type="xygrid"
       id="grid239"
       spacingx="0.5"
       spacingy="0.5"
       empspacing="0"
       empcolor="#0099e5"
       empopacity="0.0627451" />
  </sodipodi:namedview>
  <defs
     id="defs3051">
    <inkscape:path-effect
       effect="fillet_chamfer"
       id="path-effect9727"
       is_visible="true"
       lpeversion="1"
       nodesatellites_param="F,0,0,1,0,0,0,1 @ F,0,0,1,0,0,0,1 @ F,0,0,1,0,0,0,1 @ F,0,0,1,0,0,0,1 @ F,0,0,1,0,0,0,1 @ F,0,0,1,0,0,0,1 @ F,0,0,1,0,0,0,1 @ F,0,0,1,0,0,0,1 @ F,0,0,1,0,0,0,1 @ F,0,0,1,0,0,0,1 @ F,0,1,1,0,0.25,0,1 @ F,0,0,1,0,0.75,0,1 @ F,0,0,1,0,0,0,1 @ F,0,0,1,0,0,0,1 @ F,0,0,1,0,0,0,1 @ F,0,0,1,0,0,0,1 @ F,0,0,1,0,0,0,1 @ F,0,0,1,0,0,0,1 @ F,0,0,1,0,0,0,1 @ F,0,0,1,0,0,0,1 @ F,0,0,1,0,0,0,1 @ F,0,0,1,0,0,0,1 @ F,0,0,1,0,0.75,0,1 @ F,0,1,1,0,0.25,0,1"
       unit="px"
       method="auto"
       mode="F"
       radius="0.25"
       chamfer_steps="1"
       flexible="false"
       use_knot_distance="true"
       apply_no_radius="true"
       apply_with_radius="true"
       only_selected="true"
       hide_knots="false" />
    <inkscape:path-effect
       effect="fillet_chamfer"
       id="path-effect1402"
       is_visible="true"
       lpeversion="1"
       nodesatellites_param="F,0,0,1,0,0,0,1 @ F,0,0,1,0,1.7,0,1 @ F,0,1,1,0,1.5,0,1 @ F,0,0,1,0,1.7,0,1 @ F,0,0,1,0,1.5,0,1 @ F,0,0,1,0,0,0,1"
       unit="px"
       method="auto"
       mode="F"
       radius="1.5"
       chamfer_steps="1"
       flexible="false"
       use_knot_distance="true"
       apply_no_radius="true"
       apply_with_radius="true"
       only_selected="true"
       hide_knots="false" />
    <style
       type="text/css"
       id="current-color-scheme">
      .ColorScheme-Text {
        color:#232629;
      }
      </style>
  </defs>
  <path
     style="color:#000000;fill:#786d7d;stroke-linecap:square;-inkscape-stroke:none;fill-opacity:1"
     d="M 3.1992188,2 C 2.684041,2 2.2590811,2.3308503 2.0878906,2.7441406 1.9167001,3.157431 1.9833706,3.6904018 2.3476563,4.0546875 l 3.2382812,3.2382812 c 0.3947116,0.3947117 0.3947116,1.0193509 0,1.4140626 L 2.3476563,11.945313 C 1.98337,12.309598 1.9167001,12.842569 2.0878906,13.255859 2.2590812,13.66915 2.6840406,14 3.1992188,14 H 12 c 1.098646,0 2,-0.901354 2,-2 V 4.25 A 0.25,0.25 45 0 0 13.75,4 0.75,0.75 135 0 0 13,4.75 V 12 c 0,0.558207 -0.441793,1 -1,1 H 3.1992188 c -0.1121641,0 -0.1556676,-0.0501 -0.1875,-0.126953 -0.031833,-0.07685 -0.036343,-0.141391 0.042969,-0.220703 L 6.2929687,9.4140625 c 0.7768602,-0.7768601 0.7768602,-2.0512649 0,-2.828125 L 3.0546875,3.3476563 C 2.9753756,3.2683444 2.9798863,3.2038035 3.0117188,3.1269531 3.0435512,3.0501027 3.0870548,3 3.1992188,3 H 11.25 A 0.75,0.75 135 0 0 12,2.25 0.25,0.25 45 0 0 11.75,2 Z"
     id="path1001"
     sodipodi:nodetypes="csssscsssccccsssssssscccc" />
</svg>
