<svg width="16" height="16" version="1.1" viewBox="0 0 16 16" xml:space="preserve" xmlns="http://www.w3.org/2000/svg"><path d="m3 1c-1.0986 0-2 0.90136-2 2v10c0 1.0986 0.90136 2 2 2h7.5c2.5 0 4.0038-1.3018 4.4463-3.7514 0.01874-0.13689-0.012962-0.24856-0.29008-0.24856s-0.71417 0.33722-0.82697 0.73528c-0.5001 1.7647-1.3293 2.2647-3.3293 2.2647h-7.5c-0.55821 0-1-0.44179-1-1v-10c0-0.55821 0.44179-1 1-1h10c0.55821 0 1 0.44179 1 1v5c0 0.55228-0.44772 1-1 1h-1c-1.0986 0-2 0.90136-2 2v1.75c0 0.13807 0.11193 0.25 0.25 0.25 0.41421 0 0.75-0.33579 0.75-0.75v-1.25c0-0.55821 0.44179-1 1-1h1c1.1046 0 2-0.89543 2-2v-5c0-1.0986-0.90136-2-2-2z" color="#000000" fill="#786d7d" stroke-linecap="square" style="-inkscape-stroke:none;paint-order:markers stroke fill"/><g transform="translate(-22.314 -21.733)"><path d="m26.338 23.733c0.24875 0.44921 0.5655 1.0981 0.77344 1.6914-0.7308-0.1122-1.5263-0.84669-1.9043-1.3184-0.09054-0.11297-0.12384-0.23195-0.12109-0.34766-0.24859 0.05585-0.46352 0.20173-0.60352 0.4043 0.0076 0.02229 0.01485 0.04542 0.02344 0.06641 0.30975 0.75675 0.98517 1.3249 1.8066 1.7695 0.31764 0.17194 0.66002 0.32632 1.0195 0.46094 0.08878 0.30885 0.17365 0.62144 0.25 0.93359 0.08656 0.3539 0.16278 0.7069 0.23047 1.0488-0.55083 0.64462-1.0478 1.3191-1.4648 1.9863-0.36485 0.58371-0.50097 1.127-0.38867 1.6055 0.1123 0.47845 0.50149 0.82512 0.92578 0.93164 0.84859 0.21304 1.8618-0.37373 2.127-1.5449 0.11248-0.49677 0.08018-1.1128-0.0098-1.8477-0.03272-0.26724-0.07458-0.5482-0.125-0.83789 0.52041-0.57541 1.0828-1.117 1.6602-1.584 0.0029-0.0024 0.0049-0.0035 0.0078-0.0059 1.5725 0.12031 3.0751-0.09205 4.0254-0.87891 0.21757-0.18015 0.38619-0.32708 0.51953-0.4707 0.13335-0.14362 0.28652-0.26748 0.28906-0.5957 0.0013-0.16411-0.09253-0.35666-0.20312-0.45508-0.1106-0.09842-0.21455-0.13541-0.30664-0.16211-0.18418-0.0534-0.35574-0.0636-0.57227-0.07227-1.3504-0.05403-2.742 0.61917-4.0391 1.6016-0.31086-0.02807-0.62353-0.07042-0.93359-0.12891-0.40419-0.07624-0.80293-0.17616-1.1816-0.29492-0.21691-0.71455-0.45513-1.3873-0.70898-1.9551zm7.5137 1.625c0.12318 0.0042 0.24009 0.02285 0.3457 0.05859-0.31523 0.39172-1.9345 1.2083-2.9043 0.9668 0.48092-0.38232 1.6963-1.0551 2.5586-1.0254zm-5.5372 1.3748 1.3 1e-5c-0.29577 0.42608-0.96326 0.92438-1.3 1.3v-1.3zm-0.08973 2.7229c0.07584 0.65416 0.07468 1.7018 0.01953 1.9453-0.16623 0.73416-0.87415 0.66258-1.1172 0.60156-0.12152-0.03051-0.17122-0.06771-0.20117-0.19531-0.02995-0.1276-0.01187-0.41269 0.26367-0.85352 0.24813-0.39696 0.72904-1.1001 1.0352-1.498z" color="#000000" fill="#786d7d" opacity=".7" stroke-width=".0059086" style="-inkscape-stroke:none"/></g></svg>
