<?xml version="1.0" encoding="UTF-8" standalone="no"?>
<svg
   xml:space="preserve"
   width="16"
   height="16"
   version="1.1"
   id="svg7486"
   sodipodi:docname="add-placemark.svg"
   inkscape:version="1.2.2 (b0a8486541, 2022-12-01)"
   xmlns:inkscape="http://www.inkscape.org/namespaces/inkscape"
   xmlns:sodipodi="http://sodipodi.sourceforge.net/DTD/sodipodi-0.dtd"
   xmlns="http://www.w3.org/2000/svg"
   xmlns:svg="http://www.w3.org/2000/svg"><defs
     id="defs7490"><inkscape:path-effect
       effect="fillet_chamfer"
       id="path-effect8377"
       is_visible="true"
       lpeversion="1"
       nodesatellites_param="F,0,0,1,0,0,0,1 @ F,0,0,1,0,0,0,1 @ F,0,0,1,0,0,0,1 @ F,0,0,1,0,0,0,1 @ F,0,0,1,0,0,0,1 @ F,0,1,1,0,0.25,0,1 @ F,0,1,1,0,0.25,0,1 @ F,0,0,1,0,0,0,1 @ F,0,0,1,0,0,0,1 @ F,0,0,1,0,0,0,1 @ F,0,0,1,0,0,0,1 @ F,0,0,1,0,0,0,1 @ F,0,0,1,0,0,0,1 @ F,0,0,1,0,0,0,1 @ F,0,0,1,0,0,0,1 @ F,0,1,1,0,0.25,0,1 @ F,0,1,1,0,0.25,0,1 @ F,0,0,1,0,0,0,1 @ F,0,0,1,0,0,0,1 @ F,0,0,1,0,0,0,1 | F,0,0,1,0,0,0,1 @ F,0,0,1,0,0,0,1 @ F,0,0,1,0,0,0,1 @ F,0,0,1,0,0,0,1 @ F,0,0,1,0,0,0,1 @ F,0,0,1,0,0,0,1 @ F,0,0,1,0,0,0,1 @ F,0,0,1,0,0,0,1 | F,0,0,1,0,0,0,1 @ F,0,0,1,0,0,0,1 @ F,0,0,1,0,0,0,1 @ F,0,0,1,0,0,0,1 | F,0,0,1,0,0,0,1 @ F,0,0,1,0,0,0,1 @ F,0,0,1,0,0,0,1 | F,0,1,1,0,0.25,0,1 @ F,0,0,1,0,0,0,1 @ F,0,1,1,0,0.25,0,1 @ F,0,1,1,0,0.25,0,1 @ F,0,0,1,0,0,0,1 @ F,0,1,1,0,0.25,0,1 @ F,0,1,1,0,0.25,0,1 @ F,0,0,1,0,0,0,1 @ F,0,1,1,0,0.25,0,1 @ F,0,1,1,0,0.25,0,1 @ F,0,0,1,0,0,0,1 @ F,0,1,1,0,0.25,0,1"
       unit="px"
       method="auto"
       mode="F"
       radius="0.25"
       chamfer_steps="1"
       flexible="false"
       use_knot_distance="true"
       apply_no_radius="true"
       apply_with_radius="true"
       only_selected="true"
       hide_knots="false" /></defs><sodipodi:namedview
     id="namedview7488"
     pagecolor="#ffffff"
     bordercolor="#000000"
     borderopacity="0.25"
     inkscape:showpageshadow="false"
     inkscape:pageopacity="0.0"
     inkscape:pagecheckerboard="0"
     inkscape:deskcolor="#ffffff"
     showgrid="true"
     borderlayer="true"
     showborder="false"
     inkscape:zoom="64"
     inkscape:cx="10.117187"
     inkscape:cy="7.6015625"
     inkscape:window-width="1280"
     inkscape:window-height="1367"
     inkscape:window-x="0"
     inkscape:window-y="0"
     inkscape:window-maximized="0"
     inkscape:current-layer="svg7486"><inkscape:grid
       type="xygrid"
       id="grid7609" /></sodipodi:namedview><path
     id="path7482"
     style="color:#000000;fill:#786d7d;stroke-linejoin:round;-inkscape-stroke:none"
     d="m 8.5,0.13867188 c -3.0940173,0 -5.6152344,2.50954602 -5.6152344,5.59570312 0,2.0078829 0.7732789,4.452045 1.8183594,6.451172 0.5225403,0.999564 1.1123582,1.884165 1.7382812,2.542969 0.6259233,0.658801 1.2968756,1.132812 2.0585938,1.132812 0.537268,0 1.0320429,-0.224586 1.4922585,-0.579887 C 10.101504,15.1971 10.10085,15.049609 10.004085,14.951161 9.8853165,14.830327 9.7754783,14.701028 9.6754383,14.564286 9.5939327,14.452877 9.4504439,14.430887 9.3387894,14.512055 9.0159372,14.746752 8.7240195,14.861328 8.5,14.861328 c -0.3007785,0 -0.8016297,-0.261947 -1.3339844,-0.822266 C 6.6336612,13.478747 6.0784723,12.661087 5.5878906,11.722656 4.6067272,9.8457957 3.8847656,7.476481 3.8847656,5.734375 c 0,-2.5431624 2.0582416,-4.5946331 4.6132813,-4.5957031 H 8.5 c -1.3e-6,6.51e-4 -1.3e-6,0.0013 0,0.00195 2.555965,0 4.615234,2.0510203 4.615234,4.59375 0,0.8590627 -0.192814,1.9276486 -0.515666,3.0263298 -0.03892,0.1324474 0.03988,0.2392202 0.177488,0.2501182 0.174036,0.013783 0.346798,0.040567 0.516837,0.08013 0.134449,0.031282 0.273839,-0.041794 0.311834,-0.1745334 0.319967,-1.1178299 0.509507,-2.2202035 0.509507,-3.1820446 0,-3.0845904 -2.520175,-5.59267202 -5.6132809,-5.59375 H 8.5 c 1.3e-6,-6.5104e-4 1.3e-6,-0.001302 0,-0.001953 z M 8.5,3 C 7.1252146,3 6,4.1252146 6,5.5 6,6.7042608 6.8637266,7.7165065 8.0019531,7.9492188 v 0.8828124 c 0,0.5789681 0.1552325,0.8940508 0.3886719,1.0039063 0.3218483,0.1504327 0.6054688,-0.243568 0.6054688,-0.7285156 V 7.9492188 C 10.135248,7.7172365 11,6.7049225 11,5.5 11,4.1252146 9.8747854,3 8.5,3 Z m 0,1 C 9.334347,4 10,4.665653 10,5.5 10,6.334347 9.334347,7 8.5,7 7.665653,7 7,6.334347 7,5.5 7,4.665653 7.665653,4 8.5,4 Z m 0.171875,5.4199219 c 0.038289,-0.00892 0.053067,0.045796 0.011719,0.1777343 -0.037748,0.1187627 -0.1746008,0.037249 -0.1289063,-0.046875 0.04259,-0.077938 0.087408,-0.123923 0.1171875,-0.1308593 z M 12,10.25 V 12 H 10.25 A 0.25,0.25 135 0 0 10,12.25 v 0.5 A 0.25,0.25 45 0 0 10.25,13 H 12 v 1.75 A 0.25,0.25 45 0 0 12.25,15 h 0.5 A 0.25,0.25 135 0 0 13,14.75 V 13 h 1.75 A 0.25,0.25 135 0 0 15,12.75 v -0.5 A 0.25,0.25 45 0 0 14.75,12 H 13 V 10.25 A 0.25,0.25 45 0 0 12.75,10 h -0.5 A 0.25,0.25 135 0 0 12,10.25 Z" /><path
     id="path8528"
     style="opacity:0.15;fill:#786d7d;stroke-linecap:square;paint-order:markers stroke fill"
     d="M 10,5.5 A 1.5,1.5 0 0 1 8.5,7 1.5,1.5 0 0 1 7,5.5 1.5,1.5 0 0 1 8.5,4 1.5,1.5 0 0 1 10,5.5 Z" /></svg>
