<svg width="16" height="16" version="1.1" xml:space="preserve" xmlns="http://www.w3.org/2000/svg"><g fill="#786d7d"><path d="m3 0h2.9852v14.985c0 0.55228-0.44771 1-1 1h-1.9852c-1.1046 0-2-0.89543-2-2l1-0.98517v-10l-1-1c0-1.1046 0.89543-2 2-2z" color="#000000" opacity=".15" style="-inkscape-stroke:none;paint-order:markers stroke fill"/><g transform="rotate(-90 8.5001 7.5)"><path d="m16 1.9999c0-1.099-0.901-2-2-2h-0.40039c-0.43796 0-0.81631 0.29238-0.94922 0.68945-0.05532 0.16526-0.19215 0.31055-0.36719 0.31055h-1.4688c-0.11861 9e-5 -0.2473 0.10075-0.21484 0.21484l0.09961 0.35156c0.06546 0.23015 0.1943 0.43316 0.43359 0.43359h1.4668c0.46573 0 0.86328-0.32995 0.9707-0.76562 0.03124-0.12676 0.13478-0.23438 0.26562-0.23438h0.16406c0.558 0 1 0.442 1 1v8c0 1.1046-0.8954 2-2 2h-5.3273a0.82413 0.82413 162.33 0 0-0.47672 0.15188l-0.18703 0.13263a0.39406 0.39406 72.329 0 0 0.22794 0.71549h0.85294c0.16091 0 0.37029-0.10369 0.48828-0.21289 0.24963-0.23104 0.55883-0.38476 0.92188-0.38476 0.37732 0 0.72746 0.14662 0.99414 0.38476 0.11983 0.10702 0.32738 0.21289 0.48828 0.21289h2.0176c1.6569 0 3-1.3431 3-3zm-2 2.1367c5.6e-4 -0.074951-0.059812-0.13672-0.13477-0.13672h-12.865v-2c0-0.558 0.442-1 1-1h0.2168c0.10113 0 0.1824 0.082361 0.20117 0.18164 0.08726 0.46146 0.49815 0.81836 0.98242 0.81836h1.4062c0.27287-8e-5 0.41832-0.23201 0.49414-0.49414l0.099609-0.3457c0.02452-0.084779-0.071898-0.15966-0.16016-0.16016h-1.6328c-0.11437 0-0.20456-0.093404-0.22852-0.20508-0.09656-0.45001-0.5025-0.79492-0.97852-0.79492h-0.40039c-1.098 0-2 0.901-2 2v2c0 0.546 0.454 1 1 1h12.605c0.21815 0 0.39453-0.17638 0.39453-0.39453zm-1.4004-4.3945c5.4e-4 -0.41012-0.33207-0.74273-0.74219-0.74219h-1.2578c-0.45179 0-0.84002 0.31025-0.96094 0.72656-0.04256 0.14652-0.16333 0.27344-0.31641 0.27344h-2.6836c-0.1315 0-0.236-0.10896-0.26758-0.23633-0.10786-0.43511-0.50539-0.76367-0.9707-0.76367h-1.3438c-0.36226 4.3e-4 -0.65582 0.29399-0.65625 0.65625v0.17773c-1.8e-4 0.091774 0.074238 0.1662 0.16602 0.16602h1.4785c0.19622 0 0.35082 0.1651 0.41992 0.34766 0.14325 0.37845 0.51102 0.65234 0.93555 0.65234h3.1992c0.43352 0 0.80884-0.28487 0.94531-0.67578 0.05973-0.17108 0.20272-0.32422 0.38476-0.32422h1.459c0.11654 9e-5 0.21103-0.094404 0.21094-0.21094zm-0.2168 0.046875c-4.87e-4 0.034285-0.02821 0.062818-0.0625 0.0625-0.03372-4.79e-4 -0.06233-0.03355-0.0625-0.0625-1.67e-4 -0.029297 0.01139-0.07168 0.0625-0.0625 0.03431 0.006162 0.06282 0.027642 0.0625 0.0625zm-2.3828 14.711-0.0058594-0.74414c-0.006672-0.14515-0.2258-0.35547-0.49414-0.35547-0.277 0-0.5 0.223-0.5 0.5v0.09961h-1.5c-0.277 0-0.5 0.223-0.5 0.5s0.223 0.5 0.5 0.5h1.9746c0.30232 0 0.52539-0.21681 0.52539-0.5zm-9-8.2422c0-0.41808-0.33973-0.75781-0.75781-0.75781h-0.042969c-0.1556 1.3e-6 -0.19922 0.753-0.19922 1.4361v2.127c0 0.68312 0.32756 0.9369 0.79883 0.9369h0.20117z" style="-inkscape-stroke:none"/></g><path d="m-8.1286 16.95c-0.51289 0-1.0256 0.1936-1.4141 0.58203l-6.8789 6.8789c-0.77686 0.77686-0.77686 2.0513 0 2.8281l3.5859 3.5859c0.32001 0.32001 0.75447 0.5 1.207 0.5h7.25a0.75 0.75 0 0 0 0.75-0.75 0.25 0.25 0 0 0-0.25-0.25h-7.75c-0.18773 0-0.36726-0.07429-0.5-0.20703l-3.5859-3.5859c-0.39471-0.39471-0.39471-1.0194 0-1.4141l6.8789-6.8789c0.39471-0.39471 1.0194-0.39471 1.4141 0l3.8789 3.8789c0.39471 0.39471 0.39471 1.0194 0 1.4141l-4.5859 4.5859-3.6162-3.6162a0.75 0.75 0 0 0-1.0607 0 0.24995 0.24995 0 0 0 7.5e-5 0.35348l3.9697 3.9697c0.38634 0.38634 1.0277 0.38634 1.4141 0l4.5859-4.5859c0.77686-0.77686 0.77686-2.0513 0-2.8281l-3.8789-3.8789c-0.38843-0.38843-0.90117-0.58203-1.4141-0.58203z" color="#000000" display="none" style="-inkscape-stroke:none;paint-order:markers stroke fill"/></g><g transform="translate(-.0059 -.0098)" fill="#786d7d"><g transform="translate(0,2)"><path d="m12.221 7.5c-0.1215 0-0.2207 0.099201-0.2207 0.2207v1.2793c0 1.099 0.901 2 2 2h0.88867c0.33722-5.51e-4 0.61078-0.27411 0.61133-0.61133v-0.07422c0-0.17342-0.14104-0.31445-0.31445-0.31445h-1.1855c-0.558 0-1-0.442-1-1v-1c0-0.27614-0.22386-0.5-0.5-0.5zm-2.4668 2.5c-0.14028 0-0.25391 0.11363-0.25391 0.25391v0.55078c0 0.109 0.087313 0.19531 0.19531 0.19531h1.3047c0.558 0 1 0.442 1 1v1.2109c0 0.16 0.12906 0.28906 0.28906 0.28906h0.33984c0.20513 5.55e-4 0.37165-0.16597 0.37109-0.37109v-1.1289c0-1.099-0.901-2-2-2z" style="-inkscape-stroke:none"/></g><circle cx="3.5" cy="6.5" r=".5" stroke-linejoin="round" stroke-width=".96891"/></g></svg>
