<?xml version="1.0" encoding="UTF-8" standalone="no"?>
<svg
   viewBox="0 0 16 16"
   version="1.1"
   id="svg6"
   sodipodi:docname="adjustrow.svg"
   inkscape:version="1.2.2 (b0a8486541, 2022-12-01)"
   xmlns:inkscape="http://www.inkscape.org/namespaces/inkscape"
   xmlns:sodipodi="http://sodipodi.sourceforge.net/DTD/sodipodi-0.dtd"
   xmlns="http://www.w3.org/2000/svg"
   xmlns:svg="http://www.w3.org/2000/svg">
  <sodipodi:namedview
     id="namedview8"
     pagecolor="#ffffff"
     bordercolor="#000000"
     borderopacity="0.25"
     inkscape:showpageshadow="false"
     inkscape:pageopacity="0.0"
     inkscape:pagecheckerboard="0"
     inkscape:deskcolor="#ffffff"
     showgrid="true"
     inkscape:zoom="32"
     inkscape:cx="8.25"
     inkscape:cy="10.765625"
     inkscape:window-width="1269"
     inkscape:window-height="1367"
     inkscape:window-x="0"
     inkscape:window-y="0"
     inkscape:window-maximized="0"
     inkscape:current-layer="svg6"
     showborder="true">
    <inkscape:grid
       type="xygrid"
       id="grid284"
       spacingx="1"
       spacingy="1"
       empspacing="4"
       empcolor="#0099e5"
       empopacity="0.35294118" />
    <inkscape:grid
       type="xygrid"
       id="grid337"
       spacingx="0.5"
       spacingy="0.5"
       empspacing="1"
       empcolor="#0099e5"
       empopacity="0.0745098" />
  </sodipodi:namedview>
  <defs
     id="defs3051">
    <inkscape:path-effect
       effect="fillet_chamfer"
       id="path-effect1302"
       is_visible="true"
       lpeversion="1"
       nodesatellites_param="F,0,0,1,0,1.5,0,1 @ F,0,0,1,0,0,0,1 @ F,0,0,1,0,0,0,1 @ F,0,0,1,0,0,0,1 @ F,0,0,1,0,0,0,1 @ F,0,0,1,0,0,0,1 @ F,0,0,1,0,0,0,1 @ F,0,0,1,0,1.5,0,1 | F,0,1,1,0,0.5,0,1 @ F,0,1,1,0,0.5,0,1 @ F,0,0,1,0,0,0,1 @ F,0,0,1,0,0,0,1 | F,0,0,1,0,0,0,1 @ F,0,0,1,0,0,0,1 @ F,0,0,1,0,0,0,1 @ F,0,0,1,0,0,0,1 @ F,0,0,1,0,0,0,1 @ F,0,0,1,0,0,0,1 @ F,0,0,1,0,0,0,1 @ F,0,0,1,0,0,0,1 @ F,0,0,1,0,0,0,1 @ F,0,0,1,0,0,0,1 @ F,0,0,1,0,0,0,1 @ F,0,0,1,0,0,0,1 @ F,0,0,1,0,0,0,1 @ F,0,0,1,0,0,0,1 @ F,0,0,1,0,0,0,1 @ F,0,0,1,0,0,0,1 @ F,0,0,1,0,0,0,1 @ F,0,0,1,0,0,0,1 @ F,0,0,1,0,0,0,1 @ F,0,0,1,0,0,0,1 @ F,0,0,1,0,0,0,1 @ F,0,0,1,0,0,0,1 @ F,0,0,1,0,0,0,1 @ F,0,0,1,0,0,0,1 @ F,0,0,1,0,0,0,1 @ F,0,0,1,0,0,0,1 @ F,0,0,1,0,0,0,1 | F,0,0,1,0,0,0,1 @ F,0,0,1,0,1.5,0,1 @ F,0,0,1,0,1.5,0,1 @ F,0,0,1,0,0,0,1 @ F,0,0,1,0,0,0,1 @ F,0,0,1,0,0,0,1 @ F,0,0,1,0,0,0,1 @ F,0,0,1,0,0,0,1 | F,0,0,1,0,0,0,1 @ F,0,0,1,0,0,0,1 @ F,0,1,1,0,0.5,0,1 @ F,0,1,1,0,0.5,0,1"
       unit="px"
       method="auto"
       mode="F"
       radius="0.5"
       chamfer_steps="1"
       flexible="false"
       use_knot_distance="true"
       apply_no_radius="true"
       apply_with_radius="true"
       only_selected="true"
       hide_knots="false" />
    <style
       type="text/css"
       id="current-color-scheme">
      .ColorScheme-Text {
        color:#232629;
      }
      </style>
  </defs>
  <path
     id="path4"
     style="fill:#786d7d;fill-opacity:1;stroke:none"
     class="ColorScheme-Text"
     d="m 2.5000002,9.9999998 h 4.5 V 9 h -1 V 7 h 1 V 6 h -4.5 c -0.8284271,0 -1.5,0.6715729 -1.5,1.5 v 1 c 0,0.828427 0.671573,1.4999998 1.5,1.4999998 z M 2.0000002,8.5 v -1 c 0,-0.2761424 0.2238576,-0.5 0.5,-0.5 h 2.5 v 2 h -2.5 c -0.2761424,0 -0.5,-0.2238576 -0.5,-0.5 z m 3.8984375,4.097656 c 0,0.06397 0.023461,0.126967 0.072266,0.175782 l 1.9980469,2 c 0.146551,0.147063 0.338901,0.220703 0.5312496,0.220703 0.1923486,0 0.3847002,-0.07364 0.53125,-0.220703 l 1.9980468,-2 c 0.09761,-0.09763 0.09735,-0.255626 0,-0.353516 l -0.351563,-0.353516 c -0.09811,-0.09866 -0.257088,-0.09838 -0.355468,0 L 9.0000002,13.388672 V 2.607422 l 1.3222658,1.322266 c 0.09838,0.09838 0.257358,0.09866 0.355468,0 l 0.351563,-0.353516 c 0.09735,-0.09789 0.09761,-0.255887 0,-0.353516 l -1.9980468,-2 C 8.8847004,1.075595 8.6923488,1.001953 8.5000002,1.001953 c -0.1923486,0 -0.3846982,0.07364 -0.53125,0.220703 l -1.9980469,2 c -0.09761,0.09763 -0.09761,0.255886 0,0.353516 l 0.3515625,0.353516 c 0.09785,0.09892 0.257619,0.09892 0.3554688,0 L 8.0000002,2.607422 v 10.78125 L 6.6777346,12.066406 c -0.09785,-0.09892 -0.257619,-0.09892 -0.3554688,0 l -0.3515625,0.353516 c -0.048805,0.04881 -0.072266,0.113763 -0.072266,0.177734 z M 10,9.9999998 h 4.5 C 15.328427,9.9999998 16,9.328427 16,8.5 v -1 C 16,6.6715729 15.328427,6 14.5,6 H 10 v 1 h 1 V 9 H 10 Z M 12,9 V 7 h 2.5 C 14.776142,7 15,7.2238576 15,7.5 v 1 C 15,8.7761424 14.776142,9 14.5,9 Z"
     sodipodi:nodetypes="sccccccsssssssccsssccsccscsccscsccsccccccccccscssssccccccccssssc" />
</svg>
