<?xml version="1.0" encoding="UTF-8" standalone="no"?>
<svg
   viewBox="0 0 16 16"
   version="1.1"
   id="svg6"
   sodipodi:docname="adjustcol.svg"
   inkscape:version="1.2.2 (b0a8486541, 2022-12-01)"
   xmlns:inkscape="http://www.inkscape.org/namespaces/inkscape"
   xmlns:sodipodi="http://sodipodi.sourceforge.net/DTD/sodipodi-0.dtd"
   xmlns="http://www.w3.org/2000/svg"
   xmlns:svg="http://www.w3.org/2000/svg">
  <sodipodi:namedview
     id="namedview8"
     pagecolor="#ffffff"
     bordercolor="#000000"
     borderopacity="0.25"
     inkscape:showpageshadow="false"
     inkscape:pageopacity="0.0"
     inkscape:pagecheckerboard="0"
     inkscape:deskcolor="#ffffff"
     showgrid="true"
     inkscape:zoom="32"
     inkscape:cx="8.390625"
     inkscape:cy="10.171875"
     inkscape:window-width="1269"
     inkscape:window-height="1367"
     inkscape:window-x="0"
     inkscape:window-y="0"
     inkscape:window-maximized="0"
     inkscape:current-layer="svg6"
     showborder="false">
    <inkscape:grid
       type="xygrid"
       id="grid284" />
  </sodipodi:namedview>
  <defs
     id="defs3051">
    <inkscape:path-effect
       effect="fillet_chamfer"
       id="path-effect1302"
       is_visible="true"
       lpeversion="1"
       nodesatellites_param="F,0,0,1,0,1.5,0,1 @ F,0,0,1,0,0,0,1 @ F,0,0,1,0,0,0,1 @ F,0,0,1,0,0,0,1 @ F,0,0,1,0,0,0,1 @ F,0,0,1,0,0,0,1 @ F,0,0,1,0,0,0,1 @ F,0,0,1,0,1.5,0,1 | F,0,1,1,0,0.5,0,1 @ F,0,1,1,0,0.5,0,1 @ F,0,0,1,0,0,0,1 @ F,0,0,1,0,0,0,1 | F,0,0,1,0,0,0,1 @ F,0,0,1,0,0,0,1 @ F,0,0,1,0,0,0,1 @ F,0,0,1,0,0,0,1 @ F,0,0,1,0,0,0,1 @ F,0,0,1,0,0,0,1 @ F,0,0,1,0,0,0,1 @ F,0,0,1,0,0,0,1 @ F,0,0,1,0,0,0,1 @ F,0,0,1,0,0,0,1 @ F,0,0,1,0,0,0,1 @ F,0,0,1,0,0,0,1 @ F,0,0,1,0,0,0,1 @ F,0,0,1,0,0,0,1 @ F,0,0,1,0,0,0,1 @ F,0,0,1,0,0,0,1 @ F,0,0,1,0,0,0,1 @ F,0,0,1,0,0,0,1 @ F,0,0,1,0,0,0,1 @ F,0,0,1,0,0,0,1 @ F,0,0,1,0,0,0,1 @ F,0,0,1,0,0,0,1 @ F,0,0,1,0,0,0,1 @ F,0,0,1,0,0,0,1 @ F,0,0,1,0,0,0,1 @ F,0,0,1,0,0,0,1 @ F,0,0,1,0,0,0,1 | F,0,0,1,0,0,0,1 @ F,0,0,1,0,1.5,0,1 @ F,0,0,1,0,1.5,0,1 @ F,0,0,1,0,0,0,1 @ F,0,0,1,0,0,0,1 @ F,0,0,1,0,0,0,1 @ F,0,0,1,0,0,0,1 @ F,0,0,1,0,0,0,1 | F,0,0,1,0,0,0,1 @ F,0,0,1,0,0,0,1 @ F,0,1,1,0,0.5,0,1 @ F,0,1,1,0,0.5,0,1"
       unit="px"
       method="auto"
       mode="F"
       radius="0.5"
       chamfer_steps="1"
       flexible="false"
       use_knot_distance="true"
       apply_no_radius="true"
       apply_with_radius="true"
       only_selected="true"
       hide_knots="false" />
    <style
       type="text/css"
       id="current-color-scheme">
      .ColorScheme-Text {
        color:#232629;
      }
      </style>
  </defs>
  <path
     id="path4"
     style="fill:#786d7d;fill-opacity:1;stroke:none"
     class="ColorScheme-Text"
     d="M 6,2.5 V 7 H 7 V 6 h 2 v 1 h 1 V 2.5 A 1.5,1.5 45 0 0 8.5,1 h -1 A 1.5,1.5 135 0 0 6,2.5 Z M 7.5,2 h 1 A 0.5,0.5 45 0 1 9,2.5 V 5 H 7 V 2.5 A 0.5,0.5 135 0 1 7.5,2 Z M 3.4023438,5.8984375 c -0.063971,0 -0.1269663,0.023461 -0.1757813,0.072266 l -2,1.9980469 C 1.0794987,8.1153014 1.0058594,8.3076514 1.0058594,8.5 c 0,0.1923486 0.073642,0.3847002 0.2207031,0.53125 l 2,1.998047 c 0.097629,0.09761 0.2556258,0.09735 0.3535156,0 l 0.3535157,-0.351563 c 0.09866,-0.09811 0.09838,-0.257088 0,-0.355468 L 2.6113281,9 H 13.392578 l -1.322266,1.322266 c -0.09838,0.09838 -0.09866,0.257358 0,0.355468 l 0.353516,0.351563 c 0.09789,0.09735 0.255887,0.09761 0.353516,0 l 2,-1.998047 C 14.924405,8.8847002 14.998047,8.6923486 14.998047,8.5 c 0,-0.1923486 -0.07364,-0.3846982 -0.220703,-0.53125 l -2,-1.9980469 c -0.09763,-0.09761 -0.255886,-0.09761 -0.353516,0 l -0.353516,0.3515625 c -0.09892,0.09785 -0.09892,0.257619 0,0.3554688 L 13.392578,8 H 2.6113281 L 3.9335938,6.6777344 c 0.09892,-0.09785 0.09892,-0.257619 0,-0.3554688 L 3.5800781,5.9707031 C 3.5312633,5.9218983 3.4663148,5.8984375 3.4023438,5.8984375 Z M 6,10 v 4.5 A 1.5,1.5 45 0 0 7.5,16 h 1 A 1.5,1.5 135 0 0 10,14.5 V 10 H 9 v 1 H 7 v -1 z m 1,2 h 2 v 2.5 A 0.5,0.5 135 0 1 8.5,15 h -1 A 0.5,0.5 45 0 1 7,14.5 Z" />
</svg>
