<?xml version="1.0" encoding="UTF-8" standalone="no"?>
<svg
   xml:space="preserve"
   width="16"
   height="16"
   version="1.1"
   id="svg8571"
   sodipodi:docname="akonadi-phone-home.svg"
   inkscape:version="1.2.2 (b0a8486541, 2022-12-01)"
   xmlns:inkscape="http://www.inkscape.org/namespaces/inkscape"
   xmlns:sodipodi="http://sodipodi.sourceforge.net/DTD/sodipodi-0.dtd"
   xmlns="http://www.w3.org/2000/svg"
   xmlns:svg="http://www.w3.org/2000/svg"><defs
     id="defs8575"><inkscape:path-effect
       effect="fillet_chamfer"
       id="path-effect9069"
       is_visible="true"
       lpeversion="1"
       nodesatellites_param="F,0,0,1,0,0.75,0,1 @ F,0,0,1,0,0.25,0,1 @ F,0,0,1,0,1.5,0,1 @ F,0,0,1,0,0.25,0,1 @ F,0,0,1,0,0.75,0,1 @ F,0,1,1,0,0.5,0,1"
       unit="px"
       method="auto"
       mode="F"
       radius="0.5"
       chamfer_steps="1"
       flexible="false"
       use_knot_distance="true"
       apply_no_radius="true"
       apply_with_radius="true"
       only_selected="true"
       hide_knots="false" /><inkscape:path-effect
       effect="fillet_chamfer"
       id="path-effect8696"
       is_visible="true"
       lpeversion="1"
       nodesatellites_param="F,0,0,1,0,0,0,1 @ F,0,0,1,0,0,0,1 @ F,0,0,1,0,0,0,1 @ F,0,0,1,0,0,0,1 @ F,0,0,1,0,0,0,1 @ F,0,0,1,0,0,0,1 @ F,0,1,1,0,0.25,0,1 @ F,0,0,1,0,0.75,0,1 @ F,0,0,1,0,0,0,1 @ F,0,0,1,0,0,0,1 @ F,0,0,1,0,0,0,1 @ F,0,0,1,0,0,0,1 @ F,0,0,1,0,0,0,1 @ F,0,0,1,0,0,0,1 @ F,0,0,1,0,0,0,1 @ F,0,0,1,0,0,0,1 @ F,0,0,1,0,0,0,1 @ F,0,0,1,0,0,0,1 @ F,0,1,1,0,0.25,0,1 @ F,0,0,1,0,0.75,0,1 @ F,0,0,1,0,0,0,1 @ F,0,0,1,0,0,0,1 @ F,0,0,1,0,0,0,1 @ F,0,0,1,0,0,0,1 @ F,0,0,1,0,0,0,1 @ F,0,0,1,0,0,0,1 | F,0,0,1,0,0,0,1 @ F,0,0,1,0,0,0,1 @ F,0,0,1,0,0,0,1 @ F,0,0,1,0,0,0,1 @ F,0,0,1,0,0,0,1 @ F,0,0,1,0,0,0,1 @ F,0,0,1,0,0,0,1 @ F,0,0,1,0,0,0,1 @ F,0,0,1,0,0,0,1 @ F,0,0,1,0,0,0,1 @ F,0,0,1,0,0,0,1"
       unit="px"
       method="auto"
       mode="F"
       radius="0.25"
       chamfer_steps="1"
       flexible="false"
       use_knot_distance="true"
       apply_no_radius="true"
       apply_with_radius="true"
       only_selected="true"
       hide_knots="false" /></defs><sodipodi:namedview
     id="namedview8573"
     pagecolor="#ffffff"
     bordercolor="#000000"
     borderopacity="0.25"
     inkscape:showpageshadow="false"
     inkscape:pageopacity="0.0"
     inkscape:pagecheckerboard="0"
     inkscape:deskcolor="#ffffff"
     showgrid="false"
     showborder="false"
     inkscape:zoom="32"
     inkscape:cx="10.3125"
     inkscape:cy="4.671875"
     inkscape:window-width="2560"
     inkscape:window-height="1367"
     inkscape:window-x="0"
     inkscape:window-y="0"
     inkscape:window-maximized="1"
     inkscape:current-layer="svg8571"><inkscape:grid
       type="xygrid"
       id="grid8694" /><inkscape:grid
       type="xygrid"
       id="grid8698"
       spacingx="0.5"
       spacingy="0.5"
       empspacing="0"
       empcolor="#0099e5"
       empopacity="0.09019608" /></sodipodi:namedview><path
     id="path8569"
     style="-inkscape-stroke:none;fill:#786d7d;fill-opacity:1"
     d="M 8 0.8125 C 7.6130004 0.8125 7.2245778 0.92820336 6.8925781 1.1582031 L 2.4492188 4.234375 C 1.5419089 4.8630168 1.0002555 5.8961876 1 7 L 1 13 C 1 14.098999 1.9010011 15 3 15 L 3.75 15 C 3.8880711 15 4 14.888071 4 14.75 C 4 14.335786 3.6642132 14 3.25 14 L 3 14 C 2.4420006 14 2 13.557999 2 13 L 2 7 C 2 6.2240008 2.3795788 5.4976402 3.0175781 5.0566406 L 7.4628906 1.9804688 C 7.7856474 1.7558185 8.2143526 1.7558185 8.5371094 1.9804688 L 12.982422 5.0566406 C 13.62015 5.4979145 14.000215 6.2244875 14 7 L 14 13 C 14 13.557999 13.557999 14 13 14 L 6.25 14 C 6.1119289 14 6 14.111929 6 14.25 C 6 14.664214 6.3357868 15 6.75 15 L 13 15 C 14.098999 15 15 14.098999 15 13 L 15 7 C 14.999517 5.8960025 14.45847 4.8627942 13.550781 4.234375 L 9.1074219 1.1582031 C 8.7819721 0.93266544 8.3959605 0.81224027 8 0.8125 z M 4.578125 6.0996094 C 4.3375331 6.0935194 4.0974513 6.2031958 3.9472656 6.4140625 C 3.8671922 6.526489 3.8934258 6.6815794 4.0058594 6.7617188 C 4.9309315 7.4210824 5.855161 8.0815103 6.7792969 8.7421875 C 7.4532147 9.2239804 8.5467209 9.2238909 9.2207031 8.7421875 C 10.144927 8.0816335 11.06928 7.4213789 11.994141 6.7617188 C 12.106549 6.6815435 12.132833 6.5265248 12.052734 6.4140625 C 11.812463 6.0767116 11.343042 5.9976979 11.005859 6.2382812 C 10.139132 6.8566995 9.2727679 7.475039 8.40625 8.09375 C 8.1815157 8.2542146 7.8184895 8.2542074 7.59375 8.09375 C 6.727212 7.4750673 5.8608254 6.8567582 4.9941406 6.2382812 C 4.8677032 6.148054 4.7224801 6.1032634 4.578125 6.0996094 z " /></svg>
