<?xml version="1.0" encoding="UTF-8" standalone="no"?>
<!-- Created with Inkscape (http://www.inkscape.org/) -->

<svg
   width="16"
   height="16"
   viewBox="0 0 16 16"
   version="1.1"
   id="svg1525"
   inkscape:version="1.2.2 (b0a8486541, 2022-12-01)"
   sodipodi:docname="align-horizontal-bottom-out.svg"
   xmlns:inkscape="http://www.inkscape.org/namespaces/inkscape"
   xmlns:sodipodi="http://sodipodi.sourceforge.net/DTD/sodipodi-0.dtd"
   xmlns="http://www.w3.org/2000/svg"
   xmlns:svg="http://www.w3.org/2000/svg">
  <sodipodi:namedview
     id="namedview1527"
     pagecolor="#ffffff"
     bordercolor="#000000"
     borderopacity="0.23921569"
     inkscape:showpageshadow="false"
     inkscape:pageopacity="0.0"
     inkscape:pagecheckerboard="0"
     inkscape:deskcolor="#ffffff"
     inkscape:document-units="px"
     showgrid="false"
     showborder="false"
     guidecolor="#1fca00"
     guideopacity="0.6"
     showguides="true"
     inkscape:zoom="21.301934"
     inkscape:cx="14.435309"
     inkscape:cy="0.96235393"
     inkscape:window-width="2560"
     inkscape:window-height="1367"
     inkscape:window-x="0"
     inkscape:window-y="0"
     inkscape:window-maximized="1"
     inkscape:current-layer="svg1525"
     inkscape:pageshadow="2">
    <inkscape:grid
       type="xygrid"
       id="grid1656"
       empspacing="4"
       color="#0099e5"
       opacity="0.05882353"
       empcolor="#0099e5"
       empopacity="0.18039216"
       dotted="false" />
    <inkscape:grid
       type="xygrid"
       id="grid130"
       empspacing="1"
       spacingx="0.5"
       spacingy="0.5"
       empcolor="#0099e5"
       empopacity="0.05490196"
       color="#0099e5"
       opacity="0" />
  </sodipodi:namedview>
  <defs
     id="defs1522">
    <inkscape:path-effect
       effect="fillet_chamfer"
       id="path-effect854"
       is_visible="false"
       lpeversion="1"
       nodesatellites_param="F,0,0,1,0,0,0,1 @ F,0,1,1,0,1,0,1 @ F,0,1,1,0,1,0,1 @ F,0,0,1,0,0,0,1"
       unit="px"
       method="auto"
       mode="F"
       radius="1"
       chamfer_steps="1"
       flexible="false"
       use_knot_distance="true"
       apply_no_radius="true"
       apply_with_radius="true"
       only_selected="true"
       hide_knots="false" />
    <inkscape:path-effect
       effect="fillet_chamfer"
       id="path-effect2090"
       is_visible="true"
       lpeversion="1"
       nodesatellites_param="F,0,1,1,0,0.5,0,1 @ F,0,1,1,0,0.5,0,1 @ F,0,1,1,0,0.5,0,1 @ F,0,1,1,0,0.5,0,1"
       unit="px"
       method="auto"
       mode="F"
       radius="0.25"
       chamfer_steps="1"
       flexible="false"
       use_knot_distance="true"
       apply_no_radius="true"
       apply_with_radius="true"
       only_selected="true"
       hide_knots="false"
       satellites_param="F,0,1,1,0,0.5,0,1 @ F,0,1,1,0,0.5,0,1 @ F,0,1,1,0,0.5,0,1 @ F,0,1,1,0,0.5,0,1" />
    <inkscape:path-effect
       effect="fillet_chamfer"
       id="path-effect2088"
       is_visible="true"
       lpeversion="1"
       nodesatellites_param="F,0,0,1,0,1,0,1 @ F,0,0,1,0,1,0,1 @ F,0,0,1,0,2,0,1 @ F,0,0,1,0,2,0,1 | F,0,0,1,0,0,0,1 @ F,0,1,1,0,1,0,1 @ F,0,1,1,0,1,0,1 @ F,0,0,1,0,0,0,1"
       unit="px"
       method="auto"
       mode="F"
       radius="1"
       chamfer_steps="1"
       flexible="false"
       use_knot_distance="true"
       apply_no_radius="true"
       apply_with_radius="true"
       only_selected="true"
       hide_knots="false"
       satellites_param="F,0,0,1,0,1,0,1 @ F,0,0,1,0,1,0,1 @ F,0,0,1,0,2,0,1 @ F,0,0,1,0,2,0,1 | F,0,0,1,0,0,0,1 @ F,0,1,1,0,1,0,1 @ F,0,1,1,0,1,0,1 @ F,0,0,1,0,0,0,1" />
    <inkscape:path-effect
       effect="fillet_chamfer"
       id="path-effect2086"
       is_visible="true"
       lpeversion="1"
       nodesatellites_param="F,0,0,1,0,1,0,1 @ F,0,0,1,0,1,0,1 @ F,0,0,1,0,2,0,1 @ F,0,0,1,0,2,0,1 | F,0,0,1,0,0,0,1 @ F,0,1,1,0,1,0,1 @ F,0,1,1,0,1,0,1 @ F,0,0,1,0,0,0,1"
       unit="px"
       method="auto"
       mode="F"
       radius="1"
       chamfer_steps="1"
       flexible="false"
       use_knot_distance="true"
       apply_no_radius="true"
       apply_with_radius="true"
       only_selected="true"
       hide_knots="false"
       satellites_param="F,0,0,1,0,1,0,1 @ F,0,0,1,0,1,0,1 @ F,0,0,1,0,2,0,1 @ F,0,0,1,0,2,0,1 | F,0,0,1,0,0,0,1 @ F,0,1,1,0,1,0,1 @ F,0,1,1,0,1,0,1 @ F,0,0,1,0,0,0,1" />
    <inkscape:path-effect
       effect="fillet_chamfer"
       id="path-effect2082"
       is_visible="true"
       lpeversion="1"
       nodesatellites_param="F,0,0,1,0,2,0,1 @ F,0,0,1,0,2,0,1 @ F,0,0,1,0,1,0,1 @ F,0,0,1,0,1,0,1 | F,0,1,1,0,1,0,1 @ F,0,0,1,0,0,0,1 @ F,0,0,1,0,0,0,1 @ F,0,1,1,0,1,0,1"
       unit="px"
       method="auto"
       mode="F"
       radius="1"
       chamfer_steps="1"
       flexible="false"
       use_knot_distance="true"
       apply_no_radius="true"
       apply_with_radius="true"
       only_selected="true"
       hide_knots="false"
       satellites_param="F,0,0,1,0,2,0,1 @ F,0,0,1,0,2,0,1 @ F,0,0,1,0,1,0,1 @ F,0,0,1,0,1,0,1 | F,0,1,1,0,1,0,1 @ F,0,0,1,0,0,0,1 @ F,0,0,1,0,0,0,1 @ F,0,1,1,0,1,0,1" />
    <clipPath
       clipPathUnits="userSpaceOnUse"
       id="clipath_lpe_path-effect481">
      <circle
         style="display:none;fill:#c8c8c8;fill-opacity:1;stroke:none;stroke-width:0.1;stroke-linecap:square;stroke-miterlimit:4;stroke-dasharray:none;stroke-opacity:1"
         id="circle487"
         cx="-79"
         cy="120"
         r="8"
         d="m -71,120 a 8,8 0 0 1 -8,8 8,8 0 0 1 -8,-8 8,8 0 0 1 8,-8 8,8 0 0 1 8,8 z" />
      <path
         id="lpe_path-effect481"
         style="fill:#c8c8c8;fill-opacity:1;stroke:none;stroke-width:0.1;stroke-linecap:square;stroke-miterlimit:4;stroke-dasharray:none;stroke-opacity:1"
         class="powerclip"
         d="m -92.05,106.95 h 26.1 v 26.1 h -26.1 z M -71,120 a 8,8 0 0 0 -8,-8 8,8 0 0 0 -8,8 8,8 0 0 0 8,8 8,8 0 0 0 8,-8 z" />
    </clipPath>
    <inkscape:path-effect
       effect="powerclip"
       id="path-effect481"
       is_visible="true"
       lpeversion="1"
       inverse="true"
       flatten="false"
       hide_clip="false"
       message="Use fill-rule evenodd on &lt;b&gt;fill and stroke&lt;/b&gt; dialog if no flatten result after convert clip to paths." />
    <clipPath
       clipPathUnits="userSpaceOnUse"
       id="clipath_lpe_path-effect485">
      <rect
         style="display:none;fill:#c8c8c8;fill-opacity:1;stroke:none;stroke-width:0.2;stroke-linecap:square;stroke-miterlimit:4;stroke-dasharray:none;stroke-opacity:1"
         id="rect492"
         width="16"
         height="16"
         x="-87"
         y="112"
         d="m -87,112 h 16 v 16 h -16 z" />
      <path
         id="lpe_path-effect485"
         style="fill:#c8c8c8;fill-opacity:1;stroke:none;stroke-width:0.2;stroke-linecap:square;stroke-miterlimit:4;stroke-dasharray:none;stroke-opacity:1"
         class="powerclip"
         d="m -92.05,106.95 h 26.1 v 26.1 h -26.1 z M -87,112 v 16 h 16 v -16 z" />
    </clipPath>
    <inkscape:path-effect
       effect="powerclip"
       id="path-effect485"
       is_visible="true"
       lpeversion="1"
       inverse="true"
       flatten="false"
       hide_clip="false"
       message="Use fill-rule evenodd on &lt;b&gt;fill and stroke&lt;/b&gt; dialog if no flatten result after convert clip to paths." />
  </defs>
  <path
     id="path300"
     style="color:#000000;fill:#786d7d;stroke-linecap:square;-inkscape-stroke:none;paint-order:markers stroke fill"
     d="M 11,1 C 9.8954305,1 9,1.8954305 9,3 v 4 c 0,0.5522847 0.4477153,1 1,1 h 4 c 0.552285,0 1,-0.4477153 1,-1 V 3 C 15,1.8954305 14.104569,1 13,1 Z M 3,2 C 1.8954305,2 1,2.8954305 1,4 V 7 C 1,7.5522847 1.4477153,8 2,8 H 6 C 6.5522847,8 7,7.5522847 7,7 V 4 C 7,2.8954305 6.1045695,2 5,2 Z m 8,0 h 2 c 0.552285,0 1,0.4477153 1,1 V 7 H 10 V 3 C 10,2.4477153 10.447715,2 11,2 Z M 3,3 H 5 C 5.5522847,3 6,3.4477153 6,4 V 7 H 2 V 4 C 2,3.4477153 2.4477153,3 3,3 Z M 0.25,9 C 0.11192881,9 0,9.1119288 0,9.25 v 0.5 C 0,9.8880712 0.11192881,10 0.25,10 h 15.5 C 15.888071,10 16,9.8880712 16,9.75 V 9.25 C 16,9.1119288 15.888071,9 15.75,9 Z M 10,11 c -0.5522847,0 -1,0.447715 -1,1 v 1 c 0,1.104569 0.8954305,2 2,2 h 2 c 1.104569,0 2,-0.895431 2,-2 v -1 c 0,-0.552285 -0.447715,-1 -1,-1 z m 0,1 h 4 v 1 c 0,0.552285 -0.447715,1 -1,1 h -2 c -0.552285,0 -1,-0.447715 -1,-1 z"
     sodipodi:nodetypes="sssssssssssssssssssssccsssssccssssssssssssssssssssccssssc" />
  <path
     style="color:#000000;fill:#786d7d;fill-opacity:0.98623854;stroke-linecap:square;-inkscape-stroke:none;paint-order:markers stroke fill;opacity:0.15"
     d="M 4,14 H 2 v -4 h 2 z"
     id="path2080"
     sodipodi:nodetypes="ccccc"
     transform="rotate(-90,8,8)" />
</svg>
