<?xml version="1.0" encoding="UTF-8" standalone="no"?>
<!-- Created with Inkscape (http://www.inkscape.org/) -->

<svg
   width="16"
   height="16"
   viewBox="0 0 16 16"
   version="1.1"
   id="svg1525"
   inkscape:version="1.2.2 (b0a8486541, 2022-12-01)"
   sodipodi:docname="align-horizontal-center.svg"
   xmlns:inkscape="http://www.inkscape.org/namespaces/inkscape"
   xmlns:sodipodi="http://sodipodi.sourceforge.net/DTD/sodipodi-0.dtd"
   xmlns="http://www.w3.org/2000/svg"
   xmlns:svg="http://www.w3.org/2000/svg">
  <sodipodi:namedview
     id="namedview1527"
     pagecolor="#ffffff"
     bordercolor="#000000"
     borderopacity="0.23921569"
     inkscape:showpageshadow="false"
     inkscape:pageopacity="0.0"
     inkscape:pagecheckerboard="0"
     inkscape:deskcolor="#ffffff"
     inkscape:document-units="px"
     showgrid="false"
     showborder="false"
     guidecolor="#1fca00"
     guideopacity="0.6"
     showguides="true"
     inkscape:zoom="16"
     inkscape:cx="12.9375"
     inkscape:cy="1.96875"
     inkscape:window-width="2560"
     inkscape:window-height="1367"
     inkscape:window-x="0"
     inkscape:window-y="0"
     inkscape:window-maximized="1"
     inkscape:current-layer="svg1525"
     inkscape:pageshadow="2">
    <inkscape:grid
       type="xygrid"
       id="grid1656"
       empspacing="4"
       color="#0099e5"
       opacity="0.05882353"
       empcolor="#0099e5"
       empopacity="0.18039216"
       dotted="false" />
    <inkscape:grid
       type="xygrid"
       id="grid130"
       empspacing="1"
       spacingx="0.5"
       spacingy="0.5"
       empcolor="#0099e5"
       empopacity="0.05490196"
       color="#0099e5"
       opacity="0" />
  </sodipodi:namedview>
  <defs
     id="defs1522">
    <inkscape:path-effect
       effect="fillet_chamfer"
       id="path-effect979"
       is_visible="true"
       lpeversion="1"
       satellites_param="F,0,1,1,0,0.5,0,1 @ F,0,1,1,0,0.5,0,1 @ F,0,1,1,0,0.5,0,1 @ F,0,1,1,0,0.5,0,1"
       unit="px"
       method="auto"
       mode="F"
       radius="0.25"
       chamfer_steps="1"
       flexible="false"
       use_knot_distance="true"
       apply_no_radius="true"
       apply_with_radius="true"
       only_selected="true"
       hide_knots="false"
       nodesatellites_param="F,0,1,1,0,0.5,0,1 @ F,0,1,1,0,0.5,0,1 @ F,0,1,1,0,0.5,0,1 @ F,0,1,1,0,0.5,0,1" />
    <inkscape:path-effect
       effect="fillet_chamfer"
       id="path-effect2480"
       is_visible="true"
       lpeversion="1"
       nodesatellites_param="F,0,0,1,0,0.25,0,1 @ F,0,0,1,0,0.25,0,1 @ F,0,0,1,0,0.25,0,1 @ F,0,0,1,0,0.25,0,1"
       unit="px"
       method="auto"
       mode="F"
       radius="0.25"
       chamfer_steps="1"
       flexible="false"
       use_knot_distance="true"
       apply_no_radius="true"
       apply_with_radius="true"
       only_selected="false"
       hide_knots="false" />
    <inkscape:path-effect
       effect="fillet_chamfer"
       id="path-effect2418"
       is_visible="true"
       lpeversion="1"
       nodesatellites_param="F,0,0,1,0,0,0,1 @ F,0,0,1,0,0,0,1 @ F,0,0,1,0,0,0,1 @ F,0,0,1,0,0,0,1 @ F,0,1,1,0,0.25,0,1 @ F,0,1,1,0,0.25,0,1 @ F,0,0,1,0,0,0,1 @ F,0,0,1,0,0,0,1 @ F,0,0,1,0,0,0,1 @ F,0,0,1,0,0,0,1 @ F,0,1,1,0,0.25,0,1 @ F,0,1,1,0,0.25,0,1 | F,0,1,1,0,0.25,0,1 @ F,0,1,1,0,0.25,0,1 @ F,0,0,1,0,0,0,1 @ F,0,0,1,0,0,0,1 @ F,0,0,1,0,0,0,1 @ F,0,0,1,0,0,0,1 @ F,0,1,1,0,0.25,0,1 @ F,0,1,1,0,0.25,0,1 @ F,0,0,1,0,0,0,1 @ F,0,0,1,0,0,0,1 @ F,0,0,1,0,0,0,1 @ F,0,0,1,0,0,0,1 | F,0,0,1,0,0,0,1 @ F,0,0,1,0,0,0,1 @ F,0,0,1,0,0,0,1 @ F,0,0,1,0,0,0,1 @ F,0,1,1,0,0.25,0,1 @ F,0,1,1,0,0.25,0,1 @ F,0,0,1,0,0,0,1 @ F,0,0,1,0,0,0,1 @ F,0,0,1,0,0,0,1 @ F,0,0,1,0,0,0,1 @ F,0,1,1,0,0.25,0,1 @ F,0,1,1,0,0.25,0,1 | F,0,1,1,0,0.25,0,1 @ F,0,1,1,0,0.25,0,1 @ F,0,0,1,0,0,0,1 @ F,0,0,1,0,0,0,1 @ F,0,0,1,0,0,0,1 @ F,0,0,1,0,0,0,1 @ F,0,1,1,0,0.25,0,1 @ F,0,1,1,0,0.25,0,1 @ F,0,0,1,0,0,0,1 @ F,0,0,1,0,0,0,1 @ F,0,0,1,0,0,0,1 @ F,0,0,1,0,0,0,1"
       unit="px"
       method="auto"
       mode="F"
       radius="0.25"
       chamfer_steps="1"
       flexible="false"
       use_knot_distance="true"
       apply_no_radius="true"
       apply_with_radius="true"
       only_selected="true"
       hide_knots="false" />
    <inkscape:path-effect
       effect="fillet_chamfer"
       id="path-effect2144"
       is_visible="true"
       lpeversion="1"
       nodesatellites_param="F,0,0,1,0,1.5,0,1 @ F,0,0,1,0,1.5,0,1 @ F,0,0,1,0,1.5,0,1 @ F,0,0,1,0,1.5,0,1"
       unit="px"
       method="auto"
       mode="F"
       radius="1.5"
       chamfer_steps="1"
       flexible="false"
       use_knot_distance="true"
       apply_no_radius="true"
       apply_with_radius="true"
       only_selected="false"
       hide_knots="false" />
    <inkscape:path-effect
       effect="fillet_chamfer"
       id="path-effect2142"
       is_visible="true"
       lpeversion="1"
       nodesatellites_param="F,0,0,1,0,1.5,0,1 @ F,0,0,1,0,1.5,0,1 @ F,0,0,1,0,1.5,0,1 @ F,0,0,1,0,1.5,0,1"
       unit="px"
       method="auto"
       mode="F"
       radius="1.5"
       chamfer_steps="1"
       flexible="false"
       use_knot_distance="true"
       apply_no_radius="true"
       apply_with_radius="true"
       only_selected="false"
       hide_knots="false" />
    <clipPath
       clipPathUnits="userSpaceOnUse"
       id="clipath_lpe_path-effect481">
      <circle
         style="display:none;fill:#c8c8c8;fill-opacity:1;stroke:none;stroke-width:0.1;stroke-linecap:square;stroke-miterlimit:4;stroke-dasharray:none;stroke-opacity:1"
         id="circle487"
         cx="-79"
         cy="120"
         r="8" />
    </clipPath>
    <inkscape:path-effect
       effect="powerclip"
       id="path-effect481"
       is_visible="true"
       lpeversion="1"
       inverse="true"
       flatten="false"
       hide_clip="false"
       message="Use fill-rule evenodd on &lt;b&gt;fill and stroke&lt;/b&gt; dialog if no flatten result after convert clip to paths." />
    <clipPath
       clipPathUnits="userSpaceOnUse"
       id="clipath_lpe_path-effect485">
      <rect
         style="display:block;fill:#c8c8c8;fill-opacity:1;stroke:none;stroke-width:0.2;stroke-linecap:square;stroke-miterlimit:4;stroke-dasharray:none;stroke-opacity:1"
         id="rect492"
         width="16"
         height="16"
         x="-87"
         y="112" />
    </clipPath>
    <inkscape:path-effect
       effect="powerclip"
       id="path-effect485"
       is_visible="true"
       lpeversion="1"
       inverse="true"
       flatten="false"
       hide_clip="false"
       message="Use fill-rule evenodd on &lt;b&gt;fill and stroke&lt;/b&gt; dialog if no flatten result after convert clip to paths." />
  </defs>
  <path
     id="path1933"
     style="color:#000000;fill:#786d7d;stroke-linecap:square;-inkscape-stroke:none"
     d="M 5,1 C 3.9013583,1 3,1.9013583 3,3 V 5 C 3,6.0986417 3.9013583,7 5,7 H 6.75 C 6.8880711,7 7,6.8880711 7,6.75 V 6.25 C 7,6.1119289 6.8880711,6 6.75,6 H 5 C 4.4417959,6 4,5.5582041 4,5 V 3 C 4,2.4417959 4.4417959,2 5,2 H 6.75 C 6.8880711,2 7,1.8880711 7,1.75 V 1.25 C 7,1.1119289 6.8880711,1 6.75,1 Z M 8.25,0 C 8.1119289,0 8,0.1119289 8,0.25 v 15.5 C 8,15.888071 8.1119289,16 8.25,16 h 0.5 C 8.8880711,16 9,15.888071 9,15.75 V 0.25 C 9,0.1119289 8.8880711,0 8.75,0 Z m 2,1 C 10.111929,1 10,1.1119289 10,1.25 v 0.5 C 10,1.8880711 10.111929,2 10.25,2 H 12 c 0.558203,0 1,0.4417959 1,1 v 2 c 0,0.5582041 -0.441797,1 -1,1 H 10.25 C 10.111929,6 10,6.1119289 10,6.25 v 0.5 C 10,6.8880711 10.111929,7 10.25,7 H 12 c 1.098642,0 2,-0.9013583 2,-2 V 3 C 14,1.9013583 13.098642,1 12,1 Z M 4,9 C 2.9013583,9 2,9.9013583 2,11 v 2 c 0,1.098642 0.9013583,2 2,2 H 6.75 C 6.8880711,15 7,14.888071 7,14.75 v -0.5 C 7,14.111929 6.8880711,14 6.75,14 H 4 C 3.4417959,14 3,13.558203 3,13 V 11 C 3,10.441797 3.4417959,10 4,10 H 6.75 C 6.8880711,10 7,9.8880711 7,9.75 V 9.25 C 7,9.1119289 6.8880711,9 6.75,9 Z m 6.25,0 C 10.111929,9 10,9.1119289 10,9.25 v 0.5 C 10,9.8880711 10.111929,10 10.25,10 H 13 c 0.558203,0 1,0.441797 1,1 v 2 c 0,0.558203 -0.441797,1 -1,1 H 10.25 C 10.111929,14 10,14.111929 10,14.25 v 0.5 C 10,14.888071 10.111929,15 10.25,15 H 13 c 1.098642,0 2,-0.901358 2,-2 V 11 C 15,9.9013583 14.098642,9 13,9 Z"
     sodipodi:nodetypes="sssssssssssssssssssssssssssssssssssssssssssssssssssssssssssssssssssssssssssss" />
</svg>
