<?xml version="1.0" encoding="UTF-8" standalone="no"?>
<!-- Created with Inkscape (http://www.inkscape.org/) -->

<svg
   width="16"
   height="16"
   viewBox="0 0 16 16"
   version="1.1"
   id="svg1525"
   inkscape:version="1.2.2 (b0a8486541, 2022-12-01)"
   sodipodi:docname="align-vertical-center.svg"
   xmlns:inkscape="http://www.inkscape.org/namespaces/inkscape"
   xmlns:sodipodi="http://sodipodi.sourceforge.net/DTD/sodipodi-0.dtd"
   xmlns="http://www.w3.org/2000/svg"
   xmlns:svg="http://www.w3.org/2000/svg">
  <sodipodi:namedview
     id="namedview1527"
     pagecolor="#ffffff"
     bordercolor="#000000"
     borderopacity="0.23921569"
     inkscape:showpageshadow="false"
     inkscape:pageopacity="0.0"
     inkscape:pagecheckerboard="0"
     inkscape:deskcolor="#ffffff"
     inkscape:document-units="px"
     showgrid="true"
     showborder="false"
     guidecolor="#1fca00"
     guideopacity="0.6"
     showguides="true"
     inkscape:zoom="40.466615"
     inkscape:cx="6.1285086"
     inkscape:cy="8.0683793"
     inkscape:window-width="2560"
     inkscape:window-height="1367"
     inkscape:window-x="0"
     inkscape:window-y="0"
     inkscape:window-maximized="1"
     inkscape:current-layer="svg1525"
     inkscape:pageshadow="2">
    <inkscape:grid
       type="xygrid"
       id="grid1656"
       empspacing="4"
       color="#0099e5"
       opacity="0.05882353"
       empcolor="#0099e5"
       empopacity="0.18039216"
       dotted="false" />
    <inkscape:grid
       type="xygrid"
       id="grid130"
       empspacing="1"
       spacingx="0.5"
       spacingy="0.5"
       empcolor="#0099e5"
       empopacity="0.05490196"
       color="#0099e5"
       opacity="0" />
  </sodipodi:namedview>
  <defs
     id="defs1522">
    <inkscape:path-effect
       effect="fillet_chamfer"
       id="path-effect951"
       is_visible="true"
       lpeversion="1"
       satellites_param="F,0,0,1,0,0.5,0,1 @ F,0,0,1,0,0.5,0,1 @ F,0,0,1,0,0.5,0,1 @ F,0,0,1,0,0.5,0,1"
       unit="px"
       method="auto"
       mode="F"
       radius="0.25"
       chamfer_steps="1"
       flexible="false"
       use_knot_distance="true"
       apply_no_radius="true"
       apply_with_radius="true"
       only_selected="true"
       hide_knots="false"
       nodesatellites_param="F,0,0,1,0,0.5,0,1 @ F,0,0,1,0,0.5,0,1 @ F,0,0,1,0,0.5,0,1 @ F,0,0,1,0,0.5,0,1" />
    <inkscape:path-effect
       effect="fillet_chamfer"
       id="path-effect2480"
       is_visible="true"
       lpeversion="1"
       nodesatellites_param="F,0,0,1,0,0.25,0,1 @ F,0,0,1,0,0.25,0,1 @ F,0,0,1,0,0.25,0,1 @ F,0,0,1,0,0.25,0,1"
       unit="px"
       method="auto"
       mode="F"
       radius="0.25"
       chamfer_steps="1"
       flexible="false"
       use_knot_distance="true"
       apply_no_radius="true"
       apply_with_radius="true"
       only_selected="false"
       hide_knots="false" />
    <inkscape:path-effect
       effect="fillet_chamfer"
       id="path-effect2418"
       is_visible="true"
       lpeversion="1"
       nodesatellites_param="F,0,0,1,0,0,0,1 @ F,0,0,1,0,0,0,1 @ F,0,0,1,0,0,0,1 @ F,0,0,1,0,0,0,1 @ F,0,1,1,0,0.25,0,1 @ F,0,1,1,0,0.25,0,1 @ F,0,0,1,0,0,0,1 @ F,0,0,1,0,0,0,1 @ F,0,0,1,0,0,0,1 @ F,0,0,1,0,0,0,1 @ F,0,1,1,0,0.25,0,1 @ F,0,1,1,0,0.25,0,1 | F,0,1,1,0,0.25,0,1 @ F,0,1,1,0,0.25,0,1 @ F,0,0,1,0,0,0,1 @ F,0,0,1,0,0,0,1 @ F,0,0,1,0,0,0,1 @ F,0,0,1,0,0,0,1 @ F,0,1,1,0,0.25,0,1 @ F,0,1,1,0,0.25,0,1 @ F,0,0,1,0,0,0,1 @ F,0,0,1,0,0,0,1 @ F,0,0,1,0,0,0,1 @ F,0,0,1,0,0,0,1 | F,0,0,1,0,0,0,1 @ F,0,0,1,0,0,0,1 @ F,0,0,1,0,0,0,1 @ F,0,0,1,0,0,0,1 @ F,0,1,1,0,0.25,0,1 @ F,0,1,1,0,0.25,0,1 @ F,0,0,1,0,0,0,1 @ F,0,0,1,0,0,0,1 @ F,0,0,1,0,0,0,1 @ F,0,0,1,0,0,0,1 @ F,0,1,1,0,0.25,0,1 @ F,0,1,1,0,0.25,0,1 | F,0,1,1,0,0.25,0,1 @ F,0,1,1,0,0.25,0,1 @ F,0,0,1,0,0,0,1 @ F,0,0,1,0,0,0,1 @ F,0,0,1,0,0,0,1 @ F,0,0,1,0,0,0,1 @ F,0,1,1,0,0.25,0,1 @ F,0,1,1,0,0.25,0,1 @ F,0,0,1,0,0,0,1 @ F,0,0,1,0,0,0,1 @ F,0,0,1,0,0,0,1 @ F,0,0,1,0,0,0,1"
       unit="px"
       method="auto"
       mode="F"
       radius="0.25"
       chamfer_steps="1"
       flexible="false"
       use_knot_distance="true"
       apply_no_radius="true"
       apply_with_radius="true"
       only_selected="true"
       hide_knots="false" />
    <inkscape:path-effect
       effect="fillet_chamfer"
       id="path-effect2144"
       is_visible="true"
       lpeversion="1"
       nodesatellites_param="F,0,0,1,0,1.5,0,1 @ F,0,0,1,0,1.5,0,1 @ F,0,0,1,0,1.5,0,1 @ F,0,0,1,0,1.5,0,1"
       unit="px"
       method="auto"
       mode="F"
       radius="1.5"
       chamfer_steps="1"
       flexible="false"
       use_knot_distance="true"
       apply_no_radius="true"
       apply_with_radius="true"
       only_selected="false"
       hide_knots="false" />
    <inkscape:path-effect
       effect="fillet_chamfer"
       id="path-effect2142"
       is_visible="true"
       lpeversion="1"
       nodesatellites_param="F,0,0,1,0,1.5,0,1 @ F,0,0,1,0,1.5,0,1 @ F,0,0,1,0,1.5,0,1 @ F,0,0,1,0,1.5,0,1"
       unit="px"
       method="auto"
       mode="F"
       radius="1.5"
       chamfer_steps="1"
       flexible="false"
       use_knot_distance="true"
       apply_no_radius="true"
       apply_with_radius="true"
       only_selected="false"
       hide_knots="false" />
    <clipPath
       clipPathUnits="userSpaceOnUse"
       id="clipath_lpe_path-effect481">
      <circle
         style="display:none;fill:#c8c8c8;fill-opacity:1;stroke:none;stroke-width:0.1;stroke-linecap:square;stroke-miterlimit:4;stroke-dasharray:none;stroke-opacity:1"
         id="circle487"
         cx="-79"
         cy="120"
         r="8" />
    </clipPath>
    <inkscape:path-effect
       effect="powerclip"
       id="path-effect481"
       is_visible="true"
       lpeversion="1"
       inverse="true"
       flatten="false"
       hide_clip="false"
       message="Use fill-rule evenodd on &lt;b&gt;fill and stroke&lt;/b&gt; dialog if no flatten result after convert clip to paths." />
    <clipPath
       clipPathUnits="userSpaceOnUse"
       id="clipath_lpe_path-effect485">
      <rect
         style="display:block;fill:#c8c8c8;fill-opacity:1;stroke:none;stroke-width:0.2;stroke-linecap:square;stroke-miterlimit:4;stroke-dasharray:none;stroke-opacity:1"
         id="rect492"
         width="16"
         height="16"
         x="-87"
         y="112" />
    </clipPath>
    <inkscape:path-effect
       effect="powerclip"
       id="path-effect485"
       is_visible="true"
       lpeversion="1"
       inverse="true"
       flatten="false"
       hide_clip="false"
       message="Use fill-rule evenodd on &lt;b&gt;fill and stroke&lt;/b&gt; dialog if no flatten result after convert clip to paths." />
  </defs>
  <path
     id="path1933"
     style="color:#000000;fill:#786d7d;stroke-linecap:square;-inkscape-stroke:none"
     d="M 11 2 C 9.9013581 2 9 2.9013581 9 4 L 9 6.75 C 9 6.8880711 9.1119289 7 9.25 7 L 9.75 7 C 9.8880711 7 10 6.8880711 10 6.75 L 10 4 C 10 3.4417966 10.441797 3 11 3 L 13 3 C 13.558203 3 14 3.4417966 14 4 L 14 6.75 C 14 6.8880711 14.111929 7 14.25 7 L 14.75 7 C 14.888071 7 15 6.8880711 15 6.75 L 15 4 C 15 2.9013581 14.098642 2 13 2 L 11 2 z M 3 3 C 1.9013583 3 1 3.9013581 1 5 L 1 6.75 C 1 6.8880711 1.1119289 7 1.25 7 L 1.75 7 C 1.8880711 7 2 6.8880711 2 6.75 L 2 5 C 2 4.4417966 2.4417959 4 3 4 L 5 4 C 5.5582041 4 6 4.4417966 6 5 L 6 6.75 C 6 6.8880711 6.1119289 7 6.25 7 L 6.75 7 C 6.8880711 7 7 6.8880711 7 6.75 L 7 5 C 7 3.9013581 6.0986417 3 5 3 L 3 3 z M 0.25 8 A 0.25 0.25 0 0 0 0 8.25 L 0 8.75 A 0.25 0.25 0 0 0 0.25 9 L 15.75 9 A 0.25 0.25 0 0 0 16 8.75 L 16 8.25 A 0.25 0.25 0 0 0 15.75 8 L 0.25 8 z M 1.25 10 C 1.1119289 10 1 10.111929 1 10.25 L 1 12 C 1 13.098642 1.9013583 14 3 14 L 5 14 C 6.0986417 14 7 13.098642 7 12 L 7 10.25 C 7 10.111929 6.8880711 10 6.75 10 L 6.25 10 C 6.1119289 10 6 10.111929 6 10.25 L 6 12 C 6 12.558204 5.5582041 13 5 13 L 3 13 C 2.4417959 13 2 12.558204 2 12 L 2 10.25 C 2 10.111929 1.8880711 10 1.75 10 L 1.25 10 z M 9.25 10 C 9.1119289 10 9 10.111929 9 10.25 L 9 13 C 9 14.098642 9.9013581 15 11 15 L 13 15 C 14.098642 15 15 14.098642 15 13 L 15 10.25 C 15 10.111929 14.888071 10 14.75 10 L 14.25 10 C 14.111929 10 14 10.111929 14 10.25 L 14 13 C 14 13.558204 13.558203 14 13 14 L 11 14 C 10.441797 14 10 13.558204 10 13 L 10 10.25 C 10 10.111929 9.8880711 10 9.75 10 L 9.25 10 z " />
</svg>
