<svg width="16" height="16" version="1.1" viewBox="0 0 16 16" xmlns="http://www.w3.org/2000/svg">
 <path d="m3 2c-1.0986 0-2 0.90137-2 2v7.793c0 0.58516 0.23271 1.1468 0.64648 1.5605l2 2c0.46721 0.46721 1.2398 0.46721 1.707 0l2-2c0.22651-0.22651 0.53318-0.35352 0.85352-0.35352h0.65234a0.14026 0.14026 0 0 0 0.14062-0.14062v-0.14453a0.71387 0.71387 0 0 0-0.71484-0.71484h-0.078125c-0.58517 0-1.1468 0.23271-1.5605 0.64648l-2 2c-0.085068 0.08507-0.2079 0.08507-0.29297 0l-2-2c-0.22651-0.22651-0.35352-0.53318-0.35352-0.85352v-7.793c0-0.55821 0.44179-1 1-1h10c0.5582 0 1 0.44179 1 1v4c0 2.1659-1.7217 3.9299-3.8711 3.998-0.00535 1.69e-4 -0.010269-1.49e-4 -0.015625 0-0.062409 0.001732-0.11328 0.052799-0.11328 0.11523v0.06836c0 0.59979 0.53374 0.80972 0.98242 0.72266 2.2937-0.44509 4.018-2.4789 4.0176-4.9043v-4c0-1.0986-0.90137-2-2-2h-10zm6.8027 10.016a0.076786 0.076864 0 0 0-0.066406 0.076172 0.076786 0.076864 0 0 0 0.078125 0.076172 0.076786 0.076864 0 0 0 0.076172-0.076172 0.076786 0.076864 0 0 0-0.0039062-0.023438 0.076786 0.076864 0 0 0-0.0058594-0.013671 0.076786 0.076864 0 0 0-0.0058594-0.009766 0.076786 0.076864 0 0 0-0.0039062-0.00586 0.076786 0.076864 0 0 0-0.011719-0.009765 0.076786 0.076864 0 0 0-0.0097656-0.005859 0.076786 0.076864 0 0 0-0.021484-0.007813 0.076786 0.076864 0 0 0-0.013672 0 0.076786 0.076864 0 0 0-0.011719 0zm-1.0156 0.72461a0.052865 0.057624 0 0 1 0.0019531 0 0.052865 0.057624 0 0 1 0.0058594 0.001954 0.052865 0.057624 0 0 1 0.0019531 0 0.052865 0.057624 0 0 1 0.0058594 0.001953 0.052865 0.057624 0 0 1 0.0019531 0 0.052865 0.057624 0 0 1 0.0019531 0.001953 0.052865 0.057624 0 0 1 0.0058594 0.001953 0.052865 0.057624 0 0 1 0.0019531 0.001953 0.052865 0.057624 0 0 1 0.0019531 0 0.052865 0.057624 0 0 1 0.0019532 0.001953 0.052865 0.057624 0 0 1 0.0019531 0.001953 0.052865 0.057624 0 0 1 0.0019531 0.001953 0.052865 0.057624 0 0 1 0.0019532 0.001953 0.052865 0.057624 0 0 1 0.0019531 0.001954 0.052865 0.057624 0 0 1 0.0019531 0.001953 0.052865 0.057624 0 0 1 0.0019531 0.001953 0.052865 0.057624 0 0 1 0 0.001953 0.052865 0.057624 0 0 1 0.0039063 0.005859 0.052865 0.057624 0 0 1 0 0.001954 0.052865 0.057624 0 0 1 0.0019531 0.005859 0.052865 0.057624 0 0 1 0.0019531 0.001953 0.052865 0.057624 0 0 1 0 0.001953 0.052865 0.057624 0 0 1 0 0.001953 0.052865 0.057624 0 0 1 0 0.001953 0.052865 0.057624 0 0 1 0.0019532 0.00586 0.052865 0.057624 0 0 1 0 0.001953 0.052865 0.057624 0 0 1 0 0.001953 0.052865 0.057624 0 0 1 0 0.001953 0.052865 0.057624 0 0 1-0.052734 0.056641 0.052865 0.057624 0 0 1-0.052734-0.056641 0.052865 0.057624 0 0 1 0.052734-0.058594z" fill="#786d7d" style="-inkscape-stroke:none;paint-order:markers stroke fill"/>
</svg>
