<svg width="16" height="16" version="1.1" viewBox="0 0 16 16" xmlns="http://www.w3.org/2000/svg">
 <path d="m3 1c-1.0986 0-2 0.90136-2 2v10c0 1.0986 0.90136 2 2 2h7.8809c0.06602 5.43e-4 0.11968-0.053121 0.11914-0.11914 0-0.55966-0.51101-0.88086-0.80859-0.88086h-7.1914c-0.55821 0-1-0.44179-1-1v-10c0-0.55821 0.44179-1 1-1h10c0.55821 0 1 0.44179 1 1v9.5c0 0.63634-0.36501 1.1347-0.86719 1.3633-0.52514 0.23823-0.63281 0.57264-0.63281 0.9082 0 0.12632 0.1028 0.22865 0.22852 0.2168 1.1877-0.11197 2.2715-1.0864 2.2715-2.4883v-9.5c0-1.0986-0.90136-2-2-2zm1.7891 3.2578c-0.043003 0.011646-0.082112 0.034572-0.11328 0.066406l-0.35156 0.35156c-0.098915 0.097846-0.098915 0.25762 0 0.35547l2.9688 2.9688-2.9688 2.9688c-0.098915 0.09785-0.098915 0.25762 0 0.35547l0.35156 0.35156c0.097846 0.09891 0.25762 0.09891 0.35547 0l2.9688-2.9687 2.9688 2.9687c0.09785 0.09891 0.25762 0.09891 0.35547 0l0.35156-0.35156c0.09891-0.09785 0.09891-0.25762 0-0.35547l-2.9687-2.9688 2.9687-2.9688c0.09891-0.097846 0.09891-0.25762 0-0.35547l-0.35156-0.35156c-0.09785-0.098915-0.25762-0.098915-0.35547 0l-2.9688 2.9688-2.9688-2.9688c-0.062948-0.064018-0.15539-0.089365-0.24219-0.066406zm7.5059 10.52c-0.05123-0.0066-0.10413 0.07169-0.14648 0.08008 0 0.03452 0.05795 0.0625 0.0957 0.0625 0.20068 0.06341 0.10156-0.07166 0.10156-0.10156-0.01597-0.02668-0.0337-0.0388-0.05078-0.04102z" fill="#786d7d" style="-inkscape-stroke:none"/>
</svg>
