<svg width="16" height="16" version="1.1" xml:space="preserve" xmlns="http://www.w3.org/2000/svg"><g fill="#786d7d"><g transform="matrix(-1 0 0 1 16 2)"><path d="m11.943-2c0.36226 4.3e-4 0.65582 0.29399 0.65625 0.65625v0.17773c1.8e-4 0.091774-0.07424 0.1662-0.16602 0.16602h-1.4785c-0.19622 0-0.35082 0.1651-0.41992 0.34766-0.14325 0.37845-0.51102 0.65234-0.93555 0.65234h-3.1992c-0.43352 0-0.80884-0.28487-0.94531-0.67578-0.05973-0.17108-0.20271-0.32422-0.38477-0.32422h-1.459c-0.11654 9e-5 -0.21103-0.094408-0.21094-0.21094v-0.046875c-5.4e-4 -0.41012 0.33207-0.74273 0.74219-0.74219h1.2578c0.45179 0 0.84002 0.31025 0.96094 0.72656 0.04256 0.14652 0.16333 0.27344 0.31641 0.27344h2.6836c0.1315 0 0.236-0.10896 0.26758-0.23633 0.10786-0.43511 0.50539-0.76367 0.9707-0.76367zm-8.2637 0.72656c-0.03431 0.00616-0.062821 0.027642-0.0625 0.0625 4.89e-4 0.034285 0.028213 0.062817 0.0625 0.0625 0.033717-4.79e-4 0.06233-0.03355 0.0625-0.0625 1.72e-4 -0.029297-0.011386-0.07168-0.0625-0.0625zm10.32 0.27344c1.098 0 2 0.901 2 2v2c0 0.546-0.454 1-1 1h-12.605c-0.21815 0-0.39453-0.17638-0.39453-0.39453v-0.46875c-5.6e-4 -0.074951 0.059815-0.13672 0.13477-0.13672h12.865v-2c0-0.558-0.442-1-1-1h-0.2168c-0.10113 0-0.1824 0.082359-0.20117 0.18164-0.08726 0.46146-0.49815 0.81836-0.98242 0.81836h-1.4062c-0.27287-8e-5 -0.41832-0.23201-0.49414-0.49414l-0.09961-0.3457c-0.02452-0.084779 0.071907-0.15966 0.16016-0.16016h1.6328c0.11437 0 0.20456-0.093408 0.22852-0.20508 0.09656-0.45001 0.5025-0.79492 0.97852-0.79492zm-11.6 0c0.43796 0 0.81631 0.29238 0.94922 0.68945 0.05532 0.16526 0.19215 0.31055 0.36719 0.31055h1.4688c0.11861 9e-5 0.2473 0.10075 0.21484 0.21484l-0.099609 0.35156c-0.06546 0.23015-0.1943 0.43316-0.43359 0.43359h-1.4668c-0.46573 0-0.86327-0.32993-0.9707-0.76562-0.03124-0.12676-0.13476-0.23438-0.26562-0.23438h-0.16406c-0.558 0-1 0.442-1 1v7.522a0.83612 0.83612 119.86 0 1-0.41447 0.72202l-0.1212 0.070778a0.30867 0.30867 29.858 0 1-0.46433-0.26655v-8.0482c0-1.099 0.901-2 2-2zm13.4 5.5c0.11046 0 0.19922 0.088759 0.19922 0.19922v6.3008c0 1.6569-1.3431 3-3 3h-8.2171a0.22325 0.22325 60.719 0 1-0.19047-0.33969l0.11776-0.19262a0.97758 0.97758 150.72 0 1 0.83407-0.46769h7.4557c1.1046 0 2-0.8954 2-2v-5.7422c0-0.41808 0.33973-0.75781 0.75781-0.75781zm-15.487 7.0628 0.65134 0.29784a1.8597 1.8597 34.787 0 1 0.54161 0.37625l0.27571 0.27571a2.2961 2.2961 52.642 0 1 0.37056 0.4854l0.40451 0.70872c0.088131 0.15441 0.015416 0.26789-0.15871 0.23241-1.1283-0.22992-2.0242-1.0938-2.3038-2.2035-0.041299-0.16386 0.065104-0.24314 0.21882-0.17285z" style="-inkscape-stroke:none"/></g><path d="m1 2v4h14v-4h-14zm2.0293 5c-0.57009 0-1.0293 0.45921-1.0293 1.0293v4.9414c0 0.57009 0.45921 1.0293 1.0293 1.0293h6.9785c-0.63239 3.58e-4 -1.2074-0.57464-1.207-1.207v-0.60742c-0.0012714-0.61694 0.55691-1.1802 1.1738-1.1855a1.0001 1.0001 0 0 1 0.0078125 0h1.0176v-1.0488c2.63e-4 -0.60204 0.54835-1.1501 1.1504-1.1504h0.50976c0.69982-4.268e-4 1.3374 0.63406 1.3398 1.334v-2.1055c0-0.57009-0.45921-1.0293-1.0293-1.0293h-9.9414z" opacity=".16" stroke-linejoin="round" stroke-width=".95816"/><path d="m12 9.9505v2.0495h-2.0168a0.18322 0.18322 135 0 0-0.18322 0.18322v0.60986a0.20691 0.20691 45 0 0 0.20691 0.20691h1.9931v1.9366a0.2634 0.2634 45 0 0 0.2634 0.2634h0.3041a0.4325 0.4325 135 0 0 0.4325-0.4325v-1.7675h1.9328a0.26724 0.26724 135 0 0 0.26724-0.26724v-0.50731a0.22546 0.22546 45 0 0-0.22546-0.22546h-1.9745v-1.8609a0.3391 0.3391 45 0 0-0.3391-0.3391h-0.51045a0.15046 0.15046 135 0 0-0.15046 0.15046z" stroke-linejoin="round" stroke-width=".964"/></g></svg>
