<svg version="1.1" viewBox="0 0 16 16" xml:space="preserve" xmlns="http://www.w3.org/2000/svg"><defs><style id="current-color-scheme" type="text/css">
      .ColorScheme-Text {
        color:#232629;
      }
      </style></defs><path d="m2 2c-1.0986 0-2 0.90136-2 2v1.75c0 0.13807 0.11193 0.25 0.25 0.25 0.41421 0 0.75-0.33579 0.75-0.75v-1.25c0-0.55821 0.44179-1 1-1h2.5c0.55338 0 1.0942 0.16374 1.5547 0.4707l1.3359 0.89062c0.62463 0.41642 1.3587 0.63867 2.1094 0.63867h3.5c0.55821 0 1 0.44179 1 1v4.2278a0.78787 0.78787 45 0 0 0.78787 0.78787h0.08035a0.13179 0.13179 135 0 0 0.13178-0.13179v-4.8838c0-1.0986-0.90136-2-2-2h-3.5c-0.55338 0-1.0942-0.16374-1.5547-0.4707l-1.3359-0.89062c-0.62463-0.41642-1.3587-0.63867-2.1094-0.63867zm5.1582 4.4707c-0.18803 0.0041236-0.37916 0.076064-0.54492 0.19922-0.25667 0.1907-0.55442 0.33008-0.86328 0.33008h-4.25c-0.8225 0-1.5 0.6775-1.5 1.5v4.5c0 1.0986 0.90136 2 2 2h8.8572a0.14295 0.14295 135.03 0 0 0.14295-0.14281l1.91e-4 -0.19484a0.65899 0.65899 45.037 0 0-0.65877-0.65963l-8.3416-0.002715c-0.55821-1.82e-4 -1-0.44179-1-1v-4.5c0-0.28206 0.21794-0.5 0.5-0.5h4.25c0.52891 0 1.0406-0.18314 1.4492-0.51172 0.10755-0.08648 0.26565-0.24612 0.36328-0.34375l0.11328-0.11328c0.098915-0.097846 0.098915-0.25762 0-0.35547-0.14643-0.14643-0.32955-0.2092-0.51758-0.20508zm6.8223 8.2695c0.27474-0.15604 0.50891-0.37526 0.68356-0.63739 0.0385-0.05779 0.01014-0.10638-0.05932-0.10592l-0.329 0.0022c-0.16036 0.0011-0.29461 0.13175-0.29518 0.29197-3.54e-4 0.10009-3.84e-4 0.20835-3.21e-4 0.29351 6.4e-5 0.08598 2.51e-4 0.15568 2.6e-4 0.15567z" color="#000000" fill="#786d7d" style="-inkscape-stroke:none"/><path d="m12.21 9.5061c-0.1215 0-0.22 0.0985-0.22 0.22v1.28c0 1.099 0.901 2 2 2h0.889c0.33722-5.51e-4 0.61045-0.27378 0.611-0.611v-0.075c0-0.17342-0.14058-0.314-0.314-0.314h-1.186c-0.558 0-1-0.442-1-1v-1c0-0.27614-0.22386-0.5-0.5-0.5zm-2.466 2.5c-0.14028 0-0.254 0.11372-0.254 0.254v0.55c0 0.109 0.087 0.196 0.195 0.196h1.305c0.558 0 1 0.442 1 1v1.211c0 0.16 0.13 0.289 0.29 0.289h0.339c0.20513 5.55e-4 0.37156-0.16587 0.371-0.371v-1.129c0-1.099-0.901-2-2-2z" color="#000000" fill="#786d7d" style="-inkscape-stroke:none"/></svg>
