<?xml version="1.0" encoding="UTF-8" standalone="no"?>
<!-- Created with Inkscape (http://www.inkscape.org/) -->

<svg
   width="16"
   height="16"
   viewBox="0 0 16 16"
   version="1.1"
   id="svg5"
   inkscape:version="1.2.2 (b0a8486541, 2022-12-01)"
   sodipodi:docname="arrow-up-double.svg"
   xmlns:inkscape="http://www.inkscape.org/namespaces/inkscape"
   xmlns:sodipodi="http://sodipodi.sourceforge.net/DTD/sodipodi-0.dtd"
   xmlns="http://www.w3.org/2000/svg"
   xmlns:svg="http://www.w3.org/2000/svg">
  <sodipodi:namedview
     id="namedview7"
     pagecolor="#ffffff"
     bordercolor="#000000"
     borderopacity="0.36078431"
     inkscape:pageshadow="2"
     inkscape:pageopacity="0.0"
     inkscape:pagecheckerboard="0"
     inkscape:document-units="px"
     showgrid="true"
     inkscape:showpageshadow="false"
     borderlayer="false"
     inkscape:snap-global="true"
     inkscape:zoom="63.700514"
     inkscape:cx="6.5619565"
     inkscape:cy="7.6686979"
     inkscape:window-width="2560"
     inkscape:window-height="1367"
     inkscape:window-x="0"
     inkscape:window-y="0"
     inkscape:window-maximized="1"
     inkscape:current-layer="svg5"
     showborder="false"
     inkscape:deskcolor="#d1d1d1">
    <inkscape:grid
       type="xygrid"
       id="grid881"
       empspacing="4"
       color="#3f3fff"
       opacity="0.07843137"
       empcolor="#3f3fff"
       empopacity="0.18039216" />
    <inkscape:grid
       type="xygrid"
       id="grid849"
       spacingx="0.5"
       spacingy="0.5"
       empspacing="1"
       empcolor="#3f3fff"
       empopacity="0.05882353" />
  </sodipodi:namedview>
  <defs
     id="defs2">
    <inkscape:path-effect
       effect="fillet_chamfer"
       id="path-effect294"
       is_visible="true"
       lpeversion="1"
       nodesatellites_param="F,0,0,1,0,0,0,1 @ F,0,0,1,0,0,0,1 @ F,0,0,1,0,0,0,1 @ F,0,0,1,0,0,0,1 @ F,0,0,1,0,0,0,1 @ F,0,0,1,0,0,0,1 @ F,0,0,1,0,0,0,1 @ F,0,0,1,0,0,0,1 @ F,0,1,1,0,0.25,0,1 @ F,0,0,1,0,0.75,0,1 @ F,0,0,1,0,0,0,1 @ F,0,0,1,0,0,0,1 @ F,0,0,1,0,0,0,1 @ F,0,0,1,0,0,0,1 @ F,0,0,1,0,0,0,1 @ F,0,0,1,0,0,0,1 @ F,0,0,1,0,0,0,1 @ F,0,0,1,0,0,0,1 @ F,0,0,1,0,0,0,1 @ F,0,0,1,0,0,0,1 @ F,0,0,1,0,0,0,1 @ F,0,0,1,0,0,0,1 @ F,0,0,1,0,0,0,1 @ F,0,0,1,0,0,0,1 @ F,0,0,1,0,0,0,1 @ F,0,0,1,0,0,0,1 @ F,0,0,1,0,0,0,1 @ F,0,0,1,0,0,0,1 @ F,0,0,1,0,0,0,1 @ F,0,0,1,0,0,0,1 @ F,0,0,1,0,0,0,1 @ F,0,1,1,0,0.25,0,1 @ F,0,0,1,0,0.75,0,1 @ F,0,0,1,0,0,0,1 @ F,0,0,1,0,0,0,1 @ F,0,0,1,0,0,0,1 @ F,0,0,1,0,0,0,1 @ F,0,0,1,0,0,0,1 @ F,0,0,1,0,0,0,1 @ F,0,0,1,0,0,0,1 @ F,0,0,1,0,0,0,1 @ F,0,0,1,0,0,0,1 @ F,0,0,1,0,0,0,1 @ F,0,0,1,0,0,0,1 @ F,0,0,1,0,0,0,1 @ F,0,0,1,0,0,0,1"
       unit="px"
       method="auto"
       mode="F"
       radius="0.25"
       chamfer_steps="1"
       flexible="false"
       use_knot_distance="true"
       apply_no_radius="true"
       apply_with_radius="true"
       only_selected="true"
       hide_knots="false" />
    <inkscape:path-effect
       effect="fillet_chamfer"
       id="path-effect10126"
       is_visible="false"
       lpeversion="1"
       satellites_param="F,0,0,1,0,0,0,1 @ F,0,0,1,0,0,0,1 @ F,0,0,1,0,0,0,1 @ F,0,0,1,0,0,0,1 @ F,0,0,1,0,0,0,1 @ F,0,0,1,0,0,0,1 @ F,0,0,1,0,0,0,1 @ F,0,0,1,0,0,0,1 @ F,0,0,1,0,0,0,1 @ F,0,0,1,0,0,0,1 @ F,0,0,1,0,0,0,1 @ F,0,0,1,0,0,0,1 @ F,0,0,1,0,0,0,1 @ F,0,0,1,0,0,0,1 @ F,0,0,1,0,0,0,1 @ F,0,0,1,0,0,0,1 @ F,0,0,1,0,0,0,1 @ F,0,0,1,0,0,0,1 @ F,0,0,1,0,0,0,1 @ F,0,0,1,0,0,0,1 @ F,0,0,1,0,0,0,1 @ F,0,0,1,0,0,0,1 @ F,0,0,1,0,0,0,1 @ F,0,0,1,0,0,0,1 @ F,0,0,1,0,0,0,1 @ F,0,0,1,0,0,0,1 @ F,0,0,1,0,0,0,1 @ F,0,0,1,0,0,0,1 @ F,0,0,1,0,0,0,1 @ F,0,0,1,0,0,0,1 @ F,0,0,1,0,0,0,1 @ F,0,0,1,0,0,0,1 @ F,0,0,1,0,0,0,1 @ F,0,0,1,0,0,0,1 @ F,0,0,1,0,0,0,1 @ F,0,0,1,0,0,0,1 @ F,0,0,1,0,0,0,1 @ F,0,0,1,0,0,0,1 @ F,0,0,1,0,0,0,1 @ F,0,0,1,0,0,0,1 @ F,0,0,1,0,0,0,1 @ F,0,0,1,0,0,0,1 @ F,0,0,1,0,0,0,1 @ F,0,0,1,0,0,0,1 @ F,0,0,1,0,0,0,1 @ F,0,0,1,0,0,0,1"
       unit="px"
       method="auto"
       mode="F"
       radius="0.25"
       chamfer_steps="1"
       flexible="false"
       use_knot_distance="true"
       apply_no_radius="true"
       apply_with_radius="true"
       only_selected="true"
       hide_knots="false"
       nodesatellites_param="F,0,0,1,0,0,0,1 @ F,0,0,1,0,0,0,1 @ F,0,0,1,0,0,0,1 @ F,0,0,1,0,0,0,1 @ F,0,0,1,0,0,0,1 @ F,0,0,1,0,0,0,1 @ F,0,0,1,0,0,0,1 @ F,0,0,1,0,0,0,1 @ F,0,0,1,0,0,0,1 @ F,0,0,1,0,0,0,1 @ F,0,0,1,0,0,0,1 @ F,0,0,1,0,0,0,1 @ F,0,0,1,0,0,0,1 @ F,0,0,1,0,0,0,1 @ F,0,0,1,0,0,0,1 @ F,0,0,1,0,0,0,1 @ F,0,0,1,0,0,0,1 @ F,0,0,1,0,0,0,1 @ F,0,0,1,0,0,0,1 @ F,0,0,1,0,0,0,1 @ F,0,0,1,0,0,0,1 @ F,0,0,1,0,0,0,1 @ F,0,0,1,0,0,0,1 @ F,0,0,1,0,0,0,1 @ F,0,0,1,0,0,0,1 @ F,0,0,1,0,0,0,1 @ F,0,0,1,0,0,0,1 @ F,0,0,1,0,0,0,1 @ F,0,0,1,0,0,0,1 @ F,0,0,1,0,0,0,1 @ F,0,0,1,0,0,0,1 @ F,0,0,1,0,0,0,1 @ F,0,0,1,0,0,0,1 @ F,0,0,1,0,0,0,1 @ F,0,0,1,0,0,0,1 @ F,0,0,1,0,0,0,1 @ F,0,0,1,0,0,0,1 @ F,0,0,1,0,0,0,1 @ F,0,0,1,0,0,0,1 @ F,0,0,1,0,0,0,1 @ F,0,0,1,0,0,0,1 @ F,0,0,1,0,0,0,1 @ F,0,0,1,0,0,0,1 @ F,0,0,1,0,0,0,1 @ F,0,0,1,0,0,0,1 @ F,0,0,1,0,0,0,1" />
    <inkscape:path-effect
       effect="fillet_chamfer"
       id="path-effect8780"
       is_visible="true"
       lpeversion="1"
       satellites_param="F,0,0,1,0,0,0,1 @ F,0,0,1,0,1.5,0,1 @ F,0,1,1,0,0.75,0,1 @ F,0,0,1,0,1.5,0,1 @ F,0,0,1,0,0.5,0,1 @ F,0,1,1,0,0.75,0,1 @ F,0,0,1,0,1.5,0,1 @ F,0,0,1,0,0.5,0,1 @ F,0,1,1,0,0.75,0,1 @ F,0,0,1,0,0.5,0,1 @ F,0,0,1,0,0,0,1"
       unit="px"
       method="auto"
       mode="F"
       radius="0.75"
       chamfer_steps="1"
       flexible="false"
       use_knot_distance="true"
       apply_no_radius="true"
       apply_with_radius="true"
       only_selected="true"
       hide_knots="false"
       nodesatellites_param="F,0,0,1,0,0,0,1 @ F,0,0,1,0,1.5,0,1 @ F,0,1,1,0,0.75,0,1 @ F,0,0,1,0,1.5,0,1 @ F,0,0,1,0,0.5,0,1 @ F,0,1,1,0,0.75,0,1 @ F,0,0,1,0,1.5,0,1 @ F,0,0,1,0,0.5,0,1 @ F,0,1,1,0,0.75,0,1 @ F,0,0,1,0,0.5,0,1 @ F,0,0,1,0,0,0,1" />
    <inkscape:path-effect
       effect="fillet_chamfer"
       id="path-effect2593"
       is_visible="true"
       lpeversion="1"
       satellites_param="F,0,0,1,0,0,0,1 @ F,0,0,1,0,1.5,0,1 @ F,0,1,1,0,0.75,0,1 @ F,0,0,1,0,1.5,0,1 @ F,0,0,1,0,0.5,0,1 @ F,0,1,1,0,0.75,0,1 @ F,0,0,1,0,1.5,0,1 @ F,0,0,1,0,0.5,0,1 @ F,0,1,1,0,0.75,0,1 @ F,0,0,1,0,0.5,0,1 @ F,0,0,1,0,0,0,1"
       unit="px"
       method="auto"
       mode="F"
       radius="0.75"
       chamfer_steps="1"
       flexible="false"
       use_knot_distance="true"
       apply_no_radius="true"
       apply_with_radius="true"
       only_selected="true"
       hide_knots="false"
       nodesatellites_param="F,0,0,1,0,0,0,1 @ F,0,0,1,0,1.5,0,1 @ F,0,1,1,0,0.75,0,1 @ F,0,0,1,0,1.5,0,1 @ F,0,0,1,0,0.5,0,1 @ F,0,1,1,0,0.75,0,1 @ F,0,0,1,0,1.5,0,1 @ F,0,0,1,0,0.5,0,1 @ F,0,1,1,0,0.75,0,1 @ F,0,0,1,0,0.5,0,1 @ F,0,0,1,0,0,0,1" />
    <clipPath
       clipPathUnits="userSpaceOnUse"
       id="clipath_lpe_path-effect164286">
      <circle
         style="display:none;fill:#c8c8c8;fill-opacity:1;stroke:none;stroke-width:0.1;stroke-linecap:square;stroke-miterlimit:4;stroke-dasharray:none;stroke-opacity:1"
         id="circle164297"
         cx="-79"
         cy="120"
         r="8"
         d="m -71,120 a 8,8 0 0 1 -8,8 8,8 0 0 1 -8,-8 8,8 0 0 1 8,-8 8,8 0 0 1 8,8 z" />
      <path
         id="lpe_path-effect164286"
         style="fill:#c8c8c8;fill-opacity:1;stroke:none;stroke-width:0.1;stroke-linecap:square;stroke-miterlimit:4;stroke-dasharray:none;stroke-opacity:1"
         class="powerclip"
         d="m -92.05,106.95 h 26.1 v 26.1 h -26.1 z M -71,120 a 8,8 0 0 0 -8,-8 8,8 0 0 0 -8,8 8,8 0 0 0 8,8 8,8 0 0 0 8,-8 z" />
    </clipPath>
    <inkscape:path-effect
       effect="powerclip"
       id="path-effect164286"
       is_visible="true"
       lpeversion="1"
       inverse="true"
       flatten="false"
       hide_clip="false"
       message="Use fill-rule evenodd on &lt;b&gt;fill and stroke&lt;/b&gt; dialog if no flatten result after convert clip to paths." />
    <clipPath
       clipPathUnits="userSpaceOnUse"
       id="clipath_lpe_path-effect164290">
      <rect
         style="display:none;fill:#c8c8c8;fill-opacity:1;stroke:none;stroke-width:0.2;stroke-linecap:square;stroke-miterlimit:4;stroke-dasharray:none;stroke-opacity:1"
         id="rect164292"
         width="16"
         height="16"
         x="-87"
         y="112"
         d="m -87,112 h 16 v 16 h -16 z" />
      <path
         id="lpe_path-effect164290"
         style="fill:#c8c8c8;fill-opacity:1;stroke:none;stroke-width:0.2;stroke-linecap:square;stroke-miterlimit:4;stroke-dasharray:none;stroke-opacity:1"
         class="powerclip"
         d="m -92.05,106.95 h 26.1 v 26.1 h -26.1 z M -87,112 v 16 h 16 v -16 z" />
    </clipPath>
    <inkscape:path-effect
       effect="powerclip"
       id="path-effect164290"
       is_visible="true"
       lpeversion="1"
       inverse="true"
       flatten="false"
       hide_clip="false"
       message="Use fill-rule evenodd on &lt;b&gt;fill and stroke&lt;/b&gt; dialog if no flatten result after convert clip to paths." />
  </defs>
  <path
     style="color:#000000;fill:#786d7d;-inkscape-stroke:none"
     d="m 2.0000003,14 c 0,0.485827 0.3053953,0.892829 0.6933594,1.064453 0.3879641,0.171623 0.89247,0.123678 1.2519531,-0.203125 L 7.7812503,11.375 c 0.1271863,-0.115624 0.3103137,-0.115624 0.4375,0 l 3.8359377,3.486328 c 0.359483,0.326803 0.863989,0.374748 1.251953,0.203125 C 13.694605,14.892829 14,14.485827 14,14 V 11.75 A 0.25,0.25 45 0 0 13.75,11.5 0.75,0.75 135 0 0 13,12.25 V 14 c 0,0.09023 -0.03723,0.123659 -0.09766,0.15039 -0.06043,0.02673 -0.109015,0.0314 -0.175781,-0.0293 L 8.8906253,10.634765 c -0.5021581,-0.456507 -1.2790919,-0.456507 -1.78125,0 l -3.8359375,3.486328 c -0.066766,0.0607 -0.1153532,0.05603 -0.1757812,0.0293 C 3.0372286,14.123663 3.0000006,14.090233 3.0000006,14 v -3 c 0,-0.177835 0.075445,-0.347173 0.2070313,-0.466797 L 7.7812506,6.3749997 c 0.1271863,-0.1156239 0.3103137,-0.1156239 0.4375,0 L 12.054688,9.861328 c 0.359483,0.326803 0.863989,0.374748 1.251953,0.203125 C 13.694605,9.892829 14,9.485827 14,8.9999997 V 6 C 14,5.540935 13.806477,5.101768 13.466797,4.792968 L 8.8906253,0.634765 c -0.5021581,-0.45650798 -1.2790919,-0.45650798 -1.78125,0 L 2.5332034,4.792968 C 2.1935234,5.101768 2.0000003,5.540935 2.0000003,6 v 1.7499997 a 0.25,0.25 45 0 0 0.25,0.25 0.75,0.75 135 0 0 0.75,-0.75 V 6 c 0,-0.177834 0.075445,-0.347174 0.2070313,-0.466798 L 7.7812503,1.374999 c 0.1271863,-0.115624 0.3103137,-0.115624 0.4375,0 L 12.792969,5.533202 C 12.924555,5.652826 13,5.822166 13,6 v 2.9999997 c 0,0.090232 -0.03723,0.1236591 -0.09766,0.1503906 -0.06043,0.026732 -0.109015,0.0314 -0.175781,-0.029297 L 8.8906253,5.634765 c -0.5021581,-0.456508 -1.2790919,-0.456508 -1.78125,0 L 2.5332034,9.792968 C 2.1935234,10.101768 2.0000003,10.540935 2.0000003,11 Z"
     id="path920"
     sodipodi:nodetypes="ssccccssccsscccccssccccsssccccsccsccccsssccccss" />
</svg>
