<?xml version="1.0" encoding="UTF-8" standalone="no"?>
<svg
   viewBox="0 0 16 16"
   version="1.1"
   id="svg6"
   sodipodi:docname="backup.svg"
   inkscape:version="1.2.2 (b0a8486541, 2022-12-01)"
   xmlns:inkscape="http://www.inkscape.org/namespaces/inkscape"
   xmlns:sodipodi="http://sodipodi.sourceforge.net/DTD/sodipodi-0.dtd"
   xmlns="http://www.w3.org/2000/svg"
   xmlns:svg="http://www.w3.org/2000/svg">
  <sodipodi:namedview
     id="namedview8"
     pagecolor="#ffffff"
     bordercolor="#000000"
     borderopacity="0.25"
     inkscape:showpageshadow="2"
     inkscape:pageopacity="0.0"
     inkscape:pagecheckerboard="0"
     inkscape:deskcolor="#ffffff"
     showgrid="false"
     inkscape:zoom="45.254834"
     inkscape:cx="6.5628348"
     inkscape:cy="8.0212426"
     inkscape:window-width="2560"
     inkscape:window-height="1355"
     inkscape:window-x="0"
     inkscape:window-y="0"
     inkscape:window-maximized="1"
     inkscape:current-layer="svg6"
     showborder="false">
    <inkscape:grid
       type="xygrid"
       id="grid237" />
    <inkscape:grid
       type="xygrid"
       id="grid291"
       spacingx="0.5"
       spacingy="0.5"
       empspacing="1"
       empcolor="#0099e5"
       empopacity="0.08235294" />
  </sodipodi:namedview>
  <defs
     id="defs3051">
    <inkscape:path-effect
       effect="fillet_chamfer"
       id="path-effect2613"
       is_visible="true"
       lpeversion="1"
       nodesatellites_param="F,0,0,1,0,0,0,1 @ F,0,0,1,0,0,0,1 @ F,0,0,1,0,0,0,1 @ F,0,0,1,0,0.75,0,1 @ F,0,0,1,0,0.25,0,1 @ F,0,0,1,0,0.75,0,1 @ F,0,0,1,0,0.25,0,1 @ F,0,0,1,0,0.75,0,1 @ F,0,0,1,0,0,0,1 @ F,0,0,1,0,0,0,1 @ F,0,0,1,0,0,0,1 @ F,0,0,1,0,0,0,1 @ F,0,0,1,0,0,0,1 @ F,0,1,1,0,0.33,0,1 @ F,0,1,1,0,0.33,0,1 @ F,0,0,1,0,0,0,1 @ F,0,0,1,0,0,0,1"
       unit="px"
       method="auto"
       mode="F"
       radius="0.33"
       chamfer_steps="1"
       flexible="false"
       use_knot_distance="true"
       apply_no_radius="true"
       apply_with_radius="true"
       only_selected="true"
       hide_knots="false" />
    <inkscape:path-effect
       effect="fillet_chamfer"
       id="path-effect2611"
       is_visible="true"
       lpeversion="1"
       nodesatellites_param="F,0,0,1,0,0.75,0,1 @ F,0,0,1,0,0,0,1 @ F,0,0,1,0,0,0,1 @ F,0,1,1,0,0.25,0,1 @ F,0,0,1,0,0.75,0,1 @ F,0,0,1,0,0,0,1 @ F,0,0,1,0,0,0,1 @ F,0,1,1,0,0.25,0,1"
       unit="px"
       method="auto"
       mode="F"
       radius="0.25"
       chamfer_steps="1"
       flexible="false"
       use_knot_distance="true"
       apply_no_radius="true"
       apply_with_radius="true"
       only_selected="true"
       hide_knots="false" />
    <inkscape:path-effect
       effect="fillet_chamfer"
       id="path-effect2605"
       is_visible="true"
       lpeversion="1"
       nodesatellites_param="F,0,0,1,0,0,0,1 @ F,0,0,1,0,1,0,1 @ F,0,0,1,0,0,0,1"
       unit="px"
       method="auto"
       mode="F"
       radius="0"
       chamfer_steps="1"
       flexible="false"
       use_knot_distance="true"
       apply_no_radius="true"
       apply_with_radius="true"
       only_selected="false"
       hide_knots="false" />
    <style
       type="text/css"
       id="current-color-scheme">
      .ColorScheme-Text {
        color:#232629;
      }
      </style>
  </defs>
  <path
     id="path293"
     style="color:#000000;fill:#786d7d;stroke-linecap:square;-inkscape-stroke:none;paint-order:markers stroke fill;fill-opacity:1"
     d="M 9 1 C 5.1399524 1 2 4.1399524 2 8 L 2 11.292969 L 1.03125 10.324219 A 0.74999998 0.74999998 0 0 0 -0.03125 10.324219 A 0.24994656 0.24994656 0 0 0 -0.029296875 10.677734 L 1.96875 12.675781 A 0.75000006 0.75000006 0 0 0 3.03125 12.675781 L 5.0292969 10.677734 A 0.24999999 0.24999999 0 0 0 5.0292969 10.322266 A 0.74994651 0.74994651 0 0 0 3.96875 10.324219 L 3 11.292969 L 3 8 C 3 4.680389 5.680389 2 9 2 C 12.319612 2 15 4.680389 15 8 C 15 11.319612 12.319612 14 9 14 C 8.4139938 14 7.8491179 13.915916 7.3144531 13.759766 C 7.1395364 13.708681 7 13.806027 7 13.988281 L 7 14.378906 C 7 14.56116 7.1414584 14.751147 7.3183594 14.794922 C 7.8572098 14.928261 8.4205787 15 9 15 C 12.860047 15 16 11.860047 16 8 C 16 4.1399524 12.860047 1 9 1 z M 8.75 4 A 0.75 0.75 0 0 0 8 4.75 L 8 7.5 C 8 8.3225032 8.6774968 9 9.5 9 L 10.75 9 A 0.25 0.25 0 0 0 11 8.75 A 0.75 0.75 0 0 0 10.25 8 L 9.5 8 C 9.2179359 8 9 7.7820641 9 7.5 L 9 4.25 A 0.25 0.25 0 0 0 8.75 4 z " />
</svg>
