<?xml version="1.0" encoding="UTF-8" standalone="no"?>
<svg
   viewBox="0 0 16 16"
   version="1.1"
   id="svg6"
   sodipodi:docname="black_sum.svg"
   inkscape:version="1.2.2 (b0a8486541, 2022-12-01)"
   xmlns:inkscape="http://www.inkscape.org/namespaces/inkscape"
   xmlns:sodipodi="http://sodipodi.sourceforge.net/DTD/sodipodi-0.dtd"
   xmlns="http://www.w3.org/2000/svg"
   xmlns:svg="http://www.w3.org/2000/svg">
  <sodipodi:namedview
     id="namedview8"
     pagecolor="#ffffff"
     bordercolor="#000000"
     borderopacity="0.25"
     inkscape:showpageshadow="2"
     inkscape:pageopacity="0.0"
     inkscape:pagecheckerboard="0"
     inkscape:deskcolor="#ffffff"
     showgrid="false"
     showborder="false"
     inkscape:zoom="11.313708"
     inkscape:cx="12.020815"
     inkscape:cy="13.788582"
     inkscape:window-width="2560"
     inkscape:window-height="1355"
     inkscape:window-x="0"
     inkscape:window-y="0"
     inkscape:window-maximized="1"
     inkscape:current-layer="svg6">
    <inkscape:grid
       type="xygrid"
       id="grid133" />
    <inkscape:grid
       type="xygrid"
       id="grid895"
       spacingx="0.5"
       spacingy="0.5"
       empspacing="1"
       empcolor="#0099e5"
       empopacity="0.08235294" />
  </sodipodi:namedview>
  <defs
     id="defs3051">
    <inkscape:path-effect
       effect="fillet_chamfer"
       id="path-effect893"
       is_visible="true"
       lpeversion="1"
       nodesatellites_param="F,0,0,1,0,0.4472136,0,1 @ F,0,0,1,0,0.4472136,0,1 @ F,0,0,1,0,0.71973632,0,1 @ F,0,0,1,0,0.4472136,0,1 @ F,0,0,1,0,0.4472136,0,1 @ F,0,0,1,0,1.5,0,1 @ F,0,1,1,0,0.33,0,1 @ F,0,1,1,0,0.33,0,1 @ F,0,0,1,0,0.5,0,1 @ F,0,0,1,0,0,0,1 @ F,0,0,1,0,1.5,0,1 @ F,0,0,1,0,0,0,1 @ F,0,0,1,0,0.5,0,1 @ F,0,1,1,0,0.33,0,1 @ F,0,1,1,0,0.33,0,1 @ F,0,0,1,0,1.5,0,1"
       unit="px"
       method="auto"
       mode="F"
       radius="0.33"
       chamfer_steps="1"
       flexible="false"
       use_knot_distance="true"
       apply_no_radius="true"
       apply_with_radius="true"
       only_selected="true"
       hide_knots="false" />
    <style
       type="text/css"
       id="current-color-scheme">
      .ColorScheme-Text {
        color:#232629;
      }
      </style>
  </defs>
  <path
     style="fill:#786d7d;fill-opacity:1;stroke:none"
     d="M 3.3,1.4 3.2,1.6 a 0.68379656,0.68379656 83.37974 0 0 0.086299,0.743559 L 7.539236,7.4470832 a 0.86368358,0.86368358 90 0 1 0,1.1058336 L 3.2862992,13.656441 A 0.68379656,0.68379656 96.62026 0 0 3.2,14.4 l 0.1,0.2 A 0.72360681,0.72360681 31.717474 0 0 3.9472136,15 H 11.5 A 1.5,1.5 135 0 0 13,13.5 v -0.67 a 0.20395122,0.20395122 31.717474 0 0 -0.295161,-0.18242 l -0.409678,0.20484 A 0.53395122,0.53395122 121.71747 0 0 12,13.33 V 13.5 A 0.5,0.5 135 0 1 11.5,14 H 4.21875 L 8.286195,9.1493824 a 1.7888199,1.7888199 90 0 0 0,-2.2987648 L 4.21875,2 H 11.5 A 0.5,0.5 45 0 1 12,2.5 v 0.17 a 0.53395122,0.53395122 58.282526 0 0 0.295161,0.4775805 l 0.409678,0.204839 A 0.20395122,0.20395122 148.28253 0 0 13,3.17 V 2.5 A 1.5,1.5 45 0 0 11.5,1 H 3.9472136 A 0.72360681,0.72360681 148.28253 0 0 3.3,1.4 Z"
     class="ColorScheme-Text"
     id="path4"
     sodipodi:nodetypes="ccccccccccccccccc" />
</svg>
