<?xml version="1.0" encoding="UTF-8" standalone="no"?>
<svg
   width="16"
   height="16"
   version="1.1"
   viewBox="0 0 16 16"
   id="svg16054"
   sodipodi:docname="bookmark-new-list.svg"
   inkscape:version="1.2.2 (b0a8486541, 2022-12-01)"
   xmlns:inkscape="http://www.inkscape.org/namespaces/inkscape"
   xmlns:sodipodi="http://sodipodi.sourceforge.net/DTD/sodipodi-0.dtd"
   xmlns="http://www.w3.org/2000/svg"
   xmlns:svg="http://www.w3.org/2000/svg">
  <defs
     id="defs16058">
    <inkscape:path-effect
       effect="fillet_chamfer"
       id="path-effect20938"
       is_visible="true"
       lpeversion="1"
       nodesatellites_param="F,0,1,1,0,0.25,0,1 @ F,0,1,1,0,0.25,0,1 @ F,0,1,1,0,0.25,0,1 @ F,0,1,1,0,0.25,0,1 | F,0,0,1,0,0,0,1 @ F,0,0,1,0,0,0,1 @ F,0,0,1,0,0,0,1 @ F,0,0,1,0,0,0,1 @ F,0,0,1,0,0,0,1 @ F,0,0,1,0,0,0,1 @ F,0,0,1,0,0,0,1 @ F,0,0,1,0,0,0,1 @ F,0,0,1,0,0,0,1 @ F,0,0,1,0,0,0,1 @ F,0,0,1,0,0,0,1 @ F,0,0,1,0,0,0,1 @ F,0,0,1,0,0,0,1 @ F,0,0,1,0,0,0,1 @ F,0,0,1,0,0,0,1 @ F,0,0,1,0,0,0,1 @ F,0,0,1,0,0,0,1 @ F,0,0,1,0,0,0,1 @ F,0,0,1,0,0,0,1 @ F,0,0,1,0,0,0,1 @ F,0,0,1,0,0,0,1 @ F,0,0,1,0,0,0,1 @ F,0,0,1,0,0,0,1 @ F,0,0,1,0,0,0,1 @ F,0,0,1,0,0,0,1 @ F,0,0,1,0,0,0,1 @ F,0,1,1,0,0.25,0,1 @ F,0,1,1,0,0.25,0,1 | F,0,1,1,0,0.25,0,1 @ F,0,1,1,0,0.25,0,1 @ F,0,1,1,0,0.25,0,1 @ F,0,1,1,0,0.25,0,1 | F,0,1,1,0,0.25,0,1 @ F,0,1,1,0,0.25,0,1 @ F,0,1,1,0,0.25,0,1 @ F,0,1,1,0,0.25,0,1 | F,0,1,1,0,0.25,0,1 @ F,0,0,1,0,0,0,1 @ F,0,0,1,0,0,0,1 @ F,0,0,1,0,0,0,1 @ F,0,0,1,0,0,0,1 @ F,0,0,1,0,0,0,1 @ F,0,0,1,0,0,0,1 @ F,0,0,1,0,0,0,1 @ F,0,0,1,0,0,0,1 @ F,0,0,1,0,0,0,1 @ F,0,1,1,0,0.25,0,1"
       unit="px"
       method="auto"
       mode="F"
       radius="0.25"
       chamfer_steps="1"
       flexible="false"
       use_knot_distance="true"
       apply_no_radius="true"
       apply_with_radius="true"
       only_selected="true"
       hide_knots="false" />
    <inkscape:path-effect
       effect="fillet_chamfer"
       id="path-effect16990"
       is_visible="true"
       lpeversion="1"
       nodesatellites_param="F,0,0,1,0,0,0,1 @ F,0,0,1,0,0,0,1 @ F,0,0,1,0,0,0,1 @ F,0,0,1,0,0,0,1 @ F,0,0,1,0,0,0,1 @ F,0,0,1,0,0,0,1 @ F,0,0,1,0,0,0,1 @ F,0,0,1,0,0,0,1 @ F,0,0,1,0,0,0,1 @ F,0,0,1,0,0,0,1 @ F,0,0,1,0,0,0,1 @ F,0,1,1,0,0.25,0,1 @ F,0,0,1,0,0.75,0,1 @ F,0,0,1,0,0,0,1 @ F,0,0,1,0,0,0,1 @ F,0,0,1,0,0,0,1 @ F,0,0,1,0,0,0,1 @ F,0,0,1,0,0,0,1 @ F,0,0,1,0,0,0,1 @ F,0,0,1,0,0,0,1 @ F,0,0,1,0,0,0,1 @ F,0,0,1,0,0,0,1 @ F,0,0,1,0,0,0,1 @ F,0,0,1,0,0,0,1 @ F,0,0,1,0,0,0,1 @ F,0,0,1,0,0,0,1 @ F,0,0,1,0,0,0,1 @ F,0,0,1,0,0,0,1 @ F,0,0,1,0,0,0,1 @ F,0,1,1,0,0.25,0,1 @ F,0,0,1,0,0.75,0,1 @ F,0,0,1,0,0,0,1 @ F,0,0,1,0,0,0,1 @ F,0,0,1,0,0,0,1 @ F,0,0,1,0,0,0,1 @ F,0,0,1,0,0,0,1"
       unit="px"
       method="auto"
       mode="F"
       radius="0.25"
       chamfer_steps="1"
       flexible="false"
       use_knot_distance="true"
       apply_no_radius="true"
       apply_with_radius="true"
       only_selected="true"
       hide_knots="false" />
    <inkscape:path-effect
       effect="fillet_chamfer"
       id="path-effect16973"
       is_visible="true"
       lpeversion="1"
       nodesatellites_param="F,0,0,1,0,0,0,1 @ F,0,0,1,0,1.5,0,1 @ F,0,0,1,0,1,0,1 @ F,0,0,1,0,0,0,1"
       unit="px"
       method="auto"
       mode="F"
       radius="0"
       chamfer_steps="1"
       flexible="false"
       use_knot_distance="true"
       apply_no_radius="true"
       apply_with_radius="true"
       only_selected="false"
       hide_knots="false" />
    <inkscape:path-effect
       effect="fillet_chamfer"
       id="path-effect16602"
       is_visible="true"
       lpeversion="1"
       nodesatellites_param="F,0,0,1,0,0,0,1 @ F,0,0,1,0,2.5,0,1 @ F,0,0,1,0,1.5,0,1 @ F,0,0,1,0,1.5,0,1 @ F,0,0,1,0,2.4748737,0,1 @ F,0,0,1,0,1,0,1 @ F,0,0,1,0,1.5,0,1 @ F,0,0,1,0,0,0,1"
       unit="px"
       method="auto"
       mode="F"
       radius="0"
       chamfer_steps="1"
       flexible="false"
       use_knot_distance="true"
       apply_no_radius="true"
       apply_with_radius="true"
       only_selected="false"
       hide_knots="false" />
  </defs>
  <sodipodi:namedview
     id="namedview16056"
     pagecolor="#ffffff"
     bordercolor="#000000"
     borderopacity="0.25"
     inkscape:showpageshadow="false"
     inkscape:pageopacity="0.0"
     inkscape:pagecheckerboard="0"
     inkscape:deskcolor="#ffffff"
     showgrid="false"
     showborder="false"
     inkscape:zoom="22.627417"
     inkscape:cx="18.340582"
     inkscape:cy="5.3695921"
     inkscape:window-width="2560"
     inkscape:window-height="1367"
     inkscape:window-x="0"
     inkscape:window-y="0"
     inkscape:window-maximized="1"
     inkscape:current-layer="svg16054">
    <inkscape:grid
       type="xygrid"
       id="grid16177" />
    <inkscape:grid
       type="xygrid"
       id="grid16596"
       spacingx="0.5"
       spacingy="0.5"
       empspacing="1"
       empcolor="#0099e5"
       empopacity="0.0745098" />
  </sodipodi:namedview>
  <path
     id="path16600"
     style="color:#000000;fill:#786d7d;-inkscape-stroke:none;paint-order:markers stroke fill"
     d="m 10,0.25 v 0.5 C 10,0.88807119 10.111929,1 10.25,1 h 4.5 C 14.888071,1 15,0.88807119 15,0.75 V 0.25 C 15,0.11192881 14.888071,0 14.75,0 h -4.5 C 10.111929,0 10,0.11192881 10,0.25 Z M 4,1 C 2.9013572,1 2,1.9013572 2,3 v 11.025391 c 0,0.658148 0.4164125,1.190743 0.9414062,1.408203 0.5249939,0.21746 1.1967276,0.135302 1.6621094,-0.330078 L 9.1464844,10.560547 C 9.6928673,10.014162 10,9.2727022 10,8.5 V 8 C 10,6.9013572 9.0986428,6 8,6 6.9013583,6 6,6.9013583 6,8 v 0.5 c 0,0.5605934 0.1629675,1.1034158 0.4609375,1.568359 0.074474,0.116207 0.2246348,0.12498 0.3222656,0.02734 l 0.00586,-0.0059 C 7.0819516,9.7969598 7.1170554,9.2728905 7.0371094,8.8691406 7.0131767,8.7482741 7,8.6249986 7,8.5 V 8 C 7,7.4417959 7.4417959,7 8,7 8.5582047,7 9,7.4417953 9,8 V 8.5 C 9,9.0078711 8.7985724,9.4943967 8.4394531,9.8535156 L 3.8964844,14.396484 C 3.7160754,14.576894 3.5127736,14.587868 3.3242188,14.509766 3.1356636,14.431663 3,14.280525 3,14.025391 V 3 C 3,2.4417953 3.4417953,2 4,2 H 8.25 C 8.3880712,2 8.5,1.8880712 8.5,1.75 V 1.25 C 8.5,1.1119288 8.3880712,1 8.25,1 Z m 6,1.25 v 0.5 C 10,2.8880712 10.111929,3 10.25,3 h 4.5 C 14.888071,3 15,2.8880712 15,2.75 V 2.25 C 15,2.1119288 14.888071,2 14.75,2 h -4.5 C 10.111929,2 10,2.1119288 10,2.25 Z m 0,2 v 0.5 C 10,4.8880712 10.111929,5 10.25,5 h 4.5 C 14.888071,5 15,4.8880712 15,4.75 V 4.25 C 15,4.1119288 14.888071,4 14.75,4 h -4.5 C 10.111929,4 10,4.1119288 10,4.25 Z m 3,2.5 V 14 c 0,0.259774 -0.1379,0.414538 -0.330078,0.494141 -0.192178,0.0796 -0.4003,0.06845 -0.583984,-0.115235 L 9.7910156,12.083984 c -0.097627,-0.09761 -0.255889,-0.09761 -0.3535156,0 -0.2928465,0.292868 -0.2928465,0.76768 0,1.060547 l 1.941406,1.941407 c 0.468662,0.468658 1.145214,0.550991 1.673828,0.332031 C 13.581352,15.199008 14,14.662785 14,14 V 6.75 C 14,6.6119288 13.888071,6.5 13.75,6.5 h -0.5 C 13.111929,6.5 13,6.6119288 13,6.75 Z"
     sodipodi:nodetypes="sssssssssssssccssssssccssssssccsssssssssssssssssssssssssssssscccccssssss" />
</svg>
