<?xml version="1.0" encoding="UTF-8" standalone="no"?>
<svg
   width="16"
   height="16"
   version="1.1"
   viewBox="0 0 16 16"
   id="svg16054"
   sodipodi:docname="bookmarks.svg"
   inkscape:version="1.2.2 (b0a8486541, 2022-12-01)"
   xmlns:inkscape="http://www.inkscape.org/namespaces/inkscape"
   xmlns:sodipodi="http://sodipodi.sourceforge.net/DTD/sodipodi-0.dtd"
   xmlns="http://www.w3.org/2000/svg"
   xmlns:svg="http://www.w3.org/2000/svg">
  <defs
     id="defs16058">
    <inkscape:path-effect
       effect="fillet_chamfer"
       id="path-effect16990"
       is_visible="true"
       lpeversion="1"
       nodesatellites_param="F,0,0,1,0,0,0,1 @ F,0,0,1,0,0,0,1 @ F,0,0,1,0,0,0,1 @ F,0,0,1,0,0,0,1 @ F,0,0,1,0,0,0,1 @ F,0,0,1,0,0,0,1 @ F,0,0,1,0,0,0,1 @ F,0,0,1,0,0,0,1 @ F,0,0,1,0,0,0,1 @ F,0,0,1,0,0,0,1 @ F,0,0,1,0,0,0,1 @ F,0,1,1,0,0.25,0,1 @ F,0,0,1,0,0.75,0,1 @ F,0,0,1,0,0,0,1 @ F,0,0,1,0,0,0,1 @ F,0,0,1,0,0,0,1 @ F,0,0,1,0,0,0,1 @ F,0,0,1,0,0,0,1 @ F,0,0,1,0,0,0,1 @ F,0,0,1,0,0,0,1 @ F,0,0,1,0,0,0,1 @ F,0,0,1,0,0,0,1 @ F,0,0,1,0,0,0,1 @ F,0,0,1,0,0,0,1 @ F,0,0,1,0,0,0,1 @ F,0,0,1,0,0,0,1 @ F,0,0,1,0,0,0,1 @ F,0,0,1,0,0,0,1 @ F,0,0,1,0,0,0,1 @ F,0,1,1,0,0.25,0,1 @ F,0,0,1,0,0.75,0,1 @ F,0,0,1,0,0,0,1 @ F,0,0,1,0,0,0,1 @ F,0,0,1,0,0,0,1 @ F,0,0,1,0,0,0,1 @ F,0,0,1,0,0,0,1"
       unit="px"
       method="auto"
       mode="F"
       radius="0.25"
       chamfer_steps="1"
       flexible="false"
       use_knot_distance="true"
       apply_no_radius="true"
       apply_with_radius="true"
       only_selected="true"
       hide_knots="false" />
    <inkscape:path-effect
       effect="fillet_chamfer"
       id="path-effect16973"
       is_visible="true"
       lpeversion="1"
       nodesatellites_param="F,0,0,1,0,0,0,1 @ F,0,0,1,0,1.5,0,1 @ F,0,0,1,0,1,0,1 @ F,0,0,1,0,0,0,1"
       unit="px"
       method="auto"
       mode="F"
       radius="0"
       chamfer_steps="1"
       flexible="false"
       use_knot_distance="true"
       apply_no_radius="true"
       apply_with_radius="true"
       only_selected="false"
       hide_knots="false" />
    <inkscape:path-effect
       effect="fillet_chamfer"
       id="path-effect16602"
       is_visible="true"
       lpeversion="1"
       nodesatellites_param="F,0,0,1,0,0,0,1 @ F,0,0,1,0,2.5,0,1 @ F,0,0,1,0,1.5,0,1 @ F,0,0,1,0,1.5,0,1 @ F,0,0,1,0,2.4748737,0,1 @ F,0,0,1,0,1,0,1 @ F,0,0,1,0,1.5,0,1 @ F,0,0,1,0,0,0,1"
       unit="px"
       method="auto"
       mode="F"
       radius="0"
       chamfer_steps="1"
       flexible="false"
       use_knot_distance="true"
       apply_no_radius="true"
       apply_with_radius="true"
       only_selected="false"
       hide_knots="false" />
  </defs>
  <sodipodi:namedview
     id="namedview16056"
     pagecolor="#ffffff"
     bordercolor="#000000"
     borderopacity="0.25"
     inkscape:showpageshadow="false"
     inkscape:pageopacity="0.0"
     inkscape:pagecheckerboard="0"
     inkscape:deskcolor="#ffffff"
     showgrid="false"
     showborder="false"
     inkscape:zoom="32"
     inkscape:cx="5.03125"
     inkscape:cy="7.953125"
     inkscape:window-width="2560"
     inkscape:window-height="1367"
     inkscape:window-x="0"
     inkscape:window-y="0"
     inkscape:window-maximized="1"
     inkscape:current-layer="svg16054">
    <inkscape:grid
       type="xygrid"
       id="grid16177" />
    <inkscape:grid
       type="xygrid"
       id="grid16596"
       spacingx="0.5"
       spacingy="0.5"
       empspacing="1"
       empcolor="#0099e5"
       empopacity="0.0745098" />
  </sodipodi:namedview>
  <path
     id="path16600"
     style="color:#000000;fill:#786d7d;-inkscape-stroke:none;paint-order:markers stroke fill"
     d="M 4,1 C 2.901355,1 2,1.901355 2,3 v 11.025391 c 0,0.65815 0.4164113,1.190743 0.9414062,1.408203 0.5249949,0.21746 1.1967266,0.135304 1.6621094,-0.330078 L 9.1464844,10.560547 C 9.6928685,10.014162 10,9.2727038 10,8.5 V 8 C 10,6.901355 9.098645,6 8,6 6.9013561,6 6,6.9013561 6,8 v 0.5 c 0,0.5605946 0.1638567,1.1039852 0.4618273,1.56893 0.074474,0.116207 0.2227871,0.125362 0.3204181,0.02773 l 0.00774,-0.0077 C 7.0828757,9.7960308 7.1162158,9.2733483 7.0362696,8.8695976 7.0123369,8.7487309 7,8.6249988 7,8.5 V 8 C 7,7.4417947 7.4417947,7 8,7 8.5582059,7 9,7.4417941 9,8 V 8.5 C 9,9.0078721 8.798573,9.4943959 8.4394531,9.8535156 L 3.8964844,14.396484 C 3.716075,14.576894 3.512774,14.587868 3.3242188,14.509766 3.1356634,14.431663 3,14.280527 3,14.025391 V 3 C 3,2.4417941 3.4417941,2 4,2 H 7 8.0212426 12 c 0.558206,0 1,0.4417941 1,1 v 11 c 0,0.259774 -0.1379,0.414538 -0.330078,0.494141 -0.192178,0.0796 -0.400298,0.06845 -0.583984,-0.115235 L 9.7904696,12.083438 c -0.097631,-0.09763 -0.2559223,-0.09763 -0.3535533,0 -0.2928514,0.292893 -0.2928176,0.767733 7.54e-5,1.060585 l 1.9419143,1.941915 c 0.468662,0.46866 1.145212,0.550991 1.673828,0.332031 C 13.581352,15.199008 14,14.662787 14,14 V 3 C 14,1.901355 13.098645,1 12,1 H 6.9826795 Z"
     sodipodi:nodetypes="ssssccsssssccsssssscssssssccssccccssssssscs" />
</svg>
