<?xml version="1.0" encoding="UTF-8" standalone="no"?>
<svg
   width="16"
   height="16"
   version="1.1"
   viewBox="0 0 16 16"
   id="svg16054"
   sodipodi:docname="bookmark-toolbar.svg"
   inkscape:version="1.2.2 (b0a8486541, 2022-12-01)"
   xmlns:inkscape="http://www.inkscape.org/namespaces/inkscape"
   xmlns:sodipodi="http://sodipodi.sourceforge.net/DTD/sodipodi-0.dtd"
   xmlns="http://www.w3.org/2000/svg"
   xmlns:svg="http://www.w3.org/2000/svg">
  <defs
     id="defs16058">
    <inkscape:path-effect
       effect="fillet_chamfer"
       id="path-effect18198"
       is_visible="true"
       lpeversion="1"
       nodesatellites_param="F,0,1,1,0,0.25,0,1 @ F,0,0,1,0,0,0,1 @ F,0,0,1,0,0,0,1 @ F,0,0,1,0,0,0,1 @ F,0,0,1,0,0,0,1 @ F,0,0,1,0,0,0,1 @ F,0,0,1,0,0,0,1 @ F,0,0,1,0,0,0,1 @ F,0,0,1,0,0,0,1 @ F,0,0,1,0,0,0,1 @ F,0,0,1,0,0,0,1 @ F,0,0,1,0,0,0,1 @ F,0,0,1,0,0,0,1 @ F,0,0,1,0,0,0,1 @ F,0,0,1,0,0,0,1 @ F,0,0,1,0,0,0,1 @ F,0,0,1,0,0,0,1 @ F,0,0,1,0,0,0,1 @ F,0,0,1,0,0,0,1 @ F,0,0,1,0,0,0,1 @ F,0,0,1,0,0,0,1 @ F,0,0,1,0,0,0,1 @ F,0,0,1,0,0,0,1 @ F,0,0,1,0,0.75,0,1 | F,0,0,1,0,0.75,0,1 @ F,0,0,1,0,0,0,1 @ F,0,0,1,0,0,0,1 @ F,0,0,1,0,0,0,1 @ F,0,0,1,0,0,0,1 @ F,0,0,1,0,0,0,1 @ F,0,0,1,0,0,0,1 @ F,0,0,1,0,0,0,1 @ F,0,0,1,0,0,0,1 @ F,0,0,1,0,0,0,1 @ F,0,1,1,0,0.25,0,1"
       unit="px"
       method="auto"
       mode="F"
       radius="0.25"
       chamfer_steps="1"
       flexible="false"
       use_knot_distance="true"
       apply_no_radius="true"
       apply_with_radius="true"
       only_selected="true"
       hide_knots="false" />
    <inkscape:path-effect
       effect="fillet_chamfer"
       id="path-effect18192"
       is_visible="true"
       lpeversion="1"
       nodesatellites_param="F,0,0,1,0,0,0,1 @ F,0,1,1,0,1.5,0,1 @ F,0,1,1,0,1.5,0,1 @ F,0,1,1,0,1.5,0,1 @ F,0,1,1,0,1.5,0,1 @ F,0,0,1,0,0,0,1"
       unit="px"
       method="auto"
       mode="F"
       radius="0"
       chamfer_steps="1"
       flexible="false"
       use_knot_distance="true"
       apply_no_radius="true"
       apply_with_radius="true"
       only_selected="true"
       hide_knots="false" />
    <inkscape:path-effect
       effect="fillet_chamfer"
       id="path-effect16990"
       is_visible="true"
       lpeversion="1"
       nodesatellites_param="F,0,0,1,0,0,0,1 @ F,0,0,1,0,0,0,1 @ F,0,0,1,0,0,0,1 @ F,0,0,1,0,0,0,1 @ F,0,0,1,0,0,0,1 @ F,0,0,1,0,0,0,1 @ F,0,0,1,0,0,0,1 @ F,0,0,1,0,0,0,1 @ F,0,0,1,0,0,0,1 @ F,0,0,1,0,0,0,1 @ F,0,0,1,0,0,0,1 @ F,0,1,1,0,0.25,0,1 @ F,0,0,1,0,0.75,0,1 @ F,0,0,1,0,0,0,1 @ F,0,0,1,0,0,0,1 @ F,0,0,1,0,0,0,1 @ F,0,0,1,0,0,0,1 @ F,0,0,1,0,0,0,1 @ F,0,0,1,0,0,0,1 @ F,0,0,1,0,0,0,1 @ F,0,0,1,0,0,0,1 @ F,0,0,1,0,0,0,1 @ F,0,0,1,0,0,0,1 @ F,0,0,1,0,0,0,1 @ F,0,0,1,0,0,0,1 @ F,0,0,1,0,0,0,1 @ F,0,0,1,0,0,0,1 @ F,0,0,1,0,0,0,1 @ F,0,0,1,0,0,0,1 @ F,0,1,1,0,0.25,0,1 @ F,0,0,1,0,0.75,0,1 @ F,0,0,1,0,0,0,1 @ F,0,0,1,0,0,0,1 @ F,0,0,1,0,0,0,1 @ F,0,0,1,0,0,0,1 @ F,0,0,1,0,0,0,1"
       unit="px"
       method="auto"
       mode="F"
       radius="0.25"
       chamfer_steps="1"
       flexible="false"
       use_knot_distance="true"
       apply_no_radius="true"
       apply_with_radius="true"
       only_selected="true"
       hide_knots="false" />
    <inkscape:path-effect
       effect="fillet_chamfer"
       id="path-effect16973"
       is_visible="true"
       lpeversion="1"
       nodesatellites_param="F,0,0,1,0,0,0,1 @ F,0,0,1,0,1.5,0,1 @ F,0,0,1,0,1,0,1 @ F,0,0,1,0,0,0,1"
       unit="px"
       method="auto"
       mode="F"
       radius="0"
       chamfer_steps="1"
       flexible="false"
       use_knot_distance="true"
       apply_no_radius="true"
       apply_with_radius="true"
       only_selected="false"
       hide_knots="false" />
    <inkscape:path-effect
       effect="fillet_chamfer"
       id="path-effect16602"
       is_visible="true"
       lpeversion="1"
       nodesatellites_param="F,0,0,1,0,0,0,1 @ F,0,0,1,0,2.5,0,1 @ F,0,0,1,0,1.5,0,1 @ F,0,0,1,0,1.5,0,1 @ F,0,0,1,0,2.4748737,0,1 @ F,0,0,1,0,1,0,1 @ F,0,0,1,0,1.5,0,1 @ F,0,0,1,0,0,0,1"
       unit="px"
       method="auto"
       mode="F"
       radius="0"
       chamfer_steps="1"
       flexible="false"
       use_knot_distance="true"
       apply_no_radius="true"
       apply_with_radius="true"
       only_selected="false"
       hide_knots="false" />
  </defs>
  <sodipodi:namedview
     id="namedview16056"
     pagecolor="#ffffff"
     bordercolor="#000000"
     borderopacity="0.25"
     inkscape:showpageshadow="false"
     inkscape:pageopacity="0.0"
     inkscape:pagecheckerboard="0"
     inkscape:deskcolor="#ffffff"
     showgrid="false"
     showborder="false"
     inkscape:zoom="32"
     inkscape:cx="4.96875"
     inkscape:cy="3.109375"
     inkscape:window-width="2560"
     inkscape:window-height="1367"
     inkscape:window-x="0"
     inkscape:window-y="0"
     inkscape:window-maximized="1"
     inkscape:current-layer="svg16054">
    <inkscape:grid
       type="xygrid"
       id="grid16177" />
    <inkscape:grid
       type="xygrid"
       id="grid16596"
       spacingx="0.5"
       spacingy="0.5"
       empspacing="1"
       empcolor="#0099e5"
       empopacity="0.0745098" />
  </sodipodi:namedview>
  <path
     id="path16600"
     style="color:#000000;fill:#786d7d;-inkscape-stroke:none;paint-order:markers stroke fill"
     d="M 3 0 C 1.901355 0 1 0.90135502 1 2 C 1 3.098645 1.901355 4 3 4 L 13 4 C 14.098645 4 15 3.098645 15 2 C 15 0.90135498 14.098645 0 13 0 L 3 0 z M 3 1 L 13 1 C 13.558205 1 14 1.4417942 14 2 C 14 2.5582058 13.558205 3 13 3 L 3 3 C 2.4417941 3 2 2.5582059 2 2 C 2 1.4417941 2.4417941 1 3 1 z M 2.25 5 A 0.25 0.25 0 0 0 2 5.25 L 2 14.025391 C 2 14.683539 2.4164125 15.216134 2.9414062 15.433594 C 3.4664001 15.651054 4.1381338 15.568896 4.6035156 15.103516 L 9.1464844 10.560547 C 9.6928673 10.014162 10 9.2727022 10 8.5 L 10 8 C 10 6.9013572 9.0986428 6 8 6 C 6.9013583 6 6 6.9013583 6 8 L 6 8.5 C 6 9.0605934 6.1629675 9.6034158 6.4609375 10.068359 C 6.5354114 10.184566 6.6855723 10.193339 6.7832031 10.095703 L 6.7890625 10.089844 C 7.0819516 9.7969598 7.1170554 9.2728905 7.0371094 8.8691406 C 7.0131767 8.7482741 7 8.6249986 7 8.5 L 7 8 C 7 7.4417959 7.4417959 7 8 7 C 8.5582047 7 9 7.4417953 9 8 L 9 8.5 C 9 9.0078711 8.7985724 9.4943967 8.4394531 9.8535156 L 3.8964844 14.396484 C 3.7160754 14.576894 3.5127736 14.587868 3.3242188 14.509766 C 3.1356636 14.431663 3 14.280525 3 14.025391 L 3 5.75 A 0.75 0.75 0 0 0 2.25 5 z M 13.75 5 A 0.75 0.75 0 0 0 13 5.75 L 13 14 C 13 14.259774 12.8621 14.414538 12.669922 14.494141 C 12.477744 14.573741 12.269622 14.562591 12.085938 14.378906 L 9.7910156 12.083984 C 9.6933887 11.986374 9.5351266 11.986374 9.4375 12.083984 C 9.1446535 12.376852 9.1446535 12.851664 9.4375 13.144531 L 11.378906 15.085938 C 11.847568 15.554596 12.52412 15.636929 13.052734 15.417969 C 13.581352 15.199008 14 14.662785 14 14 L 14 5.25 A 0.25 0.25 0 0 0 13.75 5 z " />
  <path
     id="rect18133"
     style="display:inline;fill:#786d7d;fill-opacity:0.99613899;paint-order:markers stroke fill;opacity:0.15"
     d="M 2,1 H 14 V 3 H 2 Z"
     sodipodi:nodetypes="ccccc" />
</svg>
