<?xml version="1.0" encoding="UTF-8" standalone="no"?>
<svg
   width="16"
   height="16"
   version="1.1"
   viewBox="0 0 16 16"
   id="svg16054"
   sodipodi:docname="bookmark-edit.svg"
   inkscape:version="1.2.2 (b0a8486541, 2022-12-01)"
   xmlns:inkscape="http://www.inkscape.org/namespaces/inkscape"
   xmlns:sodipodi="http://sodipodi.sourceforge.net/DTD/sodipodi-0.dtd"
   xmlns="http://www.w3.org/2000/svg"
   xmlns:svg="http://www.w3.org/2000/svg">
  <defs
     id="defs16058">
    <inkscape:path-effect
       effect="fillet_chamfer"
       id="path-effect1478"
       is_visible="true"
       lpeversion="1"
       nodesatellites_param="F,0,0,1,0,0,0,1 @ F,0,0,1,0,0,0,1 @ F,0,0,1,0,0.5,0,1 @ F,0,1,1,0,0.75,0,1 @ F,0,0,1,0,0.5,0,1 @ F,0,0,1,0,0,0,1 @ F,0,0,1,0,0,0,1 @ F,0,0,1,0,0,0,1 | F,0,0,1,0,0,0,1 @ F,0,0,1,0,0,0,1 @ F,0,0,1,0,0,0,1 @ F,0,0,1,0,0,0,1"
       unit="px"
       method="auto"
       mode="F"
       radius="0.75"
       chamfer_steps="1"
       flexible="false"
       use_knot_distance="true"
       apply_no_radius="true"
       apply_with_radius="true"
       only_selected="true"
       hide_knots="false" />
    <inkscape:path-effect
       effect="fillet_chamfer"
       id="path-effect1376"
       is_visible="true"
       lpeversion="1"
       nodesatellites_param="F,0,1,1,0,0,0,1 @ F,0,1,1,0,0,0,1 @ F,0,0,1,0,0.5,0,1 @ F,0,0,1,0,0.5,0,1 @ F,0,1,1,0,0,0,1"
       unit="px"
       method="auto"
       mode="F"
       radius="0"
       chamfer_steps="1"
       flexible="false"
       use_knot_distance="true"
       apply_no_radius="true"
       apply_with_radius="true"
       only_selected="true"
       hide_knots="false" />
    <inkscape:path-effect
       effect="fillet_chamfer"
       id="path-effect1553"
       is_visible="true"
       lpeversion="1"
       nodesatellites_param="F,0,0,1,0,0,0,1 @ F,0,1,1,0,0.5,0,1 @ F,0,0,1,0,0.5,0,1 @ F,0,0,1,0,0.5,0,1 @ F,0,1,1,0,0.5,0,1"
       unit="px"
       method="auto"
       mode="F"
       radius="0.5"
       chamfer_steps="1"
       flexible="false"
       use_knot_distance="true"
       apply_no_radius="true"
       apply_with_radius="true"
       only_selected="true"
       hide_knots="false" />
    <inkscape:path-effect
       effect="fillet_chamfer"
       id="path-effect19804"
       is_visible="true"
       lpeversion="1"
       nodesatellites_param="F,0,0,1,0,0,0,1 @ F,0,0,1,0,0,0,1 @ F,0,0,1,0,0,0,1 @ F,0,0,1,0,0,0,1 @ F,0,0,1,0,0,0,1 @ F,0,0,1,0,0,0,1 @ F,0,0,1,0,0,0,1 @ F,0,0,1,0,0,0,1 @ F,0,0,1,0,0,0,1 @ F,0,0,1,0,0,0,1 @ F,0,0,1,0,0,0,1 @ F,0,0,1,0,0,0,1 @ F,0,0,1,0,0,0,1 @ F,0,0,1,0,0,0,1 @ F,0,0,1,0,0,0,1 @ F,0,0,1,0,0,0,1 @ F,0,0,1,0,0,0,1 @ F,0,0,1,0,0,0,1 @ F,0,0,1,0,0,0,1 @ F,0,0,1,0,0,0,1 @ F,0,0,1,0,0,0,1 @ F,0,0,1,0,0,0,1 @ F,0,0,1,0,0,0,1 @ F,0,0,1,0,0,0,1 @ F,0,0,1,0,0,0,1 @ F,0,0,1,0,0,0,1 @ F,0,0,1,0,0.75,0,1 @ F,0,1,1,0,0.48760379,0,1 | F,0,1,1,0,0.48760379,0,1 @ F,0,0,1,0,0.75,0,1 @ F,0,0,1,0,0,0,1 @ F,0,0,1,0,0,0,1 @ F,0,0,1,0,0,0,1 @ F,0,0,1,0,0,0,1 @ F,0,0,1,0,0,0,1 @ F,0,0,1,0,0,0,1 @ F,0,0,1,0,0,0,1 @ F,0,0,1,0,0,0,1 @ F,0,0,1,0,0,0,1"
       unit="px"
       method="auto"
       mode="F"
       radius="0.25"
       chamfer_steps="1"
       flexible="false"
       use_knot_distance="true"
       apply_no_radius="true"
       apply_with_radius="true"
       only_selected="true"
       hide_knots="false" />
    <inkscape:path-effect
       effect="fillet_chamfer"
       id="path-effect19802"
       is_visible="true"
       lpeversion="1"
       nodesatellites_param="F,0,1,1,0,0.25,0,1 @ F,0,0,1,0,0,0,1 @ F,0,1,1,0,0.25,0,1 @ F,0,1,1,0,0.25,0,1 @ F,0,0,1,0,0,0,1 @ F,0,1,1,0,0.25,0,1 @ F,0,1,1,0,0.25,0,1 @ F,0,0,1,0,0,0,1 @ F,0,1,1,0,0.25,0,1 @ F,0,1,1,0,0.25,0,1 @ F,0,0,1,0,0,0,1 @ F,0,1,1,0,0.25,0,1"
       unit="px"
       method="auto"
       mode="F"
       radius="0.25"
       chamfer_steps="1"
       flexible="false"
       use_knot_distance="true"
       apply_no_radius="true"
       apply_with_radius="true"
       only_selected="true"
       hide_knots="false" />
    <inkscape:path-effect
       effect="fillet_chamfer"
       id="path-effect16990"
       is_visible="true"
       lpeversion="1"
       nodesatellites_param="F,0,0,1,0,0,0,1 @ F,0,0,1,0,0,0,1 @ F,0,0,1,0,0,0,1 @ F,0,0,1,0,0,0,1 @ F,0,0,1,0,0,0,1 @ F,0,0,1,0,0,0,1 @ F,0,0,1,0,0,0,1 @ F,0,0,1,0,0,0,1 @ F,0,0,1,0,0,0,1 @ F,0,0,1,0,0,0,1 @ F,0,0,1,0,0,0,1 @ F,0,1,1,0,0.25,0,1 @ F,0,0,1,0,0.75,0,1 @ F,0,0,1,0,0,0,1 @ F,0,0,1,0,0,0,1 @ F,0,0,1,0,0,0,1 @ F,0,0,1,0,0,0,1 @ F,0,0,1,0,0,0,1 @ F,0,0,1,0,0,0,1 @ F,0,0,1,0,0,0,1 @ F,0,0,1,0,0,0,1 @ F,0,0,1,0,0,0,1 @ F,0,0,1,0,0,0,1 @ F,0,0,1,0,0,0,1 @ F,0,0,1,0,0,0,1 @ F,0,0,1,0,0,0,1 @ F,0,0,1,0,0,0,1 @ F,0,0,1,0,0,0,1 @ F,0,0,1,0,0,0,1 @ F,0,1,1,0,0.25,0,1 @ F,0,0,1,0,0.75,0,1 @ F,0,0,1,0,0,0,1 @ F,0,0,1,0,0,0,1 @ F,0,0,1,0,0,0,1 @ F,0,0,1,0,0,0,1 @ F,0,0,1,0,0,0,1"
       unit="px"
       method="auto"
       mode="F"
       radius="0.25"
       chamfer_steps="1"
       flexible="false"
       use_knot_distance="true"
       apply_no_radius="true"
       apply_with_radius="true"
       only_selected="true"
       hide_knots="false" />
    <inkscape:path-effect
       effect="fillet_chamfer"
       id="path-effect16973"
       is_visible="true"
       lpeversion="1"
       nodesatellites_param="F,0,0,1,0,0,0,1 @ F,0,0,1,0,1.5,0,1 @ F,0,0,1,0,1,0,1 @ F,0,0,1,0,0,0,1"
       unit="px"
       method="auto"
       mode="F"
       radius="0"
       chamfer_steps="1"
       flexible="false"
       use_knot_distance="true"
       apply_no_radius="true"
       apply_with_radius="true"
       only_selected="false"
       hide_knots="false" />
    <inkscape:path-effect
       effect="fillet_chamfer"
       id="path-effect16602"
       is_visible="true"
       lpeversion="1"
       nodesatellites_param="F,0,0,1,0,0,0,1 @ F,0,0,1,0,2.5,0,1 @ F,0,0,1,0,1.5,0,1 @ F,0,0,1,0,1.5,0,1 @ F,0,0,1,0,2.4748737,0,1 @ F,0,0,1,0,1,0,1 @ F,0,0,1,0,1.5,0,1 @ F,0,0,1,0,0,0,1"
       unit="px"
       method="auto"
       mode="F"
       radius="0"
       chamfer_steps="1"
       flexible="false"
       use_knot_distance="true"
       apply_no_radius="true"
       apply_with_radius="true"
       only_selected="false"
       hide_knots="false" />
  </defs>
  <sodipodi:namedview
     id="namedview16056"
     pagecolor="#ffffff"
     bordercolor="#000000"
     borderopacity="0.25"
     inkscape:showpageshadow="false"
     inkscape:pageopacity="0.0"
     inkscape:pagecheckerboard="0"
     inkscape:deskcolor="#ffffff"
     showgrid="false"
     showborder="false"
     inkscape:zoom="32"
     inkscape:cx="7.734375"
     inkscape:cy="5.515625"
     inkscape:window-width="2560"
     inkscape:window-height="1367"
     inkscape:window-x="0"
     inkscape:window-y="0"
     inkscape:window-maximized="1"
     inkscape:current-layer="svg16054">
    <inkscape:grid
       type="xygrid"
       id="grid16177" />
    <inkscape:grid
       type="xygrid"
       id="grid16596"
       spacingx="0.5"
       spacingy="0.5"
       empspacing="1"
       empcolor="#0099e5"
       empopacity="0.0745098" />
  </sodipodi:namedview>
  <path
     id="path16600"
     style="color:#000000;fill:#786d7d;-inkscape-stroke:none;paint-order:markers stroke fill"
     d="M 12.708984 0.001953125 C 12.452016 0.001953125 12.195121 0.097848218 12.001953 0.29101562 L 9.3535156 2.9394531 A 1.2076458 1.2076458 0 0 0 9 3.7929688 L 9 5.25 A 0.75 0.75 0 0 0 9.75 6 L 11.207031 6 A 1.2065682 1.2065682 0 0 0 12.060547 5.6464844 L 14.708984 2.9980469 C 15.095198 2.6115892 15.09532 1.97032 14.708984 1.5839844 L 13.416016 0.29101562 C 13.222848 0.097848048 12.965953 0.001953125 12.708984 0.001953125 z M 12.708984 0.99804688 L 14.001953 2.2910156 L 11.292969 5 L 10 3.7070312 L 12.708984 0.99804688 z M 4 1 C 2.9013594 1 2 1.9013594 2 3 L 2 14.025391 C 2 14.683537 2.4164137 15.216134 2.9414062 15.433594 C 3.4663991 15.651054 4.1381348 15.568894 4.6035156 15.103516 L 9.1464844 10.560547 C 9.6928661 10.014162 10 9.2727006 10 8.5 L 10 8 C 10 7.6354562 9.8993197 7.2934268 9.7265625 6.9980469 C 9.052637 6.9887822 8.4630255 6.5833421 8.1796875 6.0078125 C 8.1202833 6.0024233 8.0607287 6 8 6 C 6.9013605 6 6 6.9013605 6 8 L 6 8.5 C 6 9.0605922 6.1629681 9.6034174 6.4609375 10.068359 C 6.5354113 10.184566 6.6855725 10.193343 6.7832031 10.095703 L 6.7890625 10.089844 C 7.0819504 9.7970048 7.1170552 9.2728897 7.0371094 8.8691406 C 7.0131767 8.7482743 7 8.6249984 7 8.5 L 7 8 C 7 7.4417971 7.4417971 7 8 7 C 8.5582035 7 9 7.4417965 9 8 L 9 8.5 C 9 9.0078701 8.7985718 9.4943975 8.4394531 9.8535156 L 3.8964844 14.396484 C 3.7160758 14.576894 3.5127732 14.587868 3.3242188 14.509766 C 3.1356638 14.431663 3 14.280523 3 14.025391 L 3 3 C 3 2.4417965 3.4417965 2 4 2 L 7.5917969 2 C 8.0060093 2 8.4811991 1.6896964 8.6914062 1.4199219 C 8.9016137 1.1501471 8.843514 1 8.5742188 1 L 4 1 z M 13.832031 6.1816406 C 13.766101 6.1880106 13.681244 6.2297666 13.580078 6.3085938 C 13.310302 6.5188002 13 6.9939907 13 7.4082031 L 13 14 C 13 14.259774 12.8621 14.414538 12.669922 14.494141 C 12.477744 14.573741 12.26962 14.562591 12.085938 14.378906 L 9.7910156 12.083984 C 9.6933888 11.986374 9.5351264 11.986374 9.4375 12.083984 C 9.1446541 12.376852 9.1446541 12.851666 9.4375 13.144531 L 11.378906 15.085938 C 11.847568 15.554594 12.524122 15.636929 13.052734 15.417969 C 13.581352 15.199008 14 14.662783 14 14 L 14 6.4257812 C 14 6.2574718 13.941912 6.1710324 13.832031 6.1816406 z " />
</svg>
