<svg width="16" height="16" version="1.1" viewBox="0 0 16 16" xml:space="preserve" xmlns="http://www.w3.org/2000/svg"><path d="m3 2v13h1l4-4 4 4h1v-7.623a4.5 4.5 0 0 1-1 0.12305 4.5 4.5 0 0 1-4.5-4.5 4.5 4.5 0 0 1 0.12305-1h-4.623z" fill="#786d7d" fill-opacity=".15" style="paint-order:markers stroke fill"/><path d="m4 1c-1.0986 0-2 0.90136-2 2v11.025c0 0.65815 0.41641 1.1907 0.94141 1.4082 0.52499 0.21746 1.1967 0.1353 1.6621-0.33008l4.543-4.543c0.54638-0.54638 0.85352-1.2878 0.85352-2.0605v-0.5a2 2 45 0 0-2-2c-1.0986 0-2 0.90136-2 2v0.5c0 0.56059 0.16297 1.1034 0.46094 1.5684 0.074474 0.11621 0.22463 0.12498 0.32227 0.02734l0.00586-0.0059c0.29289-0.29284 0.32799-0.81691 0.24805-1.2207-0.023933-0.12087-0.037109-0.24414-0.037109-0.36914v-0.5c0-0.5582 0.4418-1 1-1 0.5582 0 1 0.4418 1 1v0.5c0 0.50787-0.20143 0.9944-0.56055 1.3535l-4.543 4.543c-0.18041 0.18041-0.38371 0.19138-0.57227 0.11328-0.18856-0.078103-0.32422-0.22924-0.32422-0.48438v-11.025c0-0.5582 0.4418-1 1-1h3.623c0.07863-0.34619 0.19795-0.68186 0.35547-1zm10 6.0215c-0.31814 0.15752-0.65381 0.27684-1 0.35547v6.623c0 0.25977-0.1379 0.41454-0.33008 0.49414-0.19218 0.0796-0.4003 0.06845-0.58398-0.11524l-2.2949-2.2949c-0.097627-0.09761-0.25589-0.09761-0.35352 0-0.29285 0.29287-0.29285 0.76768 0 1.0605l1.9414 1.9414c0.46866 0.46866 1.1452 0.55099 1.6738 0.33203 0.52862-0.21896 0.94727-0.75518 0.94727-1.418z" color="#000000" fill="#786d7d" style="-inkscape-stroke:none;paint-order:markers stroke fill"/><path d="m12 0c-1.6509 0-3 1.3491-3 3s1.3491 3 3 3 3-1.3491 3-3-1.3491-3-3-3zm0 1c1.1105 0 2 0.88951 2 2 0 0.37264-0.10033 0.71996-0.27539 1.0176l-2.7422-2.7422c0.29761-0.17506 0.64494-0.27539 1.0176-0.27539zm-1.7246 0.98242 2.7422 2.7422c-0.29761 0.17506-0.64494 0.27539-1.0176 0.27539-1.1105 0-2-0.88951-2-2 0-0.37264 0.10033-0.71996 0.27539-1.0176z" color="#000000" fill="#821313" style="-inkscape-stroke:none;paint-order:markers stroke fill"/></svg>
