<svg width="16" height="16" version="1.1" viewBox="0 0 16 16" xmlns="http://www.w3.org/2000/svg">
 <path d="m8.752 13.614c1.3626 1.3626 3.5871 1.3626 4.9497 0l0.35355-0.35355c0.77686-0.77686 0.77686-2.0516 0-2.8284l-1.0607-1.0607c-0.5816-0.5816-1.5397-0.5816-2.1213 0l-0.35355 0.35355-4.2426-4.2426 0.35355-0.35355c0.5816-0.5816 0.5816-1.5397 0-2.1213l-1.0607-1.0607c-0.77686-0.77686-2.0516-0.77686-2.8284 0l-0.35355 0.35355c-1.2996 1.2927-1.3657 3.371-0.19221 4.7426 0.093744 0.10957 0.25996 0.10963 0.36227 0.00811l0.43809-0.43468c0.047789-0.047417 0.04782-0.12438 0.0027-0.17433-0.88861-0.98367-0.85601-2.4885 0.094882-3.4332l0.35493-0.35493c0.39471-0.39471 1.0195-0.39471 1.4142 0l1.0607 1.0607c0.19945 0.19945 0.19945 0.50766 0 0.70711l-0.35355 0.35355c-0.38634 0.38634-0.38634 1.0279 0 1.4142l4.2426 4.2426c0.38634 0.38634 1.0279 0.38634 1.4142 0l0.35355-0.35355c0.19945-0.19945 0.50766-0.19945 0.70711 0l1.0607 1.0607c0.39471 0.39471 0.39471 1.0195 0 1.4142l-0.35355 0.35355c-0.9805 0.9805-2.555 0.9805-3.5355 0l-5.1599-5.1599a0.568 0.568 180 0 0-0.80328 1e-7l-0.14643 0.14643a0.22491 0.22491 90 0 0 0 0.31807z" color="#000000" fill="#786d7d" style="-inkscape-stroke:none"/>
</svg>
