<svg width="16" height="16" version="1.1" viewBox="0 0 16 16" xml:space="preserve" xmlns="http://www.w3.org/2000/svg"><path d="m3.5 5c-1.9271 0-3.5 1.5729-3.5 3.5v0.5c0 1.0986 0.90136 2 2 2h0.29623a1.7038 1.7038 157.5 0 0 1.2047-0.49902l1.499-1.499v-0.0019531h0.00195l0.64507-0.64507a0.20791 0.20791 67.5 0 0-0.14702-0.35493h-0.5c-0.54636 0-1 0.45364-1 1v0.5c0 0.28206-0.21794 0.5-0.5 0.5h-1.5c-0.55821 0-1-0.44179-1-1v-0.5c0-1.3866 1.1134-2.5 2.5-2.5h4a1.2071 1.2071 157.5 0 0 0.85355-0.35355l0.29289-0.29289a0.20711 0.20711 67.5 0 0-0.14645-0.35355zm9.2832 0.00977c-0.14376-0.01119-0.26311 0.10783-0.26367 0.25195l-2e-3 0.61719c-2.62e-4 0.067321 0.05387 0.12159 0.12109 0.125 1.3239 0.067213 2.3657 1.1537 2.3614 2.4941v0.50195c0 0.55821-0.44179 1-1 1h-1.5c-0.28206 0-0.5-0.21794-0.5-0.5v-0.5c0-0.54636-0.45364-1-1-1h-1a1.2118 1.2118 157.5 0 0-0.85689 0.35493l-0.29013 0.29013a0.20792 0.20792 67.5 0 0 0.14702 0.35493h2v0.5c0 0.8225 0.6775 1.5 1.5 1.5h1.5c1.0986 0 2-0.90136 2-2v-0.5c0.0049-1.8331-1.4171-3.3502-3.2168-3.4902z" color="#000000" fill="#786d7d" style="-inkscape-stroke:none"/><path d="m8.0254 0c-3.0487 0.0079465-5.8059 1.7449-7.1441 4.441-0.16801 0.33852-0.045673 0.42209 0.27603 0.22427 0.18576-0.11423 0.38032-0.21537 0.58228-0.30214 0.20478-0.087985 0.47424-0.29542 0.60519-0.47583 1.3071-1.8008 3.4004-2.88 5.6415-2.8873 1.6868 5.538e-4 3.3167 0.6102 4.5898 1.7168l-9.8594 9.8594c-0.13168-0.14662-0.2571-0.29872-0.37592-0.4559-0.049818-0.065898-0.15589-0.12028-0.23851-0.12028h-0.10237c-0.16774 0-0.33225-0.014837-0.49261-0.042632-0.27101-0.046977-0.37637 0.07162-0.22973 0.30465 1.4535 2.3099 3.9957 3.7302 6.7477 3.738 2.7267-0.007357 5.2468-1.4014 6.7068-3.6722 0.18015-0.28019 0.053263-0.4171-0.27516-0.3644-0.14905 0.023917-0.30163 0.036565-0.45704 0.036565-0.15425 0-0.41279 0.19534-0.59675 0.4212-1.3209 1.6218-3.3068 2.5757-5.4169 2.5788-1.6778-0.006111-3.2977-0.61467-4.5645-1.7148l9.8613-9.8613c0.16696 0.19333 0.32318 0.39561 0.46796 0.60592 0.0689 0.10008 0.21592 0.21269 0.32963 0.25546 0.34064 0.12814 0.66163 0.2967 0.95736 0.49968 0.26514 0.18198 0.36675 0.11478 0.23044-0.17665-1.3073-2.795-4.1228-4.6073-7.2432-4.6082z" fill="#821313" stroke-linecap="round" stroke-linejoin="round" stroke-width="1.0891"/></svg>
