<svg width="16" height="16" version="1.1" xml:space="preserve" xmlns="http://www.w3.org/2000/svg"><path d="m3.5 4c-1.9271 0-3.5 1.5729-3.5 3.5s1.5729 3.5 3.5 3.5 3.5-1.5729 3.5-3.5-1.5729-3.5-3.5-3.5zm9.0078 0c-0.34789-2.12e-5 -0.69349 0.052256-1.0234 0.15234-0.75416 0.22877-1.4316 0.70945-1.8945 1.4023-0.86232 1.2906-0.76289 2.9886 0.20671 4.1677 0.11945 0.14527 0.33667 0.14437 0.46968 0.011351l0.03273-0.032733c0.23939-0.23939 0.23072-0.62563 0.056596-0.91499-0.48964-0.81371-0.48207-1.854 0.066309-2.6747 0.66432-0.99423 1.9304-1.3795 3.0352-0.92188 1.1047 0.4576 1.7274 1.626 1.4941 2.7988-0.23328 1.1728-1.2554 2.0117-2.4512 2.0117h-5.1182a1.646 1.646 157.5 0 0-1.1639 0.48209l-0.15008 0.15008a0.21547 0.21547 67.5 0 0 0.15236 0.36783h6.2798c1.6667 0 3.1084-1.1817 3.4336-2.8164 0.32515-1.6347-0.55394-3.2802-2.0938-3.918-0.43307-0.17938-0.88474-0.2656-1.332-0.26562zm-9.0078 1c1.3866 0 2.5 1.1134 2.5 2.5s-1.1134 2.5-2.5 2.5-2.5-1.1134-2.5-2.5 1.1134-2.5 2.5-2.5zm9 2c-0.27614 0-0.5 0.22386-0.5 0.5s0.22386 0.5 0.5 0.5 0.5-0.22386 0.5-0.5-0.22386-0.5-0.5-0.5z" color="#000000" fill="#786d7d" stroke-linejoin="round" style="-inkscape-stroke:none"/></svg>
