<svg width="16" height="16" version="1.1" xml:space="preserve" xmlns="http://www.w3.org/2000/svg"><g transform="translate(0,2)" fill="#786d7d"><path d="m8.0059-1.9902c-1.3754 0.0081111-2.7247 0.7452-3.666 2.0527-0.075918 0.10546-0.043984 0.25065 0.064453 0.32227l0.27734 0.18359c0.19845 0.13106 0.46492 0.076013 0.61133-0.11133 1.1189-1.4317 2.6548-1.8373 4.0723-1.123 1.5268 0.76938 2.6348 2.8253 2.6348 5.166 0 0.27614 0.22386 0.5 0.5 0.5s0.5-0.22386 0.5-0.5c0-0.00848 2.5e-5 -0.01692 0-0.025391 1.1e-5 -0.00195 1.1e-5 -0.00391 0-0.00586-0.0095-2.6378-1.2168-5.0362-3.1836-6.0273-0.49365-0.24876-1.0081-0.38668-1.5215-0.42188-0.096255-0.0066-0.19294-0.010333-0.28906-0.00977zm-5.9062 2.9902c-1.099 0-2.1401 0.90998-2 2l0.90039 7c0.21129 1.6434 1.3431 3 3 3h6c-0.059244-0.34138-5.398e-4 -0.70589 0.17773-1h-6.1777c-1.1046 0-1.8591-0.90445-2-2l-0.90039-7c-0.071157-0.55344 0.442-1 1-1h0.26367c0.13087 0 0.23439 0.10762 0.26562 0.23438 0.10743 0.4357 0.50497 0.76562 0.9707 0.76562h6.9824c0.0993-4.23e-5 0.17755-0.084592 0.16992-0.18359l-0.011719-0.13281c-0.031128-0.38584-0.35314-0.68321-0.74023-0.68359h-6.084c-0.17504 0-0.31187-0.14529-0.36719-0.31055-0.13291-0.39707-0.51126-0.68945-0.94922-0.68945zm11.801 0c-0.26056-3.2523e-4 -0.45746 0.23595-0.41016 0.49219l0.03711 0.19727c0.033345 0.17984 0.19014 0.31037 0.37305 0.31055 0.558 0 1.0712 0.44656 1 1l-0.62305 4.8496 0.54688-0.54688c0.14797-0.15168 0.34886-0.24852 0.55859-0.27734l0.51758-4.0254c0.14014-1.09-0.902-2-2-2z" style="-inkscape-stroke:none"/></g><ellipse cx="3.5" cy="6.5" rx=".5" ry=".5" fill="#786d7d" stroke-linejoin="round" stroke-width=".96891"/><g transform="translate(.016054 -.012262)"><g fill="#786d7d"><path d="m0.98395 4.0123-0.44081 1.0432 1.4408 8.2906 2 1.654h5.9021c0-0.785 0.42-1.309 0.895-1.784l0.63-0.629c0.067-0.068 0.174-0.041 0.247-0.101-0.073-0.06-0.18-0.034-0.248-0.102v-2e-3l-1.097-1.097c-0.4635-0.48508-0.4635-1.2489 0-1.734l0.24-0.24c0.45288-0.43379 1.1671-0.43379 1.62 0l1.155 1.155c0.073 0.073 0.13 0.073 0.203 0h2e-3l0.922-0.922 0.52895-1.5317v-4l-1-1h-2v1h-8z" opacity=".161"/><ellipse cx="11.284" cy="3.917" rx=".086" ry=".081"/><path d="m8.5 7v6" color="#000000" style="-inkscape-stroke:none"/></g><path d="m15.497 9.862a0.123 0.123 0 0 0-0.088 0.037l-1.224 1.222c-0.42 0.42-1.09 0.42-1.511 0l-1.256-1.255a0.218 0.218 0 0 0-0.31 0l-0.24 0.24a0.299 0.299 0 0 0 0 0.426l1.196 1.198c0.75 0.75 1.98 0.75 2.73 0l1.184-1.18a0.184 0.184 0 0 0 0-0.262l-0.391-0.389a0.127 0.127 0 0 0-0.09-0.037zm-2.068 2.82c-0.495 0-0.99 0.185-1.365 0.56l-1.129 1.129a0.54 0.54 0 0 0 0 0.766l0.053 0.052a0.244 0.244 0 0 0 0.348 0l1.338-1.338c0.42-0.42 1.09-0.42 1.511 0l1.007 1.007a0.43 0.43 0 0 0 0.61 0l0.199-0.197a0.153 0.153 0 0 0 0-0.215l-1.206-1.204a1.922 1.922 0 0 0-1.366-0.56z" fill="#821313" style="-inkscape-stroke:none"/></g></svg>
