<svg width="16" height="16" version="1.1" xml:space="preserve" xmlns="http://www.w3.org/2000/svg"><g transform="translate(0,2)" fill="#786d7d"><path d="m8.0059-1.9902c-1.3754 0.0081111-2.7247 0.7452-3.666 2.0527-0.075918 0.10546-0.043984 0.25065 0.064453 0.32227l0.27734 0.18359c0.19845 0.13106 0.46492 0.076013 0.61133-0.11133 1.1189-1.4317 2.6548-1.8373 4.0723-1.123 1.5268 0.76938 2.6348 2.8253 2.6348 5.166 0 0.27614 0.22386 0.5 0.5 0.5s0.5-0.22386 0.5-0.5c0-0.00848 2.5e-5 -0.01692 0-0.025391 1.1e-5 -0.001953 1.1e-5 -0.0039064 0-0.0058594-0.009473-2.6378-1.2168-5.0362-3.1836-6.0273-0.49365-0.24876-1.0081-0.38668-1.5215-0.42188-0.096255-0.0065986-0.19294-0.010332-0.28906-0.0097656zm-5.9062 2.9902c-1.099 0-2.1401 0.90997-2 2l0.90039 7c0.21129 1.6434 1.3431 3 3 3h8c1.6569 0 2.7887-1.3566 3-3l0.90039-7c0.14014-1.09-0.902-2-2-2a0.41656 0.41656 0 0 0-0.41016 0.49219l0.03711 0.19727a0.37978 0.37978 0 0 0 0.37305 0.31055c0.558 0 1.0712 0.44656 1 1l-0.90039 7c-0.14086 1.0956-0.89543 2-2 2h-8c-1.1046 0-1.8591-0.90445-2-2l-0.90039-7c-0.071157-0.55344 0.442-1 1-1h0.26367c0.13087 0 0.23439 0.10762 0.26562 0.23438 0.10743 0.4357 0.50497 0.76562 0.9707 0.76562h6.9824a0.1705 0.1705 0 0 0 0.16992-0.18359l-0.011719-0.13281a0.74337 0.74337 0 0 0-0.74023-0.68359h-6.084c-0.17504 0-0.31187-0.14529-0.36719-0.31055-0.13291-0.39707-0.51126-0.68945-0.94922-0.68945h-0.5z" style="-inkscape-stroke:none"/></g><ellipse cx="3.5" cy="6.5" rx=".5" ry=".5" fill="#786d7d" stroke-linejoin="round" stroke-width=".96891"/></svg>
