<svg width="16" height="16" version="1.1" xml:space="preserve" xmlns="http://www.w3.org/2000/svg"><path d="m1 2.4746v12.301c0 0.276 0.11578 0.32422 0.30078 0.32422 0.276 0 0.69922-0.16061 0.69922-0.59961v-12.025a0.48747 0.48747 136.49 0 1 0.5-0.47461h6c0.28206 0 0.5 0.21794 0.5 0.5v7c0 0.8225 0.6775 1.5 1.5 1.5h3.5c1.0986 0 2-0.90136 2-2v-5c0-1.0986-0.90136-2-2-2h-2.5c-0.21442 0-0.42338 0.026849-0.62305 0.078125-0.10415 0.026747-0.206 0.06008-0.30466 0.099457-0.09424 0.037611-0.13184 0.14828-0.08725 0.23945l0.27212 0.55634c0.04782 0.097765 0.16569 0.13688 0.26889 0.10259 0.032442-0.010779 0.065412-0.02048 0.098942-0.029091 0.11933-0.030644 0.24487-0.046875 0.375-0.046875h2.5c0.5582 0 1 0.44179 1 1v5c0 0.55821-0.4418 1-1 1h-3.5c-0.28206 0-0.5-0.21794-0.5-0.5v-7c0-0.8225-0.6775-1.5-1.5-1.5h-6a1.4874 1.4874 135.49 0 0-1.5 1.4746zm6.8938 6.473c-0.0069 0.00188-0.013807 0.0037-0.020733 0.00548-0.11906 0.030498-0.24324 0.046873-0.37305 0.046873h-4.2837a0.71632 0.71632 135 0 0-0.71632 0.71632v0.063787a0.2199 0.2199 45 0 0 0.2199 0.2199h4.7801c0.2139 0 0.42187-0.027092 0.62109-0.078125 0.014798-0.00379 0.029546-0.00771 0.044242-0.011753 0.2495-0.068664 0.34554-0.35455 0.23125-0.58716l-0.10771-0.21924c-0.070012-0.1425-0.24214-0.19773-0.3951-0.15608z" fill="#786d7d" style="-inkscape-stroke:none"/><path d="m3.5 3.768v0.23589h2.1286a0.3714 0.3714 45 0 1 0.3714 0.3714v0.25016c0 0.20577-0.16681 0.3723-0.37258 0.3722-0.38761-1.85e-4 -0.77463 2.487e-4 -1.1616 7.91e-4 -0.81173 0.0011376-1.4698 0.65959-1.4698 1.4713v0.026433a1.5038 1.5038 45 0 0 1.5038 1.5038h1.1258a0.20245 0.20245 135 0 0 0.20245-0.20245v-0.39725a0.4042 0.4042 45 0 0-0.4042-0.4042h-0.94394a0.47999 0.47999 45 0 1-0.47999-0.47999v-0.066509a0.44765 0.44765 135 0 1 0.44765-0.44765h1.5524v1.2864a0.71169 0.71169 45 0 0 0.71169 0.71169h0.28831v-3.7064a1.2936 1.2936 45 0 0-1.2936-1.2936h-1.4383a0.76802 0.76802 135 0 0-0.76802 0.76802z" fill="#786d7d" opacity=".5" stroke-linecap="square" stroke-linejoin="round" stroke-width="2"/></svg>
