<svg width="16" height="16" version="1.1" viewBox="0 0 16 16" xml:space="preserve" xmlns="http://www.w3.org/2000/svg"><path d="m3.5 1c-1.3748 0-2.5 1.1252-2.5 2.5v9c0 1.3748 1.1252 2.5 2.5 2.5h9c1.3748 0 2.5-1.1252 2.5-2.5v-6.7051a0.3245 0.3245 0 0 0-0.32422-0.32422h-0.19531a0.47964 0.47964 0 0 0-0.48047 0.48047v6.5488c0 0.83435-0.66565 1.5-1.5 1.5h-9c-0.83435 0-1.5-0.66565-1.5-1.5v-9c0-0.83435 0.66565-1.5 1.5-1.5h9c0.27592 0 0.5315 0.07274 0.75195 0.20117 0.1005 0.058547 0.23286 0.044726 0.30469-0.046875l0.16992-0.21875c0.17447-0.2225 0.13756-0.55024-0.11523-0.67578-0.33524-0.16649-0.71369-0.25977-1.1113-0.25977h-9zm10.998 2.002a0.49859 0.49929 0 0 0-0.49805 0.49805 0.49859 0.49929 0 0 0 0.49805 0.5 0.49859 0.49929 0 0 0 0.5-0.5 0.49859 0.49929 0 0 0-0.5-0.49805zm-1.8438 1.7734a0.32586 0.32586 0 0 0-0.14648 0.083984l-6.0234 6.0234a0.07031 0.07031 0 0 1-0.097656 0l-1.9629-1.9629a0.65413 0.65413 0 0 0-0.92578 0l-0.083984 0.083984a0.2268 0.2268 0 0 0 0 0.32031l2.4941 2.4941a0.74537 0.74537 0 0 0 1.0547 0l6.2949-6.2949a0.26392 0.26392 0 0 0 0-0.375l-0.28906-0.28906a0.32586 0.32586 0 0 0-0.31445-0.083984z" color="#000000" fill="#776c7c" fill-opacity=".99608" style="-inkscape-stroke:none"/></svg>
