<svg version="1.1" viewBox="0 0 16 16" xmlns="http://www.w3.org/2000/svg">
 <defs>
  <style id="current-color-scheme" type="text/css">.ColorScheme-Text {
        color:#232629;
      }</style>
 </defs>
 <path d="m3 1c-1.0993 0-2 0.90065-2 2v3c0 1.0993 0.90065 2 2 2h5.25a0.75 0.75 0 0 0 0.75-0.75 0.25 0.25 0 0 0-0.25-0.25h-5.75c-0.56265 0-1-0.43735-1-1v-3c0-0.56265 0.43735-1 1-1h10c0.56265 0 1 0.43735 1 1v3c0 0.56265-0.43735 1-1 1h-1.75a0.75 0.75 0 0 0-0.75 0.75 0.25 0.25 0 0 0 0.25 0.25h2.25c1.0993 0 2-0.90065 2-2v-3c0-1.0993-0.90065-2-2-2h-10zm-1.5 8c-0.82235 0-1.5 0.67765-1.5 1.5v3c0 0.82235 0.67765 1.5 1.5 1.5h1c0.82235 0 1.5-0.67765 1.5-1.5v-3c0-0.82235-0.67765-1.5-1.5-1.5h-1zm5 0c-0.82235 0-1.5 0.67765-1.5 1.5v3c0 0.82235 0.67765 1.5 1.5 1.5h1c0.82235 0 1.5-0.67765 1.5-1.5v-3c0-0.82235-0.67765-1.5-1.5-1.5h-1zm5 0c-0.82235 0-1.5 0.67765-1.5 1.5v1c0 0.82235 0.67765 1.5 1.5 1.5h3c0.82235 0 1.5-0.67765 1.5-1.5v-1c0-0.82235-0.67765-1.5-1.5-1.5h-3zm-10 1h1c0.28565 0 0.5 0.21435 0.5 0.5v3c0 0.28565-0.21435 0.5-0.5 0.5h-1c-0.28565 0-0.5-0.21435-0.5-0.5v-3c0-0.28565 0.21435-0.5 0.5-0.5zm5 0h1c0.28565 0 0.5 0.21435 0.5 0.5v3c0 0.28565-0.21435 0.5-0.5 0.5h-1c-0.28565 0-0.5-0.21435-0.5-0.5v-3c0-0.28565 0.21435-0.5 0.5-0.5zm5 0h3c0.28565 0 0.5 0.21435 0.5 0.5v1c0 0.28565-0.21435 0.5-0.5 0.5h-3c-0.28565 0-0.5-0.21435-0.5-0.5v-1c0-0.28565 0.21435-0.5 0.5-0.5z" color="#000000" fill="#786d7d" style="-inkscape-stroke:none"/>
 <path d="m1.5 9c-0.831 0-1.5 0.669-1.5 1.5v3c0 0.831 0.669 1.5 1.5 1.5h1c0.831 0 1.5-0.669 1.5-1.5v-3c0-0.831-0.669-1.5-1.5-1.5h-1zm5 0c-0.831 0-1.5 0.669-1.5 1.5v3c0 0.831 0.669 1.5 1.5 1.5h1c0.831 0 1.5-0.669 1.5-1.5v-3c0-0.831-0.669-1.5-1.5-1.5h-1zm5 0c-0.831 0-1.5 0.669-1.5 1.5v1c0 0.831 0.669 1.5 1.5 1.5h3c0.831 0 1.5-0.669 1.5-1.5v-1c0-0.831-0.669-1.5-1.5-1.5h-3z" fill="#786d7d" fill-opacity=".15"/>
</svg>
