<svg version="1.1" viewBox="0 0 16 16" xmlns="http://www.w3.org/2000/svg">
 <defs>
  <style id="current-color-scheme" type="text/css">.ColorScheme-Text {
        color:#232629;
      }</style>
 </defs>
 <g fill="#786d7d">
  <path d="m2 7c-1.0986 0-2 0.90135-2 2v3c0 1.0986 0.90135 2 2 2h1.5v-1h-1.5c-0.55821 0-1-0.44179-1-1v-3c0-0.55821 0.44179-1 1-1h1.5v-1z" color="#000000" fill-opacity=".45" style="-inkscape-stroke:none"/>
  <path d="m6 3a3 3 0 0 1-3 3 3 3 0 0 1-3-3 3 3 0 0 1 3-3 3 3 0 0 1 3 3z" fill-opacity=".15" stroke-width="0"/>
  <path d="m3 0c-1.6509 0-3 1.3491-3 3s1.3491 3 3 3c0.89298 0 1.6979-0.39488 2.2486-1.0186 0.12056-0.13655 0.066204-0.31066-0.10443-0.37469l-0.36059-0.13531c-0.17064-0.064031-0.40768-0.0043828-0.55123 0.10757-0.3388 0.26423-0.76595 0.42102-1.2323 0.42102-1.1105 0-2-0.88951-2-2s0.88951-2 2-2c0.75276 0 1.4175 0.41421 1.7582 1.0404 0.26127 0.48007 0.68949 0.95964 1.2418 0.95964h8c0.56264 0 1 0.43735 1 1v4c0 0.56265-0.43736 1-1 1h-9c-0.56265 0-1-0.43735-1-1v-0.67c0-0.20225-0.11427-0.38713-0.29516-0.47758l-0.40968-0.20484c-0.13561-0.067804-0.29516 0.030806-0.29516 0.18242v1.17c0 1.0993 0.90065 2 2 2h9c1.0993 0 2-0.90065 2-2v-4c0-1.0993-0.90065-2-2-2h-7.998c-0.097081 0-0.2017-0.074397-0.23958-0.16377-0.45636-1.0766-1.5237-1.8362-2.7624-1.8362zm2 11c-1.0986 0-2 0.90136-2 2s0.90136 2 2 2h9c1.0986 0 2-0.90136 2-2s-0.90136-2-2-2zm0 1h9c0.55821 0 1 0.44179 1 1s-0.44179 1-1 1h-9c-0.55821 0-1-0.44179-1-1s0.44179-1 1-1z" color="#000000" style="-inkscape-stroke:none"/>
 </g>
</svg>
