<?xml version="1.0" encoding="UTF-8" standalone="no"?>
<svg
   viewBox="0 0 16 16"
   version="1.1"
   id="svg3469"
   sodipodi:docname="code-context.svg"
   inkscape:version="1.2.2 (b0a8486541, 2022-12-01)"
   xmlns:inkscape="http://www.inkscape.org/namespaces/inkscape"
   xmlns:sodipodi="http://sodipodi.sourceforge.net/DTD/sodipodi-0.dtd"
   xmlns="http://www.w3.org/2000/svg"
   xmlns:svg="http://www.w3.org/2000/svg">
  <sodipodi:namedview
     id="namedview3471"
     pagecolor="#ffffff"
     bordercolor="#000000"
     borderopacity="0.25"
     inkscape:showpageshadow="2"
     inkscape:pageopacity="0.0"
     inkscape:pagecheckerboard="0"
     inkscape:deskcolor="#ffffff"
     showgrid="false"
     showborder="false"
     inkscape:zoom="45.254834"
     inkscape:cx="5.0712815"
     inkscape:cy="6.7396115"
     inkscape:window-width="2560"
     inkscape:window-height="1367"
     inkscape:window-x="0"
     inkscape:window-y="0"
     inkscape:window-maximized="1"
     inkscape:current-layer="svg3469">
    <inkscape:grid
       type="xygrid"
       id="grid3590" />
    <inkscape:grid
       type="xygrid"
       id="grid3646"
       spacingx="0.5"
       spacingy="0.5"
       empspacing="1"
       empcolor="#0099e5"
       empopacity="0.08235294" />
  </sodipodi:namedview>
  <defs
     id="defs3051">
    <inkscape:path-effect
       effect="fillet_chamfer"
       id="path-effect3648"
       is_visible="true"
       lpeversion="1"
       nodesatellites_param="F,0,0,1,0,0,0,1 @ F,0,0,1,0,0,0,1 @ F,0,0,1,0,0,0,1 @ F,0,0,1,0,0,0,1 @ F,0,0,1,0,0.33,0,1 @ F,0,0,1,0,0.33,0,1 @ F,0,0,1,0,0,0,1 @ F,0,0,1,0,0,0,1 @ F,0,0,1,0,0,0,1 @ F,0,0,1,0,0,0,1 @ F,0,0,1,0,0.75,0,1 @ F,0,1,1,0,0.25,0,1 @ F,0,0,1,0,0,0,1 @ F,0,0,1,0,0,0,1 @ F,0,0,1,0,0,0,1 @ F,0,0,1,0,0,0,1 @ F,0,0,1,0,0,0,1 @ F,0,0,1,0,0,0,1 @ F,0,0,1,0,0,0,1 @ F,0,0,1,0,0.75,0,1 @ F,0,1,1,0,0.25,0,1 | F,0,0,1,0,0.75,0,1 @ F,0,1,1,0,0.25,0,1 @ F,0,0,1,0,0,0,1 @ F,0,0,1,0,0,0,1 @ F,0,0,1,0,0,0,1 @ F,0,0,1,0,0,0,1 @ F,0,0,1,0,0,0,1 @ F,0,0,1,0,0,0,1 @ F,0,0,1,0,0,0,1 @ F,0,0,1,0,0.75,0,1 @ F,0,1,1,0,0.25,0,1 @ F,0,0,1,0,0,0,1 @ F,0,0,1,0,0,0,1 @ F,0,0,1,0,0,0,1 @ F,0,0,1,0,0,0,1 @ F,0,0,1,0,0.33,0,1 @ F,0,0,1,0,0.33,0,1 @ F,0,0,1,0,0,0,1 @ F,0,0,1,0,0,0,1 @ F,0,0,1,0,0,0,1 @ F,0,0,1,0,0,0,1"
       unit="px"
       method="auto"
       mode="F"
       radius="0.25"
       chamfer_steps="1"
       flexible="false"
       use_knot_distance="true"
       apply_no_radius="true"
       apply_with_radius="true"
       only_selected="true"
       hide_knots="false" />
    <style
       type="text/css"
       id="current-color-scheme">
      .ColorScheme-Text {
        color:#232629;
      }
      </style>
  </defs>
  <path
     style="fill:#786d7d;fill-opacity:1;stroke:none"
     d="M 6,1 C 4.895478,1 4,1.8954778 4,3 V 6.5 C 4,6.7761493 3.7761423,7 3.5,7 H 3.33 A 0.53395122,0.53395122 148.28253 0 0 2.8524195,7.295161 L 2.6475805,7.704839 A 0.20395122,0.20395122 58.282526 0 0 2.83,8 H 3.5 C 3.7761423,8 4,8.2238507 4,8.5 V 12 c 0,1.104597 0.8954307,2 2,2 H 6.25 A 0.75,0.75 135 0 0 7,13.25 0.25,0.25 45 0 0 6.75,13 H 6 C 5.4477157,13 5,12.552299 5,12 V 8.5 C 5,8.117501 4.8607153,7.7649743 4.625,7.5 4.8607153,7.2350257 5,6.882499 5,6.5 V 3 C 5,2.4477014 5.4477765,2 6,2 H 6.25 A 0.75,0.75 135 0 0 7,1.25 0.25,0.25 45 0 0 6.75,1 Z M 9,1.75 A 0.25,0.25 45 0 0 9.25,2 H 10 c 0.552224,0 1,0.4477014 1,1 v 3.5 c 0,0.382499 0.139285,0.7350257 0.375,1 C 11.139285,7.7649743 11,8.117501 11,8.5 V 12 c 0,0.552299 -0.447716,1 -1,1 H 9.75 A 0.75,0.75 135 0 0 9,13.75 0.25,0.25 45 0 0 9.25,14 H 10 c 1.104569,0 2,-0.895403 2,-2 V 8.5 C 12,8.2238507 12.223858,8 12.5,8 h 0.17 A 0.53395122,0.53395122 148.28253 0 0 13.14758,7.704839 L 13.35242,7.295161 A 0.20395122,0.20395122 58.282526 0 0 13.17,7 H 12.5 C 12.223858,7 12,6.7761493 12,6.5 V 3 C 12,1.8954778 11.104522,1 10,1 H 9.75 A 0.75,0.75 135 0 0 9,1.75 Z"
     class="ColorScheme-Text"
     id="path3467"
     sodipodi:nodetypes="sccsccsccsccscccccsccsccscccccsccsccsccsccsc" />
</svg>
