<svg width="16" height="16" version="1.1" viewBox="0 0 16 16" xml:space="preserve" xmlns="http://www.w3.org/2000/svg"><g transform="translate(.043301 -.013366)"/><path d="m3.5 1c-1.3807 0-2.5 1.1193-2.5 2.5v9c0 1.3807 1.1193 2.5 2.5 2.5h9c0.56169 0 1.0787-0.18728 1.4961-0.5h0.003906l2e-3 -0.0039c0.60536-0.45626 0.998-1.1796 0.998-1.9961v-9.5c0-1.1046-0.89543-2-2-2h-5zm0 1h4.5v6.9805l0.36133 0.35938c0.081315 0.080674 0.21274 0.079791 0.29297-0.00195l2.3457-2.3594c0.1101-0.11025 0.25234-0.18274 0.40625-0.20703 0.23283-0.037543 0.46956 0.038704 0.63672 0.20508l1.3184 1.3164c0.16465 0.16346 0.179 0.42498 0.0332 0.60547l-0.21875 0.26953c-0.095307 0.11639-0.27012 0.12545-0.37695 0.019531l-1.1816-1.1738c-0.06583-0.064638-0.17157-0.063758-0.23633 0.00195l-2.0273 2.0391c-0.35144 0.34988-0.88145 0.44351-1.332 0.24023-0.0070264-0.00317-0.014498-0.004497-0.021484-0.007813v3.7129h-4.5c-0.82843 0-1.5-0.67157-1.5-1.5v-9c0-0.82843 0.67157-1.5 1.5-1.5zm4.5215 8.2949c-0.01416-0.096397-0.021484-0.19447-0.021484-0.29492v-1.0195l-0.94531-0.94141c-0.15401-0.15341-0.36083-0.24215-0.57812-0.24805-0.21799-0.0055091-0.4298 0.072782-0.5918 0.21875l-3.2852 2.9531c-0.11692 0.10523-0.12653 0.28526-0.021484 0.40234l0.070312 0.07813c0.22354 0.25031 0.60793 0.27132 0.85742 0.04687l2.7246-2.4512c0.12043-0.10859 0.30467-0.1043 0.41992 0.00977l1.0156 1.0098c0.10332 0.0995 0.22374 0.17956 0.35547 0.23633z" fill="#786d7d"/><g transform="translate(1)" fill="#786d7d"><path d="m1 11.459 3.2971-2.9167 2.3979 0.14762 0.305 0.31008v5l-5.9999 2.5e-4z" opacity=".16"/><ellipse cx="3.5" cy="4.4897" rx="1.5" ry="1.5243" opacity=".5"/></g></svg>
