<svg width="16" height="16" version="1.1" viewBox="0 0 16 16" xml:space="preserve" xmlns="http://www.w3.org/2000/svg"><path d="m3 2c-1.0986 0-2 0.90137-2 2v7.793c0 0.58516 0.23271 1.1468 0.64648 1.5605l2 2c0.46721 0.46721 1.2398 0.46721 1.707 0l2-2c0.22651-0.22651 0.53318-0.35352 0.85352-0.35352h0.65234c0.077745 2e-4 0.14082-0.0629 0.14062-0.14062v-0.14453c5.371e-4 -0.39502-0.31982-0.71538-0.71484-0.71484h-0.078125c-0.58517 0-1.1468 0.23272-1.5605 0.64648l-2 2c-0.085068 0.08507-0.2079 0.08507-0.29297 0l-2-2c-0.22651-0.22651-0.35352-0.53318-0.35352-0.85352v-7.793c0-0.55821 0.44179-1 1-1h10c0.5582 0 1 0.44179 1 1v5.7247a0.59877 0.59877 0 0 0 0.20902 0.45455l0.3487 0.29899a0.24079 0.24079 0 0 0 0.39509-0.14866l0.0338-0.23603a1.3261 1.3261 0 0 0 0.01339-0.18799v-5.9055c0-1.0986-0.90137-2-2-2zm7.1641 10c-0.09071-2.4e-4 -0.1643 0.07335-0.16406 0.16406v0.09961c0.0033 0.10076 0.02722 0.19921 0.06968 0.28948 0.03581 0.07616 0.13698 0.09462 0.20881 0.05044l0.32092-0.19745a0.2184 0.2184 0 0 0-0.11326-0.4044zm-1.377 0.74023h0.00195c0.00199 5.27e-4 0.00394 0.0012 0.00586 2e-3h0.00195c0.00199 5.25e-4 0.00394 0.0012 0.00586 2e-3h0.00195l0.00195 2e-3c0.00199 5.27e-4 0.00394 0.0012 0.00586 2e-3l0.00195 2e-3h0.00195l0.013672 0.01367c1.01e-5 6.51e-4 1.01e-5 0.0032 0 0.0039 0.00141 0.0019 0.00272 0.0038 0.00391 0.0059v2e-3c7.475e-4 0.0019 0.0014 0.0039 0.00195 0.0059l0.00195 2e-3v0.0059c7.476e-4 0.0019 0.0014 0.0039 0.00195 0.0059v0.0059c-4.912e-4 0.03139-0.023938 0.05657-0.052734 0.05664-0.028797-7.3e-5 -0.052243-0.02526-0.052734-0.05664-4.966e-4 -0.03215 0.023237-0.05852 0.052734-0.05859z" fill="#786d7d" style="-inkscape-stroke:none;paint-order:markers stroke fill"/><path d="m3.4609 4c-0.2544 4.137e-4 -0.46052 0.20654-0.46094 0.46094v0.078125c4.137e-4 0.2544 0.20654 0.46052 0.46094 0.46094h8.0781c0.2544-4.134e-4 0.46052-0.20654 0.46094-0.46094v-0.078125c-4.14e-4 -0.2544-0.20654-0.46052-0.46094-0.46094zm0 2c-0.2544 4.137e-4 -0.46052 0.20654-0.46094 0.46094v0.078125c4.137e-4 0.2544 0.20654 0.46052 0.46094 0.46094h4.0781c0.2544-4.137e-4 0.46052-0.20654 0.46094-0.46094v-0.078125c-4.137e-4 -0.2544-0.20654-0.46052-0.46094-0.46094zm0 2c-0.2544 4.13e-4 -0.46052 0.20654-0.46094 0.46094v0.07813c4.137e-4 0.2544 0.20654 0.46052 0.46094 0.46094h8.0781c0.2544-4.14e-4 0.46052-0.20654 0.46094-0.46094v-0.07813c-4.14e-4 -0.2544-0.20654-0.46052-0.46094-0.46094z" fill="#786d7d" style="-inkscape-stroke:none;paint-order:markers stroke fill"/><g transform="translate(1,1)"><path d="m12 10.25v1.75h-1.75c-0.13807 0-0.25 0.11193-0.25 0.25v0.5c0 0.13807 0.11193 0.25 0.25 0.25h1.75v1.75c0 0.13807 0.11193 0.25 0.25 0.25h0.5c0.13807 0 0.25-0.11193 0.25-0.25v-1.75h1.75c0.13807 0 0.25-0.11193 0.25-0.25v-0.5c0-0.13807-0.11193-0.25-0.25-0.25h-1.75v-1.75c0-0.13807-0.11193-0.25-0.25-0.25h-0.5c-0.13807 0-0.25 0.11193-0.25 0.25z" color="#000000" fill="#786d7d" stroke-linejoin="round" style="-inkscape-stroke:none"/></g></svg>
