<svg width="16" height="16" version="1.1" viewBox="0 0 16 16" xml:space="preserve" xmlns="http://www.w3.org/2000/svg"><path d="m9.498 4.0039c-0.525 0-0.86634 0.023822-1.1719 0.25781-0.15277 0.117-0.25644 0.30237-0.29492 0.45312-0.038486 0.15075-0.035821 0.26752-0.035156 0.36133 0.00133 0.18761 0.00359 0.28408-0.042969 0.39062-0.046556 0.10654-0.15253 0.26137-0.51172 0.46875-0.35919 0.20738-0.54851 0.22194-0.66406 0.20898-0.11555-0.012953-0.19952-0.063247-0.36133-0.1582-0.080905-0.047478-0.18028-0.10835-0.33008-0.15039-0.1498-0.042045-0.36136-0.042554-0.53906 0.03125-0.35541 0.14761-0.54414 0.4301-0.80664 0.88477-0.2625 0.45466-0.41315 0.76098-0.36328 1.1426 0.024937 0.1908 0.13088 0.37372 0.24219 0.48242 0.11131 0.10871 0.2153 0.16461 0.29688 0.21094 0.16315 0.092638 0.24743 0.1388 0.31641 0.23242 0.068991 0.093592 0.15039 0.26493 0.15039 0.67969-1e-7 0.41476-0.081399 0.58414-0.15039 0.67773-0.068992 0.09359-0.15327 0.14172-0.31641 0.23438-0.081569 0.04633-0.18556 0.10028-0.29688 0.20898-0.11131 0.1087-0.21725 0.29162-0.24219 0.48242-0.049873 0.3816 0.10078 0.68987 0.36328 1.1445 0.2625 0.45466 0.45123 0.73716 0.80664 0.88477 0.17771 0.0738 0.39122 0.07134 0.54102 0.0293 0.1498-0.04204 0.24722-0.10291 0.32812-0.15039 0.16181-0.09496 0.24773-0.14525 0.36328-0.1582 0.11555-0.01295 0.30292 0.0016 0.66211 0.20898 0.35919 0.20738 0.46516 0.36221 0.51172 0.46875 0.046556 0.10654 0.044298 0.20497 0.042969 0.39258-6.674e-4 0.0938-0.00333 0.21058 0.035156 0.36133 0.038487 0.15075 0.14411 0.33613 0.29688 0.45313 0.30554 0.23399 0.64492 0.25586 1.1699 0.25586 0.525-1e-6 0.86634-0.02187 1.1719-0.25586 0.15277-0.117 0.25644-0.30237 0.29492-0.45312 0.03849-0.15075 0.03582-0.26752 0.03516-0.36133-0.0013-0.18761-0.0036-0.28408 0.04297-0.39062 0.04656-0.10654 0.1545-0.26332 0.51367-0.4707 0.35919-0.20738 0.54656-0.22194 0.66211-0.20898 0.11555 0.01295 0.19952 0.0652 0.36133 0.16016 0.0809 0.04748 0.18027 0.10836 0.33008 0.15039 0.1498 0.04205 0.3594 0.04255 0.53711-0.03125 0.35541-0.14761 0.5461-0.4301 0.80859-0.88476 0.2625-0.45466 0.41316-0.76293 0.36328-1.1445-0.02494-0.1908-0.13088-0.37176-0.24219-0.48047s-0.21531-0.16461-0.29688-0.21094c-0.16314-0.09265-0.24741-0.14078-0.31641-0.23438-0.06899-0.09359-0.15039-0.26298-0.15039-0.67773s0.0814-0.58414 0.15039-0.67773c0.06899-0.093591 0.15327-0.14172 0.31641-0.23438 0.08157-0.046327 0.18361-0.10028 0.29492-0.20898 0.11131-0.10871 0.2192-0.29162 0.24414-0.48242 0.04987-0.3816-0.09883-0.68987-0.36133-1.1445-0.2625-0.45466-0.45318-0.73716-0.80859-0.88477-0.17771-0.073804-0.38926-0.073296-0.53906-0.03125-0.1498 0.042045-0.24917 0.10291-0.33008 0.15039-0.16181 0.094956-0.24578 0.14525-0.36133 0.1582s-0.30487-0.00161-0.66406-0.20898c-0.3592-0.20738-0.46517-0.36221-0.51172-0.46875-0.046557-0.10654-0.044298-0.20302-0.042969-0.39063 6.65e-4 -0.093804 0.00333-0.21253-0.035156-0.36328-0.038487-0.15075-0.14411-0.33418-0.29688-0.45117-0.30554-0.23399-0.64492-0.25781-1.1699-0.25781zm0 1c0.3991 0 0.50033 0.057155 0.5 0.046875 2.31e-4 0.010952 2e-3 0.00441 2e-3 0.017578-0.0011 0.15689-0.01917 0.46442 0.12695 0.79883 0.14612 0.3344 0.44365 0.65606 0.92774 0.93555 0.48408 0.27949 0.91272 0.37659 1.2754 0.33594 0.36266-0.040654 0.61859-0.20966 0.75391-0.28906 0.01137-0.00665 8e-3 -0.00252 0.01758-0.00781-0.0091 0.00484 0.08951 0.064529 0.28906 0.41016 0.19996 0.34633 0.20225 0.46324 0.21094 0.45703-0.0092 0.00553-0.0026 0.00346-0.01367 0.00977-0.13648 0.077475-0.41242 0.21601-0.62896 0.50976-0.21654 0.29375-0.3457 0.71251-0.3457 1.2715 0 0.55897 0.12916 0.97578 0.3457 1.2695s0.49053 0.43424 0.62695 0.51172c0.01151 0.0065 0.0062 0.0041 0.01562 0.0098-0.0087-0.0055-0.01137 0.11138-0.21094 0.45703-0.20005 0.3465-0.29894 0.40584-0.28906 0.41016-0.0096-0.0053-0.0042-0.0011-0.01562-0.0078-0.13531-0.07941-0.39515-0.25036-0.75781-0.29102-0.36266-0.04065-0.78935 0.0584-1.2734 0.33789-0.48408 0.27949-0.78161 0.59919-0.92773 0.93359-0.14612 0.3344-0.12806 0.64389-0.12695 0.80078 7.5e-5 0.01277 1.78e-4 0.0049 0 0.01563 0.0016-0.01092-0.1014 0.04883-0.50195 0.04883-0.3991-1e-6 -0.50033-0.05715-0.5-0.04687-2.255e-4 -0.01095-0.00206-0.0044-0.00195-0.01758 0.00111-0.15689 0.019173-0.46442-0.12695-0.79883-0.14613-0.33446-0.44365-0.65612-0.92774-0.9356-0.48409-0.27949-0.91273-0.37659-1.2754-0.33594-0.36266 0.04065-0.62055 0.20966-0.75586 0.28906-0.01135 0.0067-0.00603 0.0026-0.015625 0.0078 0.00907-0.0049-0.089515-0.06453-0.28906-0.41016-0.20027-0.34689-0.20229-0.46581-0.21094-0.45898 0.00915-0.0055 0.00451-0.0015 0.015625-0.0078 0.13643-0.07748 0.41041-0.21797 0.62695-0.51172 0.21654-0.29375 0.3457-0.71056 0.3457-1.2695 3e-7 -0.55897-0.12721-0.97773-0.34375-1.2715-0.21654-0.29375-0.49248-0.43228-0.62891-0.50977-0.011509-0.00654-0.00622-0.00406-0.015625-0.00977 0.00867 0.0064 0.010886-0.11053 0.21094-0.45703 0.19956-0.34566 0.29816-0.40532 0.28906-0.41016 0.00964 0.0053 0.00421 0.00111 0.015625 0.00781 0.13531 0.079408 0.39515 0.24841 0.75781 0.28906 0.36266 0.040661 0.7874-0.056444 1.2715-0.33593s0.78356-0.60114 0.92969-0.93555c0.14612-0.3344 0.12806-0.64194 0.12695-0.79883-8.83e-5 -0.012773-2.184e-4 -0.00688 0-0.017578-0.00104 0.010628 0.10204-0.046875 0.50195-0.046875zm0.0293 2.7656c-0.12858-0.0027-0.25705 0.00819-0.38281 0.033203-0.33536 0.066707-0.65261 0.23073-0.9043 0.48242-0.50337 0.50337-0.65328 1.2642-0.38086 1.9219 0.27242 0.65769 0.91703 1.0898 1.6289 1.0898a0.5 0.5 0 0 0 0.5-0.5 0.5 0.5 0 0 0-0.5-0.5c-0.31029 0-0.58634-0.18599-0.70508-0.47266-0.11874-0.28667-0.055346-0.61262 0.16406-0.83203 0.21941-0.21941 0.54731-0.28476 0.83398-0.16602 0.28667 0.11874 0.4707 0.39674 0.4707 0.70703a0.5 0.5 0 0 0 0.5 0.5 0.5 0.5 0 0 0 0.5-0.5c0-0.71188-0.43215-1.3584-1.0898-1.6309-0.20553-0.085133-0.42046-0.12831-0.63476-0.13281z" color="#000000" fill="#786d7d" stroke-linecap="square" stroke-linejoin="round" stroke-width=".70863" style="-inkscape-stroke:none"/><g transform="translate(0,1)"><path d="m3 0c-1.0986 0-2 0.90136-2 2 0 1.0986 0.90136 2 2 2h2.0391c0.040917-0.020443 0.079557-0.042485 0.12305-0.060547 0.43986-0.18268 0.81076-0.17825 1.1953-0.070312 0.13341 0.037446 0.24864 0.085321 0.3418 0.13086h0.29688c-2.343e-4 -0.10984 0.0025527-0.29839 0.0625-0.5332 0.042068-0.16478 0.10097-0.31952 0.18359-0.4668h-4.2422c-0.55821 0-1-0.44179-1-1s0.44179-1 1-1h10c0.5582 0 1 0.44179 1 1s-0.4418 1-1 1h-1.2461c0.081795 0.14491 0.14109 0.29836 0.18359 0.46484 0.06038 0.23651 0.062843 0.42526 0.0625 0.53516h0.29688c0.093155-0.045539 0.20838-0.093413 0.3418-0.13086 0.33699-0.094588 0.66354-0.11088 1.0352 0.0097656 0.76952-0.27912 1.3262-1.017 1.3262-1.8789 0-1.0986-0.90136-2-2-2h-10z" color="#000000" fill="#786d7d" style="-inkscape-stroke:none;paint-order:markers stroke fill"/></g></svg>
