<?xml version="1.0" encoding="UTF-8" standalone="no"?>
<!-- Created with Inkscape (http://www.inkscape.org/) -->

<svg
   width="16"
   height="16"
   viewBox="0 0 16 16"
   version="1.1"
   id="svg1525"
   inkscape:version="1.2.2 (b0a8486541, 2022-12-01)"
   sodipodi:docname="configure.svg"
   xmlns:inkscape="http://www.inkscape.org/namespaces/inkscape"
   xmlns:sodipodi="http://sodipodi.sourceforge.net/DTD/sodipodi-0.dtd"
   xmlns="http://www.w3.org/2000/svg"
   xmlns:svg="http://www.w3.org/2000/svg">
  <sodipodi:namedview
     id="namedview1527"
     pagecolor="#ffffff"
     bordercolor="#000000"
     borderopacity="0.23921569"
     inkscape:showpageshadow="false"
     inkscape:pageopacity="0.0"
     inkscape:pagecheckerboard="0"
     inkscape:deskcolor="#ffffff"
     inkscape:document-units="px"
     showgrid="true"
     showborder="true"
     guidecolor="#1fca00"
     guideopacity="0.6"
     showguides="true"
     inkscape:zoom="20.795049"
     inkscape:cx="-0.649193"
     inkscape:cy="6.2755323"
     inkscape:window-width="1638"
     inkscape:window-height="975"
     inkscape:window-x="141"
     inkscape:window-y="10"
     inkscape:window-maximized="1"
     inkscape:current-layer="layer1">
    <inkscape:grid
       type="xygrid"
       id="grid1656"
       empspacing="4"
       color="#0099e5"
       opacity="0.05882353"
       empcolor="#0099e5"
       empopacity="0.18039216"
       dotted="false" />
    <inkscape:grid
       type="xygrid"
       id="grid130"
       empspacing="1"
       spacingx="0.5"
       spacingy="0.5"
       empcolor="#0099e5"
       empopacity="0.05490196"
       color="#0099e5"
       opacity="0" />
  </sodipodi:namedview>
  <defs
     id="defs1522">
    <inkscape:path-effect
       effect="fillet_chamfer"
       id="path-effect961"
       is_visible="true"
       lpeversion="1"
       nodesatellites_param="F,0,0,1,0,0,0,1 @ F,0,0,1,0,0,0,1 @ F,0,0,1,0,0,0,1 @ F,0,0,1,0,0,0,1 @ F,0,0,1,0,0,0,1 @ F,0,0,1,0,0,0,1 @ F,0,0,1,0,0,0,1 @ F,0,0,1,0,0,0,1 @ F,0,0,1,0,0,0,1 @ F,0,0,1,0,0,0,1 @ F,0,0,1,0,0,0,1 @ F,0,0,1,0,0,0,1 @ F,0,0,1,0,0,0,1 @ F,0,0,1,0,0,0,1 @ F,0,0,1,0,0,0,1 @ F,0,0,1,0,0,0,1 @ F,0,0,1,0,0,0,1 @ F,0,0,1,0,0,0,1 @ F,0,0,1,0,0,0,1 @ F,0,0,1,0,0,0,1 @ F,0,0,1,0,0,0,1 @ F,0,0,1,0,0,0,1 @ F,0,0,1,0,0,0,1 @ F,0,0,1,0,0,0,1 @ F,0,0,1,0,0,0,1 @ F,0,0,1,0,0,0,1 @ F,0,0,1,0,0,0,1 @ F,0,0,1,0,0,0,1 @ F,0,0,1,0,0,0,1 @ F,0,0,1,0,0,0,1 @ F,0,0,1,0,0,0,1 @ F,0,0,1,0,0,0,1 @ F,0,0,1,0,0,0,1 @ F,0,0,1,0,0,0,1 @ F,0,0,1,0,0,0,1 @ F,0,0,1,0,0,0,1 @ F,0,0,1,0,0,0,1 @ F,0,0,1,0,0,0,1 @ F,0,0,1,0,0,0,1 @ F,0,0,1,0,0,0,1 @ F,0,0,1,0,0,0,1 @ F,0,0,1,0,0,0,1 @ F,0,0,1,0,0,0,1 @ F,0,0,1,0,0,0,1 @ F,0,0,1,0,0,0,1 @ F,0,1,1,0,0.33,0,1 @ F,0,1,1,0,0.33,0,1 @ F,0,0,1,0,0,0,1 @ F,0,0,1,0,0,0,1 @ F,0,0,1,0,0,0,1 @ F,0,0,1,0,0,0,1 @ F,0,0,1,0,0,0,1 @ F,0,0,1,0,0,0,1 @ F,0,0,1,0,0,0,1 @ F,0,0,1,0,0,0,1 @ F,0,0,1,0,0,0,1 @ F,0,0,1,0,0,0,1 @ F,0,0,1,0,0,0,1 @ F,0,0,1,0,0,0,1 @ F,0,0,1,0,0,0,1 @ F,0,0,1,0,0,0,1 @ F,0,0,1,0,0,0,1 @ F,0,0,1,0,0,0,1 @ F,0,0,1,0,0,0,1 @ F,0,0,1,0,0,0,1 @ F,0,0,1,0,0,0,1 @ F,0,0,1,0,0,0,1 @ F,0,0,1,0,0,0,1 @ F,0,0,1,0,0,0,1 @ F,0,0,1,0,0,0,1 @ F,0,0,1,0,0,0,1 @ F,0,0,1,0,0,0,1 @ F,0,0,1,0,0,0,1 @ F,0,0,1,0,0,0,1 @ F,0,0,1,0,0,0,1 @ F,0,0,1,0,0,0,1 @ F,0,0,1,0,0,0,1 @ F,0,0,1,0,0,0,1 @ F,0,0,1,0,0,0,1 @ F,0,0,1,0,0,0,1 @ F,0,0,1,0,0,0,1 @ F,0,0,1,0,0,0,1 @ F,0,0,1,0,0,0,1 @ F,0,0,1,0,0,0,1 @ F,0,0,1,0,0,0,1 @ F,0,0,1,0,0,0,1 @ F,0,0,1,0,0,0,1 @ F,0,0,1,0,0,0,1 @ F,0,0,1,0,0,0,1 @ F,0,0,1,0,0,0,1 @ F,0,0,1,0,0,0,1 @ F,0,0,1,0,0,0,1 @ F,0,0,1,0,0,0,1 @ F,0,0,1,0,0,0,1 @ F,0,1,1,0,0.33,0,1 @ F,0,1,1,0,0.33,0,1 @ F,0,0,1,0,0,0,1 @ F,0,0,1,0,0,0,1 @ F,0,0,1,0,0,0,1 @ F,0,0,1,0,0,0,1 @ F,0,0,1,0,0,0,1 @ F,0,0,1,0,0,0,1 @ F,0,0,1,0,0,0,1 @ F,0,0,1,0,0,0,1 @ F,0,0,1,0,0,0,1 @ F,0,0,1,0,0,0,1 @ F,0,0,1,0,0,0,1 @ F,0,0,1,0,0,0,1 @ F,0,0,1,0,0,0,1 @ F,0,0,1,0,0,0,1"
       unit="px"
       method="auto"
       mode="F"
       radius="0.33"
       chamfer_steps="1"
       flexible="false"
       use_knot_distance="true"
       apply_no_radius="true"
       apply_with_radius="true"
       only_selected="true"
       hide_knots="false" />
    <inkscape:path-effect
       effect="fillet_chamfer"
       id="path-effect7074"
       is_visible="true"
       lpeversion="1"
       nodesatellites_param="F,0,0,1,0,0,0,1 @ F,0,0,1,0,0,0,1 @ F,0,0,1,0,0,0,1 @ F,0,1,1,0,0.33,0,1 @ F,0,1,1,0,0.33,0,1 @ F,0,0,1,0,0,0,1 @ F,0,0,1,0,0,0,1 @ F,0,0,1,0,0,0,1 @ F,0,0,1,0,0,0,1 @ F,0,1,1,0,0.33,0,1 @ F,0,1,1,0,0.33,0,1 @ F,0,0,1,0,0,0,1"
       unit="px"
       method="auto"
       mode="F"
       radius="0.33"
       chamfer_steps="1"
       flexible="false"
       use_knot_distance="true"
       apply_no_radius="true"
       apply_with_radius="true"
       only_selected="true"
       hide_knots="false" />
    <inkscape:path-effect
       effect="fillet_chamfer"
       id="path-effect5090"
       is_visible="true"
       lpeversion="1"
       nodesatellites_param="F,0,0,1,0,1.5,0,1 @ F,0,0,1,0,5.5178353,0,1 @ F,0,0,1,0,1.5,0,1 @ F,0,0,1,0,1.767767,0,1 @ F,0,0,1,0,2.0608393,0,1 @ F,0,0,1,0,1.767767,0,1"
       unit="px"
       method="auto"
       mode="F"
       radius="0"
       chamfer_steps="1"
       flexible="false"
       use_knot_distance="true"
       apply_no_radius="true"
       apply_with_radius="true"
       only_selected="true"
       hide_knots="false" />
    <inkscape:path-effect
       effect="fillet_chamfer"
       id="path-effect5088"
       is_visible="false"
       lpeversion="1"
       nodesatellites_param="F,0,0,1,0,0,0,1 @ F,0,0,1,0,0,0,1 @ F,0,0,1,0,0,0,1 @ F,0,0,1,0,0,0,1 @ F,0,0,1,0,0,0,1 @ F,0,0,1,0,0,0,1"
       unit="px"
       method="auto"
       mode="F"
       radius="1"
       chamfer_steps="1"
       flexible="false"
       use_knot_distance="true"
       apply_no_radius="true"
       apply_with_radius="true"
       only_selected="true"
       hide_knots="false" />
    <inkscape:path-effect
       effect="fillet_chamfer"
       id="path-effect5030"
       is_visible="true"
       lpeversion="1"
       nodesatellites_param="F,0,0,1,0,0,0,1 @ F,0,0,1,0,0,0,1 @ F,0,0,1,0,0,0,1 @ F,0,0,1,0,0,0,1 | F,0,0,1,0,0,0,1 @ F,0,0,1,0,0,0,1 @ F,0,0,1,0,0,0,1 @ F,0,0,1,0,0,0,1 | F,0,0,1,0,0,0,1 @ F,0,0,1,0,0,0,1 @ F,0,0,1,0,0,0,1 @ F,0,0,1,0,0,0,1 @ F,0,0,1,0,0,0,1 @ F,0,0,1,0,0,0,1 @ F,0,0,1,0,0,0,1 @ F,0,0,1,0,0,0,1 @ F,0,0,1,0,0,0,1 | F,0,0,1,0,0,0,1 @ F,0,0,1,0,0,0,1 @ F,0,0,1,0,0,0,1 @ F,0,0,1,0,0,0,1 @ F,0,0,1,0,0,0,1 @ F,0,0,1,0,0,0,1 @ F,0,0,1,0,0,0,1 @ F,0,0,1,0,0,0,1 @ F,0,0,1,0,0,0,1"
       unit="px"
       method="auto"
       mode="F"
       radius="0.25"
       chamfer_steps="1"
       flexible="false"
       use_knot_distance="true"
       apply_no_radius="true"
       apply_with_radius="true"
       only_selected="true"
       hide_knots="false" />
    <inkscape:path-effect
       effect="fillet_chamfer"
       id="path-effect5028"
       is_visible="true"
       lpeversion="1"
       nodesatellites_param="F,0,0,1,0,1.5,0,1 @ F,0,0,1,0,1.5,0,1 @ F,0,0,1,0,1.5,0,1 @ F,0,0,1,0,1.5,0,1 | F,0,0,1,0,0.10193286,0,1 @ F,0,0,1,0,0.10193286,0,1 @ F,0,1,1,0,0.77545303,0,1 @ F,0,1,1,0,0.77545303,0,1"
       unit="px"
       method="auto"
       mode="F"
       radius="1.5"
       chamfer_steps="1"
       flexible="false"
       use_knot_distance="true"
       apply_no_radius="true"
       apply_with_radius="true"
       only_selected="true"
       hide_knots="false" />
    <inkscape:path-effect
       effect="fillet_chamfer"
       id="path-effect5026"
       is_visible="true"
       lpeversion="1"
       nodesatellites_param="F,0,0,1,0,0,0,1 @ F,0,0,1,0,0,0,1 @ F,0,0,1,0,0,0,1 @ F,0,0,1,0,0,0,1 | F,0,0,1,0,0,0,1 @ F,0,0,1,0,0,0,1 @ F,0,0,1,0,0,0,1 @ F,0,0,1,0,0,0,1"
       unit="px"
       method="auto"
       mode="F"
       radius="0"
       chamfer_steps="1"
       flexible="false"
       use_knot_distance="true"
       apply_no_radius="true"
       apply_with_radius="true"
       only_selected="false"
       hide_knots="false" />
    <inkscape:path-effect
       effect="fillet_chamfer"
       id="path-effect4034"
       is_visible="true"
       lpeversion="1"
       nodesatellites_param="F,0,0,1,0,0,0,1 @ F,0,0,1,0,1,0,1 @ F,0,1,1,0,1,0,1 @ F,0,1,1,0,1,0,1 @ F,0,0,1,0,1,0,1 @ F,0,0,1,0,0,0,1"
       unit="px"
       method="auto"
       mode="F"
       radius="1"
       chamfer_steps="1"
       flexible="false"
       use_knot_distance="true"
       apply_no_radius="true"
       apply_with_radius="true"
       only_selected="true"
       hide_knots="false" />
    <inkscape:path-effect
       effect="fillet_chamfer"
       id="path-effect4032"
       is_visible="true"
       lpeversion="1"
       nodesatellites_param="F,0,0,1,0,0,0,1 @ F,0,1,1,0,5,0,1 @ F,0,0,1,0,0,0,1 @ F,0,0,1,0,0,0,1 @ F,0,0,1,0,0,0,1"
       unit="px"
       method="auto"
       mode="F"
       radius="5"
       chamfer_steps="1"
       flexible="false"
       use_knot_distance="true"
       apply_no_radius="true"
       apply_with_radius="true"
       only_selected="true"
       hide_knots="false" />
    <inkscape:path-effect
       effect="fillet_chamfer"
       id="path-effect4030"
       is_visible="true"
       lpeversion="1"
       nodesatellites_param="F,0,0,1,0,0,0,1 @ F,0,1,1,0,5,0,1 @ F,0,0,1,0,0,0,1 @ F,0,0,1,0,0,0,1 @ F,0,0,1,0,0,0,1"
       unit="px"
       method="auto"
       mode="F"
       radius="5"
       chamfer_steps="1"
       flexible="false"
       use_knot_distance="true"
       apply_no_radius="true"
       apply_with_radius="true"
       only_selected="true"
       hide_knots="false" />
    <clipPath
       clipPathUnits="userSpaceOnUse"
       id="clipath_lpe_path-effect481">
      <circle
         style="display:none;fill:#c8c8c8;fill-opacity:1;stroke:none;stroke-width:0.1;stroke-linecap:square;stroke-miterlimit:4;stroke-dasharray:none;stroke-opacity:1"
         id="circle487"
         cx="-79"
         cy="120"
         r="8" />
    </clipPath>
    <inkscape:path-effect
       effect="powerclip"
       id="path-effect481"
       is_visible="true"
       lpeversion="1"
       inverse="true"
       flatten="false"
       hide_clip="false"
       message="Use fill-rule evenodd on &lt;b&gt;fill and stroke&lt;/b&gt; dialog if no flatten result after convert clip to paths." />
    <clipPath
       clipPathUnits="userSpaceOnUse"
       id="clipath_lpe_path-effect485">
      <rect
         style="display:block;fill:#c8c8c8;fill-opacity:1;stroke:none;stroke-width:0.2;stroke-linecap:square;stroke-miterlimit:4;stroke-dasharray:none;stroke-opacity:1"
         id="rect492"
         width="16"
         height="16"
         x="-87"
         y="112" />
    </clipPath>
    <inkscape:path-effect
       effect="powerclip"
       id="path-effect485"
       is_visible="true"
       lpeversion="1"
       inverse="true"
       flatten="false"
       hide_clip="false"
       message="Use fill-rule evenodd on &lt;b&gt;fill and stroke&lt;/b&gt; dialog if no flatten result after convert clip to paths." />
  </defs>
  <g
     inkscape:label="Layer 1"
     inkscape:groupmode="layer"
     id="layer1">
    <path
       id="path7053"
       style="color:#000000;fill:#786d7d;stroke-linecap:square;-inkscape-stroke:none;paint-order:markers stroke fill"
       d="M 8,1 C 7.3402334,1 6.9381871,1.0356926 6.59375,1.2617188 6.4215315,1.3747318 6.2897609,1.5575299 6.2304688,1.7226562 6.1711766,1.8877828 6.1633229,2.0250315 6.15625,2.1386719 6.1421043,2.3659523 6.1393062,2.5046951 6.0566406,2.671875 5.9739751,2.8390549 5.7964195,3.0663121 5.3125,3.3457031 4.8285805,3.6250942 4.5435368,3.6662964 4.3574219,3.6542969 4.171307,3.6422974 4.0496068,3.5740459 3.8457031,3.4726562 3.7437513,3.4219614 3.6199155,3.3593398 3.4472656,3.328125 3.274616,3.2969102 3.0511689,3.3214235 2.8671875,3.4140625 2.4992246,3.5993406 2.2673834,3.9286253 1.9375,4.5 1.6076166,5.0713746 1.4374115,5.438305 1.4609375,5.8496094 1.4727005,6.0552615 1.5643767,6.2606197 1.6777344,6.3945312 1.791092,6.528443 1.9070742,6.6030703 2.0019531,6.6660156 2.191711,6.7919065 2.3125663,6.8643508 2.4160156,7.0195312 2.5194649,7.1747119 2.625,7.4412179 2.625,8 2.625,8.558782 2.5194649,8.8252881 2.4160156,8.9804688 2.3125663,9.1356492 2.191711,9.2080934 2.0019531,9.3339844 1.9070742,9.3969298 1.791092,9.471557 1.6777344,9.6054688 1.5643768,9.7393803 1.4727005,9.9447377 1.4609375,10.150391 1.4374115,10.561694 1.6076166,10.928626 1.9375,11.5 c 0.3298834,0.571374 0.5617247,0.900659 0.9296875,1.085938 0.1839814,0.09264 0.4074285,0.117146 0.5800781,0.08594 0.1726499,-0.03121 0.2964857,-0.09384 0.3984375,-0.144531 0.2039037,-0.10139 0.3256039,-0.169641 0.5117188,-0.181641 0.1861149,-0.012 0.4711586,0.0292 0.9550781,0.308594 0.4839195,0.279391 0.661475,0.506648 0.7441406,0.673828 0.082666,0.16718 0.085464,0.305922 0.099609,0.533203 0.00707,0.113641 0.014926,0.250889 0.074219,0.416016 0.059292,0.165123 0.1910627,0.347924 0.3632812,0.460937 C 6.9381873,14.964305 7.3402334,15 8,15 c 0.6597665,0 1.0618129,-0.03569 1.40625,-0.261719 0.1722184,-0.113013 0.3039891,-0.295811 0.3632812,-0.460937 0.059292,-0.165127 0.067146,-0.302375 0.074219,-0.416016 0.014146,-0.227281 0.016944,-0.366023 0.099609,-0.533203 0.082666,-0.16718 0.2602206,-0.394437 0.7441406,-0.673828 0.48392,-0.279392 0.768963,-0.320593 0.955078,-0.308594 0.186115,0.012 0.307815,0.08025 0.511719,0.181641 0.101952,0.0507 0.225789,0.113316 0.398437,0.144531 0.17265,0.03121 0.396098,0.0067 0.580078,-0.08594 C 13.500775,12.400665 13.732616,12.071374 14.0625,11.5 14.392384,10.928626 14.562587,10.561694 14.539062,10.150391 14.527301,9.9447377 14.435623,9.7393803 14.322266,9.6054688 14.208908,9.471557 14.092926,9.3969297 13.998047,9.3339844 13.808289,9.2080934 13.687434,9.1356491 13.583984,8.9804688 13.554704,8.936547 13.525404,8.8836314 13.498394,8.8176861 13.429484,8.6494419 13.264363,8.5 13.082109,8.5 h -0.349765 c -0.182254,0 -0.314804,0.1475107 -0.274116,0.3250776 0.06537,0.2852696 0.1664,0.5190838 0.293725,0.7100786 0.233446,0.3501826 0.538186,0.5298658 0.693359,0.6328128 0.0576,0.03821 0.06993,0.05057 0.08399,0.0625 -0.0022,0.02374 -0.04639,0.271406 -0.333985,0.769531 -0.287116,0.497302 -0.478006,0.659526 -0.498046,0.673828 -0.0171,-0.0061 -0.03528,-0.01195 -0.09766,-0.04297 -0.16674,-0.08291 -0.472587,-0.256125 -0.892578,-0.283203 -0.419988,-0.02708 -0.919942,0.09523 -1.519531,0.441406 -0.5995903,0.346174 -0.9540806,0.718442 -1.140625,1.095704 -0.1865444,0.377259 -0.1896042,0.728204 -0.2011719,0.914062 -0.00434,0.06974 -0.010421,0.08771 -0.013672,0.105469 C 8.8093874,13.914581 8.5739234,14 8,14 c -0.5739236,0 -0.809382,-0.08542 -0.8320312,-0.0957 -0.00325,-0.01776 -0.00933,-0.03573 -0.013672,-0.105469 C 7.1427295,13.612964 7.1396694,13.262025 6.953125,12.884766 6.7665806,12.507504 6.4120903,12.135236 5.8125,11.789062 5.2129097,11.442889 4.7129583,11.320578 4.2929688,11.347656 c -0.4199896,0.02708 -0.7258365,0.200292 -0.8925782,0.283203 -0.06238,0.03102 -0.080552,0.03686 -0.097656,0.04297 C 3.2826933,11.659524 3.0918041,11.497302 2.8046875,11 2.5170957,10.501875 2.4729007,10.254208 2.4707031,10.230469 c 0.014063,-0.01193 0.026386,-0.02429 0.083984,-0.0625 C 2.7098622,10.065022 3.0146016,9.8853388 3.2480469,9.5351562 3.4814919,9.1849737 3.625,8.6923472 3.625,8 3.625,7.3076528 3.481492,6.8150263 3.2480469,6.4648438 3.0146016,6.1146612 2.7098614,5.9349781 2.5546875,5.8320312 2.497089,5.7938188 2.4847664,5.7814618 2.4707031,5.7695312 2.4729007,5.7457926 2.5170957,5.4981237 2.8046875,5 3.0918041,4.5026994 3.2826937,4.3404735 3.3027344,4.3261719 c 0.017104,0.00611 0.035277,0.011951 0.097656,0.042969 0.1667418,0.082911 0.4725886,0.256125 0.8925782,0.2832032 C 4.7129587,4.6794213 5.2129097,4.5571112 5.8125,4.2109375 6.4120903,3.8647638 6.7665806,3.4924951 6.953125,3.1152344 7.1396694,2.7379736 7.1427292,2.3870299 7.1542969,2.2011719 7.1586372,2.1314353 7.1647185,2.1134611 7.1679688,2.0957031 7.190618,2.0854209 7.4260765,2 8,2 c 0.5739235,0 0.809382,0.085421 0.8320312,0.095703 0.00325,0.017758 0.00933,0.035732 0.013672,0.1054688 0.011568,0.185858 0.014627,0.5368018 0.2011719,0.9140625 0.1865444,0.3772607 0.5410347,0.7495294 1.140625,1.0957031 0.599589,0.3461737 1.099543,0.4684844 1.519531,0.4414063 0.419991,-0.027078 0.725838,-0.200292 0.892578,-0.2832032 0.06238,-0.031018 0.08055,-0.036863 0.09766,-0.042969 0.02004,0.014302 0.21093,0.1765276 0.498046,0.6738281 0.287592,0.4981237 0.331787,0.7457925 0.333985,0.7695312 -0.01406,0.011931 -0.02638,0.024287 -0.08399,0.0625 -0.155171,0.1029474 -0.459913,0.2826299 -0.693359,0.6328126 -0.127329,0.190995 -0.228361,0.4248088 -0.293727,0.710078 C 12.417539,7.3524891 12.55009,7.5 12.732344,7.5 h 0.349765 c 0.182254,0 0.347377,-0.1495054 0.416335,-0.3178081 0.027,-0.065889 0.05628,-0.1187659 0.08554,-0.1626607 0.10345,-0.1551804 0.224305,-0.2276246 0.414063,-0.3535156 0.09488,-0.062945 0.210861,-0.1375726 0.324219,-0.2714844 C 14.435623,6.2606197 14.527301,6.0552615 14.539062,5.8496094 14.562587,5.4383051 14.392384,5.0713747 14.0625,4.5 13.732616,3.9286254 13.500775,3.5993405 13.132812,3.4140625 12.948832,3.3214235 12.725384,3.2969102 12.552734,3.328125 12.380086,3.3593398 12.256249,3.4219614 12.154297,3.4726562 11.950393,3.5740459 11.828693,3.6422974 11.642578,3.6542969 11.456463,3.6662964 11.17142,3.6250941 10.6875,3.3457031 10.203579,3.0663121 10.026025,2.8390549 9.9433594,2.671875 9.8606938,2.5046951 9.8578958,2.3659523 9.84375,2.1386719 9.8366771,2.0250315 9.8288234,1.8877828 9.7695312,1.7226562 9.7102391,1.5575299 9.5784684,1.3747318 9.40625,1.2617188 9.0618129,1.0356926 8.6597666,1 8,1 Z" />
    <circle
       style="display:inline;fill:none;stroke:#786d7d;stroke-linecap:square;stroke-opacity:1"
       id="path404"
       cx="8"
       cy="8"
       r="2.5" />
  </g>
</svg>
