<svg width="16" height="16" version="1.1" xml:space="preserve" xmlns="http://www.w3.org/2000/svg"><defs><style id="current-color-scheme" type="text/css">
      .ColorScheme-Text {
        color:#232629;
      }
      </style></defs><g transform="matrix(1 0 0 -1 0 14)" fill="#786d7d"><path d="m12.221 13.5c-0.1215 0-0.2207-0.099203-0.2207-0.2207v-1.2793c0-1.099 0.901-2 2-2h0.88867c0.33722 5.51e-4 0.61078 0.27411 0.61133 0.61133v0.07422c0 0.17342-0.14103 0.31445-0.31445 0.31445h-1.1855c-0.558 0-1 0.442-1 1v1c0 0.27614-0.22386 0.5-0.5 0.5zm-9.2207-1.5c-1.6569 0-3-1.3431-3-3v-8c0-1.099 0.901-2 2-2h0.40039c0.43796 0 0.81631 0.29238 0.94922 0.68945 0.05532 0.16526 0.19215 0.31055 0.36719 0.31055h1.4688c0.11861 9e-5 0.2473 0.10075 0.21484 0.21484l-0.099609 0.35156c-0.06546 0.23015-0.1943 0.43316-0.43359 0.43359h-1.4668c-0.46573 0-0.86327-0.32993-0.9707-0.76562-0.03125-0.12676-0.13476-0.23438-0.26562-0.23438h-0.16406c-0.558 0-1 0.442-1 1v8c0 1.1046 0.8954 2 2 2h4.8572a1.8824 1.8824 19.595 0 1 1.1895 0.42343l0.097684 0.07964a0.27995 0.27995 109.59 0 1-0.1769 0.49693zm6.7539-1c-0.14028 0-0.25391-0.11363-0.25391-0.25391v-0.55078c0-0.109 0.087313-0.19531 0.19531-0.19531h1.3047c0.558 0 1-0.442 1-1v-1.2109c0-0.16 0.12906-0.28906 0.28906-0.28906h0.33984c0.20513-5.55e-4 0.37165 0.16596 0.37109 0.37109v1.1289c0 1.099-0.901 2-2 2zm-3.7676-1c-1.098-0.006995-1.9923-0.91396-1.9863-2.0117v-0.00195c4.697e-4 -0.14267 0.022796-0.27288 0.054688-0.38868 0.044477-0.16149 0.22828-0.22875 0.38086-0.1582l0.48633 0.22461c0.081022 0.037461 0.10992 0.13195 0.089844 0.21875-0.0075549 0.032667-0.011719 0.066283-0.011719 0.10742v0.0039c-0.0035521 0.55757 0.43491 1.0013 0.99219 1.0059 0.56255-0.0010398 1.0078-0.44694 1.0078-1.0098v-0.00781c0-0.54883-0.4336-0.98242-0.98242-0.98242h-0.52344c-1.9239 0-3.4941-1.5702-3.4941-3.4941v-0.5332c0-0.5312 0.44146-0.97266 0.97266-0.97266h6.2148c0.44249 0 0.8125 0.37001 0.8125 0.8125v0.79492c0 1.207-0.63298 2.2719-1.5879 2.873-0.23348 0.14698-0.53153 0.030169-0.64258-0.22266l-0.12891-0.29492c-0.039645-0.09026 8.419e-4 -0.19596 0.087891-0.24219 0.75527-0.40106 1.2715-1.1933 1.2715-2.1133v-0.60742h-6v0.50586c0 1.3835 1.1107 2.4941 2.4941 2.4941h0.52344c1.0893 0 1.9824 0.89316 1.9824 1.9824v0.00781c0 1.1039-0.90585 2.0098-2.0098 2.0098h-0.00195zm9.5907-0.74587-0.25208-0.10974a0.54079 0.54079 56.763 0 1-0.32492-0.49584v-7.6485c0-0.558-0.442-1-1-1h-0.2168c-0.10113 0-0.1824 0.082359-0.20117 0.18164-0.08726 0.46146-0.49815 0.81836-0.98242 0.81836h-1.4062c-0.27287-8e-5 -0.41831-0.23201-0.49414-0.49414l-0.09961-0.3457c-0.02452-0.084775 0.071912-0.15966 0.16016-0.16016h1.6328c0.11437 0 0.20456-0.093409 0.22852-0.20508 0.09656-0.45001 0.5025-0.79492 0.97852-0.79492h0.40039c1.098 0 2 0.901 2 2v8a0.30298 0.30298 149 0 1-0.42299 0.25413zm-9.1766-9.2541c-0.43352 0-0.80884-0.28487-0.94531-0.67578-0.05973-0.17108-0.20271-0.32422-0.38477-0.32422h-1.459c-0.11654 9e-5 -0.21103-0.094408-0.21094-0.21094v-0.046875c-5.4e-4 -0.41012 0.33207-0.74273 0.74219-0.74219h1.2578c0.45179 0 0.84002 0.31025 0.96094 0.72656 0.04256 0.14652 0.16333 0.27344 0.31641 0.27344h2.6836c0.1315 0 0.236-0.10896 0.26758-0.23633 0.10786-0.43511 0.5054-0.76367 0.9707-0.76367h1.3438c0.36226 4.3e-4 0.65582 0.29399 0.65625 0.65625v0.17773c1.8e-4 0.09177-0.07424 0.1662-0.16602 0.16602h-1.4785c-0.19622 0-0.35082 0.1651-0.41992 0.34766-0.14325 0.37845-0.51102 0.65234-0.93555 0.65234zm-2.7207-1.1484c0.033717-4.79e-4 0.06233-0.03355 0.0625-0.0625 1.72e-4 -0.029297-0.011386-0.07168-0.0625-0.0625-0.03431 0.00616-0.062821 0.027642-0.0625 0.0625 4.89e-4 0.034285 0.028213 0.062817 0.0625 0.0625z" style="-inkscape-stroke:none"/></g></svg>
