<svg width="16" height="16" version="1.1" xml:space="preserve" xmlns="http://www.w3.org/2000/svg"><g fill="#786d7d"><path d="m2 1c-1.1046 0-2 0.89543-2 2v9c0 1.1046 0.89543 2 2 2h12c1.1046 0 2-0.89543 2-2v-9c0-1.0447-0.80092-1.9023-1.8223-1.9922-0.09787-0.008618-0.17773 0.071675-0.17773 0.16992v0.64062c0 0.099889 0.08154 0.17944 0.17969 0.19727 0.46642 0.084732 0.82031 0.49351 0.82031 0.98438v9c0 0.55228-0.44772 1-1 1h-12c-0.55228 0-1-0.44772-1-1v-9c0-0.55228 0.44772-1 1-1h10.805c0.108 0 0.19662-0.087562 0.17578-0.19336-0.09045-0.45927-0.49468-0.80664-0.98047-0.80664zm4.002 14c-0.27747 0-0.50195 0.22448-0.50195 0.50195v0.22852c0 0.14927 0.12026 0.26953 0.26953 0.26953h4.4941c0.13066 0 0.23633-0.10566 0.23633-0.23633v-0.11523c0-0.35765-0.29078-0.64844-0.64844-0.64844z" opacity=".7"/><g transform="translate(15.538 22.765)"><path d="m-8.1286 16.95c-0.51289 0-1.0256 0.1936-1.4141 0.58203l-6.8789 6.8789c-0.77686 0.77686-0.77686 2.0513 0 2.8281l3.5859 3.5859c0.32001 0.32001 0.75447 0.5 1.207 0.5h7.25a0.75 0.75 0 0 0 0.75-0.75 0.25 0.25 0 0 0-0.25-0.25h-7.75c-0.18773 0-0.36726-0.07429-0.5-0.20703l-3.5859-3.5859c-0.39471-0.39471-0.39471-1.0194 0-1.4141l6.8789-6.8789c0.39471-0.39471 1.0194-0.39471 1.4141 0l3.8789 3.8789c0.39471 0.39471 0.39471 1.0194 0 1.4141l-4.5859 4.5859-3.6162-3.6162a0.75 0.75 0 0 0-1.0607 0 0.24995 0.24995 0 0 0 7.5e-5 0.35348l3.9697 3.9697c0.38634 0.38634 1.0277 0.38634 1.4141 0l4.5859-4.5859c0.77686-0.77686 0.77686-2.0513 0-2.8281l-3.8789-3.8789c-0.38843-0.38843-0.90117-0.58203-1.4141-0.58203z" color="#000000" display="none" style="-inkscape-stroke:none;paint-order:markers stroke fill"/></g></g><rect x="2" y="11" width="12" height="1" rx=".28719" ry=".28719" fill="#786d7d" stroke-linejoin="round"/></svg>
