<?xml version="1.0" encoding="UTF-8" standalone="no"?>
<!-- Created with Inkscape (http://www.inkscape.org/) -->

<svg
   width="16"
   height="16"
   viewBox="0 0 16 16"
   version="1.1"
   id="svg1525"
   inkscape:version="1.2.2 (b0a8486541, 2022-12-01)"
   sodipodi:docname="debug-run.svg"
   xmlns:inkscape="http://www.inkscape.org/namespaces/inkscape"
   xmlns:sodipodi="http://sodipodi.sourceforge.net/DTD/sodipodi-0.dtd"
   xmlns="http://www.w3.org/2000/svg"
   xmlns:svg="http://www.w3.org/2000/svg">
  <sodipodi:namedview
     id="namedview1527"
     pagecolor="#ffffff"
     bordercolor="#000000"
     borderopacity="0.23921569"
     inkscape:showpageshadow="false"
     inkscape:pageopacity="0.0"
     inkscape:pagecheckerboard="0"
     inkscape:deskcolor="#ffffff"
     inkscape:document-units="px"
     showgrid="true"
     showborder="false"
     guidecolor="#1fca00"
     guideopacity="0.6"
     showguides="true"
     inkscape:zoom="36.120536"
     inkscape:cx="12.832035"
     inkscape:cy="7.3780743"
     inkscape:window-width="1638"
     inkscape:window-height="975"
     inkscape:window-x="141"
     inkscape:window-y="10"
     inkscape:window-maximized="1"
     inkscape:current-layer="svg1525">
    <inkscape:grid
       type="xygrid"
       id="grid1656"
       empspacing="4"
       color="#0099e5"
       opacity="0.05882353"
       empcolor="#0099e5"
       empopacity="0.18039216"
       dotted="false" />
    <inkscape:grid
       type="xygrid"
       id="grid130"
       empspacing="1"
       spacingx="0.5"
       spacingy="0.5"
       empcolor="#0099e5"
       empopacity="0.05490196"
       color="#0099e5"
       opacity="0" />
  </sodipodi:namedview>
  <defs
     id="defs1522">
    <inkscape:path-effect
       effect="fillet_chamfer"
       id="path-effect2190"
       is_visible="true"
       lpeversion="1"
       nodesatellites_param="F,0,0,1,0,0,0,1 @ F,0,0,1,0,0,0,1 @ F,0,0,1,0,0,0,1 @ F,0,1,1,0,0.33,0,1 @ F,0,1,1,0,0.33,0,1 @ F,0,0,1,0,0,0,1 @ F,0,0,1,0,0,0,1 @ F,0,0,1,0,0,0,1 @ F,0,0,1,0,0,0,1 @ F,0,0,1,0,0,0,1 @ F,0,0,1,0,0,0,1 @ F,0,1,1,0,0.33,0,1 @ F,0,1,1,0,0.33,0,1 @ F,0,0,1,0,0,0,1 @ F,0,0,1,0,0,0,1 @ F,0,0,1,0,0,0,1 @ F,0,0,1,0,0,0,1 @ F,0,0,1,0,0,0,1 @ F,0,0,1,0,0,0,1"
       unit="px"
       method="auto"
       mode="F"
       radius="0.33"
       chamfer_steps="1"
       flexible="false"
       use_knot_distance="true"
       apply_no_radius="true"
       apply_with_radius="true"
       only_selected="true"
       hide_knots="false" />
    <inkscape:path-effect
       effect="fillet_chamfer"
       id="path-effect1997"
       is_visible="true"
       lpeversion="1"
       nodesatellites_param="F,0,0,1,0,0,0,1 @ F,0,0,1,0,0,0,1 @ F,0,0,1,0,0,0,1 @ F,0,0,1,0,0.54976043,0,1 @ F,0,0,1,0,0.8588466,0,1 @ F,0,0,1,0,0.46579963,0,1 | F,0,0,1,0,0,0,1 @ F,0,0,1,0,0,0,1 @ F,0,0,1,0,0,0,1 @ F,0,0,1,0,0,0,1 @ F,0,0,1,0,0,0,1 @ F,0,0,1,0,0,0,1"
       unit="px"
       method="auto"
       mode="F"
       radius="0"
       chamfer_steps="1"
       flexible="false"
       use_knot_distance="true"
       apply_no_radius="true"
       apply_with_radius="true"
       only_selected="true"
       hide_knots="false" />
    <inkscape:path-effect
       effect="fillet_chamfer"
       id="path-effect1995"
       is_visible="true"
       lpeversion="1"
       nodesatellites_param="F,0,0,1,0,0,0,1 @ F,0,0,1,0,0,0,1 @ F,0,0,1,0,0,0,1 @ F,0,0,1,0,0,0,1 @ F,0,0,1,0,0,0,1 @ F,0,0,1,0,0,0,1 @ F,0,0,1,0,0,0,1 @ F,0,0,1,0,0,0,1 @ F,0,0,1,0,0,0,1 @ F,0,0,1,0,0,0,1 @ F,0,0,1,0,0,0,1 @ F,0,0,1,0,0,0,1 @ F,0,0,1,0,0,0,1 @ F,0,0,1,0,0,0,1 @ F,0,0,1,0,0,0,1 @ F,0,0,1,0,0,0,1 @ F,0,0,1,0,0,0,1 @ F,0,0,1,0,0,0,1 @ F,0,0,1,0,0,0,1 @ F,0,0,1,0,0,0,1 @ F,0,0,1,0,0,0,1 @ F,0,0,1,0,0,0,1 @ F,0,0,1,0,0,0,1 @ F,0,0,1,0,0,0,1 @ F,0,0,1,0,0,0,1 @ F,0,0,1,0,0,0,1 @ F,0,0,1,0,0,0,1 @ F,0,0,1,0,0,0,1 @ F,0,0,1,0,0,0,1 @ F,0,0,1,0,0,0,1 @ F,0,0,1,0,0,0,1 @ F,0,0,1,0,0,0,1 @ F,0,0,1,0,0,0,1 @ F,0,0,1,0,0,0,1 @ F,0,0,1,0,0,0,1 @ F,0,0,1,0,0.17040315,0,1 @ F,0,0,1,0,0.33,0,1 @ F,0,0,1,0,0,0,1 @ F,0,0,1,0,0,0,1 @ F,0,0,1,0,0,0,1 @ F,0,0,1,0,0,0,1 @ F,0,0,1,0,0,0,1 @ F,0,0,1,0,0,0,1 @ F,0,0,1,0,0,0,1 @ F,0,0,1,0,0,0,1 @ F,0,0,1,0,0,0,1 @ F,0,0,1,0,0,0,1 @ F,0,0,1,0,0,0,1 @ F,0,0,1,0,0,0,1 @ F,0,0,1,0,0,0,1 @ F,0,0,1,0,0,0,1 @ F,0,0,1,0,0,0,1 @ F,0,0,1,0,0,0,1 @ F,0,0,1,0,0,0,1 @ F,0,0,1,0,0,0,1 @ F,0,0,1,0,0,0,1 @ F,0,0,1,0,0,0,1 @ F,0,0,1,0,0,0,1 @ F,0,0,1,0,0,0,1 @ F,0,0,1,0,0,0,1 @ F,0,0,1,0,0,0,1 @ F,0,0,1,0,0,0,1 @ F,0,0,1,0,0,0,1 @ F,0,0,1,0,0,0,1 @ F,0,0,1,0,0,0,1 @ F,0,0,1,0,0,0,1 @ F,0,0,1,0,0,0,1 @ F,0,0,1,0,0,0,1 @ F,0,0,1,0,0,0,1 @ F,0,0,1,0,0,0,1 @ F,0,0,1,0,0,0,1 @ F,0,0,1,0,0,0,1 @ F,0,0,1,0,0,0,1 @ F,0,0,1,0,0,0,1 @ F,0,1,1,0,0.33,0,1 @ F,0,0,1,0,0.17040892,0,1 @ F,0,0,1,0,0,0,1 @ F,0,0,1,0,0,0,1 @ F,0,0,1,0,0,0,1 @ F,0,0,1,0,0,0,1 @ F,0,0,1,0,0,0,1 @ F,0,0,1,0,0,0,1 @ F,0,0,1,0,0,0,1 @ F,0,0,1,0,0,0,1 @ F,0,0,1,0,0,0,1 @ F,0,0,1,0,0,0,1 @ F,0,0,1,0,0,0,1 @ F,0,0,1,0,0,0,1 @ F,0,0,1,0,0,0,1"
       unit="px"
       method="auto"
       mode="F"
       radius="0.33"
       chamfer_steps="1"
       flexible="false"
       use_knot_distance="true"
       apply_no_radius="true"
       apply_with_radius="true"
       only_selected="true"
       hide_knots="false" />
    <inkscape:path-effect
       effect="fillet_chamfer"
       id="path-effect7074"
       is_visible="true"
       lpeversion="1"
       nodesatellites_param="F,0,0,1,0,0,0,1 @ F,0,0,1,0,0,0,1 @ F,0,0,1,0,0,0,1 @ F,0,1,1,0,0.33,0,1 @ F,0,1,1,0,0.33,0,1 @ F,0,0,1,0,0,0,1 @ F,0,0,1,0,0,0,1 @ F,0,0,1,0,0,0,1 @ F,0,0,1,0,0,0,1 @ F,0,1,1,0,0.33,0,1 @ F,0,1,1,0,0.33,0,1 @ F,0,0,1,0,0,0,1"
       unit="px"
       method="auto"
       mode="F"
       radius="0.33"
       chamfer_steps="1"
       flexible="false"
       use_knot_distance="true"
       apply_no_radius="true"
       apply_with_radius="true"
       only_selected="true"
       hide_knots="false" />
    <inkscape:path-effect
       effect="fillet_chamfer"
       id="path-effect5090"
       is_visible="true"
       lpeversion="1"
       nodesatellites_param="F,0,0,1,0,1.5,0,1 @ F,0,0,1,0,5.5178353,0,1 @ F,0,0,1,0,1.5,0,1 @ F,0,0,1,0,1.767767,0,1 @ F,0,0,1,0,2.0608393,0,1 @ F,0,0,1,0,1.767767,0,1"
       unit="px"
       method="auto"
       mode="F"
       radius="0"
       chamfer_steps="1"
       flexible="false"
       use_knot_distance="true"
       apply_no_radius="true"
       apply_with_radius="true"
       only_selected="true"
       hide_knots="false" />
    <inkscape:path-effect
       effect="fillet_chamfer"
       id="path-effect5088"
       is_visible="false"
       lpeversion="1"
       nodesatellites_param="F,0,0,1,0,0,0,1 @ F,0,0,1,0,0,0,1 @ F,0,0,1,0,0,0,1 @ F,0,0,1,0,0,0,1 @ F,0,0,1,0,0,0,1 @ F,0,0,1,0,0,0,1"
       unit="px"
       method="auto"
       mode="F"
       radius="1"
       chamfer_steps="1"
       flexible="false"
       use_knot_distance="true"
       apply_no_radius="true"
       apply_with_radius="true"
       only_selected="true"
       hide_knots="false" />
    <inkscape:path-effect
       effect="fillet_chamfer"
       id="path-effect5030"
       is_visible="true"
       lpeversion="1"
       nodesatellites_param="F,0,0,1,0,0,0,1 @ F,0,0,1,0,0,0,1 @ F,0,0,1,0,0,0,1 @ F,0,0,1,0,0,0,1 | F,0,0,1,0,0,0,1 @ F,0,0,1,0,0,0,1 @ F,0,0,1,0,0,0,1 @ F,0,0,1,0,0,0,1 | F,0,0,1,0,0,0,1 @ F,0,0,1,0,0,0,1 @ F,0,0,1,0,0,0,1 @ F,0,0,1,0,0,0,1 @ F,0,0,1,0,0,0,1 @ F,0,0,1,0,0,0,1 @ F,0,0,1,0,0,0,1 @ F,0,0,1,0,0,0,1 @ F,0,0,1,0,0,0,1 | F,0,0,1,0,0,0,1 @ F,0,0,1,0,0,0,1 @ F,0,0,1,0,0,0,1 @ F,0,0,1,0,0,0,1 @ F,0,0,1,0,0,0,1 @ F,0,0,1,0,0,0,1 @ F,0,0,1,0,0,0,1 @ F,0,0,1,0,0,0,1 @ F,0,0,1,0,0,0,1"
       unit="px"
       method="auto"
       mode="F"
       radius="0.25"
       chamfer_steps="1"
       flexible="false"
       use_knot_distance="true"
       apply_no_radius="true"
       apply_with_radius="true"
       only_selected="true"
       hide_knots="false" />
    <inkscape:path-effect
       effect="fillet_chamfer"
       id="path-effect5028"
       is_visible="true"
       lpeversion="1"
       nodesatellites_param="F,0,0,1,0,1.5,0,1 @ F,0,0,1,0,1.5,0,1 @ F,0,0,1,0,1.5,0,1 @ F,0,0,1,0,1.5,0,1 | F,0,0,1,0,0.10193286,0,1 @ F,0,0,1,0,0.10193286,0,1 @ F,0,1,1,0,0.77545303,0,1 @ F,0,1,1,0,0.77545303,0,1"
       unit="px"
       method="auto"
       mode="F"
       radius="1.5"
       chamfer_steps="1"
       flexible="false"
       use_knot_distance="true"
       apply_no_radius="true"
       apply_with_radius="true"
       only_selected="true"
       hide_knots="false" />
    <inkscape:path-effect
       effect="fillet_chamfer"
       id="path-effect5026"
       is_visible="true"
       lpeversion="1"
       nodesatellites_param="F,0,0,1,0,0,0,1 @ F,0,0,1,0,0,0,1 @ F,0,0,1,0,0,0,1 @ F,0,0,1,0,0,0,1 | F,0,0,1,0,0,0,1 @ F,0,0,1,0,0,0,1 @ F,0,0,1,0,0,0,1 @ F,0,0,1,0,0,0,1"
       unit="px"
       method="auto"
       mode="F"
       radius="0"
       chamfer_steps="1"
       flexible="false"
       use_knot_distance="true"
       apply_no_radius="true"
       apply_with_radius="true"
       only_selected="false"
       hide_knots="false" />
    <inkscape:path-effect
       effect="fillet_chamfer"
       id="path-effect4034"
       is_visible="true"
       lpeversion="1"
       nodesatellites_param="F,0,0,1,0,0,0,1 @ F,0,0,1,0,1,0,1 @ F,0,1,1,0,1,0,1 @ F,0,1,1,0,1,0,1 @ F,0,0,1,0,1,0,1 @ F,0,0,1,0,0,0,1"
       unit="px"
       method="auto"
       mode="F"
       radius="1"
       chamfer_steps="1"
       flexible="false"
       use_knot_distance="true"
       apply_no_radius="true"
       apply_with_radius="true"
       only_selected="true"
       hide_knots="false" />
    <inkscape:path-effect
       effect="fillet_chamfer"
       id="path-effect4032"
       is_visible="true"
       lpeversion="1"
       nodesatellites_param="F,0,0,1,0,0,0,1 @ F,0,1,1,0,5,0,1 @ F,0,0,1,0,0,0,1 @ F,0,0,1,0,0,0,1 @ F,0,0,1,0,0,0,1"
       unit="px"
       method="auto"
       mode="F"
       radius="5"
       chamfer_steps="1"
       flexible="false"
       use_knot_distance="true"
       apply_no_radius="true"
       apply_with_radius="true"
       only_selected="true"
       hide_knots="false" />
    <inkscape:path-effect
       effect="fillet_chamfer"
       id="path-effect4030"
       is_visible="true"
       lpeversion="1"
       nodesatellites_param="F,0,0,1,0,0,0,1 @ F,0,1,1,0,5,0,1 @ F,0,0,1,0,0,0,1 @ F,0,0,1,0,0,0,1 @ F,0,0,1,0,0,0,1"
       unit="px"
       method="auto"
       mode="F"
       radius="5"
       chamfer_steps="1"
       flexible="false"
       use_knot_distance="true"
       apply_no_radius="true"
       apply_with_radius="true"
       only_selected="true"
       hide_knots="false" />
    <clipPath
       clipPathUnits="userSpaceOnUse"
       id="clipath_lpe_path-effect481">
      <circle
         style="display:none;fill:#c8c8c8;fill-opacity:1;stroke:none;stroke-width:0.1;stroke-linecap:square;stroke-miterlimit:4;stroke-dasharray:none;stroke-opacity:1"
         id="circle487"
         cx="-79"
         cy="120"
         r="8" />
    </clipPath>
    <inkscape:path-effect
       effect="powerclip"
       id="path-effect481"
       is_visible="true"
       lpeversion="1"
       inverse="true"
       flatten="false"
       hide_clip="false"
       message="Use fill-rule evenodd on &lt;b&gt;fill and stroke&lt;/b&gt; dialog if no flatten result after convert clip to paths." />
    <clipPath
       clipPathUnits="userSpaceOnUse"
       id="clipath_lpe_path-effect485">
      <rect
         style="display:block;fill:#c8c8c8;fill-opacity:1;stroke:none;stroke-width:0.2;stroke-linecap:square;stroke-miterlimit:4;stroke-dasharray:none;stroke-opacity:1"
         id="rect492"
         width="16"
         height="16"
         x="-87"
         y="112" />
    </clipPath>
    <inkscape:path-effect
       effect="powerclip"
       id="path-effect485"
       is_visible="true"
       lpeversion="1"
       inverse="true"
       flatten="false"
       hide_clip="false"
       message="Use fill-rule evenodd on &lt;b&gt;fill and stroke&lt;/b&gt; dialog if no flatten result after convert clip to paths." />
  </defs>
  <path
     id="path7053"
     style="color:#000000;fill:#786d7d;stroke-linecap:square;-inkscape-stroke:none;paint-order:markers stroke fill"
     d="M 4.6953125,1.4609375 C 4.3418994,1.4822476 3.9999523,1.6488524 3.5,1.9375 2.9286259,2.2673831 2.5973874,2.499225 2.4121094,2.8671875 2.3194705,3.0511688 2.2969103,3.2765692 2.328125,3.4492188 2.35934,3.6218685 2.4219609,3.7437513 2.4726562,3.8457031 2.5740458,4.0496064 2.6403444,4.1713073 2.6523438,4.3574219 2.6643436,4.5435365 2.6250941,4.828581 2.3457031,5.3125 2.0663124,5.796419 1.8390548,5.9759281 1.671875,6.0585938 1.5046953,6.1412593 1.3659522,6.1421042 1.1386719,6.15625 1.0250317,6.1633229 0.88582949,6.1711766 0.72070312,6.2304688 0.55557695,6.2897607 0.37473172,6.4234849 0.26171875,6.5957031 0.03569279,6.9401399 1.4489971e-8,7.340234 0,8 -6.4499872e-8,8.6597659 0.0356927,9.0637665 0.26171875,9.4082031 0.37473174,9.5804215 0.55753,9.7121923 0.72265625,9.7714844 0.88778251,9.8307763 1.0250317,9.836677 1.1386719,9.84375 c 0.2272802,0.014146 0.3679765,0.016944 0.5351562,0.099609 0.16718,0.082666 0.3924843,0.260221 0.671875,0.744141 0.2793907,0.48392 0.3205932,0.76701 0.3085938,0.953125 -0.011999,0.186115 -0.080251,0.309768 -0.1816407,0.513672 -0.050695,0.101952 -0.1133165,0.223834 -0.1445312,0.396484 -0.031215,0.17265 -0.00866,0.396098 0.083984,0.580078 0.1852783,0.367963 0.5165171,0.601757 1.087891,0.931641 0.571374,0.329883 0.9363523,0.498134 1.3476562,0.474609 0.2056524,-0.01176 0.4110077,-0.10149 0.5449219,-0.214843 C 5.5264922,14.208912 5.6030684,14.092922 5.6660156,13.998047 5.7919064,13.808289 5.8623981,13.687434 6.0175781,13.583984 6.1727583,13.480534 6.4412172,13.374998 7,13.375 c 0.5587813,0 0.8252885,0.107488 0.9804688,0.210938 0.1551805,0.103447 0.2276253,0.22235 0.3535156,0.412109 0.062943,0.09488 0.1375719,0.208909 0.2714844,0.322265 0.1339095,0.113354 0.3392699,0.206989 0.5449218,0.21875 C 9.5616935,14.562582 9.9286259,14.392383 10.5,14.0625 c 0.571373,-0.329884 0.902614,-0.561722 1.087891,-0.929688 0.09264,-0.183979 0.115204,-0.409382 0.08398,-0.582031 C 11.640651,12.37813 11.578031,12.256249 11.52734,12.154297 11.485448,12.070037 11.378786,12 11.284675,12 h -0.562097 c -0.182254,0 -0.297692,0.145282 -0.227894,0.313422 0.04951,0.119261 0.100938,0.215324 0.136175,0.286187 0.03111,0.06257 0.03496,0.08066 0.04102,0.09766 -0.01447,0.02023 -0.174842,0.211086 -0.671875,0.498046 C 9.502972,13.482277 9.2571808,13.526878 9.2324259,13.5293 9.2207309,13.51555 9.2066029,13.50354 9.1679729,13.44531 9.0650247,13.290137 8.885338,12.98735 8.5351562,12.753906 8.1849736,12.52046 7.6923465,12.375 7,12.375 c -0.6923466,0 -1.186927,0.143507 -1.5371094,0.376953 -0.3501812,0.233447 -0.5279125,0.536234 -0.6308594,0.691406 -0.038513,0.05805 -0.050742,0.0721 -0.0625,0.08594 C 4.7450234,13.526895 4.4973005,13.482432 4,13.195312 3.5018764,12.907721 3.3399446,12.716726 3.3261719,12.697266 c 0.00621,-0.01736 0.012193,-0.03577 0.042969,-0.09766 0.082912,-0.166735 0.2561249,-0.474541 0.2832032,-0.894531 C 3.6794217,11.28509 3.5571109,10.787089 3.2109375,10.1875 2.8647642,9.5879102 2.4944478,9.2334192 2.1171875,9.046875 1.7399271,8.8603309 1.3870297,8.8572708 1.2011719,8.8457031 1.1321838,8.8414094 1.1138476,8.8353318 1.0957031,8.8320312 1.0857369,8.8103743 1,8.575183 1,8 0.9999999,7.4257673 1.0854981,7.1903745 1.0957031,7.1679688 1.1135711,7.1647088 1.1316409,7.160576 1.2011719,7.15625 1.38703,7.1446823 1.7379741,7.1416223 2.1152344,6.9550781 2.4924948,6.7685332 2.8647642,6.4120897 3.2109375,5.8125 3.5571109,5.2129102 3.6774688,4.7129578 3.6503906,4.2929688 3.6233126,3.8729796 3.4520516,3.5671322 3.3691406,3.4003906 3.3380313,3.337827 3.3341891,3.3197385 3.328125,3.3027344 3.3425987,3.2825051 3.5029681,3.091649 4,2.8046875 4.4970318,2.5177261 4.7428222,2.4731233 4.7675781,2.4707031 c 0.011694,0.013754 0.025824,0.025761 0.064453,0.083984 C 4.9349784,2.7098614 5.1146613,3.012649 5.4648438,3.2460938 5.8150259,3.4795386 6.3076535,3.625 7,3.625 c 0.6923458,5e-7 1.186928,-0.1435088 1.5371094,-0.3769531 0.3501831,-0.2334453 0.5279134,-0.5362327 0.6308594,-0.6914063 0.038514,-0.058052 0.050735,-0.072094 0.0625,-0.085937 0.024506,0.00237 0.2722311,0.046868 0.7695312,0.3339844 0.498124,0.2875916 0.660055,0.4785875 0.673828,0.4980469 -0.0062,0.017363 -0.01219,0.035762 -0.04297,0.097656 -0.03523,0.07086 -0.08663,0.1673486 -0.136206,0.287076 C 10.425183,3.8552326 10.540324,4 10.722578,4 h 0.562091 c 0.09411,0 0.200771,-0.070043 0.242679,-0.1542969 0.0507,-0.1019518 0.113316,-0.2238346 0.144531,-0.3964843 0.03121,-0.1726493 0.0086,-0.3960974 -0.08398,-0.5800782 C 11.402607,2.5011786 11.071374,2.2673829 10.5,1.9375 9.9286256,1.6076172 9.5636472,1.4393647 9.1523438,1.4628906 8.9466924,1.4746532 8.7413333,1.5643768 8.6074219,1.6777344 8.473511,1.7910915 8.3969298,1.9070742 8.3339844,2.0019531 8.2080934,2.1917108 8.1376021,2.3125664 7.9824219,2.4160156 7.8272415,2.5194647 7.5587814,2.6249999 7,2.625 6.4412176,2.6250005 6.1747115,2.5175117 6.0195312,2.4140625 5.8643509,2.3106134 5.7919064,2.1917107 5.6660156,2.0019531 5.6030703,1.9070742 5.5284429,1.7930452 5.3945312,1.6796875 5.2606198,1.5663301 5.0552613,1.4727005 4.8496094,1.4609375 c -0.051413,-0.00294 -0.1038094,-0.00304 -0.1542969,0 z" />
  <path
     id="path404"
     style="color:#000000;fill:#786d7d;stroke:none;stroke-width:2;stroke-linecap:square;stroke-dasharray:none;stroke-opacity:1;paint-order:markers stroke fill"
     d="M 7,5 C 5.3490748,5 4,6.3490748 4,8 4,9.6509252 5.3490748,11 7,11 H 9.4407676 A 0.19498599,0.19498599 120.57742 0 0 9.6115611,10.710944 L 9.3791928,10.289056 A 0.55850165,0.55850165 30.577424 0 0 8.8899863,10 L 7,10 C 5.8895126,10 5,9.1104874 5,8 5,6.8895126 5.8895126,6 7,6 h 6.259766 l 1.599609,2 -1.599609,2 h -2.478027 a 0.19465291,0.19465291 120.53454 0 0 -0.170361,0.288817 l 0.233456,0.422366 A 0.55945735,0.55945735 30.534539 0 0 11.334473,11 h 1.858886 c 0.303624,0 0.701286,-0.192331 0.890625,-0.429688 0.50559,-0.6338078 1.012811,-1.2674824 1.519532,-1.9003901 0.29645,-0.3702743 0.298006,-0.9712044 0.002,-1.3417969 C 15.079892,6.6702204 14.552737,6.0143711 14.021484,5.3613281 13.859143,5.1617696 13.518973,5 13.261719,5 Z"
     sodipodi:nodetypes="sssccssscccccsssssss" />
</svg>
