<svg width="16" height="16" version="1.1" viewBox="0 0 16 16" xml:space="preserve" xmlns="http://www.w3.org/2000/svg"><path d="m3 2c-1.0986 0-2 0.90137-2 2v7.793c0 0.58516 0.23272 1.1468 0.64648 1.5605l2 2c0.46721 0.46721 1.2398 0.46721 1.707 0l2-2c0.22651-0.22651 0.53318-0.35352 0.85352-0.35352h0.65234c0.077745 2e-4 0.14082-0.0629 0.14062-0.14062v-0.14453c5.371e-4 -0.39502-0.31982-0.71538-0.71484-0.71484h-0.078125c-0.58517 0-1.1468 0.23273-1.5605 0.64648l-2 2c-0.085068 0.08507-0.2079 0.08507-0.29297 0l-2-2c-0.22651-0.22651-0.35352-0.53318-0.35352-0.85352v-7.793c0-0.55821 0.44179-1 1-1h10c0.5582 0 1 0.44179 1 1v5.6765a0.15449 0.15449 0 0 0 0.25159 0.12015l0.30446-0.24607a1.1953 1.1953 0 0 0 0.44394-0.9296v-4.621c0-1.0986-0.90137-2-2-2zm0.46094 2c-0.2544 4.137e-4 -0.46052 0.20654-0.46094 0.46094v0.078125c4.137e-4 0.2544 0.20654 0.46052 0.46094 0.46094h8.0781c0.2544-4.134e-4 0.46052-0.20654 0.46094-0.46094v-0.078125c-4.14e-4 -0.2544-0.20654-0.46052-0.46094-0.46094zm0 2c-0.2544 4.137e-4 -0.46052 0.20654-0.46094 0.46094v0.078125c4.137e-4 0.2544 0.20654 0.46052 0.46094 0.46094h4.0781c0.2544-4.137e-4 0.46052-0.20654 0.46094-0.46094v-0.078125c-4.137e-4 -0.2544-0.20654-0.46052-0.46094-0.46094zm0 2c-0.2544 4.137e-4 -0.46052 0.20654-0.46094 0.46094v0.078125c4.137e-4 0.2544 0.20654 0.46052 0.46094 0.46094h8.0781c0.2544-4.134e-4 0.46052-0.20654 0.46094-0.46094v-0.078125c-4.14e-4 -0.2544-0.20654-0.46052-0.46094-0.46094zm6.7031 4c-0.09071-2.4e-4 -0.1643 0.07335-0.16406 0.16406v0.09961c2.66e-4 0.40655 0.32978 0.73606 0.73633 0.73633h0.0044a0.35433 0.35433 0 0 0 0.21286-0.07106l0.31508-0.23676a0.25571 0.25571 0 0 0-0.0014-0.40987l-0.23702-0.17565a0.5426 0.5426 0 0 0-0.32306-0.10666zm-1.377 0.74023h0.00195c0.00199 5.27e-4 0.00394 0.0012 0.00586 2e-3h0.00195c0.00199 5.24e-4 0.00394 0.0012 0.00586 2e-3h0.00195l0.00195 2e-3c0.00199 5.27e-4 0.00394 0.0012 0.00586 2e-3l0.00195 2e-3h0.00195l0.013672 0.01367c1.01e-5 6.51e-4 1.01e-5 0.0032 0 0.0039 0.00141 0.0019 0.00272 0.0038 0.00391 0.0059v2e-3c7.475e-4 0.0019 0.0014 0.0039 0.00195 0.0059l0.00195 2e-3v0.0059c7.476e-4 0.0019 0.0014 0.0039 0.00195 0.0059v0.0059c-4.912e-4 0.03139-0.023939 0.05657-0.052734 0.05664-0.028797-7.3e-5 -0.052243-0.02526-0.052734-0.05664-4.966e-4 -0.03215 0.023237-0.05853 0.052734-0.05859z" fill="#786d7d" style="-inkscape-stroke:none;paint-order:markers stroke fill"/><g transform="translate(2,2)"><path d="m13.197 8.162a0.123 0.123 0 0 0-0.088 0.037l-0.924 0.922c-0.42 0.42-1.09 0.42-1.511 0l-0.856-0.855a0.218 0.218 0 0 0-0.31 0l-0.24 0.24a0.299 0.299 0 0 0 0 0.426l0.796 0.798c0.75 0.75 1.98 0.75 2.73 0l0.884-0.88a0.184 0.184 0 0 0 0-0.262l-0.391-0.389a0.127 0.127 0 0 0-0.09-0.037zm-1.768 2.52c-0.495 0-0.99 0.185-1.365 0.56l-0.629 0.63a0.54 0.54 0 0 0 0 0.765l0.053 0.052c0.097 0.097 0.25 0.097 0.348 0l0.838-0.837a1.062 1.062 0 0 1 1.511 0l0.707 0.707a0.43 0.43 0 0 0 0.61 0l0.199-0.198a0.153 0.153 0 0 0 0-0.215l-0.906-0.904a1.922 1.922 0 0 0-1.366-0.56z" fill="#821313" style="-inkscape-stroke:none"/></g></svg>
