<svg width="16" height="16" version="1.1" xml:space="preserve" xmlns="http://www.w3.org/2000/svg"><path d="m12.504 2.9844c-0.26884 0-0.53824 0.10038-0.74023 0.30273l-4.3102 4.3219c-0.074713 0.075392-0.073838 0.19717 0.00195 0.27148l0.13086 0.13086c0.24449 0.24283 0.6394 0.24196 0.88281-0.00195l4.0035-4.0152c0.02218-0.022217 0.04032-0.022217 0.0625 0l1.543 1.5469c0.02218 0.022218 0.02218 0.044188 0 0.066406l-7.2012 7.2168c-0.23525 0.23568-0.60068 0.23568-0.83594 0l-4.25-4.2578v-0.00195c-0.044322-0.043173-0.038541-0.014114 0.00586-0.058594l1.5449-1.5469c0.022178-0.022217 0.040323-0.022217 0.0625 0l2.9581 2.9651c0.052659 0.05333 0.13875 0.05333 0.19141-3e-6l0.20508-0.20508c0.22412-0.22447 0.22412-0.58803 0-0.8125l-2.6456-2.6545c-0.40398-0.40471-1.0765-0.4047-1.4805 0l-1.543 1.5469c-0.38029 0.38098-0.41257 1.0654-0.0078126 1.4727l4.252 4.2578c0.61706 0.61819 1.6329 0.61819 2.25 0l7.2031-7.2168c0.40398-0.40471 0.40398-1.0738 0-1.4785l-1.543-1.5469c-0.20199-0.20235-0.47139-0.30273-0.74024-0.30273zm-4.9684 4.7184c0.0026-1.846e-4 0.00521-1.846e-4 0.00781 0 6.499e-4 -1.15e-5 0.0013-1.15e-5 0.00195 0 6.499e-4 -1.15e-5 0.0013-1.15e-5 0.00195 0 6.499e-4 -1.15e-5 0.0013-1.15e-5 0.00195 0 0.00195-1.039e-4 0.00391-1.039e-4 0.00586 0 6.699e-4 6.329e-4 0.00132 0.00128 0.00195 0.00195 6.499e-4 -1.15e-5 0.0013-1.15e-5 0.00195 0 6.499e-4 -1.15e-5 0.0013-1.15e-5 0.00195 0 0.00199 5.389e-4 0.00395 0.00119 0.00586 0.00195 6.699e-4 6.329e-4 0.00132 0.00128 0.00195 0.00195 6.699e-4 6.329e-4 0.00132 0.00128 0.00195 0.00195 6.499e-4 -1.15e-5 0.0013-1.15e-5 0.00195 0 6.699e-4 6.329e-4 0.00132 0.00128 0.00195 0.00195 6.699e-4 6.329e-4 0.00132 0.00128 0.00195 0.00195 6.699e-4 6.329e-4 0.00132 0.00128 0.00195 0.00195 6.499e-4 -1.15e-5 0.0013-1.15e-5 0.00195 0 6.699e-4 6.329e-4 0.00132 0.00128 0.00195 0.00195 1.48e-5 6.499e-4 1.48e-5 0.0013 0 0.00195 6.699e-4 6.329e-4 0.00132 0.00128 0.00195 0.00195 6.699e-4 6.329e-4 0.00132 0.00128 0.00195 0.00195 1.48e-5 6.499e-4 1.48e-5 0.0013 0 0.00195 6.699e-4 6.329e-4 0.00132 0.00128 0.00195 0.00195 6.699e-4 6.329e-4 0.00132 0.00128 0.00195 0.00195 1.48e-5 6.499e-4 1.48e-5 0.0013 0 0.00195 7.889e-4 0.00191 0.00144 0.00387 0.00195 0.00586 1.48e-5 6.499e-4 1.48e-5 0.0013 0 0.00195 1.48e-5 6.499e-4 1.48e-5 0.0013 0 0.00195 1.48e-5 6.499e-4 1.48e-5 0.0013 0 0.00195 1.48e-5 6.499e-4 1.48e-5 0.0013 0 0.00195 5.94e-5 0.0013 5.94e-5 0.00261 0 0.00391-9.771e-4 0.024425-0.022275 0.04402-0.048828 0.044922-0.027312 4e-5 -0.049758-0.019816-0.050781-0.044922-4.093e-4 -0.023302 0.017932-0.04331 0.042969-0.046875z" color="#000000" fill="#786d7d" style="-inkscape-stroke:none"/></svg>
