<svg width="16" height="16" version="1.1" viewBox="0 0 16 16" xml:space="preserve" xmlns="http://www.w3.org/2000/svg"><path d="m3 2c-1.0986 0-2 0.90137-2 2v7.793c0 0.58516 0.23271 1.1468 0.64648 1.5605l2 2c0.46721 0.46721 1.2398 0.46721 1.707 0l2-2c0.22651-0.22651 0.53318-0.35352 0.85352-0.35352h0.65234c0.077745 2e-4 0.14082-0.062885 0.14062-0.14062v-0.14453c5.371e-4 -0.39502-0.31982-0.71538-0.71484-0.71484h-0.078125c-0.58517 0-1.1468 0.23272-1.5605 0.64648l-2 2c-0.085068 0.08507-0.2079 0.08507-0.29297 0l-2-2c-0.22651-0.22651-0.35352-0.53318-0.35352-0.85352v-7.793c0-0.55821 0.44179-1 1-1h10c0.5582 0 1 0.44179 1 1v6a2 2 135 0 1-2 2h-1.8364a0.16363 0.16363 135 0 0-0.16363 0.16363v0.09956a0.73681 0.73681 45 0 0 0.73681 0.73681h1.2632a3 3 135 0 0 3-3v-6c0-1.0986-0.90137-2-2-2zm5.7871 10.74h0.00195c0.00199 5.27e-4 0.00394 0.0012 0.00586 2e-3h0.00195c0.00199 5.26e-4 0.00394 0.0012 0.00586 2e-3h0.00195l0.00195 2e-3c0.00199 5.27e-4 0.00394 0.0012 0.00586 2e-3l0.00195 2e-3h0.00195l0.01365 0.014c1.01e-5 6.51e-4 1.01e-5 0.0032 0 0.0039 0.00141 0.0019 0.00272 0.0038 0.00391 0.0059v2e-3c7.475e-4 0.0019 0.0014 0.0039 0.00195 0.0059l0.00195 2e-3v6e-3c7.476e-4 0.0019 0.0014 0.0039 0.00195 0.0059v6e-3c-4.912e-4 0.03139-0.023938 0.05657-0.052734 0.05664-0.028797-7.3e-5 -0.052243-0.02526-0.052734-0.05664-4.966e-4 -0.03215 0.023237-0.05852 0.052734-0.05859z" fill="#786d7d" style="-inkscape-stroke:none;paint-order:markers stroke fill"/></svg>
