<?xml version="1.0" encoding="UTF-8" standalone="no"?>
<svg
   width="16"
   height="16"
   version="1.1"
   xml:space="preserve"
   id="svg4"
   sodipodi:docname="dialog-scripts.svg"
   inkscape:version="1.2.2 (b0a8486541, 2022-12-01)"
   xmlns:inkscape="http://www.inkscape.org/namespaces/inkscape"
   xmlns:sodipodi="http://sodipodi.sourceforge.net/DTD/sodipodi-0.dtd"
   xmlns="http://www.w3.org/2000/svg"
   xmlns:svg="http://www.w3.org/2000/svg"><defs
     id="defs8" /><sodipodi:namedview
     id="namedview6"
     pagecolor="#ffffff"
     bordercolor="#000000"
     borderopacity="0.25"
     inkscape:showpageshadow="false"
     inkscape:pageopacity="0.0"
     inkscape:pagecheckerboard="0"
     inkscape:deskcolor="#ffffff"
     showgrid="false"
     showborder="false"
     inkscape:zoom="1"
     inkscape:cx="8.5"
     inkscape:cy="11.5"
     inkscape:window-width="2560"
     inkscape:window-height="1367"
     inkscape:window-x="0"
     inkscape:window-y="0"
     inkscape:window-maximized="1"
     inkscape:current-layer="svg4"><inkscape:grid
       type="xygrid"
       id="grid284" /></sodipodi:namedview><path
     d="M 2,1 C 0.901,1 0,1.901 0,3 v 10 c 0,1.099 0.901,2 2,2 h 12 c 1.099,0 2,-0.901 2,-2 V 5.4004 C 16,5.28994 15.911238,5.19923 15.80078,5.19923 H 15.75781 C 15.33895,5.1986763 14.99945,5.53818 15,5.95704 v 7.043 c 0,0.558 -0.442,1 -1,1 H 2 c -0.558,0 -1,-0.442 -1,-1 v -10 c 0,-0.558 0.442,-1 1,-1 h 12 c 0.558,0 1,0.442 1,1 v 0.5 c 0,0.20837 0.3151,0.26953 0.78906,0.26953 C 16.00012,3.76957 16,3.6113 16,3.50004 v -0.5 c 0,-1.099 -0.902,-2 -2,-2 z m 2.5752658,3.09181 c -0.045017,0.011953 -0.086103,0.035527 -0.11914,0.068359 l -0.33203,0.33203 c -0.10322,0.10369 -0.10322,0.27131 0,0.375 l 2.5527,2.5508 c 0.049162,0.049046 0.049162,0.12869 0,0.17773 l -2.6523,2.6504 c -0.049162,0.04905 -0.049162,0.12869 0,0.17773 l 0.43164,0.43164 c 0.10369,0.10322 0.27131,0.10322 0.375,0 l 3.1602,-3.1602 c 0.10322,-0.10369 0.10322,-0.27131 0,-0.375 l -3.1602,-3.1602 C 4.7640838,4.093417 4.6666558,4.067385 4.5752758,4.09174 Z m 3.6083642,5.9082 c -0.10134,1.41e-4 -0.18345,0.08226 -0.18359,0.18359 v 0.60742 C 8.0001509,10.90639 8.093652,10.99989 8.20902,11 h 3.3359 c 0.2513,-7.4e-5 0.455,-0.20378 0.45508,-0.45508 V 10.21484 C 12.000397,10.09602 11.90398,9.9996 11.78516,10 Z"
     fill="#786d7d"
     style="-inkscape-stroke:none"
     id="path2"
     sodipodi:nodetypes="csssssssccsssssssssssscccccccccccccccccccccccccc" /></svg>
