<svg width="16" height="16" version="1.1" viewBox="0 0 16 16" xml:space="preserve" xmlns="http://www.w3.org/2000/svg"><defs><style id="current-color-scheme" type="text/css">
      .ColorScheme-Text {
        color:#232629;
      }
      </style><style type="text/css">
      .ColorScheme-Text {
        color:#232629;
      }
      </style><style type="text/css">.ColorScheme-Text {
        color:#232629;
      }
      .ColorScheme-NegativeText {
        color:#da4453;
      }</style></defs><path d="m7.9434 1.502c-1.244 0.0093637-2.4947 0.37447-3.5879 1.1152-0.075166 0.050929-0.091856 0.15268-0.039063 0.22656l0.056641 0.080078c0.23713 0.33182 0.69668 0.40394 1.0566 0.21289 1.9745-1.0478 4.3853-0.78745 6.0898 0.63672l-3.5195 3.5195-3.8887-3.8887c-0.19526-0.19519-0.51177-0.19519-0.70703 0-2.3772 2.3772-2.5475 6.1869-0.39062 8.7656 2.134 2.5514 5.8575 3.0748 8.6094 1.2266 0.04897-0.03289 0.060964-0.1001 0.027344-0.14844l-0.080079-0.11524c-0.23684-0.34065-0.70512-0.4192-1.0742-0.23047-1.9638 1.004-4.3344 0.72864-6.0156-0.67578l3.5195-3.5195 3.8887 3.8887c0.19526 0.19518 0.51177 0.19518 0.70703 0 2.3885-2.3885 2.547-6.2218 0.36328-8.7988-1.0919-1.2885-2.59-2.0493-4.1582-2.2441-0.28447-0.035351-0.57035-0.052942-0.85742-0.050781zm4.2832 2.9785c1.7071 2.0508 1.6227 4.9672-0.050781 6.9883l-3.4687-3.4688 3.5195-3.5195zm-8.4023 0.050781 3.4688 3.4688-3.5195 3.5195c-1.709-2.0527-1.6217-4.9682 0.050781-6.9883z" fill="#821313" style="-inkscape-stroke:none"/></svg>
