<svg width="16" height="16" version="1.1" viewBox="0 0 16 16" xml:space="preserve" xmlns="http://www.w3.org/2000/svg"><path d="m8.8008 1.5527c-1.5172-0.18854-3.0996 0.15259-4.4451 1.0643-0.075166 0.050929-0.092137 0.1538-0.039344 0.22768l0.057085 0.079881c0.23713 0.33182 0.69674 0.40336 1.0567 0.21231 2.2528-1.1955 5.0733-0.69014 6.7652 1.3065 1.7393 2.0526 1.6641 4.9921-0.019532 7.0254l-8.0645-8.0645c-0.19526-0.19519-0.51177-0.19519-0.70703 0-2.3772 2.3772-2.5475 6.1869-0.39062 8.7656 2.134 2.5514 5.8572 3.0745 8.6091 1.2263 0.04897-0.03289 0.06094-0.09947 0.02732-0.14781l-0.08062-0.11596c-0.23684-0.34065-0.7034-0.41935-1.0725-0.23062-2.2548 1.1528-5.0482 0.62111-6.7157-1.3725-1.7173-2.0532-1.6321-4.9748 0.042969-6.998l8.0645 8.0645c0.19526 0.19518 0.51177 0.19518 0.70703 0 2.3885-2.3885 2.547-6.2218 0.36328-8.7988-1.0919-1.2885-2.59-2.0493-4.1582-2.2441z" color="#000000" fill="#786d7d" stroke-linejoin="round" style="-inkscape-stroke:none"/></svg>
