<svg width="16" height="16" version="1.1" xml:space="preserve" xmlns="http://www.w3.org/2000/svg"><path d="m12.504 2.9844c-0.26884 0-0.53824 0.10038-0.74023 0.30273l-5.9102 5.9219a0.19147 0.19147 0 0 0 0.00195 0.27148l0.13086 0.13086a0.62499 0.62499 0 0 0 0.88281-0.0019531l5.6035-5.6152c0.02218-0.022217 0.04032-0.022217 0.0625 0l1.543 1.5469c0.02218 0.022218 0.02218 0.044188 0 0.066406l-7.2012 7.2168c-0.23525 0.23568-0.60068 0.23568-0.83594 0l-4.25-4.2578v-0.00195c-0.044322-0.043173-0.038541-0.014114 0.00586-0.058594l1.5449-1.5469c0.022178-0.022217 0.040323-0.022217 0.0625 0l1.4043 1.4062a0.1345 0.1345 0 0 0 0.19141-2.8e-6l0.20508-0.20508a0.57497 0.57497 0 0 0 0-0.8125l-1.0918-1.0957c-0.40398-0.40471-1.0765-0.4047-1.4805 0l-1.543 1.5469c-0.38029 0.38098-0.41257 1.0654-0.0078126 1.4727l4.252 4.2578c0.61706 0.61819 1.6329 0.61819 2.25 0l7.2031-7.2168c0.40398-0.40471 0.40398-1.0738 0-1.4785l-1.543-1.5469c-0.20199-0.20235-0.47139-0.30273-0.74024-0.30273zm-6.5684 6.3184a0.050736 0.04667 0 0 1 0.00781 0 0.050736 0.04667 0 0 1 0.00195 0 0.050736 0.04667 0 0 1 0.00195 0 0.050736 0.04667 0 0 1 0.00195 0 0.050736 0.04667 0 0 1 0.00586 0 0.050736 0.04667 0 0 1 0.00195 0.00195 0.050736 0.04667 0 0 1 0.00195 0 0.050736 0.04667 0 0 1 0.00195 0 0.050736 0.04667 0 0 1 0.00586 0.00195 0.050736 0.04667 0 0 1 0.00195 0.00195 0.050736 0.04667 0 0 1 0.00195 0.00195 0.050736 0.04667 0 0 1 0.00195 0 0.050736 0.04667 0 0 1 0.00195 0.00195 0.050736 0.04667 0 0 1 0.00195 0.00195 0.050736 0.04667 0 0 1 0.00195 0.00195 0.050736 0.04667 0 0 1 0.00195 0 0.050736 0.04667 0 0 1 0.00195 0.00195 0.050736 0.04667 0 0 1 0 0.00195 0.050736 0.04667 0 0 1 0.00195 0.00195 0.050736 0.04667 0 0 1 0.00195 0.00195 0.050736 0.04667 0 0 1 0 0.00195 0.050736 0.04667 0 0 1 0.00195 0.00195 0.050736 0.04667 0 0 1 0.00195 0.00195 0.050736 0.04667 0 0 1 0 0.00195 0.050736 0.04667 0 0 1 0.00195 0.00586 0.050736 0.04667 0 0 1 0 0.00195 0.050736 0.04667 0 0 1 0 0.00195 0.050736 0.04667 0 0 1 0 0.00195 0.050736 0.04667 0 0 1 0 0.00195 0.050736 0.04667 0 0 1 0 0.00391 0.050736 0.04667 0 0 1-0.048828 0.044922 0.050736 0.04667 0 0 1-0.050781-0.044922 0.050736 0.04667 0 0 1 0.042969-0.046875z" color="#000000" fill="#786d7d" style="-inkscape-stroke:none"/></svg>
