<?xml version="1.0" encoding="UTF-8" standalone="no"?>
<!-- Created with Inkscape (http://www.inkscape.org/) -->

<svg
   width="16"
   height="16"
   viewBox="0 0 16 16"
   version="1.1"
   id="svg1525"
   inkscape:version="1.2.2 (b0a8486541, 2022-12-01)"
   sodipodi:docname="distribute-horizontal-left.svg"
   xmlns:inkscape="http://www.inkscape.org/namespaces/inkscape"
   xmlns:sodipodi="http://sodipodi.sourceforge.net/DTD/sodipodi-0.dtd"
   xmlns="http://www.w3.org/2000/svg"
   xmlns:svg="http://www.w3.org/2000/svg">
  <sodipodi:namedview
     id="namedview1527"
     pagecolor="#ffffff"
     bordercolor="#000000"
     borderopacity="0.23921569"
     inkscape:showpageshadow="false"
     inkscape:pageopacity="0.0"
     inkscape:pagecheckerboard="0"
     inkscape:deskcolor="#ffffff"
     inkscape:document-units="px"
     showgrid="true"
     showborder="false"
     guidecolor="#1fca00"
     guideopacity="0.6"
     showguides="true"
     inkscape:zoom="42.603867"
     inkscape:cx="3.2156705"
     inkscape:cy="7.8279279"
     inkscape:window-width="2560"
     inkscape:window-height="1367"
     inkscape:window-x="0"
     inkscape:window-y="0"
     inkscape:window-maximized="1"
     inkscape:current-layer="layer1">
    <inkscape:grid
       type="xygrid"
       id="grid1656"
       empspacing="4"
       color="#0099e5"
       opacity="0.05882353"
       empcolor="#0099e5"
       empopacity="0.18039216"
       dotted="false" />
    <inkscape:grid
       type="xygrid"
       id="grid130"
       empspacing="1"
       spacingx="0.5"
       spacingy="0.5"
       empcolor="#0099e5"
       empopacity="0.05490196"
       color="#0099e5"
       opacity="0" />
  </sodipodi:namedview>
  <defs
     id="defs1522">
    <inkscape:path-effect
       effect="fillet_chamfer"
       id="path-effect715"
       is_visible="true"
       lpeversion="1"
       nodesatellites_param="F,0,1,1,0,0.25,0,1 @ F,0,1,1,0,0.25,0,1 @ F,0,1,1,0,0.25,0,1 @ F,0,0,1,0,0,0,1 @ F,0,0,1,0,0,0,1 @ F,0,1,1,0,0.25,0,1 @ F,0,1,1,0,0.25,0,1 @ F,0,1,1,0,0.25,0,1 @ F,0,1,1,0,0.25,0,1 @ F,0,0,1,0,0,0,1 @ F,0,0,1,0,0,0,1 @ F,0,1,1,0,0.25,0,1"
       unit="px"
       method="auto"
       mode="F"
       radius="0.25"
       chamfer_steps="1"
       flexible="false"
       use_knot_distance="true"
       apply_no_radius="true"
       apply_with_radius="true"
       only_selected="true"
       hide_knots="false" />
    <inkscape:path-effect
       effect="fillet_chamfer"
       id="path-effect1073"
       is_visible="true"
       lpeversion="1"
       nodesatellites_param="F,0,0,1,0,1.5,0,1 @ F,0,0,1,0,1.5,0,1 @ F,0,0,1,0,1.5,0,1 @ F,0,0,1,0,1.5,0,1"
       unit="px"
       method="auto"
       mode="F"
       radius="1.5"
       chamfer_steps="1"
       flexible="false"
       use_knot_distance="true"
       apply_no_radius="true"
       apply_with_radius="true"
       only_selected="false"
       hide_knots="false" />
    <inkscape:path-effect
       effect="fillet_chamfer"
       id="path-effect1071"
       is_visible="true"
       lpeversion="1"
       nodesatellites_param="F,0,0,1,0,1.5,0,1 @ F,0,0,1,0,1.5,0,1 @ F,0,0,1,0,1.5,0,1 @ F,0,0,1,0,1.5,0,1"
       unit="px"
       method="auto"
       mode="F"
       radius="1.5"
       chamfer_steps="1"
       flexible="false"
       use_knot_distance="true"
       apply_no_radius="true"
       apply_with_radius="true"
       only_selected="false"
       hide_knots="false" />
    <clipPath
       clipPathUnits="userSpaceOnUse"
       id="clipath_lpe_path-effect481">
      <circle
         style="display:none;fill:#c8c8c8;fill-opacity:1;stroke:none;stroke-width:0.1;stroke-linecap:square;stroke-miterlimit:4;stroke-dasharray:none;stroke-opacity:1"
         id="circle487"
         cx="-79"
         cy="120"
         r="8" />
    </clipPath>
    <inkscape:path-effect
       effect="powerclip"
       id="path-effect481"
       is_visible="true"
       lpeversion="1"
       inverse="true"
       flatten="false"
       hide_clip="false"
       message="Use fill-rule evenodd on &lt;b&gt;fill and stroke&lt;/b&gt; dialog if no flatten result after convert clip to paths." />
    <clipPath
       clipPathUnits="userSpaceOnUse"
       id="clipath_lpe_path-effect485">
      <rect
         style="display:block;fill:#c8c8c8;fill-opacity:1;stroke:none;stroke-width:0.2;stroke-linecap:square;stroke-miterlimit:4;stroke-dasharray:none;stroke-opacity:1"
         id="rect492"
         width="16"
         height="16"
         x="-87"
         y="112" />
    </clipPath>
    <inkscape:path-effect
       effect="powerclip"
       id="path-effect485"
       is_visible="true"
       lpeversion="1"
       inverse="true"
       flatten="false"
       hide_clip="false"
       message="Use fill-rule evenodd on &lt;b&gt;fill and stroke&lt;/b&gt; dialog if no flatten result after convert clip to paths." />
  </defs>
  <g
     inkscape:label="Layer 1"
     inkscape:groupmode="layer"
     id="layer1">
    <path
       id="path300"
       style="color:#000000;fill:#786d7d;stroke-linecap:square;-inkscape-stroke:none;paint-order:markers stroke fill"
       d="M 1.25 0 A 0.25 0.25 0 0 0 1 0.25 L 1 5.75 A 0.25 0.25 0 0 0 1.25 6 L 1.75 6 A 0.25 0.25 0 0 0 2 5.75 L 2 2 L 9 2 L 9 3.75 A 0.25 0.25 0 0 0 9.25 4 L 9.75 4 A 0.25 0.25 0 0 0 10 3.75 L 10 0.25 A 0.25 0.25 0 0 0 9.75 0 L 9.25 0 A 0.25 0.25 0 0 0 9 0.25 L 9 1 L 2 1 L 2 0.25 A 0.25 0.25 0 0 0 1.75 0 L 1.25 0 z M 11 5 C 9.901355 5 9 5.901355 9 7 L 9 13 C 9 14.098645 9.901355 15 11 15 L 13 15 C 14.098645 15 15 14.098645 15 13 L 15 7 C 15 5.901355 14.098645 5 13 5 L 11 5 z M 11 6 L 13 6 C 13.558206 6 14 6.4417941 14 7 L 14 13 C 14 13.558206 13.558206 14 13 14 L 11 14 C 10.441794 14 10 13.558206 10 13 L 10 7 C 10 6.4417941 10.441794 6 11 6 z M 3 7 C 1.901355 7 1 7.901355 1 9 L 1 13 C 1 14.098645 1.901355 15 3 15 L 5 15 C 6.098645 15 7 14.098645 7 13 L 7 9 C 7 7.901355 6.098645 7 5 7 L 3 7 z M 3 8 L 5 8 C 5.5582059 8 6 8.4417941 6 9 L 6 13 C 6 13.558206 5.5582059 14 5 14 L 3 14 C 2.4417941 14 2 13.558206 2 13 L 2 9 C 2 8.4417941 2.4417941 8 3 8 z " />
  </g>
</svg>
