<svg width="16" height="16" version="1.1" viewBox="0 0 16 16" xmlns="http://www.w3.org/2000/svg">
 <path d="m2 3c-1.0986 0-2 0.90136-2 2v6c0 1.0986 0.90136 2 2 2h1c1.0986 0 2-0.90136 2-2v-6c0-1.0986-0.90136-2-2-2zm11 0c-1.0986 0-2 0.90136-2 2v6c0 1.0986 0.90136 2 2 2h1c1.0986 0 2-0.90136 2-2v-6c0-1.0986-0.90136-2-2-2zm-11 1h1c0.55821 0 1 0.44179 1 1v6c0 0.5582-0.44179 1-1 1h-1c-0.55821 0-1-0.4418-1-1v-6c0-0.55821 0.44179-1 1-1zm11 0h1c0.5582 0 1 0.44179 1 1v6c0 0.5582-0.4418 1-1 1h-1c-0.5582 0-1-0.4418-1-1v-6c0-0.55821 0.4418-1 1-1zm-6.75 2c-0.13807 0-0.25 0.11193-0.25 0.25v3.5c0 0.13807 0.11193 0.25 0.25 0.25h0.5c0.13807 0 0.25-0.11193 0.25-0.25v-0.75h2v0.75c0 0.13807 0.11193 0.25 0.25 0.25h0.5c0.13807 0 0.25-0.11193 0.25-0.25v-3.5c0-0.13807-0.11193-0.25-0.25-0.25h-0.5c-0.13807 0-0.25 0.11193-0.25 0.25v1.75h-2v-1.75c0-0.13807-0.11193-0.25-0.25-0.25z" color="#000000" fill="#786d7d" stroke-linecap="square" style="-inkscape-stroke:none;paint-order:markers stroke fill"/>
 <path d="m6.5 6.5v3" color="#000000" fill-opacity=".32549" stroke-linecap="square" style="-inkscape-stroke:none;paint-order:markers stroke fill"/>
 <path d="m9.5 6.5v3" color="#000000" fill-opacity=".32549" stroke-linecap="square" style="-inkscape-stroke:none;paint-order:markers stroke fill"/>
</svg>
