<?xml version="1.0" encoding="UTF-8" standalone="no"?>
<!-- Created with Inkscape (http://www.inkscape.org/) -->

<svg
   width="16"
   height="16"
   viewBox="0 0 16 16"
   version="1.1"
   id="svg1525"
   inkscape:version="1.2.2 (b0a8486541, 2022-12-01)"
   sodipodi:docname="distribute-horizontal-margin.svg"
   xmlns:inkscape="http://www.inkscape.org/namespaces/inkscape"
   xmlns:sodipodi="http://sodipodi.sourceforge.net/DTD/sodipodi-0.dtd"
   xmlns="http://www.w3.org/2000/svg"
   xmlns:svg="http://www.w3.org/2000/svg">
  <sodipodi:namedview
     id="namedview1527"
     pagecolor="#ffffff"
     bordercolor="#000000"
     borderopacity="0.23921569"
     inkscape:showpageshadow="false"
     inkscape:pageopacity="0.0"
     inkscape:pagecheckerboard="0"
     inkscape:deskcolor="#ffffff"
     inkscape:document-units="px"
     showgrid="false"
     showborder="false"
     guidecolor="#1fca00"
     guideopacity="0.6"
     showguides="true"
     inkscape:zoom="64"
     inkscape:cx="7.046875"
     inkscape:cy="7.3046875"
     inkscape:window-width="2560"
     inkscape:window-height="1367"
     inkscape:window-x="0"
     inkscape:window-y="0"
     inkscape:window-maximized="1"
     inkscape:current-layer="svg1525">
    <inkscape:grid
       type="xygrid"
       id="grid1656"
       empspacing="4"
       color="#0099e5"
       opacity="0.05882353"
       empcolor="#0099e5"
       empopacity="0.18039216"
       dotted="false" />
    <inkscape:grid
       type="xygrid"
       id="grid130"
       empspacing="1"
       spacingx="0.5"
       spacingy="0.5"
       empcolor="#0099e5"
       empopacity="0.05490196"
       color="#0099e5"
       opacity="0" />
  </sodipodi:namedview>
  <defs
     id="defs1522">
    <inkscape:path-effect
       effect="fillet_chamfer"
       id="path-effect536"
       is_visible="true"
       lpeversion="1"
       nodesatellites_param="F,0,0,1,0,0,0,1 @ F,0,1,1,0,0.25,0,1 @ F,0,1,1,0,0.25,0,1 @ F,0,0,1,0,0,0,1"
       unit="px"
       method="auto"
       mode="F"
       radius="0.25"
       chamfer_steps="1"
       flexible="false"
       use_knot_distance="true"
       apply_no_radius="true"
       apply_with_radius="true"
       only_selected="true"
       hide_knots="false" />
    <inkscape:path-effect
       effect="fillet_chamfer"
       id="path-effect532"
       is_visible="true"
       lpeversion="1"
       nodesatellites_param="F,0,1,1,0,0,0,1 @ F,0,1,1,0,0,0,1 @ F,0,1,1,0,0,0,1 @ F,0,1,1,0,0,0,1"
       unit="px"
       method="auto"
       mode="F"
       radius="0"
       chamfer_steps="1"
       flexible="false"
       use_knot_distance="true"
       apply_no_radius="true"
       apply_with_radius="true"
       only_selected="true"
       hide_knots="false" />
    <inkscape:path-effect
       effect="fillet_chamfer"
       id="path-effect528"
       is_visible="true"
       lpeversion="1"
       nodesatellites_param="F,0,1,1,0,0,0,1 @ F,0,1,1,0,0,0,1 @ F,0,1,1,0,0,0,1 @ F,0,1,1,0,0,0,1"
       unit="px"
       method="auto"
       mode="F"
       radius="0"
       chamfer_steps="1"
       flexible="false"
       use_knot_distance="true"
       apply_no_radius="true"
       apply_with_radius="true"
       only_selected="true"
       hide_knots="false" />
    <inkscape:path-effect
       effect="fillet_chamfer"
       id="path-effect524"
       is_visible="true"
       lpeversion="1"
       nodesatellites_param="F,0,0,1,0,0.25,0,1 @ F,0,1,1,0,0,0,1 @ F,0,1,1,0,0,0,1 @ F,0,0,1,0,0.25,0,1"
       unit="px"
       method="auto"
       mode="F"
       radius="0"
       chamfer_steps="1"
       flexible="false"
       use_knot_distance="true"
       apply_no_radius="true"
       apply_with_radius="true"
       only_selected="true"
       hide_knots="false" />
    <inkscape:path-effect
       effect="fillet_chamfer"
       id="path-effect520"
       is_visible="true"
       lpeversion="1"
       nodesatellites_param="F,0,0,1,0,0.25,0,1 @ F,0,1,1,0,0.25,0,1 @ F,0,1,1,0,0.25,0,1 @ F,0,0,1,0,0.25,0,1"
       unit="px"
       method="auto"
       mode="F"
       radius="0.25"
       chamfer_steps="1"
       flexible="false"
       use_knot_distance="true"
       apply_no_radius="true"
       apply_with_radius="true"
       only_selected="true"
       hide_knots="false" />
    <inkscape:path-effect
       effect="fillet_chamfer"
       id="path-effect504"
       is_visible="true"
       lpeversion="1"
       nodesatellites_param="F,0,0,1,0,0,0,1 @ F,0,1,1,0,0.25,0,1 @ F,0,1,1,0,0.25,0,1 @ F,0,0,1,0,0,0,1"
       unit="px"
       method="auto"
       mode="F"
       radius="0.25"
       chamfer_steps="1"
       flexible="false"
       use_knot_distance="true"
       apply_no_radius="true"
       apply_with_radius="true"
       only_selected="true"
       hide_knots="false" />
    <inkscape:path-effect
       effect="fillet_chamfer"
       id="path-effect498"
       is_visible="true"
       lpeversion="1"
       nodesatellites_param="F,0,1,1,0,0,0,1 @ F,0,1,1,0,0,0,1 @ F,0,1,1,0,0,0,1 @ F,0,1,1,0,0,0,1"
       unit="px"
       method="auto"
       mode="F"
       radius="0"
       chamfer_steps="1"
       flexible="false"
       use_knot_distance="true"
       apply_no_radius="true"
       apply_with_radius="true"
       only_selected="true"
       hide_knots="false" />
    <inkscape:path-effect
       effect="fillet_chamfer"
       id="path-effect492"
       is_visible="true"
       lpeversion="1"
       nodesatellites_param="F,0,1,1,0,0,0,1 @ F,0,1,1,0,0,0,1 @ F,0,1,1,0,0,0,1 @ F,0,1,1,0,0,0,1"
       unit="px"
       method="auto"
       mode="F"
       radius="0"
       chamfer_steps="1"
       flexible="false"
       use_knot_distance="true"
       apply_no_radius="true"
       apply_with_radius="true"
       only_selected="true"
       hide_knots="false" />
    <inkscape:path-effect
       effect="fillet_chamfer"
       id="path-effect486"
       is_visible="true"
       lpeversion="1"
       nodesatellites_param="F,0,1,1,0,0.75,0,1 @ F,0,0,1,0,0.25,0,1 @ F,0,1,1,0,0.75,0,1 @ F,0,0,1,0,0.25,0,1"
       unit="px"
       method="auto"
       mode="F"
       radius="0.75"
       chamfer_steps="1"
       flexible="false"
       use_knot_distance="true"
       apply_no_radius="true"
       apply_with_radius="true"
       only_selected="true"
       hide_knots="false" />
    <inkscape:path-effect
       effect="fillet_chamfer"
       id="path-effect480"
       is_visible="true"
       lpeversion="1"
       nodesatellites_param="F,0,1,1,0,0.75,0,1 @ F,0,0,1,0,0.25,0,1 @ F,0,1,1,0,0.75,0,1 @ F,0,0,1,0,0.25,0,1"
       unit="px"
       method="auto"
       mode="F"
       radius="0.75"
       chamfer_steps="1"
       flexible="false"
       use_knot_distance="true"
       apply_no_radius="true"
       apply_with_radius="true"
       only_selected="true"
       hide_knots="false" />
    <inkscape:path-effect
       effect="fillet_chamfer"
       id="path-effect474"
       is_visible="true"
       lpeversion="1"
       nodesatellites_param="F,0,1,1,0,0.75,0,1 @ F,0,0,1,0,0.25,0,1 @ F,0,1,1,0,0.75,0,1 @ F,0,0,1,0,0.25,0,1"
       unit="px"
       method="auto"
       mode="F"
       radius="0.75"
       chamfer_steps="1"
       flexible="false"
       use_knot_distance="true"
       apply_no_radius="true"
       apply_with_radius="true"
       only_selected="true"
       hide_knots="false" />
    <inkscape:path-effect
       effect="fillet_chamfer"
       id="path-effect466"
       is_visible="true"
       lpeversion="1"
       nodesatellites_param="F,0,0,1,0,0.25,0,1 @ F,0,1,1,0,0,0,1 @ F,0,1,1,0,0,0,1 @ F,0,0,1,0,0.25,0,1"
       unit="px"
       method="auto"
       mode="F"
       radius="0"
       chamfer_steps="1"
       flexible="false"
       use_knot_distance="true"
       apply_no_radius="true"
       apply_with_radius="true"
       only_selected="true"
       hide_knots="false" />
    <inkscape:path-effect
       effect="fillet_chamfer"
       id="path-effect464"
       is_visible="true"
       lpeversion="1"
       nodesatellites_param="F,0,0,1,0,0.25,0,1 @ F,0,1,1,0,0.25,0,1 @ F,0,1,1,0,0.25,0,1 @ F,0,0,1,0,0.25,0,1"
       unit="px"
       method="auto"
       mode="F"
       radius="0.25"
       chamfer_steps="1"
       flexible="false"
       use_knot_distance="true"
       apply_no_radius="true"
       apply_with_radius="true"
       only_selected="true"
       hide_knots="false" />
    <inkscape:path-effect
       effect="fillet_chamfer"
       id="path-effect2275"
       is_visible="true"
       lpeversion="1"
       nodesatellites_param="F,0,0,1,0,2,0,1 @ F,0,0,1,0,2,0,1 @ F,0,0,1,0,2,0,1 @ F,0,0,1,0,2,0,1"
       unit="px"
       method="auto"
       mode="F"
       radius="2"
       chamfer_steps="1"
       flexible="false"
       use_knot_distance="true"
       apply_no_radius="true"
       apply_with_radius="true"
       only_selected="false"
       hide_knots="false" />
    <inkscape:path-effect
       effect="fillet_chamfer"
       id="path-effect1073"
       is_visible="true"
       lpeversion="1"
       nodesatellites_param="F,0,0,1,0,1.5,0,1 @ F,0,0,1,0,1.5,0,1 @ F,0,0,1,0,1.5,0,1 @ F,0,0,1,0,1.5,0,1"
       unit="px"
       method="auto"
       mode="F"
       radius="1.5"
       chamfer_steps="1"
       flexible="false"
       use_knot_distance="true"
       apply_no_radius="true"
       apply_with_radius="true"
       only_selected="false"
       hide_knots="false" />
    <inkscape:path-effect
       effect="fillet_chamfer"
       id="path-effect1071"
       is_visible="true"
       lpeversion="1"
       nodesatellites_param="F,0,0,1,0,1.5,0,1 @ F,0,0,1,0,1.5,0,1 @ F,0,0,1,0,1.5,0,1 @ F,0,0,1,0,1.5,0,1"
       unit="px"
       method="auto"
       mode="F"
       radius="1.5"
       chamfer_steps="1"
       flexible="false"
       use_knot_distance="true"
       apply_no_radius="true"
       apply_with_radius="true"
       only_selected="false"
       hide_knots="false" />
    <clipPath
       clipPathUnits="userSpaceOnUse"
       id="clipath_lpe_path-effect481">
      <circle
         style="display:none;fill:#c8c8c8;fill-opacity:1;stroke:none;stroke-width:0.1;stroke-linecap:square;stroke-miterlimit:4;stroke-dasharray:none;stroke-opacity:1"
         id="circle487"
         cx="-79"
         cy="120"
         r="8" />
    </clipPath>
    <inkscape:path-effect
       effect="powerclip"
       id="path-effect481"
       is_visible="true"
       lpeversion="1"
       inverse="true"
       flatten="false"
       hide_clip="false"
       message="Use fill-rule evenodd on &lt;b&gt;fill and stroke&lt;/b&gt; dialog if no flatten result after convert clip to paths." />
    <clipPath
       clipPathUnits="userSpaceOnUse"
       id="clipath_lpe_path-effect485">
      <rect
         style="display:block;fill:#c8c8c8;fill-opacity:1;stroke:none;stroke-width:0.2;stroke-linecap:square;stroke-miterlimit:4;stroke-dasharray:none;stroke-opacity:1"
         id="rect492"
         width="16"
         height="16"
         x="-87"
         y="112" />
    </clipPath>
    <inkscape:path-effect
       effect="powerclip"
       id="path-effect485"
       is_visible="true"
       lpeversion="1"
       inverse="true"
       flatten="false"
       hide_clip="false"
       message="Use fill-rule evenodd on &lt;b&gt;fill and stroke&lt;/b&gt; dialog if no flatten result after convert clip to paths." />
  </defs>
  <path
     id="path300"
     style="color:#000000;fill:#786d7d;stroke-linecap:square;-inkscape-stroke:none;paint-order:markers stroke fill"
     d="M 0.25 1 A 0.25 0.25 0 0 0 0 1.25 L 0 3 L 1 3 L 1 1.25 A 0.25 0.25 0 0 0 0.75 1 L 0.25 1 z M 15.25 1 A 0.25 0.25 0 0 0 15 1.25 L 15 3 L 16 3 L 16 1.25 A 0.25 0.25 0 0 0 15.75 1 L 15.25 1 z M 11 3 C 9.901355 3 9 3.901355 9 5 L 9 11 C 9 12.098645 9.901355 13 11 13 L 12 13 C 13.098645 13 14 12.098645 14 11 L 14 5 C 14 3.901355 13.098645 3 12 3 L 11 3 z M 4 4 C 2.901355 4 2 4.901355 2 6 L 2 10 C 2 11.098645 2.901355 12 4 12 L 5 12 C 6.098645 12 7 11.098645 7 10 L 7 6 C 7 4.901355 6.098645 4 5 4 L 4 4 z M 11 4 L 12 4 C 12.558206 4 13 4.4417941 13 5 L 13 11 C 13 11.558206 12.558206 12 12 12 L 11 12 C 10.441794 12 10 11.558206 10 11 L 10 5 C 10 4.4417941 10.441794 4 11 4 z M 0 5 L 0 7 L 1 7 L 1 5 L 0 5 z M 4 5 L 5 5 C 5.5582059 5 6 5.4417941 6 6 L 6 10 C 6 10.558206 5.5582059 11 5 11 L 4 11 C 3.4417941 11 3 10.558206 3 10 L 3 6 C 3 5.4417941 3.4417941 5 4 5 z M 15 5 L 15 7 L 16 7 L 16 5 L 15 5 z M 0 9 L 0 11 L 1 11 L 1 9 L 0 9 z M 15 9 L 15 11 L 16 11 L 16 9 L 15 9 z M 0 13 L 0 14.75 A 0.25 0.25 0 0 0 0.25 15 L 0.75 15 A 0.25 0.25 0 0 0 1 14.75 L 1 13 L 0 13 z M 15 13 L 15 14.75 A 0.25 0.25 0 0 0 15.25 15 L 15.75 15 A 0.25 0.25 0 0 0 16 14.75 L 16 13 L 15 13 z " />
  <path
     id="path2666"
     style="color:#000000;fill:#786d7d;fill-opacity:0.332046;stroke-linecap:square;-inkscape-stroke:none;paint-order:markers stroke fill"
     d="M 0.25 1 A 0.25 0.25 0 0 0 0 1.25 L 0 14.75 A 0.25 0.25 0 0 0 0.25 15 L 0.75 15 A 0.25 0.25 0 0 0 1 14.75 L 1 1.25 A 0.25 0.25 0 0 0 0.75 1 L 0.25 1 z M 15.25 1 A 0.25 0.25 0 0 0 15 1.25 L 15 14.75 A 0.25 0.25 0 0 0 15.25 15 L 15.75 15 A 0.25 0.25 0 0 0 16 14.75 L 16 1.25 A 0.25 0.25 0 0 0 15.75 1 L 15.25 1 z " />
</svg>
