<?xml version="1.0" encoding="UTF-8" standalone="no"?>
<!-- Created with Inkscape (http://www.inkscape.org/) -->

<svg
   width="16"
   height="16"
   viewBox="0 0 16 16"
   version="1.1"
   id="svg1525"
   inkscape:version="1.2.2 (b0a8486541, 2022-12-01)"
   sodipodi:docname="distribute-vertical-margin.svg"
   xmlns:inkscape="http://www.inkscape.org/namespaces/inkscape"
   xmlns:sodipodi="http://sodipodi.sourceforge.net/DTD/sodipodi-0.dtd"
   xmlns="http://www.w3.org/2000/svg"
   xmlns:svg="http://www.w3.org/2000/svg">
  <sodipodi:namedview
     id="namedview1527"
     pagecolor="#ffffff"
     bordercolor="#000000"
     borderopacity="0.23921569"
     inkscape:showpageshadow="false"
     inkscape:pageopacity="0.0"
     inkscape:pagecheckerboard="0"
     inkscape:deskcolor="#ffffff"
     inkscape:document-units="px"
     showgrid="true"
     showborder="false"
     guidecolor="#1fca00"
     guideopacity="0.6"
     showguides="true"
     inkscape:zoom="45.254834"
     inkscape:cx="-0.75130095"
     inkscape:cy="7.5461552"
     inkscape:window-width="2560"
     inkscape:window-height="1367"
     inkscape:window-x="0"
     inkscape:window-y="0"
     inkscape:window-maximized="1"
     inkscape:current-layer="svg1525">
    <inkscape:grid
       type="xygrid"
       id="grid1656"
       empspacing="4"
       color="#0099e5"
       opacity="0.05882353"
       empcolor="#0099e5"
       empopacity="0.18039216"
       dotted="false" />
    <inkscape:grid
       type="xygrid"
       id="grid130"
       empspacing="1"
       spacingx="0.5"
       spacingy="0.5"
       empcolor="#0099e5"
       empopacity="0.05490196"
       color="#0099e5"
       opacity="0" />
  </sodipodi:namedview>
  <defs
     id="defs1522">
    <inkscape:path-effect
       effect="fillet_chamfer"
       id="path-effect468"
       is_visible="true"
       lpeversion="1"
       nodesatellites_param="F,0,0,1,0,0,0,1 @ F,0,0,1,0,0,0,1 @ F,0,1,1,0,0.25,0,1 @ F,0,1,1,0,0.25,0,1"
       unit="px"
       method="auto"
       mode="F"
       radius="0.25"
       chamfer_steps="1"
       flexible="false"
       use_knot_distance="true"
       apply_no_radius="true"
       apply_with_radius="true"
       only_selected="true"
       hide_knots="false" />
    <inkscape:path-effect
       effect="fillet_chamfer"
       id="path-effect464"
       is_visible="true"
       lpeversion="1"
       nodesatellites_param="F,0,1,1,0,0.25,0,1 @ F,0,1,1,0,0.25,0,1 @ F,0,0,1,0,0,0,1 @ F,0,0,1,0,0,0,1"
       unit="px"
       method="auto"
       mode="F"
       radius="0.25"
       chamfer_steps="1"
       flexible="false"
       use_knot_distance="true"
       apply_no_radius="true"
       apply_with_radius="true"
       only_selected="true"
       hide_knots="false" />
    <inkscape:path-effect
       effect="fillet_chamfer"
       id="path-effect460"
       is_visible="true"
       lpeversion="1"
       nodesatellites_param="F,0,0,1,0,0.25,0,1 @ F,0,0,1,0,0.25,0,1 @ F,0,1,1,0,0.25,0,1 @ F,0,1,1,0,0.25,0,1"
       unit="px"
       method="auto"
       mode="F"
       radius="0.25"
       chamfer_steps="1"
       flexible="false"
       use_knot_distance="true"
       apply_no_radius="true"
       apply_with_radius="true"
       only_selected="true"
       hide_knots="false" />
    <inkscape:path-effect
       effect="fillet_chamfer"
       id="path-effect438"
       is_visible="true"
       lpeversion="1"
       nodesatellites_param="F,0,1,1,0,0.25,0,1 @ F,0,1,1,0,0.25,0,1 @ F,0,1,1,0,0.25,0,1 @ F,0,1,1,0,0.25,0,1"
       unit="px"
       method="auto"
       mode="F"
       radius="0.25"
       chamfer_steps="1"
       flexible="false"
       use_knot_distance="true"
       apply_no_radius="true"
       apply_with_radius="true"
       only_selected="true"
       hide_knots="false" />
    <inkscape:path-effect
       effect="fillet_chamfer"
       id="path-effect436"
       is_visible="true"
       lpeversion="1"
       nodesatellites_param="F,0,0,1,0,0,0,1 @ F,0,0,1,0,0,0,1 @ F,0,1,1,0,0.25,0,1 @ F,0,1,1,0,0.25,0,1"
       unit="px"
       method="auto"
       mode="F"
       radius="0.25"
       chamfer_steps="1"
       flexible="false"
       use_knot_distance="true"
       apply_no_radius="true"
       apply_with_radius="true"
       only_selected="true"
       hide_knots="false" />
    <inkscape:path-effect
       effect="fillet_chamfer"
       id="path-effect434"
       is_visible="true"
       lpeversion="1"
       nodesatellites_param="F,0,1,1,0,0.25,0,1 @ F,0,1,1,0,0.25,0,1 @ F,0,0,1,0,0,0,1 @ F,0,0,1,0,0,0,1"
       unit="px"
       method="auto"
       mode="F"
       radius="0.25"
       chamfer_steps="1"
       flexible="false"
       use_knot_distance="true"
       apply_no_radius="true"
       apply_with_radius="true"
       only_selected="true"
       hide_knots="false" />
    <inkscape:path-effect
       effect="fillet_chamfer"
       id="path-effect2275"
       is_visible="true"
       lpeversion="1"
       nodesatellites_param="F,0,0,1,0,2,0,1 @ F,0,0,1,0,2,0,1 @ F,0,0,1,0,2,0,1 @ F,0,0,1,0,2,0,1"
       unit="px"
       method="auto"
       mode="F"
       radius="2"
       chamfer_steps="1"
       flexible="false"
       use_knot_distance="true"
       apply_no_radius="true"
       apply_with_radius="true"
       only_selected="false"
       hide_knots="false" />
    <inkscape:path-effect
       effect="fillet_chamfer"
       id="path-effect1073"
       is_visible="true"
       lpeversion="1"
       nodesatellites_param="F,0,0,1,0,1.5,0,1 @ F,0,0,1,0,1.5,0,1 @ F,0,0,1,0,1.5,0,1 @ F,0,0,1,0,1.5,0,1"
       unit="px"
       method="auto"
       mode="F"
       radius="1.5"
       chamfer_steps="1"
       flexible="false"
       use_knot_distance="true"
       apply_no_radius="true"
       apply_with_radius="true"
       only_selected="false"
       hide_knots="false" />
    <inkscape:path-effect
       effect="fillet_chamfer"
       id="path-effect1071"
       is_visible="true"
       lpeversion="1"
       nodesatellites_param="F,0,0,1,0,1.5,0,1 @ F,0,0,1,0,1.5,0,1 @ F,0,0,1,0,1.5,0,1 @ F,0,0,1,0,1.5,0,1"
       unit="px"
       method="auto"
       mode="F"
       radius="1.5"
       chamfer_steps="1"
       flexible="false"
       use_knot_distance="true"
       apply_no_radius="true"
       apply_with_radius="true"
       only_selected="false"
       hide_knots="false" />
    <clipPath
       clipPathUnits="userSpaceOnUse"
       id="clipath_lpe_path-effect481">
      <circle
         style="display:none;fill:#c8c8c8;fill-opacity:1;stroke:none;stroke-width:0.1;stroke-linecap:square;stroke-miterlimit:4;stroke-dasharray:none;stroke-opacity:1"
         id="circle487"
         cx="-79"
         cy="120"
         r="8" />
    </clipPath>
    <inkscape:path-effect
       effect="powerclip"
       id="path-effect481"
       is_visible="true"
       lpeversion="1"
       inverse="true"
       flatten="false"
       hide_clip="false"
       message="Use fill-rule evenodd on &lt;b&gt;fill and stroke&lt;/b&gt; dialog if no flatten result after convert clip to paths." />
    <clipPath
       clipPathUnits="userSpaceOnUse"
       id="clipath_lpe_path-effect485">
      <rect
         style="display:block;fill:#c8c8c8;fill-opacity:1;stroke:none;stroke-width:0.2;stroke-linecap:square;stroke-miterlimit:4;stroke-dasharray:none;stroke-opacity:1"
         id="rect492"
         width="16"
         height="16"
         x="-87"
         y="112" />
    </clipPath>
    <inkscape:path-effect
       effect="powerclip"
       id="path-effect485"
       is_visible="true"
       lpeversion="1"
       inverse="true"
       flatten="false"
       hide_clip="false"
       message="Use fill-rule evenodd on &lt;b&gt;fill and stroke&lt;/b&gt; dialog if no flatten result after convert clip to paths." />
  </defs>
  <path
     id="path300"
     style="color:#000000;fill:#786d7d;stroke-linecap:square;-inkscape-stroke:none;paint-order:markers stroke fill"
     d="M 1.25 0 A 0.25 0.25 0 0 0 1 0.25 L 1 0.75 A 0.25 0.25 0 0 0 1.25 1 L 3 1 L 3 0 L 1.25 0 z M 5 0 L 5 1 L 7 1 L 7 0 L 5 0 z M 9 0 L 9 1 L 11 1 L 11 0 L 9 0 z M 13 0 L 13 1 L 14.75 1 A 0.25 0.25 0 0 0 15 0.75 L 15 0.25 A 0.25 0.25 0 0 0 14.75 0 L 13 0 z M 6 2 C 4.901355 2 4 2.901355 4 4 L 4 5 C 4 6.098645 4.901355 7 6 7 L 10 7 C 11.098645 7 12 6.098645 12 5 L 12 4 C 12 2.901355 11.098645 2 10 2 L 6 2 z M 6 3 L 10 3 C 10.558206 3 11 3.4417941 11 4 L 11 5 C 11 5.5582059 10.558206 6 10 6 L 6 6 C 5.4417941 6 5 5.5582059 5 5 L 5 4 C 5 3.4417941 5.4417941 3 6 3 z M 5 9 C 3.901355 9 3 9.901355 3 11 L 3 12 C 3 13.098645 3.901355 14 5 14 L 11 14 C 12.098645 14 13 13.098645 13 12 L 13 11 C 13 9.901355 12.098645 9 11 9 L 5 9 z M 5 10 L 11 10 C 11.558206 10 12 10.441794 12 11 L 12 12 C 12 12.558206 11.558206 13 11 13 L 5 13 C 4.4417941 13 4 12.558206 4 12 L 4 11 C 4 10.441794 4.4417941 10 5 10 z M 1.25 15 A 0.25 0.25 0 0 0 1 15.25 L 1 15.75 A 0.25 0.25 0 0 0 1.25 16 L 3 16 L 3 15 L 1.25 15 z M 5 15 L 5 16 L 7 16 L 7 15 L 5 15 z M 9 15 L 9 16 L 11 16 L 11 15 L 9 15 z M 13 15 L 13 16 L 14.75 16 A 0.25 0.25 0 0 0 15 15.75 L 15 15.25 A 0.25 0.25 0 0 0 14.75 15 L 13 15 z " />
  <path
     id="path2666"
     style="color:#000000;fill:#786d7d;fill-opacity:0.332046;stroke-linecap:square;-inkscape-stroke:none;paint-order:markers stroke fill"
     d="M 1.25 0 A 0.25 0.25 0 0 0 1 0.25 L 1 0.75 A 0.25 0.25 0 0 0 1.25 1 L 14.75 1 A 0.25 0.25 0 0 0 15 0.75 L 15 0.25 A 0.25 0.25 0 0 0 14.75 0 L 1.25 0 z M 1.25 15 A 0.25 0.25 0 0 0 1 15.25 L 1 15.75 A 0.25 0.25 0 0 0 1.25 16 L 14.75 16 A 0.25 0.25 0 0 0 15 15.75 L 15 15.25 A 0.25 0.25 0 0 0 14.75 15 L 1.25 15 z " />
</svg>
