<svg width="16" height="16" version="1.1" viewBox="0 0 16 16" xmlns="http://www.w3.org/2000/svg">
 <path d="m4 0c-2.1973 0-4 1.8027-4 4 0 1.4164 0.75003 2.6677 1.8711 3.3789 0.24022 0.15239 0.33159 0.046382 0.24609-0.22461-0.073433-0.23274-0.11328-0.47883-0.11328-0.73438v-0.03125c0-0.076371-0.047182-0.18076-0.10156-0.23438-0.55748-0.5496-0.90234-1.3133-0.90234-2.1543 0-1.6568 1.3432-3 3-3s3 1.4545 3 3.1113c0 1.4834-1.3342 2.6256-2.2871 2.7988-0.034462 0.0062665-0.091906 0.0097657-0.12695 0.0097657h-0.03125c-0.030247 0-0.07932-6.384e-4 -0.10938-0.0039063-0.25043-0.027228-0.44531-0.23842-0.44531-0.49609v-2.1699c0-0.13807-0.11193-0.25-0.25-0.25h-0.5c-0.13807 0-0.25 0.11193-0.25 0.25v2.1699c0 0.80599 0.63624 1.463 1.4336 1.498 0.036955 0.0016233 0.095849 0.0019531 0.13281 0.0019531h0.033203c0.027921 0 0.071916-0.0023005 0.099609-0.0058594 1.688-0.21692 3.3008-1.8156 3.3008-3.9141 0-2.1973-1.8027-4-4-4zm3.7422 0c-0.41421 0-0.47566 0.19904-0.18555 0.49414 0.097865 0.099549 0.18988 0.2033 0.2793 0.31055 0.088408 0.10603 0.26818 0.19531 0.40625 0.19531h4.7578c0.5582 0 1 0.4418 1 1v6c0 0.55228-0.44772 1-1 1h-2c-1.0986 0-2 0.90136-2 2v2.75c0 0.13807 0.11193 0.25 0.25 0.25 0.41421 0 0.75-0.33579 0.75-0.75v-2.25c0-0.5582 0.4418-1 1-1h2c1.1046 0 2-0.89543 2-2v-6c0-1.0986-0.90136-2-2-2h-5.2578zm-4.6934 1.793c-0.14523-1e-7 -0.26172 0.11844-0.26172 0.26367v0.89453c0 0.14523 0.11649 0.26172 0.26172 0.26172h0.89062c0.14523 0 0.26172-0.11649 0.26172-0.26172v-0.89453c0-0.14523-0.11649-0.26367-0.26172-0.26367h-0.89062zm-0.9082 6.8633c-0.083142 0.0042487-0.14062 0.068322-0.14062 0.17188v5.1719c0 1.0986 0.90136 2 2 2h5.5c2.7775 0 5.0805-2.0732 5.4473-4.752 0.01874-0.13689-0.084586-0.24805-0.22266-0.24805h-0.001953c-0.41421 0-0.77977 0.33632-0.89258 0.73438-0.53484 1.8877-2.2676 3.2656-4.3301 3.2656h-5.5c-0.5582 0-1-0.4418-1-1v-4.8516c0-0.13807-0.11053-0.27191-0.24414-0.30664-0.17915-0.046573-0.35447-0.10249-0.52539-0.16797-0.03223-0.012348-0.06213-0.018994-0.089844-0.017578z" color="#000000" fill="#786d7d" stroke-linecap="square" style="-inkscape-stroke:none;paint-order:markers stroke fill"/>
</svg>
