<svg width="16" height="16" version="1.1" viewBox="0 0 16 16" xmlns="http://www.w3.org/2000/svg">
 <path d="m4 0c-2.1973 0-4 1.8027-4 4 0 1.4164 0.75002 2.6677 1.8711 3.3789 0.24022 0.15239 0.33159 0.046382 0.24609-0.22461-0.073433-0.23274-0.11328-0.47883-0.11328-0.73438v-0.03125c0-0.076371-0.047184-0.18076-0.10156-0.23438-0.55748-0.5496-0.90234-1.3133-0.90234-2.1543 0-1.6568 1.3432-3 3-3s3 1.4545 3 3.1113c0 1.4834-1.3342 2.6256-2.2871 2.7988-0.034462 0.00627-0.091909 0.00977-0.12695 0.00977h-0.03125c-0.030247 0-0.079315-6.347e-4 -0.10938-0.00391-0.25043-0.027228-0.44531-0.23842-0.44531-0.49609v-2.1699c0-0.13807-0.11193-0.25-0.25-0.25h-0.5c-0.13807 0-0.25 0.11193-0.25 0.25v2.1699c0 0.80599 0.63623 1.463 1.4336 1.498 0.036955 0.00162 0.095852 0.00195 0.13281 0.00195h0.033203c0.027921 0 0.071916-0.0023 0.099609-0.00586 1.688-0.21692 3.3008-1.8156 3.3008-3.9141 0-2.1973-1.8027-4-4-4zm3.7422 0c-0.41421 0-0.47566 0.19904-0.18555 0.49414 0.097865 0.099549 0.18988 0.2033 0.2793 0.31055 0.088408 0.10603 0.26818 0.19531 0.40625 0.19531h4.7578c0.5582 0 1 0.4418 1 1v11.996a1.0038 1.0038 135 0 1-1.0038 1.0038h-2.4867a0.50952 0.50952 135 0 0-0.50952 0.50952v0.31794a0.17254 0.17254 45 0 0 0.17254 0.17254h2.8097a2.0177 2.0177 135 0 0 2.0177-2.0177v-11.982c0-1.0986-0.90136-2-2-2zm-4.6934 1.793c-0.14523-1e-7 -0.26172 0.11844-0.26172 0.26367v0.89453c0 0.14523 0.11649 0.26172 0.26172 0.26172h0.89062c0.14523 0 0.26172-0.11649 0.26172-0.26172v-0.89453c0-0.14523-0.11649-0.26367-0.26172-0.26367zm5.9512 2.5119v0.39034a0.30483 0.30483 45 0 0 0.30483 0.30483h3.0421a0.65305 0.65305 135 0 0 0.65304-0.65305v-0.042124a0.30483 0.30483 45 0 0-0.30483-0.30483h-3.3903a0.30483 0.30483 135 0 0-0.30483 0.30483zm-1 3v0.042124a0.65305 0.65305 45 0 0 0.65305 0.65305h4.0421a0.30483 0.30483 135 0 0 0.30483-0.30483v-0.39034a0.30483 0.30483 45 0 0-0.30483-0.30483h-4.3903a0.30483 0.30483 135 0 0-0.30483 0.30483zm-6.8594 1.3514c-0.083142 0.0042487-0.14062 0.068317-0.14062 0.17188v5.1719c0 1.0986 0.90136 2 2 2h5.2802a0.71983 0.71983 135 0 0 0.71983-0.71983v-0.15719a0.12298 0.12298 45 0 0-0.12298-0.12298h-5.877c-0.5582 0-1-0.4418-1-1v-4.8516c0-0.13807-0.11053-0.27191-0.24414-0.30664-0.17915-0.046573-0.35447-0.10249-0.52539-0.16797-0.03223-0.012348-0.06213-0.018994-0.089844-0.017578zm6.8594 1.6486v0.04212a0.65305 0.65305 45 0 0 0.65305 0.65305h4.0421a0.30483 0.30483 135 0 0 0.30483-0.30483v-0.39034a0.30483 0.30483 45 0 0-0.30483-0.30483h-4.3903a0.30483 0.30483 135 0 0-0.30483 0.30483z" fill="#786d7d" style="-inkscape-stroke:none;paint-order:markers stroke fill"/>
</svg>
