<svg version="1.1" viewBox="0 0 16 16" xml:space="preserve" xmlns="http://www.w3.org/2000/svg"><defs><style id="current-color-scheme" type="text/css">.ColorScheme-Text {
        color:#232629;
      }</style><style type="text/css">.ColorScheme-Text {
        color:#232629;
      }</style></defs><path d="m5 0c-1.0986 0-2 0.90136-2 2v6.0625c5.177e-4 0.075292 0.061427 0.1362 0.13672 0.13672h0.4375c0.23519 9.1e-5 0.42587-0.19059 0.42578-0.42578v-5.7734c0-0.5582 0.4418-1 1-1h6c0.5582 0 1 0.4418 1 1v6.0703c7.41e-4 0.071647 0.05921 0.12924 0.13086 0.12891h0.32812c0.29825 5.188e-4 0.54046-0.24082 0.54102-0.53906v-5.6602c0-1.0986-0.90136-2-2-2zm-3 2c-1.0986 0-2 0.90135-2 2v9c0 0.64233 0.3077 1.2172 0.7832 1.584 0.10926 0.08427 0.22359 0.02911 0.24414-0.10742l0.10156-0.67187c0.02055-0.13653-0.029157-0.34058-0.074219-0.4707-0.036028-0.10404-0.054687-0.21663-0.054687-0.33398v-9c0-0.55821 0.44179-1 1-1h0.06932c0.054482 0 0.098459-0.044185 0.10048-0.098627 0.00729-0.1966 0.036157-0.3879 0.083011-0.57247 0.046903-0.18476-0.050011-0.3289-0.24075-0.3289zm11.832 2.1218v0.73754a0.14063 0.14063 45 0 0 0.14063 0.14063h0.027338c0.55821 0 1 0.44179 1 1v1.1973c0 0.16553 0.02662 0.33162 0.08008 0.48828l0.1582 0.45898c0.10504 0.30785 0.10214 0.64238-0.0059 0.94922l-0.15035 0.42773c-0.05491 0.15609-0.082031 0.32086-0.082031 0.48633v2.9922c0 0.55821-0.44179 1-1 1h-10c-0.55821 0-1-0.44179-1-1v-2.5c0-0.28206 0.21794-0.5 0.5-0.5h9c0.7727 0 1.5142-0.30713 2.0605-0.85352l0.11523-0.11523c0.09763-0.097631 0.09763-0.25589 0-0.35352-0.29286-0.29285-0.75552-0.27752-1.0898-0.033203-0.27492 0.20091-0.61231 0.35547-1.0859 0.35547h-9c-0.8225 0-1.5 0.6775-1.5 1.5v2.5c0 1.0986 0.90135 2 2 2h10c1.0986 0 2-0.90135 2-2v-7c0-1.0986-0.90135-2-2-2h-0.04614a0.12183 0.12183 135 0 0-0.12183 0.12183z" fill="#786d7d" style="-inkscape-stroke:none"/><path d="m2 2v1h3.5c0.55338 0 1.0942 0.16374 1.5547 0.4707l1.3359 0.89062c0.62463 0.41642 1.3587 0.63867 2.1094 0.63867h3.5c0.55821 0 1 0.44179 1 1v-1.7285c-0.29485-0.17192-0.63641-0.27148-1-0.27148h-3.5c-0.55338 0-1.0942-0.16374-1.5547-0.4707l-1.3359-0.89062c-0.62463-0.41642-1.3587-0.63867-2.1094-0.63867h-3.5z" fill="#786d7d" opacity=".25" style="-inkscape-stroke:none"/></svg>
