<svg width="16" height="16" version="1.1" viewBox="0 0 16 16" xmlns="http://www.w3.org/2000/svg">
 <g fill="#786d7d">
  <path d="m5 0c-0.68996 0-1.3009 0.35574-1.6602 0.89258-0.20456 0.30564 0.026986 0.60742 0.39648 0.60742h0.26367c0.07335 0 0.16252-0.053103 0.20703-0.11133 0.18151-0.2374 0.46648-0.38867 0.79297-0.38867h8c0.5582 0 1 0.4418 1 1v10c0 0.32649-0.15127 0.61146-0.38867 0.79297-0.058228 0.044518-0.11133 0.13368-0.11133 0.20703v0.5c0 0.23947 0.19152 0.38817 0.4043 0.2793 0.64816-0.33164 1.0957-1.0057 1.0957-1.7793v-10c0-1.0986-0.90136-2-2-2h-8zm-2 2c-1.0986 0-2 0.90136-2 2v10c0 1.0986 0.90136 2 2 2h4.5c2.7775 0 5.0805-2.0732 5.4473-4.752 0.01874-0.13689-0.084586-0.24805-0.22266-0.24805h-0.001953c-0.41421 0-0.77977 0.33632-0.89258 0.73438-0.53489 1.8877-2.2676 3.2656-4.3301 3.2656h-4.5c-0.5582 0-1-0.4418-1-1v-10c0-0.5582 0.4418-1 1-1h8c0.5582 0 1 0.4418 1 1v4a1 1 0 0 1-1 1h-2c-1.0986 0-2 0.90136-2 2v2.75a0.25 0.25 0 0 0 0.25 0.25 0.75 0.75 0 0 0 0.75-0.75v-2.25c0-0.5582 0.4418-1 1-1h2a2 2 0 0 0 2-2v-4c0-1.0986-0.90136-2-2-2h-8z" color="#000000" style="-inkscape-stroke:none"/>
  <g>
   <rect x="3" y="4" width="7" height="1" opacity=".5"/>
   <rect x="3" y="6" width="8" height="1" opacity=".5"/>
   <rect x="3" y="8" width="3" height="1" opacity=".5"/>
   <rect x="3" y="10" width="3" height="1" opacity=".5"/>
  </g>
 </g>
</svg>
