<svg width="16" height="16" version="1.1" viewBox="0 0 16 16" xml:space="preserve" xmlns="http://www.w3.org/2000/svg"><path d="m5.5 10c-0.831 0-1.5 0.669-1.5 1.5v2c0 0.831 0.669 1.5 1.5 1.5h1.8125c-0.88641-0.54815-1.6448-1.3045-2.166-2.25a1.042 1.038 0 0 0 0-0.001953c-0.25218-0.45859-0.25218-1.016 0-1.4746 0.27183-0.49396 0.61732-0.91311 0.99414-1.2734h-0.64062zm5.4961 0.86523c-0.002076 0.00185-0.00759 0.015429-0.011719 0.021485-0.008708 0.012771-0.014444 0.027073-0.025391 0.044922 0.011295-0.01365 0.022115-0.026612 0.027344-0.042969 0.001596-0.004994 0.006152-0.008695 0.007813-0.013672 0.005527-0.004451-0.024953 0.014219 0.001953-0.009766z" fill="#786d7d" fill-opacity=".2471" stroke-linecap="square" style="paint-order:markers stroke fill"/><path d="m5 1c-1.0986 0-2 0.90136-2 2v2.75c0 0.13807 0.11193 0.25 0.25 0.25 0.41421 0 0.75-0.33579 0.75-0.75v-2.25c0-0.55821 0.44179-1 1-1h6c0.5582 0 1 0.44179 1 1v2.25c0 0.41421 0.33579 0.75 0.75 0.75 0.13807 0 0.25-0.11193 0.25-0.25v-2.75c0-1.0986-0.90136-2-2-2zm-3 6c-1.0986 0-2 0.90136-2 2v3c0 1.0986 0.90136 2 2 2h0.75c0.13807 0 0.25-0.11193 0.25-0.25 0-0.41421-0.33579-0.75-0.75-0.75h-0.25c-0.55821 0-1-0.4418-1-1v-3c0-0.55821 0.44179-1 1-1h12c0.5582 0 1 0.44179 1 1v0.13672c0.36384 0.2724 0.69847 0.58485 1 0.92773v-1.0645c0-1.0986-0.90136-2-2-2zm3.5 3c-0.8225 0-1.5 0.6775-1.5 1.5v2c0 0.8225 0.6775 1.5 1.5 1.5h1.8125c-0.45313-0.28021-0.87286-0.61334-1.2441-1h-0.56836c-0.28206 0-0.5-0.21794-0.5-0.5v-1.1426c-0.052975-0.22816-0.052975-0.4652 0-0.69336v-0.16406c0-0.20024 0.11076-0.36669 0.27539-0.44727 0.24837-0.40025 0.54569-0.74718 0.86523-1.0527zm5.4961 0.86523c-0.0021 0.0019-0.0076 0.01543-0.01172 0.02149-0.0087 0.01277-0.01444 0.02707-0.02539 0.04492 0.0113-0.01365 0.02212-0.02661 0.02734-0.04297 0.0016-5e-3 0.0062-0.0087 0.0078-0.01367 0.0055-0.0045-0.02495 0.01422 2e-3 -0.0098z" color="#000000" fill="#786d7d" opacity=".4" stroke-linecap="square" style="-inkscape-stroke:none;paint-order:markers stroke fill"/><g transform="matrix(1.0002 0 0 .99634 5.8154 7.0215)" stroke-width="1.0017"><path d="m5.8104 1.9858c-0.11867-0.0011098-0.23773 0.0024688-0.35735 0.011762-1.3203 0.10256-1.9469 0.70418-2.1539 1.4349-0.26086 0.92113 0.16741 1.9123 1.0232 2.2916 0.71899 0.31862 1.5615 0.24444 2.2203-0.34501 0.3661-0.32761 0.53222-0.74419 0.58777-1.1095 0.017194-0.11307-0.073116-0.21005-0.18746-0.21563l-0.60535-0.029404c-0.064582-0.0031535-0.12278 0.026664-0.16208 0.074491a0.9998 1.0037 0 0 0 0.0078109-0.10586 0.9998 1.0037 0 0 0-0.98027-1.0037c0.099201-0.022846 0.20484-0.039677 0.31829-0.049007 1.4648-0.12046 2.6802 0.85803 3.4778 2.0603-0.81265 1.1897-2.3302 2.0086-3.8293 2.0073-1.4943-0.00125-2.9833-0.81639-3.7942-1.9975 0.25581-0.35563 0.56977-0.70618 0.93926-0.99975 0.24031-0.19093 0.33176-0.5293 0.17575-0.79392l-0.08592-0.14702c-0.076842-0.13034-0.24534-0.17338-0.37297-0.092134-0.69643 0.44336-1.3707 1.0309-1.7867 1.7897-0.081983 0.14966-0.081983 0.33061 0 0.48027 0.95114 1.7321 2.9538 2.7584 4.9248 2.7601 1.971 0.0017 3.9965-1.019 4.9521-2.7601 0.08198-0.14966 0.08198-0.33061 0-0.48027-0.87906-1.6016-2.5316-2.765-4.3116-2.7817z" color="#000000" fill="#786d7d" stroke-linejoin="round" stroke-width="1.0017" style="-inkscape-stroke:none"/></g></svg>
