<svg width="16" height="16" version="1.1" viewBox="0 0 16 16" xmlns="http://www.w3.org/2000/svg">
 <g fill="#786d7d" stroke-linecap="square">
  <path d="m7 1c-1.0986 0-2 0.90136-2 2v11c0 1.0986 0.90136 2 2 2h4.5c2.4714 0 4.0072-1.5499 4.4463-3.7514 0.01874-0.13689-0.012962-0.24856-0.29008-0.24856s-0.68676 0.34603-0.82697 0.73528c-0.43018 1.1943-1.4992 2.2647-3.3293 2.2647h-4.5c-0.55821 0-1-0.44179-1-1v-11c0-0.55821 0.44179-1 1-1h7c0.55821 0 1 0.44179 1 1v6c0 0.55228-0.44772 1-1 1h-1c-1.0986 0-2 0.90136-2 2v1.75c0 0.13807 0.11193 0.25 0.25 0.25 0.41421 0 0.75-0.33579 0.75-0.75v-1.25c0-0.55821 0.44179-1 1-1h1c1.1046 0 2-0.89543 2-2v-6c0-1.0986-0.90136-2-2-2z" color="#000000" opacity=".5" style="-inkscape-stroke:none;paint-order:markers stroke fill"/>
  <path d="m2 1c-1.0986 0-2 0.90136-2 2v11c0 1.0986 0.90136 2 2 2h2.5a0.15708 0.15708 119.53 0 0 0.13472-0.23786l-0.31436-0.52428a0.48968 0.48968 29.526 0 0-0.41997-0.23786h-1.9004c-0.55821 0-1-0.4418-1-1v-11c0-0.55821 0.44179-1 1-1h1.9004a0.48968 0.48968 150.47 0 0 0.41997-0.23786l0.31436-0.52428a0.15708 0.15708 60.474 0 0-0.13472-0.23786z" color="#000000" style="-inkscape-stroke:none;paint-order:markers stroke fill"/>
  <path d="m7 1c-1.0986 0-2 0.90136-2 2v11c0 1.0986 0.90136 2 2 2h4.5c2.4714 0 4.0072-1.5499 4.4463-3.7514 0.01874-0.13689-0.012962-0.24856-0.29008-0.24856s-0.68676 0.34603-0.82697 0.73528c-0.43018 1.1943-1.4992 2.2647-3.3293 2.2647h-4.5c-0.55821 0-1-0.44179-1-1v-11c0-0.55821 0.44179-1 1-1h7c0.55821 0 1 0.44179 1 1v6c0 0.55228-0.44772 1-1 1h-1c-1.0986 0-2 0.90136-2 2v1.75c0 0.13807 0.11193 0.25 0.25 0.25 0.41421 0 0.75-0.33579 0.75-0.75v-1.25c0-0.55821 0.44179-1 1-1h1c1.1046 0 2-0.89543 2-2v-6c0-1.0986-0.90136-2-2-2z" color="#000000" opacity=".6" style="-inkscape-stroke:none;paint-order:markers stroke fill"/>
  <path d="m9.9638 2.7317c0.023509 0.085104 0.036226 0.17495 0.036226 0.26834v6c0 0.55228-0.44772 1-1 1h-1c-0.42903 0-0.82719 0.13816-1.1537 0.37148-0.1761 0.12583-0.29548 0.43315-0.29548 0.64992v2.5781c0 0.18559 0.14762 0.27708 0.26785 0.1377 0.11287-0.13086 0.18136-0.3009 0.18136-0.48719v-1.25c0-0.5582 0.44179-1 1-1h1c1.1046 0 2-0.89543 2-2v-6c0-0.091362-0.0067-0.18135-0.01916-0.26957-0.0141-0.099943-0.11542-0.17965-0.21639-0.17965h-0.67595c-0.10713 0-0.15321 0.077772-0.12473 0.18087zm0.16984 9.5444c-0.13014 0.1275-0.24231 0.28834-0.30354 0.45833-0.19374 0.53788-0.5183 1.0512-0.98284 1.4526-0.18249 0.15768-0.15351 0.26224 0.087872 0.26224h0.73313c0.16057 0 0.37319-0.10097 0.46507-0.23262 0.06326-0.09065 0.12339-0.18413 0.18041-0.28032 0.07882-0.13296 0.1355-0.37019 0.1355-0.52478v-0.97023c0-0.21458-0.16308-0.31465-0.3156-0.16522z" color="#000000" opacity=".16" style="-inkscape-stroke:none;paint-order:markers stroke fill"/>
 </g>
</svg>
