<svg width="16" height="16" version="1.1" viewBox="0 0 16 16" xml:space="preserve" xmlns="http://www.w3.org/2000/svg"><path d="m2.4746 0c-0.26491 0.013342-0.47461 0.23166-0.47461 0.5 0 0.277 0.223 0.5 0.5 0.5s0.5-0.223 0.5-0.5-0.223-0.5-0.5-0.5c-0.0086562 0-0.016845-4.3039e-4 -0.025391 0zm2.207 0a0.68222 0.68222 0 0 0-0.68164 0.68164v0.074219a0.24432 0.24432 0 0 0 0.24414 0.24414h8.5957a0.16053 0.16053 0 0 0 0.16016-0.16016v-0.09375a0.74556 0.74556 0 0 0-0.74609-0.74609h-7.5723zm9.793 0c-0.26491 0.013342-0.47461 0.23166-0.47461 0.5 0 0.277 0.223 0.5 0.5 0.5s0.5-0.223 0.5-0.5-0.223-0.5-0.5-0.5c-0.008656 0-0.016845-4.3039e-4 -0.025391 0zm-11.793 2a0.68222 0.68222 0 0 0-0.68164 0.68164v10.441a0.8768 0.8768 0 0 0 0.87695 0.87695h0.039062a0.084009 0.084009 0 0 0 0.083984-0.083984v-11.672a0.24432 0.24432 0 0 0-0.24414-0.24414h-0.074219zm11.479 0a0.16053 0.16053 0 0 0-0.16016 0.16016v5.8398c0 0.55228-0.44772 1-1 1h-2c-1.0986 0-2 0.90136-2 2v2.75c0 0.13807 0.11193 0.25 0.25 0.25 0.41421 0 0.75-0.33579 0.75-0.75v-2.25c0-0.5582 0.4418-1 1-1h2c1.1046 0 2-0.89543 2-2v-5.2539a0.74556 0.74556 0 0 0-0.74609-0.74609h-0.09375zm0.49609 9c-0.27712 0-0.71337 0.33632-0.82617 0.73438-0.53494 1.8877-2.2676 3.2656-4.3301 3.2656h-5.416a0.084009 0.084009 0 0 0-0.083984 0.083984v0.039063a0.8768 0.8768 0 0 0 0.87695 0.87695h4.623c2.7775 0 5.0805-2.0732 5.4473-4.752 0.01874-0.13689-0.013897-0.24805-0.29102-0.24805zm-12.182 4c-0.26491 0.013342-0.47461 0.23166-0.47461 0.5 0 0.277 0.223 0.5 0.5 0.5s0.5-0.223 0.5-0.5-0.223-0.5-0.5-0.5c-0.0086562 0-0.016845-4.3e-4 -0.025391 0zm12 0c-0.26491 0.013342-0.47461 0.23166-0.47461 0.5 0 0.277 0.223 0.5 0.5 0.5s0.5-0.223 0.5-0.5-0.223-0.5-0.5-0.5c-0.008656 0-0.016845-4.3e-4 -0.025391 0z" color="#000000" fill="#786d7d" stroke-linecap="square" style="-inkscape-stroke:none;paint-order:markers stroke fill"/></svg>
