<svg version="1.1" viewBox="0 0 16 16" xmlns="http://www.w3.org/2000/svg">
 <defs>
  <style id="current-color-scheme" type="text/css">.ColorScheme-Text {
        color:#232629;
      }</style>
 </defs>
 <path d="m3 2c-1.0986 0-2 0.90135-2 2v9c0 0.64233 0.3081 1.2172 0.7836 1.584 0.10926 0.08427 0.22354 0.02938 0.24409-0.10715l0.10123-0.67252c0.02055-0.13653-0.028301-0.34057-0.073363-0.47069-0.036029-0.10404-0.055555-0.21625-0.055555-0.3336v-9c0-0.55821 0.44179-1 1-1h2.5c0.55338 0 1.0942 0.16374 1.5547 0.4707l1.3359 0.89062c0.62463 0.41642 1.3587 0.63867 2.1094 0.63867h3.5c0.55821 0 1 0.44179 1 1v1.1982a1.5067 1.5067 80.579 0 0 0.08074 0.4866l0.15708 0.46032a1.4491 1.4491 90.27 0 1-0.0045 0.94892l-0.15035 0.42742a1.4639 1.4639 99.692 0 0-0.08297 0.48583v2.9927c0 0.55821-0.44179 1-1 1h-9c-0.55821 0-1-0.44179-1-1v-2.5c0-0.28206 0.21794-0.5 0.5-0.5h8c0.7727 0 1.5142-0.30713 2.0605-0.85352l0.11619-0.11619a0.25 0.25 90 0 0 0-0.35355c-0.29286-0.29285-0.75698-0.27723-1.0913-0.032917-0.27492 0.20091-0.61187 0.35618-1.0855 0.35618h-8c-0.8225 0-1.5 0.6775-1.5 1.5v2.5c0 1.0986 0.90135 2 2 2h9c1.0986 0 2-0.90135 2-2v-7c0-1.0986-0.90135-2-2-2h-3.5c-0.55338 0-1.0942-0.16374-1.5547-0.4707l-1.3359-0.89062c-0.62463-0.41642-1.3587-0.63867-2.1094-0.63867z" color="#000000" fill="#786d7d" style="-inkscape-stroke:none"/>
</svg>
