<svg width="16" height="16" version="1.1" xml:space="preserve" xmlns="http://www.w3.org/2000/svg"><g transform="matrix(1.0002 0 0 .99634 -.0030037 .017566)" stroke-width="1.0017"><path d="m4.0022-0.01763c-0.96211 0-1.7724 0.69409-1.9586 1.6074-0.03869 0.1898 0.095199 0.43982 0.28315 0.48027 0.15443 0.033241 0.29651 0.024748 0.41007 0.00392 0.15119-0.027722 0.26093-0.21349 0.30267-0.36265 0.11813-0.42214 0.50092-0.72531 0.9627-0.72531h0.9334c0.07857-0.008372 0.15788-0.013996 0.23823-0.013722h0.00391c0.1562-4.292e-5 0.31094 0.004124 0.46475 0.013722h7.3579c0.5581 0 0.9998 0.44342 0.9998 1.0037v6.022c0 0.55431-0.44763 1.0037-0.9998 1.0037h-1.9996c-1.0984 0-1.9996 0.90467-1.9996 2.0073v2.7601c0 0.13858 0.11191 0.25092 0.24995 0.25092 0.41413 0 0.74985-0.33702 0.74985-0.75275v-2.2583c0-0.56025 0.4417-1.0037 0.9998-1.0037h1.9996c1.1043 0 1.9996-0.89872 1.9996-2.0073v-6.022c0-1.1027-0.90117-2.0073-1.9996-2.0073zm1.8082 2.0034c-0.11867-0.0011098-0.23773 0.0024689-0.35735 0.011762-1.3203 0.10256-1.9469 0.70418-2.1539 1.4349-0.26085 0.92113 0.16741 1.9123 1.0232 2.2916 0.71899 0.31862 1.5615 0.24444 2.2203-0.34501 0.3661-0.32761 0.53222-0.74419 0.58777-1.1095 0.017194-0.11307-0.073116-0.21005-0.18746-0.21563l-0.60535-0.029404c-0.087176-0.0042345-0.15427-0.0072357-0.15427-0.031365 1.039e-4 -0.54675-0.43574-0.99299-0.98027-1.0037 0.099201-0.022846 0.20484-0.039677 0.31829-0.049007 1.4648-0.12046 2.6802 0.85803 3.4778 2.0603-0.81265 1.1897-2.3302 2.0086-3.8293 2.0073-1.4943-0.00125-2.9833-0.81639-3.7942-1.9975 0.25581-0.35563 0.56977-0.70618 0.93926-0.99975 0.24031-0.19093 0.33176-0.5293 0.17575-0.79392l-0.08592-0.14702c-0.076842-0.13034-0.24534-0.17338-0.37297-0.092134-0.69643 0.44336-1.3707 1.0309-1.7867 1.7897-0.081983 0.14966-0.081983 0.33061 0 0.48027 0.95114 1.7321 2.9538 2.7584 4.9248 2.7601 1.971 0.0017 3.9965-1.019 4.9521-2.7601 0.08198-0.14966 0.08198-0.33061 0-0.48027-0.87906-1.6016-2.5316-2.765-4.3116-2.7817zm-3.6399 6.4004c-0.098846-9.979e-4 -0.16793 0.070992-0.16793 0.19799v5.4496c0 1.1027 0.90117 2.0073 1.9996 2.0073h5.4989c2.7769 0 5.0795-2.0808 5.4462-4.7694 0.01874-0.13739-0.01389-0.24896-0.29096-0.24896-0.27706 0-0.71323 0.33755-0.826 0.73707-0.53483 1.8946-2.2671 3.2776-4.3292 3.2776h-5.4989c-0.5581 0-0.9998-0.44342-0.9998-1.0037v-5.0693c0-0.14765-0.11408-0.3033-0.2519-0.35481-0.16025-0.059888-0.31722-0.12632-0.47256-0.19799-0.038314-0.017675-0.074452-0.025151-0.1074-0.025484z" color="#000000" fill="#786d7d" stroke-linejoin="round" stroke-width="1.0017" style="-inkscape-stroke:none"/></g></svg>
