<svg width="16" height="16" version="1.1" viewBox="0 0 16 16" xml:space="preserve" xmlns="http://www.w3.org/2000/svg"><g transform="translate(1)" fill="#786d7d"><path d="m9.3465 0.11055c-0.1011 0-0.2022 0.038039-0.2793 0.11523l-1.9207 1.9207c-0.19524 0.19524-0.19524 0.51179 0 0.70703l1.909 1.909c0.16054 0.16117 0.42149 0.16117 0.58203 0l0.32617-0.32617c0.04892-0.04991 0.04892-0.12978 0-0.17969l-1.2566-1.2566h2.293c1.1348 0 2 0.88763 2 2v3c0 0.55228-0.44772 1-1 1h-2c-1.0986 0-2 0.90136-2 2v2.75c0 0.13807 0.11193 0.25 0.25 0.25 0.41421 0 0.75-0.33579 0.75-0.75v-2.25c0-0.5582 0.4418-1 1-1h2c1.1046 0 2-0.89543 2-2v-3c0-1.7131-1.3795-3-3-3h-2.293l1.3055-1.3055c0.02235-0.02278 0.02235-0.059251 0-0.082031l-0.38672-0.38672c-0.077095-0.077195-0.1782-0.11523-0.2793-0.11523zm-6.3465-0.11055c-1.0986 0-2 0.90136-2 2v12c0 1.0986 0.90136 2 2 2h5.5c2.7775 0 5.0805-2.0732 5.4473-4.752 0.01874-0.13689-0.084587-0.24805-0.22266-0.24805h-2e-3c-0.41421 0-0.77977 0.33632-0.89258 0.73438-0.53479 1.8877-2.2675 3.2656-4.33 3.2656h-5.5c-0.5582 0-1-0.4418-1-1v-12c0-0.5582 0.4418-1 1-1h2.3537a1.0501 1.0501 152.48 0 0 0.86057-0.44835l0.23941-0.3424a0.13303 0.13303 62.481 0 0-0.10902-0.20925z" style="-inkscape-stroke:none"/></g></svg>
