<svg width="16" height="16" version="1.1" viewBox="0 0 16 16" xml:space="preserve" xmlns="http://www.w3.org/2000/svg"><g fill="#786d7d"><path d="m5.5 10c-0.831 0-1.5 0.669-1.5 1.5v2c0 0.831 0.669 1.5 1.5 1.5h4c0.31713 0 0.54856-0.2621 0.61687-0.57069 0.05197-0.23474 0.14744-0.46278 0.28938-0.67149v0a0.4139 0.4139 80.94 0 0-0.11523-0.72266h-2e-3c-0.95371-0.0012-1.5774-1.1801-1.0449-1.9707v-2e-3l0.3391-0.50676a0.3571 0.3571 61.894 0 0-0.29679-0.5557z" fill-opacity=".2471" stroke-linecap="square" style="paint-order:markers stroke fill"/><path d="m5 1c-1.0986 0-2 0.90136-2 2v2.75c0 0.13807 0.11193 0.25 0.25 0.25 0.41421 0 0.75-0.33579 0.75-0.75v-2.25c0-0.55821 0.44179-1 1-1h6c0.5582 0 1 0.44179 1 1v2.25c0.0049 0.2857 0.17016 0.53558 0.41387 0.65774 0.12218 0.061237 0.3007-0.02004 0.40289-0.11134 0.01628-0.014549 0.03295-0.02862 0.04998-0.042206 0.069935-0.055786 0.13326-0.16466 0.13326-0.25419v-2.5c0-1.0986-0.90136-2-2-2zm-3 6c-1.0986 0-2 0.90136-2 2v3c0 1.0986 0.90136 2 2 2h0.75c0.13807 0 0.25-0.11193 0.25-0.25 0-0.41421-0.33579-0.75-0.75-0.75h-0.25c-0.55821 0-1-0.4418-1-1v-3c0-0.55821 0.44179-1 1-1h9.1808a0.21385 0.21385 151.91 0 0 0.17767-0.094828l0.38609-0.57631a0.21127 0.21127 61.91 0 0-0.17552-0.32886zm13.012 0.97672c-0.0048 0.00731-0.0097 0.014626-0.01453 0.021939-0.13016 0.1954-0.10287 0.49867-0.037217 0.72355 0.025619 0.087756 0.039489 0.18082 0.039489 0.27779v0.5c0 0.34841 0.25959 0.78302 0.43221 1.0816 0.22096 0.38221 0.25561 0.8729-0.0084 1.2621h-2e-3l-0.91189 1.3829c-0.28163 0.4271-0.06962 0.7892 0.38306 0.56102 0.65455-0.32992 1.107-1.0093 1.107-1.7877v-3c0-0.40893-0.12475-0.79061-0.33811-1.1086-0.17756-0.26465-0.47422-0.18089-0.64963 0.085346zm-9.5123 2.0233c-0.8225 0-1.5 0.6775-1.5 1.5v2c0 0.8225 0.6775 1.5 1.5 1.5h4c0.31713 0 0.54882-0.26226 0.6185-0.57051 0.0014-0.0062 0.0028-0.01241 0.0043-0.01861 0.055404-0.2345-0.04901-0.41088-0.29047-0.41088h-4.3323c-0.28206 0-0.5-0.21794-0.5-0.5v-2c0-0.28206 0.21794-0.5 0.5-0.5h3.6656a0.22404 0.22404 151.91 0 0 0.18613-0.09934l0.2312-0.34512a0.3569 0.3569 61.909 0 0-0.29651-0.55554z" color="#000000" stroke-linecap="square" style="-inkscape-stroke:none;paint-order:markers stroke fill"/><path d="m13.611 6.5293c-0.05042-0.0032-0.09875 0.02058-0.12695 0.0625l-3.3828 5.0508c-0.10282 0.15202 0.0059 0.35718 0.18945 0.35742h2.5645l-1.5938 2.3398c-0.29557 0.43363-0.18364 1.0248 0.25 1.3203 0.02264 0.01514 0.05328 9e-3 0.06836-0.01367l2.9863-4.3848c0.07547-0.11128-0.0042-0.26167-0.13867-0.26172h-2.6914l2.5117-3.75c0.08136-0.12072 0.04894-0.2846-0.07227-0.36523l-0.49414-0.33008c-0.02075-0.01459-0.04503-0.02335-0.07031-0.02539z" style="-inkscape-stroke:none"/></g></svg>
