<svg width="16" height="16" version="1.1" viewBox="0 0 16 16" xmlns="http://www.w3.org/2000/svg">
 <path d="m11.996 0.16211c-0.57948 0.029402-1.137 0.27174-1.5566 0.69141l-9.4395 9.4395c-0.30594 0.30594-0.50522 0.70254-0.56641 1.1309l-0.35742 2.5098c-0.08061 0.56427 0.42596 1.0708 0.99023 0.99023l2.5098-0.35742c0.42832-0.061188 0.82492-0.26046 1.1309-0.56641l8.7949-8.7949 0.001953-0.0019531c0.07801-0.079885 0.1924-0.1075 0.29883-0.074219h0.001954c0.50023 0.16578 0.89281 0.55571 1.0625 1.0547 0.026969 0.08092 0.001803 0.16562-0.066407 0.2168l-3.4004 2.5488c-0.25154 0.18859-0.40039 0.48646-0.40039 0.80078v0.5a0.75 0.75 0 0 0 0.75 0.75 0.25 0.25 0 0 0 0.25-0.25v-1l3.4004-2.5508c0.40951-0.30714 0.57789-0.84641 0.41602-1.332v-0.0019531c-0.27019-0.79903-0.90179-1.4242-1.7031-1.6875l-0.001953-0.0019532h-0.001953c-0.46571-0.14911-0.97867-0.021736-1.3203 0.32812l-8.7891 8.7891c-0.15305 0.15305-0.35214 0.25259-0.56641 0.2832l-2.3438 0.33398 0.33398-2.3438c0.030609-0.21426 0.13016-0.41336 0.2832-0.56641l9.4395-9.4395c0.32396-0.32396 0.78707-0.46485 1.2363-0.375 1.0379 0.30951 1.3966 0.84784 1.707 1.6816 0.04817 0.12937 0.18933 0.20186 0.32031 0.1582l0.001953-0.0019531c0.39296-0.13099 0.65417-0.5725 0.48828-0.95117-0.41474-0.94675-1.2366-1.6097-2.3223-1.8672-0.19399-0.038798-0.38887-0.05277-0.58203-0.042969zm-0.73438 12.604c-0.25554 0.007327-0.52935 0.1505-0.65625 0.4043l-0.32812 0.66016c-0.052817 0.10564-0.15924 0.16992-0.27734 0.16992h-2.6738a0.82574 0.82574 0 0 0-0.82617 0.82617v0.003906a0.16996 0.16996 0 0 0 0.16992 0.16992h3.3301c0.42281 0 0.75637-0.28131 1-0.61719 0 0.42499 0.16695 0.84699 0.53516 1.0566 0.36821 0.20965 0.81653 0.13596 1.1816-0.082031 0.34624-0.20672 0.57058-0.33614 1.3047-0.35547 0.11263-0.002965 0.18286-0.09159 0.1582-0.20117-0.09961-0.4427-0.55538-0.79658-0.99609-0.68359-0.38024 0.097484-0.74343 0.24245-0.97852 0.38281-0.11248 0.067159-0.15967 0.069655-0.17383 0.068359-0.007536-0.00991-0.03125-0.050372-0.03125-0.18555v-0.88281c1e-6 -0.34923-0.27301-0.64754-0.56641-0.7168-0.055012-0.012986-0.1129-0.019269-0.17188-0.017578zm4.2383 1.2344a0.5 0.5 0 0 0-0.5 0.5 0.5 0.5 0 0 0 0.5 0.5 0.5 0.5 0 0 0 0.5-0.5 0.5 0.5 0 0 0-0.5-0.5z" color="#000000" fill="#786d7d" stroke-linecap="square" style="-inkscape-stroke:none"/>
 <circle cx="8.5" cy="6.5" r=".5" fill="#786d7d"/>
</svg>
