<svg width="16" height="16" version="1.1" viewBox="0 0 16 16" xml:space="preserve" xmlns="http://www.w3.org/2000/svg"><g fill="#786d7d"><path d="m8 1c-2.2032 0-4 1.7968-4 4v2h-1c-0.55228 0-1 0.44772-1 1v6c0 1.0986 0.90136 2 2 2h5.5c2.5851 0 4.1332-1.7588 4.4473-4.0527 0.01874-0.13689-0.0139-0.24805-0.29102-0.24805-0.27712 0-0.71337 0.33632-0.82617 0.73438-0.45836 1.6174-1.4435 2.5664-3.3301 2.5664h-5.5c-0.55821 0-1-0.44179-1-1v-6l1-0.00195c0.52955-6.597e-4 1-0.46264 1-0.99805v-2c0-1.6628 1.3372-3 3-3s3 1.3372 3 3h-1c0-1.0986-0.90136-2-2-2s-2 0.90136-2 2v2c0 0.55228 0.44772 1 1 1h5.5c0.27614 0 0.5 0.22386 0.5 0.5v0.5c0 0.55228-0.44772 1-1 1h-1c-1.0986 0-2 0.90136-2 2v1.75c0 0.13807 0.11193 0.25 0.25 0.25 0.41421 0 0.75-0.33579 0.75-0.75v-1.25c0-0.5582 0.4418-1 1-1h1c1.1046 0 2-0.89543 2-2v-0.5c0-0.82843-0.67157-1.5-1.5-1.5h-5.5v-2c0-0.55821 0.44179-1 1-1s1 0.44179 1 1c0 0.55228 0.44772 1 1 1h1c0.55228 0 1-0.44772 1-1 0-2.2032-1.7968-4-4-4z" style="-inkscape-stroke:none"/></g><path d="m4 0c-1.0986 0-2 0.90136-2 2v4.3a0.27081 0.27081 34.099 0 0 0.37139 0.25144l0.25722-0.10289a0.59081 0.59081 124.1 0 0 0.37139-0.54856v-3.9c0-0.55821 0.44179-1 1-1h8c0.5582 0 1 0.44179 1 1v3.9a0.59081 0.59081 55.901 0 0 0.37139 0.54856l0.25722 0.10289a0.27081 0.27081 145.9 0 0 0.37139-0.25144v-4.3c0-1.0986-0.90136-2-2-2z" color="#000000" fill="#786d7d" opacity=".16" stroke-linecap="square" style="-inkscape-stroke:none;paint-order:markers stroke fill"/></svg>
