<svg width="16" height="16" version="1.1" xml:space="preserve" xmlns="http://www.w3.org/2000/svg"><path d="m14.127 1.125c-0.10396 0.0081661-0.20695 0.039687-0.30078 0.095703l-12.152 6.877c-0.41702 0.24897-0.57101 0.75129-0.46094 1.1504 0.11007 0.3991 0.50065 0.75195 0.98633 0.75195h2.5566a0.24511 0.24511 0 0 0 0.24414-0.24414v-0.41016a0.34528 0.34528 0 0 0-0.3457-0.3457h-2.4551c-0.046397 0-0.018007 0.0021199-0.023438-0.017578-0.0054298-0.019695-0.028119-0.0035598 0.011719-0.027344l11.561-6.5234-2.4648 10.787c-0.03201 0.13871-0.14817 0.16973-0.24609 0.066406l-2.457-2.5938a0.49068 0.49068 0 0 0-0.69336-0.017578l-0.015625 0.011719a0.48976 0.48976 0 0 0-0.017578 0.69336l2.459 2.5938c0.60842 0.64203 1.7464 0.33258 1.9453-0.5293l2.6191-11.455c0.065525-0.28394-0.062662-0.58027-0.27148-0.73242-0.13051-0.095097-0.30525-0.14447-0.47852-0.13086zm-3.1875 3.5703a0.25806 0.25806 0 0 0-0.11719 0.0625l-3.8906 3.6523c-0.59412 0.55739-0.93164 1.3357-0.93164 2.1504v3.3242c-6e-7 0.37607 0.28098 0.69267 0.59375 0.7793s0.71472-0.040809 0.9082-0.36328l0.625-1.0391a0.58679 0.58679 0 0 0-0.20117-0.80664l-0.21875-0.13086a0.15944 0.15944 0 0 0-0.21875 0.054687l-0.48828 0.81445v-2.6328c1e-7 -0.53884 0.22227-1.0532 0.61523-1.4219l3.6348-3.4082a0.60945 0.60945 0 0 0 0.027344-0.86328l-0.091797-0.097656a0.25806 0.25806 0 0 0-0.24609-0.074219zm-5.666 4.334a0.076538 0.077493 0 0 0-0.076172 0.078125 0.076538 0.077493 0 0 0 0.076172 0.076172 0.076538 0.077493 0 0 0 0.078125-0.076172 0.076538 0.077493 0 0 0-0.0058594-0.027344 0.076538 0.077493 0 0 0-0.0058593-0.013672 0.076538 0.077493 0 0 0-0.0039063-0.0058593 0.076538 0.077493 0 0 0-0.0058594-0.0058594 0.076538 0.077493 0 0 0-0.0078125-0.0078125 0.076538 0.077493 0 0 0-0.0058594-0.0039062 0.076538 0.077493 0 0 0-0.013672-0.0078126 0.076538 0.077493 0 0 0-0.029297-0.0058593zm-0.48242 0.74219a0.052761 0.056103 0 0 1 0.0078125 0 0.052761 0.056103 0 0 1 0.0019531 0 0.052761 0.056103 0 0 1 0.0058594 0 0.052761 0.056103 0 0 1 0.0019532 0.0019531 0.052761 0.056103 0 0 1 0.0058593 0 0.052761 0.056103 0 0 1 0.0019531 0.0019531 0.052761 0.056103 0 0 1 0.0019532 0 0.052761 0.056103 0 0 1 0.0058594 0.0039063 0.052761 0.056103 0 0 1 0.0019531 0 0.052761 0.056103 0 0 1 0.0019531 0.0019531 0.052761 0.056103 0 0 1 0.0019531 0.0019531 0.052761 0.056103 0 0 1 0.0019531 0.0019531 0.052761 0.056103 0 0 1 0.0019532 0.0019532 0.052761 0.056103 0 0 1 0.0019531 0.0019531 0.052761 0.056103 0 0 1 0.0019531 0.0019531 0.052761 0.056103 0 0 1 0.0019532 0.0019532 0.052761 0.056103 0 0 1 0.0019531 0.0019531 0.052761 0.056103 0 0 1 0.0019531 0.0019531 0.052761 0.056103 0 0 1 0 0.0019531 0.052761 0.056103 0 0 1 0.0019531 0.0019531 0.052761 0.056103 0 0 1 0.0019531 0.0058594 0.052761 0.056103 0 0 1 0.0019532 0.0019532 0.052761 0.056103 0 0 1 0 0.0019531 0.052761 0.056103 0 0 1 0 0.0019531 0.052761 0.056103 0 0 1 0 0.0019531 0.052761 0.056103 0 0 1 0.0019531 0.0019531 0.052761 0.056103 0 0 1 0 0.0019532 0.052761 0.056103 0 0 1 0 0.0019531 0.052761 0.056103 0 0 1 0 0.0019531 0.052761 0.056103 0 0 1 0 0.0019532 0.052761 0.056103 0 0 1 0 0.0019531 0.052761 0.056103 0 0 1 0 0.0019531 0.052761 0.056103 0 0 1-0.052734 0.056641 0.052761 0.056103 0 0 1-0.052734-0.056641 0.052761 0.056103 0 0 1 0.044922-0.056641z" color="#000000" fill="#786d7d" stroke-linejoin="round" style="-inkscape-stroke:none"/></svg>
