<svg width="16" height="16" version="1.1" viewBox="0 0 16 16" xml:space="preserve" xmlns="http://www.w3.org/2000/svg"><path d="m5 0c-0.85844 0-1.5953 0.55168-1.877 1.3164 0.58208-0.23732 1.2158-0.36914 1.877-0.36914 0.24365 0 0.48371 0.018374 0.71875 0.052734h8.2812c0.5582 0 1 0.44179 1 1v7c0 0.55228-0.44772 1-1 1h-1c-0.94502 0-1.7423 0.66702-1.9473 1.5527v0.44727c0 0.18084-0.020036 0.35757-0.052734 0.53125v1.2188c0 0.13807 0.11193 0.25 0.25 0.25 0.41421 0 0.75-0.33579 0.75-0.75v-1.25c0-0.5582 0.4418-1 1-1h1c1.1046 0 2-0.89543 2-2v-7c0-1.0986-0.90136-2-2-2h-9zm10.656 12c-0.27712 0-0.71909 0.33474-0.82617 0.73438-0.33888 1.2647-1.3301 2.2656-3.3301 2.2656h-2.9688c-0.17368 0.032698-0.35041 0.052734-0.53125 0.052734h-4.6953c0.3544 0.56666 0.98243 0.94727 1.6953 0.94727h6.5c2.5 0 3.9808-1.5562 4.4473-3.752 0.01874-0.13689-0.013897-0.24805-0.29102-0.24805z" color="#000000" fill="#786d7d" stroke-linecap="square" style="-inkscape-stroke:none;paint-order:markers stroke fill"/><g transform="translate(-3.0059,-2.8e-5)" fill="#786d7d"><path d="m8.0059 3c-1.6628 0-3 1.3372-3 3v2h-0.5c-0.27614 0-0.5 0.22386-0.5 0.5v1h-1v1.5h1v1c0 0.5582 0.4418 1 1 1h6c0.5582 0 1-0.4418 1-1v-4c-0.55228 0-1-0.44772-1-1v-1c0-1.6628-1.3372-3-3-3zm0 1c1.0986 0 2 0.90136 2 2v1c0 0.55228-0.44772 1-1 1h-3v-2c0-1.0986 0.90136-2 2-2z" opacity=".15994" stroke-linecap="round" stroke-linejoin="round" stroke-width=".012055"/><path d="m8.0059 2c-2.2032 0-4 1.7968-4 4v1.0879c-0.56728 0.20107-0.97766 0.73213-0.99805 1.3633-8.3e-4 0.0078-0.00149 0.015607-0.00195 0.023437-1.43e-4 0.00851 0 0.016851 0 0.025391v1c0 0.5-0.00586 0.5 0.5 0.5 0.27614 0 0.5-0.22386 0.5-0.5v-1c0-0.27614 0.22386-0.5 0.5-0.5h0.5v-2c0-1.6628 1.3372-3 3-3s3 1.3372 3 3v1c0 0.55228 0.44772 1 1 1v4c0 0.5582-0.4418 1-1 1h-6c-0.5582 0-1-0.4418-1-1v-1c0-0.5-0.00586-0.5-0.5-0.5-0.27614 0-0.5 0.22386-0.5 0.5v1c0 1.0986 0.90136 2 2 2h6c1.0986 0 2-0.90136 2-2v-4c0-0.55228-0.44772-1-1-1v-1c0-2.2032-1.7968-4-4-4zm0 2c-1.0986 0-2 0.90136-2 2v2h3c0.55228 0 1-0.44772 1-1v-1c0-1.0986-0.90136-2-2-2zm0 1c0.5582 0 1 0.4418 1 1v1h-2v-1c0-0.5582 0.4418-1 1-1z" color="#000000" style="-inkscape-stroke:none"/></g></svg>
