<?xml version="1.0" encoding="UTF-8" standalone="no"?>
<!-- Created with Inkscape (http://www.inkscape.org/) -->

<svg
   width="16"
   height="16"
   viewBox="0 0 16 16"
   version="1.1"
   id="svg1525"
   inkscape:version="1.2.2 (b0a8486541, 2022-12-01)"
   sodipodi:docname="document-new-from-template.svg"
   xml:space="preserve"
   xmlns:inkscape="http://www.inkscape.org/namespaces/inkscape"
   xmlns:sodipodi="http://sodipodi.sourceforge.net/DTD/sodipodi-0.dtd"
   xmlns="http://www.w3.org/2000/svg"
   xmlns:svg="http://www.w3.org/2000/svg"><sodipodi:namedview
     id="namedview1527"
     pagecolor="#ffffff"
     bordercolor="#000000"
     borderopacity="0.23921569"
     inkscape:showpageshadow="false"
     inkscape:pageopacity="0.0"
     inkscape:pagecheckerboard="0"
     inkscape:deskcolor="#ffffff"
     inkscape:document-units="px"
     showgrid="true"
     showborder="true"
     guidecolor="#1fca00"
     guideopacity="0.6"
     showguides="true"
     inkscape:zoom="36.231407"
     inkscape:cx="8.3215095"
     inkscape:cy="4.5678601"
     inkscape:window-width="1808"
     inkscape:window-height="1122"
     inkscape:window-x="3314"
     inkscape:window-y="0"
     inkscape:window-maximized="0"
     inkscape:current-layer="svg1525"
     inkscape:pageshadow="2"><inkscape:grid
       type="xygrid"
       id="grid1656"
       empspacing="4"
       color="#0099e5"
       opacity="0.05882353"
       empcolor="#0099e5"
       empopacity="0.18039216"
       dotted="false" /><inkscape:grid
       type="xygrid"
       id="grid130"
       empspacing="1"
       spacingx="0.5"
       spacingy="0.5"
       empcolor="#0099e5"
       empopacity="0.05490196"
       color="#0099e5"
       opacity="0" /></sodipodi:namedview><defs
     id="defs1522"><inkscape:path-effect
       effect="fillet_chamfer"
       id="path-effect4521"
       is_visible="true"
       lpeversion="1"
       nodesatellites_param="F,0,0,1,0,0,0,1 @ F,0,0,1,0,0,0,1 @ F,0,0,1,0,0,0,1 @ F,0,0,1,0,0,0,1 @ F,0,0,1,0,0,0,1 @ F,0,0,1,0,0,0,1 @ F,0,0,1,0,0,0,1 @ F,0,0,1,0,0,0,1 @ F,0,0,1,0,0,0,1 @ F,0,0,1,0,0,0,1 @ F,0,0,1,0,0,0,1 @ F,0,0,1,0,0,0,1 @ F,0,0,1,0,0,0,1 @ F,0,0,1,0,0.42771682,0,1 @ F,0,0,1,0,0.17208859,0,1 @ F,0,0,1,0,0.22547819,0,1 | F,0,0,1,0,0,0,1 @ F,0,0,1,0,0,0,1 @ F,0,0,1,0,0,0,1 @ F,0,0,1,0,0,0,1 @ F,0,0,1,0,0,0,1 @ F,0,0,1,0,0,0,1 @ F,0,0,1,0,0,0,1 @ F,0,0,1,0,0,0,1 @ F,0,0,1,0,0,0,1 @ F,0,0,1,0,0,0,1 @ F,0,0,1,0,0,0,1 @ F,0,0,1,0,0,0,1 @ F,0,0,1,0,0,0,1 @ F,0,0,1,0,0,0,1"
       unit="px"
       method="auto"
       mode="F"
       radius="0"
       chamfer_steps="1"
       flexible="false"
       use_knot_distance="true"
       apply_no_radius="true"
       apply_with_radius="true"
       only_selected="false"
       hide_knots="false" /><inkscape:path-effect
       effect="fillet_chamfer"
       id="path-effect534"
       is_visible="true"
       lpeversion="1"
       nodesatellites_param="F,0,0,1,0,0.55742007,0,1 @ F,0,0,1,0,0.20865601,0,1 @ F,0,0,1,0,0.25978357,0,1 @ F,0,0,1,0,0.23533254,0,1"
       unit="px"
       method="auto"
       mode="F"
       radius="0"
       chamfer_steps="1"
       flexible="false"
       use_knot_distance="true"
       apply_no_radius="true"
       apply_with_radius="true"
       only_selected="false"
       hide_knots="false" /><inkscape:path-effect
       effect="fillet_chamfer"
       id="path-effect532"
       is_visible="true"
       lpeversion="1"
       nodesatellites_param="F,0,0,1,0,0.14649759,0,1 @ F,0,0,1,0,0.41571405,0,1 @ F,0,0,1,0,0.12944663,0,1 @ F,0,0,1,0,0.5,0,1"
       unit="px"
       method="auto"
       mode="F"
       radius="0"
       chamfer_steps="1"
       flexible="false"
       use_knot_distance="true"
       apply_no_radius="true"
       apply_with_radius="true"
       only_selected="false"
       hide_knots="false" /><inkscape:path-effect
       effect="fillet_chamfer"
       id="path-effect885"
       is_visible="true"
       lpeversion="1"
       satellites_param="F,0,0,1,0,0,0,1 @ F,0,0,1,0,2,0,1 @ F,0,0,1,0,0,0,1 @ F,0,0,1,0,0,0,1 @ F,0,0,1,0,0,0,1 @ F,0,1,1,0,5.5,0,1"
       unit="px"
       method="auto"
       mode="F"
       radius="5.5"
       chamfer_steps="1"
       flexible="false"
       use_knot_distance="true"
       apply_no_radius="true"
       apply_with_radius="true"
       only_selected="true"
       hide_knots="false"
       nodesatellites_param="F,0,0,1,0,0,0,1 @ F,0,0,1,0,2,0,1 @ F,0,0,1,0,0,0,1 @ F,0,0,1,0,0,0,1 @ F,0,0,1,0,0,0,1 @ F,0,1,1,0,5.5,0,1" /><inkscape:path-effect
       effect="fillet_chamfer"
       id="path-effect1101"
       is_visible="true"
       lpeversion="1"
       nodesatellites_param="F,0,0,1,0,0,0,1 @ F,0,0,1,0,0,0,1 @ F,0,0,1,0,0,0,1 @ F,0,0,1,0,0,0,1 @ F,0,0,1,0,0,0,1 @ F,0,0,1,0,0.25,0,1 @ F,0,0,1,0,0.75,0,1 @ F,0,0,1,0,0,0,1 @ F,0,0,1,0,0,0,1 @ F,0,0,1,0,0,0,1 @ F,0,0,1,0,0,0,1 @ F,0,0,1,0,0,0,1 @ F,0,0,1,0,0,0,1 @ F,0,0,1,0,0,0,1 @ F,0,1,1,0,1,0,1 @ F,0,0,1,0,0,0,1 @ F,0,0,1,0,0,0,1 @ F,0,0,1,0,0.25,0,1 @ F,0,0,1,0,0.75,0,1 @ F,0,0,1,0,0,0,1 @ F,0,0,1,0,0,0,1 @ F,0,0,1,0,2,0,1 @ F,0,0,1,0,0,0,1 @ F,0,0,1,0,0,0,1"
       unit="px"
       method="auto"
       mode="F"
       radius="1"
       chamfer_steps="1"
       flexible="false"
       use_knot_distance="true"
       apply_no_radius="true"
       apply_with_radius="true"
       only_selected="true"
       hide_knots="false" /><inkscape:path-effect
       effect="fillet_chamfer"
       id="path-effect954"
       is_visible="true"
       lpeversion="1"
       nodesatellites_param="F,0,0,1,0,0,0,1 @ F,0,1,1,0,5,0,1 @ F,0,0,1,0,1.5,0,1 @ F,0,0,1,0,1.5,0,1 @ F,0,0,1,0,1.5,0,1 @ F,0,0,1,0,0,0,1 @ F,0,0,1,0,1.5,0,1 @ F,0,0,1,0,0,0,1"
       unit="px"
       method="auto"
       mode="F"
       radius="5"
       chamfer_steps="1"
       flexible="false"
       use_knot_distance="true"
       apply_no_radius="true"
       apply_with_radius="true"
       only_selected="true"
       hide_knots="false" /><clipPath
       clipPathUnits="userSpaceOnUse"
       id="clipath_lpe_path-effect481"><circle
         style="display:none;fill:#c8c8c8;fill-opacity:1;stroke:none;stroke-width:0.1;stroke-linecap:square;stroke-miterlimit:4;stroke-dasharray:none;stroke-opacity:1"
         id="circle487"
         cx="-79"
         cy="120"
         r="8" /></clipPath><inkscape:path-effect
       effect="powerclip"
       id="path-effect481"
       is_visible="true"
       lpeversion="1"
       inverse="true"
       flatten="false"
       hide_clip="false"
       message="Use fill-rule evenodd on &lt;b&gt;fill and stroke&lt;/b&gt; dialog if no flatten result after convert clip to paths." /><clipPath
       clipPathUnits="userSpaceOnUse"
       id="clipath_lpe_path-effect485"><rect
         style="display:block;fill:#c8c8c8;fill-opacity:1;stroke:none;stroke-width:0.2;stroke-linecap:square;stroke-miterlimit:4;stroke-dasharray:none;stroke-opacity:1"
         id="rect492"
         width="16"
         height="16"
         x="-87"
         y="112" /></clipPath><inkscape:path-effect
       effect="powerclip"
       id="path-effect485"
       is_visible="true"
       lpeversion="1"
       inverse="true"
       flatten="false"
       hide_clip="false"
       message="Use fill-rule evenodd on &lt;b&gt;fill and stroke&lt;/b&gt; dialog if no flatten result after convert clip to paths." /></defs><path
     id="path248"
     style="color:#000000;fill:#786d7d;fill-opacity:1;stroke-linecap:square;-inkscape-stroke:none;paint-order:markers stroke fill"
     d="M 3,0 C 1.9013572,0 1,0.90135722 1,2 v 12 c 0,1.098643 0.9013572,2 2,2 h 5.5 c 2.777486,0 5.08053,-2.073206 5.447266,-4.751953 C 13.966006,11.111161 13.933369,11 13.65625,11 13.379131,11 12.942883,11.336317 12.830078,11.734375 12.295138,13.622044 10.562518,15 8.5,15 H 3 C 2.4417953,15 2,14.558204 2,14 V 2 C 2,1.4417953 2.4417953,1 3,1 H 8.4550781 C 8.6912994,1 8.9966683,0.84377644 9.169922,0.68359375 9.638199,0.25064489 10.095649,0.25056467 10.736328,0.41210938 c 0.09212,0.0232281 0.200562,-0.0239334 0.242188,-0.109375 L 11.025391,0.203125 A 0.14096455,0.14096455 0 0 0 10.900391,0 Z m 9.173828,0.13476562 c -0.17267,0.0156635 -0.328963,0.12010986 -0.40625,0.27929688 L 11.224609,1.5351562 C 11.151289,1.6621481 10.808806,1.7089727 10.75,1.9453125 c -0.0585,0.2698757 0.112938,0.5352531 0.382812,0.59375 l 0.263672,0.056641 c 0.225392,0.04884 0.453937,-0.062077 0.554688,-0.2695312 L 12.667969,0.8515625 C 12.78859,0.60315345 12.685917,0.30420993 12.4375,0.18359375 c -0.05907,-0.028679 -0.123907,-0.0449361 -0.189453,-0.0488281 -0.02524,-0.001499 -0.04955,-0.002238 -0.07422,0 z M 9.890625,1.2324219 c -0.06557,0.0034 -0.130192,0.020548 -0.189453,0.048828 C 9.451945,1.4001768 9.347863,1.6980418 9.466797,1.9472655 L 9.992188,3.048828 c 0.0617,0.1558569 -0.138129,0.4023035 0.0039,0.6132813 0.161083,0.2242868 0.472976,0.2763092 0.697266,0.1152344 L 10.914066,3.6171875 C 11.110637,3.4759666 11.17845,3.2145645 11.074223,2.9960938 L 10.369141,1.5175781 C 10.282041,1.3350643 10.092578,1.2217969 9.890625,1.2324219 Z M 14.5,1.2480469 c -0.03266,8.012e-4 -0.06562,0.00452 -0.09766,0.011719 l -1.283203,0.2890625 c -0.136335,0.03653 -0.434506,-0.1460183 -0.63086,-0.00781 -0.22085,0.1657579 -0.265355,0.478363 -0.09961,0.6992188 l 0.125,0.1660156 c 0.118126,0.1573718 0.317781,0.2325931 0.509766,0.1894531 l 1.597656,-0.359375 C 14.89052,2.1757782 15.060559,1.9080936 15,1.6386719 14.95565,1.4413591 14.796923,1.2903893 14.597656,1.2558594 14.565306,1.2502544 14.532664,1.2472456 14.5,1.2480469 Z M 13.910156,2.5 c -0.0164,0.00111 -0.03248,0.00311 -0.04883,0.00586 -0.130772,0.02199 -0.247297,0.095109 -0.324219,0.203125 l -0.15039,0.2109375 c -0.153628,0.2157708 -0.112721,0.5137726 0.09375,0.6796875 l 1.277343,1.0273437 c 0.215276,0.1729529 0.530177,0.1391079 0.703126,-0.076172 0.172939,-0.2152727 0.139094,-0.5301771 -0.07617,-0.703125 L 14.474609,3.1152344 C 14.380089,3.0207145 14.464458,2.7664167 14.234375,2.5917969 14.139858,2.5244832 14.024921,2.4922275 13.910156,2.5 Z M 9.357422,3.7167969 c -0.03265,-0.00102 -0.06527,0.00241 -0.09766,0.00781 C 9.060275,3.7577869 8.8992037,3.9084684 8.8535119,4.1054663 8.7911229,4.374473 8.959503,4.6426937 9.228512,4.7050756 L 10.43359,4.984375 c 0.222364,0.0486 0.249699,0.3615908 0.498047,0.3710938 0.27613,0.0022 0.501736,-0.2199631 0.503906,-0.4960938 l 0.002,-0.2675781 C 11.4393,4.3577161 11.278813,4.1544624 11.050781,4.1015625 L 9.455078,3.7304688 c -0.03198,-0.00741 -0.065,-0.012649 -0.09766,-0.013672 z m 4.240234,0.328125 c -0.03259,0.00234 -0.06404,0.00891 -0.0957,0.017578 l -0.154297,0.042969 c -0.216517,0.05946 -0.36642,0.2559359 -0.367187,0.4804687 l -0.0059,1.6386719 c -9.18e-4,0.2761357 0.221912,0.5010271 0.498047,0.5019531 0.276135,9.18e-4 0.501027,-0.2219122 0.501953,-0.4980469 l 0.0039,-1.2597656 c 0,-0.1543328 0.205731,-0.2716109 0.136718,-0.5566406 -0.05355,-0.1950168 -0.219258,-0.3381263 -0.419922,-0.3632813 -0.03257,-0.0041 -0.06507,-0.00625 -0.09766,-0.00391 z m -1.4375,0.65625 c -0.09516,0.0092 -0.185727,0.047225 -0.261718,0.1074219 l -1.285157,1.0175781 c -0.216448,0.1714908 -0.251574,0.4847311 -0.08008,0.7011719 0.17149,0.2164347 0.484734,0.253514 0.701172,0.082031 l 0.908203,-0.71875 c 0.143644,-0.1122169 0.314987,0.06306 0.550781,-0.1269531 0.209656,-0.1797138 0.232445,-0.4954204 0.05274,-0.7050781 L 12.587891,4.875 c -0.08413,-0.09814 -0.201407,-0.1614301 -0.330079,-0.1738281 -0.03217,-0.0031 -0.06593,-0.00307 -0.09766,0 z M 13,7.4667969 V 8 c 0,0.5522835 -0.447717,1 -1,1 H 10 C 8.9013572,9 8,9.9013572 8,11 v 2.75 C 8,13.888071 8.111929,14 8.25,14 8.6642128,14 9,13.664214 9,13.25 V 11 c 0,-0.558204 0.441795,-1 1,-1 h 2 c 1.104567,0 2,-0.8954327 2,-2 V 7.6777344 c -0.09386,0.018912 -0.190393,0.029625 -0.289062,0.029297 C 13.437076,7.706113 13.201871,7.6128549 13,7.4667969 Z" /><path
     id="path424"
     style="color:#000000;opacity:0.5;fill:#786d7d;fill-opacity:1;-inkscape-stroke:none"
     d="M 3.5566406 3 A 0.55742007 0.55742007 0 0 0 3 3.5566406 L 3 3.7910156 A 0.20865601 0.20865601 0 0 0 3.2089844 4 L 8.1230469 4 C 8.1286992 3.9614991 8.1336629 3.9232056 8.1425781 3.8847656 C 8.2337823 3.4915456 8.5032097 3.1924418 8.8457031 3 L 3.5566406 3 z " /><path
     style="color:#000000;opacity:0.5;fill:#786d7d;fill-opacity:1;-inkscape-stroke:none"
     d="M 4,2.1464976 V 13.584286 A 0.41571405,0.41571405 45 0 0 4.415714,14 H 4.8705534 A 0.12944663,0.12944663 135 0 0 5,13.870553 V 2.5 A 0.5,0.5 45 0 0 4.5,2 H 4.1464976 A 0.14649759,0.14649759 135 0 0 4,2.1464976 Z"
     id="path426"
     inkscape:path-effect="#path-effect532"
     inkscape:original-d="M 4,2 V 14 H 5 V 2 Z" /><g
     id="g4092"
     transform="translate(-0.24289169,-9)" /><g
     id="g4513"
     transform="translate(3.1e-5,-9)" /></svg>
