<svg width="16" height="16" version="1.1" viewBox="0 0 16 16" xmlns="http://www.w3.org/2000/svg">
 <path d="m3 0c-1.0986 0-2 0.90136-2 2v12c0 1.0986 0.90136 2 2 2h5.5c2.7775 0 5.0805-2.0732 5.4473-4.752 0.01874-0.13689-0.084586-0.24805-0.22266-0.24805h-2e-3c-0.41421 0-0.77977 0.33632-0.89258 0.73438-0.53475 1.8877-2.2675 3.2656-4.33 3.2656h-5.5c-0.5582 0-1-0.4418-1-1v-12c0-0.5582 0.4418-1 1-1h9c0.47256 0 0.86242 0.31612 0.9707 0.75195 0.033207 0.13365 0.14123 0.24805 0.2793 0.24805h0.5c0.13807 0 0.25165-0.11311 0.23438-0.25-0.124-0.98244-0.97012-1.75-1.9844-1.75zm10.502 2.8984c-0.06397 0-0.12697 0.023461-0.17578 0.072266l-0.35352 0.35156c-0.09891 0.09785-0.09891 0.25762 0 0.35547l1.3223 1.3223h-5.0449c-0.13807 0-0.25 0.11193-0.25 0.25v0.5c0 0.13807 0.11193 0.25 0.25 0.25h5.0449l-1.3223 1.3223c-0.09892 0.09785-0.09892 0.25762 0 0.35547l0.35352 0.35156c0.09763 0.09761 0.25589 0.09761 0.35352 0l2-1.998c0.29412-0.2931 0.29412-0.7694 0-1.0625l-2-1.998c-0.04882-0.048805-0.11376-0.072266-0.17774-0.072266zm-3.502 6.1016c-1.0986 0-2 0.90136-2 2v2.75c0 0.13807 0.11193 0.25 0.25 0.25 0.41421 0 0.75-0.33579 0.75-0.75v-2.25c0-0.5582 0.4418-1 1-1h3.25c0.41421 0 0.75-0.33579 0.75-0.75 0-0.13807-0.11193-0.25-0.25-0.25z" color="#000000" fill="#786d7d" stroke-linecap="square" style="-inkscape-stroke:none;paint-order:markers stroke fill"/>
</svg>
