<svg xmlns="http://www.w3.org/2000/svg" xml:space="preserve" width="16" height="16"><g stroke-linecap="square" color="#000"><path fill="#786d7d" d="M1.998 3C.9 3 0 3.9 0 4.998v9.021C0 15.107.893 16 1.98 16H7.5c1.375 0 2.5-1.125 2.5-2.5V11c0-1.094-.882-2-2-2H5c-1.138 0-2 .829-2 2v2.364c0 .13.105.216.227.17.135-.05.237-.113.324-.18.265-.202.45-.676.45-1.011V11c0-.603.406-1 1-1h3c.652 0 1 .371 1 1v2.5c0 .834-.667 1.5-1.5 1.5H1.98a.973.973 0 0 1-.98-.98V4.998A.99.99 0 0 1 1.997 4h6.52A3.475 3.475 0 0 1 12 7.482v6.508c0 .564-.448 1.01-1.012 1.01h-.004c-.175-.003-.383.12-.488.26a7.85 7.85 0 0 1-.398.47c-.134.15-.079.27.123.27h.767A2.018 2.018 0 0 0 13 13.99V7.482A4.49 4.49 0 0 0 8.518 3zm4.625 2A.623.623 0 0 0 6 5.623v1.629c0 .137.11.248.248.248h.129A.623.623 0 0 0 7 6.877V5.316A.317.317 0 0 0 6.684 5zm-3.22 8.945c-.027.023.026.062.06.062s.06-.022.072-.053c.027-.066-.038-.08-.078-.064-.034.015-.015.022-.055.055zm6.779 1.914c.017-.052.019-.046.05-.045.05.105-.051.048-.05.045z" style="-inkscape-stroke:none"/><path fill-opacity=".026" d="M4.623 5A.623.623 0 0 0 4 5.623v1.629c0 .137.11.248.248.248h2.129A.623.623 0 0 0 7 6.877V5.316A.317.317 0 0 0 6.684 5z" style="-inkscape-stroke:none"/><path fill="#786d7d" d="M4.998 0C3.9 0 3 .9 3 1.998V2c0 .431 1.008.307 1 0v-.002A.99.99 0 0 1 4.998 1h6.52A3.475 3.475 0 0 1 15 4.482v6.508c0 .521-.382.941-.885 1.002-.14 0-.448.402-.498.672-.043.231.138.336.383.336 1.1-.007 2-.91 2-2.01V4.482A4.49 4.49 0 0 0 11.518 0zm4.625 2a.616.616 0 0 0-.271.064c-.2.319.648.936.625.137A.315.315 0 0 0 9.684 2z" style="-inkscape-stroke:none"/></g></svg>