<svg width="16" height="16" version="1.1" viewBox="0 0 16 16" xml:space="preserve" xmlns="http://www.w3.org/2000/svg"><g fill="#786d7d"><path d="m8 1c-2.2032 0-4 1.7968-4 4v2h-1c-0.55228 0-1 0.44772-1 1v6c0 1.0986 0.90136 2 2 2h4 1.5c2.5851 0 4.1332-1.7588 4.4473-4.0527 0.01874-0.13689-0.0139-0.24805-0.29102-0.24805-0.27712 0-0.71337 0.33632-0.82617 0.73438-0.45836 1.6174-1.4435 2.5664-3.3301 2.5664h-1.5-4c-0.55821 0-1-0.44179-1-1v-6l1-0.0019531c0.52955-6.597e-4 1-0.46264 1-0.99805v-2c0-1.6628 1.3372-3 3-3s3 1.3372 3 3v1 1 1h1 0.5c0.27614 0 0.5 0.22386 0.5 0.5v0.5c0 0.55228-0.44772 1-1 1h-1c-1.0986 0-2 0.90136-2 2v1.75c0 0.13807 0.11193 0.25 0.25 0.25 0.41421 0 0.75-0.33579 0.75-0.75v-1.25c0-0.5582 0.4418-1 1-1h1c1.1046 0 2-0.89544 2-2v-0.5c0-0.82843-0.67157-1.5-1.5-1.5h-0.5v-2c0-2.2032-1.7968-4-4-4zm0 2c-1.0986 0-2 0.90136-2 2v2c0 0.55228 0.44772 1 1 1h2 1v-1-1-1c0-1.0986-0.90136-2-2-2zm0 1c0.55821 0 1 0.44179 1 1v2h-2v-2c0-0.55821 0.44179-1 1-1z" style="-inkscape-stroke:none"/><path d="m4 0c-1.0986 0-2 0.90136-2 2v4.3a0.27081 0.27081 34.099 0 0 0.37139 0.25144l0.25722-0.10289a0.59081 0.59081 124.1 0 0 0.37139-0.54856v-3.9c0-0.55821 0.44179-1 1-1h8c0.5582 0 1 0.44179 1 1v3.9a0.59081 0.59081 55.901 0 0 0.37139 0.54856l0.25722 0.10289a0.27081 0.27081 145.9 0 0 0.37139-0.25144v-4.3c0-1.0986-0.90136-2-2-2z" color="#000000" opacity=".16" stroke-linecap="square" style="-inkscape-stroke:none;paint-order:markers stroke fill"/><path d="m7.9805 1.627c-1.1326 0.0012424-2.2463 0.61032-2.8398 1.5781-0.33258 0.53437-0.52044 1.1638-0.50781 1.7949-0.014542 0.7193-8.01e-4 1.4394-0.029297 2.1582-0.093153 0.26981-0.36103 0.48585-0.6543 0.46094-0.33502 0.012495-0.67218-0.011363-1.0059 0.013672-0.21042 0.025984-0.34007 0.24625-0.31445 0.44727 0.00387 1.9674-0.00773 3.935 0.00977 5.9023-0.014654 0.29015 0.075635 0.57887 0.24414 0.81445 0.25891 0.37673 0.71736 0.60123 1.1738 0.57227 1.8807 0.01288 3.7619 0.01354 5.6426-0.0039 0.85019-0.023337 1.7284-0.27065 2.3633-0.85938 0.42868-0.38718 0.72327-0.88961 0.9375-1.4219v-5.084l-0.40234-0.37109-1.2207-0.0058593c-0.0054-0.97942 0.012219-1.9605-0.019531-2.9395-0.094038-1.0749-0.73824-2.084-1.6797-2.6133-0.51316-0.29393-1.1059-0.44846-1.6973-0.44336zm-0.091797 1.7539c0.051316-0.00284 0.10245-0.00286 0.1543 0 0.82241-0.00105 1.5654 0.72947 1.5742 1.5527 0.024831 0.89539 0.00895 1.7919 0.013672 2.6875-0.92273-0.00563-1.8452 0.010545-2.7656-0.013672-0.28677-0.053481-0.50737-0.34369-0.48438-0.63477-0.0078044-0.70165-0.01142-1.4039 0.0058594-2.1055 0.041706-0.77727 0.73222-1.4437 1.502-1.4863z" opacity=".16" stroke-linejoin="round" stroke-width=".01621"/></g></svg>
