<svg xmlns="http://www.w3.org/2000/svg" xml:space="preserve" width="16" height="16"><path fill="#786d7d" d="M2.998 1C1.9 1 1 1.9 1 2.998v10.02C1 14.108 1.893 15 2.98 15H9.5c1.375 0 2.5-1.125 2.5-2.5V9c0-1.094-.882-2-2-2H6c-1.138 0-2 .828-2 2v3.364c0 .13.105.215.227.17.135-.051.237-.114.324-.18.265-.203.45-.677.45-1.012V9c0-.603.406-1 1-1h4c.652 0 1 .37 1 1v3.5c0 .834-.667 1.5-1.5 1.5H2.98a.973.973 0 0 1-.98-.98V2.997A.99.99 0 0 1 2.997 2h7.52A3.475 3.475 0 0 1 14 5.482v7.508c0 .564-.448 1.01-1.012 1.01h-.004c-.175-.003-.383.12-.488.26a7.85 7.85 0 0 1-.398.47c-.134.15-.079.27.123.27h.767A2.018 2.018 0 0 0 15 12.99V5.482A4.49 4.49 0 0 0 10.518 1zm5.625 2A.623.623 0 0 0 8 3.623v1.629c0 .137.11.248.248.248h.129A.623.623 0 0 0 9 4.877v-1.56A.317.317 0 0 0 8.684 3zm-4.22 9.945c-.027.023.026.062.06.062s.06-.022.072-.053c.027-.066-.038-.08-.078-.064-.034.015-.015.023-.055.055zm7.779 1.914c.017-.052.019-.046.05-.045.05.105-.051.048-.05.045z" color="#000" style="-inkscape-stroke:none"/><path fill-opacity=".026" d="M5.623 3A.623.623 0 0 0 5 3.623v1.629c0 .137.11.248.248.248h3.129A.623.623 0 0 0 9 4.877V3.316A.317.317 0 0 0 8.684 3z" color="#000" style="-inkscape-stroke:none"/></svg>