<svg width="16" height="16" version="1.1" xml:space="preserve" xmlns="http://www.w3.org/2000/svg"><path d="m1.998 1c-1.098 0-1.998 0.90005-1.998 1.998v10.02c0 1.09 0.89347 1.9824 1.9805 1.9824h1.8725a0.14702 0.14702 135 0 0 0.14702-0.14702v-0.15686a0.69611 0.69611 45 0 0-0.69611-0.69612h-1.3234c-0.54322 0.004186-0.98465-0.43725-0.98047-0.98047v-10.023c-0.0034054-0.55153 0.44456-0.9995 0.99609-0.99609h7.5215c1.2762-0.002855 2.4346 0.69178 3.0423 1.7814 0.14958 0.26819 0.45428 0.38789 0.75099 0.30964 0.05771-0.015218 0.11598-0.028541 0.17474-0.039931 0.14267-0.027657 0.22243-0.14912 0.16672-0.28339-0.69034-1.6636-2.3166-2.7629-4.1348-2.7677zm5.625 2c-0.34411-2.59e-5 -0.62307 0.27894-0.62305 0.62305v1.6289c0 0.137 0.11005 0.24805 0.24805 0.24805h0.12891c0.34411 2.59e-5 0.62307-0.27894 0.62305-0.62305v-1.5605c-3.268e-4 -0.17461-0.1418-0.31608-0.31641-0.31641zm-2.623 4c-1.138 0-2 0.828-2 2v3.3633c0 0.13 0.10456 0.21492 0.22656 0.16992 0.135-0.051 0.23722-0.11369 0.32422-0.17969 0.265-0.203 0.45117-0.67672 0.45117-1.0117v-2.3418c0-0.603 0.406-1 1-1h3.5898a0.69332 0.69332 157.5 0 0 0.49025-0.20307l0.029354-0.029354c0.19428-0.1609 0.48503-0.24061 0.72948-0.28827 0.20686-0.040336 0.24125-0.17354 0.053057-0.26813-0.26779-0.13459-0.57068-0.21118-0.89386-0.21118zm8.532 4.5891-0.35823 0.35823a0.59318 0.59318 112.5 0 0-0.17374 0.41944v0.62344c0 0.564-0.44772 1.0098-1.0117 1.0098h-0.0039c-0.175-3e-3 -0.38328 0.11977-0.48828 0.25977-0.1266 0.16206-0.25951 0.31908-0.39844 0.4707-0.134 0.15-0.07895 0.26953 0.12305 0.26953h0.76758c1.1088-0.003442 2.0072-0.90092 2.0117-2.0098v-1.2072a0.27417 0.27417 22.5 0 0-0.46803-0.19387zm-10.042 1.2956c-0.011297-9.4e-5 -0.023203 0.0019-0.033203 0.0059-0.034 0.015-0.014687 0.02269-0.054687 0.05469-0.027 0.023 0.026547 0.0625 0.060547 0.0625s0.060266-0.02369 0.072266-0.05469c0.02025-0.0495-0.011031-0.06808-0.044922-0.06836zm7.7422 1.9297c0.05 0.105-0.05178 0.04792-0.05078 0.04492 0.017-0.052 0.01978-0.04592 0.05078-0.04492z" fill="#786d7d" style="-inkscape-stroke:none"/><path d="M 4.623,3 A 0.623,0.623 0 0 0 4,3.623 V 5.252 C 4,5.389 4.11,5.5 4.248,5.5 H 7.377 A 0.623,0.623 0 0 0 8,4.877 V 3.316 A 0.317,0.317 0 0 0 7.684,3 Z" color="#000000" fill-opacity=".026" style="-inkscape-stroke:none"/><g transform="translate(2,4)" fill="#786d7d"><path d="m11.5 1.625c-0.51289 0-1.0256 0.1936-1.4141 0.58203l-0.58594 0.58594c-0.38634 0.38634-0.38634 1.0277 0 1.4141l1.9 1.9 1.293-1.293c0.77686-0.77686 1.1769-1.6513 0.4-2.4281l-0.17891-0.17891c-0.38843-0.38843-0.90117-0.58203-1.4141-0.58203z" color="#000000" opacity=".15" style="-inkscape-stroke:none"/><path d="m12 1c-0.45256 2e-7 -0.88702 0.17999-1.207 0.5l-1.293 1.293c-0.38634 0.38634-0.38634 1.0277 0 1.4141l0.72227 0.72227c0.09785 0.098914 0.25762 0.098914 0.35547 0 0.29285-0.29285 0.29094-0.76765-2e-3 -1.0605l-0.3687-0.36875 1.293-1.293c0.13274-0.13274 0.31227-0.20703 0.5-0.20703 0.18773 1e-7 0.36726 0.074287 0.5 0.20703l0.29297 0.29297c0.13274 0.13274 0.20703 0.31227 0.20703 0.5s-0.074287 0.36726-0.20703 0.5l-7.293 7.293c-0.13274 0.13274-0.31227 0.20703-0.5 0.20703h-1v-1c0-0.18773 0.074287-0.36726 0.20703-0.5l3.9688-3.9688c0.29412-0.2931 0.29412-0.7694 0-1.0625-0.098152-0.097099-0.25644-0.096226-0.35352 0.00195l-4.3223 4.3223c-0.32001 0.32001-0.5 0.75447-0.5 1.207v1c0 0.54636 0.45364 1 1 1h1c0.45256 0 0.88702-0.17999 1.207-0.5l7.293-7.293c0.32001-0.32001 0.5-0.75447 0.5-1.207s-0.17999-0.88702-0.5-1.207l-0.29297-0.29297c-0.32001-0.32001-0.75447-0.5-1.207-0.5z" stroke-linecap="square"/></g></svg>
