<svg width="16" height="16" version="1.1" viewBox="0 0 16 16" xmlns="http://www.w3.org/2000/svg">
 <path d="m6.0918 1c-0.77751 0-1.52 0.32899-2.043 0.9043l-3.6035 3.9629c-0.58096 0.63905-0.58096 1.6266 0 2.2656l3.6035 3.9629c0.52301 0.57531 1.2655 0.9043 2.043 0.9043h0.90039c0.48539 0 0.89162-0.30559 1.0625-0.69336 0.17088-0.38778 0.1205-0.89367-0.20703-1.252l-0.79297-0.74414c-0.0827-0.09046-0.15618-0.18212-0.2207-0.27734-0.06479-0.09561-0.2022-0.19352-0.31641-0.21094l-0.50586-0.076172c-0.18895-0.02882-0.32859 0.1038-0.27539 0.28711 0.13696 0.47194 0.4289 0.78582 0.58008 0.95117l0.79492 0.74609c0.14602 0.11589 0.016609 0.26953-0.11914 0.26953h-0.90039c-0.49629 0-0.96892-0.20894-1.3027-0.57617l-3.6035-3.9629c-0.24008-0.26409-0.24008-0.65779 0-0.92188l3.6035-3.9629c0.33384-0.36723 0.80649-0.57617 1.3027-0.57617h0.90039c0.08936 0 0.12018 0.036003 0.14648 0.095703 0.02631 0.0597 0.032936 0.10789-0.027344 0.17383l-2.4199 2.6465c-0.70241 0.76827-0.79314 1.8086-0.43164 2.6289 0.3615 0.82033 1.1914 1.4551 2.2324 1.4551h0.80859 0.69141 1.5098c0.64493 0 1.0995 0.36711 1.3164 0.85938 0.21693 0.49226 0.18128 1.0748-0.25391 1.5508l-2.418 2.6445c-0.32753 0.35823-0.37791 0.86413-0.20703 1.252 0.17088 0.38777 0.57711 0.69336 1.0625 0.69336h0.90039c0.77751 0 1.52-0.32899 2.043-0.9043l3.6035-3.9629c0.58096-0.63905 0.58096-1.6266 0-2.2656l-3.6035-3.9629c-0.52301-0.57531-1.2655-0.9043-2.043-0.9043h-0.90039c-0.48539 0-0.89162 0.30559-1.0625 0.69336-0.17088 0.38778-0.1205 0.89367 0.20703 1.252l0.79297 0.74414c0.082699 0.09046 0.15618 0.18212 0.2207 0.27734 0.064786 0.09561 0.2022 0.19352 0.31641 0.21094l0.50586 0.076172c0.18895 0.02882 0.32859-0.1038 0.27539-0.28711-0.13696-0.47194-0.4289-0.78582-0.58008-0.95117l-0.79492-0.74609c-0.14602-0.11589-0.016611-0.26953 0.11914-0.26953h0.90039c0.49629 0 0.96697 0.20894 1.3008 0.57617l3.6035 3.9629c0.24008 0.26409 0.24008 0.65779 0 0.92188l-3.6035 3.9629c-0.33384 0.36723-0.80453 0.57617-1.3008 0.57617h-0.90039c-0.089356 0-0.12018-0.036003-0.14648-0.095703-0.026309-0.0597-0.032945-0.10789 0.027344-0.17383l2.4199-2.6465c0.70241-0.76827 0.79314-1.8086 0.43164-2.6289-0.3615-0.82033-1.1914-1.4551-2.2324-1.4551h-1.5098-0.69141-0.80859c-0.64493 0-1.0995-0.36711-1.3164-0.85938-0.21693-0.49226-0.18128-1.0748 0.25391-1.5508l2.418-2.6445c0.32753-0.35823 0.37791-0.86413 0.20703-1.252-0.17088-0.38777-0.57711-0.69336-1.0625-0.69336h-0.90039z" fill="#786d7d" style="-inkscape-stroke:none"/>
</svg>
