<?xml version="1.0" encoding="UTF-8" standalone="no"?>
<svg
   width="16"
   height="16"
   version="1.1"
   viewBox="0 0 16 16"
   id="svg6"
   sodipodi:docname="download-later.svg"
   inkscape:version="1.2.2 (b0a8486541, 2022-12-01)"
   xmlns:inkscape="http://www.inkscape.org/namespaces/inkscape"
   xmlns:sodipodi="http://sodipodi.sourceforge.net/DTD/sodipodi-0.dtd"
   xmlns="http://www.w3.org/2000/svg"
   xmlns:svg="http://www.w3.org/2000/svg">
  <defs
     id="defs10" />
  <sodipodi:namedview
     id="namedview8"
     pagecolor="#ffffff"
     bordercolor="#666666"
     borderopacity="1.0"
     inkscape:showpageshadow="2"
     inkscape:pageopacity="0.0"
     inkscape:pagecheckerboard="0"
     inkscape:deskcolor="#d1d1d1"
     showgrid="true"
     inkscape:zoom="54.410729"
     inkscape:cx="11.532652"
     inkscape:cy="10.301277"
     inkscape:window-width="2547"
     inkscape:window-height="1416"
     inkscape:window-x="3164"
     inkscape:window-y="409"
     inkscape:window-maximized="0"
     inkscape:current-layer="svg6">
    <inkscape:grid
       type="xygrid"
       id="grid441" />
  </sodipodi:namedview>
  <path
     id="path2"
     style="paint-order:markers stroke fill;opacity:0.05650363"
     d="M 12.550781 8.8398438 L 9.1289062 11.951172 C 8.4899076 12.532131 7.50228 12.532131 6.8632812 11.951172 L 3.4492188 8.8476562 L 2.6347656 9.6621094 C 2.6617968 9.8836381 2.5922657 10.115356 2.421875 10.285156 L 1.2070312 11.5 C 1.0742882 11.63274 1 11.81227 1 12 L 1 14.5 C 1 14.78206 1.2179406 15 1.5 15 L 14.5 15 C 14.78206 15 15 14.78206 15 14.5 L 15 12 C 15 11.81227 14.925706 11.632743 14.792969 11.5 L 13.578125 10.285156 C 13.406113 10.113803 13.338012 9.8797193 13.367188 9.65625 L 12.550781 8.8398438 z M 11.517578 11.134766 C 11.838401 11.134766 12 11.365055 12 11.701172 L 12 13 L 13 13 C 13.277 13 13.5 13.223 13.5 13.5 C 13.5 13.777 13.277 14 13 14 L 11.5 14 C 11.165514 14 11 13.84149 11 13.474609 L 11 11.705078 C 11 11.391509 11.166001 11.134766 11.517578 11.134766 z " />
  <path
     id="path4"
     style="opacity:0.6;fill:#786d7d;fill-opacity:1;-inkscape-stroke:none"
     d="M 8.0078125,0.01289062 C 6.8907136,0.01559062 5.9926938,0.9120692 5.9960938,2.0050781 L 6,3.3 5.9960938,6.2050781 C 5.9942238,7.2460771 6.6308227,8.0760004 7.4511719,8.4375 8.2714711,8.7989996 9.3117789,8.7082687 10.080078,8.0058594 l 2.646484,-2.4199219 c 0.06594,-0.060289 0.114129,-0.053653 0.173829,-0.027344 0.0597,0.0263 0.0957,0.057132 0.0957,0.1464843 v 0.6 c 0,0.4962495 -0.208942,0.9689247 -0.576172,1.3027344 L 8.4570312,11.211328 c -0.2640897,0.24008 -0.6577852,0.24008 -0.921875,0 L 3.5722656,7.6078125 C 3.205036,7.2740028 2.9960938,6.8013376 2.9960938,6.3050781 v -0.6 c 0,-0.1357498 0.1536413,-0.2651605 0.2695312,-0.1191406 L 4.0117188,6.3808594 C 4.1770686,6.5320392 4.4909511,6.8239776 4.9628906,6.9609375 5.1462004,7.0141374 5.27882,6.8744957 5.25,6.6855469 L 5.1738281,6.1796875 C 5.1564081,6.0654776 5.0585005,5.9280712 4.9628906,5.8632812 4.8676707,5.7987613 4.7760068,5.725278 4.6855469,5.6425781 L 3.9414062,4.8496094 C 3.5831266,4.5220797 3.0772827,4.4716983 2.6894531,4.6425781 2.3016835,4.813458 1.9960938,5.2196886 1.9960938,5.7050781 v 0.6 c 0,0.7774992 0.3289874,1.5199693 0.9042968,2.0429688 l 3.9628906,3.6035151 c 0.6389994,0.58096 1.6266257,0.58096 2.265625,0 L 13.091797,8.3480469 c 0.575309,-0.5229995 0.904297,-1.2654696 0.904297,-2.0429688 v -0.6 c 0,-0.4853895 -0.30559,-0.8916201 -0.69336,-1.0625 C 12.914915,4.4716983 12.409061,4.5220797 12.050781,4.8496094 L 9.40625,7.2675781 C 8.9302505,7.7027677 8.3477683,7.7384142 7.8554688,7.5214844 7.3631992,7.3045846 6.9949338,6.8499975 6.9960938,6.2050781 L 7,3.3 6.9960938,2.0050781 C 6.9944038,1.4516587 7.4336862,1.0142006 8.0097656,1.0128906 8.585845,1.0115806 9.00193,1.4512718 9,2.0070312 v 1.9628907 c 7.001e-4,0.1510838 0.1596833,0.2490003 0.2949219,0.1816406 L 9.7050781,3.9484375 C 9.8861965,3.8577886 10.000423,3.6724582 10,3.4699219 V 2.0109375 C 10.0038,0.9127386 9.1249214,0.01019063 8.0078125,0.01289062 Z"
     sodipodi:nodetypes="scccccccssccccsscccccccccssccccsscccccccsccccccs" />
  <path
     id="path5049"
     style="fill:#786d7d;fill-opacity:1;-inkscape-stroke:none"
     d="M 2.2464844,9.15 C 2.2248564,9.149916 2.2034914,9.1521 2.1820314,9.1578 2.1390284,9.16944 2.0999174,9.19237 2.0687502,9.22421 L 0.5,10.792969 C 0.17999153,11.112979 0,11.54747 0,12 v 2.5 C 0,15.322499 0.6775008,16 1.5,16 h 13 C 15.322499,16 16,15.322499 16,14.5 V 12 c 0,-0.45256 -0.17999,-0.887052 -0.5,-1.207031 l -1.56875,-1.56875 c -0.09785,-0.09892 -0.257623,-0.09892 -0.355469,0 -0.292274,0.293401 -0.291447,0.768223 0.002,1.060547 L 14.792969,11.5 C 14.925706,11.632743 15,11.81227 15,12 v 2.5 C 15,14.78206 14.78206,15 14.5,15 H 1.5 C 1.2179403,15 1,14.78206 1,14.5 V 12 c 0,-0.18773 0.074288,-0.36726 0.2070312,-0.5 l 1.2152344,-1.215234 c 0.2941216,-0.293102 0.2941216,-0.769399 0,-1.0625 C 2.3750577,9.175293 2.3113679,9.150253 2.2464844,9.15 Z m 9.2710936,1.984375 C 11.166001,11.134375 11,11.391119 11,11.704688 v 1.769921 C 11,13.84149 11.165514,14 11.5,14 H 13 c 0.277,0 0.5,-0.223 0.5,-0.5 C 13.5,13.223 13.277,13 13,13 h -1 v -1.299219 c 0,-0.336117 -0.161599,-0.566406 -0.482422,-0.566406 z"
     sodipodi:nodetypes="sccsssssssccccssssssscccsssccssscss" />
</svg>
