<svg width="16" height="16" version="1.1" viewBox="0 0 16 16" xmlns="http://www.w3.org/2000/svg">
 <path d="m8 14c-0.4854 0-0.9362-0.2581-1.184-0.6758l-5.959-10.08c-0.265-0.4482-0.2852-1.001-0.05273-1.467 0.2362-0.4725 0.7217-0.7735 1.25-0.7734h11.89c0.5274-0.0017 1.014 0.2968 1.252 0.7676 0.2342 0.4679 0.2139 1.024-0.05273 1.475l-5.957 10.08c-0.2474 0.4177-0.6981 0.6758-1.184 0.6758z" color="#000000" fill="#786d7d" opacity=".16" style="-inkscape-stroke:none;paint-order:fill markers stroke"/>
 <path d="m8 14c-0.4859 0-0.9383-0.2574-1.186-0.6758l-5.957-10.08c-0.2645-0.448-0.285-1.001-0.05273-1.467v-2e-3c0.2362-0.4724 0.7218-0.7714 1.25-0.7714h11.89c0.5277-0.0015 1.015 0.2962 1.252 0.7676v2e-3c0.2337 0.4673 0.215 1.023-0.05078 1.473l-2.437 4.122c-0.2104 0.356-0.6703 0.4727-1.025 0.2602-0.1185-0.07113-0.1573-0.2246-0.08684-0.3434l2.687-4.547c0.09371-0.1586 0.09996-0.3528 0.01758-0.5176-0.06836-0.1334-0.2034-0.2172-0.3535-0.2168h-11.89c-0.1516 0-0.2877 0.08319-0.3555 0.2188-0.08158 0.1636-0.07361 0.3564 0.01953 0.5137l5.957 10.08c0.06808 0.1152 0.1904 0.1855 0.3242 0.1855s0.2561-0.07034 0.3242-0.1855l2.003-3.389c0.2103-0.3558 0.6701-0.4721 1.024-0.2592l4.46e-4 2.683e-4c0.1186 0.07132 0.1575 0.2249 0.08707 0.3441l-2.254 3.814c-0.2472 0.4184-0.6996 0.6758-1.186 0.6758z" color="#000000" fill="#786d7d" style="-inkscape-stroke:none;paint-order:fill markers stroke"/>
</svg>
