<svg width="16" height="16" version="1.1" viewBox="0 0 16 16" xmlns="http://www.w3.org/2000/svg">
 <path d="m15 8c0-0.4854-0.2581-0.9362-0.6758-1.184l-10.08-5.959c-0.4482-0.265-1.001-0.2852-1.467-0.05273-0.4725 0.2362-0.7735 0.7217-0.7734 1.25v11.89c-0.0017 0.5274 0.2968 1.014 0.7676 1.252 0.4679 0.2342 1.024 0.2139 1.475-0.05273l10.08-5.957c0.4177-0.2474 0.6758-0.6981 0.6758-1.184z" color="#000000" fill="#786d7d" opacity=".16" style="-inkscape-stroke:none;paint-order:fill markers stroke"/>
 <path d="m15 8c0-0.4859-0.2574-0.9383-0.6758-1.186l-10.08-5.957c-0.448-0.2645-1.001-0.285-1.467-0.05273h-2e-3c-0.4724 0.2362-0.7714 0.7218-0.7714 1.25v11.89c-0.0015 0.5277 0.2962 1.015 0.7676 1.252h2e-3c0.4673 0.2337 1.023 0.215 1.473-0.05078l4.122-2.437c0.356-0.2104 0.4727-0.6703 0.2602-1.025-0.07113-0.1185-0.2246-0.1573-0.3434-0.08684l-4.547 2.687c-0.1586 0.09371-0.3528 0.09996-0.5176 0.01758-0.1334-0.06836-0.2172-0.2034-0.2168-0.3535v-11.89c0-0.1516 0.08319-0.2877 0.2188-0.3555 0.1636-0.08158 0.3564-0.07361 0.5137 0.01953l10.08 5.957c0.1152 0.06808 0.1855 0.1904 0.1855 0.3242s-0.07034 0.2561-0.1855 0.3242l-3.389 2.003c-0.3558 0.2103-0.4726 0.6704-0.2592 1.024l2.69e-4 4.46e-4c0.07147 0.1185 0.2249 0.1575 0.3441 0.08707l3.814-2.254c0.4184-0.2472 0.6758-0.6996 0.6758-1.186z" color="#000000" fill="#786d7d" style="-inkscape-stroke:none;paint-order:fill markers stroke"/>
</svg>
