<svg width="16" height="16" version="1.1" viewBox="0 0 16 16" xmlns="http://www.w3.org/2000/svg">
 <path d="m4.1989 8.5 3.5 3.5h-0.98895l-2.5 2.5h-2.7099l-0.5-1.5 3-3 0.19887-1.5" fill="#786d7d" opacity=".17"/>
 <path d="m11.5 0.625c-0.51289 0-1.0256 0.1936-1.4141 0.58203l-6.7637 6.7617c-0.2887 0.2887-0.2887 0.7738 0 1.0625l0.11719 0.11523c0.19945 0.19945 0.19945 0.50758 0 0.70703l-2.5859 2.5859c-0.5816 0.5816-0.5816 1.5395 0 2.1211l0.085938 0.085937c0.22638 0.22638 0.53337 0.35352 0.85352 0.35352h9.957c0.13807 0 0.25-0.11193 0.25-0.25 0-0.41421-0.33579-0.75-0.75-0.75h-9.293a0.55226 0.55226 0 0 1-0.39648-0.14648c-0.19945-0.19945-0.19945-0.50758 0-0.70703l2.5859-2.5859c0.55759-0.55759 0.54671-1.447 0.035156-2.0332l6.6113-6.6133c0.39471-0.39471 1.0194-0.39471 1.4141 0l1.8789 1.8789c0.39471 0.39471 0.39471 1.0194 0 1.4141l-6.6133 6.6113c-0.58616-0.51155-1.4756-0.52243-2.0332 0.035157l-0.26172 0.26172c-0.29289 0.29289-0.29289 0.76961 0 1.0625 0.097631 0.09759 0.25593 0.095682 0.35352-0.001953l0.61523-0.61523c0.19945-0.19945 0.50758-0.19945 0.70703 0l0.11523 0.11719c0.2887 0.28871 0.7738 0.28871 1.0625 0l6.7617-6.7637c0.77686-0.77686 0.77686-2.0513 0-2.8281l-1.8789-1.8789c-0.38843-0.38843-0.90117-0.58203-1.4141-0.58203zm2 13.375a0.5 0.5 0 0 0-0.5 0.5 0.5 0.5 0 0 0 0.5 0.5 0.5 0.5 0 0 0 0.5-0.5 0.5 0.5 0 0 0-0.5-0.5z" color="#000000" fill="#786d7d" style="-inkscape-stroke:none"/>
</svg>
