<?xml version="1.0" encoding="UTF-8" standalone="no"?>
<svg
   width="16"
   height="16"
   version="1.1"
   viewBox="0 0 16 16"
   id="svg4"
   sodipodi:docname="draw-brush.svg"
   inkscape:version="1.1.2 (0a00cf5339, 2022-02-04)"
   xmlns:inkscape="http://www.inkscape.org/namespaces/inkscape"
   xmlns:sodipodi="http://sodipodi.sourceforge.net/DTD/sodipodi-0.dtd"
   xmlns="http://www.w3.org/2000/svg"
   xmlns:svg="http://www.w3.org/2000/svg">
  <defs
     id="defs8" />
  <sodipodi:namedview
     id="namedview6"
     pagecolor="#ffffff"
     bordercolor="#000000"
     borderopacity="0.25"
     inkscape:pageshadow="2"
     inkscape:pageopacity="0.0"
     inkscape:pagecheckerboard="0"
     showgrid="true"
     inkscape:zoom="22.882199"
     inkscape:cx="7.51676"
     inkscape:cy="3.6928269"
     inkscape:window-width="1648"
     inkscape:window-height="981"
     inkscape:window-x="136"
     inkscape:window-y="10"
     inkscape:window-maximized="1"
     inkscape:current-layer="svg4">
    <inkscape:grid
       type="xygrid"
       id="grid825" />
  </sodipodi:namedview>
  <path
     style="fill:#786d7d;fill-opacity:0.15;stroke-linecap:square;stroke-opacity:0.15;paint-order:fill markers stroke"
     d="M 6,9 H 4 l -2,3 -1,1 h 4 l 1,-1 z"
     id="path860" />
  <path
     d="m14.322 1c-0.33027 0.0079-0.65988 0.11081-0.94336 0.3125l0.01172-0.00977-5.5 3.6719c-1.1053 0.7377-1.887 2.1957-1.8887 3.5254-8.509e-4 0.66692-0.0018515 1.3332-0.0019531 2-2.114e-4 1.3868-1.1134 2.5-2.5 2.5h-1.6973c0.7286-0.43901 1.2394-1.1638 1.4062-1.998l0.064453-0.31836c0.08007-0.40035 0.31829-0.68359 0.72656-0.68359h0.26562c0.41421 0 0.75-0.33579 0.75-0.75 0-0.13807-0.11193-0.25-0.25-0.25h-0.76562c-0.87883 0-1.5347 0.62456-1.707 1.4863l-0.064453 0.31836c-0.11207 0.56036-0.45529 1.0478-0.94531 1.3418l-0.25391 0.15234c-0.36888 0.22133-0.51054 0.67394-0.41211 1.0293s0.45263 0.67188 0.88281 0.67188h2c1.9271 0 3.4997-1.5731 3.5-3.5 1.016e-4 -0.66655 0.0011-1.3336 0.00195-2 0.00112-0.87946 0.71312-2.2066 1.4453-2.6953l5.5039-3.6738 0.0078-0.00391c0.26655-0.18965 0.61774-0.1634 0.86328 0.050781 0.22194 0.22074 0.25432 0.55951 0.0625 0.80859l-3.5605 4.6231c-0.67506 0.87659-1.8242 1.3906-2.3242 1.3906h-0.25c-0.41421 0-0.75 0.33579-0.75 0.75 0 0.13807 0.11193 0.25 0.25 0.25h0.25c1.4159 0 2.7533-0.65752 3.6172-1.7793l3.5586-4.623c0.5003-0.64967 0.43117-1.5823-0.16016-2.1504l-0.0059-0.00586-0.0039-0.00586c-0.29475-0.26677-0.66599-0.4115-1.0429-0.43359-0.047118-0.0027621-0.093444-0.0030815-0.14062-0.0019531zm-13.935 12.784c-0.058549 3.9e-5 -0.10604 0.03496-0.10626 0.07813-6.3884e-4 0.04361 0.047107 0.07922 0.10626 0.07926 0.059152-3.7e-5 0.1069-0.07314 0.10626-0.11676-2.1349e-4 -0.04317-0.047709-0.04059-0.10626-0.04064z"
     color="#000000"
     fill="#786d7d"
     stroke-linecap="square"
     style="-inkscape-stroke:none;paint-order:markers stroke fill"
     id="path2" />
</svg>
