<?xml version="1.0" encoding="UTF-8" standalone="no"?>
<svg
   version="1.1"
   viewBox="0 0 16 16"
   id="svg11"
   sodipodi:docname="draw-ellipse.svg"
   inkscape:version="1.2.2 (b0a8486541, 2022-12-01)"
   xmlns:inkscape="http://www.inkscape.org/namespaces/inkscape"
   xmlns:sodipodi="http://sodipodi.sourceforge.net/DTD/sodipodi-0.dtd"
   xmlns="http://www.w3.org/2000/svg"
   xmlns:svg="http://www.w3.org/2000/svg">
  <sodipodi:namedview
     id="namedview13"
     pagecolor="#ffffff"
     bordercolor="#000000"
     borderopacity="0.25"
     inkscape:showpageshadow="2"
     inkscape:pageopacity="0.0"
     inkscape:pagecheckerboard="0"
     inkscape:deskcolor="#d1d1d1"
     showgrid="true"
     inkscape:zoom="64"
     inkscape:cx="6.46875"
     inkscape:cy="7.6171875"
     inkscape:window-width="2560"
     inkscape:window-height="1367"
     inkscape:window-x="0"
     inkscape:window-y="0"
     inkscape:window-maximized="1"
     inkscape:current-layer="svg11">
    <inkscape:grid
       type="xygrid"
       id="grid296" />
    <inkscape:grid
       type="xygrid"
       id="grid298"
       spacingx="0.5"
       spacingy="0.5"
       empspacing="1"
       empcolor="#0099e5"
       empopacity="0.0745098" />
  </sodipodi:namedview>
  <defs
     id="defs3">
    <inkscape:path-effect
       effect="fillet_chamfer"
       id="path-effect1977"
       is_visible="true"
       lpeversion="1"
       nodesatellites_param="F,0,0,1,0,0,0,1 @ F,0,0,1,0,0,0,1 @ F,0,0,1,0,0,0,1 @ F,0,0,1,0,0,0,1 @ F,0,0,1,0,0,0,1 @ F,0,0,1,0,0.75,0,1 @ F,0,1,1,0,0.25,0,1 @ F,0,0,1,0,0,0,1 @ F,0,0,1,0,0,0,1 @ F,0,0,1,0,0,0,1 @ F,0,0,1,0,0,0,1 @ F,0,0,1,0,0,0,1 @ F,0,0,1,0,0,0,1 @ F,0,0,1,0,0,0,1 @ F,0,0,1,0,0.75,0,1 @ F,0,1,1,0,0.25,0,1 @ F,0,0,1,0,0,0,1 @ F,0,0,1,0,0,0,1"
       unit="px"
       method="auto"
       mode="F"
       radius="0.25"
       chamfer_steps="1"
       flexible="false"
       use_knot_distance="true"
       apply_no_radius="true"
       apply_with_radius="true"
       only_selected="true"
       hide_knots="false" />
    <style
       type="text/css"
       id="current-color-scheme">.ColorScheme-Text {
        color:#232629;
      }</style>
  </defs>
  <path
     id="path1973"
     style="opacity:0.15;fill:#786d7d;stroke-width:1.5;paint-order:markers stroke fill"
     d="M 16,8 A 8,6 0 0 1 8,14 8,6 0 0 1 0,8 8,6 0 0 1 8,2 8,6 0 0 1 16,8 Z" />
  <path
     id="path914"
     style="color:#000000;fill:#786d7d;-inkscape-stroke:none;paint-order:markers stroke fill"
     d="M 8,2 C 5.8298559,2 3.8554233,2.6400073 2.4003906,3.7070312 0.94535807,4.7740551 0,6.2969794 0,8 0,9.7030206 0.94535807,11.225945 2.4003906,12.292969 3.8554233,13.359993 5.8298559,14 8,14 c 1.1987617,0 2.337811,-0.195559 3.36258,-0.550336 0.391305,-0.135471 0.529623,-0.564422 0.321961,-0.92282 l -0.0045,-0.0078 C 11.610803,12.39958 11.451748,12.346762 11.323027,12.396692 10.337288,12.779053 9.2052753,13 8,13 6.0280168,13 4.2516155,12.409909 2.9921875,11.486328 1.7327595,10.562748 1,9.3345395 1,8 1,6.6654605 1.7327595,5.4372525 2.9921875,4.5136719 4.2516155,3.5900913 6.0280168,3 8,3 9.9719832,3 11.748384,3.5900913 13.007812,4.5136719 14.26724,5.4372525 15,6.6654605 15,8 c 0,1.1154584 -0.511924,2.156631 -1.415428,3.007726 -0.301296,0.283819 -0.378131,0.74934 -0.13311,1.083313 l 2.64e-4,3.6e-4 c 0.08167,0.111324 0.238454,0.135735 0.346892,0.05028 C 15.140252,11.084372 16,9.6240797 16,8 16,6.2969794 15.054642,4.7740551 13.599609,3.7070312 12.144577,2.6400073 10.170144,2 8,2 Z"
     sodipodi:nodetypes="sssssccsssssssccsss" />
</svg>
