<?xml version="1.0" encoding="UTF-8" standalone="no"?>
<!-- Created with Inkscape (http://www.inkscape.org/) -->

<svg
   width="16"
   height="16"
   viewBox="0 0 16 16"
   version="1.1"
   id="svg1525"
   inkscape:version="1.2.2 (b0a8486541, 2022-12-01)"
   sodipodi:docname="draw-freehand.svg"
   xmlns:inkscape="http://www.inkscape.org/namespaces/inkscape"
   xmlns:sodipodi="http://sodipodi.sourceforge.net/DTD/sodipodi-0.dtd"
   xmlns="http://www.w3.org/2000/svg"
   xmlns:svg="http://www.w3.org/2000/svg">
  <sodipodi:namedview
     id="namedview1527"
     pagecolor="#ffffff"
     bordercolor="#000000"
     borderopacity="0.23921569"
     inkscape:showpageshadow="false"
     inkscape:pageopacity="0.0"
     inkscape:pagecheckerboard="0"
     inkscape:deskcolor="#ffffff"
     inkscape:document-units="px"
     showgrid="true"
     showborder="true"
     guidecolor="#1fca00"
     guideopacity="0.6"
     showguides="true"
     inkscape:zoom="45.254834"
     inkscape:cx="17.755009"
     inkscape:cy="7.0600193"
     inkscape:window-width="2560"
     inkscape:window-height="1367"
     inkscape:window-x="0"
     inkscape:window-y="0"
     inkscape:window-maximized="1"
     inkscape:current-layer="svg1525">
    <inkscape:grid
       type="xygrid"
       id="grid1656"
       empspacing="4"
       color="#0099e5"
       opacity="0.05882353"
       empcolor="#0099e5"
       empopacity="0.18039216"
       dotted="false" />
    <inkscape:grid
       type="xygrid"
       id="grid130"
       empspacing="1"
       spacingx="0.5"
       spacingy="0.5"
       empcolor="#0099e5"
       empopacity="0.05490196"
       color="#0099e5"
       opacity="0" />
  </sodipodi:namedview>
  <defs
     id="defs1522">
    <inkscape:path-effect
       effect="fillet_chamfer"
       id="path-effect4137"
       is_visible="true"
       lpeversion="1"
       nodesatellites_param="F,0,0,1,0,0,0,1 @ F,0,0,1,0,0,0,1 @ F,0,0,1,0,0,0,1 @ F,0,0,1,0,0,0,1 @ F,0,0,1,0,0,0,1 @ F,0,0,1,0,0,0,1 @ F,0,0,1,0,0,0,1 @ F,0,0,1,0,0,0,1 @ F,0,0,1,0,0,0,1 @ F,0,0,1,0,0.75,0,1 @ F,0,1,1,0,0.25,0,1 @ F,0,0,1,0,0,0,1 @ F,0,0,1,0,0,0,1 @ F,0,0,1,0,0,0,1 @ F,0,0,1,0,0,0,1 @ F,0,0,1,0,0,0,1 @ F,0,0,1,0,0,0,1 @ F,0,0,1,0,0,0,1 @ F,0,0,1,0,0,0,1 @ F,0,0,1,0,0,0,1 @ F,0,0,1,0,0,0,1 @ F,0,0,1,0,0.25,0,1 @ F,0,0,1,0,0.75,0,1 @ F,0,0,1,0,0,0,1 @ F,0,0,1,0,0,0,1 @ F,0,0,1,0,0,0,1"
       unit="px"
       method="auto"
       mode="F"
       radius="0.25"
       chamfer_steps="1"
       flexible="false"
       use_knot_distance="true"
       apply_no_radius="true"
       apply_with_radius="true"
       only_selected="true"
       hide_knots="false" />
    <inkscape:path-effect
       effect="fillet_chamfer"
       id="path-effect4131"
       is_visible="true"
       lpeversion="1"
       nodesatellites_param="F,0,0,1,0,0,0,1 @ F,0,0,1,0,1,0,1 @ F,0,0,1,0,1.1524948,0,1 @ F,0,0,1,0,1.0606601,0,1 @ F,0,0,1,0,0.5,0,1 @ F,0,0,1,0,1,0,1 @ F,0,0,1,0,1,0,1 @ F,0,0,1,0,0,0,1"
       unit="px"
       method="auto"
       mode="F"
       radius="0.5"
       chamfer_steps="1"
       flexible="false"
       use_knot_distance="true"
       apply_no_radius="true"
       apply_with_radius="true"
       only_selected="true"
       hide_knots="false" />
    <inkscape:path-effect
       effect="fillet_chamfer"
       id="path-effect2931"
       is_visible="true"
       lpeversion="1"
       nodesatellites_param="F,0,0,1,0,0,0,1 @ F,0,0,1,0,0,0,1 @ F,0,0,1,0,0,0,1 @ F,0,0,1,0,0,0,1 @ F,0,1,1,0,0.25,0,1 @ F,0,0,1,0,0.75,0,1 @ F,0,0,1,0,0,0,1 @ F,0,0,1,0,0,0,1 @ F,0,0,1,0,0,0,1 @ F,0,0,1,0,0,0,1 @ F,0,0,1,0,0,0,1 @ F,0,0,1,0,0,0,1 @ F,0,0,1,0,0,0,1 @ F,0,0,1,0,0,0,1 @ F,0,0,1,0,0,0,1 @ F,0,0,1,0,0,0,1 @ F,0,0,1,0,0.75,0,1 @ F,0,1,1,0,0.25,0,1 @ F,0,0,1,0,0,0,1 @ F,0,0,1,0,0,0,1 @ F,0,0,1,0,0,0,1 @ F,0,0,1,0,0,0,1 @ F,0,0,1,0,0,0,1 @ F,0,0,1,0,0,0,1 @ F,0,0,1,0,0,0,1 @ F,0,0,1,0,0,0,1 @ F,0,0,1,0,0,0,1"
       unit="px"
       method="auto"
       mode="F"
       radius="0.25"
       chamfer_steps="1"
       flexible="false"
       use_knot_distance="true"
       apply_no_radius="true"
       apply_with_radius="true"
       only_selected="true"
       hide_knots="false" />
    <inkscape:path-effect
       effect="fillet_chamfer"
       id="path-effect2923"
       is_visible="true"
       lpeversion="1"
       nodesatellites_param="F,0,0,1,0,0,0,1 @ F,0,1,1,0,0.5,0,1 @ F,0,0,1,0,0,0,1 @ F,0,0,1,0,0,0,1 @ F,0,0,1,0,0,0,1 @ F,0,0,1,0,0,0,1"
       unit="px"
       method="auto"
       mode="F"
       radius="0.5"
       chamfer_steps="1"
       flexible="false"
       use_knot_distance="true"
       apply_no_radius="true"
       apply_with_radius="true"
       only_selected="true"
       hide_knots="false" />
    <inkscape:path-effect
       effect="fillet_chamfer"
       id="path-effect2921"
       is_visible="true"
       lpeversion="1"
       nodesatellites_param="F,0,0,1,0,1.5,0,1 @ F,0,0,1,0,0,0,1 @ F,0,0,1,0,0,0,1 @ F,0,0,1,0,1.5,0,1"
       unit="px"
       method="auto"
       mode="F"
       radius="1.5"
       chamfer_steps="1"
       flexible="false"
       use_knot_distance="true"
       apply_no_radius="true"
       apply_with_radius="true"
       only_selected="false"
       hide_knots="false" />
    <inkscape:path-effect
       effect="fillet_chamfer"
       id="path-effect2919"
       is_visible="true"
       lpeversion="1"
       nodesatellites_param="F,0,0,1,0,0,0,1 @ F,0,0,1,0,0.5,0,1 @ F,0,1,1,0,0.5,0,1 @ F,0,0,1,0,0.5,0,1 @ F,0,0,1,0,1.5,0,1 @ F,0,0,1,0,1.5,0,1 @ F,0,0,1,0,0.5,0,1 @ F,0,0,1,0,0,0,1"
       unit="px"
       method="auto"
       mode="F"
       radius="0.5"
       chamfer_steps="1"
       flexible="false"
       use_knot_distance="true"
       apply_no_radius="true"
       apply_with_radius="true"
       only_selected="true"
       hide_knots="false" />
    <inkscape:path-effect
       effect="fillet_chamfer"
       id="path-effect2911"
       is_visible="true"
       lpeversion="1"
       nodesatellites_param="F,0,0,1,0,0,0,1 @ F,0,0,1,0,1.5,0,1 @ F,0,0,1,0,1.1,0,1 @ F,0,0,1,0,1.4,0,1 @ F,0,0,1,0,0,0,1"
       unit="px"
       method="auto"
       mode="F"
       radius="0"
       chamfer_steps="1"
       flexible="false"
       use_knot_distance="true"
       apply_no_radius="true"
       apply_with_radius="true"
       only_selected="false"
       hide_knots="false" />
    <inkscape:path-effect
       effect="fillet_chamfer"
       id="path-effect2909"
       is_visible="true"
       lpeversion="1"
       nodesatellites_param="F,0,0,1,0,0,0,1 @ F,0,0,1,0,1.0914103,0,1 @ F,0,0,1,0,0.9701425,0,1 @ F,0,0,1,0,0,0,1"
       unit="px"
       method="auto"
       mode="F"
       radius="0"
       chamfer_steps="1"
       flexible="false"
       use_knot_distance="true"
       apply_no_radius="true"
       apply_with_radius="true"
       only_selected="false"
       hide_knots="false" />
    <clipPath
       clipPathUnits="userSpaceOnUse"
       id="clipath_lpe_path-effect481">
      <circle
         style="display:none;fill:#c8c8c8;fill-opacity:1;stroke:none;stroke-width:0.1;stroke-linecap:square;stroke-miterlimit:4;stroke-dasharray:none;stroke-opacity:1"
         id="circle487"
         cx="-79"
         cy="120"
         r="8" />
    </clipPath>
    <inkscape:path-effect
       effect="powerclip"
       id="path-effect481"
       is_visible="true"
       lpeversion="1"
       inverse="true"
       flatten="false"
       hide_clip="false"
       message="Use fill-rule evenodd on &lt;b&gt;fill and stroke&lt;/b&gt; dialog if no flatten result after convert clip to paths." />
    <clipPath
       clipPathUnits="userSpaceOnUse"
       id="clipath_lpe_path-effect485">
      <rect
         style="display:block;fill:#c8c8c8;fill-opacity:1;stroke:none;stroke-width:0.2;stroke-linecap:square;stroke-miterlimit:4;stroke-dasharray:none;stroke-opacity:1"
         id="rect492"
         width="16"
         height="16"
         x="-87"
         y="112" />
    </clipPath>
    <inkscape:path-effect
       effect="powerclip"
       id="path-effect485"
       is_visible="true"
       lpeversion="1"
       inverse="true"
       flatten="false"
       hide_clip="false"
       message="Use fill-rule evenodd on &lt;b&gt;fill and stroke&lt;/b&gt; dialog if no flatten result after convert clip to paths." />
  </defs>
  <path
     style="color:#000000;fill:#786d7d;stroke-linecap:square;-inkscape-stroke:none"
     d="m 2.5,8.4804688 c -0.4239568,0 -0.8473932,0.1598932 -1.1679688,0.4804687 l -0.00781,0.00781 -0.00586,0.00586 C 0.75641578,9.5824619 0.72577438,10.521803 1.2480469,11.164063 l 0.5527343,0.736328 C 1.930646,12.073544 2,12.283559 2,12.5 2,12.782064 1.7820644,13 1.5,13 1.2179356,13 1,12.782064 1,12.5 A 0.63737744,0.63737744 33.690068 0 0 0.25,12 0.25,0.25 135 0 0 0,12.25 V 12.5 C 0,13.322504 0.67749602,14 1.5,14 2.322504,14 3,13.322504 3,12.5 3,12.067331 2.8592106,11.646916 2.5996094,11.300781 L 2.03125,10.541016 2.02344,10.533216 C 1.813753,10.275346 1.8337774,9.91566 2.0527344,9.6679688 c 0.2593574,-0.2475931 0.6530417,-0.2551614 0.9082031,0 L 7.4394531,14.146484 C 7.9858378,14.692869 8.7272954,15 9.5,15 h 0.75 A 0.25,0.25 135 0 0 10.5,14.75 0.75,0.75 45 0 0 9.75,14 H 9.5 C 8.9921274,14 8.5056045,13.798573 8.1464844,13.439453 L 3.6679688,8.9609375 C 3.3473932,8.640362 2.9239568,8.4804688 2.5,8.4804688 Z"
     id="path4129"
     sodipodi:nodetypes="ssccccsssccsssccccsssccssss" />
  <path
     id="path2987-3"
     style="color:#000000;opacity:0.15;fill:#786d7d;-inkscape-stroke:none"
     d="m 5.5,0.6249993 c 0.512889,0 1.025634,0.1936015 1.414062,0.5820312 L 7.5,1.7929681 c 0.386336,0.3863357 0.386336,1.0277267 0,1.4140624 l -3,3 -1.292969,-1.2929687 c -0.776858,-0.7768594 -0.776858,-2.0512656 0,-2.828125 L 4.085937,1.2070305 C 4.474367,0.8186008 4.98711,0.6249993 5.5,0.6249993 Z" />
  <path
     id="rect300"
     style="fill:#786d7d;stroke-linecap:square"
     d="m 7.5,4.9999993 c -0.277001,0 -0.5,0.223 -0.5,0.5 0,0.277 0.222999,0.5 0.5,0.5 0.277,0 0.5,-0.223 0.5,-0.5 0,-0.277 -0.223,-0.5 -0.5,-0.5 z" />
  <path
     style="color:#000000;fill:#786d7d;fill-opacity:1;stroke-linecap:square;-inkscape-stroke:none"
     d="m 5,-7e-7 c 0.452559,2e-7 0.887022,0.1799917 1.207031,0.5 L 7.5,1.7929681 c 0.386336,0.3863361 0.386336,1.0277263 0,1.4140624 L 6.176777,4.5302538 a 0.24999996,0.24999996 0 0 1 -0.353554,0 C 5.530369,4.2373992 5.530404,3.7625621 5.823298,3.4696688 6.146522,3.1464456 6.469746,2.8232225 6.792968,2.4999993 L 5.5,1.2070306 C 5.367256,1.0742867 5.187728,0.9999994 5,0.9999993 4.812272,0.9999994 4.632743,1.0742863 4.5,1.2070306 L 3.207031,2.4999993 C 3.074286,2.6327433 3,2.812271 3,2.9999993 c 0,0.1877283 0.07429,0.367256 0.207031,0.5 L 12.5,12.792968 C 12.632743,12.925713 12.812272,13 13,13 h 2 v -2 c 0,-0.187728 -0.07429,-0.367256 -0.207032,-0.5 L 8.823298,4.5303294 a 0.75,0.75 0 0 1 0,-1.0606602 0.24994663,0.24994663 0 0 1 0.353478,7.55e-5 L 15.5,9.7929683 C 15.820008,10.112977 16,10.54744 16,11 v 2 c 0,0.546362 -0.453639,1 -1,1 h -2 c -0.45256,0 -0.887023,-0.179993 -1.207032,-0.5 L 2.5,4.2070305 C 2.179991,3.887022 2,3.4525595 2,2.9999993 2,2.5474391 2.179991,2.1129766 2.5,1.7929681 L 3.792968,0.4999993 C 4.112977,0.179991 4.54744,-5e-7 5,-7e-7 Z"
     id="path453"
     sodipodi:nodetypes="sssccccsssssssscsccccssssccssss" />
</svg>
