<?xml version="1.0" encoding="UTF-8" standalone="no"?>
<svg
   version="1.1"
   viewBox="0 0 16 16"
   id="svg9"
   sodipodi:docname="draw-star.svg"
   inkscape:version="1.1.2 (0a00cf5339, 2022-02-04)"
   xmlns:inkscape="http://www.inkscape.org/namespaces/inkscape"
   xmlns:sodipodi="http://sodipodi.sourceforge.net/DTD/sodipodi-0.dtd"
   xmlns="http://www.w3.org/2000/svg"
   xmlns:svg="http://www.w3.org/2000/svg">
  <sodipodi:namedview
     id="namedview11"
     pagecolor="#ffffff"
     bordercolor="#000000"
     borderopacity="0.25"
     inkscape:pageshadow="2"
     inkscape:pageopacity="0.0"
     inkscape:pagecheckerboard="0"
     showgrid="false"
     inkscape:snap-global="false"
     inkscape:showpageshadow="false"
     showborder="false"
     inkscape:zoom="30.347711"
     inkscape:cx="13.246469"
     inkscape:cy="7.7600581"
     inkscape:window-width="1648"
     inkscape:window-height="981"
     inkscape:window-x="136"
     inkscape:window-y="10"
     inkscape:window-maximized="1"
     inkscape:current-layer="svg9">
    <inkscape:grid
       type="xygrid"
       id="grid828" />
    <inkscape:grid
       type="xygrid"
       id="grid1154"
       spacingx="0.5"
       spacingy="0.5"
       empspacing="1"
       empcolor="#3f3fff"
       empopacity="0.07843137" />
  </sodipodi:namedview>
  <defs
     id="defs3">
    <inkscape:path-effect
       effect="fillet_chamfer"
       id="path-effect1557"
       is_visible="true"
       lpeversion="1"
       satellites_param="F,0,0,1,0,0,0,1 @ F,0,0,1,0,0,0,1 @ F,0,0,1,0,0,0,1 @ F,0,0,1,0,0,0,1 @ F,0,0,1,0,0,0,1 @ F,0,0,1,0,0,0,1 @ F,0,0,1,0,0,0,1 @ F,0,0,1,0,0,0,1 @ F,0,0,1,0,0,0,1 @ F,0,0,1,0,0,0,1 @ F,0,0,1,0,0,0,1 @ F,0,0,1,0,0,0,1 @ F,0,0,1,0,0,0,1 @ F,0,0,1,0,0,0,1 @ F,0,1,1,0,0.25,0,1 @ F,0,0,1,0,0.75,0,1 @ F,0,0,1,0,0,0,1 @ F,0,0,1,0,0,0,1 @ F,0,0,1,0,0,0,1 @ F,0,0,1,0,0,0,1 @ F,0,0,1,0,0,0,1 @ F,0,0,1,0,0,0,1 @ F,0,0,1,0,0,0,1 @ F,0,0,1,0,0,0,1 @ F,0,0,1,0,0,0,1 @ F,0,0,1,0,0,0,1 @ F,0,0,1,0,0,0,1 @ F,0,0,1,0,0,0,1 @ F,0,0,1,0,0,0,1 @ F,0,0,1,0,0.75,0,1 @ F,0,1,1,0,0.25,0,1 @ F,0,0,1,0,0,0,1 @ F,0,0,1,0,0,0,1 @ F,0,0,1,0,0,0,1 @ F,0,0,1,0,0,0,1 @ F,0,0,1,0,0,0,1"
       unit="px"
       method="auto"
       mode="F"
       radius="0.25"
       chamfer_steps="1"
       flexible="false"
       use_knot_distance="true"
       apply_no_radius="true"
       apply_with_radius="true"
       only_selected="true"
       hide_knots="false" />
    <inkscape:path-effect
       effect="fillet_chamfer"
       id="path-effect1500"
       is_visible="true"
       lpeversion="1"
       satellites_param="F,0,0,1,0,1,0,1 @ F,0,0,1,0,1,0,1 @ F,0,0,1,0,1,0,1 @ F,0,0,1,0,1,0,1 @ F,0,0,1,0,1,0,1 @ F,0,0,1,0,1,0,1 @ F,0,0,1,0,1,0,1 @ F,0,0,1,0,1,0,1 @ F,0,0,1,0,1,0,1 @ F,0,0,1,0,1,0,1"
       unit="px"
       method="auto"
       mode="F"
       radius="1"
       chamfer_steps="1"
       flexible="false"
       use_knot_distance="true"
       apply_no_radius="true"
       apply_with_radius="true"
       only_selected="false"
       hide_knots="false" />
    <style
       type="text/css"
       id="current-color-scheme">.ColorScheme-Text {
        color:#232629;
      }</style>
  </defs>
  <path
     id="path1069"
     style="color:#000000;display:inline;fill:#786d7d;fill-opacity:0.15;-inkscape-stroke:none;paint-order:fill markers stroke"
     d="m 8.0097656,1.0234375 c -0.357918,-5.095e-4 -0.715024,0.1767161 -0.890625,0.53125 L 5.828125,4.1582031 C 5.6230618,4.572223 5.2287975,4.8580401 4.7714844,4.9238281 L 1.8945312,5.3378906 C 1.1113167,5.4505621 0.77595927,6.4781245 1.3417969,7.03125 l 2.078125,2.0332031 c 0.3303884,0.322966 0.4810932,0.7849735 0.4023437,1.2402349 L 3.3261719,13.169922 C 3.1913027,13.94962 4.0647182,14.585968 4.765625,14.21875 l 2.5761719,-1.349609 c 0.4092525,-0.21442 0.8960422,-0.213669 1.3046875,0.002 l 2.5703126,1.357422 c 0.699859,0.369208 1.576012,-0.264844 1.443359,-1.044922 l -0.488281,-2.867188 c -0.07746,-0.4554818 0.07494,-0.9182085 0.40625,-1.2402341 l 2.083984,-2.0253907 c 0.567407,-0.551515 0.234063,-1.5804153 -0.548828,-1.6953124 l -2.875,-0.421875 C 10.781157,4.8664593 10.387479,4.5786635 10.183594,4.1640625 L 8.9003906,1.5566406 C 8.7257997,1.2016083 8.3676836,1.023947 8.0097656,1.0234375 Z" />
  <path
     id="path905"
     style="color:#000000;display:inline;fill:#786d7d;-inkscape-stroke:none;paint-order:fill markers stroke"
     d="m 8.0097656,1.0234375 c -0.357918,-5.095e-4 -0.715024,0.1767161 -0.890625,0.53125 L 5.828125,4.1582031 C 5.6230618,4.572223 5.2287975,4.8580401 4.7714844,4.9238281 L 1.8945312,5.3378906 C 1.1113167,5.4505621 0.77595927,6.4781245 1.3417969,7.03125 l 2.078125,2.0332031 c 0.3303884,0.322966 0.4810932,0.7849735 0.4023437,1.2402349 L 3.3261719,13.169922 C 3.1913027,13.94962 4.0647182,14.585968 4.765625,14.21875 l 2.5761719,-1.349609 c 0.4092525,-0.21442 0.8960422,-0.213669 1.3046875,0.002 l 2.5703126,1.357422 c 0.699859,0.369208 1.576012,-0.264844 1.443359,-1.044922 l -0.403377,-2.37073 a 0.38991948,0.38991948 47.677368 0 0 -0.283404,-0.311209 l -0.08295,-0.02224 a 0.48315784,0.48315784 137.80114 0 0 -0.601799,0.545656 l 0.383251,2.312825 -2.5585938,-1.34961 C 8.414489,11.619644 7.5767837,11.617713 6.8769531,11.984375 l -2.5625,1.34375 0.4921875,-2.851563 C 4.9413039,9.6980571 4.6841118,8.8999348 4.1191406,8.3476562 L 2.0507812,6.3261719 4.9140625,5.9140625 C 5.6960778,5.8015636 6.3739469,5.3095454 6.7246094,4.6015625 L 8.0097656,2.0097656 9.2851562,4.6054688 C 9.633805,5.3144453 10.310105,5.8071538 11.091797,5.921875 l 2.863281,0.421875 -1.91878,1.9463672 a 0.43651428,0.43651428 74.79129 0 0 0.197941,0.7281085 l 0.077,0.020621 c 0.133372,0.035716 0.32141,-0.013695 0.42011,-0.110246 0.639981,-0.6260456 1.287727,-1.25287 1.930756,-1.8778194 0.567407,-0.551515 0.234063,-1.5804153 -0.548828,-1.6953124 l -2.875,-0.421875 C 10.781157,4.8664593 10.387479,4.5786635 10.183594,4.1640625 L 8.9003906,1.5566406 C 8.7257997,1.2016083 8.3676836,1.023947 8.0097656,1.0234375 Z"
     sodipodi:nodetypes="scccccccccccccccccccccccccccccccccccs" />
</svg>
