<svg width="16" height="16" version="1.1" viewBox="0 0 16 16" xmlns="http://www.w3.org/2000/svg">
 <path d="m2.773 1.805c-0.4732 0.2366-0.7734 0.7229-0.7734 1.252v9.734c0.2362 1.489 0.8814 1.889 2.211 2.209h9.725c0.5308 0.0024 1.018-0.2978 1.258-0.7715h2e-3v-2e-3c0.2458-0.4917 0.1485-1.09-0.2402-1.479l-10.7-10.71c-0.3882-0.3882-0.9875-0.4838-1.479-0.2383z" color="#000000" fill="#786d7d" opacity=".16" style="-inkscape-stroke:none;paint-order:fill markers stroke"/>
 <path d="m3.355 1.67c-0.1977-0.001314-0.3979 0.0427-0.582 0.1348-0.4732 0.2366-0.7734 0.7229-0.7734 1.252v9.734c-4.459e-4 0.5841 0.2302 1.147 0.6426 1.561h0.00195c0.4153 0.4153 0.9791 0.6484 1.566 0.6484h9.725c0.5308 0.0024 1.018-0.2978 1.258-0.7715h2e-3v-2e-3c0.2458-0.4917 0.1485-1.09-0.2402-1.479l-2.255-2.255a0.75 0.75 180 0 0-1.061 0 0.2499 0.2499 89.99 0 0 7.6e-5 0.3535l2.608 2.608c0.08704 0.08704 0.1078 0.2141 0.05273 0.3242-0.07003 0.1361-0.2082 0.2214-0.3614 0.2207h-9.729c-0.3225 0-0.6314-0.1275-0.8594-0.3555-0.2259-0.2266-0.3521-0.5335-0.3516-0.8535v-9.734c0-0.1524 0.08439-0.2893 0.2207-0.3574 0.1094-0.05472 0.2357-0.03379 0.3223 0.05273l6.257 6.255a0.7501 0.7501 180 0 0 1.061-7.64e-5 0.25 0.25 89.99 0 0-5e-5 -0.3535l-6.608-6.61c-0.2426-0.2426-0.5669-0.3709-0.8965-0.373z" color="#000000" fill="#786d7d" style="-inkscape-stroke:none;paint-order:fill markers stroke"/>
</svg>
