<?xml version="1.0" encoding="UTF-8" standalone="no"?>
<svg
   version="1.1"
   viewBox="0 0 16 16"
   id="svg9"
   sodipodi:docname="draw-square-inverted-corners.svg"
   inkscape:version="1.1.2 (0a00cf5339, 2022-02-04)"
   xmlns:inkscape="http://www.inkscape.org/namespaces/inkscape"
   xmlns:sodipodi="http://sodipodi.sourceforge.net/DTD/sodipodi-0.dtd"
   xmlns="http://www.w3.org/2000/svg"
   xmlns:svg="http://www.w3.org/2000/svg">
  <sodipodi:namedview
     id="namedview11"
     pagecolor="#ffffff"
     bordercolor="#000000"
     borderopacity="0.25"
     inkscape:pageshadow="2"
     inkscape:pageopacity="0.0"
     inkscape:pagecheckerboard="0"
     showgrid="false"
     inkscape:showpageshadow="false"
     showborder="false"
     inkscape:zoom="29.622798"
     inkscape:cx="8.9795703"
     inkscape:cy="9.2665114"
     inkscape:window-width="1648"
     inkscape:window-height="981"
     inkscape:window-x="136"
     inkscape:window-y="10"
     inkscape:window-maximized="1"
     inkscape:current-layer="svg9">
    <inkscape:grid
       type="xygrid"
       id="grid828" />
    <inkscape:grid
       type="xygrid"
       id="grid852"
       spacingx="0.5"
       spacingy="0.5"
       empspacing="1"
       empcolor="#3f3fff"
       empopacity="0.07058824" />
  </sodipodi:namedview>
  <defs
     id="defs3">
    <inkscape:path-effect
       effect="fillet_chamfer"
       id="path-effect2422"
       is_visible="true"
       lpeversion="1"
       satellites_param="F,0,0,1,0,0,0,1 @ F,0,0,1,0,0,0,1 @ F,0,0,1,0,0,0,1 @ F,0,0,1,0,0,0,1 @ F,0,0,1,0,0,0,1 @ F,0,0,1,0,0,0,1 @ F,0,1,1,0,0.25,0,1 @ F,0,0,1,0,0.75,0,1 @ F,0,0,1,0,0,0,1 @ F,0,0,1,0,0,0,1 @ F,0,0,1,0,0,0,1 @ F,0,0,1,0,0,0,1 @ F,0,0,1,0,0,0,1 @ F,0,0,1,0,0,0,1 @ F,0,0,1,0,0,0,1 @ F,0,0,1,0,0,0,1 @ F,0,0,1,0,0,0,1 @ F,0,0,1,0,0,0,1 @ F,0,0,1,0,0,0,1 @ F,0,0,1,0,0,0,1 @ F,0,0,1,0,0,0,1 @ F,0,0,1,0,0,0,1 @ F,0,0,1,0,0,0,1 @ F,0,0,1,0,0,0,1 @ F,0,0,1,0,0.75,0,1 @ F,0,1,1,0,0.25,0,1 @ F,0,0,1,0,0,0,1 @ F,0,0,1,0,0,0,1 @ F,0,0,1,0,0,0,1 @ F,0,0,1,0,0,0,1 @ F,0,0,1,0,0,0,1 @ F,0,0,1,0,0,0,1 @ F,0,0,1,0,0,0,1 @ F,0,0,1,0,0,0,1 @ F,0,0,1,0,0,0,1 @ F,0,0,1,0,0,0,1"
       unit="px"
       method="auto"
       mode="F"
       radius="0.25"
       chamfer_steps="1"
       flexible="false"
       use_knot_distance="true"
       apply_no_radius="true"
       apply_with_radius="true"
       only_selected="true"
       hide_knots="false" />
    <inkscape:path-effect
       effect="fillet_chamfer"
       id="path-effect1254"
       is_visible="true"
       lpeversion="1"
       satellites_param="F,0,0,1,0,0.5,0,1 @ F,0,0,1,0,0.5,0,1 @ F,0,0,1,0,0.5,0,1 @ F,0,0,1,0,0.5,0,1 @ F,0,0,1,0,0.5,0,1 @ F,0,0,1,0,0.5,0,1 @ F,0,0,1,0,0.5,0,1 @ F,0,0,1,0,0.5,0,1"
       unit="px"
       method="auto"
       mode="F"
       radius="0.5"
       chamfer_steps="1"
       flexible="false"
       use_knot_distance="true"
       apply_no_radius="true"
       apply_with_radius="true"
       only_selected="false"
       hide_knots="false" />
    <inkscape:path-effect
       effect="fillet_chamfer"
       id="path-effect898"
       is_visible="true"
       lpeversion="1"
       satellites_param="IF,0,0,1,0,4,0,1 @ IF,0,0,1,0,4,0,1 @ IF,0,0,1,0,4,0,1 @ IF,0,0,1,0,4,0,1"
       unit="px"
       method="auto"
       mode="F"
       radius="4"
       chamfer_steps="1"
       flexible="false"
       use_knot_distance="true"
       apply_no_radius="true"
       apply_with_radius="true"
       only_selected="false"
       hide_knots="false" />
    <style
       type="text/css"
       id="current-color-scheme">.ColorScheme-Text {
        color:#232629;
      }</style>
  </defs>
  <path
     id="path1749"
     style="color:#000000;display:inline;fill:#786d7d;-inkscape-stroke:none;paint-order:fill markers stroke;fill-opacity:0.15000001"
     d="M 6,1 C 5.4523295,1 5.0352299,1.4345427 4.9726562,1.9375 4.7755594,3.5217382 3.5217568,4.7756159 1.9375,4.9726562 1.4345305,5.0352127 1,5.4524097 1,6 v 4 c 0,0.54767 0.4345432,0.96477 0.9375,1.027344 1.5842383,0.197097 2.838116,1.450899 3.0351562,3.035156 C 5.0352127,14.56547 5.45241,15 6,15 h 4 c 0.547671,0 0.96477,-0.434543 1.027344,-0.9375 0.197097,-1.584238 1.450899,-2.838116 3.035156,-3.035156 C 14.565469,10.964787 15,10.54759 15,10 V 6 C 15,5.4523292 14.565457,5.0352299 14.0625,4.9726562 12.478262,4.7755594 11.224384,3.5217568 11.027344,1.9375 10.964787,1.4345308 10.54759,1 10,1 Z" />
  <path
     id="path1486"
     style="color:#000000;display:inline;fill:#786d7d;-inkscape-stroke:none;paint-order:fill markers stroke"
     d="M 6,1 C 5.4523295,1 5.0352299,1.4345427 4.9726562,1.9375 4.7755594,3.5217382 3.5217568,4.7756159 1.9375,4.9726562 1.4345305,5.0352127 1,5.4524097 1,6 v 4 c 0,0.54767 0.4345432,0.96477 0.9375,1.027344 0.4574585,0.05691 0.8863919,0.204289 1.2709566,0.420682 0.1203035,0.06769 0.292564,0.05095 0.3901951,-0.04668 l 0.011643,-0.01164 C 3.9031881,11.096812 3.8705648,10.655178 3.5003707,10.470414 3.0571083,10.249181 2.5724748,10.098846 2.0605469,10.035156 2.0156342,10.029569 2,10.004613 2,10 V 6 C 2,5.99531 2.0158049,5.9704077 2.0605469,5.9648438 4.0969491,5.711568 5.7114955,4.0969274 5.9648438,2.0605469 5.9704314,2.0156347 5.9953862,2 6,2 h 4 c 0.0047,0 0.02959,0.015804 0.03516,0.060547 0.253276,2.0364023 1.867917,3.6509485 3.904297,3.9042969 C 13.984361,5.9704312 14,5.9953866 14,6 v 4 c 0,0.0047 -0.01581,0.02959 -0.06055,0.03516 -2.036403,0.253276 -3.650948,1.867917 -3.904297,3.904297 C 10.029572,13.984362 10.004613,14 10,14 H 6 C 5.99531,14 5.9704077,13.984193 5.9648438,13.939453 5.9049149,13.45761 5.7673631,13.00044 5.5664623,12.579015 5.3884186,12.205537 4.9520162,12.169078 4.659123,12.461971 l -0.011643,0.01164 c -0.097631,0.09763 -0.1167089,0.271423 -0.052168,0.393448 0.1930275,0.364947 0.3242017,0.76816 0.3773439,1.195438 C 5.0352127,14.56547 5.45241,15 6,15 h 4 c 0.547671,0 0.96477,-0.434543 1.027344,-0.9375 0.197097,-1.584238 1.450899,-2.838116 3.035156,-3.035156 C 14.565469,10.964787 15,10.54759 15,10 V 6 C 15,5.4523292 14.565457,5.0352299 14.0625,4.9726562 12.478262,4.7755594 11.224384,3.5217568 11.027344,1.9375 10.964787,1.4345308 10.54759,1 10,1 Z" />
</svg>
