<?xml version="1.0" encoding="UTF-8" standalone="no"?>
<svg
   viewBox="0 0 16 16"
   version="1.1"
   id="svg1279"
   sodipodi:docname="draw-bezier-curves.svg"
   inkscape:version="1.2.2 (b0a8486541, 2022-12-01)"
   xmlns:inkscape="http://www.inkscape.org/namespaces/inkscape"
   xmlns:sodipodi="http://sodipodi.sourceforge.net/DTD/sodipodi-0.dtd"
   xmlns="http://www.w3.org/2000/svg"
   xmlns:svg="http://www.w3.org/2000/svg">
  <sodipodi:namedview
     id="namedview1281"
     pagecolor="#ffffff"
     bordercolor="#000000"
     borderopacity="0.25"
     inkscape:showpageshadow="false"
     inkscape:pageopacity="0.0"
     inkscape:pagecheckerboard="0"
     inkscape:deskcolor="#ffffff"
     showgrid="false"
     showborder="false"
     inkscape:zoom="32"
     inkscape:cx="1.671875"
     inkscape:cy="13.359375"
     inkscape:window-width="2560"
     inkscape:window-height="1367"
     inkscape:window-x="0"
     inkscape:window-y="0"
     inkscape:window-maximized="1"
     inkscape:current-layer="svg1279">
    <inkscape:grid
       type="xygrid"
       id="grid1454"
       empspacing="4"
       color="#0099e5"
       opacity="0.08235294" />
    <inkscape:grid
       type="xygrid"
       id="grid1456"
       spacingx="0.5"
       spacingy="0.5"
       empspacing="1"
       empcolor="#0099e5"
       empopacity="0.08235294" />
  </sodipodi:namedview>
  <defs
     id="defs3051">
    <style
       type="text/css"
       id="current-color-scheme">
      .ColorScheme-Text {
        color:#232629;
      }
      </style>
  </defs>
  <path
     id="rect2002"
     style="opacity:0.15;fill:#786d7d;paint-order:markers stroke fill"
     d="M 7 3 L 7 5 L 9 5 L 9 3 L 7 3 z M 2 11 L 2 13 L 4 13 L 4 11 L 2 11 z M 12 11 L 12 13 L 14 13 L 14 11 L 12 11 z " />
  <path
     id="rect1510"
     style="color:#000000;fill:#786d7d;-inkscape-stroke:none;paint-order:markers stroke fill"
     d="M 1.5 2 C 0.67749684 2 0 2.6774968 0 3.5 C 0 4.3225032 0.67749684 5 1.5 5 C 2.1475071 5 2.7041331 4.5799556 2.9121094 4 L 6 4 L 6 4.0332031 C 4.80571 4.1863675 3.8103847 4.8839509 3.1425781 5.9160156 C 2.4420713 6.9986171 2.0623653 8.4370683 2.0078125 10.083984 C 1.4237228 10.289699 1 10.849615 1 11.5 L 1 12.5 C 1 13.32235 1.6776502 14 2.5 14 L 3.5 14 C 4.3223498 14 5 13.32235 5 12.5 L 5 11.5 C 5 10.67765 4.3223498 10 3.5 10 L 3.0117188 10 C 3.0771716 8.5412973 3.428657 7.3148028 3.9824219 6.4589844 C 4.5193585 5.6291733 5.2097127 5.1378998 6.0957031 5.0253906 C 6.3105258 5.5924961 6.8618434 6 7.5 6 L 8.5 6 C 9.1357513 6 9.6838565 5.5950203 9.9003906 5.03125 C 10.764076 5.1670887 11.467206 5.7437453 12.011719 6.6347656 C 12.564573 7.5394364 12.910464 8.7535644 12.984375 10 L 12.5 10 C 11.67765 10 11 10.67765 11 11.5 L 11 12.5 C 11 13.32235 11.67765 14 12.5 14 L 13.5 14 C 14.32235 14 15 13.32235 15 12.5 L 15 11.5 C 15 10.848973 14.575218 10.289202 13.990234 10.083984 C 13.928267 8.6430781 13.546037 7.2324712 12.863281 6.1152344 C 12.20309 5.0349212 11.218121 4.2155171 10 4.0371094 L 10 4 L 13.087891 4 C 13.295867 4.5799556 13.852493 5 14.5 5 C 15.322503 5 16 4.3225032 16 3.5 C 16 2.6774968 15.322503 2 14.5 2 C 13.852493 2 13.295867 2.4200444 13.087891 3 L 9.9121094 3 C 9.7040981 2.4200788 9.1473863 2 8.5 2 L 7.5 2 C 6.8526137 2 6.2959019 2.4200788 6.0878906 3 L 2.9121094 3 C 2.7041331 2.4200444 2.1475071 2 1.5 2 z M 1.5 3 C 1.7820641 3 2 3.2179359 2 3.5 C 2 3.7820641 1.7820641 4 1.5 4 C 1.2179359 4 1 3.7820641 1 3.5 C 1 3.2179359 1.2179359 3 1.5 3 z M 7.5 3 L 8.5 3 C 8.785648 3 9 3.214352 9 3.5 L 9 4.5 C 9 4.785648 8.785648 5 8.5 5 L 7.5 5 C 7.214352 5 7 4.785648 7 4.5 L 7 3.5 C 7 3.214352 7.214352 3 7.5 3 z M 14.5 3 C 14.782064 3 15 3.2179359 15 3.5 C 15 3.7820641 14.782064 4 14.5 4 C 14.217936 4 14 3.7820641 14 3.5 C 14 3.2179359 14.217936 3 14.5 3 z M 2.5 11 L 3.5 11 C 3.785648 11 4 11.214352 4 11.5 L 4 12.5 C 4 12.785648 3.785648 13 3.5 13 L 2.5 13 C 2.214352 13 2 12.785648 2 12.5 L 2 11.5 C 2 11.214352 2.214352 11 2.5 11 z M 12.5 11 L 13.5 11 C 13.785648 11 14 11.214352 14 11.5 L 14 12.5 C 14 12.785648 13.785648 13 13.5 13 L 12.5 13 C 12.214352 13 12 12.785648 12 12.5 L 12 11.5 C 12 11.214352 12.214352 11 12.5 11 z " />
</svg>
