<?xml version="1.0" encoding="UTF-8" standalone="no"?>
<svg
   version="1.1"
   viewBox="0 0 16 16"
   id="svg9"
   sodipodi:docname="draw-polygon.svg"
   inkscape:version="1.1.2 (0a00cf5339, 2022-02-04)"
   xmlns:inkscape="http://www.inkscape.org/namespaces/inkscape"
   xmlns:sodipodi="http://sodipodi.sourceforge.net/DTD/sodipodi-0.dtd"
   xmlns="http://www.w3.org/2000/svg"
   xmlns:svg="http://www.w3.org/2000/svg">
  <sodipodi:namedview
     id="namedview11"
     pagecolor="#ffffff"
     bordercolor="#000000"
     borderopacity="0.25"
     inkscape:pageshadow="2"
     inkscape:pageopacity="0.0"
     inkscape:pagecheckerboard="0"
     showgrid="true"
     inkscape:snap-global="true"
     inkscape:showpageshadow="false"
     showborder="true"
     inkscape:zoom="34.427042"
     inkscape:cx="5.7512929"
     inkscape:cy="10.209997"
     inkscape:window-width="1648"
     inkscape:window-height="981"
     inkscape:window-x="136"
     inkscape:window-y="10"
     inkscape:window-maximized="1"
     inkscape:current-layer="svg9">
    <inkscape:grid
       type="xygrid"
       id="grid828" />
    <inkscape:grid
       type="xygrid"
       id="grid949"
       spacingx="0.5"
       spacingy="0.5"
       empspacing="1"
       empcolor="#3f3fff"
       empopacity="0.07843137" />
  </sodipodi:namedview>
  <defs
     id="defs3">
    <inkscape:path-effect
       effect="fillet_chamfer"
       id="path-effect2612"
       is_visible="true"
       lpeversion="1"
       satellites_param="F,0,0,1,0,0,0,1 @ F,0,0,1,0,0,0,1 @ F,0,0,1,0,0,0,1 @ F,0,0,1,0,0,0,1 @ F,0,0,1,0,0,0,1 @ F,0,0,1,0,0,0,1 @ F,0,0,1,0,0,0,1 @ F,0,0,1,0,0,0,1 @ F,0,0,1,0,0.75,0,1 @ F,0,1,1,0,0.25,0,1 @ F,0,0,1,0,0,0,1 @ F,0,0,1,0,0,0,1 @ F,0,0,1,0,0,0,1 @ F,0,0,1,0,0,0,1 @ F,0,0,1,0,0,0,1 @ F,0,0,1,0,0,0,1 @ F,0,0,1,0,0,0,1 @ F,0,0,1,0,0,0,1 @ F,0,0,1,0,0,0,1 @ F,0,0,1,0,0,0,1 @ F,0,0,1,0,0.75,0,1 @ F,0,1,1,0,0.25,0,1 @ F,0,0,1,0,0,0,1 @ F,0,0,1,0,0,0,1 @ F,0,0,1,0,0,0,1"
       unit="px"
       method="auto"
       mode="F"
       radius="0.25"
       chamfer_steps="1"
       flexible="false"
       use_knot_distance="true"
       apply_no_radius="true"
       apply_with_radius="true"
       only_selected="true"
       hide_knots="false" />
    <inkscape:path-effect
       effect="fillet_chamfer"
       id="path-effect1500"
       is_visible="true"
       lpeversion="1"
       satellites_param="F,0,0,1,0,1,0,1 @ F,0,0,1,0,1,0,1 @ F,0,0,1,0,1,0,1 @ F,0,0,1,0,1,0,1 @ F,0,0,1,0,1,0,1"
       unit="px"
       method="auto"
       mode="F"
       radius="1"
       chamfer_steps="1"
       flexible="false"
       use_knot_distance="true"
       apply_no_radius="true"
       apply_with_radius="true"
       only_selected="false"
       hide_knots="false" />
    <style
       type="text/css"
       id="current-color-scheme">.ColorScheme-Text {
        color:#232629;
      }</style>
  </defs>
  <path
     id="path2211"
     style="color:#000000;display:inline;fill:#786d7d;-inkscape-stroke:none;paint-order:fill markers stroke;fill-opacity:0.15000001"
     d="M 8.0117188,0.96484375 C 7.6242772,0.96429301 7.2365664,1.082455 6.9082031,1.3203125 L 1.4921875,5.2421875 C 0.83546124,5.7179027 0.55910128,6.568256 0.80859375,7.3398438 L 2.8652344,13.701172 C 3.1147262,14.47276 3.8375159,14.998847 4.6484375,15 l 6.6855465,0.0098 c 0.810921,0.0012 1.535425,-0.524047 1.78711,-1.294922 L 15.195312,7.359375 C 15.446996,6.5884993 15.17295,5.7392985 14.517578,5.2617188 L 9.1132812,1.3222656 C 8.7855954,1.0834756 8.3991602,0.96539449 8.0117188,0.96484375 Z" />
  <path
     id="path1404"
     style="color:#000000;fill:#786d7d;-inkscape-stroke:none;paint-order:fill markers stroke"
     d="M 8.0117188,0.96484375 C 7.6242772,0.96429301 7.2365664,1.082455 6.9082031,1.3203125 L 1.4921875,5.2421875 C 0.83546124,5.7179027 0.55910128,6.568256 0.80859375,7.3398438 L 2.8652344,13.701172 C 3.1147262,14.47276 3.8375159,14.998847 4.6484375,15 l 6.6855465,0.0098 c 0.810921,0.0012 1.535425,-0.524047 1.78711,-1.294922 l 0.499907,-1.533047 a 0.71146192,0.71146192 61.54996 0 0 -0.491796,-0.90766 l -0.001,-2.82e-4 a 0.26364336,0.26364336 151.56098 0 0 -0.319034,0.172782 l -0.6392,1.95766 c -0.118451,0.362799 -0.45234,0.606011 -0.833984,0.605469 L 4.6484375,14 C 4.2667912,13.999458 3.9338253,13.755713 3.8164062,13.392578 L 1.7597656,7.03125 C 1.6423463,6.6681154 1.7710012,6.2766216 2.0800781,6.0527344 l 5.4140625,-3.921875 c 0.3090771,-0.2238871 0.7208576,-0.2247649 1.0292969,0 l 5.4042965,3.9375 c 0.30844,0.2247646 0.434858,0.6176693 0.316407,0.9804687 l -0.659843,2.0213995 a 0.70954353,0.70954353 61.490427 0 0 0.492037,0.9058589 l 0.0024,6.35e-4 A 0.26422184,0.26422184 151.4869 0 0 14.397861,9.803348 L 15.195312,7.359375 C 15.446996,6.5884993 15.17295,5.7392985 14.517578,5.2617188 L 9.1132812,1.3222656 C 8.7855954,1.0834756 8.3991602,0.96539449 8.0117188,0.96484375 Z" />
</svg>
