<?xml version="1.0" encoding="UTF-8" standalone="no"?>
<svg
   width="16"
   height="16"
   version="1.1"
   viewBox="0 0 16 16"
   id="svg4"
   sodipodi:docname="draw-watercolor.svg"
   inkscape:version="1.2.2 (b0a8486541, 2022-12-01)"
   xmlns:inkscape="http://www.inkscape.org/namespaces/inkscape"
   xmlns:sodipodi="http://sodipodi.sourceforge.net/DTD/sodipodi-0.dtd"
   xmlns="http://www.w3.org/2000/svg"
   xmlns:svg="http://www.w3.org/2000/svg">
  <defs
     id="defs8">
    <inkscape:path-effect
       effect="fillet_chamfer"
       id="path-effect4305"
       is_visible="true"
       lpeversion="1"
       nodesatellites_param="F,0,0,1,0,0,0,1 @ F,0,0,1,0,0,0,1 @ F,0,0,1,0,0,0,1 @ F,0,0,1,0,0,0,1 @ F,0,1,1,0,0.25,0,1 @ F,0,0,1,0,0,0,1 @ F,0,1,1,0,0.25,0,1 @ F,0,1,1,0,0.25,0,1 @ F,0,0,1,0,0,0,1 @ F,0,0,1,0,0,0,1 @ F,0,0,1,0,0,0,1 @ F,0,0,1,0,0,0,1 @ F,0,0,1,0,0,0,1 @ F,0,0,1,0,0,0,1 @ F,0,1,1,0,0.25,0,1 @ F,0,1,1,0,0.25,0,1 @ F,0,0,1,0,0,0,1 @ F,0,0,1,0,0,0,1"
       unit="px"
       method="auto"
       mode="F"
       radius="0.25"
       chamfer_steps="1"
       flexible="false"
       use_knot_distance="true"
       apply_no_radius="true"
       apply_with_radius="true"
       only_selected="true"
       hide_knots="false" />
    <inkscape:path-effect
       effect="fillet_chamfer"
       id="path-effect3595"
       is_visible="true"
       lpeversion="1"
       nodesatellites_param="F,0,0,1,0,0.5,0,1 @ F,0,0,1,0,0.5,0,1 @ F,0,1,1,0,1,0,1 @ F,0,0,1,0,3.5,0,1 @ F,0,0,1,0,3.5,0,1 @ F,0,1,1,0,1,0,1"
       unit="px"
       method="auto"
       mode="F"
       radius="1"
       chamfer_steps="1"
       flexible="false"
       use_knot_distance="true"
       apply_no_radius="true"
       apply_with_radius="true"
       only_selected="true"
       hide_knots="false" />
  </defs>
  <sodipodi:namedview
     id="namedview6"
     pagecolor="#ffffff"
     bordercolor="#000000"
     borderopacity="0.25"
     inkscape:pageshadow="2"
     inkscape:pageopacity="0.0"
     inkscape:pagecheckerboard="0"
     showgrid="false"
     inkscape:zoom="17.083056"
     inkscape:cx="4.0976275"
     inkscape:cy="7.2293857"
     inkscape:window-width="1648"
     inkscape:window-height="981"
     inkscape:window-x="136"
     inkscape:window-y="10"
     inkscape:window-maximized="1"
     inkscape:current-layer="svg4"
     inkscape:showpageshadow="false"
     inkscape:deskcolor="#ffffff"
     showborder="false">
    <inkscape:grid
       type="xygrid"
       id="grid825" />
    <inkscape:grid
       type="xygrid"
       id="grid3591"
       spacingx="0.5"
       spacingy="0.5"
       empspacing="1"
       empcolor="#0099e5"
       empopacity="0.0745098" />
  </sodipodi:namedview>
  <path
     style="fill:#786d7d;fill-opacity:0.15;stroke-linecap:square;stroke-opacity:0.15;paint-order:fill markers stroke"
     d="M 6,10.99994 H 4 l -2,3 -1,1 h 4 l 1,-1 z"
     id="path860" />
  <path
     id="path2"
     style="-inkscape-stroke:none;paint-order:markers stroke fill;fill:#786d7d;fill-opacity:1"
     d="M 5 0 C 4.5210377 0 4.0723213 0.24015112 3.8066406 0.63867188 L 1.6386719 3.890625 C 1.22225 4.5152579 1 5.2492849 1 6 C 1 7.4885003 1.819819 8.7916654 3.03125 9.4804688 C 3.151256 9.5487026 3.3601402 9.5688159 3.4960938 9.5449219 C 3.6600012 9.516115 3.8282975 9.5 4 9.5 L 4.5039062 9.5 C 4.6419773 9.5 4.7743974 9.3905589 4.8046875 9.2558594 C 4.8058975 9.2504694 4.8073638 9.2436722 4.8085938 9.2382812 C 4.8391778 9.1036472 4.754138 8.9918581 4.6171875 8.9746094 C 3.1364712 8.7881156 2 7.5331308 2 6 C 2 5.4466184 2.1637422 4.9057538 2.4707031 4.4453125 L 4.6386719 1.1933594 C 4.7195363 1.0720627 4.8542195 1 5 1 C 5.1457805 1 5.2804637 1.0720622 5.3613281 1.1933594 L 7.5292969 4.4453125 C 7.6345331 4.6031668 7.7223615 4.7694574 7.7929688 4.9433594 C 7.8448927 5.0712449 7.9691426 5.1176644 8.0839844 5.0410156 L 8.5273438 4.7460938 C 8.6421855 4.6694454 8.6933988 4.5019305 8.6347656 4.3769531 C 8.5558137 4.2086662 8.4652757 4.0465464 8.3613281 3.890625 L 6.1933594 0.63867188 C 5.9276787 0.24015112 5.4789623 0 5 0 z M 14.322266 3 C 13.991996 3.0079 13.662386 3.1108102 13.378906 3.3125 L 13.390625 3.3027344 L 7.890625 6.9746094 C 6.7853261 7.7123086 6.0036531 9.1703013 6.0019531 10.5 C 6.0011022 11.166919 6.0001 11.833201 6 12.5 C 5.9997886 13.886799 4.8865986 15 3.5 15 L 1.8027344 15 C 2.5313336 14.56099 3.0421845 13.836152 3.2089844 13.001953 L 3.2734375 12.683594 C 3.3535074 12.283244 3.5917304 12 4 12 L 4.265625 12 C 4.6798346 12 5.015625 11.66421 5.015625 11.25 C 5.015625 11.11193 4.9036949 11 4.765625 11 L 4 11 C 3.1211709 11 2.4652686 11.624589 2.2929688 12.486328 L 2.2285156 12.804688 C 2.1164457 13.365047 1.7732226 13.852485 1.2832031 14.146484 L 1.0292969 14.298828 C 0.66041724 14.520158 0.5187576 14.972765 0.6171875 15.328125 C 0.7156174 15.683485 1.0698204 16 1.5 16 L 3.5 16 C 5.4270981 16 6.9997 14.426898 7 12.5 C 7.0001016 11.833451 7.0011031 11.166399 7.0019531 10.5 C 7.0030731 9.6205409 7.7150864 8.293387 8.4472656 7.8046875 L 13.951172 4.1308594 L 13.958984 4.1269531 C 14.225534 3.9373033 14.576726 3.9635536 14.822266 4.1777344 C 15.044205 4.3984742 15.076585 4.7372484 14.884766 4.9863281 L 11.324219 9.609375 C 10.649159 10.485964 9.4999995 11 9 11 L 8.75 11 C 8.3357904 11 8 11.33579 8 11.75 C 8 11.88807 8.1119301 12 8.25 12 L 8.5 12 C 9.9158986 12 11.253288 11.342482 12.117188 10.220703 L 15.675781 5.5976562 C 16.176081 4.9479869 16.106954 4.0153651 15.515625 3.4472656 L 15.509766 3.4414062 L 15.505859 3.4355469 C 15.21111 3.1687771 14.8398 3.0240431 14.462891 3.0019531 C 14.415771 2.9991931 14.369446 2.99887 14.322266 3 z M 0.38671875 15.783203 C 0.32816981 15.783242 0.28147 15.818158 0.28125 15.861328 C 0.28061116 15.904938 0.32756581 15.941366 0.38671875 15.941406 C 0.44587069 15.941369 0.49478062 15.867839 0.49414062 15.824219 C 0.49392714 15.781049 0.44526969 15.783253 0.38671875 15.783203 z " />
  <g
     id="path3593"
     style="fill:#786d7d;fill-opacity:1" />
</svg>
