<svg width="16" height="16" version="1.1" viewBox="0 0 16 16" xmlns="http://www.w3.org/2000/svg">
 <path d="m5.5 1c-1.3748 0-2.5 1.1252-2.5 2.5s1.1252 2.5 2.5 2.5c0.22891 0 0.45108-0.031492 0.66211-0.089844l0.35352 0.58984 1.0371 1.7285 1.3906 2.3184 0.26257 0.43827c0.14192 0.23688 0.4189 0.26384 0.66895 0.14972 0.18973-0.086588 0.40118-0.13487 0.62512-0.13487 0.83434 0 1.5 0.66566 1.5 1.5s-0.66566 1.5-1.5 1.5c-0.83434 0-1.5-0.66566-1.5-1.5 0-0.0032 1.07e-5 -0.0065 3.21e-5 -0.0097 0.0018137-0.27492-0.13795-0.4903-0.41409-0.4903h-3.6367v-2e-3c-0.23417-1.1363-1.2463-1.998-2.4492-1.998-1.3748 0-2.5 1.1252-2.5 2.5s1.1252 2.5 2.5 2.5c0.54436 0 1.0493-0.17724 1.4609-0.47645 0.33382-0.24268 0.19743-0.52355-0.21678-0.52355h-1.2441c-0.83434 0-1.5-0.66566-1.5-1.5s0.66566-1.5 1.5-1.5 1.5 0.66566 1.5 1.5c0 0.0032-1.07e-5 0.0065-3.21e-5 0.0097-0.0018137 0.27492 0.13795 0.4903 0.41409 0.4903h3.6367v2e-3c0.23417 1.1363 1.2463 1.998 2.4492 1.998 1.3748 0 2.5-1.1252 2.5-2.5s-1.1252-2.5-2.5-2.5c-0.22892 0-0.45108 0.03149-0.66211 0.08984l-0.33789-0.5625-2.4434-4.0742-0.26338-0.437c-0.14254-0.23651-0.42035-0.26346-0.67062-0.14982-0.1891 0.085858-0.39969 0.1337-0.62264 0.1337-0.83434 0-1.5-0.66566-1.5-1.5s0.66566-1.5 1.5-1.5 1.5 0.66566 1.5 1.5c0 0.00325-1.07e-5 0.0065-3.21e-5 0.00974-0.0018137 0.27488 0.13795 0.49026 0.41409 0.49026h3.6367c0.23344 1.1373 1.2456 2 2.4492 2 1.3748 0 2.5-1.1252 2.5-2.5s-1.1252-2.5-2.5-2.5c-0.56063 0-1.0824 0.185-1.5 0.5-0.30997 0.23379-0.15836 0.5 0.25586 0.5h1.2441c0.83434 0 1.5 0.66566 1.5 1.5s-0.66566 1.5-1.5 1.5-1.5-0.66566-1.5-1.5c0-0.00325 1.1e-5 -0.0065 3.2e-5 -0.00974 0.001814-0.27488-0.13795-0.49026-0.41409-0.49026h-3.6367c-0.23344-1.1373-1.2456-2-2.4492-2z" color="#000000" fill="#786d7d" style="-inkscape-stroke:none"/>
 <path d="m5.5 13.5h-3" color="#000000" fill="#786d7d" style="-inkscape-stroke:none"/>
 <path d="m5.5 1a2.5 2.5 0 0 0-2.5 2.5 2.5 2.5 0 0 0 2.5 2.5 2.5 2.5 0 0 0 2.5-2.5 2.5 2.5 0 0 0-2.5-2.5zm8 0a2.5 2.5 0 0 0-2.5 2.5 2.5 2.5 0 0 0 2.5 2.5 2.5 2.5 0 0 0 2.5-2.5 2.5 2.5 0 0 0-2.5-2.5zm-11 9a2.5 2.5 0 0 0-2.5 2.5 2.5 2.5 0 0 0 2.5 2.5 2.5 2.5 0 0 0 2.5-2.5 2.5 2.5 0 0 0-2.5-2.5zm8 0a2.5 2.5 0 0 0-2.5 2.5 2.5 2.5 0 0 0 2.5 2.5 2.5 2.5 0 0 0 2.5-2.5 2.5 2.5 0 0 0-2.5-2.5z" fill="#786d7d" fill-opacity=".93703" opacity=".17"/>
</svg>
