<svg width="16" height="16" version="1.1" viewBox="0 0 16 16" xmlns="http://www.w3.org/2000/svg">
 <path d="m7.9922 4.9473c-2.7857 6.196e-4 -5.0434 2.2593-5.043 5.0449 6.195e-4 2.7849 2.2581 5.0423 5.043 5.043 2.7857 4.59e-4 5.0443-2.2573 5.0449-5.043 4.59e-4 -2.7864-2.2585-5.0454-5.0449-5.0449zm-1.9884 2.0603c0.55244-1.378e-4 1.0003 0.44774 1.0002 1.0002 1.378e-4 0.55244-0.44774 1.0003-1.0002 1.0002-0.55244 1.38e-4 -1.0003-0.44774-1.0002-1.0002-1.38e-4 -0.55244 0.44774-1.0003 1.0002-1.0002z" fill="#786d7d" opacity=".16" stroke-width=".99999" style="paint-order:fill markers stroke"/>
 <path d="m9.4746 0c-0.26491 0.013342-0.47461 0.23166-0.47461 0.5 0 0.277 0.223 0.5 0.5 0.5s0.5-0.223 0.5-0.5-0.223-0.5-0.5-0.5c-0.00866 0-0.016845-4.3039e-4 -0.025391 0zm1.5254 0.25c0 0.41421 0.33579 0.75 0.75 0.75h1.25c0.47257 0 0.91567 0.22155 1.1992 0.59961 0.36935 0.49247 0.322 1.1721-0.11328 1.6074l-0.58594 0.58594-0.79297-0.79297c-0.39051-0.39042-1.0236-0.39042-1.4141 0l-0.32322 0.32322c-0.09763 0.097631-0.09763 0.25592 0 0.35355 0.22395 0.2375 0.56965 0.2913 0.84856 0.15586 0.065-0.031566 0.12638-0.073411 0.18174-0.1256l2.293 2.293c-0.48692 0.48355-0.9682 0.96719-1.4453 1.4512-0.19386 0.19665-0.25171 0.55741-0.15625 0.81641 0.19875 0.53922 0.30859 1.123 0.30859 1.7324 0 2.7673-2.2327 5-5 5s-5-2.2327-5-5 2.2327-5 5-5c1.2719 0 2.4287 0.4729 3.3091 1.2517 0.10341 0.091466 0.26221 0.091069 0.35984-0.00656 0.29178-0.29178 0.29078-0.76786-0.03838-1.0189-1.0087-0.7692-2.2673-1.2262-3.6306-1.2262-3.3078 0-6 2.6922-6 6s2.6922 6 6 6 6-2.6922 6-6c0-0.68718-0.11629-1.3475-0.33008-1.9629l1.3301-1.3301c0.39042-0.39051 0.39042-1.0236 0-1.4141l-0.79297-0.79297 0.58594-0.58594c0.78192-0.78192 0.87051-2.0294 0.20703-2.9141-0.47187-0.62916-1.2135-1-2-1h-1.75c-0.13807 0-0.25 0.11193-0.25 0.25z" color="#000000" fill="#786d7d" stroke-linecap="square" style="-inkscape-stroke:none;paint-order:fill markers stroke"/>
</svg>
