<svg width="16" height="16" version="1.1" viewBox="0 0 16 16" xmlns="http://www.w3.org/2000/svg">
 <path d="m2 15v-3.7031l2-2 4 3.7031 4-3.7109 2 2v3.7109z" fill="#786d7d" opacity=".16" style="paint-order:markers stroke fill"/>
 <path d="m8.0078 0.71289c-1.1171 0.0027-2.0151 0.89919-2.0117 1.9922l0.0039062 1.2949-0.0039062 2.2051c-0.0018695 1.041 0.63475 1.8709 1.4551 2.2324 0.8203 0.3615 1.8606 0.27077 2.6289-0.43164l2.6465-2.4199c0.06594-0.060289 0.11413-0.053653 0.17383-0.027344 0.0597 0.0263 0.095703 0.057128 0.095703 0.14648v1.5c0 0.49625-0.20894 0.96889-0.57617 1.3027l-3.9629 3.6035c-0.26409 0.24008-0.65779 0.24008-0.92188 0l-3.9629-3.6035c-0.36723-0.33381-0.57617-0.80644-0.57617-1.3027v-1.5c-1e-7 -0.13575 0.15364-0.26516 0.26953-0.11914l0.74609 0.79492c0.16535 0.15118 0.47923 0.44312 0.95117 0.58008 0.18331 0.0532 0.31593-0.086441 0.28711-0.27539l-0.076172-0.50586c-0.01742-0.11421-0.11533-0.25162-0.21094-0.31641-0.09522-0.06452-0.18688-0.138-0.27734-0.2207l-0.74414-0.79297c-0.35828-0.32753-0.86417-0.37791-1.252-0.20703-0.38777 0.17088-0.69336 0.57711-0.69336 1.0625v1.5c0 0.7775 0.32899 1.52 0.9043 2.043l3.9629 3.6035c0.639 0.58096 1.6266 0.58096 2.2656 0l3.9629-3.6035c0.57531-0.523 0.9043-1.2655 0.9043-2.043v-1.5c0-0.48539-0.30559-0.89162-0.69336-1.0625-0.38782-0.17088-0.89372-0.1205-1.252 0.20703l-2.6445 2.418c-0.476 0.43519-1.0585 0.47084-1.5508 0.25391-0.49227-0.2169-0.86054-0.67148-0.85938-1.3164l0.0039062-2.2051-0.0039062-1.2949c-0.0016885-0.55342 0.43762-0.99088 1.0137-0.99219s0.99216 0.43838 0.99023 0.99414v1.9629a0.20398 0.20398 0 0 0 0.29492 0.18164l0.41016-0.20312a0.53386 0.53386 0 0 0 0.29492-0.47852v-1.459c0.0038-1.0982-0.87509-2.0007-1.9922-1.998zm-5.4258 10.045a0.24995 0.24995 0 0 0-0.11328 0.066407l-0.96875 0.96875c-0.32001 0.32001-0.5 0.75447-0.5 1.207v1.5c0 0.8225 0.6775 1.5 1.5 1.5h11c0.8225 0 1.5-0.6775 1.5-1.5v-1.5c0-0.45256-0.17999-0.88702-0.5-1.207l-0.96875-0.96875a0.25 0.25 0 0 0-0.35547 0 0.74995 0.74995 0 0 0 0.001953 1.0605l0.61524 0.61523c0.13274 0.13274 0.20703 0.31227 0.20703 0.5v1.5c0 0.28206-0.21794 0.5-0.5 0.5h-11c-0.28206 0-0.5-0.21794-0.5-0.5v-1.5c1e-7 -0.18773 0.074287-0.36726 0.20703-0.5l0.61523-0.61523a0.75 0.75 0 0 0 0-1.0625 0.24995 0.24995 0 0 0-0.24023-0.064454zm8.918 2.2422a0.5 0.5 0 0 0-0.5 0.5 0.5 0.5 0 0 0 0.5 0.5 0.5 0.5 0 0 0 0.5-0.5 0.5 0.5 0 0 0-0.5-0.5z" fill="#786d7d" style="-inkscape-stroke:none"/>
</svg>
