<svg width="16" height="16" version="1.1" viewBox="0 0 16 16" xmlns="http://www.w3.org/2000/svg">
 <path d="m3 3v10a2 2 0 0 0 2 2h9a2 2 0 0 0 2-2v-10a2 2 0 0 0-2-2h-9a2 2 0 0 0-2 2z" fill="#786d7d" opacity=".17"/>
 <path d="m1.3301 0.99999a0.33 0.33 0 0 0-0.33007 0.32995v0.33978a0.33 0.33 0 0 0 0.33007 0.32995h0.66992c0.09532 0 0.20734-0.090709 0.26366-0.21694 0.07268-0.16252 0.16055-0.3171 0.25977-0.46292 0.077594-0.11414 0.042746-0.24076-0.091805-0.27137-0.1392-0.030236-0.28305-0.048756-0.43164-0.048756zm3.6699 0c-1.0986 0-2 0.90138-2 2v10c0 0.55824-0.44179 1-1 1h-0.66992a0.33 0.33 0 0 0-0.33007 0.32995v0.33978a0.33 0.33 0 0 0 0.33007 0.32995h0.66992c1.0986 0 2-0.90134 2-2v-10c0-0.5582 0.4418-0.99999 1-0.99999h0.66992a0.33 0.33 0 0 0 0.33007-0.32995v-0.33978a0.33 0.33 0 0 0-0.33007-0.32995zm6.168 2.4356a0.33 0.33 0 0 0-0.24608 0.21883l-2.793 8.375a0.33 0.33 0 0 0 0.20897 0.41601l0.32421 0.10923a0.33 0.33 0 0 0 0.41602-0.20901l2.793-8.375a0.33 0.33 0 0 0-0.20897-0.41601l-0.32421-0.10923a0.33 0.33 0 0 0-0.16993-0.011339zm3 0a0.33 0.33 0 0 0-0.24608 0.21883l-2.793 8.375a0.33 0.33 0 0 0 0.20897 0.41601l0.32421 0.10923a0.33 0.33 0 0 0 0.41602-0.20901l2.793-8.375a0.33 0.33 0 0 0-0.20897-0.41601l-0.32421-0.10923a0.33 0.33 0 0 0-0.16993-0.011339zm-7.668 7.5645a0.5 0.5 0 0 0-0.5 0.49999 0.5 0.5 0 0 0 0.5 0.49999 0.5 0.5 0 0 0 0.5-0.49999 0.5 0.5 0 0 0-0.5-0.49999zm-1.5 3c-0.09532 0-0.20734 0.09071-0.26366 0.21694-0.07268 0.16252-0.16055 0.31672-0.25977 0.46288-0.077556 0.11414-0.042747 0.24076 0.091805 0.27137 0.1392 0.03024 0.28305 0.04876 0.43164 0.04876h0.66992a0.33 0.33 0 0 0 0.33007-0.32995v-0.33978a0.33 0.33 0 0 0-0.33007-0.32996z" color="#000000" fill="#786d7d" style="-inkscape-stroke:none"/>
</svg>
