<svg width="16" height="16" version="1.1" viewBox="0 0 16 16" xmlns="http://www.w3.org/2000/svg">
 <path d="m0 13v-10a2 2 135 0 1 2-2h10l2 2v10a2 2 135 0 1-2 2h-10a2 2 45 0 1-2-2z" fill="#786d7d" opacity=".16" style="paint-order:markers stroke fill"/>
 <path d="m11.25 1c-0.13807 0-0.25 0.11193-0.25 0.25v0.5c0 0.13807 0.11193 0.25 0.25 0.25h0.75c0.5582 0 1 0.44179 1 1v10c0 1.0986 0.90136 2 2 2h0.75c0.13807 0 0.25-0.11193 0.25-0.25v-0.5c0-0.13807-0.11193-0.25-0.25-0.25h-0.75c-0.5582 0-1-0.4418-1-1v-10c0-1.0986-0.90136-2-2-2zm3.75 0c-0.18407 0-0.36168 0.026191-0.53096 0.073875-0.07868 0.022163-0.10862 0.10315-0.0688 0.17456l0.364 0.65265c0.03528 0.063263 0.12184 0.10338 0.19415 0.099928 0.013778-6.566e-4 0.027647-0.0010049 0.041612-0.0010049h0.75c0.13807 0 0.25-0.11193 0.25-0.25v-0.5c0-0.13807-0.11193-0.25-0.25-0.25zm-9.0508 2c-1.2743-0.0017687-2.3962 0.87661-2.6895 2.1133-0.042031 0.17727 0.090407 0.34065 0.27148 0.36133l0.16797 0.019531c0.27436 0.031325 0.5157-0.17152 0.62109-0.42578 0.29279-0.70636 1.0209-1.159 1.8223-1.0684l0.83008 0.00195h0.027344c1.1105 0 2 0.88951 2 2v6.248c0 0.41421 0.33579 0.75 0.75 0.75 0.13807 0 0.25-0.11193 0.25-0.25v-6.748c0-1.6396-1.3353-2.9699-2.9707-2.9883-0.093553-0.0095435-0.98786-0.013544-1.0801-0.013672zm-0.14922 4c-1.6509 0-3 1.3491-3 3 0 1.6509 1.3491 3 3 3h0.7c0.69326 0 1.3402-0.20379 1.8847-0.55433 0.2109-0.13576 0.36526-0.47336 0.36526-0.72435v-0.48293a0.19352 0.19352 16.615 0 0-0.3554-0.10605l-5.519e-4 8.42e-4c-0.4569 0.53132-1.1338 0.86682-1.894 0.86682h-0.7c-1.1105 0-2-0.88951-2-2 0-1.1105 0.88951-2 2-2h1.45c0.41421 0 0.75-0.33579 0.75-0.75 0-0.13807-0.11193-0.25-0.25-0.25zm6.2272 6.9996c-0.009011 2.84e-4 -0.018061 4.32e-4 -0.027152 4.32e-4h-0.75c-0.13807 0-0.25 0.11193-0.25 0.25v0.5c0 0.13807 0.11193 0.25 0.25 0.25h0.75c0.09464 0 0.18757-0.0069 0.27853-0.02013 0.22169-0.03219 0.30473-0.25788 0.19543-0.45386l-0.23115-0.41445c-0.03918-0.07024-0.13533-0.11453-0.21566-0.11199z" color="#000000" fill="#786d7d" style="-inkscape-stroke:none;paint-order:markers stroke fill"/>
</svg>
