<svg width="16" height="16" version="1.1" viewBox="0 0 16 16" xml:space="preserve" xmlns="http://www.w3.org/2000/svg"><g transform="translate(.043301 -.013366)"/><g fill="#786d7d"><path d="m2.5 1c-1.3807 0-2.5 1.1193-2.5 2.5v9c0 1.3807 1.1193 2.5 2.5 2.5h1a0.5 0.5 135 0 0 0.5-0.5v-0.5h-1.5c-0.82843 0-1.5-0.67157-1.5-1.5v-9c0-0.82843 0.67157-1.5 1.5-1.5h6.6582c0.19863-6.855e-4 0.36931-0.14115 0.4082-0.33594l0.066406-0.32812c0.034846-0.17381-0.098123-0.33601-0.27539-0.33594zm8 0c-0.27614 0-0.5 0.22386-0.5 0.5s0.22386 0.5 0.5 0.5 0.5-0.22386 0.5-0.5-0.22386-0.5-0.5-0.5zm1.2422 0c-0.14038-2.1717e-4 -0.26138 0.098709-0.28906 0.23633l-0.0918 0.45703c-0.03187 0.15889 0.089902 0.3071 0.25196 0.30664h0.38672c0.55228 0 1 0.44772 1 1v1c0 0.15641 0.11698 0.23314 0.26704 0.18932 0.05083-0.014844 0.10214-0.028161 0.15387-0.039924 0.31384-0.071368 0.57909-0.32687 0.57909-0.64939v-0.5c0-1.1046-0.89543-2-2-2zm2.2617 4c-0.45256 2e-7 -0.88705 0.17999-1.207 0.5l-1.293 1.293c-0.38634 0.38634-0.38634 1.0277 0 1.4141l0.72266 0.7207c0.09785 0.098914 0.25762 0.098914 0.35547 0 0.29285-0.29285 0.29099-0.7677-2e-3 -1.0605l-0.36909-0.36719 1.293-1.293c0.13274-0.13274 0.31227-0.20703 0.5-0.20703 0.18773 1e-7 0.36726 0.074288 0.5 0.20703l0.29297 0.29297c0.13274 0.13274 0.20703 0.31227 0.20703 0.5s-0.07429 0.36726-0.20703 0.5l-7.293 7.293c-0.13274 0.13274-0.31227 0.20703-0.5 0.20703h-1v-1c0-0.18773 0.074288-0.36726 0.20703-0.5l3.9688-3.9688c0.29412-0.2931 0.29412-0.7694 0-1.0625-0.09815-0.097099-0.25644-0.096223-0.35352 0.00195l-4.3223 4.3223c-0.32001 0.32001-0.5 0.7545-0.5 1.207v1c0 0.54636 0.45364 1 1 1h1c0.45256 0 0.88705-0.17999 1.207-0.5l7.293-7.293c0.32001-0.32001 0.5-0.7545 0.5-1.207s-0.17999-0.88705-0.5-1.207l-0.29297-0.29297c-0.32001-0.32001-0.7545-0.5-1.207-0.5zm-8.5293 2.791c-0.21041-0.005269-0.42182 0.067746-0.58984 0.21875l-3.2852 2.9531c-0.11692 0.10523-0.12653 0.28526-0.021484 0.40234l0.070312 0.07813c0.22354 0.25031 0.60793 0.27132 0.85742 0.04687l2.7246-2.4512c0.12043-0.10859 0.30467-0.10431 0.41992 0.0097656l0.82108 0.81635a0.2706 0.2706 179.44 0 0 0.38528-0.00375l0.4062-0.41989a0.14353 0.14353 89.461 0 0-0.0019-0.20152l-1.2064-1.201c-0.16025-0.15922-0.36967-0.24278-0.58008-0.24805zm8.1774 3.5648-0.65197 0.65197v0.49219c0 0.82843-0.67157 1.5-1.5 1.5h-0.49219l-0.29842 0.29842a0.41098 0.41098 67.5 0 0 0.2906 0.70158h0.5c1.3807 0 2.5-1.1193 2.5-2.5v-1a0.20387 0.20387 22.5 0 0-0.34803-0.14416z" style="-inkscape-stroke:none"/><path d="m4.2969 8.543-3.2969 2.916v2.541h3c0-0.69552 0.14012-1.5194 0.63989-2.0031l2.7324-2.6445-0.677-0.66296zm8.7031 3.4648-1.9922 1.9922h1.9922z" opacity=".16"/><ellipse cx="3.5" cy="4.4897" rx="1.5" ry="1.5243" opacity=".5"/></g><g transform="translate(.00387 -.00084)"><g transform="translate(2,4)" fill="#786d7d"><path d="m11.5 1.625c-0.51289 0-1.0256 0.1936-1.4141 0.58203l-0.58594 0.58594c-0.38634 0.38634-0.38634 1.0277 0 1.4141l1.9 1.9 1.293-1.293c0.77686-0.77686 1.1769-1.6513 0.4-2.4281l-0.17891-0.17891c-0.38843-0.38843-0.90117-0.58203-1.4141-0.58203z" color="#000000" opacity=".15" style="-inkscape-stroke:none"/></g></g></svg>
