<svg version="1.1" viewBox="0 0 16 16" xml:space="preserve" xmlns="http://www.w3.org/2000/svg"><defs><style id="current-color-scheme" type="text/css">
      .ColorScheme-NegativeText {
        color:#da4453;
      }
      </style><style type="text/css">
      .ColorScheme-NegativeText {
        color:#da4453;
      }
      </style></defs><path d="m4.8755 2.0002c-0.65171 0.013906-1.0665 0.78847-0.71649 1.3384 0.00527 0.00829 0.014133 0.021543 0.019593 0.029736l3.2107 4.818c0.00546 0.00819 0.014339 0.02146 0.019535 0.029821 0.10887 0.17517 0.10886 0.39254-1.6e-5 0.56771-0.00519 0.00835-0.01406 0.021603-0.019519 0.029796l-3.2107 4.818c-0.00546 0.0082-0.01433 0.02146-0.019615 0.02977-0.34993 0.54997 0.064835 1.3245 0.71655 1.3384 0.0098204 2.09e-4 0.025765 1.89e-4 0.03561 1.89e-4h6.8955c0.65316 0 1.1934-0.5402 1.1934-1.1934v-0.60617a0.70047 0.70047 45 0 0-0.70047-0.70047h-0.11752a0.18201 0.18201 135 0 0-0.18201 0.18201v1.1246c0 0.11272-0.080639 0.19336-0.19336 0.19336h-6.6533a0.0095436 0.0095436 61.837 0 1-0.00794-0.01483l3.0759-4.6168c0.00546-0.00819 0.01432-0.02147 0.019686-0.029724 0.33101-0.50918 0.33101-1.1681 6e-7 -1.6773-0.00537-0.00825-0.014228-0.021532-0.019687-0.029725l-3.0759-4.6168a0.0095436 0.0095436 118.16 0 1 0.0079423-0.014835h6.6533c0.11272 0 0.19336 0.080639 0.19336 0.19336v0.057409a0.43955 0.43955 34.099 0 0 0.6028 0.40811l0.13608-0.054434a0.41539 0.41539 124.1 0 0 0.26112-0.38568v-0.025408c0-0.65316-0.5402-1.1934-1.1934-1.1934h-6.8955c-0.00985 0-0.025808-2.01e-5 -0.035651 1.899e-4z" color="#000000" fill="#786d7d" style="-inkscape-stroke:none"/></svg>
