<svg width="16" height="16" version="1.1" viewBox="0 0 16 16" xmlns="http://www.w3.org/2000/svg">
 <path d="m14 10h-11v-3h3l1-1v-5h2v5h3a2 2 45 0 1 2 2z" fill="#786d7d" opacity=".16" style="paint-order:markers stroke fill"/>
 <path d="m8 0c1.0986 0 2 0.90136 2 2v4h2c1.0142 0 1.8603 0.76814 1.9843 1.7505 0.017296 0.13697-0.096278 0.24948-0.23435 0.24948h-0.5c-0.13807 0-0.24682-0.1139-0.28003-0.24757-0.10829-0.43582-0.49742-0.75243-0.96997-0.75243h-2c-0.54636 0-1-0.45364-1-1v-4c0-0.55821-0.44179-1-1-1-0.55821 0-1 0.44179-1 1v4c0 0.54636-0.45364 1-1 1h-2c-0.5582 0-1 0.44179-1 1v1h10.25c0.40829 0 0.75 0.34171 0.75 0.75v2.75c0 1.9271-1.5729 3.5-3.5 3.5h-3.75c-0.40829 0-0.75-0.34171-0.75-0.75v-0.54297l-0.96875 0.9707c-0.20682 0.20682-0.48876 0.32227-0.78125 0.32227h-3.25a0.5 0.5 0 0 1-0.5-0.5v-0.37703c0-0.18225 0.13714-0.38704 0.29318-0.48096 0.72479-0.43625 1.2068-1.2296 1.2068-2.142v-1.25a0.25 0.25 0 0 1 0.25-0.25 0.75 0.75 0 0 1 0.75 0.75v0.75c0 0.98121-0.41366 1.8633-1.0684 2.5h2.3184c0.02766 0 0.05271-0.01169 0.07227-0.03125l1.4707-1.4688c0.20772-0.20772 0.53118-0.25188 0.77148-0.15234 0.2403 0.099536 0.43555 0.35858 0.43555 0.65234v1h3.5c1.3866 0 2.5-1.1134 2.5-2.5v-2.5h-10.25c-0.40829 0-0.75-0.34171-0.75-0.75v-1.25c0-1.0986 0.90136-2 2-2h2v-4c0-1.0986 0.90136-2 2-2z" color="#000000" fill="#786d7d" style="-inkscape-stroke:none;paint-order:markers stroke fill"/>
</svg>
