<svg width="16" height="16" version="1.1" viewBox="0 0 16 16" xml:space="preserve" xmlns="http://www.w3.org/2000/svg"><path d="m3 2c-1.0986 0-2 0.90137-2 2v7.793c0 0.58516 0.23271 1.1468 0.64648 1.5605l2 2c0.46721 0.46721 1.2398 0.46721 1.707 0l2-2c0.22651-0.22651 0.53318-0.35352 0.85352-0.35352h0.65234c0.077745 2e-4 0.14082-0.06289 0.14062-0.14062v-0.14453c5.371e-4 -0.39502-0.31982-0.71538-0.71484-0.71484h-0.078125c-0.58517 0-1.1468 0.23272-1.5605 0.64648l-2 2c-0.085068 0.08507-0.2079 0.08507-0.29297 0l-2-2c-0.22651-0.22651-0.35352-0.53318-0.35352-0.85352v-7.793c0-0.55821 0.44179-1 1-1h10c0.5582 0 1 0.44179 1 1v6a2 2 0 0 1-2 2h-1.8359a0.16363 0.16363 0 0 0-0.16406 0.16406v0.09961a0.73681 0.73681 0 0 0 0.73633 0.73633h1.2637a3 3 0 0 0 3-3v-6c0-1.0986-0.90137-2-2-2h-10zm0.46094 2c-0.2544 4.137e-4 -0.46052 0.20654-0.46094 0.46094v0.078125c4.137e-4 0.2544 0.20654 0.46052 0.46094 0.46094h8.0781c0.2544-4.134e-4 0.46052-0.20654 0.46094-0.46094v-0.078125c-4.14e-4 -0.2544-0.20654-0.46052-0.46094-0.46094h-8.0781zm0 2c-0.2544 4.137e-4 -0.46052 0.20654-0.46094 0.46094v0.078125c4.137e-4 0.2544 0.20654 0.46052 0.46094 0.46094h4.0781c0.2544-4.137e-4 0.46052-0.20654 0.46094-0.46094v-0.078125c-4.137e-4 -0.2544-0.20654-0.46052-0.46094-0.46094h-4.0781zm0 2c-0.2544 4.13e-4 -0.46052 0.20654-0.46094 0.46094v0.078125c4.137e-4 0.2544 0.20654 0.46052 0.46094 0.46094h8.0781c0.2544-4.14e-4 0.46052-0.20654 0.46094-0.46094v-0.078125c-4.14e-4 -0.2544-0.20654-0.46052-0.46094-0.46094h-8.0781zm5.3262 4.7402h0.0019531c0.00199 5.27e-4 0.0039394 0.001154 0.0058594 0.001954h0.0019531c0.00199 5.25e-4 0.0039394 0.001153 0.0058594 0.001953h0.0019531l0.0019531 0.001953c0.00199 5.27e-4 0.0039394 0.001153 0.0058594 0.001953l0.0019531 0.001953h0.0019531l0.013672 0.013672c1.01e-5 6.51e-4 1.01e-5 0.003206 0 0.003906 0.00141 0.0019 0.0027163 0.00376 0.0039063 0.00586v0.001953c7.475e-4 0.0019 0.0014031 0.003859 0.0019531 0.005859l0.0019531 0.001953v0.005859c7.476e-4 0.0019 0.0014032 0.00386 0.0019532 0.00586v0.005859c-4.912e-4 0.03139-0.023938 0.056571-0.052734 0.056641-0.028797-7.3e-5 -0.052243-0.025261-0.052734-0.056641-4.966e-4 -0.03215 0.023237-0.058524 0.052734-0.058593v-0.001954z" fill="#786d7d" style="-inkscape-stroke:none;paint-order:markers stroke fill"/></svg>
