<svg width="16" height="16" version="1.1" viewBox="0 0 16 16" xml:space="preserve" xmlns="http://www.w3.org/2000/svg"><g transform="translate(.043301 -.013366)"/><g fill="#786d7d"><path d="m2.5 1c-1.3807 0-2.5 1.1193-2.5 2.5v9c0 1.3807 1.1193 2.5 2.5 2.5h5.0996l0.14648-1h-5.2461c-0.82843 0-1.5-0.67157-1.5-1.5v-9c0-0.82843 0.67157-1.5 1.5-1.5h6.6582c0.19863-6.855e-4 0.36931-0.14115 0.4082-0.33594l0.066406-0.32812c0.034846-0.17381-0.098123-0.33601-0.27539-0.33594zm8 0c-0.27614 0-0.5 0.22386-0.5 0.5s0.22386 0.5 0.5 0.5 0.5-0.22386 0.5-0.5-0.22386-0.5-0.5-0.5zm1.2422 0c-0.14038-2.1717e-4 -0.26138 0.098709-0.28906 0.23633l-0.0918 0.45703c-0.03187 0.15889 0.089902 0.3071 0.25196 0.30664h0.38672c0.55228 0 1 0.44772 1 1v4.3574c0.32868 0.45748 0.6852 1.0129 1 1.4199v-5.7773c0-1.1046-0.89543-2-2-2zm-1.248 5.7617c-0.02908 0.00118-0.05879 0.00507-0.08789 0.00977-0.15391 0.024289-0.29615 0.096775-0.40625 0.20703l-2.3457 2.3594c-0.080232 0.081747-0.21165 0.082627-0.29297 0.00195l-1.3066-1.3008c-0.32051-0.31845-0.83388-0.3313-1.1699-0.029297l-3.2852 2.9531c-0.11692 0.10523-0.12653 0.28526-0.021484 0.40234l0.070312 0.07813c0.22354 0.25031 0.60793 0.27132 0.85742 0.04687l2.7246-2.4512c0.12043-0.10859 0.30467-0.10431 0.41992 0.0097656l1.0156 1.0098c0.35224 0.34564 0.88091 0.4388 1.3301 0.23438v-0.05078c-0.0010938-0.65117 0.59298-1.2452 1.2441-1.2441h0.16406l0.97656-0.98242c0.06476-0.065715 0.1705-0.066592 0.23633-0.00195l0.06836 0.068359 0.17383-0.3125c0.0013-0.00131 0.0026-0.00261 0.0039-0.00391 0.11422-0.2013 0.27918-0.37259 0.47461-0.49609l-0.29492-0.29297c-0.14626-0.14558-0.34525-0.22313-0.54883-0.21484zm1.6426 1.2871c-0.16546-0.020124-0.32669 0.061649-0.4082 0.20703l-0.56055 1.002c-0.0326 0.057746-0.01255 0.13098 0.04492 0.16406l0.41992 0.23828c0.19198 0.10813 0.43526 0.039865 0.54297-0.15234l0.52148-0.93164c0.05806-0.1025 0.02224-0.23265-0.08008-0.29102l-0.32617-0.18555c-0.04754-0.027021-0.1-0.044285-0.1543-0.050781zm2.0918 1.6738c-0.13929 0.018295-0.25401 0.11838-0.29102 0.25391l-0.87695 3.2598-0.76562 0.21094c-0.11047 0.02978-0.176 0.14336-0.14648 0.25391l0.09375 0.34375c0.06475 0.23298 0.30607 0.36938 0.53906 0.30469l0.75195-0.20703c0.2138-0.05912 0.38029-0.22708 0.4375-0.44141l0.96875-3.5977c0.029896-0.11214-0.036443-0.22736-0.14844-0.25781l-0.42774-0.11523c-0.04398-0.011355-0.08976-0.014008-0.13476-0.00781zm-4.9902 0.27148c-0.13601-2.286e-4 -0.24632 0.11009-0.24609 0.24609l-0.00195 0.52148c-7.11e-5 0.12839 0.10403 0.23249 0.23242 0.23242l3.2902 0.005859 2e-3 0.0039c0.09256 0.15882 0.30363 0.20012 0.44922 0.08789l0.28516-0.21875c0.16126-0.12374 0.19732-0.35212 0.08203-0.51953l-0.14848-0.21288c-0.060165-0.087551-0.15939-0.14008-0.26562-0.14062zm1.0293 1.4316c-0.18548-0.02279-0.36648 0.0681-0.45898 0.23047l-0.2168 0.38281c-0.087238 0.15404-0.086496 0.34274 0.00195 0.49609l1.918 3.3301c0.04527 0.07878 0.14587 0.1059 0.22461 0.06055l0.28516-0.16406c0.2428-0.13907 0.32678-0.44872 0.1875-0.69141l-1.6055-2.7871 0.20312-0.35938c0.05527-0.09765 0.02123-0.22162-0.07617-0.27734l-0.29102-0.16602c-0.05315-0.02932-0.11155-0.0479-0.17188-0.05469zm4.7019 1.4206c-0.03039 7.01e-4 -0.06005 0.0095-0.08594 0.02539l-0.24678 0.12821c-0.30629 0.18314-0.40746 0.5791-0.22656 0.88672l0.46339 0.75977c0.05158 0.08764 0.16463 0.11656 0.25195 0.06445l0.62294-0.40475c0.07202-0.04239 0.0957-0.13535 0.05274-0.20703l-0.68135-1.1668c-0.03093-0.05371-0.08842-0.08656-0.1504-0.08593zm-5.0925 1.2981c-0.051059-0.0061-0.10281-0.0021-0.15234 0.01172l-1.043 0.28516c-0.1038 0.028961-0.16483 0.1362-0.13672 0.24024l0.17383 0.62891c0.02171 0.07972 0.10379 0.12687 0.18359 0.10547l1.2715-0.34766c0.10693-0.03018 0.16964-0.1408 0.14062-0.24805l-0.10547-0.38867c-0.04222-0.15418-0.17338-0.26759-0.33203-0.28711z" style="-inkscape-stroke:none"/><path d="m10.816 7.8457-3.4219 1.7891-0.69922-0.94531-2.3984-0.14648-3.2969 2.916v2.541h6.7461c0.15444-0.24536 0.38791-0.43944 0.66797-0.51758 0.00195-6.57e-4 0.0039-0.0013 0.00586-2e-3l0.49219-0.13477-0.17969-0.3125c-0.21945-0.38044-0.15623-0.84818-0.00586-1.2597-0.4013-0.20946-0.73267-0.55507-0.73242-1.0117-2.6e-6 -0.0013-2.6e-6 -0.0026 0-0.0039l0.00195-0.51562c-0.0010906-0.65117 0.59298-1.2452 1.2441-1.2441l1.0371 0.0019531c0.02152-0.076485-0.01609-0.16241 0.02344-0.23242z" opacity=".16"/><ellipse cx="3.5" cy="4.4897" rx="1.5" ry="1.5243" opacity=".5"/></g></svg>
