<svg width="16" height="16" version="1.1" viewBox="0 0 16 16" xml:space="preserve" xmlns="http://www.w3.org/2000/svg"><path d="m9.793 14c0.59046 0 1.1555-0.24864 1.5527-0.68555l3.3008-3.6816c0.58096-0.63905 0.58096-1.6266 0-2.2656l-3.3008-3.6816c-0.39719-0.4369-0.96232-0.68555-1.5527-0.68555h-6.793c-0.88536 0-1.6417 0.58449-1.9023 1.3867-0.1058 0.32564 0.18165 0.61328 0.52539 0.61328h0.20898c0.09279 0 0.16666-0.0765 0.18164-0.16797 0.07807-0.47668 0.48521-0.83203 0.98633-0.83203h6.793c0.30923 0 0.60449 0.13056 0.8125 0.35938l3.3008 3.6797c0.24007 0.26408 0.24007 0.6578 0 0.92188l-3.3008 3.6797c-0.20801 0.22881-0.50327 0.35938-0.8125 0.35938h-6.793c-0.55821 0-1-0.4418-1-1v-5.1758c2.63e-4 -0.4443-0.25087-0.85052-0.64844-1.0488l-0.10547-0.05274c-0.1132-0.057455-0.24705 0.025399-0.24609 0.15235v6.125c0 1.0986 0.90136 2 2 2zm-0.62856-2.5082 0.32743-0.32743a0.26842 0.26842 0 0 0 0-0.3796l-2.1777-2.1777a0.15149 0.15149 0 0 1 0-0.21424l2.2604-2.2604a0.15149 0.15149 0 0 0 0-0.21424l-0.45365-0.45365a0.20684 0.20684 0 0 0-0.29252 0l-2.2212 2.2212a0.15149 0.15149 0 0 1-0.21424 0l-2.2452-2.2452a0.17292 0.17292 0 0 0-0.24454 0l-0.38982 0.38982a0.27569 0.27569 0 0 0 0 0.38989l2.1349 2.1349a0.20467 0.20467 0 0 1 0 0.28945l-2.1239 2.1239a0.29125 0.29125 0 0 0 1e-7 0.41189l0.46981 0.46981a0.044231 0.044231 0 0 0 0.062552 0l2.3362-2.3362a0.15149 0.15149 0 0 1 0.21424 0l2.1777 2.1777a0.26842 0.26842 0 0 0 0.3796 0zm-7.9515-5.527c-0.0019 1.66e-4 -0.0039 1.66e-4 -0.0059 0h-6e-3l-2e-3 -2e-3h-6e-3l-4e-3 -4e-3h-2e-3l-0.01-0.01v-2e-3h-2e-3v-4e-3l-2e-3 -2e-3v-6e-3l-2e-3 -2e-3v-4e-3c-3.15e-4 -0.01955 0.01561-0.03547 0.03516-0.03516 0.01955-3.12e-4 0.03547 0.01561 0.03516 0.03516 4.83e-4 0.01743-0.01207 0.03249-0.0293 0.03516zm0.67969-0.75781v-2e-3c0.02713-2.77e-4 0.04896-0.02472 0.04883-0.05469 1.32e-4 -0.02997-0.02169-0.05441-0.04883-0.05469-0.02713 2.77e-4 -0.04896 0.02472-0.04883 0.05469v0.01c5.46e-4 2e-3 0.0012 4e-3 2e-3 0.0059v4e-3c5.46e-4 2e-3 0.0013 4e-3 2e-3 0.0059l4e-3 4e-3v2e-3l8e-3 8e-3v2e-3l2e-3 2e-3h2e-3l6e-3 6e-3c0.0019 8e-4 0.0039 0.0015 0.0059 2e-3h4e-3c6.66e-4 6.47e-4 0.0013 0.0032 2e-3 0.0039h2e-3c0.0019 1.28e-4 0.0039 1.28e-4 0.0059 0l2e-3 2e-3z" fill="#786d7d" style="-inkscape-stroke:none"/></svg>
