<svg width="16" height="16" version="1.1" viewBox="0 0 16 16" xml:space="preserve" xmlns="http://www.w3.org/2000/svg"><path d="m3.5 1c-1.3807 0-2.5 1.1193-2.5 2.5v9c0 1.3807 1.1193 2.5 2.5 2.5h9c1.3807 0 2.5-1.1193 2.5-2.5v-9.5c0-1.1046-0.89543-2-2-2h-0.25781c-0.14038-2.1649e-4 -0.26138 0.09871-0.28906 0.23633l-0.091797 0.45703c-0.031871 0.15889 0.0899 0.30709 0.25195 0.30664h0.38672c0.55228 0 1 0.44772 1 1v9.5c0 0.82842-0.67158 1.5-1.5 1.5h-9c-0.82843 0-1.5-0.67158-1.5-1.5v-9c0-0.82843 0.67157-1.5 1.5-1.5h6.6582c0.19863-6.849e-4 0.36931-0.14115 0.4082-0.33594l0.066406-0.32812c0.034845-0.17381-0.098121-0.33601-0.27539-0.33594h-6.8574zm8 0c-0.27614 0-0.5 0.22386-0.5 0.5s0.22386 0.5 0.5 0.5 0.5-0.22386 0.5-0.5-0.22386-0.5-0.5-0.5zm-6 4c-0.27614 0-0.5 0.22386-0.5 0.5s0.22386 0.5 0.5 0.5 0.5-0.22386 0.5-0.5-0.22386-0.5-0.5-0.5zm5 0c-0.27614 0-0.5 0.22386-0.5 0.5s0.22386 0.5 0.5 0.5 0.5-0.22386 0.5-0.5-0.22386-0.5-0.5-0.5zm-0.19141 4.4492c-0.19579-0.012071-0.396 0.086736-0.52734 0.24609-0.88682 1.076-2.6405 1.0844-3.541 0.025391-0.19016-0.22363-0.50605-0.33624-0.76953-0.20508l-0.22656 0.11133c-0.10528 0.052412-0.1492 0.1817-0.089844 0.2832 1.2328 2.1082 4.4587 2.1083 5.6914 0 0.059308-0.10143 0.01544-0.23079-0.089844-0.2832l-0.25586-0.12695c-0.061754-0.030742-0.12614-0.046758-0.19141-0.050781z" color="#000000" fill="#786d7d" style="-inkscape-stroke:none"/><g transform="translate(.043301 -.013366)"/><g fill="#786d7d"><path d="m3 3v3h1v-2h2v-1z" opacity=".5"/><path d="m13 3v3h-1v-2h-2v-1z" opacity=".5"/><path d="m3 13v-3h1v2h2v1z" opacity=".5"/><path d="m13 13v-3h-1v2h-2v1z" opacity=".5"/></g></svg>
