<?xml version="1.0" encoding="UTF-8" standalone="no"?>
<!-- Created with Inkscape (http://www.inkscape.org/) -->

<svg
   width="16"
   height="16"
   viewBox="0 0 16 16"
   version="1.1"
   id="svg5"
   inkscape:version="1.2.2 (b0a8486541, 2022-12-01)"
   sodipodi:docname="edit-copy.svg"
   xmlns:inkscape="http://www.inkscape.org/namespaces/inkscape"
   xmlns:sodipodi="http://sodipodi.sourceforge.net/DTD/sodipodi-0.dtd"
   xmlns="http://www.w3.org/2000/svg"
   xmlns:svg="http://www.w3.org/2000/svg">
  <sodipodi:namedview
     id="namedview7"
     pagecolor="#ffffff"
     bordercolor="#000000"
     borderopacity="0.36078431"
     inkscape:pageshadow="2"
     inkscape:pageopacity="0.0"
     inkscape:pagecheckerboard="0"
     inkscape:document-units="px"
     showgrid="true"
     inkscape:showpageshadow="false"
     borderlayer="false"
     inkscape:snap-global="true"
     inkscape:zoom="32"
     inkscape:cx="9.375"
     inkscape:cy="7.140625"
     inkscape:window-width="2358"
     inkscape:window-height="1315"
     inkscape:window-x="0"
     inkscape:window-y="0"
     inkscape:window-maximized="0"
     inkscape:current-layer="svg5"
     showborder="false"
     inkscape:deskcolor="#ffffff"
     showguides="true">
    <inkscape:grid
       type="xygrid"
       id="grid881"
       empspacing="4"
       color="#3f3fff"
       opacity="0.07843137"
       empcolor="#3f3fff"
       empopacity="0.18039216" />
    <inkscape:grid
       type="xygrid"
       id="grid849"
       spacingx="0.5"
       spacingy="0.5"
       empspacing="1"
       empcolor="#3f3fff"
       empopacity="0.05882353" />
  </sodipodi:namedview>
  <defs
     id="defs2">
    <inkscape:path-effect
       effect="fillet_chamfer"
       id="path-effect681"
       is_visible="true"
       lpeversion="1"
       nodesatellites_param="F,0,0,1,0,0,0,1 @ F,0,0,1,0,0,0,1 @ F,0,0,1,0,0,0,1 @ F,0,0,1,0,0.433594,0,1 @ F,0,0,1,0,0.132812,0,1 @ F,0,0,1,0,0,0,1 @ F,0,0,1,0,0,0,1 @ F,0,0,1,0,0,0,1 @ F,0,0,1,0,0,0,1 @ F,0,0,1,0,0.132812,0,1 @ F,0,0,1,0,0.66903823,0,1 @ F,0,0,1,0,0,0,1"
       unit="px"
       method="auto"
       mode="F"
       radius="0"
       chamfer_steps="1"
       flexible="false"
       use_knot_distance="true"
       apply_no_radius="true"
       apply_with_radius="true"
       only_selected="false"
       hide_knots="false" />
    <inkscape:path-effect
       effect="fillet_chamfer"
       id="path-effect2694"
       is_visible="true"
       lpeversion="1"
       nodesatellites_param="F,0,0,1,0,0,0,1 @ F,0,0,1,0,0,0,1 @ F,0,0,1,0,0,0,1 @ F,0,0,1,0,0,0,1 @ F,0,0,1,0,0.11817248,0,1 @ F,0,0,1,0,0.64361118,0,1 @ F,0,0,1,0,0,0,1 @ F,0,0,1,0,0,0,1 @ F,0,0,1,0,0,0,1 @ F,0,0,1,0,0,0,1 @ F,0,0,1,0,0,0,1 @ F,0,0,1,0,0,0,1 @ F,0,0,1,0,0,0,1 @ F,0,0,1,0,0,0,1 @ F,0,0,1,0,0,0,1 @ F,0,0,1,0,0,0,1 @ F,0,0,1,0,0,0,1 @ F,0,0,1,0,0.73307657,0,1 @ F,0,0,1,0,0.22215462,0,1 @ F,0,0,1,0,0,0,1 @ F,0,0,1,0,0,0,1 @ F,0,0,1,0,0,0,1 @ F,0,0,1,0,0,0,1 @ F,0,0,1,0,0,0,1 @ F,0,0,1,0,0,0,1 @ F,0,0,1,0,0,0,1"
       unit="px"
       method="auto"
       mode="F"
       radius="0"
       chamfer_steps="1"
       flexible="false"
       use_knot_distance="true"
       apply_no_radius="true"
       apply_with_radius="true"
       only_selected="false"
       hide_knots="false" />
    <inkscape:path-effect
       effect="fillet_chamfer"
       id="path-effect2688"
       is_visible="true"
       lpeversion="1"
       nodesatellites_param="F,0,0,1,0,0,0,1 @ F,0,0,1,0,0,0,1 @ F,0,0,1,0,0,0,1 @ F,0,0,1,0,0,0,1 @ F,0,0,1,0,0,0,1 @ F,0,0,1,0,0,0,1 @ F,0,0,1,0,0,0,1 @ F,0,0,1,0,0,0,1 @ F,0,0,1,0,0,0,1 @ F,0,0,1,0,0,0,1 @ F,0,0,1,0,0,0,1 @ F,0,0,1,0,0,0,1 @ F,0,0,1,0,0,0,1"
       unit="px"
       method="auto"
       mode="F"
       radius="0"
       chamfer_steps="1"
       flexible="false"
       use_knot_distance="true"
       apply_no_radius="true"
       apply_with_radius="true"
       only_selected="false"
       hide_knots="false" />
    <inkscape:path-effect
       effect="fillet_chamfer"
       id="path-effect1587"
       is_visible="true"
       lpeversion="1"
       nodesatellites_param="F,0,0,1,0,0,0,1 @ F,0,0,1,0,1,0,1 @ F,0,0,1,0,1,0,1 @ F,0,0,1,0,5,0,1 @ F,0,0,1,0,1.5,0,1 @ F,0,0,1,0,1.5,0,1 @ F,0,0,1,0,1.5,0,1 @ F,0,0,1,0,0,0,1"
       unit="px"
       method="auto"
       mode="F"
       radius="0"
       chamfer_steps="1"
       flexible="false"
       use_knot_distance="true"
       apply_no_radius="true"
       apply_with_radius="true"
       only_selected="false"
       hide_knots="false" />
    <inkscape:path-effect
       effect="fillet_chamfer"
       id="path-effect1101"
       is_visible="true"
       lpeversion="1"
       nodesatellites_param="F,0,0,1,0,0,0,1 @ F,0,0,1,0,0,0,1 @ F,0,0,1,0,0,0,1 @ F,0,0,1,0,0,0,1 @ F,0,0,1,0,0,0,1 @ F,0,0,1,0,0.25,0,1 @ F,0,0,1,0,0.75,0,1 @ F,0,0,1,0,0,0,1 @ F,0,0,1,0,0,0,1 @ F,0,0,1,0,0,0,1 @ F,0,0,1,0,0,0,1 @ F,0,0,1,0,0,0,1 @ F,0,0,1,0,0,0,1 @ F,0,0,1,0,0,0,1 @ F,0,1,1,0,1,0,1 @ F,0,0,1,0,0,0,1 @ F,0,0,1,0,0,0,1 @ F,0,0,1,0,0.25,0,1 @ F,0,0,1,0,0.75,0,1 @ F,0,0,1,0,0,0,1 @ F,0,0,1,0,0,0,1 @ F,0,0,1,0,2,0,1 @ F,0,0,1,0,0,0,1 @ F,0,0,1,0,0,0,1"
       unit="px"
       method="auto"
       mode="F"
       radius="1"
       chamfer_steps="1"
       flexible="false"
       use_knot_distance="true"
       apply_no_radius="true"
       apply_with_radius="true"
       only_selected="true"
       hide_knots="false" />
  </defs>
  <path
     id="path675"
     style="color:#000000;fill:#786d7d;-inkscape-stroke:none"
     d="M 3 0 C 1.9013572 0 1 0.9013572 1 2 L 1 12 C 1 12.773573 1.4475374 13.447654 2.0957031 13.779297 C 2.3084777 13.888166 2.5 13.739467 2.5 13.5 L 2.5 13 C 2.5 12.92665 2.4468986 12.837487 2.3886719 12.792969 C 2.1512721 12.61146 2 12.326491 2 12 L 2 2 C 2 1.4417953 2.4417953 1 3 1 L 11 1 C 11.326493 1 11.61146 1.1512699 11.792969 1.3886719 C 11.837485 1.4468967 11.92665 1.5 12 1.5 L 12.263672 1.5 C 12.633171 1.5 12.864718 1.1982166 12.660156 0.89257812 C 12.300852 0.35573692 11.68996 -7.4014794e-17 11 0 L 3 0 z M 5 2 C 3.9013561 2 3 2.9013561 3 4 L 3 14 C 3 15.098644 3.9013561 16 5 16 L 9.5 16 C 12.27749 16 14.58053 13.926797 14.947266 11.248047 C 14.966006 11.111161 14.86268 11 14.724609 11 L 14.722656 11 C 14.308443 11 13.942883 11.336317 13.830078 11.734375 C 13.295137 13.622046 11.562519 15 9.5 15 L 5 15 C 4.4417947 15 4 14.558205 4 14 L 4 4 C 4 3.4417947 4.4417947 3 5 3 L 13 3 C 13.558205 3 14 3.4417947 14 4 L 14 8 A 1 1 0 0 1 13 9 L 11 9 C 9.9013561 9 9 9.9013556 9 11 L 9 13.75 A 0.25 0.25 0 0 0 9.25 14 A 0.75 0.75 0 0 0 10 13.25 L 10 11 C 10 10.441795 10.441795 10 11 10 L 13 10 A 2 2 0 0 0 15 8 L 15 4 C 15 2.9013561 14.098644 2 13 2 L 5 2 z " />
</svg>
