<svg version="1.1" viewBox="0 0 16 16" xml:space="preserve" xmlns="http://www.w3.org/2000/svg"><defs><style id="current-color-scheme" type="text/css">
      .ColorScheme-Text {
        color:#232629;
      }
      </style></defs><path d="m12.5 0c-0.65571 0-1.2111 0.41602-1.416 1h-6.584v1h6.5v0.5c0 0.831 0.669 1.5 1.5 1.5h1c0.831 0 1.5-0.669 1.5-1.5v-1c0-0.831-0.669-1.5-1.5-1.5h-1zm0 1h1c0.277 0 0.5 0.223 0.5 0.5v1c0 0.277-0.223 0.5-0.5 0.5h-1c-0.277 0-0.5-0.223-0.5-0.5v-1c0-0.277 0.223-0.5 0.5-0.5zm-10.5 2.5v6.5h-0.5c-0.831 0-1.5 0.669-1.5 1.5v1c0 0.831 0.669 1.5 1.5 1.5h1c0.831 0 1.5-0.669 1.5-1.5v-1c0-0.65571-0.41602-1.2111-1-1.416v-6.584h-1zm-0.5 7.5h0.5 0.5c0.277 0 0.5 0.223 0.5 0.5v1c0 0.277-0.223 0.5-0.5 0.5h-1c-0.277 0-0.5-0.223-0.5-0.5v-1c0-0.277 0.223-0.5 0.5-0.5z" fill="#786d7d" opacity=".5" stroke-linecap="round" stroke-linejoin="round"/><path d="m6.834 3.7987c-0.11669-0.0043-0.23122 0.01581-0.33398 0.05859-0.27403 0.11408-0.49609 0.40702-0.49609 0.74414v8.9941c0 0.7707 0.63555 1.4066 1.4062 1.4062l2.9115-0.0018a0.3679 0.3679 135.07 0 0 0.36767-0.36679l3.41e-4 -0.11375a0.5178 0.5178 45.068 0 0-0.51811-0.51935l-2.7615 0.0017c-0.23009 6.4e-5 -0.40625-0.17616-0.40625-0.40625v-8.5273l6.2461 6.2012c0.06732 0.06684 0.06724 0.16159 0 0.22852l-2.2602 2.2548a0.28457 0.28457 87.969 0 0 0.01477 0.41665l0.01982 0.01716a0.71957 0.71957 177.97 0 0 0.97905-0.0347l1.9516-1.9469c0.45176-0.44964 0.4523-1.1954 0-1.6445l-6.5781-6.5312c-0.14951-0.14846-0.34849-0.22326-0.54297-0.23047z" color="#000000" fill="#786e7d" style="-inkscape-stroke:none"/><path d="m2.5 0c-0.831 0-1.5 0.669-1.5 1.5v1c0 0.831 0.669 1.5 1.5 1.5h1c0.831 0 1.5-0.669 1.5-1.5v-1c0-0.831-0.669-1.5-1.5-1.5zm0 1h1c0.277 0 0.5 0.223 0.5 0.5v1c0 0.277-0.223 0.5-0.5 0.5h-1c-0.277 0-0.5-0.223-0.5-0.5v-1c0-0.277 0.223-0.5 0.5-0.5z" fill="#786d7d" stroke-linecap="round" stroke-linejoin="round"/><rect x="2" y="1" width="2" height="2" rx="0" ry="0" fill="#786d7d" opacity=".16" stroke-linecap="round" stroke-linejoin="round"/></svg>
