<svg width="16" height="16" version="1.1" xml:space="preserve" xmlns="http://www.w3.org/2000/svg"><path d="m5.8418 0.49609c-1.1815-0.0095727-2.3324 0.37612-3.2695 1.0957-2.2203 1.707-2.7374 4.8437-1.1836 7.1738 1.3922 2.0608 4.0527 2.9403 6.4277 1.9688 0.37113-0.152 0.48955-0.6014 0.28906-0.94922l-0.052734-0.09375c-0.027221-0.04681-0.087296-0.063179-0.13477-0.037109-2.0981 1.132-4.4988 0.42977-5.7539-1.4062-1.2874-1.9202-0.85918-4.5108 0.97656-5.916 1.8323-1.4093 4.4432-1.1522 5.9648 0.58789 1.3261 1.5101 1.4564 3.7291 0.31445 5.3828-0.38792 0.56136-0.4118 1.3675 0.11133 1.8906l4.6113 4.6094c0.08639 0.08683 0.22611 0.08683 0.3125 0l0.44922-0.44726c0.03051-0.02997 0.03051-0.079395 0-0.10938l-4.7129-4.7129c-0.16412-0.16412-0.16995-0.46432-0.005859-0.70117 1.3826-2.006 1.2263-4.6946-0.37891-6.5273-1.0015-1.1437-2.4447-1.802-3.9648-1.8086zm-0.69531 1.8145c-0.1047-1.487e-4 -0.20516 0.041303-0.2793 0.11523l-1.7207 1.7207c-0.19524 0.19524-0.19524 0.51179 0 0.70703l1.709 1.7109c0.16054 0.16117 0.42149 0.16117 0.58203 0l0.32617-0.32617c0.050214-0.050136 0.050214-0.1315 0-0.18164l-1.0566-1.0566h2.293c0.5582 0 1 0.4418 1 1v1.6406c9.17e-5 0.47458 0.38479 0.85928 0.85938 0.85938 0.083536-0.0060553 0.14643-0.078555 0.14062-0.16211v-2.3379c0-1.0986-0.90136-2-2-2h-2.293l1.1055-1.1035c0.023658-0.022996 0.023658-0.060988 0-0.083984l-0.38672-0.38672c-0.074132-0.073932-0.1746-0.11538-0.2793-0.11523zm3.1738 7.0273c-0.04103 0.0038-0.072266 0.042014-0.072266 0.083984 0 0.04663 0.036339 0.085008 0.082031 0.085938 0.045693 0 0.075503-0.039318 0.082031-0.085938 0.00933-0.0718-0.035848-0.088644-0.091797-0.083984zm-8.1797 0.16211c-0.083536 0.0060553-0.14643 0.078555-0.14062 0.16211v2.3379c0 1.0986 0.90136 2 2 2h2.293l-1.1055 1.1055c-0.02235 0.02278-0.02235 0.059251 0 0.082031l0.38672 0.38672c0.15419 0.15439 0.4044 0.15439 0.55859 0l1.7207-1.7207c0.19524-0.19524 0.19524-0.51179 0-0.70703l-1.709-1.709c-0.16054-0.16117-0.42149-0.16117-0.58203 0l-0.32617 0.32617c-0.048923 0.04991-0.048923 0.12978 0 0.17969l1.0566 1.0566h-2.293c-0.5582 0-1-0.4418-1-1v-1.6406c-9.172e-5 -0.47458-0.38479-0.85928-0.85938-0.85938zm14.129 5.0586c0.04801-2e-3 0.10468 0.044082 0.10352 0.070312 1e-3 0.04635-0.035671 0.084928-0.082031 0.085938-0.04663 0-0.090505-0.038378-0.083985-0.085938 0.0077-0.0507 0.03369-0.069112 0.0625-0.070312z" fill="#786d7d" style="-inkscape-stroke:none"/></svg>
