<svg width="16" height="16" version="1.1" xml:space="preserve" xmlns="http://www.w3.org/2000/svg"><path d="m2.5 2c-1.3748 0-2.5 1.1252-2.5 2.5v7c0 1.3748 1.1252 2.5 2.5 2.5h0.60742c0.24072-1.6e-4 0.46072-0.13624 0.56836-0.35156l0.082031-0.16602c0.11006-0.22112-0.049885-0.48102-0.29687-0.48242h-0.96094c-0.83435 0-1.5-0.66565-1.5-1.5v-2.4618c0-0.30587-0.070981-0.79206-0.12794-1.0925-0.14604-0.77019-0.14022-1.5575 0.010628-2.3174 0.053742-0.27071 0.11732-0.70957 0.11732-0.98565v-0.1427c0-0.52408 0.26217-0.98169 0.66406-1.2495 0.20046-0.1336 0.51458-0.34134 0.67737-0.52003 0.15756-0.17295 0.32651-0.3382 0.50667-0.49447l0.29057-0.23596zm8.3501 0.31003c0.17826 0.15945 0.34786 0.33011 0.50736 0.51224 0.08291 0.094666 0.24807 0.17584 0.3757 0.19538 0.72186 0.11053 1.2669 0.72738 1.2669 1.4824v6.4451a0.87283 0.87283 67.5 0 0 0.25564 0.61718l0.27804 0.27804c0.20037 0.20037 0.43432 0.14141 0.45793-0.14048 0.005525-0.065951 0.008385-0.1326 0.008385-0.19984v-7c0-1.3748-1.1252-2.5-2.5-2.5h-0.53835c-0.26899 0-0.31201 0.13074-0.11158 0.31003zm-7.358 2.9723c-0.063327 0.13692-0.11777 0.27712-0.1633 0.42001-0.0514 0.1613 0.030983 0.3756 0.16872 0.47412 0.80543 0.57616 1.6679 1.1934 2.2819 1.6322 0.674 0.4817 1.7675 0.48179 2.4414 0 0.50256-0.35932 1.1769-0.84 1.8558-1.3242 0.18752-0.13375 0.31267-0.42771 0.25129-0.64958-0.020495-0.074082-0.043358-0.14762-0.068619-0.2205-0.073927-0.21331-0.30472-0.27163-0.48862-0.14047-0.81075 0.57824-1.7404 1.2409-2.3643 1.6863-0.22474 0.16046-0.58777 0.16046-0.8125 0-0.72166-0.51537-1.8745-1.3407-2.747-1.9643-0.12569-0.089831-0.28988-0.05371-0.35472 0.086475zm1.7756 7.7177c-0.27727-5e-5 -0.52176 0.18173-0.60156 0.44727l-0.10547 0.35352c-0.02992 0.0994 0.044638 0.19946 0.14844 0.19922h6.791c0.10803 0 0.21458-0.0071 0.31918-0.0208 0.21381-0.02795 0.25826-0.20449 0.10563-0.35712l-0.08037-0.08037a1.8495 1.8495 22.5 0 0-1.3078-0.54171zm-0.85156 0.9043-0.00195 2e-3h-0.00195l-0.00195 2e-3h-0.0039l-0.00195 2e-3h-0.00195l-0.00195 2e-3v2e-3h-0.00195l-0.00195 2e-3v2e-3h-0.00195l-0.00195 2e-3v2e-3l-0.0039 4e-3v4e-3l-0.00195 2e-3v8e-3l-0.00195 2e-3v2e-3c6.1e-4 0.02092 0.018023 0.03746 0.039063 0.03711 0.02104 3.5e-4 0.038456-0.01619 0.039063-0.03711 5.911e-4 -0.01894-0.012687-0.03561-0.03125-0.03906h-0.00195c-0.00147-5.6e-5 -0.00436-1.13e-4 -0.00586 0h-0.00585z" fill="#786d7d" opacity=".5" style="-inkscape-stroke:none"/><path d="m6.8418 1.4961c-1.1815-0.0095727-2.3324 0.37612-3.2695 1.0957-2.2203 1.707-2.7374 4.8437-1.1836 7.1738 1.3922 2.0608 4.0527 2.9404 6.4277 1.9688 0.37113-0.152 0.48955-0.6014 0.28906-0.94922l-0.052734-0.09375c-0.027221-0.04681-0.0873-0.06318-0.13477-0.03711-2.0981 1.132-4.4988 0.42982-5.7539-1.4062-1.2874-1.9202-0.85918-4.5108 0.97656-5.916 1.8323-1.4093 4.4432-1.1522 5.9648 0.58789 1.3261 1.5101 1.4564 3.7291 0.31445 5.3828-0.38792 0.56136-0.4118 1.3675 0.11133 1.8906l4.6113 4.6094c0.08639 0.08683 0.22611 0.08683 0.3125 0l0.44922-0.44726c0.03051-0.02997 0.03051-0.0794 0-0.10938l-4.7129-4.7129c-0.16412-0.16412-0.16999-0.46432-0.005859-0.70117 1.3826-2.006 1.2263-4.6946-0.37891-6.5273-1.0015-1.1437-2.4447-1.802-3.9648-1.8086zm2.4785 8.8418c-0.04103 0.0038-0.072266 0.04201-0.072266 0.08398 0 0.04663 0.036339 0.08501 0.082031 0.08594 0.045693 0 0.075503-0.03932 0.082031-0.08594 0.00933-0.0718-0.035847-0.08864-0.091796-0.08398zm5.9492 5.2207c0.04801-2e-3 0.10468 0.04408 0.10352 0.07031 1e-3 0.04635-0.03567 0.08493-0.08203 0.08594-0.04663 0-0.09051-0.03838-0.08399-0.08594 0.0077-0.0507 0.03369-0.06911 0.0625-0.07031z" color="#000000" fill="#786d7d" style="-inkscape-stroke:none"/></svg>
