<svg width="16" height="16" version="1.1" viewBox="0 0 16 16" xmlns="http://www.w3.org/2000/svg">
 <path d="m10 1c-2.7555 0-5 2.2445-5 5 0 2.7141 2.1784 4.932 4.877 4.998-0.4413 1.7297-2.0065 3.002-3.877 3.002-2.2151 0-4-1.7849-4-4 0-1.3765 0.6899-2.5851 1.7435-3.304 0.1505-0.10269 0.26605-0.32176 0.25983-0.50389-0.002179-0.063771-0.0033217-0.12781-0.0033217-0.19214 0-0.08857 0.0019696-0.17683 0.005834-0.26463 0.0080135-0.18206-0.11284-0.27161-0.27504-0.18857-1.619 0.82878-2.7308 2.5141-2.7308 4.4532 0 2.7555 2.2445 5 5 5 2.4431 0 4.4827-1.7652 4.9141-4.0859 6.3e-4 -1.16e-4 0.0013 1.18e-4 2e-3 0 0.02757-0.1556 0.04525-0.34516 0.05716-0.53781 0.017037-0.27547-0.19624-0.44094-0.47011-0.40707-0.16477 0.020379-0.3327 0.030812-0.50311 0.030812-2.2151 0-4-1.7849-4-4s1.7849-4 4-4c2.2151 0 4 1.7849 4 4 0 1.3765-0.6899 2.5851-1.7435 3.304-0.1505 0.10269-0.2661 0.32177-0.25985 0.50389 0.00219 0.063795 0.003344 0.12784 0.003344 0.19213 0 0.08857-2e-3 0.17683-0.0058 0.26463-8e-3 0.18206 0.11284 0.27161 0.27504 0.18857 1.6189-0.82878 2.7308-2.5141 2.7308-4.4532 0-2.7555-2.2445-5-5-5z" color="#000000" fill="#786d7d" style="-inkscape-stroke:none"/>
 <path d="m11 10a5 5 0 0 1-5 5 5 5 0 0 1-5-5 5 5 0 0 1 5-5 5 5 0 0 1 5 5z" fill="#786d7d" opacity=".17"/>
</svg>
