<?xml version="1.0" encoding="UTF-8" standalone="no"?>
<svg
   viewBox="0 0 16 16"
   version="1.1"
   id="svg2262"
   sodipodi:docname="edit-delete-shred.svg"
   inkscape:version="1.2.2 (b0a8486541, 2022-12-01)"
   xmlns:inkscape="http://www.inkscape.org/namespaces/inkscape"
   xmlns:sodipodi="http://sodipodi.sourceforge.net/DTD/sodipodi-0.dtd"
   xmlns="http://www.w3.org/2000/svg"
   xmlns:svg="http://www.w3.org/2000/svg">
  <defs
     id="defs2266">
    <inkscape:path-effect
       effect="fillet_chamfer"
       id="path-effect3107"
       is_visible="true"
       lpeversion="1"
       nodesatellites_param="F,0,0,1,0,0.25,0,1 @ F,0,0,1,0,0.25,0,1 @ F,0,0,1,0,0.25,0,1 @ F,0,0,1,0,0.25,0,1 | F,0,0,1,0,0.25,0,1 @ F,0,0,1,0,0.25,0,1 @ F,0,0,1,0,0.25,0,1 @ F,0,0,1,0,0.25,0,1 | F,0,0,1,0,0.25,0,1 @ F,0,0,1,0,0.25,0,1 @ F,0,0,1,0,0.25,0,1 @ F,0,0,1,0,0.25,0,1 | F,0,0,1,0,0.25,0,1 @ F,0,0,1,0,0.25,0,1 @ F,0,0,1,0,0.25,0,1 @ F,0,0,1,0,0.25,0,1"
       unit="px"
       method="auto"
       mode="F"
       radius="0.25"
       chamfer_steps="1"
       flexible="false"
       use_knot_distance="true"
       apply_no_radius="true"
       apply_with_radius="true"
       only_selected="false"
       hide_knots="false" />
    <inkscape:path-effect
       effect="fillet_chamfer"
       id="path-effect3088"
       is_visible="true"
       lpeversion="1"
       nodesatellites_param="F,0,0,1,0,0,0,1 @ F,0,0,1,0,0,0,1 @ F,0,0,1,0,0,0,1 @ F,0,0,1,0,0,0,1 @ F,0,0,1,0,0,0,1 @ F,0,0,1,0,0,0,1 @ F,0,0,1,0,0,0,1 @ F,0,0,1,0,0,0,1 @ F,0,0,1,0,0,0,1 @ F,0,0,1,0,0,0,1 @ F,0,0,1,0,0,0,1 @ F,0,0,1,0,0,0,1 @ F,0,0,1,0,0,0,1 @ F,0,0,1,0,0,0,1 @ F,0,1,1,0,0.25,0,1 @ F,0,0,1,0,0.75,0,1 @ F,0,0,1,0,0,0,1 @ F,0,0,1,0,0,0,1 @ F,0,0,1,0,0,0,1 @ F,0,0,1,0,0,0,1 @ F,0,0,1,0,0,0,1 @ F,0,0,1,0,0,0,1 @ F,0,0,1,0,0,0,1 @ F,0,0,1,0,0,0,1 @ F,0,0,1,0,0,0,1 @ F,0,0,1,0,0,0,1 @ F,0,0,1,0,0,0,1 @ F,0,0,1,0,0,0,1 @ F,0,0,1,0,0,0,1 @ F,0,0,1,0,0,0,1 @ F,0,0,1,0,0,0,1 @ F,0,0,1,0,0,0,1 @ F,0,0,1,0,0,0,1 @ F,0,0,1,0,0.75,0,1 @ F,0,1,1,0,0.25,0,1 @ F,0,0,1,0,0,0,1 @ F,0,0,1,0,0,0,1"
       unit="px"
       method="auto"
       mode="F"
       radius="0.25"
       chamfer_steps="1"
       flexible="false"
       use_knot_distance="true"
       apply_no_radius="true"
       apply_with_radius="true"
       only_selected="true"
       hide_knots="false" />
    <inkscape:path-effect
       effect="fillet_chamfer"
       id="path-effect3066"
       is_visible="true"
       lpeversion="1"
       nodesatellites_param="F,0,0,1,0,0,0,1 @ F,0,0,1,0,1,0,1 @ F,0,0,1,0,1,0,1"
       unit="px"
       method="auto"
       mode="F"
       radius="1"
       chamfer_steps="1"
       flexible="false"
       use_knot_distance="true"
       apply_no_radius="true"
       apply_with_radius="true"
       only_selected="false"
       hide_knots="false" />
    <inkscape:path-effect
       effect="fillet_chamfer"
       id="path-effect3060"
       is_visible="true"
       lpeversion="1"
       nodesatellites_param="F,0,0,1,0,0,0,1 @ F,0,0,1,0,1,0,1 @ F,0,0,1,0,1,0,1"
       unit="px"
       method="auto"
       mode="F"
       radius="1"
       chamfer_steps="1"
       flexible="false"
       use_knot_distance="true"
       apply_no_radius="true"
       apply_with_radius="true"
       only_selected="false"
       hide_knots="false" />
    <inkscape:path-effect
       effect="fillet_chamfer"
       id="path-effect3056"
       is_visible="true"
       lpeversion="1"
       nodesatellites_param="F,0,0,1,0,0,0,1 @ F,0,0,1,0,0.5,0,1 @ F,0,1,1,0,0.25,0,1 @ F,0,0,1,0,0.25,0,1 @ F,0,0,1,0,0.25,0,1 @ F,0,1,1,0,0.25,0,1 @ F,0,0,1,0,0.5,0,1 @ F,0,0,1,0,2,0,1 @ F,0,0,1,0,0.5,0,1 @ F,0,0,1,0,1.5,0,1 @ F,0,0,1,0,1.5,0,1 @ F,0,0,1,0,0,0,1"
       unit="px"
       method="auto"
       mode="F"
       radius="0.25"
       chamfer_steps="1"
       flexible="false"
       use_knot_distance="true"
       apply_no_radius="true"
       apply_with_radius="true"
       only_selected="true"
       hide_knots="false" />
  </defs>
  <sodipodi:namedview
     id="namedview2264"
     pagecolor="#ffffff"
     bordercolor="#000000"
     borderopacity="0.25"
     inkscape:showpageshadow="false"
     inkscape:pageopacity="0.0"
     inkscape:pagecheckerboard="0"
     inkscape:deskcolor="#ffffff"
     showgrid="false"
     showborder="false"
     inkscape:zoom="16"
     inkscape:cx="8.3125"
     inkscape:cy="4.40625"
     inkscape:window-width="2560"
     inkscape:window-height="1367"
     inkscape:window-x="0"
     inkscape:window-y="0"
     inkscape:window-maximized="1"
     inkscape:current-layer="svg2262">
    <inkscape:grid
       type="xygrid"
       id="grid2385" />
    <inkscape:grid
       type="xygrid"
       id="grid2387"
       spacingx="0.5"
       spacingy="0.5"
       empspacing="1"
       empcolor="#0099e5"
       empopacity="0.08235294" />
  </sodipodi:namedview>
  <style
     type="text/css"
     id="current-color-scheme">.ColorScheme-NegativeText{color:#da4453;}</style>
  <path
     id="path2880"
     style="color:#000000;fill:#821313;-inkscape-stroke:none;paint-order:markers stroke fill"
     d="M 5 0 C 3.901355 0 3 0.90135502 3 2 L 3 5 C 3 5.5463614 3.4536386 6 4 6 L 13.5 6 C 14.334348 6 15 6.6656522 15 7.5 L 15 11 L 14 11 L 14 10.75 C 14 10.341709 13.658291 10 13.25 10 L 3.75 10 C 3.3417096 10 3 10.341709 3 10.75 L 3 11 L 2 11 L 2 6.25 A 0.25 0.25 0 0 0 1.75 6 A 0.75 0.75 0 0 0 1 6.75 L 1 11 C 1 11.546361 1.4536386 12 2 12 L 3.25 12 C 3.6582904 12 4 11.658291 4 11.25 L 4 11 L 13 11 L 13 11.25 C 13 11.658291 13.341709 12 13.75 12 L 15 12 C 15.546361 12 16 11.546361 16 11 L 16 7.5 C 16 6.1252132 14.874787 5 13.5 5 L 4 5 L 4 2 C 4 1.4417941 4.4417941 1 5 1 L 12 1 C 12.558206 1 13 1.4417941 13 2 L 13 3.25 A 0.75 0.75 0 0 0 13.75 4 A 0.25 0.25 0 0 0 14 3.75 L 14 2 C 14 0.90135502 13.098645 0 12 0 L 5 0 z M 12.5 7 A 0.5 0.5 0 0 0 12 7.5 A 0.5 0.5 0 0 0 12.5 8 A 0.5 0.5 0 0 0 13 7.5 A 0.5 0.5 0 0 0 12.5 7 z M 5.25 12 A 0.25 0.25 0 0 0 5 12.25 L 5 15.75 A 0.25 0.25 0 0 0 5.25 16 L 5.75 16 A 0.25 0.25 0 0 0 6 15.75 L 6 12.25 A 0.25 0.25 0 0 0 5.75 12 L 5.25 12 z M 7.25 12 A 0.25 0.25 0 0 0 7 12.25 L 7 15.75 A 0.25 0.25 0 0 0 7.25 16 L 7.75 16 A 0.25 0.25 0 0 0 8 15.75 L 8 12.25 A 0.25 0.25 0 0 0 7.75 12 L 7.25 12 z M 9.25 12 A 0.25 0.25 0 0 0 9 12.25 L 9 15.75 A 0.25 0.25 0 0 0 9.25 16 L 9.75 16 A 0.25 0.25 0 0 0 10 15.75 L 10 12.25 A 0.25 0.25 0 0 0 9.75 12 L 9.25 12 z M 11.25 12 A 0.25 0.25 0 0 0 11 12.25 L 11 15.75 A 0.25 0.25 0 0 0 11.25 16 L 11.75 16 A 0.25 0.25 0 0 0 12 15.75 L 12 12.25 A 0.25 0.25 0 0 0 11.75 12 L 11.25 12 z " />
</svg>
