<svg width="16" height="16" version="1.1" xml:space="preserve" xmlns="http://www.w3.org/2000/svg"><path d="m6.4418 0.4961c-1.1815-0.0095727-2.3324 0.37612-3.2695 1.0957-2.2203 1.707-2.7374 4.8437-1.1836 7.1738 1.3922 2.0608 4.0527 2.9404 6.4277 1.9688 0.37113-0.152 0.48955-0.6014 0.28906-0.94922l-0.052734-0.09375c-0.027221-0.04681-0.0873-0.06318-0.13477-0.03711-2.0981 1.132-4.4988 0.42982-5.7539-1.4062-1.2874-1.9202-0.85918-4.5108 0.97656-5.916 1.8323-1.4093 4.4432-1.1522 5.9648 0.58789 1.3261 1.5101 1.4564 3.7291 0.31445 5.3828-0.38792 0.56136-0.4118 1.3675 0.11133 1.8906l4.6113 4.6094c0.08639 0.08683 0.22611 0.08683 0.3125 0l0.44922-0.44726c0.03051-0.02997 0.03051-0.0794 0-0.10938l-4.7129-4.7129c-0.16412-0.16412-0.16999-0.46432-0.0059-0.70117 1.3826-2.006 1.2263-4.6946-0.37891-6.5273-1.0015-1.1437-2.4447-1.802-3.9648-1.8086zm2.4785 8.8418c-0.04103 0.0038-0.072266 0.04201-0.072266 0.08398 0 0.04663 0.036339 0.08501 0.082031 0.08594 0.045693 0 0.075503-0.03932 0.082031-0.08594 0.00933-0.0718-0.035847-0.08864-0.091796-0.08398zm5.9492 5.2207c0.04801-2e-3 0.10468 0.04408 0.10352 0.07031 1e-3 0.04635-0.03567 0.08493-0.08203 0.08594-0.04663 0-0.09051-0.03838-0.08399-0.08594 0.0077-0.0507 0.03369-0.06911 0.0625-0.07031z" color="#000000" fill="#786d7d" style="-inkscape-stroke:none"/><g transform="translate(-2 .061)"><path d="m8.5 2.9995c-1.3748 0-2.5 1.1252-2.5 2.5 0 1.2043 0.86373 2.2165 2.002 2.4492v0.88281c0 0.57897 0.15523 0.89405 0.38867 1.0039 0.32185 0.15043 0.60547-0.24357 0.60547-0.72852v-1.1582c1.1392-0.23198 2.0039-1.2443 2.0039-2.4492 0-1.3748-1.1252-2.5-2.5-2.5zm0 1c0.83435 0 1.5 0.66565 1.5 1.5 0 0.83435-0.66565 1.5-1.5 1.5s-1.5-0.66565-1.5-1.5c0-0.83435 0.66565-1.5 1.5-1.5zm0.18359 5.4199c0.029056 0.0048247 0.036754 0.062409 0 0.17969-0.037748 0.11876-0.1746 0.035295-0.12891-0.048828 0.048675-0.089072 0.09985-0.13568 0.12891-0.13086zm-4.8516 0.20898c-0.13505 0.0081581-0.14003 0.24743 0.03125 0.69336 0.24775 0.64501 0.53137 1.2732 0.83984 1.8633 0.52254 0.99956 1.1124 1.8842 1.7383 2.543 0.62592 0.6588 1.2969 1.1328 2.0586 1.1328 0.79408 0 1.4942-0.48875 2.1289-1.168 0.63472-0.67922 1.2204-1.5874 1.7324-2.6016 0.0613-0.12141 0.12107-0.24482 0.17969-0.36914 0.05792-0.12283 0.025837-0.30058-0.070313-0.39648l-0.19141-0.19141c-0.21675-0.21619-0.48882-0.16177-0.61914 0.11523-0.06221 0.13224-0.12664 0.26234-0.19141 0.39062-0.48112 0.95297-1.0318 1.7928-1.5703 2.3691-0.53855 0.57631-1.05 0.85156-1.3984 0.85156-0.30078 0-0.80163-0.26195-1.334-0.82227-0.53235-0.56032-1.0875-1.378-1.5781-2.3164-0.33674-0.58466-0.78103-1.146-1.2305-1.6836-0.23761-0.28423-0.42035-0.4165-0.52539-0.41016z" color="#000000" fill="#786d7d" opacity=".5" stroke-linejoin="round" style="-inkscape-stroke:none"/></g></svg>
