<svg width="16" height="16" version="1.1" viewBox="0 0 16 16" xml:space="preserve" xmlns="http://www.w3.org/2000/svg"><path d="m6.207 3c-0.59046 0-1.1555 0.24864-1.5527 0.68555l-3.3008 3.6816c-0.58096 0.63905-0.58096 1.6266 0 2.2656l3.3008 3.6816c0.39719 0.4369 0.96235 0.68555 1.5527 0.68555h6.793c0.88536 0 1.6417-0.58451 1.9023-1.3867 0.1058-0.32564-0.18165-0.61328-0.52539-0.61328h-0.20898c-0.09279 0-0.16666 0.0765-0.18164 0.16797-0.07807 0.47668-0.48521 0.83203-0.98633 0.83203h-6.793c-0.30923 0-0.60449-0.13056-0.8125-0.35938l-3.3008-3.6797c-0.24007-0.26408-0.24007-0.6578 0-0.92188l3.3008-3.6797c0.20801-0.22881 0.50327-0.35938 0.8125-0.35938h6.793c0.55821 0 1 0.4418 1 1v5.1758c-2.63e-4 0.4443 0.25087 0.85055 0.64844 1.0488l0.10547 0.052735c0.1132 0.057455 0.24705-0.025394 0.24609-0.15234v-6.125c0-1.0986-0.90136-2-2-2h-6.793zm5.2891 2a0.49658 0.49658 0 0 0-0.49609 0.49609v0.0078124a0.49658 0.49658 0 0 0 0.49609 0.49609h1.0078a0.49658 0.49658 0 0 0 0.49609-0.49609v-0.0078124a0.49658 0.49658 0 0 0-0.49609-0.49609h-1.0078zm-5.9707 0.92969c-0.068694 0-0.13704 0.025714-0.18945 0.078125l-0.32812 0.32812c-0.10482 0.10482-0.10482 0.27408 0 0.37891l1.6777 1.6777c0.059161 0.059161 0.059161 0.15568 0 0.21484l-1.6602 1.6602c-0.059161 0.05916-0.059161 0.15568 0 0.21484l0.45312 0.45312c0.080776 0.08078 0.21219 0.08078 0.29297 0l1.6211-1.6211c0.059161-0.059161 0.15568-0.059161 0.21484 0l1.6445 1.6445c0.067529 0.06753 0.17661 0.06753 0.24414 0l0.39062-0.38867c0.10767-0.10766 0.10767-0.28296 0-0.39062l-1.5352-1.5352c-0.07993-0.079929-0.07993-0.20913 0-0.28906l1.4238-1.4238c0.11374-0.11374 0.11374-0.29837 0-0.41211l-0.46875-0.4707c-0.017273-0.017272-0.045227-0.017272-0.0625 0l-1.6367 1.6367c-0.059161 0.059161-0.15568 0.059161-0.21484 0l-1.6777-1.6777c-0.052412-0.052411-0.12076-0.078125-0.18945-0.078125zm5.9707 1.0703a0.49658 0.49658 0 0 0-0.49609 0.49609v0.0078124a0.49658 0.49658 0 0 0 0.49609 0.49609h1.0078a0.49658 0.49658 0 0 0 0.49609-0.49609v-0.0078124a0.49658 0.49658 0 0 0-0.49609-0.49609h-1.0078zm0 2a0.49658 0.49658 0 0 0-0.49609 0.49609v0.0078124a0.49658 0.49658 0 0 0 0.49609 0.49609h1.0078a0.49658 0.49658 0 0 0 0.49609-0.49609v-0.0078124a0.49658 0.49658 0 0 0-0.49609-0.49609h-1.0078zm0 2a0.49658 0.49658 0 0 0-0.49609 0.49609v0.007812a0.49658 0.49658 0 0 0 0.49609 0.49609h1.0078a0.49658 0.49658 0 0 0 0.49609-0.49609v-0.007812a0.49658 0.49658 0 0 0-0.49609-0.49609h-1.0078zm3.291 0.035156c0.0019-1.66e-4 0.00386-1.66e-4 0.00586 0h0.005859l0.001953 0.001953h0.00586l0.003906 0.003907h0.001953l0.009766 0.009765v0.001953h0.001953v0.003907l0.001953 0.001953v0.005859l0.001953 0.001953v0.003906c3.15e-4 0.01955-0.015606 0.035467-0.035156 0.035157-0.01955 3.12e-4 -0.035466-0.015607-0.035157-0.035157-4.81e-4 -0.017429 0.012067-0.032486 0.029297-0.035156zm-0.67969 0.75781v0.001953c-0.02713 2.77e-4 -0.048958 0.024717-0.048828 0.054687-1.32e-4 0.02997 0.021688 0.054408 0.048828 0.054688 0.02713-2.77e-4 0.048958-0.024718 0.048828-0.054688v-0.009765c-5.46e-4 -2e-3 -0.001153-0.00396-0.001953-0.00586v-0.003906c-5.46e-4 -2e-3 -0.001253-0.003959-0.001953-0.005859l-0.003906-0.003907v-0.001953l-0.007813-0.007812v-0.001953l-0.001953-0.001953h-0.001953l-0.00586-0.00586c-0.0019-8e-4 -0.003859-0.001453-0.005859-0.001953h-0.003906c-6.66e-4 -6.47e-4 -0.001253-0.003206-0.001953-0.003906h-0.001953c-0.0019-1.28e-4 -0.00386-1.28e-4 -0.00586 0l-0.001953-0.001953h-0.001953z" fill="#786d7d" style="-inkscape-stroke:none"/></svg>
