<svg width="16" height="16" version="1.1" viewBox="0 0 16 16" xml:space="preserve" xmlns="http://www.w3.org/2000/svg"><path d="m3.5 1c-1.3807 0-2.5 1.1193-2.5 2.5v9c0 1.3807 1.1193 2.5 2.5 2.5h9c1.3807 0 2.5-1.1193 2.5-2.5v-9.5c0-1.1046-0.89543-2-2-2h-0.25781c-0.14038-2.1649e-4 -0.26138 0.09871-0.28906 0.23633l-0.091797 0.45703c-0.031868 0.15889 0.0899 0.30709 0.25195 0.30664h0.38672c0.55228 0 1 0.44772 1 1v9.5c0 0.82842-0.67158 1.5-1.5 1.5h-9c-0.82842 0-1.5-0.67158-1.5-1.5v-9c0-0.82842 0.67158-1.5 1.5-1.5h7.2578c0.19863-6.849e-4 0.36931-0.14115 0.4082-0.33594l0.066406-0.32812c0.034841-0.17381-0.098122-0.33601-0.27539-0.33594h-7.457zm4.5 6.5a0.5 0.5 0 0 0-0.5 0.5 0.5 0.5 0 0 0 0.5 0.5 0.5 0.5 0 0 0 0.5-0.5 0.5 0.5 0 0 0-0.5-0.5z" color="#000000" fill="#786d7d" style="-inkscape-stroke:none"/><g transform="translate(.043301 -.013366)"/><g fill="#786d7d"><path d="m3 3v3h1v-2h2v-1z" opacity=".5"/><path d="m13 3v3h-1v-2h-2v-1z" opacity=".5"/><path d="m3 13v-3h1v2h2v1z" opacity=".5"/><path d="m13 13v-3h-1v2h-2v1z" opacity=".5"/><circle cx="8" cy="8" r="4" opacity=".16"/><path d="m8 5c-1.6569 0-3 1.3431-3 3s1.3431 3 3 3 3-1.3431 3-3-1.3431-3-3-3zm0 1c1.1046 0 2 0.89543 2 2s-0.89543 2-2 2-2-0.89543-2-2 0.89543-2 2-2z" opacity=".16"/></g></svg>
