<svg width="16" height="16" version="1.1" viewBox="0 0 16 16" xml:space="preserve" xmlns="http://www.w3.org/2000/svg"><g transform="translate(-4.4,-2.9)" fill="#786d7d"><path d="m13.577 5.0974c-0.05042-0.0032-0.09875 0.02058-0.12695 0.0625l-3.6602 5.3827c-0.10282 0.15202 0.0059 0.35718 0.18945 0.35742h3.5645l-2.9938 4.3398c-0.29557 0.43363-0.18364 1.0248 0.25 1.3203 0.02264 0.01514 0.05328 9e-3 0.06836-0.01367l4.3863-6.3848c0.07547-0.11128-0.0042-0.26167-0.13867-0.26172h-3.6914l2.7891-4.0819c0.08136-0.12072 0.04894-0.2846-0.07227-0.36523l-0.49414-0.33008c-0.02075-0.01459-0.04503-0.02335-0.07031-0.02539z" style="-inkscape-stroke:none"/></g></svg>
