<svg width="16" height="16" version="1.1" viewBox="0 0 16 16" xmlns="http://www.w3.org/2000/svg">
 <path d="m0.89258 7.4004-0.39258 0.39258c-0.32001 0.32001-0.5 0.75447-0.5 1.207s0.17999 0.88702 0.5 1.207l5.293 5.293c0.32001 0.32001 0.75447 0.5 1.207 0.5s0.88702-0.17999 1.207-0.5l6.293-6.293c0.002412-0.45039-0.079994-0.53453-0.125-0.78711-0.20808-0.50341-1.8763-0.48548-3.2715-0.058594-0.15122 0.056735-0.66593 0.19473-0.7793 0.22461-0.86038 0.22675-2.2054 0.11925-3.0156-0.34375zm13.107 4.3146v2.785c0 0.277 0.223 0.5 0.5 0.5s0.5-0.223 0.5-0.5v-3.7677a0.22048 0.22048 22.5 0 0-0.37639-0.15591l-0.25948 0.25948a1.2432 1.2432 112.5 0 0-0.36413 0.8791z" color="#000000" fill="#786d7d" fill-opacity=".15" style="-inkscape-stroke:none"/>
 <path d="m8 1c-0.45256 0-0.88702 0.17999-1.207 0.5l-3.4688 3.4688c-0.098915 0.097846-0.098915 0.25762 0 0.35547 0.29341 0.29231 0.76822 0.29143 1.0605-0.00195l3.1152-3.1152c0.13274-0.13274 0.31227-0.20703 0.5-0.20703s0.36726 0.074287 0.5 0.20703l5.293 5.293c0.13274 0.13274 0.20703 0.31227 0.20703 0.5s-0.074287 0.36726-0.20703 0.5l-6.293 6.293c-0.13274 0.13274-0.31227 0.20703-0.5 0.20703s-0.36726-0.074287-0.5-0.20703l-5.293-5.293c-0.13274-0.13274-0.20703-0.31227-0.20703-0.5s0.074288-0.36726 0.20703-0.5l0.39648-0.39648c0.35684-0.35684 0.86355-0.51851 1.3613-0.43555l0.55664 0.091797c0.86536 0.14423 1.6973 0.44169 2.459 0.87695l0.83203 0.47461c0.95486 0.54563 2.3425 0.74453 3.4082 0.52148 0.58902-0.12327 1.205-0.27684 1.8066-0.58008 0.12324-0.062114 0.16426-0.21609 0.0957-0.33594-0.20543-0.35909-0.66457-0.47933-1.0547-0.3418-0.33406 0.11777-0.68486 0.20231-1.0527 0.2793-0.72636 0.15201-2.0711-0.048707-2.707-0.41211l-0.83203-0.47461c-0.86442-0.49395-1.809-0.83047-2.791-0.99414l-0.55664-0.091797c-0.81535-0.13589-1.6479 0.13035-2.2324 0.71484l-0.39648 0.39648c-0.32001 0.32001-0.5 0.75447-0.5 1.207s0.17999 0.88702 0.5 1.207l5.293 5.293c0.32001 0.32001 0.75447 0.5 1.207 0.5s0.88702-0.17999 1.207-0.5l6.293-6.293c0.32001-0.32001 0.5-0.75447 0.5-1.207s-0.17999-0.88702-0.5-1.207l-5.293-5.293c-0.32001-0.32001-0.75447-0.5-1.207-0.5zm6.5 13c-0.27614 0-0.5 0.22386-0.5 0.5s0.22386 0.5 0.5 0.5 0.5-0.22386 0.5-0.5-0.22386-0.5-0.5-0.5z" color="#000000" fill="#786d7d" style="-inkscape-stroke:none"/>
</svg>
