<?xml version="1.0" encoding="UTF-8" standalone="no"?>
<svg
   xml:space="preserve"
   width="16"
   height="16"
   version="1.1"
   id="svg4"
   sodipodi:docname="flag-black.svg"
   inkscape:version="1.1.2 (0a00cf5339, 2022-02-04)"
   xmlns:inkscape="http://www.inkscape.org/namespaces/inkscape"
   xmlns:sodipodi="http://sodipodi.sourceforge.net/DTD/sodipodi-0.dtd"
   xmlns="http://www.w3.org/2000/svg"
   xmlns:svg="http://www.w3.org/2000/svg"><defs
     id="defs8" /><sodipodi:namedview
     id="namedview6"
     pagecolor="#ffffff"
     bordercolor="#000000"
     borderopacity="0.25"
     inkscape:pageshadow="2"
     inkscape:pageopacity="0.0"
     inkscape:pagecheckerboard="0"
     showgrid="false"
     inkscape:zoom="18.204102"
     inkscape:cx="7.9377716"
     inkscape:cy="9.1737568"
     inkscape:window-width="1234"
     inkscape:window-height="472"
     inkscape:window-x="675"
     inkscape:window-y="521"
     inkscape:window-maximized="1"
     inkscape:current-layer="svg4" /><path
     fill="#786d7d"
     d="M6.03 1.205c-1.004-.23-2.067-.228-2.971.022l-.137.039C2.38 1.416 2 1.912 2 2.475v12.3c0 .276.115.325.3.325.276 0 .7-.161.7-.6V2.475a.25.25 0 0 1 .188-.246l.138-.037c1.386-.383 3.642.104 4.608 1.097.457.47.901.962 1.29 1.438 1.09 1.333 2.887 2.358 4.704 2.238a.691.691 0 0 1 .023.28c-.03.353-.224.902-.709 1.429-.438.475-1.18.804-1.996.918-.817.114-1.694.012-2.35-.271L6.232 8.168c-.855-.394-1.874.17-1.996 1.104-.036.274-.168.779.097.702.424-.122.858-.3.893-.573a.405.405 0 0 1 .588-.325l.006.004 2.68 1.157c.865.373 1.898.483 2.885.345s1.94-.522 2.594-1.23c.626-.68.92-1.413.97-2.026.026-.306-.002-.586-.129-.843-.126-.258-.461-.514-.808-.473-1.399.164-3.071-.763-4.014-1.916A23.661 23.661 0 0 0 8.65 2.592c-.671-.69-1.617-1.156-2.62-1.387z"
     color="#000"
     style="-inkscape-stroke:none;fill:#1d1d1d;fill-opacity:1"
     id="path2" /></svg>
