<svg version="1.1" viewBox="0 0 16 16" xml:space="preserve" xmlns="http://www.w3.org/2000/svg"><defs><style id="current-color-scheme" type="text/css">
      .ColorScheme-Text {
        color:#232629;
      }
      </style></defs><path d="m12.199 0.20703c-0.17267 0.01566-0.32896 0.12011-0.40625 0.2793l-0.54297 1.1211c-0.07332 0.12699-0.4158 0.17382-0.47461 0.41016-0.0585 0.26988 0.11294 0.53525 0.38281 0.59375l0.26367 0.056641c0.22539 0.04884 0.45394-0.06208 0.55469-0.26953l0.7168-1.4746c0.12062-0.24841 0.01795-0.54735-0.23047-0.66797-0.05907-0.02868-0.12391-0.044938-0.18945-0.048828-0.02524-0.0015-0.049549-0.0022-0.074219 0zm-2.2832 1.0977c-0.06557 0.0034-0.13019 0.020548-0.18945 0.048828-0.24923 0.11893-0.35331 0.41679-0.23438 0.66602l0.52539 1.1016c0.0617 0.15586-0.13812 0.4023 0.003906 0.61328 0.16108 0.22429 0.47298 0.27631 0.69727 0.11523l0.2207-0.16016c0.19657-0.14122 0.26438-0.40262 0.16016-0.62109l-0.70508-1.4785c-0.0871-0.18251-0.27656-0.29578-0.47852-0.28516zm4.6094 0.015625c-0.03266 8.02e-4 -0.065617 0.0044988-0.097657 0.011719l-1.2832 0.28906c-0.13634 0.03653-0.4345-0.14603-0.63086-0.0078126-0.22085 0.16576-0.26535 0.47836-0.09961 0.69922l0.125 0.16602c0.11813 0.15737 0.31778 0.23259 0.50977 0.18945l1.5977-0.35938c0.26943-0.06055 0.43947-0.32823 0.37891-0.59766-0.04435-0.19731-0.20308-0.34828-0.40234-0.38281-0.03235-0.0056-0.064986-0.0086125-0.097656-0.0078125zm-12.525 0.67969c-1.0986 0-2 0.90136-2 2v1.75c0 0.13807 0.11193 0.25 0.25 0.25 0.41421 0 0.75-0.33579 0.75-0.75v-1.25c0-0.55821 0.44179-1 1-1h2.5c0.55338 0 1.0942 0.16374 1.5547 0.4707l1.418 0.83789 0.26562 0.14648a0.1812 0.1812 0 0 0 0.26953-0.1543l0.013672-0.61133a0.36351 0.36351 0 0 0-0.17773-0.32031l-1.2344-0.73047c-0.64623-0.38204-1.3587-0.63867-2.1094-0.63867h-2.5zm11.936 0.57227c-0.0164 0.0011-0.032478 0.0030594-0.048828 0.0058594-0.13077 0.02199-0.2473 0.09511-0.32422 0.20312l-0.15039 0.21094c-0.15363 0.21577-0.11272 0.51377 0.09375 0.67969l1.2773 1.0273c0.21528 0.17295 0.53018 0.13911 0.70312-0.076172 0.17294-0.21527 0.13909-0.53018-0.076172-0.70312l-0.91016-0.73242c-0.09452-0.09452-0.010151-0.34882-0.24023-0.52344-0.09452-0.06731-0.20945-0.099567-0.32422-0.091797zm-4.6016 1.2168c-0.016285 0.0014-0.032633 0.0051125-0.048828 0.0078125-0.19949 0.03318-0.36056 0.18386-0.40625 0.38086-0.06239 0.26901 0.10599 0.53723 0.375 0.59961l1.2051 0.2793c0.22236 0.0486 0.2497 0.36159 0.49805 0.37109 0.27613 0.0022 0.50174-0.21996 0.50391-0.49609l0.001953-0.26758c0.0018-0.23408-0.15869-0.43733-0.38672-0.49023l-1.5957-0.37109c-0.03198-0.0074-0.064996-0.012652-0.097656-0.013672-0.016325-5e-4 -0.032543-0.0014-0.048828 0zm4.3379 0.32617c-0.01627-7.5e-4 -0.032533 8.031e-4 -0.048828 0.0019531-0.03259 0.0023-0.064043 0.0088981-0.095703 0.017578l-0.1543 0.042969c-0.21652 0.05946-0.36642 0.25594-0.36719 0.48047l-0.005859 1.6387c-9.18e-4 0.27614 0.22191 0.50103 0.49805 0.50195 0.27614 9.18e-4 0.50103-0.22191 0.50195-0.49805l0.003906-1.2598c0-0.15433 0.20573-0.27161 0.13672-0.55664-0.05355-0.19502-0.21926-0.33813-0.41992-0.36328-0.016285-0.00205-0.032558-0.0051094-0.048828-0.0058594zm-1.4863 0.6582c-0.09516 0.0092-0.18573 0.04722-0.26172 0.10742l-1.2852 1.0176c-0.21645 0.17149-0.25157 0.48473-0.080078 0.70117 0.17149 0.21643 0.48473 0.25352 0.70117 0.082031l0.9082-0.71875c0.14364-0.11222 0.31499 0.06306 0.55078-0.12695 0.20966-0.17971 0.23244-0.49542 0.052734-0.70508l-0.1582-0.18359c-0.08413-0.09814-0.20141-0.16143-0.33008-0.17383-0.03217-0.0031-0.065926-0.0031-0.097656 0zm-5.0273 1.6973c-0.18758 0.0043533-0.37916 0.076064-0.54492 0.19922-0.25667 0.1907-0.55442 0.33008-0.86328 0.33008h-4.25c-0.8225 0-1.5 0.6775-1.5 1.5v4.5c0 1.0986 0.90136 2 2 2h11c1.0986 0 2-0.90136 2-2v-5.707a0.31602 0.31602 0 0 0-0.57422-0.18359l-0.14648 0.20703a1.5024 1.5024 0 0 0-0.2793 0.87109v4.8125c0 0.5582-0.4418 1-1 1h-11c-0.55821 0-1-0.4418-1-1v-4.5c0-0.28206 0.21794-0.5 0.5-0.5h4.25c0.52891 0 1.0406-0.18314 1.4492-0.51172 0.10755-0.08648 0.26565-0.24612 0.36328-0.34375l0.11328-0.11328c0.098915-0.097846 0.098915-0.25762 0-0.35547-0.14643-0.14643-0.33-0.20943-0.51758-0.20508z" color="#000000" fill="#786d7d" style="-inkscape-stroke:none"/><g transform="translate(-49.086 29.554)"/></svg>
