<svg version="1.1" viewBox="0 0 16 16" xml:space="preserve" xmlns="http://www.w3.org/2000/svg"><defs><style id="current-color-scheme" type="text/css">
      .ColorScheme-Text {
        color:#232629;
      }
      </style><style type="text/css">
      .ColorScheme-Text {
        color:#232629;
      }
      </style></defs><path d="m7.5 5c-0.65571 0-1.2111 0.41602-1.416 1h-4.4707a0.61288 0.61288 0 0 0-0.61328 0.61328v0.058594a0.32834 0.32834 0 0 0 0.32812 0.32812h4.6719v0.5c0 0.831 0.669 1.5 1.5 1.5h1c0.831 0 1.5-0.669 1.5-1.5v-0.5h4.7285a0.27211 0.27211 0 0 0 0.27148-0.27148v-0.29688a0.43235 0.43235 0 0 0-0.43164-0.43164h-4.6523c-0.2049-0.58398-0.76031-1-1.416-1h-1zm0 1h1c0.277 0 0.5 0.223 0.5 0.5v0.5 0.5c0 0.277-0.223 0.5-0.5 0.5h-1c-0.277 0-0.5-0.223-0.5-0.5v-0.5-0.5c0-0.277 0.223-0.5 0.5-0.5zm4.7207 3.5c-0.1215 0-0.2207 0.099203-0.2207 0.2207v1.2793c0 1.099 0.901 2 2 2h0.88867c0.33722-5.51e-4 0.61078-0.27411 0.61133-0.61133v-0.074219c0-0.17342-0.14103-0.31445-0.31445-0.31445h-1.1855c-0.558 0-1-0.442-1-1v-1c0-0.27614-0.22386-0.5-0.5-0.5h-0.2793zm-2.4668 2.5c-0.14028 0-0.25391 0.11363-0.25391 0.25391v0.55078c0 0.109 0.087313 0.19531 0.19531 0.19531h1.3047c0.558 0 1 0.442 1 1v1.2109c0 0.16 0.12906 0.28906 0.28906 0.28906h0.33984c0.20513 5.55e-4 0.37165-0.16596 0.37109-0.37109v-1.1289c0-1.099-0.901-2-2-2h-1.2461z" fill="#786d7d"/><rect x="7" y="6" width="2" height="2" rx="0" ry="0" fill="#786d7d" opacity=".16" stroke-linecap="round" stroke-linejoin="round"/></svg>
