<svg version="1.1" viewBox="0 0 16 16" xml:space="preserve" xmlns="http://www.w3.org/2000/svg"><defs><style id="current-color-scheme" type="text/css">
      .ColorScheme-Text {
        color:#232629;
      }
      </style><style type="text/css">
      .ColorScheme-Text {
        color:#232629;
      }
      </style></defs><rect x="7" y="6" width="2" height="2" rx="0" ry="0" fill="#821313" opacity=".16" stroke-linecap="round" stroke-linejoin="round"/><path d="m7.5 5c-0.65571 0-1.2111 0.41602-1.416 1h-4.4707c-0.3388-2.242e-4 -0.61351 0.27448-0.61328 0.61328v0.058594c1.166e-4 0.18117 0.14695 0.32801 0.32812 0.32812h4.6719v0.5c0 0.831 0.669 1.5 1.5 1.5h1c0.831 0 1.5-0.669 1.5-1.5v-0.5h4.7285c0.1498-3.424e-4 0.27114-0.12169 0.27148-0.27148v-0.29688c-3.88e-4 -0.23823-0.19341-0.43125-0.43164-0.43164h-4.6523c-0.2049-0.58398-0.76031-1-1.416-1zm0 1h1c0.277 0 0.5 0.223 0.5 0.5v1c0 0.277-0.223 0.5-0.5 0.5h-1c-0.277 0-0.5-0.223-0.5-0.5v-1c0-0.277 0.223-0.5 0.5-0.5z" fill="#786d7d"/><g fill="#786d7d"><path d="m8.5 7v6" color="#000000" style="-inkscape-stroke:none"/></g><path d="m15.497 9.862a0.123 0.123 0 0 0-0.088 0.037l-1.224 1.222c-0.42 0.42-1.09 0.42-1.511 0l-1.256-1.255a0.218 0.218 0 0 0-0.31 0l-0.24 0.24a0.299 0.299 0 0 0 0 0.426l1.196 1.198c0.75 0.75 1.98 0.75 2.73 0l1.184-1.18a0.184 0.184 0 0 0 0-0.262l-0.391-0.389a0.127 0.127 0 0 0-0.09-0.037zm-2.068 2.82c-0.495 0-0.99 0.185-1.365 0.56l-1.129 1.129a0.54 0.54 0 0 0 0 0.766l0.053 0.052a0.244 0.244 0 0 0 0.348 0l1.338-1.338c0.42-0.42 1.09-0.42 1.511 0l1.007 1.007a0.43 0.43 0 0 0 0.61 0l0.199-0.197a0.153 0.153 0 0 0 0-0.215l-1.206-1.204a1.922 1.922 0 0 0-1.366-0.56z" fill="#821313" style="-inkscape-stroke:none"/></svg>
