<svg version="1.1" viewBox="0 0 16 16" xml:space="preserve" xmlns="http://www.w3.org/2000/svg"><defs><style id="current-color-scheme" type="text/css">
      .ColorScheme-Text {
        color:#232629;
      }
      </style></defs><g fill="#786d7d"><path d="m7.5 15c-0.65571 0-1.2111-0.41602-1.416-1h-4.4711a0.61288 0.61288 45 0 1-0.61288-0.61288v-0.05879a0.32834 0.32834 135 0 1 0.32834-0.32833h4.6717v-0.5c0-0.831 0.669-1.5 1.5-1.5h1c0.831 0 1.5 0.669 1.5 1.5v0.5h4.7279a0.27211 0.27211 45 0 1 0.27211 0.27211v0.29555a0.43235 0.43235 135 0 1-0.43235 0.43235h-4.6516c-0.2049 0.58398-0.76031 1-1.416 1zm0-1h1c0.277 0 0.5-0.223 0.5-0.5v-1c0-0.277-0.223-0.5-0.5-0.5h-1c-0.277 0-0.5 0.223-0.5 0.5v1c0 0.277 0.223 0.5 0.5 0.5zm-4-8c-0.831 0-1.5-0.669-1.5-1.5v-0.5h-1.5565a0.44355 0.44355 45 0 1-0.44355-0.44355v-0.24293a0.31352 0.31352 135 0 1 0.31352-0.31352h1.7705c0.2049-0.58398 0.76031-1 1.416-1h1c0.831 0 1.5 0.669 1.5 1.5v1c0 0.831-0.669 1.5-1.5 1.5zm8 0c-0.831 0-1.5-0.669-1.5-1.5v-1c0-0.831 0.669-1.5 1.5-1.5h1c0.65571 0 1.2111 0.41602 1.416 1h1.771a0.313 0.313 45 0 1 0.313 0.313v0.29375a0.39325 0.39325 135 0 1-0.39326 0.39325h-1.6067v0.5c0 0.831-0.669 1.5-1.5 1.5zm-8-1h1c0.277 0 0.5-0.223 0.5-0.5v-1c0-0.277-0.223-0.5-0.5-0.5h-1c-0.277 0-0.5 0.223-0.5 0.5v1c0 0.277 0.223 0.5 0.5 0.5zm8 0h1c0.277 0 0.5-0.223 0.5-0.5v-1c0-0.277-0.223-0.5-0.5-0.5h-1c-0.277 0-0.5 0.223-0.5 0.5v1c0 0.277 0.223 0.5 0.5 0.5z"/><g stroke-linecap="round" stroke-linejoin="round"><rect transform="scale(1,-1)" x="7" y="-14" width="2" height="2" rx="0" ry="0" opacity=".16"/><rect transform="scale(1,-1)" x="3" y="-5" width="2" height="2" rx="0" ry="0" opacity=".16"/><rect transform="scale(-1)" x="-13" y="-5" width="2" height="2" rx="0" ry="0" opacity=".16"/></g><path d="m7.2812 6c-0.15506 0-0.28125 0.12618-0.28125 0.28125v1.7188h-0.88867c-0.06135 0-0.11133 0.049978-0.11133 0.11133v0.61133c0 0.15302 0.12432 0.27734 0.27734 0.27734h0.50586c0.12013 0 0.2168 0.096667 0.2168 0.2168v0.45117c0 0.18372 0.14831 0.33203 0.33203 0.33203h0.43359c0.12945 0 0.23438-0.10493 0.23438-0.23438v-0.60742c0-0.08756 0.070643-0.1582 0.1582-0.1582h0.58984c0.13948 0 0.25195-0.11247 0.25195-0.25195v-0.64648c0-0.05608-0.045483-0.10156-0.10156-0.10156h-0.89844v-1.7188c0-0.15506-0.12618-0.28125-0.28125-0.28125z"/></g></svg>
