<svg width="16" height="16" version="1.1" xml:space="preserve" xmlns="http://www.w3.org/2000/svg"><path d="m7 3c-0.58415 0-1.0925 0.41743-1.207 0.99023l-1.6055 8.0234-1.7117-3.8004c-0.12853-0.24574-0.43177-0.341-0.67773-0.21289l-0.21484 0.11328c-0.12499 0.064839-0.17391 0.21861-0.10938 0.34375l1.9168 4.1891c0.19108 0.36623 0.60246 0.54279 0.95703 0.49219 0.35457-0.0506 0.70219-0.33518 0.7832-0.74023l1.6426-8.2129c0.022278-0.11139 0.11297-0.18555 0.22656-0.18555h7.8379c0.090013-6.746e-4 0.16251-0.074048 0.16211-0.16406v-0.10352c-4.98e-4 -0.4043-0.32812-0.73192-0.73242-0.73242zm3.5 3c-0.27614 0-0.5 0.22386-0.5 0.5s0.22386 0.5 0.5 0.5 0.5-0.22386 0.5-0.5-0.22386-0.5-0.5-0.5zm-3.1699 3c-0.18244-3.563e-4 -0.33043 0.14763-0.33008 0.33008v0.36328c4.361e-4 0.16917 0.13747 0.3062 0.30664 0.30664h6.5371c0.086355 1.46e-4 0.1564-0.069895 0.15625-0.15625v-0.30273c4.1e-5 -0.29881-0.2422-0.54106-0.54102-0.54102zm3.1699 3c-0.27614 0-0.5 0.22386-0.5 0.5s0.22386 0.5 0.5 0.5 0.5-0.22386 0.5-0.5-0.22386-0.5-0.5-0.5z" color="#000000" fill="#786d7d" style="-inkscape-stroke:none"/></svg>
