<svg version="1.1" viewBox="0 0 16 16" xml:space="preserve" xmlns="http://www.w3.org/2000/svg"><defs><style id="current-color-scheme" type="text/css">
      .ColorScheme-Text {
        color:#232629;
      }
      </style></defs><g fill="#786d7d"><path d="m3.5 2c-0.65571 0-1.2111 0.41602-1.416 1h-1.4707c-0.3388-2.242e-4 -0.61351 0.27448-0.61328 0.61328v0.058594c1.1656e-4 0.18117 0.14695 0.32801 0.32812 0.32812h1.6719v0.5c0 0.831 0.669 1.5 1.5 1.5h1c0.831 0 1.5-0.669 1.5-1.5v-0.5h4v0.5c0 0.831 0.669 1.5 1.5 1.5h1c0.831 0 1.5-0.669 1.5-1.5v-0.5h2v-1h-2.084c-0.2049-0.58398-0.76031-1-1.416-1h-1c-0.65571 0-1.2111 0.41602-1.416 1h-4.168c-0.2049-0.58398-0.76031-1-1.416-1zm0 1h1c0.277 0 0.5 0.223 0.5 0.5v1c0 0.277-0.223 0.5-0.5 0.5h-1c-0.277 0-0.5-0.223-0.5-0.5v-1c0-0.277 0.223-0.5 0.5-0.5zm8 0h1c0.277 0 0.5 0.223 0.5 0.5v1c0 0.277-0.223 0.5-0.5 0.5h-1c-0.277 0-0.5-0.223-0.5-0.5v-1c0-0.277 0.223-0.5 0.5-0.5zm-4.2188 4c-0.15506 0-0.28125 0.12618-0.28125 0.28125v1.7188h-0.88867c-0.06135 0-0.11133 0.049978-0.11133 0.11133v0.61133c0 0.15302 0.12432 0.27734 0.27734 0.27734h0.50586c0.12013 0 0.2168 0.096667 0.2168 0.2168v0.45117c0 0.18372 0.14831 0.33203 0.33203 0.33203h0.43359c0.12945 0 0.23438-0.10492 0.23438-0.23438v-0.60742c0-0.08756 0.070643-0.1582 0.1582-0.1582h0.58984c0.13948 0 0.25195-0.11247 0.25195-0.25195v-0.64648c0-0.05608-0.045483-0.10156-0.10156-0.10156h-0.89844v-1.7188c0-0.15506-0.12618-0.28125-0.28125-0.28125zm-3.7812 4c-0.831 0-1.5 0.669-1.5 1.5v0.5h-1.5566c-0.24482 1.04e-4 -0.44326 0.19854-0.44336 0.44336v0.24219c-5.169e-4 0.17388 0.14057 0.31497 0.31445 0.31445h1.7695c0.2049 0.58398 0.76031 1 1.416 1h1c0.831 0 1.5-0.669 1.5-1.5v-1c0-0.831-0.669-1.5-1.5-1.5zm8 0c-0.831 0-1.5 0.669-1.5 1.5v1c0 0.831 0.669 1.5 1.5 1.5h1c0.65571 0 1.2111-0.41602 1.416-1h1.7715c0.17248-2.73e-4 0.31223-0.14002 0.3125-0.3125v-0.29492c-3.73e-4 -0.21666-0.17592-0.3922-0.39258-0.39258h-1.6074v-0.5c0-0.831-0.669-1.5-1.5-1.5zm-8 1h1c0.277 0 0.5 0.223 0.5 0.5v1c0 0.277-0.223 0.5-0.5 0.5h-1c-0.277 0-0.5-0.223-0.5-0.5v-1c0-0.277 0.223-0.5 0.5-0.5zm8 0h1c0.277 0 0.5 0.223 0.5 0.5v1c0 0.277-0.223 0.5-0.5 0.5h-1c-0.277 0-0.5-0.223-0.5-0.5v-1c0-0.277 0.223-0.5 0.5-0.5z"/><g stroke-linecap="round" stroke-linejoin="round"><rect x="3" y="3" width="2" height="2" rx="0" ry="0" opacity=".16"/><rect x="11" y="3" width="2" height="2" rx="0" ry="0" opacity=".16"/><rect x="3" y="12" width="2" height="2" rx="0" ry="0" opacity=".16"/><rect transform="scale(-1,1)" x="-13" y="12" width="2" height="2" rx="0" ry="0" opacity=".16"/></g></g></svg>
