<svg width="16" height="16" version="1.1" viewBox="0 0 16 16" xmlns="http://www.w3.org/2000/svg">
 <path d="m12.5 3c-0.8225 0-1.5 0.6775-1.5 1.5v8.7324c-1.7e-4 0.14785 0.11973 0.26775 0.26758 0.26758h0.070313c0.36566-3.2e-5 0.66208-0.29645 0.66211-0.66211v-8.3379c0-0.28206 0.21794-0.5 0.5-0.5h1c0.28206 0 0.5 0.21794 0.5 0.5v8c0 0.83435-0.66565 1.5-1.5 1.5h-1.75-0.25c-0.37107 0-0.67188 0.30081-0.67188 0.67188v0.125c4.03e-5 0.11217 0.090959 0.20308 0.20312 0.20312h0.71875 1.75c1.3748 0 2.5-1.1252 2.5-2.5v-8c0-0.8225-0.6775-1.5-1.5-1.5h-1zm-5 3c-0.8225 0-1.5 0.6775-1.5 1.5v5c0 0.20495 0.025105 0.40589 0.072266 0.59766 0.036173 0.14709 0.1956 0.22014 0.33789 0.16797l0.2168-0.080078c0.25591-0.093833 0.3786-0.38107 0.37305-0.65234-2.214e-4 -0.010819 0-0.022316 0-0.033203v-5c0-0.28206 0.21794-0.5 0.5-0.5h1c0.28206 0 0.5 0.21794 0.5 0.5v5c0 0.83435-0.66565 1.5-1.5 1.5h-2.4199c-0.044349 2.99e-4 -0.080377-0.035729-0.080078-0.080078v-3.4199c0-0.8225-0.6775-1.5-1.5-1.5h-1c-0.8225 0-1.5 0.6775-1.5 1.5v3.5c0 0.54636 0.45364 1 1 1h1.5391c0.16556 3.4e-5 0.27326-0.17419 0.19922-0.32227l-0.056641-0.11523c-0.17292-0.34515-0.52606-0.56293-0.91211-0.5625h-0.76953v-3.5c0-0.28206 0.21794-0.5 0.5-0.5h1c0.28206 0 0.5 0.21794 0.5 0.5v3.5c0 0.54636 0.45364 1 1 1h2.5c1.3748 0 2.5-1.1252 2.5-2.5v-5c0-0.8225-0.6775-1.5-1.5-1.5h-1zm-1.1992 7.0859c0.01161 0.005077 0.024569 0.017095 0.037109 0.037109 0.010234 0.01633-0.0086405 0.037235-0.023438 0.046875-0.014507 0.0094-0.05664-0.009171-0.0625-0.025391-0.011832-0.032835 0.013999-0.073826 0.048828-0.058593zm3.1738 1.7363a0.069835 0.081556 0 0 0-0.060547 0.082031 0.069835 0.081556 0 0 0 0.070312 0.080078 0.069835 0.081556 0 0 0 0.068359-0.080078 0.069835 0.081556 0 0 0-0.0078125-0.039063 0.069835 0.081556 0 0 0-0.0039063-0.009765 0.069835 0.081556 0 0 0-0.0039062-0.00586 0.069835 0.081556 0 0 0-0.0058594-0.005859 0.069835 0.081556 0 0 1-0.0019531-0.001953 0.069835 0.081556 0 0 0-0.0078125-0.007813 0.069835 0.081556 0 0 0-0.0097656-0.003906 0.069835 0.081556 0 0 0-0.0058594-0.003906 0.069835 0.081556 0 0 0-0.0097656-0.001953 0.069835 0.081556 0 0 0-0.0097657-0.001953 0.069835 0.081556 0 0 1-0.0019531 0 0.069835 0.081556 0 0 0-0.0097656 0z" color="#000000" fill="#786d7d" style="-inkscape-stroke:none"/>
</svg>
