<svg width="16" height="16" version="1.1" xml:space="preserve" xmlns="http://www.w3.org/2000/svg"><path d="m13.504 2.9844c-0.26884 0-0.53824 0.10038-0.74023 0.30273l-5.9102 5.9219a0.19147 0.19147 0 0 0 0.00195 0.27148l0.13086 0.13086a0.62499 0.62499 0 0 0 0.88281-0.00195l5.6035-5.6152c0.02218-0.022217 0.04032-0.022217 0.0625 0l1.543 1.5469c0.02218 0.022218 0.02218 0.044188 0 0.066406l-7.2012 7.2168c-0.23525 0.23568-0.60068 0.23568-0.83594 0l-4.25-4.2578v-0.00195c-0.044322-0.043176-0.038541-0.014117 0.00586-0.058597l1.5449-1.5469c0.022178-0.022217 0.040323-0.022217 0.0625 0l1.4043 1.4062a0.1345 0.1345 0 0 0 0.19141-2.8e-6l0.20508-0.20508a0.57497 0.57497 0 0 0 0-0.8125l-1.0918-1.0957c-0.40398-0.40471-1.0765-0.4047-1.4805 0l-1.543 1.5469c-0.38029 0.38098-0.41257 1.0654-0.00781 1.4727l4.252 4.2578c0.61706 0.61819 1.6329 0.61819 2.25 0l7.2031-7.2168c0.40398-0.40471 0.40398-1.0738 0-1.4785l-1.543-1.5469c-0.20199-0.20235-0.47139-0.30273-0.74024-0.30273zm-6.5684 6.3184a0.050736 0.04667 0 0 1 0.00781 0 0.050736 0.04667 0 0 1 0.00195 0 0.050736 0.04667 0 0 1 0.00195 0 0.050736 0.04667 0 0 1 0.00195 0 0.050736 0.04667 0 0 1 0.00586 0 0.050736 0.04667 0 0 1 0.00195 0.00195 0.050736 0.04667 0 0 1 0.00195 0 0.050736 0.04667 0 0 1 0.00195 0 0.050736 0.04667 0 0 1 0.00586 0.00195 0.050736 0.04667 0 0 1 0.00195 0.00195 0.050736 0.04667 0 0 1 0.00195 0.00195 0.050736 0.04667 0 0 1 0.00195 0 0.050736 0.04667 0 0 1 0.00195 0.00195 0.050736 0.04667 0 0 1 0.00195 0.00195 0.050736 0.04667 0 0 1 0.00195 0.00195 0.050736 0.04667 0 0 1 0.00195 0 0.050736 0.04667 0 0 1 0.00195 0.00195 0.050736 0.04667 0 0 1 0 0.00195 0.050736 0.04667 0 0 1 0.00195 0.00195 0.050736 0.04667 0 0 1 0.00195 0.00195 0.050736 0.04667 0 0 1 0 0.00195 0.050736 0.04667 0 0 1 0.00195 0.00195 0.050736 0.04667 0 0 1 0.00195 0.00195 0.050736 0.04667 0 0 1 0 0.00195 0.050736 0.04667 0 0 1 0.00195 0.00586 0.050736 0.04667 0 0 1 0 0.00195 0.050736 0.04667 0 0 1 0 0.00195 0.050736 0.04667 0 0 1 0 0.00195 0.050736 0.04667 0 0 1 0 0.00195 0.050736 0.04667 0 0 1 0 0.00391 0.050736 0.04667 0 0 1-0.048828 0.044922 0.050736 0.04667 0 0 1-0.050781-0.044922 0.050736 0.04667 0 0 1 0.042969-0.046875z" color="#000000" fill="#786d7d" style="-inkscape-stroke:none"/><path d="m7.4665 0.019606c-1.7368 0.1161-3.4352 0.79687-4.8031 2.0221-2.7359 2.4504-3.4523 6.4565-1.7338 9.7024 1.7186 3.2459 5.4338 4.906 8.9983 4.0206 3.5262-0.87591 6.0182-4.0234 6.0712-7.6466 9.54e-4 -0.065165-0.051924-0.118-0.11704-0.118h-0.05481c-0.4592 0-0.82631 0.37379-0.88036 0.82953-0.33904 2.8589-2.4103 5.2524-5.2602 5.9604-3.1218 0.77544-6.3635-0.67379-7.8686-3.5165-1.5051-2.8428-0.88197-6.3384 1.5141-8.4844 2.238-2.0045 5.4772-2.3432 8.0626-0.90585 0.30476 0.16942 0.69637 0.097318 0.89234-0.19119l0.07766-0.11434c0.0731-0.10762 0.04531-0.25445-0.06438-0.32439-1.4742-0.93998-3.1716-1.3447-4.8339-1.2335z" color="#000000" fill="#786d7d" stroke-linejoin="round" stroke-width="1.0042" style="-inkscape-stroke:none"/></svg>
