<?xml version="1.0" encoding="UTF-8" standalone="no"?>
<svg
   width="16"
   height="16"
   version="1.1"
   viewBox="0 0 16 16"
   xml:space="preserve"
   id="svg6226"
   sodipodi:docname="globe.svg"
   inkscape:version="1.2.2 (b0a8486541, 2022-12-01)"
   xmlns:inkscape="http://www.inkscape.org/namespaces/inkscape"
   xmlns:sodipodi="http://sodipodi.sourceforge.net/DTD/sodipodi-0.dtd"
   xmlns="http://www.w3.org/2000/svg"
   xmlns:svg="http://www.w3.org/2000/svg"><sodipodi:namedview
     id="namedview6228"
     pagecolor="#ffffff"
     bordercolor="#666666"
     borderopacity="1.0"
     inkscape:showpageshadow="2"
     inkscape:pageopacity="0.0"
     inkscape:pagecheckerboard="0"
     inkscape:deskcolor="#d1d1d1"
     showgrid="true"
     inkscape:zoom="34.171381"
     inkscape:cx="-21.333642"
     inkscape:cy="9.862054"
     inkscape:window-width="3840"
     inkscape:window-height="2137"
     inkscape:window-x="2560"
     inkscape:window-y="0"
     inkscape:window-maximized="1"
     inkscape:current-layer="svg6226"><inkscape:grid
       type="xygrid"
       id="grid6347" /></sodipodi:namedview><defs
     id="defs6212"><style
       id="current-color-scheme"
       type="text/css">
      .ColorScheme-Text {
        color:#232629;
      }
      </style><style
       type="text/css"
       id="style6210">
      .ColorScheme-Text {
        color:#232629;
      }
      </style></defs><path
     d="m8 3.4286e-5c-4.4115 0-8 3.5884-8 8 0 4.4115 3.5884 8 8 8 1.5905 0 3.0726-0.46703 4.319-1.2705 0.39769-0.25635 0.42304-0.77316 0.0883-1.1079-0.11153-0.11153-0.30265-0.12296-0.43119-0.03144-1.1207 0.79792-2.492 1.267-3.9761 1.267-3.7938 0-6.8571-3.0633-6.8571-6.8571 0-3.7938 3.0633-6.8571 6.8571-6.8571s6.8571 3.0633 6.8571 6.8571c0 1.279-0.34835 2.4742-0.95533 3.4974-0.24136 0.40688-0.21081 0.97934 0.12393 1.3141 0.11153 0.11153 0.28271 0.10268 0.37738-0.02354 1.002-1.336 1.5969-2.9929 1.5969-4.7879 0-4.4115-3.5884-8-8-8z"
     color="#000000"
     fill="#786d7d"
     stroke-linecap="square"
     stroke-width="1.1428"
     style="-inkscape-stroke:none;paint-order:markers stroke fill"
     id="path6214" /><g
     transform="matrix(0.97873036,0,0,0.97873036,0.17466124,0.15602244)"
     fill="none"
     opacity="0.81046"
     stroke="#786d7d"
     stroke-linejoin="round"
     id="g6224"><path
       d="M 9.8941,1.8094 9.7959479,2.0975322 9.39682,2.8685 7.81642,3.1335 7.28607,4.6326 7.84041,5.30511 8.36079,4.94129 9.13292,4.39701 l 0.86738,0.15718 1.0192,0.16457 0.5013,0.98845 0.36531,0.73294 0.53083,0.041064 0.56672,-0.3757 -0.16292,-0.52732 0.35438,-0.074411 0.30164,0.12365 0.43728,0.48139 0.07868,0.67424 0.43325,-0.19245"
       stroke-width="0.82788px"
       id="path6216"
       sodipodi:nodetypes="cccccccccccccccccccc" /><path
       d="m 8.0258,6.0957 1.2015,-0.20575 -0.019771,0.40849 0.43915,0.33163 0.52348,-0.1962 0.67391,0.030604 0.68677,-0.017571 -0.3636,0.76187 0.44965,0.81617 0.58167,0.30142 -0.53737,0.60488 -0.3037,0.4798 0.19561,0.59434 -0.33806,0.49155 -0.164,0.37354 -0.25097,0.20897 -0.18316,0.38402 -0.43571,0.31371 -0.28182,0.09681 -0.55594,-1.2784 0.091892,-0.68491 -0.274,-0.67172 -0.03954,-0.4834 -0.736,-0.20842 -0.32578,0.15517 -0.75477,-0.29728 -0.34707,-0.7132 0.31328,-0.44066 0.35874,-0.77372 z"
       stroke-width="0.79896"
       id="path6218" /><path
       d="M 4.1475,3.1216 4.3031482,3.2955939 4.61717,3.80739 4.25895,4.49277 3.72516,5.12468 3.4102,5.46295 3.10985,5.66628 3.46724,6.17203 2.70149,6.32259 2.16569,6.1464"
       stroke-width="0.70488"
       id="path6220"
       sodipodi:nodetypes="cccccccccc" /><path
       d="m 1.9169732,7.5330804 0.98675,0.061245 0.90569,0.057261 0.63384,0.30481 0.3635368,0.8131596 0.5501,0.36172 0.055698,0.33503 -0.41784,0.61925 -0.055435,0.90445 -0.60795,0.88654 -0.2943665,0.724665 -0.1780435,0.250825"
       stroke-width="0.70488"
       id="path6222"
       sodipodi:nodetypes="cccccccccccc" /></g></svg>
