<svg width="16" height="16" version="1.1" xml:space="preserve" xmlns="http://www.w3.org/2000/svg"><path d="m6.4785 1.4746c-1.7341 0.012004-3.39 0.88208-4.3906 2.3633-1.5538 2.3301-1.0367 5.4668 1.1836 7.1738l1.9434 1.7871c0.29118 0.29118 0.83694 0.57174 1.2539 0.56836 0.37118-0.0016 0.82075-0.07661 1.4258-0.68164 0.67258-0.67258 1.3709-1.2716 2.0625-1.8887 0.064573 0.14247 0.15414 0.2772 0.27344 0.39648l4.6113 4.6094c0.08639 0.08683 0.22611 0.08683 0.3125 0l0.44922-0.44726c0.03051-0.02997 0.03051-0.07939 0-0.10938l-4.7129-4.7129c-0.16412-0.16412-0.16991-0.46432-0.0059-0.70117 0.40001-0.58035 0.66848-1.2179 0.8125-1.875 1.39e-4 -6.22e-4 -1.4e-4 -0.00133 0-0.00195 0.07217-0.25292 0.07542-0.50832 0.11132-0.76172 9.82e-4 -0.012978 3e-3 -0.026078 0.0039-0.039063 2.05e-4 -0.00325-1.99e-4 -0.00652 0-0.00977 0.07605-1.1426-0.21518-2.3086-0.88546-3.3109-0.0076-0.011332-0.24871-0.31739-0.46895-0.597-0.19909-0.25276-0.35629-0.19723-0.35185 0.1246l0.0076 0.54782c3e-3 0.21632 0.10673 0.53537 0.2129 0.72378 0.067719 0.12025 0.12932 0.24284 0.18504 0.36712h-0.01367c0.26635 0.5858 0.39912 1.2197 0.39453 1.8535 0.0028 0.18757-0.02638 0.36892-0.0391 0.54687-6.9e-4 0.00518-0.0012 0.010448-2e-3 0.015625-0.1182 0.81982-0.47033 1.611-1.0469 2.2676l-2.7323 2.4941c-0.36746 0.33544-0.75871 0.35131-1.1309 0.01172l-2.1016-1.918c-1.8357-1.4052-2.264-3.9958-0.97656-5.916 1.2551-1.836 3.6558-2.5382 5.7539-1.4062 0.04747 0.02607 0.10754 0.0097 0.13477-0.037109l0.052734-0.09375c0.20049-0.34782 0.082068-0.79722-0.28906-0.94922-0.66797-0.27326-1.3585-0.39923-2.0371-0.39453zm2.5508 1.6211c-0.045692 9.3e-4 -0.082031 0.039308-0.082031 0.085937 0 0.04197 0.031236 0.080184 0.072266 0.083984 0.055949 0.00466 0.10113-0.012184 0.091797-0.083984-0.00653-0.04662-0.036338-0.085937-0.082032-0.085937zm5.9395 12.463c0.04801-2e-3 0.10468 0.04408 0.10352 0.07031 1e-3 0.04635-0.03567 0.08493-0.08203 0.08594-0.04663 0-0.0905-0.03838-0.08398-0.08594 0.0077-0.0507 0.03369-0.06911 0.0625-0.07031z" fill="#786d7d" style="-inkscape-stroke:none"/><path d="m8.8592 6.4325-1.2301 1.1181c-0.63905 0.58096-1.6266 0.58096-2.2656 0l-1.4761-1.3416a1.0854 1.0854 77.218 0 1-0.27512-1.2127 0.27486 0.27486 2.5632 0 1 0.45016 0.020152l1.9729 1.7941c0.26408 0.24007 0.6578 0.24007 0.92188 0l2.0865-1.8973a0.089669 0.089669 12.273 0 1 0.14276 0.031056 1.3136 1.3136 102.4 0 1-0.32729 1.4883z" color="#000000" fill="#786d7d" style="-inkscape-stroke:none"/></svg>
