<svg width="16" height="16" version="1.1" viewBox="0 0 16 16" xml:space="preserve" xmlns="http://www.w3.org/2000/svg"><path d="m12.211 2c-0.59046 0-1.1555 0.24864-1.5527 0.68555l-3.8008 4.1816c-0.58096 0.63905-0.58096 1.6266 0 2.2656l3.8008 4.1816c0.39719 0.4369 0.96228 0.68555 1.5527 0.68555h0.79297c0.88536 0 1.6417-0.58447 1.9023-1.3867 0.1058-0.32564-0.18165-0.61328-0.52539-0.61328h-0.20898c-0.092786 0-0.16666 0.076503-0.18164 0.16797-0.078072 0.47668-0.48521 0.83203-0.98633 0.83203h-0.79297c-0.30923 0-0.60449-0.13056-0.8125-0.35938l-3.8008-4.1797c-0.24007-0.26408-0.24007-0.6578 0-0.92188l3.8008-4.1797c0.20801-0.22881 0.50327-0.35938 0.8125-0.35938h0.79297c0.55821 0 1 0.4418 1 1v1.8867 4.2266 0.0625a1.1713 1.1713 0 0 0 0.64844 1.0488l0.10547 0.052735a0.16942 0.16942 0 0 0 0.24609-0.15234v-1.0117-4.2266-1.8867c0-1.0986-0.90136-2-2-2h-0.79297zm-9.1895 1.0117c-0.060603 1.618e-4 -0.12412 0.015034-0.1875 0.046875-0.49224 0.2472-0.83398 0.75799-0.83398 1.3418v7.5957c0 0.5482 0.4557 1.0039 1.0039 1.0039h0.71289c0.70254 0 1.2832-0.58066 1.2832-1.2832v-7.6777c0.00184-0.35135-0.28145-0.63683-0.63281-0.63867-0.20277 0-0.36719 0.16442-0.36719 0.36719v7.9492c0 0.1621-0.1211 0.28321-0.2832 0.2832h-0.71289c-0.0096999-1.8332-0.0011062-5.7663-0.0039062-7.5996 0-0.20269 0.11326-0.37178 0.28125-0.45117 0.11222-0.05303 0.21875-0.15025 0.21875-0.27539v-0.082031c0-0.31011-0.2159-0.58078-0.47852-0.58008zm11.77 8.0234a0.034608 0.034608 0 0 1 0.005859 0 0.034608 0.034608 0 0 1 0.001953 0 0.034608 0.034608 0 0 1 0.001953 0 0.034608 0.034608 0 0 1 0.001953 0 0.034608 0.034608 0 0 1 0.001954 0.001953 0.034608 0.034608 0 0 1 0.001953 0 0.034608 0.034608 0 0 1 0.001953 0 0.034608 0.034608 0 0 1 0.001953 0 0.034608 0.034608 0 0 1 0.001953 0.001953 0.034608 0.034608 0 0 1 0.001953 0.001954 0.034608 0.034608 0 0 1 0.001953 0 0.034608 0.034608 0 0 1 0.001953 0.001953 0.034608 0.034608 0 0 1 0.001953 0.001953 0.034608 0.034608 0 0 1 0.001954 0.001953 0.034608 0.034608 0 0 1 0.001953 0.001953 0.034608 0.034608 0 0 1 0.001953 0.001953 0.034608 0.034608 0 0 1 0 0.001953 0.034608 0.034608 0 0 1 0.001953 0 0.034608 0.034608 0 0 1 0 0.001954 0.034608 0.034608 0 0 1 0 0.001953 0.034608 0.034608 0 0 1 0.001953 0.001953 0.034608 0.034608 0 0 1 0 0.001953 0.034608 0.034608 0 0 1 0 0.001953 0.034608 0.034608 0 0 1 0 0.001953 0.034608 0.034608 0 0 1 0.001953 0.001953 0.034608 0.034608 0 0 1 0 0.001953 0.034608 0.034608 0 0 1 0 0.001953 0.034608 0.034608 0 0 1-0.035156 0.035157 0.034608 0.034608 0 0 1-0.035156-0.035157 0.034608 0.034608 0 0 1 0.029297-0.035156zm-0.67969 0.75977a0.049283 0.054427 0 0 0-0.048828 0.054687 0.049283 0.054427 0 0 0 0.048828 0.054688 0.049283 0.054427 0 0 0 0.048828-0.054688 0.049283 0.054427 0 0 1 0-0.001953 0.049283 0.054427 0 0 0 0-0.001953 0.049283 0.054427 0 0 0 0-0.001953 0.049283 0.054427 0 0 0 0-0.001953 0.049283 0.054427 0 0 1 0-0.001953 0.049283 0.054427 0 0 0-0.001953-0.00586 0.049283 0.054427 0 0 1 0-0.001953 0.049283 0.054427 0 0 1 0-0.001953 0.049283 0.054427 0 0 0-0.001953-0.005859 0.049283 0.054427 0 0 1-0.001953-0.001953 0.049283 0.054427 0 0 1-0.001953-0.001954 0.049283 0.054427 0 0 1 0-0.001953 0.049283 0.054427 0 0 1-0.001953-0.001953 0.049283 0.054427 0 0 1-0.001953-0.001953 0.049283 0.054427 0 0 1-0.001954-0.001953 0.049283 0.054427 0 0 1-0.001953-0.001953 0.049283 0.054427 0 0 1 0-0.001953 0.049283 0.054427 0 0 1-0.001953-0.001953 0.049283 0.054427 0 0 1-0.001953 0 0.049283 0.054427 0 0 1-0.001953-0.001953 0.049283 0.054427 0 0 1-0.001953-0.001954 0.049283 0.054427 0 0 1-0.001953-0.001953 0.049283 0.054427 0 0 0-0.00586-0.001953 0.049283 0.054427 0 0 1-0.001953 0 0.049283 0.054427 0 0 1-0.001953 0 0.049283 0.054427 0 0 1-0.001953-0.001953 0.049283 0.054427 0 0 1-0.001953 0 0.049283 0.054427 0 0 0-0.00586 0 0.049283 0.054427 0 0 1-0.001953-0.001953 0.049283 0.054427 0 0 1-0.001953 0z" color="#000000" fill="#786d7d" style="-inkscape-stroke:none"/></svg>
