<svg width="16" height="16" version="1.1" viewBox="0 0 16 16" xmlns="http://www.w3.org/2000/svg">
 <g fill="#786d7d">
  <path d="m2.1923 3h0.711c0.50647 0 1.1006 0.71553 1.1006 1.3884v7.4233c0 0.65836-0.53001 1.1884-1.1884 1.1884h-0.62327c-0.65836 0-1.1884-0.53001-1.1884-1.1884v-7.7233c0-0.65836 0.53001-1.0884 1.1884-1.0884z" opacity=".1383" stroke-linejoin="round"/>
  <path d="m12.303 14c0.48539 0 0.89162-0.30559 1.0625-0.69336 0.17088-0.38778 0.1205-0.89367-0.20703-1.252l-0.79297-0.74414c-0.0827-0.09046-0.15618-0.18212-0.2207-0.27734-0.06479-0.09561-0.2022-0.19352-0.31641-0.21094l-0.50586-0.07617c-0.18895-0.02882-0.32859 0.1038-0.27539 0.28711 0.13696 0.47194 0.4289 0.78582 0.58008 0.95117l0.79492 0.74609c0.14602 0.11589 0.01661 0.26953-0.11914 0.26953h-1.5c-0.49629 0-0.96892-0.20894-1.3027-0.57617l-3.6035-3.9629c-0.24008-0.26409-0.24008-0.65779 0-0.92188l3.6035-3.9629c0.33384-0.36723 0.80649-0.57617 1.3027-0.57617h1.5c0.08936 0 0.12018 0.036 0.14648 0.0957 0.02631 0.0597 0.03294 0.10789-0.02734 0.17383l-2.4199 2.6465c-0.70241 0.76827-0.79314 1.8086-0.43164 2.6289 0.3615 0.82033 1.1914 1.4551 2.2324 1.4551h1.2051c1.093 0 1.9895-0.89458 1.9922-2.0117 0.0018-0.74904-0.40564-1.3902-1.0039-1.7305l0.0039-0.00781c-0.62233-0.35972-1.3894-0.35972-2.0117 0-0.54844 0.3171-0.89569 0.8787-0.96957 1.4997-0.01636 0.13751 0.09753 0.2503 0.23609 0.2503h0.37607c0.20602 0 0.36661-0.17271 0.43477-0.36608 0.07579-0.21501 0.21971-0.40119 0.42264-0.51868 0.28254-0.14424 0.63148-0.15151 0.93555-0.033203 0.0052 0.00201 0.0105 0.00378 0.01563 0.00586 0.33383 0.1532 0.56149 0.48458 0.56055 0.89844-0.0013 0.57605-0.43877 1.0137-0.99219 1.0137h-1.2051c-0.64493 0-1.0995-0.36711-1.3164-0.85938-0.21693-0.49226-0.18128-1.0748 0.25391-1.5508l2.418-2.6445c0.32753-0.35823 0.37791-0.86413 0.20703-1.252-0.17088-0.38777-0.57711-0.69336-1.0625-0.69336h-1.5c-0.77751 0-1.52 0.32899-2.043 0.9043l-3.6035 3.9629c-0.58096 0.63905-0.58096 1.6266 0 2.2656l3.6035 3.9629c0.52301 0.57531 1.2655 0.9043 2.043 0.9043z" style="-inkscape-stroke:none"/>
  <path d="m2.5039 3.5911v0.082329c0 0.12514 0.10726 0.2219 0.21948 0.27493 0.16799 0.079391 0.28052 0.24896 0.28052 0.45165-0.0028 1.8333 0.0058 5.7668-0.0039 7.6h-0.7129c-0.1621 6e-6 -0.2832-0.1211-0.2832-0.2832v-7.9497c0-0.20277-0.16437-0.36714-0.36714-0.36714-0.35136 0.00184-0.6347 0.28816-0.63286 0.63951v7.6773c0 0.70254 0.58066 1.2832 1.2832 1.2832h0.71289c0.54821 0 1.0039-0.4557 1.0039-1.0039v-7.5961c0-0.58381-0.34132-1.0946-0.83356-1.3418-0.33803-0.16982-0.66644 0.15125-0.66644 0.53293z" color="#000000" style="-inkscape-stroke:none"/>
 </g>
</svg>
