<svg xmlns="http://www.w3.org/2000/svg" xml:space="preserve" width="16" height="16"><path fill="#786d7d" d="M6.892 1.158 2.45 4.234A3.366 3.366 0 0 0 .999 7v6c0 1.098.902 2 2 2h3c2.204 0 4-1.797 4-4V8.457A1.965 1.965 0 0 0 8.044 6.5h-.086A1.965 1.965 0 0 0 6 8.457v3.346c0 .109.088.197.197.197.444 0 .803-.36.803-.803v-2.74a.95.95 0 0 1 .957-.957h.086A.95.95 0 0 1 9 8.457V11c0 1.663-1.337 3-3 3H3c-.558 0-1-.442-1-1V7c0-.776.38-1.502 1.017-1.944L7.463 1.98a.94.94 0 0 1 1.074 0l4.445 3.076A2.362 2.362 0 0 1 14 7v6c0 .558-.442 1-1 1h-2.3a.7.7 0 0 0-.7.7v.047c0 .14.113.252.252.252H13c1.099 0 2-.901 2-2V7a3.366 3.366 0 0 0-1.45-2.766L9.108 1.158a1.945 1.945 0 0 0-2.215 0zm-.668 10.695c-.07.027-.101-.004-.07-.068.07-.06.123-.04.07.068zm3.631 3.091c-.014.024.033.07.05.05.071-.08-.006-.12-.05-.05z" color="#000" style="-inkscape-stroke:none"/></svg>