<?xml version="1.0" encoding="UTF-8"?>
<!-- Created with Inkscape (http://www.inkscape.org/) -->
<svg width="16" height="16" version="1.1" viewBox="0 0 16 16" xmlns="http://www.w3.org/2000/svg">
 <g fill="#786d7d">
  <path d="m13.188 3h0.711c0.50647 0 1.1006 0.71553 1.1006 1.3884v7.4233c0 0.65836-0.53001 1.1884-1.1884 1.1884h-0.62327c-0.65836 0-1.1884-0.53001-1.1884-1.1884v-7.7233c0-0.65836 0.53001-1.0884 1.1884-1.0884z" opacity=".1383" stroke-linejoin="round"/>
  <path d="m3.7012 2c-0.48539 0-0.89162 0.30559-1.0625 0.69336-0.17088 0.38778-0.1205 0.89367 0.20703 1.252l0.79297 0.74414c0.082699 0.09046 0.15618 0.18212 0.2207 0.27734 0.064786 0.09561 0.2022 0.19352 0.31641 0.21094l0.50586 0.076172c0.18895 0.02882 0.32859-0.1038 0.27539-0.28711-0.13696-0.47194-0.4289-0.78582-0.58008-0.95117l-0.79492-0.74609c-0.14602-0.11589-0.016611-0.26953 0.11914-0.26953h1.5c0.49629 0 0.96892 0.20894 1.3027 0.57617l3.6035 3.9629c0.24008 0.26409 0.24008 0.65779 0 0.92188l-3.6035 3.9629c-0.33384 0.36723-0.80648 0.57617-1.3027 0.57617h-1.5c-0.089356 0-0.12018-0.036-0.14648-0.0957-0.026309-0.0597-0.032945-0.10789 0.027344-0.17383l2.4199-2.6465c0.70241-0.76827 0.79314-1.8086 0.43164-2.6289-0.3615-0.82033-1.1914-1.4551-2.2324-1.4551h-1.2051c-1.093 0-1.9895 0.89458-1.9922 2.0117-0.0017634 0.74904 0.40564 1.3902 1.0039 1.7305l-0.0039063 0.0078125c0.62233 0.35972 1.3894 0.35972 2.0117 0 0.62133-0.35924 0.98444-1.0323 0.98438-1.75h-1c3.443e-4 0.36073-0.1722 0.70402-0.48438 0.88477-0.28254 0.14424-0.63148 0.15151-0.93555 0.033203-0.0051537-0.0020052-0.010498-0.0037825-0.015625-0.0058594-0.33383-0.1532-0.56149-0.48458-0.56055-0.89844 0.00131-0.57605 0.43877-1.0137 0.99219-1.0137h1.2051c0.64493 0 1.0995 0.36711 1.3164 0.85938 0.21693 0.49226 0.18128 1.0748-0.25391 1.5508l-2.418 2.6445c-0.32753 0.35823-0.37791 0.86413-0.20703 1.252 0.17088 0.38777 0.57711 0.69336 1.0625 0.69336h1.5c0.77751 0 1.52-0.32899 2.043-0.9043l3.6035-3.9629c0.58096-0.63905 0.58096-1.6266 0-2.2656l-3.6035-3.9629c-0.52301-0.57531-1.2655-0.9043-2.043-0.9043z" style="-inkscape-stroke:none"/>
  <path d="m13.5 3.5911v0.082329c0 0.12514 0.10726 0.2219 0.21948 0.27493 0.16799 0.079391 0.28052 0.24896 0.28052 0.45165-0.0028 1.8333 0.0058 5.7668-0.0039 7.6h-0.7129c-0.1621 6e-6 -0.2832-0.1211-0.2832-0.2832v-7.9497c0-0.20277-0.16437-0.36714-0.36714-0.36714-0.35136 0.0018367-0.6347 0.28816-0.63286 0.63951v7.6773c0 0.70254 0.58066 1.2832 1.2832 1.2832h0.71289c0.54821 0 1.0039-0.4557 1.0039-1.0039v-7.5961c0-0.58381-0.34132-1.0946-0.83356-1.3418-0.33803-0.16982-0.66644 0.15125-0.66644 0.53293z" color="#000000" style="-inkscape-stroke:none"/>
 </g>
</svg>
