<svg width="16" height="16" version="1.1" viewBox="0 0 16 16" xml:space="preserve" xmlns="http://www.w3.org/2000/svg"><g fill="#786d7d"><path d="m6.0929 13c0.59046 0 1.1555-0.24864 1.5527-0.68555l2.9008-3.1816c0.58096-0.63905 0.58096-1.6266 0-2.2656l-2.9008-3.1816c-0.39719-0.4369-0.96228-0.68555-1.5527-0.68555h-0.09297c-0.88536 0-1.6417 0.58447-1.9023 1.3867-0.1058 0.32564 0.18165 0.61328 0.52539 0.61328h0.20898c0.09279 0 0.16666-0.0765 0.18164-0.16797 0.078072-0.47668 0.48521-0.83203 0.98633-0.83203h0.09297c0.30923 0 0.60449 0.13056 0.8125 0.35938l2.9008 3.1797c0.24007 0.26408 0.24007 0.6578 0 0.92188l-2.9008 3.1797c-0.20801 0.22881-0.50327 0.35938-0.8125 0.35938h-0.09297c-0.55821 0-1-0.4418-1-1v-4.1758c2.63e-4 -0.4443-0.25087-0.85049-0.64844-1.0488l-0.10547-0.05274c-0.1132-0.05746-0.24705 0.0254-0.24609 0.15235v5.125c0 1.0986 0.90136 2 2 2zm-1.8801-7.0352c-0.0019 1.66e-4 -0.0039 1.66e-4 -0.0059 0-6.5e-4 1.8e-5 -0.0013 1.8e-5 -0.0019 0-6.5e-4 1.8e-5 -0.0013 1.8e-5 -2e-3 0-6.5e-4 1.8e-5 -0.0013 1.8e-5 -0.0019 0-6.77e-4 -6.4e-4 -0.0013-0.0013-2e-3 -2e-3 -6.5e-4 1.8e-5 -0.0013 1.8e-5 -0.0019 0-6.5e-4 1.8e-5 -0.0013 1.8e-5 -2e-3 0-6.5e-4 1.8e-5 -0.0013 1.8e-5 -2e-3 0-6.77e-4 -6.4e-4 -0.0013-0.0013-0.0019-2e-3 -6.77e-4 -6.4e-4 -0.0013-0.0013-2e-3 -2e-3 -6.5e-4 1.8e-5 -0.0013 1.8e-5 -0.0019 0-6.77e-4 -6.4e-4 -0.0013-0.0013-2e-3 -2e-3 -6.77e-4 -6.4e-4 -0.0013-0.0013-0.0019-2e-3 -6.77e-4 -6.4e-4 -0.0013-0.0013-2e-3 -2e-3 -6.77e-4 -6.4e-4 -0.0013-0.0013-0.0019-2e-3 -6.77e-4 -6.4e-4 -0.0013-0.0013-2e-3 -2e-3 -1.9e-5 -6.66e-4 -1.9e-5 -0.0013 0-2e-3 -6.5e-4 1.8e-5 -0.0013 1.8e-5 -2e-3 0-1.9e-5 -6.66e-4 -1.9e-5 -0.0013 0-2e-3 -1.9e-5 -6.66e-4 -1.9e-5 -0.0013 0-2e-3 -6.77e-4 -6.4e-4 -0.0013-0.0013-0.0019-2e-3 -1.9e-5 -6.66e-4 -1.9e-5 -0.0013 0-2e-3 -1.9e-5 -6.66e-4 -1.9e-5 -0.0013 0-2e-3 -1.9e-5 -6.66e-4 -1.9e-5 -0.0013 0-2e-3 -6.77e-4 -6.4e-4 -0.0013-0.0013-2e-3 -2e-3 -1.9e-5 -6.66e-4 -1.9e-5 -0.0013 0-2e-3 -1.9e-5 -6.66e-4 -1.9e-5 -0.0013 0-2e-3 -3.15e-4 -0.01955 0.01561-0.03547 0.03516-0.03516 0.01955-3.12e-4 0.03547 0.01561 0.03516 0.03516 4.84e-4 0.01743-0.01207 0.03249-0.0293 0.03516zm0.67969-0.75977c0.02713-2.77e-4 0.04896-0.02472 0.04883-0.05469 1.32e-4 -0.02997-0.02169-0.05441-0.04883-0.05469-0.02713 2.77e-4 -0.04896 0.02472-0.04883 0.05469 1.1e-5 6.67e-4 1.1e-5 0.0013 0 2e-3 -1.1e-5 6.67e-4 -1.1e-5 0.0013 0 2e-3 -1.1e-5 6.67e-4 -1.1e-5 0.0013 0 2e-3 -1.1e-5 6.67e-4 -1.1e-5 0.0013 0 2e-3 1.1e-5 6.67e-4 1.1e-5 0.0013 0 2e-3 5.46e-4 2e-3 0.0012 4e-3 2e-3 0.0059 1.1e-5 6.67e-4 1.1e-5 0.0013 0 2e-3 1.1e-5 6.67e-4 1.1e-5 0.0013 0 2e-3 5.46e-4 2e-3 0.0012 4e-3 0.0019 0.0059 6.66e-4 6.47e-4 0.0013 0.0013 2e-3 2e-3 6.66e-4 6.47e-4 0.0013 0.0013 0.0019 2e-3 1.1e-5 6.67e-4 1.1e-5 0.0013 0 2e-3 6.66e-4 6.47e-4 0.0013 0.0013 2e-3 2e-3 6.66e-4 6.47e-4 0.0013 0.0013 2e-3 2e-3 6.66e-4 6.47e-4 0.0013 0.0013 0.0019 2e-3 6.66e-4 6.47e-4 0.0013 0.0013 2e-3 2e-3 1.1e-5 6.67e-4 1.1e-5 0.0013 0 2e-3 6.66e-4 6.47e-4 0.0013 0.0013 0.0019 2e-3 6.5e-4 -1.4e-5 0.0013-1.4e-5 2e-3 0 6.66e-4 6.47e-4 0.0013 0.0013 0.0019 2e-3 6.66e-4 6.47e-4 0.0013 0.0013 2e-3 2e-3 6.66e-4 6.47e-4 0.0013 0.0013 0.0019 2e-3 0.0019 8e-4 0.0039 0.0015 0.0059 2e-3 6.5e-4 -1.4e-5 0.0013-1.4e-5 2e-3 0 6.5e-4 -1.4e-5 0.0013-1.4e-5 0.0019 0 6.66e-4 6.47e-4 0.0013 0.0013 2e-3 2e-3 6.5e-4 -1.4e-5 0.0013-1.4e-5 2e-3 0 0.0019 1.28e-4 0.0039 1.28e-4 0.0059 0 6.66e-4 6.47e-4 0.0013 0.0013 2e-3 2e-3 6.5e-4 -1.4e-5 0.0013-1.4e-5 2e-3 0z" color="#000000" style="-inkscape-stroke:none"/><path d="m2 5e-6c-0.74969 0.0026937-2 0.92127-2 2v12c0 1.0986 0.90136 2 2 2h7.1809c0.06602 5.43e-4 0.11968-0.05312 0.11914-0.11914v-0.23633c5.09e-4 -0.35618-0.28836-0.64504-0.64453-0.64453h-6.6555c-0.55821 0-1-0.44179-1-1v-12c0-0.55821 0.44179-1 1-1h9c0.55821 0 1 0.44179 1 1v11.5c0 0.63634-0.36585 1.1346-0.86803 1.3632-0.325 0.14799-0.63197 0.42854-0.63197 0.78845v0.11958c0 0.12632 0.10267 0.22981 0.22839 0.21796 1.1877-0.11197 2.2716-1.0873 2.2716-2.4892v-11.5c0-1.0986-0.90136-2-2-2zm7.5305 15.91c-0.02491-7.47e-4 -0.04539 0.01884-0.04492 0.04297-4.71e-4 0.02412 0.02001 0.04372 0.04492 0.04297 0.02415-3.24e-4 0.04342-0.01959 0.04297-0.04297-1.6e-5 -6.51e-4 -1.6e-5 -0.0013 0-2e-3 -1.6e-5 -6.51e-4 -1.6e-5 -0.0013 0-2e-3 -1.6e-5 -6.51e-4 -1.6e-5 -0.0013 0-2e-3 -1.6e-5 -6.51e-4 -1.6e-5 -0.0013 0-2e-3 -6.73e-4 -6.31e-4 -0.0013-0.0013-2e-3 -2e-3 -1.6e-5 -6.51e-4 -1.6e-5 -0.0013 0-2e-3 -1.6e-5 -6.51e-4 -1.6e-5 -0.0013 0-2e-3 -6.73e-4 -6.31e-4 -0.0013-0.0013-0.0019-2e-3 -1.6e-5 -6.51e-4 -1.6e-5 -0.0013 0-2e-3 -6.73e-4 -6.31e-4 -0.0013-0.0013-2e-3 -2e-3 -1.6e-5 -6.51e-4 -1.6e-5 -0.0013 0-2e-3 -6.73e-4 -6.31e-4 -0.0013-0.0013-2e-3 -2e-3 -1.6e-5 -6.51e-4 -1.6e-5 -0.0013 0-2e-3 -6.73e-4 -6.31e-4 -0.0013-0.0013-0.0019-2e-3 -6.51e-4 1.4e-5 -0.0013 1.4e-5 -2e-3 0-1.6e-5 -6.51e-4 -1.6e-5 -0.0013 0-2e-3 -6.73e-4 -6.31e-4 -0.0013-0.0013-0.0019-2e-3 -6.73e-4 -6.31e-4 -0.0013-0.0013-2e-3 -2e-3 -6.51e-4 1.4e-5 -0.0013 1.4e-5 -0.0019 0-6.73e-4 -6.31e-4 -0.0013-0.0013-2e-3 -2e-3 -6.51e-4 1.4e-5 -0.0013 1.4e-5 -0.0019 0-6.73e-4 -6.31e-4 -0.0013-0.0013-2e-3 -2e-3 -6.51e-4 1.4e-5 -0.0013 1.4e-5 -2e-3 0-6.73e-4 -6.31e-4 -0.0013-0.0013-0.0019-2e-3 -6.51e-4 1.4e-5 -0.0013 1.4e-5 -2e-3 0-6.73e-4 -6.31e-4 -0.0013-0.0013-0.0019-2e-3 -6.51e-4 1.4e-5 -0.0013 1.4e-5 -2e-3 0-6.51e-4 1.4e-5 -0.0013 1.4e-5 -0.0019 0-6.51e-4 1.4e-5 -0.0013 1.4e-5 -2e-3 0-6.51e-4 1.4e-5 -0.0013 1.4e-5 -0.0019 0-6.73e-4 -6.31e-4 -0.0013-0.0013-2e-3 -2e-3 -6.51e-4 1.4e-5 -0.0013 1.4e-5 -2e-3 0z" color="#000000" style="-inkscape-stroke:none"/><path d="m14 0.093811v0.24562c0 0.36482 0.33108 0.64897 0.61462 0.86793 0.23548 0.18185 0.38538 0.46749 0.38538 0.79264v11.5c0 0.63634-0.36501 1.1347-0.86719 1.3633-0.325 0.14799-0.63281 0.42915-0.63281 0.78906v0.11914c0 0.12632 0.1028 0.22865 0.22852 0.2168 1.1877-0.11197 2.2715-1.0864 2.2715-2.4883v-11.5c0-1.0671-0.85046-1.9482-1.9061-1.9978-0.051825-0.0024353-0.093916 0.039798-0.093916 0.091609z" style="-inkscape-stroke:none"/></g></svg>
