<svg width="16" height="16" version="1.1" viewBox="0 0 16 16" xml:space="preserve" xmlns="http://www.w3.org/2000/svg"><path d="m9.207 2c-0.59046 0-1.1555 0.24864-1.5527 0.68555l-3.8008 4.1816c-0.58096 0.63905-0.58096 1.6266 0 2.2656l3.8008 4.1816c0.39719 0.4369 0.96228 0.68555 1.5527 0.68555h0.79297c0.88536 0 1.6417-0.58447 1.9023-1.3867 0.1058-0.32564-0.18165-0.61328-0.52539-0.61328h-0.20898c-0.09279 0-0.16666 0.0765-0.18164 0.16797-0.078072 0.47668-0.48521 0.83203-0.98633 0.83203h-0.79297c-0.30923 0-0.60449-0.13056-0.8125-0.35938l-3.8008-4.1797c-0.24007-0.26408-0.24007-0.6578 0-0.92188l3.8008-4.1797c0.20801-0.22881 0.50327-0.35938 0.8125-0.35938h0.79297c0.55821 0 1 0.4418 1 1v6.1758c-2.63e-4 0.4443 0.25087 0.85049 0.64844 1.0488l0.10547 0.05274c0.1132 0.057462 0.24705-0.025401 0.24609-0.15235v-7.125c0-1.0986-0.90136-2-2-2zm2.5801 9.0352c0.0019-1.66e-4 0.0039-1.66e-4 0.0059 0 6.5e-4 -1.8e-5 0.0013-1.8e-5 0.0019 0 6.5e-4 -1.8e-5 0.0013-1.8e-5 2e-3 0 6.5e-4 -1.8e-5 0.0013-1.8e-5 0.0019 0 6.77e-4 6.4e-4 0.0013 0.0013 2e-3 2e-3 6.5e-4 -1.8e-5 0.0013-1.8e-5 0.0019 0 6.5e-4 -1.8e-5 0.0013-1.8e-5 2e-3 0 6.5e-4 -1.8e-5 0.0013-1.8e-5 2e-3 0 6.77e-4 6.4e-4 0.0013 0.0013 0.0019 2e-3 6.77e-4 6.4e-4 0.0013 0.0013 2e-3 2e-3 6.5e-4 -1.8e-5 0.0013-1.8e-5 0.0019 0 6.77e-4 6.4e-4 0.0013 0.0013 2e-3 2e-3 6.77e-4 6.4e-4 0.0013 0.0013 0.0019 2e-3 6.77e-4 6.4e-4 0.0013 0.0013 2e-3 2e-3 6.77e-4 6.4e-4 0.0013 0.0013 0.0019 2e-3 6.77e-4 6.4e-4 0.0013 0.0013 2e-3 2e-3 1.9e-5 6.66e-4 1.9e-5 0.0013 0 2e-3 6.5e-4 -1.8e-5 0.0013-1.8e-5 2e-3 0 1.9e-5 6.66e-4 1.9e-5 0.0013 0 2e-3 1.9e-5 6.66e-4 1.9e-5 0.0013 0 2e-3 6.77e-4 6.4e-4 0.0013 0.0013 0.0019 2e-3 1.9e-5 6.66e-4 1.9e-5 0.0013 0 2e-3 1.9e-5 6.66e-4 1.9e-5 0.0013 0 2e-3 1.9e-5 6.66e-4 1.9e-5 0.0013 0 2e-3 6.77e-4 6.4e-4 0.0013 0.0013 2e-3 2e-3 1.9e-5 6.66e-4 1.9e-5 0.0013 0 2e-3 1.9e-5 6.66e-4 1.9e-5 0.0013 0 2e-3 3.15e-4 0.01955-0.01561 0.03547-0.03516 0.03516-0.01955 3.12e-4 -0.03547-0.01561-0.03516-0.03516-4.84e-4 -0.01743 0.01207-0.03249 0.0293-0.03516zm-0.67969 0.75977c-0.02713 2.77e-4 -0.04896 0.02472-0.04883 0.05469-1.32e-4 0.02997 0.02169 0.05441 0.04883 0.05469 0.02713-2.77e-4 0.04896-0.02472 0.04883-0.05469-1.1e-5 -6.67e-4 -1.1e-5 -0.0013 0-2e-3 1.1e-5 -6.67e-4 1.1e-5 -0.0013 0-2e-3 1.1e-5 -6.67e-4 1.1e-5 -0.0013 0-2e-3 1.1e-5 -6.67e-4 1.1e-5 -0.0013 0-2e-3 -1.1e-5 -6.67e-4 -1.1e-5 -0.0013 0-2e-3 -5.46e-4 -2e-3 -0.0012-4e-3 -2e-3 -0.0059-1.1e-5 -6.67e-4 -1.1e-5 -0.0013 0-2e-3 -1.1e-5 -6.67e-4 -1.1e-5 -0.0013 0-2e-3 -5.46e-4 -2e-3 -0.0012-4e-3 -0.0019-0.0059-6.66e-4 -6.47e-4 -0.0013-0.0013-2e-3 -2e-3 -6.66e-4 -6.47e-4 -0.0013-0.0013-0.0019-2e-3 -1.1e-5 -6.67e-4 -1.1e-5 -0.0013 0-2e-3 -6.66e-4 -6.47e-4 -0.0013-0.0013-2e-3 -2e-3 -6.66e-4 -6.47e-4 -0.0013-0.0013-2e-3 -2e-3 -6.66e-4 -6.47e-4 -0.0013-0.0013-0.0019-2e-3 -6.66e-4 -6.47e-4 -0.0013-0.0013-2e-3 -2e-3 -1.1e-5 -6.67e-4 -1.1e-5 -0.0013 0-2e-3 -6.66e-4 -6.47e-4 -0.0013-0.0013-0.0019-2e-3 -6.5e-4 1.4e-5 -0.0013 1.4e-5 -2e-3 0-6.66e-4 -6.47e-4 -0.0013-0.0013-0.0019-2e-3 -6.66e-4 -6.47e-4 -0.0013-0.0013-2e-3 -2e-3 -6.66e-4 -6.47e-4 -0.0013-0.0013-0.0019-2e-3 -0.0019-8e-4 -0.0039-0.0015-0.0059-2e-3 -6.5e-4 1.4e-5 -0.0013 1.4e-5 -2e-3 0-6.5e-4 1.4e-5 -0.0013 1.4e-5 -0.0019 0-6.66e-4 -6.47e-4 -0.0013-0.0013-2e-3 -2e-3 -6.5e-4 1.4e-5 -0.0013 1.4e-5 -2e-3 0-0.0019-1.28e-4 -0.0039-1.28e-4 -0.0059 0-6.66e-4 -6.47e-4 -0.0013-0.0013-2e-3 -2e-3 -6.5e-4 1.4e-5 -0.0013 1.4e-5 -2e-3 0z" color="#000000" fill="#786d7d" style="-inkscape-stroke:none"/></svg>
