<svg width="16" height="16" version="1.1" viewBox="0 0 16 16" xmlns="http://www.w3.org/2000/svg">
 <g fill="#786d7d">
  <path d="m3.002 2.8136v-0.711c0-0.50647 0.71553-1.1006 1.3884-1.1006h7.4233c0.65836 0 1.1884 0.53001 1.1884 1.1884v0.62327c0 0.65836-0.53001 1.1884-1.1884 1.1884h-7.7233c-0.65836 0-1.0884-0.53001-1.0884-1.1884z" opacity=".1383" stroke-linejoin="round"/>
  <path d="m2.002 12.301c0 0.48539 0.30559 0.89162 0.69336 1.0625 0.38778 0.17088 0.89367 0.1205 1.252-0.20703l0.74414-0.79297c0.09046-0.0827 0.18212-0.15618 0.27734-0.2207 0.09561-0.06479 0.19352-0.2022 0.21094-0.31641l0.076172-0.50586c0.02882-0.18895-0.1038-0.32859-0.28711-0.27539-0.47194 0.13696-0.78582 0.4289-0.95117 0.58008l-0.74609 0.79492c-0.11589 0.14602-0.26953 0.01661-0.26953-0.11914v-1.5c0-0.49629 0.20894-0.96892 0.57617-1.3027l3.9629-3.6035c0.26409-0.24008 0.65779-0.24008 0.92188 0l3.9629 3.6035c0.36723 0.33384 0.57617 0.80648 0.57617 1.3027v1.5c0 0.08936-0.036 0.12018-0.0957 0.14648-0.0597 0.02631-0.10789 0.03294-0.17383-0.02734l-2.6465-2.4199c-0.76827-0.70241-1.8086-0.79314-2.6289-0.43164-0.82033 0.3615-1.4551 1.1914-1.4551 2.2324v1.2051c0 1.093 0.89458 1.9895 2.0117 1.9922 0.74904 0.0018 1.3902-0.40564 1.7305-1.0039l0.00781 0.0039c0.35972-0.62233 0.35972-1.3894 0-2.0117-0.35924-0.62133-1.0323-0.98444-1.75-0.98438v1c0.36073-3.44e-4 0.70402 0.1722 0.88477 0.48438 0.14424 0.28254 0.15151 0.63148 0.033203 0.93555-0.00201 0.0052-0.00378 0.0105-0.00586 0.01563-0.1532 0.33383-0.48458 0.56149-0.89844 0.56055-0.57605-0.0013-1.0137-0.43877-1.0137-0.99219v-1.2051c0-0.64493 0.36711-1.0995 0.85938-1.3164 0.49226-0.21693 1.0748-0.18128 1.5508 0.25391l2.6445 2.418c0.35823 0.32753 0.86413 0.37791 1.252 0.20703 0.38777-0.17088 0.69336-0.57711 0.69336-1.0625v-1.5c0-0.77751-0.32899-1.52-0.9043-2.043l-3.9629-3.6035c-0.63905-0.58096-1.6266-0.58096-2.2656 0l-3.9629 3.6035c-0.57531 0.52301-0.9043 1.2655-0.9043 2.043z" style="-inkscape-stroke:none"/>
  <path d="m3.593 2.502h0.082329c0.12514 0 0.2219-0.10726 0.27493-0.21948 0.079391-0.16799 0.24896-0.28052 0.45165-0.28052 1.8333 0.0028 5.7668-0.0058 7.6 0.0039v0.7129c6e-6 0.1621-0.1211 0.2832-0.2832 0.2832h-7.9497c-0.20277 0-0.36714 0.16437-0.36714 0.36714 0.00184 0.35136 0.28816 0.6347 0.63951 0.63286h7.6773c0.70254 0 1.2832-0.58066 1.2832-1.2832v-0.71289c0-0.54821-0.4557-1.0039-1.0039-1.0039h-7.5961c-0.58381 0-1.0946 0.34132-1.3418 0.83356-0.16982 0.33803 0.15125 0.66644 0.53293 0.66644z" color="#000000" style="-inkscape-stroke:none"/>
 </g>
</svg>
