<svg width="16" height="16" version="1.1" xml:space="preserve" xmlns="http://www.w3.org/2000/svg"><path d="m6.4685 0.23583c-0.41697-0.0033784-0.9633 0.27719-1.2545 0.56837l-1.9417 1.7876c-2.2203 1.707-2.7374 4.8437-1.1836 7.1738 1.3922 2.0608 4.0527 2.9404 6.4277 1.9688 0.37113-0.152 0.48955-0.6014 0.28906-0.94922l-0.052734-0.09375c-0.027221-0.04681-0.0873-0.06318-0.13477-0.03711-2.0981 1.132-4.4988 0.42982-5.7539-1.4062-1.2874-1.9202-0.85918-4.5108 0.97656-5.916l2.1017-1.9179c0.37215-0.33959 0.76259-0.32457 1.13 0.010874l2.733 2.4949c1.3261 1.5101 1.4564 3.7291 0.31445 5.3828-0.38792 0.56136-0.4118 1.3675 0.11133 1.8906l4.6113 4.6094c0.08639 0.08683 0.22611 0.08683 0.3125 0l0.44922-0.44726c0.03051-0.02997 0.03051-0.0794 0-0.10938l-4.7129-4.7129c-0.16412-0.16412-0.16999-0.46432-0.0059-0.70117 1.3826-2.006 1.2263-4.6946-0.37891-6.5273-0.86892-0.80002-1.7599-1.5361-2.6113-2.3875-0.60503-0.60503-1.0557-0.67977-1.4269-0.68138zm2.5518 10.102c-0.04103 0.0038-0.072266 0.04201-0.072266 0.08398 0 0.04663 0.036339 0.08501 0.082031 0.08594 0.045693 0 0.075503-0.03932 0.082031-0.08594 0.00933-0.0718-0.035847-0.08864-0.091796-0.08398zm5.9492 5.2207c0.04801-2e-3 0.10468 0.04408 0.10352 0.07031 1e-3 0.04635-0.03567 0.08493-0.08203 0.08594-0.04663 0-0.09051-0.03838-0.08399-0.08594 0.0077-0.0507 0.03369-0.06911 0.0625-0.07031z" color="#000000" fill="#786d7d" style="-inkscape-stroke:none"/><path d="m8.8592 6.5425-1.2301-1.1181c-0.63905-0.58096-1.6266-0.58096-2.2656 0l-1.4761 1.3416a1.0854 1.0854 102.78 0 0-0.27512 1.2127 0.27486 0.27486 177.44 0 0 0.45016-0.020152l1.9729-1.7941c0.26408-0.24007 0.6578-0.24007 0.92188 0l2.0865 1.8973a0.089669 0.089669 167.73 0 0 0.14276-0.031056 1.3136 1.3136 77.598 0 0-0.32729-1.4883z" color="#000000" fill="#786d7d" style="-inkscape-stroke:none"/></svg>
