<svg xmlns="http://www.w3.org/2000/svg" xml:space="preserve" width="16" height="16"><path fill="none" stroke="#786d7d" stroke-linejoin="round" d="M8.5.639c-2.825 0-5.115 2.28-5.115 5.095 0 3.75 2.99 9.627 5.115 9.627 2.285 0 5.115-6.11 5.115-9.627C13.615 2.92 11.325.64 8.5.64zm0 2.861a2 2 0 0 1 2 2 2 2 0 0 1-2 2 2 2 0 0 1-2-2 2 2 0 0 1 2-2z"/><path fill="#786d7d" d="M8.5 7.5v2m-.5-2v1.37c0 .585.155.904.39 1.015.324.152.61-.247.61-.737V7.5zm.685 2.145c-.038.12-.175.037-.129-.048.098-.18.203-.189.129.048z" color="#000" style="-inkscape-stroke:none" transform="matrix(.99336 0 0 .98969 .056 .053)"/></svg>