<svg width="16" height="16" version="1.1" xml:space="preserve" xmlns="http://www.w3.org/2000/svg"><path d="m8 0.0097656c-4.4123-5.33e-6 -8 3.5877-8 8 0 3.4842 2.2311 6.454 5.3457 7.5488 0.00324 0.0013 0.0065 0.0026 0.00977 0.0039 2.4229 0.8052 4.6445-1.0562 4.6445-3.3418v-2.2207c0-1.0986-0.90136-2-2-2s-2 0.90136-2 2v2.2344c-3.2e-5 0.0033-3.2e-5 0.0065 0 0.0098 0.00744 0.42133 0.030379 0.83797 0.19531 1.1934l0.011719 0.02734c0.12207 0.26276 0.44487 0.36187 0.69336 0.21289h0.00195c0.22367-0.13401 0.3138-0.41275 0.21094-0.65234-0.00214-5e-3 -0.018637-0.04514-0.033203-0.08984-0.066382-0.20378-0.075434-0.44602-0.080075-0.70902v-2.2266c0-0.55821 0.44179-1 1-1s1 0.44179 1 1v2.2207c0 1.6536-1.4996 2.9948-3.3242 2.3926-2.7211-0.95767-4.6758-3.5471-4.6758-6.6035 0-3.8719 3.1281-7 7-7 3.8719 0 7 3.1281 7 7 0 3.0226-1.9103 5.5916-4.5859 6.5742-0.0415 0.01524-0.11646 0.03729-0.20047 0.0647-0.27246 0.0889-0.49991 0.38903-0.6882 0.83374-0.064858 0.15319-0.00467 0.27606 0.16211 0.26562 0.22625-0.01415 0.4766-0.04989 0.60156-0.08203 0.18728-0.04817 0.35733-0.10362 0.46875-0.14453 3.0609-1.1241 5.2422-4.0673 5.2422-7.5117 0-4.4123-3.5877-8-8-8zm0 3c-1.0986 2.7e-6 -2 0.90136-2 2 0 1.0986 0.90136 2 2 2 1.0986-2.6e-6 2-0.90136 2-2 0-1.0986-0.90136-2-2-2zm0 1c0.55821 1.4e-6 1 0.4418 1 1 0 0.5582-0.44179 1-1 1-0.55821-1.3e-6 -1-0.4418-1-1 0-0.5582 0.44179-1 1-1zm-1.3242 9.2246c0.00195-1.37e-4 0.00391-1.37e-4 0.00586 0 6.51e-4 -1.5e-5 0.0013-1.5e-5 0.00195 0 6.509e-4 -1.5e-5 0.0013-1.5e-5 0.00195 0 6.509e-4 -1.5e-5 0.0013-1.5e-5 0.00195 0 6.72e-4 6.29e-4 0.00132 0.0013 0.00195 2e-3 6.509e-4 -1.5e-5 0.0013-1.5e-5 0.00195 0 6.51e-4 -1.5e-5 0.0013-1.5e-5 0.00195 0 6.509e-4 -1.5e-5 0.0013-1.5e-5 0.00195 0 6.72e-4 6.29e-4 0.00132 0.0013 0.00195 2e-3 6.51e-4 -1.5e-5 0.0013-1.5e-5 0.00195 0 6.72e-4 6.29e-4 0.00132 0.0013 0.00195 2e-3 6.509e-4 -1.5e-5 0.0013-1.5e-5 0.00195 0 6.72e-4 6.3e-4 0.00132 0.0013 0.00195 2e-3 6.509e-4 -1.5e-5 0.0013-1.5e-5 0.00195 0 1.49e-5 6.51e-4 1.49e-5 0.0013 0 2e-3 6.72e-4 6.29e-4 0.00132 0.0013 0.00195 2e-3 6.72e-4 6.29e-4 0.00132 0.0013 0.00195 2e-3 6.509e-4 -1.5e-5 0.0013-1.5e-5 0.00195 0 1.49e-5 6.51e-4 1.49e-5 0.0013 0 2e-3 6.72e-4 6.29e-4 0.00132 0.0013 0.00195 2e-3 6.72e-4 6.29e-4 0.00132 0.0013 0.00195 2e-3 1.49e-5 6.51e-4 1.49e-5 0.0013 0 2e-3 6.72e-4 6.29e-4 0.00132 0.0013 0.00195 2e-3 1.49e-5 6.51e-4 1.49e-5 0.0013 0 2e-3 6.72e-4 6.29e-4 0.00132 0.0013 0.00195 2e-3 1.49e-5 6.51e-4 1.49e-5 0.0013 0 2e-3 1.49e-5 6.51e-4 1.49e-5 0.0013 0 2e-3 6.72e-4 6.29e-4 0.00132 0.0013 0.00195 2e-3 1.49e-5 6.51e-4 1.49e-5 0.0013 0 2e-3 1.49e-5 6.51e-4 1.49e-5 0.0013 0 2e-3 1.49e-5 6.51e-4 1.49e-5 0.0013 0 2e-3 1.49e-5 6.51e-4 1.49e-5 0.0013 0 2e-3 1.49e-5 6.51e-4 1.49e-5 0.0013 0 2e-3 3.301e-4 0.02322-0.017962 0.04238-0.041016 0.04297-0.023819 5.11e-4 -0.043308-0.01898-0.042969-0.04297-4.546e-4 -0.02181 0.015602-0.0404 0.037109-0.04297zm2.5874 2.3431c-0.042078 0.0063-0.072983 0.04309-0.072266 0.08594 7.8e-4 0.04629 0.03802 0.08352 0.083984 0.08399 0.045964-4.6e-4 0.083204-0.0377 0.083984-0.08399 4.567e-4 -0.01729-0.00431-0.03432-0.013672-0.04883-0.00236-0.0034-0.00497-0.0067-0.00781-0.0098-0.00186-2e-3 -0.00381-4e-3 -0.00586-0.0059-0.00535-0.0046-0.011258-0.0086-0.017578-0.01172-0.012055-0.0064-0.025452-0.0097-0.039063-0.0098-0.0039-2.72e-4 -0.00782-2.72e-4 -0.011719 0zm-0.2901 0.03585c-0.017153 0.0026-0.029696 0.01769-0.029297 0.03516-2.282e-4 0.01961 0.015688 0.03552 0.035156 0.03516 0.018703-7.13e-4 0.033433-0.01631 0.033203-0.03516-1.82e-5 -6.51e-4 -1.82e-5 -0.0013 0-2e-3 -1.82e-5 -6.51e-4 -1.82e-5 -0.0013 0-2e-3 -1.82e-5 -6.51e-4 -1.82e-5 -0.0013 0-2e-3 -1.82e-5 -6.51e-4 -1.82e-5 -0.0013 0-2e-3 -1.82e-5 -6.51e-4 -1.82e-5 -0.0013 0-2e-3 -6.766e-4 -6.25e-4 -0.00133-0.0013-0.00195-2e-3 -1.82e-5 -6.51e-4 -1.82e-5 -0.0013 0-2e-3 -1.82e-5 -6.51e-4 -1.82e-5 -0.0013 0-2e-3 -6.509e-4 1.9e-5 -0.0013 1.9e-5 -0.00195 0-1.82e-5 -6.51e-4 -1.82e-5 -0.0013 0-2e-3 -6.766e-4 -6.25e-4 -0.00133-0.0013-0.00195-2e-3 -1.82e-5 -6.51e-4 -1.82e-5 -0.0013 0-2e-3 -6.509e-4 1.9e-5 -0.0013 1.9e-5 -0.00195 0-1.82e-5 -6.51e-4 -1.82e-5 -0.0013 0-2e-3 -6.766e-4 -6.25e-4 -0.00133-0.0013-0.00195-2e-3 -6.766e-4 -6.25e-4 -0.00133-0.0013-0.00195-2e-3 -6.509e-4 1.9e-5 -0.0013 1.9e-5 -0.00195 0-1.82e-5 -6.51e-4 -1.82e-5 -0.0013 0-2e-3 -6.509e-4 1.9e-5 -0.0013 1.9e-5 -0.00195 0-6.766e-4 -6.25e-4 -0.00133-0.0013-0.00195-2e-3 -6.509e-4 1.9e-5 -0.0013 1.9e-5 -0.00195 0-6.509e-4 1.9e-5 -0.0013 1.9e-5 -0.00195 0-1.82e-5 -6.51e-4 -1.82e-5 -0.0013 0-2e-3 -6.509e-4 1.9e-5 -0.0013 1.9e-5 -0.00195 0-6.509e-4 1.9e-5 -0.0013 1.9e-5 -0.00195 0-6.509e-4 1.9e-5 -0.0013 1.9e-5 -0.00195 0-6.766e-4 -6.25e-4 -0.00133-0.0013-0.00195-2e-3 -6.509e-4 1.9e-5 -0.0013 1.9e-5 -0.00195 0-6.509e-4 1.9e-5 -0.0013 1.9e-5 -0.00195 0-0.00195-1.67e-4 -0.00391-1.67e-4 -0.00586 0z" color="#000000" fill="#786d7d" stroke-linejoin="round" style="-inkscape-stroke:none"/></svg>
