<svg xmlns="http://www.w3.org/2000/svg" xml:space="preserve" width="16" height="16"><path fill="#786d7d" d="M8.5-.002a5.676 5.676 0 0 0-5.668 5.668c.003 1.023.253 2.065.838 2.947l1.713 2.588c.056.086.172.11.258.053l.087-.059a.709.709 0 0 0 .2-.982L4.504 8.06c-.456-.688-.669-1.533-.672-2.394v-.002A4.661 4.661 0 0 1 8.5.998a4.66 4.66 0 0 1 4.668 4.666c-.002.882-.203 1.752-.676 2.422l-2.105 2.978A2.113 2.113 0 0 0 10 12.283v1.715c0 .558-.442 1-1 1H8c-.558 0-1-.442-1-1v-.545c0-.232.26-.455.455-.455h1.227c.163 0 .258-.147.25-.31a.539.539 0 0 0-.043-.186c-.117-.278-.326-.504-.627-.504h-.807c-.687 0-1.455.768-1.455 1.455v.545c0 1.098.9 2 1.998 2H9c1.099 0 2-.902 2-2v-1.715c0-.23.07-.453.203-.64l2.106-2.98c.63-.89.856-1.968.859-2.997v-.002A5.675 5.675 0 0 0 8.5-.002zm-.043 3.816a.69.69 0 0 0-.605.44.69.69 0 0 0 .392.892.69.69 0 0 0 .895-.392.69.69 0 0 0-.393-.893.69.69 0 0 0-.289-.047zm.09 3.196C8.282 7.015 8 7.132 8 7.3V10c0 .156.45.47.746.342.15-.066.254-.359.254-.614V7.301c0-.213-.22-.296-.453-.291zm-3.03 3.97c.024-.004.049 0 .061.014.027.027.005.1-.033.107-.038.008-.09-.05-.078-.087.006-.017.028-.03.05-.034zm3.41 1.008c-.026.001-.052.013-.062.031-.018.038.031.107.07.104.04-.003.094-.052.055-.107-.009-.02-.035-.029-.062-.028z"/></svg>