<svg width="16" height="16" version="1.1" viewBox="0 0 16 16" xml:space="preserve" xmlns="http://www.w3.org/2000/svg"><path d="m12.668 0.71094c-0.09413-0.002569-0.18735 0.013838-0.26953 0.048828-0.21916 0.093306-0.39844 0.33395-0.39844 0.60156v0.63867h-1c-1.6509 0-3 1.3491-3 3v1h-7a1 1 135 0 0-1 1v5.5c0 1.3748 1.1252 2.5 2.5 2.5h11c1.3748 0 2.5-1.1252 2.5-2.5v-5.5a1 1 45 0 0-1-1h-1.7793l1.9238-1.8496c0.36449-0.35047 0.36449-0.95031 0-1.3008l-2.0391-1.9609c-0.12057-0.11593-0.28062-0.17345-0.4375-0.17773zm0.33203 1.4629 1.3789 1.3262-1.3789 1.3262c0-0.45628-0.36989-0.82617-0.82617-0.82617h-1.1738c-0.54636 0-1 0.45364-1 1v1c0 0.55228 0.44772 1 1 1h4v5.5c0 0.15644-0.02288 0.30596-0.06641 0.44727-0.18861 0.61231-0.75568 1.0527-1.4336 1.0527h-11c-0.83435 0-1.5-0.66565-1.5-1.5v-5.5h7c0.55228 0 1-0.44772 1-1v-1c0-1.1105 0.88951-2 2-2h1.1738c0.45628 1e-7 0.82617-0.36989 0.82617-0.82617zm-2 2.8262h1v0.63867c0 0.13228 0.044464 0.25676 0.11523 0.36133h-1.1152zm-8.5039 3c-0.27385 3.194e-4 -0.49577 0.22224-0.49609 0.49609v0.00781c3.181e-4 0.27385 0.22224 0.49578 0.49609 0.4961h0.00781c0.27385-3.181e-4 0.49578-0.22224 0.4961-0.49609v-0.00781c-3.181e-4 -0.27385-0.22224-0.49578-0.49609-0.4961zm2 0c-0.27385 3.194e-4 -0.49577 0.22224-0.49609 0.49609v0.00781c3.181e-4 0.27385 0.22224 0.49578 0.49609 0.4961h1.0078c0.27385-3.194e-4 0.49577-0.22224 0.49609-0.49609v-0.00781c-3.181e-4 -0.27385-0.22224-0.49578-0.49609-0.4961zm3 0c-0.27385 3.194e-4 -0.49577 0.22224-0.49609 0.49609v0.00781c3.181e-4 0.27385 0.22224 0.49578 0.49609 0.4961h1.0078c0.27385-3.194e-4 0.49577-0.22224 0.49609-0.49609v-0.00781c-3.181e-4 -0.27385-0.22224-0.49578-0.49609-0.4961zm3 0c-0.27385 3.193e-4 -0.49578 0.22224-0.49609 0.49609v0.00781c3.18e-4 0.27385 0.22224 0.49578 0.49609 0.4961h1.0078c0.27385-3.193e-4 0.49578-0.22224 0.49609-0.49609v-0.00781c-3.18e-4 -0.27385-0.22224-0.49578-0.49609-0.4961zm3 0c-0.27385 3.193e-4 -0.49578 0.22224-0.49609 0.49609v0.00781c3.18e-4 0.27385 0.22224 0.49578 0.49609 0.4961h0.0078c0.27386-3.127e-4 0.49579-0.22224 0.49611-0.49609v-0.00781c-3.18e-4 -0.27385-0.22224-0.49578-0.49609-0.4961zm-11 2c-0.27385 3.19e-4 -0.49577 0.22224-0.49609 0.49609v0.0078c3.127e-4 0.27386 0.22224 0.49579 0.49609 0.49611h1.0078c0.27385-3.19e-4 0.49577-0.22224 0.49609-0.49609v-0.0078c-3.127e-4 -0.27386-0.22224-0.49579-0.49609-0.49611zm3 0c-0.27385 3.19e-4 -0.49577 0.22224-0.49609 0.49609v0.0078c3.127e-4 0.27386 0.22224 0.49579 0.49609 0.49611h1.0078c0.27385-3.19e-4 0.49577-0.22224 0.49609-0.49609v-0.0078c-3.127e-4 -0.27386-0.22224-0.49579-0.49609-0.49611zm3 0c-0.27385 3.19e-4 -0.49577 0.22224-0.49609 0.49609v0.0078c3.127e-4 0.27386 0.22224 0.49579 0.49609 0.49611h1.0078c0.27385-3.19e-4 0.49577-0.22224 0.49609-0.49609v-0.0078c-3.127e-4 -0.27386-0.22224-0.49579-0.49609-0.49611zm3 0c-0.27385 3.19e-4 -0.49578 0.22224-0.49609 0.49609v0.0078c3.13e-4 0.27386 0.22224 0.49579 0.49609 0.49611h0.0078c0.27386-3.13e-4 0.49579-0.22224 0.49611-0.49609v-0.0078c-3.13e-4 -0.27386-0.22224-0.49579-0.49609-0.49611zm2 0c-0.27385 3.19e-4 -0.49578 0.22224-0.49609 0.49609v0.0078c3.13e-4 0.27386 0.22224 0.49579 0.49609 0.49611h0.0078c0.27386-3.13e-4 0.49579-0.22224 0.49611-0.49609v-0.0078c-3.13e-4 -0.27386-0.22224-0.49579-0.49609-0.49611zm-11 2c-0.27385 3.19e-4 -0.49577 0.22224-0.49609 0.49609v0.0078c3.127e-4 0.27386 0.22224 0.49579 0.49609 0.49611h1.0078c0.27385-3.19e-4 0.49577-0.22224 0.49609-0.49609v-0.0078c-3.127e-4 -0.27386-0.22224-0.49579-0.49609-0.49611zm3 0c-0.27385 3.19e-4 -0.49577 0.22224-0.49609 0.49609v0.0078c3.127e-4 0.27386 0.22224 0.49579 0.49609 0.49611h4.0078c0.27385-3.19e-4 0.49577-0.22224 0.49609-0.49609v-0.0078c-3.127e-4 -0.27386-0.22224-0.49579-0.49609-0.49611zm6 0c-0.27385 3.19e-4 -0.49578 0.22224-0.49609 0.49609v0.0078c3.13e-4 0.27386 0.22224 0.49579 0.49609 0.49611h0.0078c0.27386-3.13e-4 0.49579-0.22224 0.49611-0.49609v-0.0078c-3.13e-4 -0.27386-0.22224-0.49579-0.49609-0.49611zm2 0c-0.27385 3.19e-4 -0.49578 0.22224-0.49609 0.49609v0.0078c3.13e-4 0.27386 0.22224 0.49579 0.49609 0.49611h0.0078c0.27386-3.13e-4 0.49579-0.22224 0.49611-0.49609v-0.0078c-3.13e-4 -0.27386-0.22224-0.49579-0.49609-0.49611z" color="#000000" fill="#786d7d" style="-inkscape-stroke:none"/></svg>
