<svg width="16" height="16" version="1.1" xml:space="preserve" xmlns="http://www.w3.org/2000/svg"><path d="m8 0.0097656c-4.4123-5.33e-6 -8 3.5877-8 8 0 2.0442 0.76934 3.9109 2.0332 5.3262l-0.00195 2e-3c0.00882 0.0096 0.018504 0.01779 0.027344 0.02734 1.3509 1.4597 2.8939 2.2891 4.8887 2.543 1.0451 0.13298 1.9211-0.6778 2.0392-1.6734 0.014928-0.12581-0.089218-0.229-0.21598-0.229h-0.56848c-0.11156 0-0.19986 0.09142-0.22086 0.20081-0.086469 0.4503-0.45989 0.76624-0.90691 0.70935-1.8098-0.23035-3.0726-0.90885-4.3066-2.252-3.237e-4 -3.52e-4 3.238e-4 -0.0016 0-2e-3h0.00195c-1.1008-1.2353-1.7695-2.8635-1.7695-4.6523 0-3.8719 3.1281-7 7-7 3.8719 0 7 3.1281 7 7 0 3.0226-1.9103 5.5916-4.5859 6.5742-0.0415 0.01524-0.11716 0.03704-0.20117 0.06445-0.27246 0.0889-0.49921 0.38927-0.6875 0.83398-0.064858 0.15319-0.00467 0.27606 0.16211 0.26562 0.22625-0.01415 0.4766-0.04989 0.60156-0.08203 0.18728-0.04817 0.35733-0.10362 0.46875-0.14453 3.0609-1.1241 5.2422-4.0673 5.2422-7.5117 0-4.4123-3.5877-8-8-8zm0.5 2.9648c-0.85286 0-1.7057 0.32484-2.3535 0.97266-0.62058 0.62058-0.94656 1.4301-0.97288 2.2452-0.00193 0.059814 0.046785 0.10835 0.10664 0.10835h0.40085c0.27105 0 0.48551-0.22256 0.54153-0.48726 0.089825-0.4244 0.29924-0.82757 0.6309-1.1592 0.91349-0.91349 2.3795-0.91349 3.293 0 0.91349 0.91349 0.91349 2.3795 0 3.293l-1.5 1.5c-0.33422 0.33422-0.55031 0.76489-0.62104 1.2265-0.028023 0.18288 0.12469 0.33402 0.30988 0.33402h0.30919c0.19634 0 0.35065-0.16318 0.40741-0.35039 0.057073-0.18824 0.15985-0.36138 0.3016-0.50313l1.5-1.5c1.2956-1.2956 1.2956-3.4114 0-4.707-0.64782-0.64782-1.5007-0.97266-2.3535-0.97266zm-0.5 9.4114v0.23002a0.38596 0.38596 45 0 0 0.38596 0.38596h0.22807a0.38596 0.38596 135 0 0 0.38596-0.38596v-0.23002a0.38596 0.38596 45 0 0-0.38596-0.38596h-0.22807a0.38596 0.38596 135 0 0-0.38596 0.38596zm1.2637 3.1922c-0.042078 0.0063-0.072983 0.04309-0.072266 0.08594 7.8e-4 0.04629 0.038021 0.08352 0.083984 0.08399 0.045964-4.6e-4 0.083204-0.03769 0.083984-0.08399 4.567e-4 -0.01729-0.00431-0.03432-0.013672-0.04883-0.00236-0.0034-0.00497-0.0067-0.00781-0.0098-0.00186-2e-3 -0.00381-4e-3 -0.00586-0.0059-0.00535-0.0046-0.011258-0.0086-0.017578-0.01172-0.012055-0.0064-0.025451-0.0097-0.039063-0.0098-0.0039-2.72e-4 -0.00782-2.72e-4 -0.011719 0zm-0.29102 0.03516c-0.017153 0.0026-0.029696 0.01769-0.029297 0.03516-2.282e-4 0.01961 0.015688 0.03552 0.035156 0.03516 0.018703-7.13e-4 0.033433-0.01631 0.033203-0.03516v-0.01l-0.00195-2e-3v-4e-3h-0.00195v-2e-3l-0.00195-2e-3v-2e-3h-0.00195v-2e-3l-0.00195-2e-3 -0.0019682-0.001351h-0.00195v-2e-3h-0.00195l-0.00195-2e-3h-0.0039v-2e-3h-0.00585l-0.00195-2e-3h-0.0039c-0.00195-1.67e-4 -0.00391-1.67e-4 -0.00586 0z" fill="#786d7d" style="-inkscape-stroke:none"/></svg>
