<svg width="16" height="16" version="1.1" xml:space="preserve" xmlns="http://www.w3.org/2000/svg"><path d="M8.5-.002a5.676 5.676 0 0 0-5.668 5.668c.003 1.023.253 2.064.838 2.947l1.713 2.588c.056.086.172.11.257.053l.089-.06a.709.709 0 0 0 .199-.982L4.504 8.06c-.456-.688-.669-1.533-.672-2.394v-.002A4.661 4.661 0 0 1 8.5.998a4.66 4.66 0 0 1 4.668 4.666c-.002.882-.203 1.752-.676 2.421l-2.105 2.979A2.113 2.113 0 0 0 10 12.283v1.715c0 .558-.442 1-1 1H8c-.558 0-1-.443-1-1v-.545c0-.232.26-.455.455-.455h1.227c.163 0 .257-.148.25-.311a.54.54 0 0 0-.044-.186c-.117-.277-.325-.503-.627-.504h-.806c-.688 0-1.455.768-1.455 1.456v.545c0 1.098.9 2 1.998 2H9c1.098 0 2-.902 2-2v-1.715c0-.23.07-.453.203-.64l2.105-2.98c.63-.89.857-1.968.86-2.997v-.002A5.675 5.675 0 0 0 8.5-.002zM5.58 10.995c.026.026.003.098-.035.107-.038.007-.09-.05-.078-.088.012-.034.086-.047.11-.019zm3.285 1.026c-.019.037.03.104.07.102.04-.003.093-.051.055-.107-.019-.038-.106-.034-.125.003z" fill="#786d7d" style="-inkscape-stroke:none"/><path d="m6 14a2 2 45 0 0 2 2h1a2 2 135 0 0 2-2v-2h-3a2 2 135 0 0-2 2z" fill="#786d7d" fill-opacity=".15" style="paint-order:fill markers stroke"/></svg>
