<svg width="16" height="16" version="1.1" viewBox="0 0 16 16" xml:space="preserve" xmlns="http://www.w3.org/2000/svg"><path d="m7.0449 0.83594c-2.0808 1.1e-7 -3.7773 1.6985-3.7773 3.7793 0 0.64449 0.23234 1.3841 0.50586 1.9785 0.18506 0.40218 0.6681 0.51536 1.0176 0.2832 0.11006-0.073114 0.13952-0.22133 0.074219-0.33594-0.27553-0.4836-0.59766-1.2648-0.59766-1.9258 0-1.5403 1.237-2.7793 2.7773-2.7793 1.3365-3e-7 2.4446 0.93253 2.7148 2.1855 0.00783-0.00189 0.011866-0.00287 0.035156-0.00586 0.0078-7.408e-4 0.015618-0.00139 0.023437-0.00195 0.14553-0.015371 0.29416-0.027721 0.44727-0.033203 0.16823-0.00606 0.33471-0.00314 0.50195 0.00391-0.30259-1.7818-1.8572-3.1484-3.7227-3.1484zm-2.0254 6.1504c-0.015783 0.00365-0.03035 0.011585-0.041016 0.023437-0.017589 0.019419-0.022779 0.045396-0.017578 0.070312 0.019381-0.031294 0.038654-0.062727 0.058594-0.09375zm-0.68945 1.4258c-1.8455 0.54414-3.3525 1.5923-4.0215 3.0273-0.2252 0.48309-0.30737 1.0889-0.30859 1.5586v0.001953c-0.002844 1.0977 0.8965 2 1.9941 2h3.791c-0.2945-0.30933-0.55407-0.64503-0.7793-1h-3.0117c-0.55633-1e-6 -0.99558-0.44172-0.99414-0.99805 7.86e-4 -0.30343 0.11352-0.92328 0.21484-1.1406 0.5031-1.0792 1.5231-1.8344 2.8379-2.3027 0.05636-0.38518 0.14888-0.76933 0.27734-1.1465z" fill="#786d7d" style="-inkscape-stroke:none"/><g fill="#786d7d"><path d="m7.0449 1.8359c-1.5403 1e-7 -2.7773 1.239-2.7773 2.7793 0 0.66094 0.32212 1.4422 0.59766 1.9258 0.0653 0.11461 0.035841 0.26282-0.074219 0.33594-0.29211 0.19405-0.67755 0.14625-0.9043-0.10938 0.30605 0.46773 0.46365 0.69641 0.70703 0.99414 0.42201-0.9046 1.0614-1.7384 1.8906-2.3887 0.35016-0.2746 0.79045-0.22691 1.1719-0.037109 0.49185-0.64686 1.1339-1.1602 1.9746-1.293h0.00195l0.087891-0.013672 0.019531-0.00391h0.00195c0.00361-6.885e-4 0.013624-0.00295 0.017578-0.00391-0.27028-1.253-1.3784-2.1855-2.7148-2.1855zm-3.1582 4.9316c-0.040277-0.061553-0.066539-0.10216-0.11328-0.17383 0.030372 0.065997 0.068768 0.12364 0.11328 0.17383zm0.16602 2.791c-1.3148 0.46834-2.3348 1.2235-2.8379 2.3027-0.10133 0.21736-0.21406 0.83722-0.21484 1.1406-0.001441 0.55633 0.43781 0.99805 0.99414 0.99805h3.0117c-0.83125-1.3101-1.1803-2.8891-0.95312-4.4414z" opacity=".16"/><path d="m8.5 7v6" color="#000000" style="-inkscape-stroke:none"/></g><g transform="matrix(0 -1 -1 0 19.001 19)" fill="#821313"><path d="m13.996 8.6995c-0.0045 0.12568-0.01354 0.25153-0.02683 0.37735-1e-3 0.00778-0.0022 0.015531-0.0036 0.02325l-0.01788 0.11088c-0.1483 0.94243-0.89918 1.6845-1.8416 1.8331l-0.06796 0.01073c-0.886 0.13972-1.696-0.14385-2.3303-0.77811l-0.069748-0.06975-1.141-1.1535-1.7509 1.7491c-0.13932 0.13913-0.365 0.13913-0.50433 0l-0.11788-0.1161c-0.10385-0.10365-0.10385-0.27191 0-0.37557l1.8134-1.8134-1.7884-1.7884c-0.11411-0.1138-0.11776-0.39684-0.01073-0.51491 0.14203-0.14272 0.47303-0.14272 0.61506 0l1.7437 1.7437 1.8993-1.8993c0.02691-0.02731 0.0636-0.042758 0.10194-0.042922 0.03834 1.638e-4 0.07503 0.015612 0.10194 0.042922l0.13577 0.13934c0.1763 0.17631 0.1763 0.46216 0 0.63846l-1.6811 1.6811 1.1482 1.1446 0.06975 0.069748c0.42778 0.42777 1.0247 0.53418 1.6222 0.43995l0.06975-0.01252c0.55357-0.08729 0.99258-0.51766 1.0797-1.0713l0.01431-0.092999c0.17478-1.6744-0.59584-3.3549-2.0669-4.3118-1.8323-1.1919-4.2437-0.92504-5.7712 0.63846s-1.7368 3.9797-0.50254 5.7837c1.2343 1.8042 3.5657 2.4895 5.5727 1.6274 0.48379-0.20779 0.95912-0.52006 1.3659-0.90521 0.30023-0.28424 0.76767-0.35615 1.0986-0.10752l0.04704 0.03533c0.04802 0.03607 0.05779 0.10432 0.02073 0.15158-0.58084 0.74067-1.3532 1.3151-2.1711 1.6664-2.4058 1.0333-5.2129 0.20847-6.6904-1.9511-1.4776-2.1597-1.2242-5.069 0.60448-6.9408 1.8287-1.8718 4.7329-2.1942 6.9265-0.76723 1.6528 1.0752 2.5712 2.9202 2.5033 4.8055z" style="-inkscape-stroke:none"/></g></svg>
