<svg width="16" height="16" version="1.1" viewBox="0 0 16 16" xmlns="http://www.w3.org/2000/svg">
 <path d="m7.9513 0.83594c2.0808 1.1e-7 3.7773 1.6985 3.7773 3.7793 0 0.64449-0.23234 1.3841-0.50586 1.9785-0.18506 0.40218-0.66812 0.51536-1.0176 0.2832-0.11006-0.073114-0.13952-0.22133-0.07422-0.33594 0.27553-0.4836 0.59766-1.2648 0.59766-1.9258 0-1.5403-1.237-2.7793-2.7773-2.7793-1.5403-3e-7 -2.7793 1.239-2.7793 2.7793s1.2398 3.3379 2.7793 3.377c2.9973 0.076117 5.7594 1.3517 6.7363 3.4473 0.2252 0.48309 0.30737 1.0889 0.30859 1.5586v2e-3c0.0028 1.0977-0.89646 2-1.9941 2h-10.002c-1.0987 4.1e-5 -2-0.90133-2-2 2.4e-5 -0.47826 0.091046-1.0826 0.33008-1.5645 0.65899-1.3283 1.7034-1.9565 2.9883-2.5449 0.33576-0.15376 0.731 0.00341 0.87891 0.3418l0.00195 0.00586c0.071736 0.16412-0.00231 0.35434-0.16602 0.42578-1.2174 0.53132-2.1998 0.99369-2.8066 2.2168-0.10444 0.21052-0.22655 0.8242-0.22656 1.1191-7e-6 0.55821 0.44179 1 1 1h10.002c0.55633 0 0.99558-0.44172 0.99414-0.99805-7.86e-4 -0.30343-0.11352-0.92326-0.21484-1.1406-0.84201-1.8062-3.1276-2.7076-5.8301-2.8691-2.0806 4.575e-4 -3.7793-2.2962-3.7793-4.377s1.6985-3.7793 3.7793-3.7793zm2.0156 6.1484a0.082094 0.088621 48.737 0 1 0.050781 0.025391 0.082094 0.088621 48.737 0 1-0.01172 0.12109 0.082094 0.088621 48.737 0 1-0.12109-0.00391 0.082094 0.088621 48.737 0 1-0.00977-0.013672 0.082094 0.088621 48.737 0 1 0-0.080078 0.082094 0.088621 48.737 0 1 0.013672-0.017578 0.082094 0.088621 48.737 0 1 0.00586-0.00586 0.082094 0.088621 48.737 0 0 0.00195-0.00195 0.082094 0.088621 48.737 0 1 0.070312-0.023438zm-4.9805 2.3945a0.082094 0.088621 48.737 0 0-0.068359 0.023438 0.082094 0.088621 48.737 0 0-0.021484 0.025391 0.082094 0.088621 48.737 0 0 0 0.080078 0.082094 0.088621 48.737 0 0 0.00195 0.00195 0.082094 0.088621 48.737 0 0 0.00391 0.00586 0.082094 0.088621 48.737 0 0 0.00391 0.00586 0.082094 0.088621 48.737 0 0 0.12109 0.00391 0.082094 0.088621 48.737 0 0 0.011719-0.12109 0.082094 0.088621 48.737 0 0-0.052735-0.025391z" color="#000000" fill="#786d7d" opacity=".22" stroke-linejoin="round" style="-inkscape-stroke:none"/>
 <path d="m7.9512 0.83594c-2.0808 0-3.7793 1.6985-3.7793 3.7793 0 0.027172 0.0033299 0.054792 0.0039062 0.082031l1.2559-1.2559c0.27519-0.59247 0.7534-1.0682 1.3457-1.3438l1.2559-1.2578c-0.027582-5.9984e-4 -0.054309-0.0039062-0.082031-0.0039062zm1.2734 0.22656-0.81445 0.81445c0.71973 0.11871 1.3411 0.51086 1.7598 1.0684l0.71094-0.71094c-0.43059-0.52877-1.0034-0.93637-1.6562-1.1719zm2.1914 2.0508-0.7832 0.7832c0.06074 0.22934 0.095704 0.46968 0.095704 0.71875 0 0.661-0.32213 1.4422-0.59766 1.9258-0.0653 0.11461-0.035841 0.26282 0.074219 0.33594 0.06013 0.039944 0.12557 0.064199 0.19141 0.083984l1.1172-1.1172c0.12904-0.40855 0.21484-0.83625 0.21484-1.2285 0-0.53321-0.11178-1.0411-0.3125-1.502zm-6.2051 1.9629-0.83008 0.83008c0.20702 0.66274 0.55962 1.2935 1.0176 1.8105l0.70703-0.70703c-0.46728-0.54235-0.79109-1.2424-0.89453-1.9336zm4.7559 1.9082a0.082094 0.088621 48.737 0 0-0.070312 0.023438 0.082094 0.088621 48.737 0 0-0.0019532 0.0019531 0.082094 0.088621 48.737 0 0-0.0058593 0.0058594 0.082094 0.088621 48.737 0 0-0.013672 0.017578 0.082094 0.088621 48.737 0 0 0 0.080078 0.082094 0.088621 48.737 0 0 0.0097656 0.013672 0.082094 0.088621 48.737 0 0 0.12109 0.0039063 0.082094 0.088621 48.737 0 0 0.011719-0.12109 0.082094 0.088621 48.737 0 0-0.050781-0.025391zm-3.1016 0.67969-0.72461 0.72461c0.53812 0.37661 1.1557 0.60366 1.8105 0.60352 0.12946 0.0077362 0.25734 0.018147 0.38477 0.029297l0.91602-0.91602c-0.42584-0.061911-0.85983-0.10208-1.3008-0.11328-0.38487-0.009775-0.75126-0.13003-1.084-0.32812-4.633e-4 -2.758e-4 -0.00149 2.761e-4 -0.0019531 0zm3.5605 0.68164-0.84766 0.84766c0.78633 0.15122 1.5095 0.37973 2.1367 0.69141l0.72852-0.72852c-0.60448-0.34363-1.2868-0.61534-2.0176-0.81055zm-6.2871 0.63086c-1.2014 0.56536-2.1811 1.1941-2.8086 2.459-0.085264 0.1719-0.15099 0.35901-0.20117 0.55078l3.0098-3.0098zm1.082 0.33203-0.16406 0.16406a0.082094 0.088621 48.737 0 1-0.029297 0.052734 0.082094 0.088621 48.737 0 1-0.037109 0.013672l-0.25781 0.25781c0.099299-0.044352 0.19805-0.087977 0.30078-0.13281 0.14065-0.061376 0.2148-0.21062 0.1875-0.35547zm8.0703 0.41406-0.69922 0.69922c0.51741 0.39388 0.92501 0.8722 1.1895 1.4395 0.01734 0.037197 0.035344 0.089313 0.052734 0.14648l0.75781-0.75781c-0.30679-0.57836-0.75107-1.0906-1.3008-1.5273zm1.6465 2.5957-0.99219 0.99219c-0.096893 0.30556-0.33306 0.54193-0.63867 0.63867l-1.0508 1.0508h0.74609c1.0976 0 1.9969-0.9023 1.9941-2v-0.001953c-5.39e-4 -0.20738-0.021152-0.44152-0.058594-0.67969zm-12.873 0.14648-1.0059 1.0059c0.16922 0.6921 0.70128 1.2464 1.3809 1.4473l0.91797-0.91797h-0.35742c-0.55821 0-1-0.44179-1-1 4.6e-6 -0.13447 0.026924-0.33656 0.064453-0.53516zm2.707 1.5352-1 1h2.8281l1-1h-2.8281zm4.2422 0-1 1h2.8281l1-1h-2.8281z" fill="#786d7d" opacity=".7" style="-inkscape-stroke:none"/>
</svg>
