<svg width="16" height="16" version="1.1" viewBox="0 0 16 16" xml:space="preserve" xmlns="http://www.w3.org/2000/svg"><path d="m7.9512 0.83594c-2.0808 0-3.7793 1.6985-3.7793 3.7793s1.6987 4.3774 3.7793 4.377c0.20051 0.011982 0.3983 0.028589 0.59375 0.048828 0.29506-0.34346 0.64046-0.64248 1.0234-0.88672-0.52488-0.092593-1.0668-0.14813-1.6172-0.16211-1.5395-0.0391-2.7793-1.8367-2.7793-3.377s1.239-2.7793 2.7793-2.7793 2.7773 1.239 2.7773 2.7793c0 0.661-0.32213 1.4422-0.59766 1.9258-0.0653 0.11461-0.035841 0.26282 0.074219 0.33594 0.34948 0.23216 0.8325 0.11898 1.0176-0.2832 0.27352-0.5944 0.50586-1.334 0.50586-1.9785 0-2.0808-1.6965-3.7793-3.7773-3.7793zm2.0156 6.1484c-0.025006-0.00265-0.050756 0.0059405-0.070312 0.023438l-0.0019532 0.0019531c-0.0020399 0.00187-0.0039893 0.0038194-0.0058593 0.0058594-0.00525 0.00532-0.0098399 0.011226-0.013672 0.017578-0.013578 0.026027-0.013578 0.056086 0 0.080078 0.00275 0.00491 0.0060156 0.0094899 0.0097656 0.013672 0.029725 0.03452 0.084075 0.036269 0.12109 0.0039063 0.03721-0.032606 0.042489-0.087128 0.011719-0.12109-0.01292-0.014359-0.030902-0.02335-0.050781-0.025391zm-5.3906 1.8477c-0.086581 0.0016-0.17387 0.020154-0.25781 0.058594-1.2849 0.5884-2.3293 1.2166-2.9883 2.5449-0.23903 0.4819-0.33005 1.0862-0.33008 1.5645 0 1.0987 0.9013 2 2 2h5.0488c0.24336 0 0.29438-0.13187 0.11719-0.29883-0.15874-0.14957-0.34744-0.33252-0.49805-0.49023-0.10798-0.11308-0.31563-0.21094-0.47266-0.21094h-4.1953c-0.55821 0-1-0.44179-1-1 1e-5 -0.2949 0.12212-0.90866 0.22656-1.1191 0.6068-1.2231 1.5892-1.6855 2.8066-2.2168 0.16371-0.07144 0.23775-0.26166 0.16602-0.42578l-0.0019532-0.0058593c-0.11094-0.25379-0.36134-0.40519-0.62109-0.40039zm0.41016 0.54688c0.020604 0.00159 0.039349 0.010616 0.052734 0.025391 0.030768 0.033969 0.025492 0.088491-0.011719 0.12109-0.037022 0.032367-0.091373 0.030618-0.12109-0.0039062-0.00139-0.00189-0.0026863-0.0038494-0.0039062-0.0058594-0.00139-0.00189-0.0026863-0.0038494-0.0039063-0.0058594l-0.0019531-0.0019531c-0.013579-0.023992-0.013579-0.054051 0-0.080078 0.00557-0.00961 0.012864-0.01823 0.021484-0.025391 0.019055-0.016962 0.043965-0.025502 0.068359-0.023438z" fill="#786d7d" style="-inkscape-stroke:none"/><path d="m12.5 9.0547c-0.94874 0-1.8094 0.3875-2.4336 1.0117-0.078027 0.078028-0.15233 0.15899-0.22266 0.24414s-0.13719 0.17394-0.19922 0.26562c-0.21711 0.32088-0.38105 0.67967-0.48047 1.0645-0.014204 0.05497-0.027553 0.11003-0.039062 0.16602-0.04628 0.22449-0.070322 0.45553-0.070312 0.69336 0 0.71155 0.21764 1.3737 0.58984 1.9238 0.062032 0.09168 0.1289 0.18048 0.19922 0.26562s0.14463 0.16807 0.22266 0.24609c0.62422 0.62422 1.4849 1.0098 2.4336 1.0098 0.059294-2e-6 0.11916-9.16e-4 0.17773-0.003906 0.70328-0.035847 1.3516-0.28327 1.8828-0.68164 0.088488-0.066251 0.17224-0.13669 0.25391-0.21094 0.081662-0.074247 0.16012-0.15272 0.23438-0.23438 0.074606-0.08205 0.14441-0.16692 0.21094-0.25586 0.033152-0.044248 0.064664-0.088931 0.095703-0.13477 0.03133-0.046302 0.06074-0.092768 0.089843-0.14062 0.028561-0.046872 0.057637-0.094291 0.083985-0.14258 2.77e-4 -5.08e-4 -2.77e-4 -0.001445 0-0.001953 0.026316-0.048286 0.052139-0.096855 0.076172-0.14648 2.59e-4 -5.36e-4 -2.59e-4 -0.001418 0-0.001954 0.024002-0.04963 0.04671-0.099486 0.068359-0.15039 2.36e-4 -5.55e-4 -2.35e-4 -0.001398 0-0.001953 0.021621-0.050912 0.043303-0.10218 0.0625-0.1543 2.12e-4 -5.76e-4 -2.11e-4 -0.001377 0-0.001953 0.019379-0.052696 0.037859-0.10435 0.054688-0.1582 0.10095-0.3233 0.15626-0.66768 0.15625-1.0234 0-0.71206-0.21878-1.3735-0.5918-1.9238-0.031017-0.045839-0.062577-0.090523-0.095703-0.13477-0.033446-0.044639-0.06604-0.087908-0.10156-0.13086-0.034851-0.042196-0.072595-0.082563-0.10938-0.12305-3.14e-4 -3.46e-4 3.15e-4 -0.001607 0-0.001953-0.037439-0.041175-0.075874-0.079813-0.11523-0.11914-0.07773-0.077665-0.15935-0.15263-0.24414-0.22266-0.085148-0.070322-0.17394-0.13719-0.26562-0.19922-0.55003-0.37247-1.2124-0.58987-1.9238-0.58984zm0 0.99609c0.033951 0 0.067951 6.01e-4 0.10156 0.001953 0.008401 3.38e-4 0.017013-4.21e-4 0.025391 0 0.003876 2.01e-4 0.007848-2.19e-4 0.011719 0 0.027499 0.001513 0.054784 0.00541 0.082031 0.007813 0.024242 0.002193 0.048235 0.004913 0.072266 0.007812 0.020231 0.002384 0.040471 0.004944 0.060547 0.007813 0.007063 0.001032 0.014441 8.61e-4 0.021484 0.001953 0.041673 0.006461 0.084056 0.014905 0.125 0.023437 0.16097 0.033546 0.31535 0.081523 0.46289 0.14453 0.098358 0.042005 0.19404 0.090939 0.28516 0.14453a0.090732 0.090732 0 0 1 0.017578 0.14062l-1.2637 1.2637-1.2656-1.2637a0.090732 0.090732 0 0 1 0.019531-0.14258c0.045566-0.026802 0.091272-0.052236 0.13867-0.076172s0.095415-0.045474 0.14453-0.066406c0.049117-0.020932 0.099675-0.040805 0.15039-0.058594 0.046262-0.016227 0.093125-0.03142 0.14062-0.044922 0.007763-0.002206 0.015643-0.003727 0.023438-0.005859 0.049082-0.013427 0.098155-0.024747 0.14844-0.035157 0.040873-0.008461 0.083392-0.017038 0.125-0.023437 0.007067-0.001073 0.014398-9.4e-4 0.021485-0.001953 0.020033-0.002902 0.040354-0.005399 0.060546-0.007813 0.023984-0.002827 0.04807-0.005677 0.072266-0.007812 0.025258-0.002229 0.050694-0.004396 0.076172-0.005859 0.005895-3.39e-4 0.011672-0.001656 0.017578-0.001954 0.041825-0.002132 0.082623-0.001953 0.125-0.001953zm-2.043 1.1602a0.090732 0.090732 0 0 1 0.076172 0.023437l1.2656 1.2656-1.2656 1.2656a0.090732 0.090732 0 0 1-0.14258-0.017578c-0.0268-0.045564-0.052194-0.093188-0.076172-0.14062-0.095912-0.18975-0.16817-0.3928-0.21289-0.60742-0.008531-0.040943-0.016977-0.083329-0.023437-0.125-0.001073-0.007067-9.4e-4 -0.014398-0.001953-0.021484-0.002178-0.014913-0.003953-0.029923-0.00586-0.044922-0.005851-0.046028-0.010431-0.091878-0.013671-0.13867-0.003878-0.055998-0.00586-0.11294-0.00586-0.16992s0.001982-0.11392 0.00586-0.16992c0.003055-0.044121 0.00634-0.087418 0.011718-0.13086 0.002305-0.018918 0.005083-0.037862 0.007813-0.056641 7.52e-4 -0.005172 0.001169-0.010464 0.001953-0.015625 0.006511-0.042166 0.014806-0.083579 0.023437-0.125 0.022362-0.10731 0.052129-0.21285 0.087891-0.31445s0.077044-0.20005 0.125-0.29492c0.023978-0.047437 0.049372-0.093108 0.076172-0.13867a0.090732 0.090732 0 0 1 0.066406-0.042968zm4.0879 0a0.090732 0.090732 0 0 1 0.066406 0.044921c0.053601 0.091136 0.10267 0.18497 0.14453 0.2832 0.016368 0.038409 0.03242 0.077794 0.046875 0.11719 0.004031 0.010985 0.00784 0.022145 0.011719 0.033203 6.79e-4 0.001951 0.001279 0.003906 0.001953 0.005859 0.034656 0.099608 0.062232 0.20157 0.083985 0.30664 0.011088 0.053563 0.019812 0.1073 0.027343 0.16211 0.006829 0.049701 0.01183 0.10171 0.015625 0.15234 3.91e-4 0.005206 0.001596 0.010411 0.001953 0.015625 0.003731 0.055599 0.005862 0.1114 0.00586 0.16797 1e-6 0.042435-0.001799 0.085054-0.003906 0.12695-7.28e-4 0.014219-9.83e-4 0.028818-0.001954 0.042969-3.97e-4 0.005882-0.001514 0.011707-0.001953 0.017578-0.003784 0.049911-0.008891 0.099434-0.015625 0.14844-0.021929 0.1596-0.058402 0.31482-0.10938 0.46289-0.001543 0.004483-0.002338 0.009201-0.003906 0.013672-9.37e-4 0.002692-0.00296 0.005125-0.003906 0.007812-0.052912 0.14914-0.12028 0.29156-0.19922 0.42578a0.090732 0.090732 0 0 1-0.14062 0.017578l-1.2637-1.2637 1.2637-1.2637a0.090732 0.090732 0 0 1 0.074219-0.02539zm-2.043 1.9941 1.2637 1.2637a0.090732 0.090732 0 0 1-0.017578 0.14062c-0.22778 0.13398-0.47977 0.23511-0.74805 0.29102-0.053656 0.011182-0.10917 0.019737-0.16406 0.027343-0.02792 0.003785-0.055771 0.006921-0.083985 0.009766-0.010394 0.001075-0.020817 0.001009-0.03125 0.001953-0.027247 0.002403-0.054532 0.0063-0.082031 0.007813-0.0039 2.14e-4 -0.007815-1.97e-4 -0.011719 0-0.04203 0.002177-0.084384 0.003903-0.12695 0.003906-0.047694 1e-6 -0.093635-0.003163-0.14062-0.00586-0.009113-5.16e-4 -0.018258 6.15e-4 -0.027344 0-0.005926-4.06e-4 -0.011664-0.001504-0.017578-0.001953-0.049913-0.003783-0.099433-0.008892-0.14844-0.015625-0.054811-0.00753-0.1105-0.016255-0.16406-0.027343-0.16069-0.033265-0.31554-0.081736-0.46289-0.14453-0.098233-0.041863-0.19207-0.090926-0.2832-0.14453a0.090732 0.090732 0 0 1-0.019531-0.14062l1.2656-1.2656z" fill="#821313" style="-inkscape-stroke:none;paint-order:markers stroke fill"/></svg>
