<svg width="16" height="16" version="1.1" viewBox="0 0 16 16" xmlns="http://www.w3.org/2000/svg">
 <path d="m7.9512 0.83594c-2.0808 0-3.7793 1.6985-3.7793 3.7793s1.6987 4.3774 3.7793 4.377c1.9975 0.11937 3.7645 0.64529 4.8908 1.6406 0.1056 0.09331 0.26797 0.09457 0.37835 0.0071 0.11434-0.09058 0.24428-0.1851 0.36974-0.28847 0.11464-0.09445 0.11491-0.26692 0.0042-0.36829-1.3318-1.2191-3.4225-1.9345-5.6431-1.9909-1.5395-0.0391-2.7793-1.8367-2.7793-3.377 0-1.5403 1.239-2.7793 2.7793-2.7793 1.5403 0 2.7773 1.239 2.7773 2.7793 0 0.661-0.32213 1.4422-0.59766 1.9258-0.0653 0.11461-0.03584 0.26282 0.07422 0.33594 0.34948 0.23216 0.83252 0.11898 1.0176-0.2832 0.27352-0.5944 0.50586-1.334 0.50586-1.9785 0-2.0808-1.6965-3.7793-3.7773-3.7793zm2.0156 6.1484c-0.025006-0.00265-0.050756 0.00594-0.070312 0.023437-6.605e-4 6.417e-4 -0.00131 0.00129-0.00195 0.00195-0.00204 0.00187-0.00399 0.00382-0.00586 0.00586-0.00525 0.00532-0.00984 0.011226-0.013672 0.017578-0.013578 0.026027-0.013578 0.056086 0 0.080078 0.00275 0.00491 0.00602 0.00949 0.00977 0.013672 0.029725 0.03452 0.084071 0.036273 0.12109 0.00391 0.03721-0.032606 0.04249-0.087124 0.01172-0.12109-0.01292-0.014359-0.030902-0.02335-0.050781-0.025391zm-5.3906 1.8477c-0.086581 0.0016005-0.17387 0.020154-0.25781 0.058594-1.2849 0.5884-2.3293 1.2166-2.9883 2.5449-0.23903 0.4819-0.33005 1.0862-0.33008 1.5645 0 1.0987 0.9013 2 2 2h5.0496c0.24336 0 0.29425-0.13241 0.11706-0.29937-0.15874-0.14957-0.34768-0.33182-0.49829-0.48954-0.10798-0.11308-0.31593-0.2111-0.47296-0.2111h-4.1954c-0.55821 0-1-0.44179-1-1 1e-5 -0.2949 0.12212-0.90862 0.22656-1.1191 0.6068-1.2231 1.5892-1.6855 2.8066-2.2168 0.16371-0.07144 0.23775-0.26166 0.16602-0.42578l-0.00195-0.00586c-0.11094-0.25379-0.36135-0.40519-0.6211-0.40039zm0.41016 0.54688c0.020604 0.00159 0.039349 0.010616 0.052734 0.025391 0.030768 0.033969 0.025492 0.088487-0.011719 0.12109-0.037022 0.032367-0.091369 0.030614-0.12109-0.00391-0.00139-0.00189-0.00269-0.00385-0.00391-0.00586-0.00139-0.00189-0.00269-0.00385-0.00391-0.00586-6.391e-4 -6.627e-4 -0.00129-0.00131-0.00195-0.00195-0.013579-0.023992-0.013579-0.054051 0-0.080078 0.00557-0.00961 0.012864-0.01823 0.021484-0.025391 0.019055-0.016962 0.043965-0.025503 0.068359-0.023438zm10.373 1.4684c-0.08051 0.0013-0.1667 0.04561-0.26953 0.14844l-3.7113 3.7113-2.0504-2.0504c-0.26116-0.26116-0.43304-0.1529-0.62891 0.04297-0.19587 0.19587-0.33932 0.4029-0.078125 0.66406l2.2867 2.2867c0.02449 0.02448 0.05004 0.04756 0.07617 0.06836 0.01268 0.0173 0.02548 0.0333 0.04102 0.04883 0.11017 0.11018 0.26877 0.14863 0.42773 0.11914l2e-3 -2e-3c0.0024-3.96e-4 0.0036 4.59e-4 0.0059 0 0.10435-7e-3 0.19966-0.04536 0.27148-0.11719 8e-3 -8e-3 0.01431-0.01684 0.02148-0.02539 0.0015-0.0013 0.0024-0.0026 0.0039-0.0039 0.0155-0.01309 0.03023-0.02632 0.04492-0.04101l3.9945-3.9945c0.23504-0.23504 0.06696-0.48186-0.12891-0.67773-0.11018-0.11018-0.20508-0.17945-0.30859-0.17773z" fill="#786d7d" style="-inkscape-stroke:none"/>
</svg>
