<svg width="16" height="16" version="1.1" viewBox="0 0 16 16" xml:space="preserve" xmlns="http://www.w3.org/2000/svg"><path d="m7.9512 0.83594c-2.0808 0-3.7793 1.6985-3.7793 3.7793s1.6987 4.3774 3.7793 4.377c0.20051 0.011982 0.3983 0.028589 0.59375 0.048828 0.29506-0.34346 0.64046-0.64248 1.0234-0.88672-0.52488-0.092593-1.0668-0.14813-1.6172-0.16211-1.5395-0.0391-2.7793-1.8367-2.7793-3.377s1.239-2.7793 2.7793-2.7793 2.7773 1.239 2.7773 2.7793c0 0.661-0.32213 1.4422-0.59766 1.9258-0.0653 0.11461-0.035841 0.26282 0.074219 0.33594 0.34948 0.23216 0.8325 0.11898 1.0176-0.2832 0.27352-0.5944 0.50586-1.334 0.50586-1.9785 0-2.0808-1.6965-3.7793-3.7773-3.7793zm2.0156 6.1484c-0.025006-0.00265-0.050756 0.0059405-0.070312 0.023438l-0.0019532 0.0019531c-0.0020399 0.00187-0.0039893 0.0038194-0.0058593 0.0058594-0.00525 0.00532-0.0098399 0.011226-0.013672 0.017578-0.013578 0.026027-0.013578 0.056086 0 0.080078 0.00275 0.00491 0.0060156 0.0094899 0.0097656 0.013672 0.029725 0.03452 0.084075 0.036269 0.12109 0.0039063 0.03721-0.032606 0.042489-0.087128 0.011719-0.12109-0.01292-0.014359-0.030902-0.02335-0.050781-0.025391zm-5.3906 1.8477c-0.086581 0.0016-0.17387 0.020154-0.25781 0.058594-1.2849 0.5884-2.3293 1.2166-2.9883 2.5449-0.23903 0.4819-0.33005 1.0862-0.33008 1.5645 0 1.0987 0.9013 2 2 2h5.0488c0.24336 0 0.29438-0.13187 0.11719-0.29883-0.15874-0.14957-0.34744-0.33252-0.49805-0.49023-0.10798-0.11308-0.31563-0.21094-0.47266-0.21094h-4.1953c-0.55821 0-1-0.44179-1-1 1e-5 -0.2949 0.12212-0.90866 0.22656-1.1191 0.6068-1.2231 1.5892-1.6855 2.8066-2.2168 0.16371-0.07144 0.23775-0.26166 0.16602-0.42578l-0.0019532-0.0058593c-0.11094-0.25379-0.36134-0.40519-0.62109-0.40039zm0.41016 0.54688c0.020604 0.00159 0.039349 0.010616 0.052734 0.025391 0.030768 0.033969 0.025492 0.088491-0.011719 0.12109-0.037022 0.032367-0.091373 0.030618-0.12109-0.0039062-0.00139-0.00189-0.0026863-0.0038494-0.0039062-0.0058594-0.00139-0.00189-0.0026863-0.0038494-0.0039063-0.0058594l-0.0019531-0.0019531c-0.013579-0.023992-0.013579-0.054051 0-0.080078 0.00557-0.00961 0.012864-0.01823 0.021484-0.025391 0.019055-0.016962 0.043965-0.025502 0.068359-0.023438z" fill="#786d7d" opacity=".7" style="-inkscape-stroke:none"/><path d="m12.502 9.0586c-0.88284 0-1.7667 0.335-2.4375 1.0059-1.3417 1.3417-1.3417 3.5314 0 4.873 1.3417 1.3416 3.5314 1.3417 4.873 0 0.6708-0.6708 1.0059-1.5537 1.0059-2.4375 0-0.88374-0.33506-1.7648-1.0059-2.4355-0.67086-0.67086-1.5527-1.0059-2.4355-1.0059zm-0.61133 1.0684c0.0574-0.01473 0.11328 0.028631 0.11328 0.087891 0 0.17755 0.13998 0.27948 0.31641 0.26172 0.12145-0.012224 0.24378-0.012094 0.36524 0 0.17752 0.017678 0.31641-0.08504 0.31641-0.26367 0.0015-0.05743 0.05538-0.098998 0.11133-0.085938 0.40938 0.10614 0.79892 0.31844 1.1211 0.64062 0.48011 0.48011 0.7207 1.1068 0.7207 1.7324-1e-6 0.62564-0.2406 1.2523-0.7207 1.7324-0.32216 0.32217-0.71172 0.53446-1.1211 0.64062-0.05595 0.01306-0.1098-0.028508-0.11133-0.085938 0-0.12556-0.098619-0.19865-0.22266-0.17969-0.18126 0.027705-0.36553 0.028956-0.54688 0.001953-0.12796-0.019054-0.22852 0.052175-0.22852 0.17773-0.0012 0.05846-0.05665 0.10048-0.11328 0.085938-0.40929-0.10612-0.79872-0.31829-1.1211-0.64062-0.96025-0.96025-0.96025-2.5046 0-3.4648 0.32232-0.32232 0.71174-0.53448 1.1211-0.64062zm0.60938 1.873a0.5 0.5 0 0 0-0.5 0.5 0.5 0.5 0 0 0 0.5 0.5 0.5 0.5 0 0 0 0.5-0.5 0.5 0.5 0 0 0-0.5-0.5z" fill="#786d7d" stroke-width="1.1118" style="-inkscape-stroke:none;paint-order:markers stroke fill"/></svg>
