<svg width="16" height="16" version="1.1" viewBox="0 0 16 16" xml:space="preserve" xmlns="http://www.w3.org/2000/svg"><defs><style id="current-color-scheme" type="text/css">
      .ColorScheme-Text {
        color:#232629;
      }
      </style></defs><g fill="#786d7d"><path d="m2.5 1c-1.3807 0-2.5 1.1193-2.5 2.5v9c0 1.3807 1.1193 2.5 2.5 2.5h8.3269a0.17312 0.17312 135 0 0 0.17312-0.17312v-0.27922a0.54767 0.54767 45 0 0-0.54767-0.54766h-0.45233c-0.040059 0-0.38456 0.0042-0.42383-4.1e-5h-7.0762c-0.82843 4.1e-5 -1.5-0.67153-1.5-1.5v-9c0-0.82843 0.67157-1.5 1.5-1.5h6.6582c0.19863-6.855e-4 0.36931-0.14115 0.4082-0.33594l0.066406-0.32812c0.034846-0.17381-0.098123-0.33601-0.27539-0.33594zm8 0c-0.27614 0-0.5 0.22386-0.5 0.5s0.22386 0.5 0.5 0.5 0.5-0.22386 0.5-0.5-0.22386-0.5-0.5-0.5zm1.2422 0c-0.14038-2.1717e-4 -0.26138 0.098709-0.28906 0.23633l-0.0918 0.45703c-0.031873 0.15889 0.089902 0.3071 0.25196 0.30664h0.38672c0.55228 0 1 0.44772 1 1v5a1.8698 1.8698 72.329 0 0 0.34459 1.0816l0.07357 0.10374a0.32045 0.32045 162.33 0 0 0.58184-0.18537v-6c0-1.1046-0.89543-2-2-2zm-1.3359 5.7715c-0.15391 0.024293-0.29615 0.09678-0.40625 0.20703l-2.3457 2.3594c-0.080232 0.081747-0.21165 0.082624-0.29297 0.00195l-1.3066-1.3008c-0.32051-0.31845-0.83388-0.3313-1.1699-0.029297l-3.2852 2.9531c-0.11692 0.10523-0.12653 0.28526-0.021484 0.40234l0.070312 0.07813c0.22354 0.25031 0.60793 0.27132 0.85742 0.04687l2.7246-2.4512c0.12043-0.10859 0.30467-0.1043 0.41992 0.00977l1.0156 1.0098c0.46708 0.46488 1.2226 0.46313 1.6875-0.0039l2.0273-2.0391c0.06476-0.065715 0.1705-0.066589 0.23633-0.00195l0.4587 0.45647a0.82418 0.82418 14.367 0 0 0.81028 0.20755l0.48112-0.13911a0.093528 0.093528 112.32 0 0 0.05564-0.13552l-0.0041-0.00729a0.84846 0.84846 52.862 0 0-0.14087-0.18604l-1.235-1.2332c-0.16716-0.16637-0.40388-0.24262-0.63672-0.20508z" style="-inkscape-stroke:none"/><path d="m11.527 7.4746-4.1328 2.1602-0.69922-0.94531-2.3984-0.14648-3.2969 2.916v2.541h8.5762c-0.58903-0.063014-1.0762-0.58647-1.0762-1.1895v-0.55078c0-0.68044 0.57346-1.2539 1.2539-1.2539h1.2461v-1.2793c0-0.66599 0.55471-1.2207 1.2207-1.2207h0.2793c0.026829 0 0.053557 0.0024513 0.080078 0.0039062l-1.0527-1.0352z" opacity=".16"/><ellipse cx="3.5" cy="4.4897" rx="1.5" ry="1.5243" opacity=".5"/></g><g transform="translate(.010071)"><path d="m12.21 9.5061c-0.1215 0-0.22 0.0985-0.22 0.22v1.28c0 1.099 0.901 2 2 2h0.889c0.33722-5.51e-4 0.61045-0.27378 0.611-0.611v-0.075c0-0.17342-0.14058-0.314-0.314-0.314h-1.186c-0.558 0-1-0.442-1-1v-1c0-0.27614-0.22386-0.5-0.5-0.5zm-2.466 2.5c-0.14028 0-0.254 0.11372-0.254 0.254v0.55c0 0.109 0.087 0.196 0.195 0.196h1.305c0.558 0 1 0.442 1 1v1.211c0 0.16 0.13 0.289 0.29 0.289h0.339c0.20513 5.55e-4 0.37156-0.16587 0.371-0.371v-1.129c0-1.099-0.901-2-2-2z" color="#000000" fill="#786d7d" style="-inkscape-stroke:none"/></g></svg>
