<svg width="16" height="16" version="1.1" viewBox="0 0 16 16" xml:space="preserve" xmlns="http://www.w3.org/2000/svg"><path d="m3.5 5c-1.3748 0-2.5 1.1252-2.5 2.5v2c0 1.3748 1.1252 2.5 2.5 2.5h9c1.3748 0 2.5-1.1252 2.5-2.5v-0.7051c-1.54e-4 -0.179-0.14522-0.32407-0.32422-0.32422h-0.19531c-0.26555-4.599e-4 -0.48093 0.21492-0.48047 0.48047v0.5488c0 0.83435-0.66565 1.5-1.5 1.5h-9c-0.83435 0-1.5-0.66565-1.5-1.5v-2c0-0.83435 0.66565-1.5 1.5-1.5h9c0.27592 0 0.5315 0.07274 0.75195 0.20117 0.1005 0.058547 0.23286 0.044726 0.30469-0.046875l0.16992-0.21875c0.17447-0.2225 0.13756-0.55024-0.11523-0.67578-0.33524-0.16649-0.71369-0.25977-1.1113-0.25977h-9zm10.998 2.002c-0.27467 2.971e-4 -0.49737 0.223-0.49805 0.49805-3.92e-4 0.27582 0.22262 0.4997 0.49805 0.5 0.27619 7.824e-4 0.50039-0.22342 0.5-0.5-6.83e-4 -0.27582-0.22457-0.49883-0.5-0.49805z" color="#000000" fill="#776c7c" fill-opacity=".99608" style="-inkscape-stroke:none"/><rect x="1" y="5" width="14" height="7" rx="2.4864" ry="2.4864" fill="#786d7d" opacity=".16" stroke-linecap="round" stroke-linejoin="round"/></svg>
