<svg width="16" height="16" version="1.1" xml:space="preserve" xmlns="http://www.w3.org/2000/svg"><path d="m3.3496 1c-0.19301 1.87e-4 -0.34942 0.1566-0.34961 0.34961v0.30078c1.87e-4 0.19301 0.1566 0.34942 0.34961 0.34961h0.30078c0.19301-1.87e-4 0.34942-0.1566 0.34961-0.34961v-0.30078c-1.87e-4 -0.19301-0.1566-0.34942-0.34961-0.34961zm9.9531 0c-0.16711 2.063e-4 -0.30253 0.13562-0.30273 0.30273v0.39453c2.06e-4 0.16711 0.13562 0.30253 0.30273 0.30273h0.39453c0.16711-2.063e-4 0.30253-0.13562 0.30273-0.30273v-0.39453c-2.06e-4 -0.16711-0.13562-0.30253-0.30273-0.30273zm-11.953 2c-0.19301 1.87e-4 -0.34942 0.1566-0.34961 0.34961v0.30078c1.87e-4 0.19301 0.1566 0.34942 0.34961 0.34961h0.30078c0.19301-1.87e-4 0.34942-0.1566 0.34961-0.34961v-0.30078c-1.87e-4 -0.19301-0.1566-0.34942-0.34961-0.34961zm3.6504 0c-1.099 0-2 0.901-2 2v7c0 1.099 0.901 2 2 2h7c1.099 0 2-0.901 2-2v-4.5996c0-0.11046-0.088761-0.20117-0.19922-0.20117h-0.04297c-0.41886-5.537e-4 -0.75836 0.33895-0.75781 0.75781v4.043c0 0.558-0.442 1-1 1h-7c-0.558 0-1-0.442-1-1v-7c0-0.558 0.442-1 1-1h7c0.558 0 1 0.442 1 1v0.5c0 0.20837 0.3151 0.26953 0.78906 0.26953 0.21106 0 0.21094-0.15827 0.21094-0.26953v-0.5c0-1.099-0.902-2-2-2zm10.35 0c-0.19301 1.873e-4 -0.34942 0.1566-0.34961 0.34961v0.30078c1.87e-4 0.19301 0.1566 0.34942 0.34961 0.34961h0.30078c0.19301-1.873e-4 0.34942-0.1566 0.34961-0.34961v-0.30078c-1.87e-4 -0.19301-0.1566-0.34942-0.34961-0.34961zm-9.3496 3.4369v0.42018a0.14289 0.14289 45 0 0 0.14289 0.14289h1.8571v4.8739a0.12614 0.12614 45 0 0 0.12614 0.12614h0.11678a0.75708 0.75708 135 0 0 0.75708-0.75708v-4.2429h1.8277a0.17233 0.17233 135 0 0 0.17233-0.17233v-0.5475a0.28018 0.28018 45 0 0-0.28018-0.28018h-4.2829a0.43693 0.43693 135 0 0-0.43693 0.43693zm-4.6973 6.5631c-0.16711 2.06e-4 -0.30253 0.13562-0.30273 0.30273v0.39453c2.063e-4 0.16711 0.13562 0.30253 0.30273 0.30273h0.39453c0.16711-2.06e-4 0.30253-0.13562 0.30273-0.30273v-0.39453c-2.063e-4 -0.16711-0.13562-0.30253-0.30273-0.30273zm14.047 0c-0.19301 1.87e-4 -0.34942 0.1566-0.34961 0.34961v0.30078c1.87e-4 0.19301 0.1566 0.34942 0.34961 0.34961h0.30078c0.19301-1.87e-4 0.34942-0.1566 0.34961-0.34961v-0.30078c-1.87e-4 -0.19301-0.1566-0.34942-0.34961-0.34961zm-12.047 2c-0.16711 2.06e-4 -0.30253 0.13562-0.30273 0.30273v0.39453c2.063e-4 0.16711 0.13562 0.30253 0.30273 0.30273h0.39453c0.16711-2.06e-4 0.30253-0.13562 0.30273-0.30273v-0.39453c-2.063e-4 -0.16711-0.13562-0.30253-0.30273-0.30273zm10 0c-0.16711 2.06e-4 -0.30253 0.13562-0.30273 0.30273v0.39453c2.06e-4 0.16711 0.13562 0.30253 0.30273 0.30273h0.39453c0.16711-2.06e-4 0.30253-0.13562 0.30273-0.30273v-0.39453c-2.06e-4 -0.16711-0.13562-0.30253-0.30273-0.30273z" fill="#786d7d" style="-inkscape-stroke:none"/></svg>
