<svg width="16" height="16" version="1.1" viewBox="0 0 16 16" xml:space="preserve" xmlns="http://www.w3.org/2000/svg"><path d="m7.9844 2c-1.0904 0-1.9844 0.89393-1.9844 1.9844v3.0312c0 0.55-0.43437 0.98438-0.98438 0.98438h-1.0312c-1.0904 0-1.9844 0.89393-1.9844 1.9844v3.0312c-2e-7 1.0904 0.89393 1.9844 1.9844 1.9844h7.0312c1.0904 0 1.9844-0.89393 1.9844-1.9844v-7.256a0.15967 0.15967 45 0 0-0.15967-0.15967 0.84203 0.84203 134.88 0 0-0.84033 0.84373v6.5719c0 0.55-0.43437 0.98438-0.98438 0.98438h-7.0312c-0.55 0-0.98438-0.43437-0.98438-0.98438v-3.0312c0-0.55 0.43437-0.98438 0.98438-0.98438h1.0312c1.0904 0 1.9844-0.89393 1.9844-1.9844v-3.0312c0-0.55 0.43437-0.98438 0.98438-0.98438h3.0312c0.55-1e-7 0.98438 0.43437 0.98438 0.98438v0.695a0.32063 0.32063 45 0 0 0.32063 0.32063h0.60356a0.063766 0.063766 147.22 0 0 0.075815-0.048828v-0.9668c0-1.0904-0.89393-1.9844-1.9844-1.9844zm1.0156 3v5.495a0.50505 0.50505 135 0 1-0.50505 0.50505h-1.495v-0.8a0.17006 0.17006 18.784 0 0-0.30486-0.10369l-0.54377 0.7069a0.50421 0.50421 153.78 0 1-0.39965 0.19679h-0.37043a0.37348 0.37348 135 0 0-0.37348 0.37348v0.38786a0.23866 0.23866 45 0 0 0.23866 0.23866h0.48786a0.53953 0.53953 26.216 0 1 0.42764 0.21057l0.53317 0.69312a0.17006 0.17006 161.22 0 0 0.30486-0.10369v-0.8h1.496a1.504 1.504 135 0 0 1.504-1.504v-5.496a0.5 0.5 45 0 0-0.5-0.5 0.5 0.5 135 0 0-0.5 0.5z" color="#000000" fill="#786d7d" style="-inkscape-stroke:none"/></svg>
