<svg width="16" height="16" version="1.1" viewBox="0 0 16 16" xml:space="preserve" xmlns="http://www.w3.org/2000/svg"><path d="m7.0449 0.83594c-2.0808 1.1e-7 -3.7773 1.6985-3.7773 3.7793 0 0.64449 0.23234 1.3841 0.50586 1.9785 0.18506 0.40218 0.66812 0.51536 1.0176 0.2832 0.11006-0.073114 0.13952-0.22133 0.074219-0.33594-0.27553-0.4836-0.59766-1.2648-0.59766-1.9258 0-1.5403 1.237-2.7793 2.7773-2.7793 1.5403-3e-7 2.7793 1.239 2.7793 2.7793 0 1.5403-1.2398 3.3379-2.7793 3.377-2.9973 0.076117-5.7594 1.3517-6.7363 3.4473-0.2252 0.48309-0.30737 1.0889-0.30859 1.5586v0.001953c-0.002844 1.0977 0.89646 2 1.9941 2h8.0508c0.39808 0 0.44737-1 0.20117-1h-8.252c-0.55633-1e-6 -0.99558-0.44172-0.99414-0.99805 7.86e-4 -0.30343 0.11352-0.92326 0.21484-1.1406 0.84201-1.8062 3.1276-2.7076 5.8301-2.8691 2.0806 4.575e-4 3.7793-2.2962 3.7793-4.377 0-2.0808-1.6985-3.7793-3.7793-3.7793zm-2.0156 6.1484c-0.019879 0.00204-0.037861 0.011032-0.050781 0.025391-0.030768 0.03397-0.025492 0.088488 0.011719 0.12109 0.037022 0.032367 0.091369 0.030613 0.12109-0.00391 6.629e-4 -6.393e-4 0.00131-0.00129 0.00195-0.00195 0.00139-0.00189 0.00269-0.00385 0.00391-0.00586 0.00139-0.00189 0.00269-0.00385 0.00391-0.00586 0.013579-0.023992 0.013579-0.054051 0-0.080078-0.00383-0.00635-0.00843-0.012258-0.013672-0.017578-0.00187-0.00204-0.00382-0.00399-0.00586-0.00586-6.605e-4 -6.417e-4 -0.00131-0.00129-0.00195-0.00195-0.019557-0.017502-0.045307-0.026085-0.070312-0.023437zm5.3906 1.8477c-0.25974-0.0047999-0.51016 0.1466-0.62109 0.40039l-0.00195 0.00586c-0.071736 0.16412 0.00231 0.35434 0.16602 0.42578 0.071318 0.031125 0.13931 0.060978 0.20898 0.091797 0.04219-0.071919 0.09218-0.13989 0.15234-0.19922l0.23438-0.23438c0.06718-0.067708 0.14468-0.1248 0.22871-0.17007 0.1624-0.061772 0.18623-0.12016 0.08055-0.17245-0.062212-0.030785-0.12584-0.059682-0.19012-0.089116-0.08394-0.038439-0.17123-0.056994-0.25781-0.058594zm-0.41016 0.54688c0.02439-0.00207 0.0493 0.00648 0.06836 0.023438 0.0086 0.00716 0.01591 0.015776 0.02148 0.025391 0.01358 0.026027 0.01358 0.056086 0 0.080078-6.39e-4 6.627e-4 -0.0013 0.00131-2e-3 0.00195-0.0012 0.00201-0.0025 0.00397-0.0039 0.00586-0.0012 0.00201-0.0025 0.00397-0.0039 0.00586-0.02972 0.03452-0.08407 0.036273-0.12109 0.00391-0.037211-0.032606-0.042487-0.087124-0.011719-0.12109 0.013386-0.014775 0.032131-0.0238 0.052735-0.025391zm3.4199 4.9219c-0.07246-3.59e-4 -0.14428 0.031-0.20898 0.0957l-0.30099 0.30099c-0.09066 0.09066 0.03289 0.05479 0.03329 0.05545 0.18445-0.10152 0.3515-0.23126 0.49511-0.38333 0.04001-0.04001-0.01499-0.056-0.01842-0.06881z" color="#000000" fill="#786d7d" stroke-linejoin="round" style="-inkscape-stroke:none"/><g fill="#786d7d"><path d="m4.9959 8.2385c0.65677-0.14476 1.3464-0.22851 2.049-0.24635 1.5395-0.039095 2.7793-1.8366 2.7793-3.377 0-1.5403-1.239-2.7793-2.7793-2.7793-1.5403 1e-7 -2.7773 1.239-2.7773 2.7793 0 0.66094 0.32212 1.4422 0.59766 1.9258 0.0653 0.11461 0.035841 0.26282-0.074219 0.33594-0.34946 0.23215-0.83252 0.11897-1.0176-0.2832 0.55797 0.85551 0.61067 0.93095 1.2225 1.6448zm3.8802 0.13483c-0.5431 0.38553-1.1677 0.61896-1.8312 0.61882-2.7025 0.1615-4.9881 1.0629-5.8301 2.8691-0.10133 0.21736-0.21406 0.83719-0.21484 1.1406-0.001441 0.55633 0.43781 0.99805 0.99414 0.99805h8.2273c0.16476-0.29171 0.38933-0.54363 0.62891-0.7832l0.62891-0.62891c0.067-0.068 0.17505-0.04156 0.24805-0.10156-0.073-0.06-0.18005-0.03356-0.24805-0.10156v-2e-3l-1.1667-1.0976c-0.39033-0.41778-0.44896-1.0466-0.14258-1.5293-0.069145-0.030579-0.13627-0.060915-0.20703-0.091797-0.16371-0.071446-0.23775-0.26166-0.16602-0.42578l0.00195-0.00586c0.14791-0.33838 0.54315-0.49555 0.87891-0.3418z" opacity=".16"/><path d="m8.5 7v6" color="#000000" style="-inkscape-stroke:none"/></g><path d="m15.497 9.862a0.123 0.123 0 0 0-0.088 0.037l-1.224 1.222c-0.42 0.42-1.09 0.42-1.511 0l-1.256-1.255a0.218 0.218 0 0 0-0.31 0l-0.24 0.24a0.299 0.299 0 0 0 0 0.426l1.196 1.198c0.75 0.75 1.98 0.75 2.73 0l1.184-1.18a0.184 0.184 0 0 0 0-0.262l-0.391-0.389a0.127 0.127 0 0 0-0.09-0.037zm-2.068 2.82c-0.495 0-0.99 0.185-1.365 0.56l-1.129 1.129a0.54 0.54 0 0 0 0 0.766l0.053 0.052a0.244 0.244 0 0 0 0.348 0l1.338-1.338c0.42-0.42 1.09-0.42 1.511 0l1.007 1.007a0.43 0.43 0 0 0 0.61 0l0.199-0.197a0.153 0.153 0 0 0 0-0.215l-1.206-1.204a1.922 1.922 0 0 0-1.366-0.56z" fill="#821313" style="-inkscape-stroke:none"/><path d="m11.264 10.034-0.234 0.234c-0.032 0.032-0.032 0.07 0 0.102l1.197 1.199a1.707 1.707 0 0 0 2.406 0l1.251-1.25-0.285-0.285-1.251 1.25a1.3 1.3 0 0 1-1.836 0zm2.166 2.877c-0.438 0-0.873 0.163-1.204 0.494l-1.028 1.029a0.308 0.308 0 0 0 0 0.441l0.052 0.053c0.01 0.01 0.014 0.01 0.024 0l1.238-1.238a1.3 1.3 0 0 1 1.836 0l1.107 1.107a0.197 0.197 0 0 0 0.285 0v-2e-3l0.142-0.143-1.25-1.247a1.692 1.692 0 0 0-1.202-0.494z" fill="#821313" style="-inkscape-stroke:none"/></svg>
