<svg width="16" height="16" version="1.1" viewBox="0 0 16 16" xml:space="preserve" xmlns="http://www.w3.org/2000/svg"><path d="m7.0449 0.83594c-2.0808 1.1e-7 -3.7773 1.6985-3.7773 3.7793 0 0.64449 0.23234 1.3841 0.50586 1.9785 0.18506 0.40218 0.66812 0.51536 1.0176 0.2832 0.11006-0.073114 0.13952-0.22133 0.074219-0.33594-0.27553-0.4836-0.59766-1.2648-0.59766-1.9258 0-1.5403 1.237-2.7793 2.7773-2.7793 1.5403-3e-7 2.7793 1.239 2.7793 2.7793 0 1.5403-1.2398 3.3379-2.7793 3.377-2.9973 0.076117-5.7594 1.3517-6.7363 3.4473-0.2252 0.48309-0.30737 1.0889-0.30859 1.5586v0.001953c-0.002844 1.0977 0.89646 2 1.9941 2h8.9766v-0.96484h-1.2754c-0.095068 0-0.18745-0.012877-0.27734-0.035156h-7.4238c-0.55633-1e-6 -0.99558-0.44172-0.99414-0.99805 7.86e-4 -0.30343 0.11352-0.92326 0.21484-1.1406 0.84201-1.8062 3.1276-2.7076 5.8301-2.8691 2.0806 4.575e-4 3.7793-2.2962 3.7793-4.377 0-2.0808-1.6985-3.7793-3.7793-3.7793zm-2.0156 6.1484a0.088621 0.082094 41.263 0 0-0.050781 0.025391 0.088621 0.082094 41.263 0 0 0.011719 0.12109 0.088621 0.082094 41.263 0 0 0.12109-0.0039063 0.088621 0.082094 41.263 0 0 0.0019531-0.0019531 0.088621 0.082094 41.263 0 0 0.0039063-0.0058594 0.088621 0.082094 41.263 0 0 0.0039063-0.0058594 0.088621 0.082094 41.263 0 0 0-0.080078 0.088621 0.082094 41.263 0 0-0.013672-0.017578 0.088621 0.082094 41.263 0 0-0.0058594-0.0058594 0.088621 0.082094 41.263 0 1-0.0019531-0.0019531 0.088621 0.082094 41.263 0 0-0.070312-0.023438zm5.3906 1.8477c-0.25974-0.0047999-0.51016 0.1466-0.62109 0.40039l-0.0019531 0.0058593c-0.071736 0.16412 0.0023098 0.35434 0.16602 0.42578 0.35833 0.15638 0.69379 0.30902 1.0078 0.47461v-0.41211c0-0.22364 0.06183-0.43408 0.16797-0.61719-0.14966-0.074351-0.30382-0.1468-0.46094-0.21875-0.083939-0.038439-0.17123-0.056994-0.25781-0.058594zm-0.41016 0.54688a0.088621 0.082094 41.263 0 1 0.068359 0.023438 0.088621 0.082094 41.263 0 1 0.021484 0.025391 0.088621 0.082094 41.263 0 1 0 0.080078 0.088621 0.082094 41.263 0 1-0.001953 0.0019531 0.088621 0.082094 41.263 0 1-0.003906 0.0058594 0.088621 0.082094 41.263 0 1-0.003906 0.0058594 0.088621 0.082094 41.263 0 1-0.12109 0.0039062 0.088621 0.082094 41.263 0 1-0.011719-0.12109 0.088621 0.082094 41.263 0 1 0.052735-0.025391z" color="#000000" fill="#786d7d" stroke-linejoin="round" style="-inkscape-stroke:none"/><path d="m12.22 9.5068c-0.1215 0-0.22 0.098497-0.22 0.22v1.28c0 1.099 0.901 2 2 2h0.889c0.33722-5.51e-4 0.61045-0.27378 0.611-0.611v-0.075c0-0.17342-0.14058-0.314-0.314-0.314h-1.186c-0.558 0-1-0.442-1-1v-1c0-0.27614-0.22386-0.5-0.5-0.5zm-2.466 2.5c-0.14028 0-0.254 0.11372-0.254 0.254v0.55c0 0.109 0.087 0.196 0.195 0.196h1.305c0.558 0 1 0.442 1 1v1.211c0 0.16 0.13 0.289 0.29 0.289h0.339c0.20513 5.55e-4 0.37156-0.16587 0.371-0.371v-1.129c0-1.099-0.901-2-2-2z" color="#000000" fill="#786d7d" style="-inkscape-stroke:none"/></svg>
