<svg width="16" height="16" version="1.1" viewBox="0 0 16 16" xml:space="preserve" xmlns="http://www.w3.org/2000/svg"><defs><style id="current-color-scheme" type="text/css">
      .ColorScheme-Text {
        color:#232629;
      }
      </style><style type="text/css">
      .ColorScheme-Text {
        color:#232629;
      }
      </style></defs><path d="m8.5 2c-3.5899 0-6.5 2.9101-6.5 6.5 0 3.5899 2.9101 6.5 6.5 6.5 0.72976-5e-3 1.4529-0.13294 2.1393-0.37784 0.11141-0.03975 0.1327-0.1431 0.04906-0.22674l-0.44786-0.44786c-0.10156-0.10156-0.2952-0.14948-0.43446-0.11437-0.4268 0.10762-0.86529 0.1637-1.3061 0.1668-3.0376 0-5.5-2.4624-5.5-5.5 0-3.0376 2.4624-5.5 5.5-5.5 3.0376 0 5.5 2.4624 5.5 5.5-1.86e-4 1.2293-0.41194 2.4162-1.1589 3.3764-0.23179 0.29793-0.23588 0.72884 0.0312 0.99592l0.03713 0.03713c0.09642 0.09642 0.25334 0.09694 0.34629-0.0028 1.1132-1.1947 1.7382-2.7676 1.7443-4.4066 0-3.5899-2.9101-6.5-6.5-6.5zm-0.5 3.3053v2.6947h-2.3555a0.64449 0.64449 135 0 0-0.6445 0.6445v0.21117a0.14433 0.14433 45 0 0 0.14433 0.14433h2.8557v2.6947a0.30526 0.30526 45 0 0 0.30526 0.30526h0.050243a0.64449 0.64449 135 0 0 0.6445-0.6445v-2.3555h2.3555a0.64449 0.64449 135 0 0 0.6445-0.6445v-0.050243a0.30526 0.30526 45 0 0-0.30526-0.30526h-2.6947v-2.6947a0.30526 0.30526 45 0 0-0.30526-0.30526h-0.38948a0.30526 0.30526 135 0 0-0.30526 0.30526zm3.5 7.6947c-0.27614 0-0.5 0.22386-0.5 0.5s0.22386 0.5 0.5 0.5 0.5-0.22386 0.5-0.5-0.22386-0.5-0.5-0.5z" fill="#786d7d" stroke-linejoin="round" stroke-width=".964"/></svg>
