<svg width="16" height="16" version="1.1" viewBox="0 0 16 16" xml:space="preserve" xmlns="http://www.w3.org/2000/svg"><defs><style id="current-color-scheme" type="text/css">
      .ColorScheme-Text {
        color:#232629;
      }
      </style><style type="text/css">
      .ColorScheme-Text {
        color:#232629;
      }
      </style></defs><path d="m8.5332 2c-3.5899 0-6.5 2.9101-6.5 6.5 0 3.5899 2.9101 6.5 6.5 6.5 0.72976-5e-3 1.4523-0.13205 2.1387-0.37695 0.11141-0.03975 0.13247-0.14488 0.048828-0.22852l-0.44726-0.44726c-0.10156-0.10156-0.29433-0.14839-0.43359-0.11328-0.4268 0.10762-0.86583 0.16292-1.3066 0.16602-3.0376 0-5.5-2.4624-5.5-5.5s2.4624-5.5 5.5-5.5 5.5 2.4624 5.5 5.5c-1.86e-4 1.2293-0.41124 2.4168-1.1582 3.377-0.23179 0.29793-0.23583 0.72901 0.03125 0.99609l0.037109 0.037109c0.09642 0.09642 0.25275 0.095834 0.3457-0.003906 1.1132-1.1947 1.738-2.7673 1.7441-4.4062 0-3.5899-2.9101-6.5-6.5-6.5zm2.9414 11c-0.26418 0.013392-0.47461 0.23249-0.47461 0.5 0 0.27614 0.22386 0.5 0.5 0.5s0.5-0.22386 0.5-0.5-0.22386-0.5-0.5-0.5c-0.008629 0-0.016869-4.32e-4 -0.025391 0z" fill="#786d7d"/><path d="m5.6445 8c-0.35595-5.5e-6 -0.64451 0.28855-0.6445 0.6445v0.21117c0 0.079711 0.064619 0.14433 0.14433 0.14433l6.2112-4e-5c0.35595 5.5e-6 0.64451-0.28855 0.6445-0.6445v-0.050243c0-0.16859-0.13667-0.30526-0.30526-0.30526z" fill="#821313"/></svg>
