<svg width="16" height="16" version="1.1" viewBox="0 0 16 16" xmlns="http://www.w3.org/2000/svg">
 <path d="m8.0059 2c-1.6628 0-3 1.3372-3 3v3h-0.5c-0.27614 0-0.5 0.22386-0.5 0.5v2h-1v1.5h1v1c0 0.5582 0.4418 1 1 1h6c0.5582 0 1-0.4418 1-1v-5c-0.55228 0-1-0.44772-1-1v-2c0-1.6628-1.3372-3-3-3zm0 1c1.0986 0 2 0.90136 2 2v2c0 0.55228-0.44772 1-1 1h-3v-3c0-1.0986 0.90136-2 2-2z" fill="#786d7d" opacity=".15994" stroke-linecap="round" stroke-linejoin="round" stroke-width=".012055"/>
 <path d="m8.0059 1c-2.2032 0-4 1.7968-4 4v2.0879c-0.56728 0.20107-0.97766 0.73213-0.99805 1.3633-8.3e-4 0.0078-0.00149 0.015607-0.00195 0.023437-1.43e-4 0.00851 0 0.016851 0 0.025391v2c0 0.5-0.00586 0.5 0.5 0.5 0.27614 0 0.5-0.22386 0.5-0.5v-2c0-0.27614 0.22386-0.5 0.5-0.5h0.5v-3c0-1.6628 1.3372-3 3-3 1.6628 0 3 1.3372 3 3v2c0 0.55228 0.44772 1 1 1v5c0 0.5582-0.4418 1-1 1h-6c-0.5582 0-1-0.4418-1-1v-1c0-0.5-0.00586-0.5-0.5-0.5-0.27614 0-0.5 0.22386-0.5 0.5v1c0 1.0986 0.90136 2 2 2h6c1.0986 0 2-0.90136 2-2v-5c0-0.55228-0.44772-1-1-1v-2c0-2.2032-1.7968-4-4-4zm0 2c-1.0986 0-2 0.90136-2 2v3h3c0.55228 0 1-0.44772 1-1v-2c0-1.0986-0.90136-2-2-2zm0 1c0.5582 0 1 0.4418 1 1v2h-2v-2c0-0.5582 0.4418-1 1-1z" color="#000000" fill="#786d7d" style="-inkscape-stroke:none"/>
</svg>
