<svg width="16" height="16" version="1.1" xml:space="preserve" xmlns="http://www.w3.org/2000/svg"><g fill="#786d7d"><path d="m4.8691 1.0117c-0.31508 0.0040805-0.63405 0.048283-0.94922 0.13672-1.7251 0.48406-2.9212 2.0626-2.9199 3.8516 0 3.4798 2.5941 7.7677 5.9102 9.7168 0.33372 0.19615 0.71276 0.26769 1.0918 0.26758 0.37903-1.09e-4 0.76013-0.0712 1.0938-0.26758 3.3119-1.9495 5.9043-6.2379 5.9043-9.7168 0-1.7968-1.2035-3.3773-2.9355-3.8555-1.7435-0.48135-3.4999 0.45286-4.4766 1.873l-1.2438 1.8086c-0.61691 0.89707 0.055808 2.1738 1.1445 2.1738h1.1227c1.0896 0 1.763-1.276 1.1484-2.1758l-0.44922-0.6582c-0.074582-0.10872-0.23539-0.1077-0.30859 0.0019532l-0.11133 0.16602c-0.20064 0.3033-0.19755 0.69792 0.00781 0.99805l0.037109 0.056641c0.19344 0.28323 0.018762 0.61133-0.32422 0.61133h-1.1227c-0.34104 0-0.51356-0.32641-0.32031-0.60742l1.2438-1.8086c0.77487-1.1268 2.14-1.8208 3.3867-1.4766 1.303 0.35973 2.2012 1.5409 2.2012 2.8926 0 2.9538-2.4742 7.1261-5.4121 8.8555-0.11489 0.06763-0.3499 0.12884-0.58594 0.12891-0.23604 6.8e-5 -0.471-0.06135-0.58594-0.12891-2.9419-1.7292-5.416-5.9008-5.416-8.8555v-0.00195c-9.944e-4 -1.3442 0.89173-2.5226 2.1895-2.8867 0.69933-0.19623 1.4336-0.094596 2.0742 0.23242 0.33444 0.17073 0.76303 0.13396 1-0.1582l0.085938-0.10742c0.062387-0.076918 0.050171-0.18895-0.029297-0.24805-0.4542-0.33775-0.97257-0.5854-1.5215-0.71484-0.30343-0.071555-0.61461-0.1076-0.92969-0.10352zm4.2851 3.2037c0.031072-1.42e-5 0.056264 0.025178 0.056249 0.056249 1.41e-5 0.031072-0.025178 0.056264-0.056249 0.056249-0.031072 1.42e-5 -0.056264-0.025178-0.056249-0.056249-1.41e-5 -0.031072 0.025178-0.056264 0.056249-0.056249z" color="#000000" fill="#786d7d" stroke-linejoin="round" style="-inkscape-stroke:none"/></g></svg>
