<?xml version="1.0" encoding="UTF-8" standalone="no"?>
<svg
   width="16"
   height="16"
   version="1.1"
   xml:space="preserve"
   id="svg4"
   xmlns="http://www.w3.org/2000/svg"
   xmlns:svg="http://www.w3.org/2000/svg"><defs
     id="defs8"><clipPath
       clipPathUnits="userSpaceOnUse"
       id="clipath_lpe_path-effect481"><circle
         style="display:none;fill:#c8c8c8;fill-opacity:1;stroke:none;stroke-width:0.1;stroke-linecap:square;stroke-miterlimit:4;stroke-dasharray:none;stroke-opacity:1"
         id="circle487"
         cx="-79"
         cy="120"
         r="8" /></clipPath><clipPath
       clipPathUnits="userSpaceOnUse"
       id="clipath_lpe_path-effect485"><rect
         style="display:block;fill:#c8c8c8;fill-opacity:1;stroke:none;stroke-width:0.2;stroke-linecap:square;stroke-miterlimit:4;stroke-dasharray:none;stroke-opacity:1"
         id="rect492"
         width="16"
         height="16"
         x="-87"
         y="112" /></clipPath><style
       id="current-color-scheme"
       type="text/css">.ColorScheme-Text {
        color:#232629;
      }
      .ColorScheme-NegativeText {
        color:#da4453;
      }</style></defs><path
     id="path2"
     style="fill:#786d7d;fill-opacity:1;-inkscape-stroke:none"
     d="M 8.5,0.5 C 8.0313805,0.5 7.5623658,0.63948903 7.1601562,0.91796875 L 2.2695312,3.9570312 C 1.474412,4.5075007 1,5.4138603 1,6.3808594 V 12.5 C 1,13.874799 2.1252014,15 3.5,15 h 0.6074219 c 0.2407197,-1.6e-4 0.4607195,-0.136243 0.5683593,-0.351562 l 0.082031,-0.166016 C 4.8678724,14.261302 4.7079223,14.0014 4.4609375,14 H 3.5 C 2.6656508,14 2,13.334349 2,12.5 V 6.3808594 C 2,5.74086 2.3136443,5.1435965 2.8398438,4.7792969 L 5.8091682,2.9344421 C 6.4679251,2.5251534 7.1490968,1.4102597 7.8449575,1.11583 8.0217399,1.0410305 8.2333659,1.0053302 8.5,1 8.7397972,1 8.9679819,1.0589889 9.1707074,1.1629955 9.7996779,1.4856834 10.463154,2.481997 11.08267,2.8669611 l 3.077486,1.9123358 C 14.686356,5.1435865 15,5.74082 15,6.3808594 V 12.5 C 15,13.334349 14.334349,14 13.5,14 H 6.2675781 c -0.2772697,-5e-5 -0.5217626,0.181726 -0.6015625,0.447266 L 5.5605469,14.800781 C 5.5306269,14.900181 5.6051825,15.00024 5.7089844,15 H 13.5 C 14.874799,15 16,13.874799 16,12.5 V 6.3808594 C 16,5.4137903 15.525558,4.5074307 14.730469,3.9570312 L 9.8398438,0.91796875 C 9.4375942,0.63948903 8.9685795,0.5 8.5,0.5 Z M 3.9003906,6.4765625 C 3.6594309,6.4706326 3.4197011,6.582129 3.2695312,6.7929688 c -0.0801,0.1124698 -0.05382,0.2674763 0.058594,0.3476562 0.9248991,0.6596993 3.0269728,1.8081507 3.9511719,2.46875 0.6739993,0.4817 1.7675069,0.48179 2.4414062,0 0.9240987,-0.6606993 3.0338847,-1.8093507 3.9589847,-2.46875 0.112429,-0.08014 0.138673,-0.2352264 0.05859,-0.3476562 -0.15019,-0.2108598 -0.390269,-0.3205432 -0.630859,-0.3144532 -0.14436,0.00365 -0.289576,0.048447 -0.416016,0.1386719 -0.649729,0.4636638 -1.692844,1.124182 -2.680767,1.7228537 C 9.5096356,8.6213941 8.8837643,9.029726 8.4816018,9.0061705 8.165297,8.9876439 7.8539606,8.8503263 7.5329945,8.6335381 7.3412217,8.5040102 7.037055,8.2850298 6.8384633,8.1660072 5.9298836,7.6214655 4.8777789,7.0177978 4.3164062,6.6171875 4.1899564,6.5269736 4.0449705,6.4801225 3.9003906,6.4765625 Z m 1.515625,8.4277345 -0.00195,0.002 h -0.00195 l -0.00195,0.002 H 5.40625 l -0.00195,0.002 H 5.40235 l -0.00195,0.002 v 0.002 H 5.39845 l -0.00195,0.002 v 0.002 H 5.39455 l -0.00195,0.002 v 0.002 l -0.00391,0.0039 v 0.0039 l -0.00195,0.002 v 0.0078 l -0.00195,0.002 v 0.002 c 6.1e-4,0.02092 0.018023,0.03746 0.039063,0.03711 0.02104,3.5e-4 0.038456,-0.01619 0.039063,-0.03711 5.911e-4,-0.01894 -0.012687,-0.03561 -0.03125,-0.03906 h -0.00195 c -0.00147,-5.6e-5 -0.00436,-1.13e-4 -0.00586,0 h -0.00586 z" /><g
     id="g292"
     transform="translate(-3.994141,-7.4882806)"><path
       id="path8569"
       style="fill:#821313;fill-opacity:1;-inkscape-stroke:none"
       d="m 12.214844,9.4882812 c -0.121113,-1.2e-6 -0.220152,0.097638 -0.220703,0.21875 v 1.2812498 c 0,1.099999 0.900001,2 2,2 h 0.888671 c 0.336828,-5.49e-4 0.610229,-0.274501 0.611329,-0.611328 v -0.07422 c 0,-0.173416 -0.141037,-0.314453 -0.314453,-0.314453 h -1.185547 c -0.558,0 -1,-0.442 -1,-1 V 9.9882812 c 0,-0.2761421 -0.223859,-0.5 -0.5,-0.5 z M 9.7480469,11.988281 c -0.1402802,0 -0.2539063,0.113627 -0.2539063,0.253907 v 0.550781 c 0,0.109 0.087313,0.195312 0.1953125,0.195312 h 1.3046879 c 0.558999,0 1,0.442001 1,1 v 1.210938 c 0,0.16 0.129062,0.289062 0.289062,0.289062 h 0.339844 c 0.204737,10e-7 0.371647,-0.166358 0.371094,-0.371093 v -1.128907 c 0,-1.098999 -0.901001,-2 -2,-2 z" /><g
       fill="#786d7d"
       id="g30783"
       transform="translate(0.99355993,1.988818)" /></g></svg>
