<svg width="16" height="16" version="1.1" xml:space="preserve" xmlns="http://www.w3.org/2000/svg"><g fill="#786d7d"><path d="m2.5 1c-1.3748 0-2.5 1.1252-2.5 2.5v7c0 1.3748 1.1252 2.5 2.5 2.5h5.4793a0.4855 0.4855 140.96 0 0 0.47505-0.3853l0.053483-0.25355a0.29937 0.29937 50.956 0 0-0.29292-0.36116h-5.7149c-0.83435 0-1.5-0.66565-1.5-1.5v-7c0-0.83435 0.66565-1.5 1.5-1.5h9c0.83435 0 1.5 0.66565 1.5 1.5v0.58398c0.02423-0.00296 0.04787-0.00795 0.07227-0.00977 0.07017-0.00523 0.15102-0.00502 0.23633 0.00195 0.15829 0.012747 0.31677 0.052219 0.45312 0.10742 2e-3 6.452e-4 0.0039 0.0013 0.0059 0.00195 0.081767 0.033798 0.15881 0.076616 0.23238 0.12306v-0.80859c0-1.3748-1.1252-2.5-2.5-2.5zm8.5996 2.6758c-0.14458 0.00356-0.28956 0.050411-0.41602 0.14062-0.86672 0.61842-2.4108 1.725-3.2773 2.3438-0.22473 0.16046-0.58776 0.16046-0.8125 0-0.86654-0.61868-2.4185-1.7253-3.2852-2.3438-0.12644-0.090227-0.27166-0.13502-0.41602-0.13867-0.24059-0.00609-0.48067 0.10359-0.63086 0.31445-0.080073 0.11243-0.05384 0.26752 0.058594 0.34766 0.92507 0.65936 2.5349 1.8081 3.459 2.4688 0.36058 0.25778 0.84122 0.37728 1.3135 0.359 0.33843-0.013099 0.63606-0.38833 0.80496-0.68068 0.19522-0.33788 0.51353-0.60527 0.91868-0.71153l0.050126-0.013037a0.67822 0.67822 135 0 0 0.48566-0.48566l0.013037-0.050127v-0.00195c0.24858-0.96156 1.3883-1.4177 2.2598-0.94141 0.19904 0.10878 0.14512-0.25168 0.10547-0.29102-0.15017-0.21084-0.3899-0.32234-0.63086-0.31641z" style="-inkscape-stroke:none"/><path d="m5.5508 7.5938c-0.13532 0.00703-0.26729 0.042197-0.36719 0.11133l-3.4629 2.3965-0.0019531 0.001954c-0.1038 0.07355-0.21381 0.13778-0.32812 0.19141-0.061709 0.02895-0.11328 0.1037-0.11328 0.17188v0.033203c0 0.21578 0.052662 0.4159 0.14648 0.58984 0.066848 0.12393 0.25285 0.1725 0.38086 0.11328 0.17175-0.07946 0.33632-0.17463 0.49219-0.28516l4.207-2.9141c0.12343-0.085496 0.10043-0.16455-0.046875-0.19336-0.17766-0.03475-0.35077-0.08692-0.51953-0.15625-0.11224-0.046112-0.25139-0.067576-0.38672-0.060547zm2.2129 0.18359c-0.047995 0.012065-0.096074 0.023725-0.14453 0.033203-0.14731 0.028812-0.16836 0.10786-0.044922 0.19336l0.48438 0.33398-0.17773-0.29883a1.0353 1.0353 0 0 0 0-0.0019531c-0.049198-0.084038-0.086384-0.17111-0.11719-0.25977z" opacity=".11387" style="-inkscape-stroke:none"/><path d="m13.139 4.9707c-0.0972 0.00725-0.19382 0.037196-0.2793 0.087891l-0.8418 0.49414-0.8457-0.49219c-0.36136-0.21106-0.83276-0.016484-0.9375 0.38867a0.13672 0.13672 0 0 0 0 0.00195l-0.24414 0.94727-0.94727 0.24609c-0.40418 0.106-0.59782 0.5769-0.38672 0.9375l0.49609 0.8457-0.49219 0.8457h0.00195c-0.21096 0.36036-0.01695 0.82968 0.38672 0.93555l0.94922 0.24609 0.24609 0.94531c0.10555 0.40587 0.58033 0.60001 0.94141 0.38672l0.8418-0.49609 0.84375 0.49414c0.36109 0.2128 0.83439 0.01649 0.93945-0.38867v-2e-3l0.24414-0.94726 0.94726-0.25c0.40199-0.1063 0.59743-0.57373 0.38867-0.93359a0.13672 0.13672 0 0 0-2e-3 0l-0.49605-0.84566 0.49219-0.8457c0.21106-0.36136 0.01648-0.83276-0.38867-0.9375a0.13672 0.13672 0 0 0-2e-3 0l-0.94531-0.24414-0.25-0.94727c-0.050311-0.19301-0.18863-0.35159-0.373-0.42773a0.13672 0.13672 0 0 0-2e-3 0c-0.05933-0.024017-0.12217-0.039834-0.1875-0.044922-0.03357-0.00274-0.06628-0.00234-0.09766 0zm-0.35742 1.6055 0.13086 0.49609c0.05789 0.22163 0.23034 0.39688 0.45312 0.45508l0.5 0.13086-0.25781 0.44141c-0.11547 0.19797-0.11549 0.44264 0 0.64062a0.13672 0.13672 0 0 0 0 0.00195l0.25977 0.43946-0.49805 0.13086c-0.22099 0.059023-0.39398 0.23371-0.45117 0.45508l-0.12891 0.49609-0.44531-0.25977c-0.19796-0.11446-0.44348-0.11225-0.64062 0.0039l-0.43945 0.25977-0.13086-0.49805c-0.058986-0.22183-0.23409-0.39371-0.45508-0.45117l-0.49609-0.13086 0.25586-0.43945a0.13672 0.13672 0 0 0 2e-3 0c0.11536-0.1985 0.11226-0.44473-0.0039-0.64258v-0.00195l-0.25787-0.43946 0.49609-0.13281c0.22255-0.058133 0.39694-0.23253 0.45508-0.45508l0.12891-0.49414 0.44141 0.25586v-0.00195c0.19754 0.11522 0.44113 0.11522 0.63867 0zm-2.9238 4.5273c-0.097784 0.0023-0.18857 0.07973-0.20703 0.17578l-0.74023 3.543c-0.09026 0.45605 0.11978 0.89572 0.45703 1.1309 0.33725 0.23515 0.82186 0.28156 1.2188 0.03906a0.13672 0.13672 0 0 0 0.01758-0.01172l0.81445-0.67383c0.36768-0.22085 0.82485-0.22034 1.1934 0l0.79297 0.6582a0.13672 0.13672 0 0 0 0.01758 0.01172c0.39749 0.24172 0.88292 0.19647 1.2207-0.03906 0.33786-0.23559 0.5464-0.67464 0.45703-1.1309a0.13672 0.13672 0 0 0 0-2e-3l-0.7207-3.4766c-0.01914-0.09375-0.1094-0.16865-0.20508-0.16992-0.09568-0.0013-0.18735 0.07085-0.20898 0.16406l-0.02734 0.10742c-0.0589 0.22537-0.234 0.42603-0.44922 0.51562-0.16749 0.06972-0.23404 0.25941-0.19531 0.44336l0.4707 2.2383-0.4668-0.39258a0.13672 0.13672 0 0 0-0.01758-0.01172c-0.77655-0.47224-1.7556-0.47211-2.5312 2e-3a0.13672 0.13672 0 0 0-0.01563 0.01172l-0.48633 0.40625 0.5-2.3496c0.0312-0.14673-0.04618-0.28952-0.17774-0.34375-0.21636-0.08917-0.39199-0.28954-0.45117-0.51562l-0.04492-0.16602v-2e-3c-0.02369-0.09314-0.11674-0.16324-0.21289-0.16211a0.13672 0.13672 0 0 0-0.00195 0z" stroke-linejoin="round"/></g></svg>
