<?xml version="1.0" encoding="UTF-8" standalone="no"?>
<svg
   width="16"
   height="16"
   version="1.1"
   xml:space="preserve"
   id="svg30908"
   sodipodi:docname="mail-mark-unread.svg"
   inkscape:version="1.2.2 (b0a8486541, 2022-12-01)"
   xmlns:inkscape="http://www.inkscape.org/namespaces/inkscape"
   xmlns:sodipodi="http://sodipodi.sourceforge.net/DTD/sodipodi-0.dtd"
   xmlns="http://www.w3.org/2000/svg"
   xmlns:svg="http://www.w3.org/2000/svg"><defs
     id="defs30912" /><sodipodi:namedview
     id="namedview30910"
     pagecolor="#ffffff"
     bordercolor="#666666"
     borderopacity="1.0"
     inkscape:showpageshadow="2"
     inkscape:pageopacity="0.0"
     inkscape:pagecheckerboard="0"
     inkscape:deskcolor="#d1d1d1"
     showgrid="false"
     inkscape:zoom="55.374003"
     inkscape:cx="2.9345901"
     inkscape:cy="7.0791342"
     inkscape:window-width="3840"
     inkscape:window-height="2137"
     inkscape:window-x="2560"
     inkscape:window-y="0"
     inkscape:window-maximized="1"
     inkscape:current-layer="svg30908" /><path
     d="m 12.50001,2 c 1.3748,0 2.5,1.1252 2.5,2.5 v 7 c 0,1.3748 -1.1252,2.5 -2.5,2.5 h -6.791 C 5.60521,14.000243 5.53065,13.90018 5.56057,13.80078 L 5.66604,13.44726 C 5.74584,13.18172 5.99033,12.99994 6.2676,12.99999 H 12.5 c 0.83435,0 1.5,-0.66565 1.5,-1.5 v -7 c 0,-0.83435 -0.66565,-1.5 -1.5,-1.5 h -9 c -0.83435,0 -1.5,0.66565 -1.5,1.5 v 7 c 0,0.83435 0.66565,1.5 1.5,1.5 h 0.96094 c 0.24699,0.0014 0.40693,0.2613 0.29687,0.48242 l -0.08203,0.16602 c -0.10764,0.21532 -0.32764,0.3514 -0.56836,0.35156 H 3.5 c -1.3748,0 -2.5,-1.1252 -2.5,-2.5 v -7 c 0,-1.3748 1.1252,-2.5 2.5,-2.5 z m -8.5996,2.6758 c 0.14458,0.00356 0.28957,0.050406 0.41602,0.14062 0.86672,0.61842 2.4108,1.725 3.2773,2.3438 0.22473,0.16046 0.58776,0.16046 0.8125,0 0.86654,-0.61868 2.4185,-1.7253 3.2852,-2.3438 0.12644,-0.090227 0.27166,-0.13502 0.41602,-0.13867 0.24059,-0.00609 0.48067,0.10359 0.63086,0.31445 0.08007,0.11243 0.05384,0.26752 -0.05859,0.34766 -0.92507,0.65936 -2.5349,1.8081 -3.459,2.4688 -0.67392,0.48179 -1.7674,0.4817 -2.4414,0 -0.92422,-0.66055 -2.5263,-1.8091 -3.4512,-2.4688 C 3.215706,5.259685 3.189426,5.10467 3.269526,4.9922 3.419696,4.78136 3.659426,4.66986 3.900386,4.67579 Z m 1.5293,9.2285 c 0.01949,0.0027 0.03381,0.01951 0.0332,0.03906 -6.07e-4,0.02092 -0.01802,0.03746 -0.03906,0.03711 -0.02104,3.54e-4 -0.03845,-0.01619 -0.03906,-0.03711 1.8e-5,-6.67e-4 1.8e-5,-0.0013 0,-0.002 6.91e-4,-6.42e-4 0.0014,-0.0013 0.002,-0.002 1.8e-5,-6.67e-4 1.8e-5,-0.0013 0,-0.002 1.8e-5,-6.67e-4 1.8e-5,-0.0013 0,-0.002 1.8e-5,-6.67e-4 1.8e-5,-0.0013 0,-0.002 1.8e-5,-6.67e-4 1.8e-5,-0.0013 0,-0.002 6.91e-4,-6.42e-4 0.0014,-0.0013 0.002,-0.002 1.8e-5,-6.67e-4 1.8e-5,-0.0013 0,-0.002 1.8e-5,-6.67e-4 1.8e-5,-0.0013 0,-0.002 6.91e-4,-6.42e-4 0.0014,-0.0013 0.002,-0.002 6.91e-4,-6.42e-4 0.0014,-0.0013 0.002,-0.002 1.8e-5,-6.67e-4 1.8e-5,-0.0013 0,-0.002 6.91e-4,-6.42e-4 0.0014,-0.0013 0.002,-0.002 6.67e-4,1.7e-5 0.0013,1.7e-5 0.002,0 1.8e-5,-6.67e-4 1.8e-5,-0.0013 0,-0.002 6.91e-4,-6.42e-4 0.0014,-0.0013 0.002,-0.002 6.67e-4,1.7e-5 0.0013,1.7e-5 0.002,0 1.8e-5,-6.67e-4 1.8e-5,-0.0013 0,-0.002 6.91e-4,-6.42e-4 0.0014,-0.0013 0.002,-0.002 6.67e-4,1.7e-5 0.0013,1.7e-5 0.002,0 6.91e-4,-6.42e-4 0.0014,-0.0013 0.002,-0.002 6.67e-4,1.7e-5 0.0013,1.7e-5 0.002,0 6.67e-4,1.7e-5 0.0013,1.7e-5 0.002,0 6.91e-4,-6.42e-4 0.0014,-0.0013 0.002,-0.002 6.67e-4,1.7e-5 0.0013,1.7e-5 0.002,0 6.91e-4,-6.42e-4 0.0014,-0.0013 0.002,-0.002 6.67e-4,1.7e-5 0.0013,1.7e-5 0.002,0 6.67e-4,1.7e-5 0.0013,1.7e-5 0.002,0 6.67e-4,1.7e-5 0.0013,1.7e-5 0.002,0 6.67e-4,1.7e-5 0.0013,1.7e-5 0.002,0 0.002,-1.5e-4 0.0039,-1.5e-4 0.0059,0 z"
     fill="#786d7d"
     style="-inkscape-stroke:none"
     id="path30904"
     sodipodi:nodetypes="csssccccssssssssccccsssccccccccccccsccccccccccccccccccccccccccccccccccccccc" /></svg>
