<svg width="16" height="16" version="1.1" xml:space="preserve" xmlns="http://www.w3.org/2000/svg"><g fill="#786d7d"><path d="m2.5 2c-1.3748 0-2.5 1.1252-2.5 2.5v7c0 1.3748 1.1252 2.5 2.5 2.5h5.791c0.064024 1.5e-4 0.11574-0.03907 0.13867-0.0918 0.017599-0.04046-0.00568-0.11034-0.025391-0.15039-0.071472-0.14526-0.13379-0.29492-0.1875-0.44922-0.023805-0.068388-0.081953-0.16765-0.14258-0.20703-0.099299-0.064495-0.21736-0.10156-0.3418-0.10156h-5.2324c-0.83435 0-1.5-0.66566-1.5-1.5v-7c0-0.83435 0.66565-1.5 1.5-1.5h9c0.83434 0 1.5 0.66565 1.5 1.5v4.2812c0 0.12055 0.09856 0.21929 0.21875 0.22852 0.05088 0.0039 0.10598 0.0096 0.16406 0.015625 0.34377 0.035614 0.61719-0.17913 0.61719-0.52539v-4c0-1.3748-1.1252-2.5-2.5-2.5zm8.5996 2.6758c-0.14458 0.00356-0.28957 0.050406-0.41602 0.14062-0.86672 0.61842-2.4108 1.725-3.2773 2.3438-0.22473 0.16046-0.58776 0.16046-0.8125 0-0.86653-0.61868-2.4185-1.7253-3.2852-2.3438-0.12644-0.090227-0.27166-0.13502-0.41602-0.13867-0.24059-0.00609-0.48067 0.10359-0.63086 0.31445-0.080073 0.11243-0.05384 0.26752 0.058594 0.34766 0.92507 0.65936 2.5349 1.8081 3.459 2.4688 0.67392 0.48179 1.7674 0.4817 2.4414 0 0.92422-0.66055 2.5263-1.8091 3.4512-2.4688 0.11241-0.080175 0.1387-0.23519 0.05859-0.34766-0.15016-0.21084-0.3899-0.32234-0.63086-0.31641z" style="-inkscape-stroke:none"/><path d="m5.5508 8.5938c-0.13532 0.00703-0.26729 0.042199-0.36719 0.11133l-3.4629 2.3965-0.00195 2e-3c-0.1038 0.07355-0.2138 0.13778-0.32812 0.19141-0.061709 0.02895-0.11328 0.1037-0.11328 0.17188v0.033157c0 0.21578 0.052661 0.4159 0.14648 0.58984 0.066848 0.12393 0.25285 0.1725 0.38086 0.11328 0.17175-0.07946 0.33632-0.17462 0.49219-0.28516l4.207-2.9141c0.12343-0.0855 0.10043-0.16455-0.046875-0.19336-0.17766-0.03475-0.35077-0.08692-0.51953-0.15625-0.11224-0.046112-0.25139-0.067576-0.38672-0.060547zm2.875 0c-0.10128 0.00532-0.20097 0.025963-0.28516 0.060547-0.16876 0.06933-0.34382 0.1215-0.52148 0.15625-0.14731 0.028812-0.16836 0.10786-0.044922 0.19336l2.3556 1.694c0.11959 0.0828 0.26752 0.04342 0.34009-0.08261 0.03838-0.06664 0.07869-0.1321 0.12079-0.1963 0.15313-0.23352 0.11144-0.52732-0.11338-0.69325l-1.3828-1.0207c-0.12487-0.086411-0.29995-0.1202-0.46875-0.11133z" color="#000000" opacity=".2" style="-inkscape-stroke:none"/><path d="m15.814 10.059c0.08564 0.08564 0.08663 0.22471 0.0014 0.31074l-3.0273 3.0273c-0.77782 0.77782-2.0506 0.77782-2.8284 0l-1.0284-1.0284c-0.23778-0.23856-0.2374-0.6256-1e-6 -0.86455l0.05248-0.05248c0.12262-0.12262 0.32208-0.12262 0.4447 0l1.2383 1.2383c0.39456 0.39456 1.0196 0.39456 1.4142 0l2.8284-2.8284c0.19526-0.19526 0.51184-0.19526 0.70711 0z" style="-inkscape-stroke:none"/></g></svg>
