<svg width="16" height="16" version="1.1" xml:space="preserve" xmlns="http://www.w3.org/2000/svg"><path d="m3.5 2c-1.3748 0-2.5 1.1252-2.5 2.5v7c0 1.3748 1.1252 2.5 2.5 2.5h2.5c2.2032 0 4-1.7968 4-4v-5c0-0.47828-0.30695-0.87591-0.69141-1.0352-0.38446-0.15925-0.88446-0.096004-1.2227 0.24219l-2.9434 2.9434c-0.46553 0.46553-0.46553 1.2337 0 1.6992l2.256 2.256a0.22359 0.22359 6.6711e-6 0 0 0.3162 0l0.033787-0.03379a0.72852 0.72852 90 0 0 1e-7 -1.0303l-1.8989-1.8989c-0.083379-0.083379-0.083379-0.20178 0-0.28516l2.9434-2.9434c0.053218-0.053218 0.084794-0.045281 0.13281-0.025391 0.048018 0.01989 0.074219 0.036067 0.074219 0.11133v5c0 1.6628-1.3372 3-3 3h-2.5c-0.83435 0-1.5-0.66565-1.5-1.5v-7c0-0.83435 0.66565-1.5 1.5-1.5h9c0.83435 0 1.5 0.66565 1.5 1.5v7c0 0.83435-0.66565 1.5-1.5 1.5h-1c-0.43991 0-0.8638-0.15112-1.2028-0.42495-0.08711-0.07037-0.21499-0.07137-0.29422 0.0079l-0.048432 0.04843c-0.2845 0.2845-0.28644 0.75614 0.058721 0.96086 0.44625 0.26464 0.95919 0.40777 1.4867 0.40777h1c1.3748 0 2.5-1.1252 2.5-2.5v-7c0-1.3748-1.1252-2.5-2.5-2.5z" color="#000000" fill="#786d7d" style="-inkscape-stroke:none"/></svg>
