<svg width="16" height="16" version="1.1" xml:space="preserve" xmlns="http://www.w3.org/2000/svg"><path d="m6.5 2c-1.3748 0-2.5 1.1252-2.5 2.5v7c0 0.0021-5.1e-6 0.0038 0 0.0059 6.753e-4 0.2741 0.27419 0.4941 0.54883 0.4941h0.45117c0.047462 0 0.073727-0.03644 0.060547-0.08203-0.038314-0.13252-0.060547-0.27242-0.060547-0.41797v-7c0-0.83435 0.66565-1.5 1.5-1.5h7c0.83435 0 1.5 0.66565 1.5 1.5v7c0 0.83435-0.66565 1.5-1.5 1.5h-11.639c-0.25439 4.39e-4 -0.4605 0.20655-0.46094 0.46094v0.04883c4.763e-4 0.27055 0.21968 0.48976 0.49023 0.49023h11.61c1.3748 0 2.5-1.1252 2.5-2.5v-7c0-1.3748-1.1252-2.5-2.5-2.5zm6.5996 2.6758c-0.14458 0.00356-0.28956 0.050411-0.41602 0.14062-0.72263 0.72263-1.486 1.5524-2.2773 2.3438-0.19526 0.19526-0.61972 0.19772-0.8125 0l-2.2852-2.3438c-0.10844-0.11122-0.27166-0.13502-0.41602-0.13867-0.24059-0.00609-0.48067 0.10359-0.63086 0.31445-0.080073 0.11243-0.05384 0.26752 0.058594 0.34766 0.80323 0.80323 1.6743 1.684 2.459 2.4688 0.58578 0.58578 1.8556 0.58579 2.4414 0 0.80261-0.80261 1.6466-1.6641 2.4512-2.4688 0.09763-0.097632 0.1387-0.23519 0.05859-0.34766-0.15017-0.21084-0.3899-0.32234-0.63086-0.31641zm-10.641 4.3242c-0.2533 4.529e-4 -0.45853 0.20568-0.45898 0.45898v0.375c1.92e-4 0.091608 0.074408 0.16582 0.16602 0.16602h1.0898c0.13473-2.575e-4 0.24388-0.10941 0.24414-0.24414v-0.51172c-2.575e-4 -0.13473-0.10941-0.24388-0.24414-0.24414zm-1 2c-0.2533 4.53e-4 -0.45853 0.20568-0.45898 0.45898v0.25195c3.036e-4 0.15952 0.12954 0.28876 0.28906 0.28906h1.9375c0.15123 5.12e-4 0.27395-0.12221 0.27344-0.27344v-0.50586c4.698e-4 -0.12208-0.098618-0.22117-0.2207-0.2207z" fill="#786d7d" style="-inkscape-stroke:none"/><circle cx=".5" cy="13.5" r=".5" fill="#786d7d" stroke-linejoin="round" stroke-width=".964"/></svg>
