<svg width="16" height="16" version="1.1" xml:space="preserve" xmlns="http://www.w3.org/2000/svg"><g fill="#786d7d"><path d="m2.5 2c-1.3748 0-2.5 1.1252-2.5 2.5v7c0 1.3748 1.1252 2.5 2.5 2.5h5.5482a0.17424 0.17424 128.46 0 0 0.16972-0.21369l-0.083152-0.35776a0.55395 0.55395 38.458 0 0-0.53957-0.42855h-5.0952c-0.83435 0-1.5-0.66565-1.5-1.5v-7c0-0.83435 0.66565-1.5 1.5-1.5h9c0.83435 0 1.5 0.66565 1.5 1.5v3.2715a0.32337 0.32337 51.436 0 0 0.25133 0.31525l0.49733 0.11365a0.20554 0.20554 141.44 0 0 0.25133-0.20038v-3.5c0-1.3748-1.1252-2.5-2.5-2.5zm8.5996 2.6758c-0.14458 0.00356-0.28956 0.050411-0.41602 0.14062-0.86672 0.61842-2.4108 1.725-3.2773 2.3438-0.22473 0.16046-0.58776 0.16046-0.8125 0-0.86654-0.61868-2.4185-1.7253-3.2852-2.3438-0.12644-0.090227-0.27166-0.13502-0.41602-0.13867-0.24059-0.00609-0.48067 0.10359-0.63086 0.31445-0.080073 0.11243-0.05384 0.26752 0.058594 0.34766 0.92507 0.65936 2.5349 1.8081 3.459 2.4688 0.67392 0.48179 1.7674 0.4817 2.4414 0 0.92422-0.66055 2.5263-1.8091 3.4512-2.4688 0.11241-0.080175 0.13869-0.23519 0.05859-0.34766-0.15017-0.21084-0.3899-0.32234-0.63086-0.31641z" style="-inkscape-stroke:none"/><path d="m5.5508 8.5938c-0.13532 0.00703-0.26729 0.042197-0.36719 0.11133l-3.4629 2.3965-0.0019531 0.001954c-0.1038 0.07355-0.21381 0.13778-0.32812 0.19141-0.061709 0.02895-0.11328 0.1037-0.11328 0.17188v0.033203c0 0.21578 0.052662 0.4159 0.14648 0.58984 0.066848 0.12393 0.25285 0.1725 0.38086 0.11328 0.17175-0.07946 0.33632-0.17463 0.49219-0.28516l4.207-2.9141c0.12343-0.085496 0.10043-0.16455-0.046875-0.19336-0.17766-0.03475-0.35077-0.08692-0.51953-0.15625-0.11224-0.046112-0.25139-0.067576-0.38672-0.060547zm2.875 0c-0.10128 0.00532-0.20097 0.025963-0.28516 0.060547-0.16876 0.06933-0.34382 0.1215-0.52148 0.15625-0.14731 0.028812-0.16836 0.10786-0.044922 0.19336l1.2754 0.88281a4.5 4.5 0 0 1 0.66797-0.75195l-0.62305-0.42969c-0.12487-0.086411-0.29995-0.1202-0.46875-0.11133z" opacity=".16" style="-inkscape-stroke:none"/><path d="m12.5 9a3.5 3.5 0 0 0-3.5 3.5 3.5 3.5 0 0 0 3.5 3.5 3.5 3.5 0 0 0 3.5-3.5 3.5 3.5 0 0 0-3.5-3.5zm0.5 1.0508a2.5 2.5 0 0 1 2 2.4492 2.5 2.5 0 0 1-2.5 2.5 2.5 2.5 0 0 1-2.5-2.5 2.5 2.5 0 0 1 2-2.4453v1.9453h1v-1.9492zm-1 2.9492v1h1v-1h-1z" stroke-linejoin="round" stroke-width="1.1327"/></g></svg>
