<svg width="16" height="16" version="1.1" xml:space="preserve" xmlns="http://www.w3.org/2000/svg"><path d="m8 0.5c-0.46862 0-0.93759 0.13949-1.3398 0.41797l-4.3906 3.0391c-0.79512 0.55047-1.2695 1.4568-1.2695 2.4238v6.1191c0 1.3748 1.1252 2.5 2.5 2.5h0.60742c0.24072-1.6e-4 0.46072-0.13624 0.56836-0.35156l0.082031-0.16602c0.11006-0.22112-0.049885-0.48102-0.29687-0.48242h-0.96094c-0.83435 0-1.5-0.66565-1.5-1.5v-6.1191c0-0.64 0.31364-1.2373 0.83984-1.6016l4.3906-3.0391c0.46477-0.32176 1.0743-0.32176 1.5391 0l4.3906 3.0391c0.5262 0.36429 0.83984 0.96156 0.83984 1.6016v6.1191c0 0.83435-0.66565 1.5-1.5 1.5h-6.2324c-0.27727-5e-5 -0.52176 0.18173-0.60156 0.44727l-0.10547 0.35352c-0.02992 0.0994 0.044638 0.19946 0.14844 0.19922h6.791c1.3748 0 2.5-1.1252 2.5-2.5v-6.1191c0-0.96707-0.47441-1.8734-1.2695-2.4238l-4.3906-3.0391c-0.40225-0.27848-0.87122-0.41797-1.3398-0.41797zm-4.0996 5.1758c-0.24096-0.0059299-0.48069 0.10557-0.63086 0.31641-0.0801 0.11247-0.05382 0.26748 0.058594 0.34766 0.9249 0.6597 2.527 1.8082 3.4512 2.4688 0.674 0.4817 1.7675 0.48179 2.4414 0 0.9241-0.6607 2.5339-1.8094 3.459-2.4688 0.11243-0.08014 0.13867-0.23523 0.05859-0.34766-0.15019-0.21086-0.39027-0.32054-0.63086-0.31445-0.14436 0.00365-0.28958 0.048445-0.41602 0.13867-0.8667 0.6185-2.4186 1.7251-3.2852 2.3438-0.22474 0.16046-0.58777 0.16046-0.8125 0-0.8665-0.6188-2.4106-1.7253-3.2773-2.3438-0.12645-0.090214-0.27144-0.13706-0.41602-0.14062zm1.5156 9.2285-0.00195 2e-3h-0.00195l-0.00195 2e-3h-0.0039l-0.00195 2e-3h-0.00195l-0.00195 2e-3v2e-3h-0.00195l-0.00195 2e-3v2e-3h-0.00195l-0.00195 2e-3v2e-3l-0.0039 4e-3v4e-3l-0.00195 2e-3v8e-3l-0.00195 2e-3v2e-3c6.1e-4 0.02092 0.018023 0.03746 0.039063 0.03711 0.02104 3.5e-4 0.038456-0.01619 0.039063-0.03711 5.911e-4 -0.01894-0.012687-0.03561-0.03125-0.03906h-0.00195c-0.00147-5.6e-5 -0.00436-1.13e-4 -0.00586 0h-0.00585z" fill="#786d7d" style="-inkscape-stroke:none"/></svg>
