<svg width="16" height="16" version="1.1" xml:space="preserve" xmlns="http://www.w3.org/2000/svg"><g fill="#786d7d"><path d="m2.5 1c-1.3748 0-2.5 1.1252-2.5 2.5v7c0 1.3748 1.1252 2.5 2.5 2.5h5.4793a0.4855 0.4855 140.96 0 0 0.47505-0.3853l0.053483-0.25355a0.29937 0.29937 50.956 0 0-0.29292-0.36116h-5.7149c-0.83435 0-1.5-0.66565-1.5-1.5v-7c0-0.83435 0.66565-1.5 1.5-1.5h9c0.83435 0 1.5 0.66565 1.5 1.5v0.58398c0.02423-0.00296 0.04787-0.00795 0.07227-0.00977 0.07017-0.00523 0.15102-0.00502 0.23633 0.00195 0.15829 0.012747 0.31677 0.052219 0.45312 0.10742 2e-3 6.452e-4 0.0039 0.0013 0.0059 0.00195 0.081767 0.033798 0.15881 0.076616 0.23238 0.12306v-0.80859c0-1.3748-1.1252-2.5-2.5-2.5zm8.5996 2.6758c-0.14458 0.00356-0.28956 0.050411-0.41602 0.14062-0.86672 0.61842-2.4108 1.725-3.2773 2.3438-0.22473 0.16046-0.58776 0.16046-0.8125 0-0.86654-0.61868-2.4185-1.7253-3.2852-2.3438-0.12644-0.090227-0.27166-0.13502-0.41602-0.13867-0.24059-0.00609-0.48067 0.10359-0.63086 0.31445-0.080073 0.11243-0.05384 0.26752 0.058594 0.34766 0.92507 0.65936 2.5349 1.8081 3.459 2.4688 0.36058 0.25778 0.84122 0.37728 1.3135 0.359 0.33843-0.013099 0.63606-0.38833 0.80496-0.68068 0.19522-0.33788 0.51353-0.60527 0.91868-0.71153l0.050126-0.013037a0.67822 0.67822 135 0 0 0.48566-0.48566l0.013037-0.050127v-0.00195c0.24858-0.96156 1.3883-1.4177 2.2598-0.94141 0.19904 0.10878 0.14512-0.25168 0.10547-0.29102-0.15017-0.21084-0.3899-0.32234-0.63086-0.31641z" style="-inkscape-stroke:none"/><path d="m5.5508 7.5938c-0.13532 0.00703-0.26729 0.042197-0.36719 0.11133l-3.4629 2.3965-0.0019531 0.001954c-0.1038 0.07355-0.21381 0.13778-0.32812 0.19141-0.061709 0.02895-0.11328 0.1037-0.11328 0.17188v0.033203c0 0.21578 0.052662 0.4159 0.14648 0.58984 0.066848 0.12393 0.25285 0.1725 0.38086 0.11328 0.17175-0.07946 0.33632-0.17463 0.49219-0.28516l4.207-2.9141c0.12343-0.085496 0.10043-0.16455-0.046875-0.19336-0.17766-0.03475-0.35077-0.08692-0.51953-0.15625-0.11224-0.046112-0.25139-0.067576-0.38672-0.060547zm2.2129 0.18359c-0.047995 0.012065-0.096074 0.023725-0.14453 0.033203-0.14731 0.028812-0.16836 0.10786-0.044922 0.19336l0.48438 0.33398-0.17773-0.29883a1.0353 1.0353 0 0 0 0-0.0019531c-0.049198-0.084038-0.086384-0.17111-0.11719-0.25977z" opacity=".11387" style="-inkscape-stroke:none"/><path d="m13.154 5.1875c-0.06412 0.00478-0.12831 0.025807-0.18359 0.058594l-0.91211 0.53516a0.081213 0.081213 0 0 1-0.08203 0l-0.91406-0.5332c-0.241-0.14076-0.54733-0.014352-0.61719 0.25586l-0.26367 1.0254a0.081213 0.081213 0 0 1-0.05859 0.058594l-1.0254 0.26758c-0.26833 0.071556-0.39438 0.37723-0.25391 0.61719l0.53711 0.91406a0.081213 0.081213 0 0 1 0 0.082031l-0.53125 0.91406c-0.14055 0.24009-0.014704 0.54361 0.25391 0.61523l1.0254 0.26758a0.081213 0.081213 0 0 1 0.05859 0.05664l0.26758 1.0215a0.081213 0.081213 0 0 1 0 2e-3c0.0704 0.27072 0.3783 0.39618 0.61914 0.25391l0.91211-0.53716a0.081213 0.081213 0 0 1 0.08203 0l0.91406 0.53516c0.24151 0.14234 0.54754 0.01584 0.61719-0.25586l0.26562-1.0254a0.081213 0.081213 0 0 1 0.05664-0.05859l1.0234-0.27148c0.26866-0.071041 0.39522-0.37305 0.25586-0.61328l-0.53711-0.91406a0.081213 0.081213 0 0 1 0-0.082031l0.53321-0.91407c0.14076-0.241 0.01435-0.54733-0.25586-0.61719l-1.0234-0.26367a0.081213 0.081213 0 0 1-0.05859-0.056641l-0.27149-1.0254a0.081213 0.081213 0 0 1 0-0.00195c-0.03307-0.12673-0.12504-0.23125-0.24609-0.28125v0.00195c-0.0408-0.016517-0.08008-0.028041-0.12305-0.03125-0.02102-0.00172-0.04248-0.00164-0.06445 0zm-0.25391 1.1074a0.081213 0.081213 0 0 1 0.04687 0.052734l0.17578 0.66797c0.0382 0.14623 0.15158 0.26217 0.29688 0.30078l0.67383 0.17578a0.081213 0.081213 0 0 1 0.05078 0.11914l-0.34961 0.59766c-0.07589 0.13011-0.07589 0.29177 0 0.42188l0.35156 0.5957a0.081213 0.081213 0 0 1-0.04883 0.11914l-0.67188 0.17773c-0.14645 0.039115-0.25936 0.15195-0.29688 0.29883l-0.17383 0.66992a0.081213 0.081213 0 0 1-0.11914 0.05078l-0.60156-0.34961c-0.13068-0.07555-0.28988-0.07466-0.41992 2e-3l-0.59766 0.35156a0.081213 0.081213 0 0 1-0.11914-0.04883l-0.17577-0.67192c-0.038685-0.14548-0.15244-0.25881-0.29883-0.29688a0.081213 0.081213 0 0 1-2e-3 0l-0.66988-0.17578a0.081213 0.081213 0 0 1-0.048828-0.11914l0.34766-0.5957c0.07602-0.1308 0.07505-0.29359-2e-3 -0.42383l-0.34956-0.59766a0.081213 0.081213 0 0 1 0.048828-0.11914l0.66992-0.17773c0.14569-0.038056 0.26213-0.15337 0.30078-0.29883v-0.00195l0.17383-0.66602a0.081213 0.081213 0 0 1 0.11914-0.050781l0.59766 0.3457c0.13036 0.076037 0.28956 0.076037 0.41992 0l0.59961-0.34961a0.081213 0.081213 0 0 1 0.07227-0.00391zm-3.0371 5.0352-0.73828 3.5352c-0.072344 0.36552 0.10078 0.7244 0.36719 0.91016 0.26596 0.18544 0.66093 0.22435 0.97852 0.03125h2e-3l0.81641-0.67578a0.081213 0.081213 0 0 1 0.0078-0.0059c0.44071-0.26926 0.99451-0.27016 1.4355-2e-3a0.081213 0.081213 0 0 1 0.0098 0.0078l0.79297 0.6582c0.31871 0.19381 0.71579 0.15663 0.98242-0.0293 0.26659-0.1859 0.43894-0.54585 0.36719-0.91211l-0.71484-3.4492-0.02148 0.08398c-0.07646 0.29556-0.29444 0.54678-0.57617 0.66406-0.0409 0.01702-0.0877 0.09613-0.06641 0.19727l0.55274 2.625a0.081213 0.081213 0 0 1-0.13281 0.08008l-0.75976-0.63867c-4.99e-4 -3.03e-4 -0.0015 3.03e-4 -2e-3 0-0.70355-0.42709-1.587-0.43112-2.291-0.0059l-2e-3 2e-3 -0.78711 0.65625a0.081213 0.081213 0 0 1-0.13281-0.08008l0.58203-2.7363c0.0087-0.0408-0.01708-0.08262-0.04883-0.0957-0.28223-0.11623-0.50075-0.36454-0.5781-0.66006z" stroke-linejoin="round"/></g></svg>
