<?xml version="1.0" encoding="UTF-8" standalone="no"?>
<svg
   version="1.1"
   viewBox="0 0 16 16"
   xml:space="preserve"
   id="svg9"
   sodipodi:docname="mail-attachment.svg"
   inkscape:version="1.2.2 (b0a8486541, 2022-12-01)"
   xmlns:inkscape="http://www.inkscape.org/namespaces/inkscape"
   xmlns:sodipodi="http://sodipodi.sourceforge.net/DTD/sodipodi-0.dtd"
   xmlns="http://www.w3.org/2000/svg"
   xmlns:svg="http://www.w3.org/2000/svg"><sodipodi:namedview
     id="namedview11"
     pagecolor="#ffffff"
     bordercolor="#666666"
     borderopacity="1.0"
     inkscape:showpageshadow="2"
     inkscape:pageopacity="0.0"
     inkscape:pagecheckerboard="0"
     inkscape:deskcolor="#d1d1d1"
     showgrid="true"
     inkscape:zoom="48.004244"
     inkscape:cx="9.4783287"
     inkscape:cy="6.3327735"
     inkscape:window-width="2330"
     inkscape:window-height="1437"
     inkscape:window-x="2994"
     inkscape:window-y="277"
     inkscape:window-maximized="0"
     inkscape:current-layer="svg9"><inkscape:grid
       type="xygrid"
       id="grid397" /></sodipodi:namedview><defs
     id="defs5"><inkscape:path-effect
       effect="spiro"
       id="path-effect1144"
       is_visible="true"
       lpeversion="1" /><inkscape:path-effect
       effect="fillet_chamfer"
       id="path-effect1077"
       is_visible="true"
       lpeversion="1"
       nodesatellites_param="F,0,0,1,0,0,0,1 @ F,0,0,1,0,0,0,1 @ F,0,0,1,0,0,0,1 @ F,0,0,1,0,0,0,1 @ F,0,0,1,0,0,0,1 @ F,0,0,1,0,0,0,1 @ F,0,0,1,0,0,0,1 @ F,0,0,1,0,0.65050267,0,1 @ F,0,0,1,0,0.16727882,0,1 @ F,0,0,1,0,0,0,1 @ F,0,0,1,0,0,0,1 @ F,0,0,1,0,0,0,1 @ F,0,0,1,0,0,0,1 @ F,0,0,1,0,0,0,1 @ F,0,0,1,0,0,0,1 @ F,0,0,1,0,0,0,1 @ F,0,0,1,0,0,0,1 @ F,0,0,1,0,0,0,1 @ F,0,0,1,0,0,0,1 @ F,0,0,1,0,0,0,1 @ F,0,0,1,0,0,0,1 @ F,0,0,1,0,0.18643361,0,1 @ F,0,0,1,0,0.77251763,0,1 @ F,0,0,1,0,0,0,1 @ F,0,0,1,0,0,0,1 @ F,0,0,1,0,0,0,1 @ F,0,0,1,0,0,0,1 @ F,0,0,1,0,0,0,1 @ F,0,0,1,0,0,0,1 @ F,0,0,1,0,0,0,1 @ F,0,0,1,0,0,0,1"
       unit="px"
       method="auto"
       mode="F"
       radius="0"
       chamfer_steps="1"
       flexible="false"
       use_knot_distance="true"
       apply_no_radius="true"
       apply_with_radius="true"
       only_selected="false"
       hide_knots="false" /><inkscape:path-effect
       effect="fillet_chamfer"
       id="path-effect517"
       is_visible="true"
       lpeversion="1"
       nodesatellites_param="F,0,0,1,0,0,0,1 @ F,0,1,1,0,3.5237225,0,1 @ F,0,0,1,0,3.5237225,0,1 @ F,0,0,1,0,2.50801,0,1 @ F,0,0,1,0,2.50801,0,1 @ F,0,0,1,0,1.5505666,0,1 @ F,0,0,1,0,1.5505666,0,1 @ F,0,0,1,0,0,0,1"
       unit="px"
       method="auto"
       mode="F"
       radius="0"
       chamfer_steps="1"
       flexible="false"
       use_knot_distance="true"
       apply_no_radius="true"
       apply_with_radius="true"
       only_selected="false"
       hide_knots="false" /><style
       id="current-color-scheme"
       type="text/css">
      .ColorScheme-NegativeText {
        color:#da4453;
      }
      </style><style
       type="text/css"
       id="style3">
      .ColorScheme-NegativeText {
        color:#da4453;
      }
      </style></defs><path
     id="path466"
     style="color:#000000;fill:#786d7d;fill-opacity:1;-inkscape-stroke:none"
     d="M 8.9902344,0.5 C 7.3393087,0.50528958 5.9947104,1.8588401 6,3.5097656 V 10.449219 C 6,11.57579 6.9242103,12.5 8.0507812,12.5 h 0.00781 0.00977 C 9.1668479,12.462969 10.037031,11.530131 10,10.431641 V 5.1503906 C 9.9999381,4.7912154 9.7087846,4.5000619 9.3496094,4.5 H 9.1679688 C 9.0750436,4.4996159 8.9996159,4.5750436 9,4.6679688 v 5.7890622 0.0098 C 9.01872,11.02198 8.5947109,11.472443 8.0410156,11.496094 7.4603003,11.490057 7,11.031526 7,10.449219 V 3.5078125 3.5058594 C 6.9964441,2.3960227 7.8826143,1.5046008 8.9921875,1.5 10.1071,1.5 11,2.3929002 11,3.5078125 v 7.9707035 0.002 C 11.011266,13.142548 9.6833486,14.487689 8.0214844,14.5 6.3465204,14.49895 5,13.151783 5,11.476562 V 4.3855469 C 4.9995147,4.2832739 4.9167261,4.2004853 4.8144531,4.2 H 4.7734375 C 4.346069,4.1994908 3.9994908,4.546069 4,4.9734375 V 11.476562 C 4,13.692874 5.8071259,15.5 8.0234375,15.5 h 0.00195 0.00195 C 10.229223,15.485076 12.012751,13.677958 12,11.476562 v -0.0039 -7.9648435 C 12,1.8524548 10.647538,0.5 8.9921875,0.5 Z M 4.8066406,4.3054688 c 0.00455,-3.374e-4 0.00912,-3.374e-4 0.013672,0 0.050544,3.687e-4 0.091428,0.041252 0.091797,0.091797 -3.687e-4,0.050544 -0.041252,0.091428 -0.091797,0.091797 -0.051306,7.094e-4 -0.093379,-0.040488 -0.09375,-0.091797 -7.89e-5,-0.046341 0.034155,-0.085585 0.080078,-0.091797 z M 9.09375,4.0058594 c -0.05216,0.00765 -0.090584,0.052756 -0.089844,0.1054687 8.701e-4,0.057568 0.047894,0.1037217 0.1054688,0.1035157 0.057574,2.06e-4 0.1045987,-0.045947 0.1054688,-0.1035157 2.023e-4,-0.058332 -0.047136,-0.1056711 -0.1054688,-0.1054687 -0.0052,-3.877e-4 -0.010424,-3.877e-4 -0.015625,0 z"
     sodipodi:nodetypes="ccssccccccccccscccscccsccccssccccssccccccccccccc" /></svg>
