<svg width="16" height="16" version="1.1" xml:space="preserve" xmlns="http://www.w3.org/2000/svg"><path d="m2.5 2c-1.3748 0-2.5 1.1252-2.5 2.5v7c0 1.3748 1.1252 2.5 2.5 2.5h6.791c0.064024 1.5e-4 0.11574-0.03907 0.13867-0.0918 0.017599-0.04046-0.00568-0.11034-0.025391-0.15039-0.071472-0.14526-0.86048-0.028186-1.007-0.44922-0.023806-0.06839-0.081952-0.16766-0.14258-0.20703-0.099298-0.064499-0.21736-0.10156-0.3418-0.10156h-5.4129c-0.83435 0-1.5-0.66566-1.5-1.5v-7c0-0.83435 0.66565-1.5 1.5-1.5h9c0.83434 0 1.5 0.66565 1.5 1.5v2.834c0 0.12055 0.09821 0.22852 0.21875 0.22852 0.25304-0.00767 0.23108 0.47414 0.37109 0.45312 0.24018-0.051466 0.41016-0.24285 0.41016-0.51562v-3c0-1.3748-1.1252-2.5-2.5-2.5zm8.5996 2.6758c-0.14458 0.00356-0.28956 0.050411-0.41602 0.14062-0.86672 0.61842-2.4108 1.725-3.2773 2.3438-0.22473 0.16046-0.58776 0.16046-0.8125 0-0.86653-0.61868-2.4185-1.7253-3.2852-2.3438-0.12644-0.090227-0.27166-0.13502-0.41602-0.13867-0.24059-0.00609-0.48067 0.10359-0.63086 0.31445-0.080073 0.11243-0.05384 0.26752 0.058594 0.34766 0.92507 0.65936 2.5349 1.8081 3.459 2.4688 0.67392 0.48179 1.7674 0.4817 2.4414 0 0.92422-0.66055 2.5263-1.8091 3.4512-2.4688 0.11241-0.080175 0.1387-0.23519 0.05859-0.34766-0.15016-0.21084-0.3899-0.32234-0.63086-0.31641zm1.0996 3.459c-0.17267 0.015664-0.32701 0.12011-0.4043 0.2793l-0.54297 1.1211c-0.07332 0.12699-0.4158 0.17382-0.47461 0.41016-0.0585 0.26988 0.11294 0.53525 0.38281 0.59375l0.26367 0.05664c0.22539 0.04884 0.45394-0.06208 0.55469-0.26953l0.7168-1.4746c0.12062-0.24841 0.016-0.54735-0.23242-0.66797-0.05907-0.028679-0.12195-0.044936-0.1875-0.048828-0.02524-0.0015-0.05151-0.00224-0.07617 0zm-2.2813 1.0977c-0.06557 0.00344-0.13019 0.020552-0.18945 0.048828-0.24923 0.11893-0.35526 0.41679-0.23633 0.66602l0.52734 1.1016c0.0617 0.15586-0.14008 0.4023 2e-3 0.61328 0.16108 0.22429 0.47493 0.27631 0.69922 0.11524l0.2207-0.16016c0.19657-0.14122 0.26438-0.40262 0.16016-0.62109l-0.70708-1.4785c-0.0871-0.18251-0.27461-0.29578-0.47656-0.28516zm4.6094 0.015625c-0.03266 8.11e-4 -0.06562 0.00452-0.09766 0.011719l-1.2832 0.28906c-0.13633 0.036531-0.4345-0.14606-0.63086-0.00781-0.22085 0.16576-0.26536 0.47836-0.09961 0.69922l0.125 0.16797c0.11813 0.15737 0.31778 0.23064 0.50976 0.1875l1.5977-0.35938c0.26943-0.060558 0.43947-0.32824 0.37891-0.59766-0.04435-0.19731-0.20308-0.34828-0.40234-0.38281-0.03235-0.0056-0.06499-0.00862-0.09766-0.00781zm-0.58984 1.252c-0.01639 0.0011-0.03248 0.0031-0.04883 0.0059-0.13077 0.02199-0.2473 0.09511-0.32422 0.20312l-0.15039 0.21094c-0.15363 0.21577-0.11272 0.51377 0.09375 0.67969l1.2773 1.0273c0.21528 0.17295 0.53018 0.13911 0.70312-0.07617 0.17294-0.21527 0.1391-0.53018-0.07617-0.70312l-0.91016-0.73242c-0.09452-0.09452-0.01015-0.34882-0.24023-0.52344-0.09452-0.06731-0.20946-0.09957-0.32422-0.0918zm-4.5527 1.2168c-0.032654-1e-3 -0.065273 0.0024-0.097656 0.0078-0.19949 0.03318-0.36056 0.18386-0.40625 0.38086-0.062389 0.26901 0.10599 0.53723 0.375 0.59961l1.2051 0.2793c0.22236 0.0486 0.2497 0.36159 0.49805 0.37109 0.27613 0.0022 0.50174-0.21996 0.50391-0.49609l2e-3 -0.26758c0.0018-0.23408-0.15869-0.43929-0.38672-0.49219l-1.5977-0.36914c-0.03198-0.0074-0.063049-0.01265-0.095703-0.01367zm4.2402 0.32812c-0.03259 0.0023-0.06404 0.0089-0.0957 0.01758l-0.1543 0.042967c-0.21652 0.05946-0.36642 0.25594-0.36719 0.48047l-0.0059 1.6387c-9.18e-4 0.27614 0.22191 0.50103 0.49805 0.50195 0.27614 9.18e-4 0.50103-0.22191 0.50195-0.49805l0.0039-1.2598c0-0.15433 0.20573-0.27161 0.13672-0.55664-0.05355-0.19502-0.21926-0.33813-0.41992-0.36328-0.03258-0.0041-0.06507-0.0062-0.09766-0.0039zm-1.4375 0.65625c-0.09516 0.0092-0.18573 0.04723-0.26172 0.10742l-1.2852 1.0176c-0.21645 0.17149-0.25157 0.48473-0.08008 0.70117 0.17149 0.21644 0.48473 0.25351 0.70117 0.08203l0.9082-0.71875c0.14364-0.11222 0.31303 0.06306 0.54883-0.12695 0.20966-0.17971 0.2344-0.49542 0.05469-0.70508l-0.1582-0.18359c-0.08413-0.09814-0.20336-0.16143-0.33203-0.17383-0.03217-0.0031-0.06398-0.0031-0.0957 0z" fill="#786d7d" style="-inkscape-stroke:none"/><path d="m5.5508 8.5938c-0.13532 0.00703-0.26729 0.042199-0.36719 0.11133l-3.4629 2.3965-0.00195 2e-3c-0.1038 0.07355-0.2138 0.13778-0.32812 0.19141-0.061709 0.02895-0.11328 0.1037-0.11328 0.17188v0.033157c0 0.21578 0.052661 0.4159 0.14648 0.58984 0.066848 0.12393 0.25285 0.1725 0.38086 0.11328 0.17175-0.07946 0.33632-0.17462 0.49219-0.28516l4.207-2.9141c0.12343-0.0855 0.10043-0.16455-0.046875-0.19336-0.17766-0.03475-0.35077-0.08692-0.51953-0.15625-0.11224-0.046112-0.25139-0.067576-0.38672-0.060547zm2.875 0c-0.10128 0.00532-0.20097 0.025963-0.28516 0.060547-0.16876 0.06933-0.34382 0.1215-0.52148 0.15625-0.14731 0.028812-0.16836 0.10786-0.044922 0.19336l1.0176 0.70618c0.11959 0.0828 0.26752 0.04342 0.34009-0.08261 0.038381-0.066644 0.078692-0.1321 0.12079-0.1963 0.15313-0.23352 0.11205-0.52814-0.11338-0.69325l-0.044838-0.032841c-0.12487-0.086411-0.29995-0.1202-0.46875-0.11133z" color="#000000" fill="#786d7d" opacity=".2" style="-inkscape-stroke:none"/></svg>
