<svg width="16" height="16" version="1.1" xml:space="preserve" xmlns="http://www.w3.org/2000/svg"><g fill="#786d7d"><path d="m2.5 2c-1.385 0-2.5 1.115-2.5 2.5v7c0 1.385 1.115 2.5 2.5 2.5h6.7712c0.14578 0 0.2038-0.1019 0.13902-0.23247-0.26431-0.53277-0.41412-1.1308-0.41412-1.7617 0-2.1989 1.807-4.0059 4.0059-4.0059 0.12857 0 0.25575 0.00611 0.38129 0.018104 0.34432 0.032888 0.61676-0.17185 0.61676-0.5181v-3c0-1.385-1.115-2.5-2.5-2.5z" opacity=".16" stroke-linejoin="round"/><path d="m2.5 2c-1.3748 0-2.5 1.1252-2.5 2.5v7c0 1.3748 1.1252 2.5 2.5 2.5h6.791c0.093273 2.18e-4 0.15893-0.08142 0.15039-0.16992-0.1065-0.20584-0.1958-0.42224-0.26562-0.64648-0.11502-0.11453-0.27298-0.18362-0.44336-0.18359h-6.2324c-0.83435 0-1.5-0.66565-1.5-1.5v-7c0-0.83435 0.66565-1.5 1.5-1.5h9c0.83435 0 1.5 0.66565 1.5 1.5v3.5h4.7e-5c0.0011 0 0.0028 0 0.0039 5e-7 0.12789 6.16e-5 0.2544 0.00617 0.37929 0.018102 0.34433 0.032889 0.61676-0.17185 0.61676-0.5181v-3c0-1.3748-1.1252-2.5-2.5-2.5zm8.5996 2.6758c-0.14458 0.00356-0.28957 0.050406-0.41602 0.14062-0.86672 0.61842-2.4108 1.725-3.2773 2.3438-0.22473 0.16046-0.58776 0.16046-0.8125 0-0.86654-0.61868-2.4185-1.7253-3.2852-2.3438-0.12644-0.090227-0.27166-0.13502-0.41602-0.13867-0.24059-0.00609-0.48067 0.10359-0.63086 0.31445-0.080073 0.11243-0.05384 0.26752 0.058594 0.34766 0.92507 0.65936 2.5349 1.8081 3.459 2.4688 0.67392 0.48179 1.7674 0.4817 2.4414 0 0.92422-0.66055 2.5263-1.8091 3.4512-2.4688 0.11241-0.080175 0.13869-0.23519 0.05859-0.34766-0.15016-0.21084-0.38989-0.32234-0.63086-0.31641z" style="-inkscape-stroke:none"/><path d="m5.5508 8.5938c-0.13532 0.00703-0.26729 0.042199-0.36719 0.11133l-3.4629 2.3965-0.0019531 0.001954c-0.1038 0.07355-0.2138 0.13778-0.32812 0.19141-0.061709 0.02895-0.11328 0.1037-0.11328 0.17188v0.033203c0 0.21578 0.052661 0.4159 0.14648 0.58984 0.066848 0.12393 0.25285 0.1725 0.38086 0.11328 0.17175-0.07946 0.33632-0.17462 0.49219-0.28516l4.207-2.9141c0.12343-0.0855 0.10043-0.16455-0.046875-0.19336-0.17766-0.03475-0.35077-0.08692-0.51953-0.15625-0.11224-0.046112-0.25139-0.067576-0.38672-0.060547zm2.875 0c-0.10128 0.00532-0.20097 0.025963-0.28516 0.060547-0.16876 0.06933-0.34382 0.1215-0.52148 0.15625-0.14731 0.028812-0.16836 0.10786-0.044922 0.19336l1.8223 1.2617c0.14672-0.30077 0.33285-0.58042 0.54688-0.83398l-1.0488-0.72656c-0.12487-0.086411-0.29995-0.1202-0.46875-0.11133z" color="#000000" opacity=".2" style="-inkscape-stroke:none"/></g><path d="m13.002 9.0051c-1.6509 0-3 1.3491-3 3s1.3491 3 3 3 3-1.3491 3-3-1.3491-3-3-3zm0 1c1.1105 0 2 0.88951 2 2 0 0.37264-0.10033 0.71996-0.27539 1.0176l-2.7422-2.7422c0.29761-0.17506 0.64494-0.27539 1.0176-0.27539zm-1.7246 0.98242 2.7422 2.7422c-0.29761 0.17506-0.64494 0.27539-1.0176 0.27539-1.1105 0-2-0.88951-2-2 0-0.37264 0.10033-0.71996 0.27539-1.0176z" color="#000000" fill="#821313" style="-inkscape-stroke:none;paint-order:markers stroke fill"/></svg>
