<?xml version="1.0" encoding="UTF-8" standalone="no"?>
<svg
   width="16"
   height="16"
   version="1.1"
   xml:space="preserve"
   id="svg4855"
   sodipodi:docname="mail-forwarded-replied.svg"
   inkscape:version="1.2.2 (b0a8486541, 2022-12-01)"
   xmlns:inkscape="http://www.inkscape.org/namespaces/inkscape"
   xmlns:sodipodi="http://sodipodi.sourceforge.net/DTD/sodipodi-0.dtd"
   xmlns="http://www.w3.org/2000/svg"
   xmlns:svg="http://www.w3.org/2000/svg"><defs
     id="defs4859" /><sodipodi:namedview
     id="namedview4857"
     pagecolor="#ffffff"
     bordercolor="#666666"
     borderopacity="1.0"
     inkscape:showpageshadow="2"
     inkscape:pageopacity="0.0"
     inkscape:pagecheckerboard="0"
     inkscape:deskcolor="#d1d1d1"
     showgrid="false"
     inkscape:zoom="17.626387"
     inkscape:cx="8.4532355"
     inkscape:cy="14.43858"
     inkscape:window-width="2058"
     inkscape:window-height="1056"
     inkscape:window-x="2862"
     inkscape:window-y="531"
     inkscape:window-maximized="0"
     inkscape:current-layer="svg4855"><inkscape:grid
       type="xygrid"
       id="grid4987" /></sodipodi:namedview><path
     id="path4853"
     style="-inkscape-stroke:none;fill:#786d7d;fill-opacity:1"
     d="M 3.5 2 C 2.1252014 2 1 3.1252014 1 4.5 L 1 11.5 C 1 12.874799 2.1252014 14 3.5 14 L 4 14 C 6.2031978 14 8 12.203198 8 10 L 8 5 C 8 4.5217205 7.6930534 4.1241336 7.3085938 3.9648438 C 6.9241341 3.8055939 6.4241772 3.8688376 6.0859375 4.2070312 L 3.1425781 7.1503906 C 2.6770486 7.6159202 2.6770486 8.3841098 3.1425781 8.8496094 L 5.3984375 11.105469 C 5.4857544 11.192789 5.6275269 11.192789 5.7148438 11.105469 L 5.7480469 11.072266 C 6.0325628 10.787759 6.0325628 10.325522 5.7480469 10.041016 L 3.8496094 8.1425781 C 3.7662305 8.0591992 3.7662305 7.9408018 3.8496094 7.8574219 L 6.7929688 4.9140625 C 6.8461867 4.8608446 6.8777653 4.8687819 6.9257812 4.8886719 C 6.9737992 4.9085619 7 4.9247371 7 5 L 7 10 C 7 11.662798 5.6627983 13 4 13 L 3.5 13 C 2.6656508 13 2 12.334349 2 11.5 L 2 4.5 C 2 3.6656508 2.6656508 3 3.5 3 L 12.5 3 C 13.334349 3 14 3.6656508 14 4.5 L 14 11.5 C 14 12.334349 13.334349 13 12.5 13 L 9.5 13 C 9.0600904 13 8.6358747 12.848048 8.296875 12.574219 C 8.2097651 12.503849 8.0831362 12.502761 8.0039062 12.582031 L 7.9550781 12.630859 C 7.6705725 12.915353 7.6685112 13.387077 8.0136719 13.591797 C 8.4599214 13.856437 8.9724905 14 9.5 14 L 12.5 14 C 13.874799 14 15 12.874799 15 11.5 L 15 4.5 C 15 3.1252014 13.874799 2 12.5 2 L 3.5 2 z M 10.242188 4.4355469 C 10.123974 4.4453487 10.011325 4.498189 9.9257812 4.5839844 C 9.7326956 4.7770677 9.7326956 5.0901198 9.9257812 5.2832031 L 11.925781 7.2832031 C 12.093691 7.451113 12.093691 7.7090433 11.925781 7.8769531 L 9.6601562 10.140625 C 9.5591154 10.242169 9.5591154 10.406269 9.6601562 10.507812 L 9.7304688 10.580078 C 9.9801913 10.829775 10.385043 10.829775 10.634766 10.580078 L 12.632812 8.5839844 C 13.182872 8.0339849 13.182872 7.1262313 12.632812 6.5761719 L 10.640625 4.5839844 C 10.564995 4.5080505 10.467189 4.4581212 10.361328 4.4414062 L 10.361328 4.4394531 C 10.321422 4.4332528 10.281592 4.4322796 10.242188 4.4355469 z " /></svg>
