<svg width="16" height="16" version="1.1" xml:space="preserve" xmlns="http://www.w3.org/2000/svg"><path d="m3.5 2c-1.3748 0-2.5 1.1252-2.5 2.5v7c0 1.3748 1.1252 2.5 2.5 2.5h3.5c2.2032 0 4-1.7968 4-4v-5c0-0.47827-0.30695-0.87591-0.69141-1.0352-0.38446-0.15925-0.88447-0.096004-1.2227 0.24219l-2.9434 2.9434c-0.46553 0.46553-0.46553 1.2337 0 1.6992l2.2559 2.2559a0.22359 0.22359 0 0 0 0.31641 0l0.033203-0.033203a0.72852 0.72852 0 0 0 0-1.0312l-1.8984-1.8984c-0.083379-0.083379-0.083379-0.20178 0-0.28516l2.9434-2.9434c0.053218-0.053218 0.084794-0.045281 0.13281-0.025391 0.048018 0.01989 0.074219 0.036067 0.074219 0.11133v5c0 1.6628-1.3372 3-3 3h-3.5c-0.83435 0-1.5-0.66565-1.5-1.5v-2.1426a1.507 1.507 0 0 0-0.1543-0.66211l-0.19141-0.39453a0.70402 0.70402 0 0 1 0.0019531-0.62695l0.1875-0.37109a1.4731 1.4731 0 0 0 0.15625-0.66016v-2.1426c0-0.83435 0.66565-1.5 1.5-1.5h9c0.83435 0 1.5 0.66565 1.5 1.5v7c0 0.83435-0.66565 1.5-1.5 1.5h-0.099609c-0.43862 0-0.78735-0.14956-1.1055-0.42188-0.085102-0.072848-0.21179-0.075323-0.29102 0.003906l-0.048828 0.048828c-0.2845 0.2845-0.28957 0.75774 0.050781 0.9707 0.41256 0.25814 0.87386 0.39844 1.3945 0.39844h0.099609c1.3748 0 2.5-1.1252 2.5-2.5v-7c0-1.3748-1.1252-2.5-2.5-2.5h-9zm2.9668 1.8613a0.50547 0.50547 0 0 0-0.2793 0.14258l-2.9922 2.9922c-0.55006 0.55006-0.55006 1.4578 0 2.0078l2.998 2.998a0.63947 0.63947 0 0 0 0.9043 0l0.070313-0.072265a0.26029 0.26029 0 0 0 0-0.36719l-3.2656-3.2656c-0.16791-0.16791-0.16791-0.42584 0-0.59375l3-3a0.49442 0.49442 0 0 0 0-0.69922 0.50547 0.50547 0 0 0-0.43555-0.14258z" color="#000000" fill="#786d7d" style="-inkscape-stroke:none"/></svg>
