<svg width="16" height="16" version="1.1" xml:space="preserve" xmlns="http://www.w3.org/2000/svg"><g fill="#786d7d"><path d="m2.5 1c-1.3748 0-2.5 1.1252-2.5 2.5v7c0 1.3748 1.1252 2.5 2.5 2.5h5.4793c0.22952 0 0.42768-0.16072 0.47505-0.3853l0.053483-0.25355c0.039256-0.1861-0.10272-0.36116-0.29292-0.36116h-5.7149c-0.83435 0-1.5-0.66565-1.5-1.5v-7c0-0.83435 0.66565-1.5 1.5-1.5h9c0.83435 0 1.5 0.66565 1.5 1.5v1.184c0.0012 0.21653 1.0025 0.36116 1 0.22461v-1.4086c0-1.3748-1.1252-2.5-2.5-2.5zm8.5996 2.6758c-0.14458 0.00356-0.28956 0.050411-0.41602 0.14062-0.86672 0.61842-2.4108 1.725-3.2773 2.3438-0.22473 0.16046-0.58776 0.16046-0.8125 0-0.86654-0.61868-2.4185-1.7253-3.2852-2.3438-0.12644-0.090227-0.27166-0.13502-0.41602-0.13867-0.24059-0.00609-0.48067 0.10359-0.63086 0.31445-0.080073 0.11243-0.05384 0.26752 0.058594 0.34766 0.92507 0.65936 2.5349 1.8081 3.459 2.4688 0.36058 0.25778 0.84122 0.37728 1.3135 0.359 0.33843-0.013099 0.76606-0.3061 1.0467-0.49378l3.5146-2.3501c0.17411-0.1008 0.11607-0.2922 0.07642-0.33153-0.15017-0.21084-0.3899-0.32234-0.63086-0.31641z" style="-inkscape-stroke:none"/><path d="m5.5508 7.5938c-0.13532 0.00703-0.26729 0.042197-0.36719 0.11133l-3.4629 2.3965-0.00195 2e-3c-0.1038 0.07355-0.21381 0.13778-0.32812 0.19141-0.061709 0.02895-0.11328 0.1037-0.11328 0.17188v0.033157c0 0.21578 0.052662 0.4159 0.14648 0.58984 0.066848 0.12393 0.25285 0.1725 0.38086 0.11328 0.17175-0.07946 0.33632-0.17463 0.49219-0.28516l4.207-2.9141c0.12343-0.085496 0.10043-0.16455-0.046875-0.19336-0.17766-0.03475-0.35077-0.08692-0.51953-0.15625-0.11224-0.046112-0.25139-0.067576-0.38672-0.060547z" opacity=".11387" style="-inkscape-stroke:none"/><path d="m12.037 5.6348c-1.6601 3.3e-5 -3.0058 1.3458-3.0059 3.0059 3.3e-5 1.6601 1.3458 3.0058 3.0059 3.0059 1.6502-3.1e-5 2.99-1.3301 3.0059-2.9766l-2.0938 2.0938a0.63605 0.63605 0 0 1-0.89844 0l-0.064453-0.064453c-1.1137-0.02792-2.0081-0.93833-2.0078-2.0586-2.803e-4 -1.1374 0.92123-2.0597 2.0586-2.0605 0.5243-1.291e-4 1.0015 0.19708 1.3652 0.51953l0.66992-0.66992c-0.53541-0.49294-1.25-0.79491-2.0352-0.79492zm-2.1738 5.9297c-0.04077 0.0029-0.039544 0.071519-0.0625 0.068359l-0.67578 3.2324c-0.072344 0.36552 0.10078 0.7244 0.36719 0.91016 0.26596 0.18544 0.66093 0.22434 0.97852 0.03125h0.001953l0.81641-0.67578c0.0025-0.0021 0.005113-0.004059 0.007813-0.005859 0.44071-0.26926 0.99451-0.27006 1.4355-0.001953 0.0035 0.0023 0.006666 0.005012 0.009766 0.007812l0.79297 0.6582c0.31871 0.19381 0.71579 0.15663 0.98242-0.029296 0.26659-0.1859 0.43894-0.54585 0.36719-0.91211l-0.65039-3.1367c-0.02905-0.08659-0.11492-0.091781-0.17578-0.056641-0.13366 0.15108-0.37059 0.20332-0.58594 0.29297-0.0409 0.01702-0.087696 0.09613-0.066406 0.19726l0.65234 2.8242c0.01901 0.07741-0.07323 0.13302-0.13281 0.080078l-0.75976-0.63867h-0.001954c-0.70355-0.42708-1.587-0.43103-2.291-0.005859l-0.001953 0.001953-0.78711 0.65625c-0.05958 0.05294-0.15182-0.002698-0.13281-0.080078l0.68164-2.9355c0.0087-0.0408-0.017078-0.082623-0.048828-0.095703-0.21701-0.08937-0.45606-0.1387-0.58984-0.29102-0.06775-0.07429-0.1064-0.097413-0.13086-0.095703z" opacity=".7996" stroke-linejoin="round"/><path d="m15.45 5.95-2.95 2.95-0.67676-0.73789a0.60966 0.60966 1.2372 0 0-0.8804-0.019014l-0.05282 0.052816a0.29647 0.29647 90.768 0 0-0.0055 0.41357l1.2196 1.2868a0.5604 0.5604 0.76824 0 0 0.803 0.010768l2.9141-2.9141a0.57563 0.57563 90 0 0 0-0.81406l-0.22891-0.22891a0.10054 0.10054 2.9742e-6 0 0-0.14219 0z"/></g></svg>
