<svg width="16" height="16" version="1.1" xml:space="preserve" xmlns="http://www.w3.org/2000/svg"><path d="m3.5 2c-1.3748 0-2.5 1.1252-2.5 2.5v7c0 1.3748 1.1252 2.5 2.5 2.5h0.5c2.2032 0 4-1.7968 4-4v-5c0-0.47828-0.30695-0.87587-0.69141-1.0352-0.38446-0.15925-0.88442-0.096006-1.2227 0.24219l-2.9434 2.9434c-0.46553 0.46553-0.46553 1.2337 0 1.6992l2.2559 2.2559c0.087317 0.08732 0.22909 0.08732 0.31641 0l0.033203-0.033203c0.28452-0.28451 0.28452-0.74674 0-1.0312l-1.8984-1.8984c-0.083379-0.083379-0.083379-0.20178 0-0.28516l2.9434-2.9434c0.053218-0.053218 0.084796-0.045281 0.13281-0.025391 0.048018 0.01989 0.074219 0.036065 0.074219 0.11133v5c0 1.6628-1.3372 3-3 3h-0.5c-0.83435 0-1.5-0.66565-1.5-1.5v-7c0-0.83435 0.66565-1.5 1.5-1.5h9c0.83435 0 1.5 0.66565 1.5 1.5v7c0 0.83435-0.66565 1.5-1.5 1.5h-3c-0.43991 0-0.86413-0.15195-1.2031-0.42578-0.08711-0.07037-0.21374-0.071458-0.29297 0.007812l-0.048828 0.048828c-0.28451 0.28449-0.28657 0.75622 0.058594 0.96094 0.44625 0.26464 0.95882 0.4082 1.4863 0.4082h3c1.3748 0 2.5-1.1252 2.5-2.5v-7c0-1.3748-1.1252-2.5-2.5-2.5h-9zm6.998 3c-0.27645 0-0.49805 0.2216-0.49805 0.49805v0.0039062c0 0.27645 0.2216 0.49805 0.49805 0.49805h2.0039c0.27645 0 0.49805-0.2216 0.49805-0.49805v-0.0039062c0-0.27645-0.2216-0.49805-0.49805-0.49805h-2.0039zm0 3c-0.27645 0-0.49805 0.2216-0.49805 0.49805v0.0039062c0 0.27645 0.2216 0.49805 0.49805 0.49805h2.0039c0.27645 0 0.49805-0.2216 0.49805-0.49805v-0.0039062c0-0.27645-0.2216-0.49805-0.49805-0.49805h-2.0039zm0 3c-0.27645 0-0.49805 0.2216-0.49805 0.49805v0.003906c0 0.27645 0.2216 0.49805 0.49805 0.49805h2.0039c0.27645 0 0.49805-0.2216 0.49805-0.49805v-0.003906c0-0.27645-0.2216-0.49805-0.49805-0.49805h-2.0039z" fill="#786d7d" style="-inkscape-stroke:none"/></svg>
