<svg width="16" height="16" version="1.1" xml:space="preserve" xmlns="http://www.w3.org/2000/svg"><path d="m5 2c-1.11 0-2.099 0.713-2.45 1.766l-1.218 3.66c-0.254 0.76 0.333 1.574 1.135 1.574h2.533c0.118 0 0.225 0.064 0.277 0.17l0.553 1.107c0.22195 0.44281 0.67468 0.72258 1.17 0.723h3c0.495 0 0.949-0.28 1.17-0.723l0.553-1.107c0.052307-0.1049 0.15978-0.17086 0.277-0.17h2.545c0.257 0 0.455 0.198 0.455 0.455v2.545c0 0.558-0.442 1-1 1h-11c-0.558 0-1-0.442-1-1v-1.424c5.541e-4 -0.31834-0.25765-0.57655-0.576-0.576h-0.12c-0.16829 0-0.30455 0.13672-0.304 0.305v1.695c0 1.099 0.901 2 2 2h11c1.099 0 2-0.901 2-2v-2.545c0-0.798-0.657-1.455-1.455-1.455h-2.545c-0.495 0-0.949 0.28-1.17 0.723l-0.553 1.107c-0.052307 0.1049-0.15978 0.17086-0.277 0.17h-3c-0.11722 8.63e-4 -0.22469-0.065098-0.277-0.17l-0.553-1.107c-0.22195-0.44281-0.67468-0.72258-1.17-0.723h-2.533c-0.15 0-0.235-0.117-0.188-0.258l1.221-3.66c0.21409-0.64659 0.81889-1.0829 1.5-1.082h7c0.68091-2.304e-4 1.2854 0.43579 1.5 1.082l0.83 2.492c0.11654 0.34788 0.44312 0.58173 0.81 0.58l0.327-2e-3c0.0724-2.725e-4 0.12322-0.071429 0.1-0.14l-1.118-3.246c-0.35589-1.0509-1.3395-1.7602-2.449-1.766zm10.579 5.356c0.052 0.058 0.09 0.035 0.073-0.016-0.064-0.185-0.104-0.02-0.073 0.016zm-14.484 2.552c0.026 0.015 0.065-4e-3 0.086-0.041 0.05-0.166-0.012-0.156-0.07-0.06-0.058 0.098-0.042 0.086-0.016 0.1z" color="#000000" fill="#786d7d" style="-inkscape-stroke:none"/></svg>
