<svg width="16" height="16" version="1.1" xml:space="preserve" xmlns="http://www.w3.org/2000/svg"><path d="m3.5 2c-1.3748 0-2.5 1.1252-2.5 2.5v7c0 1.3748 1.1252 2.5 2.5 2.5h6.791c0.1038 2.43e-4 0.17836-0.09982 0.14844-0.19922l-0.10547-0.35352c-0.079803-0.26554-0.32429-0.44732-0.60156-0.44727h-6.2324c-0.83435 0-1.5-0.66565-1.5-1.5v-7c0-0.83435 0.66565-1.5 1.5-1.5h9c0.83435 0 1.5 0.66565 1.5 1.5v7c0 0.83435-0.66565 1.5-1.5 1.5h-0.96094c-0.24699 0.0014-0.40693 0.2613-0.29687 0.48242l0.08203 0.16602c0.10764 0.21532 0.32764 0.3514 0.56836 0.35156h0.60742c1.3748 0 2.5-1.1252 2.5-2.5v-7c0-1.3748-1.1252-2.5-2.5-2.5zm8.5996 2.6758c-0.14458 0.00356-0.28957 0.050406-0.41602 0.14062-0.86672 0.61842-2.4108 1.725-3.2773 2.3438-0.22473 0.16046-0.58776 0.16046-0.8125 0-0.86654-0.61868-2.4185-1.7253-3.2852-2.3438-0.12644-0.090227-0.27166-0.13502-0.41602-0.13867-0.24059-0.00609-0.48067 0.10359-0.63086 0.31445-0.080073 0.11243-0.05384 0.26752 0.058594 0.34766 0.92507 0.65936 2.5349 1.8081 3.459 2.4688 0.67392 0.48179 1.7674 0.4817 2.4414 0 0.92422-0.66055 2.5263-1.8091 3.4512-2.4688 0.11241-0.080175 0.13869-0.23519 0.058594-0.34766-0.15017-0.21084-0.3899-0.32234-0.63086-0.31641zm-1.5293 9.2285a0.038426 0.038218 0 0 0-0.0332 0.03906 0.038426 0.038218 0 0 0 0.03906 0.03711 0.038426 0.038218 0 0 0 0.03906-0.03711 0.038426 0.038218 0 0 1 0-2e-3 0.038426 0.038218 0 0 1-2e-3 -2e-3 0.038426 0.038218 0 0 1 0-2e-3 0.038426 0.038218 0 0 1 0-2e-3 0.038426 0.038218 0 0 1 0-2e-3 0.038426 0.038218 0 0 1 0-2e-3 0.038426 0.038218 0 0 1-2e-3 -2e-3 0.038426 0.038218 0 0 1 0-2e-3 0.038426 0.038218 0 0 1 0-2e-3 0.038426 0.038218 0 0 1-2e-3 -2e-3 0.038426 0.038218 0 0 1-2e-3 -2e-3 0.038426 0.038218 0 0 1 0-2e-3 0.038426 0.038218 0 0 1-2e-3 -2e-3 0.038426 0.038218 0 0 1-2e-3 0 0.038426 0.038218 0 0 1 0-2e-3 0.038426 0.038218 0 0 1-2e-3 -2e-3 0.038426 0.038218 0 0 1-2e-3 0 0.038426 0.038218 0 0 1 0-2e-3 0.038426 0.038218 0 0 1-2e-3 -2e-3 0.038426 0.038218 0 0 1-2e-3 0 0.038426 0.038218 0 0 1-2e-3 -2e-3 0.038426 0.038218 0 0 1-2e-3 0 0.038426 0.038218 0 0 1-2e-3 0 0.038426 0.038218 0 0 1-2e-3 -2e-3 0.038426 0.038218 0 0 1-2e-3 0 0.038426 0.038218 0 0 1-2e-3 -2e-3 0.038426 0.038218 0 0 1-2e-3 0 0.038426 0.038218 0 0 1-2e-3 0 0.038426 0.038218 0 0 1-2e-3 0 0.038426 0.038218 0 0 1-2e-3 0 0.038426 0.038218 0 0 0-0.0059 0z" fill="#786d7d" style="-inkscape-stroke:none"/><path d="m6.5508 8.5938c-0.13532 0.00703-0.26729 0.042199-0.36719 0.11133l-3.4629 2.3965-0.00195 2e-3c-0.1038 0.07355-0.21392 0.13731-0.32824 0.19094-0.061709 0.02895-0.11317 0.10451-0.11317 0.17268v0.032814c0 0.21578 0.053028 0.41655 0.14685 0.59049 0.066848 0.12393 0.25195 0.17143 0.37996 0.11221 0.17175-0.07946 0.33685-0.1742 0.49272-0.28473l4.207-2.9141c0.12343-0.0855 0.10043-0.16455-0.046875-0.19336-0.17766-0.03475-0.35077-0.08692-0.51953-0.15625-0.11224-0.046112-0.25139-0.067576-0.38672-0.060547zm2.875 0c-0.10128 0.00532-0.20097 0.025963-0.28516 0.060547-0.16876 0.06933-0.34382 0.1215-0.52148 0.15625-0.14731 0.028812-0.16836 0.10786-0.044922 0.19336l4.207 2.9141c0.16691 0.11837 0.34414 0.21891 0.5289 0.30192 0.07709 0.03464 0.18526 0.0066 0.22971-0.0652 0.11638-0.18804 0.1828-0.41216 0.1828-0.6547v-0.08726c0-0.05752-0.04267-0.12302-0.09409-0.14878-0.09319-0.04669-0.18359-0.09976-0.2692-0.16044l-2e-3 -2e-3 -3.4628-2.3964c-0.12487-0.086411-0.29995-0.1202-0.46875-0.11133z" color="#000000" fill="#786d7d" opacity=".2" style="-inkscape-stroke:none"/></svg>
