<svg width="16" height="16" version="1.1" xml:space="preserve" xmlns="http://www.w3.org/2000/svg"><path d="m2.5 2c-0.82843 0-1.5 0.67157-1.5 1.5v2.6158a0.13406 0.13406 24.344 0 0 0.22256 0.10069l0.57009-0.50106a0.61016 0.61016 114.34 0 0 0.20735-0.4583v-1.7571c0-0.27614 0.22386-0.5 0.5-0.5h9.8477c0.08458 0 0.22055-5.322e-4 0.30469 0.00781 0.76131 0.075535 1.3477 0.7095 1.3477 1.4922v7c0 0.83435-0.66565 1.5-1.5 1.5h-0.09961c-0.43794 0-0.86103-0.0019-1.1992-0.23242-0.09211-0.0628-0.2196-0.06361-0.29883 0.01563l-0.04687 0.04883c-0.2845 0.2845-0.2834 0.76095 0.08203 0.92383 0.44058 0.19637 0.94485 0.24413 1.4629 0.24413h0.099609c1.3748 0 2.5-1.1252 2.5-2.5v-7c0-1.3234-1.0435-2.4162-2.3477-2.4961-0.084498-0.0051743-0.2201-0.0039062-0.30469-0.0039062zm3.0996 1.8418c-0.019926 7.013e-4 -0.038641 0.00276-0.058594 0.00586-0.10586 0.016716-0.20367 0.066644-0.2793 0.14258l-3.8926 3.4922c-0.57901 0.5195-0.55006 1.4578 0 2.0078l2.998 2.5977c0.24972 0.2497 0.65457 0.2497 0.9043 0l0.070312-0.07227c0.10104-0.10154 0.10104-0.26564 0-0.36719l-3.2656-2.8652c-0.17848-0.15662-0.17673-0.43515 0-0.59375l3.9004-3.5c0.19309-0.19308 0.19309-0.50614 0-0.69922-0.099802-0.10009-0.23747-0.15335-0.37695-0.14844zm4.291 0.044922c-0.27877 0.0045863-0.56766 0.11334-0.80469 0.32031l-3.9434 3.4434c-0.4959 0.43302-0.50075 1.2718 0 1.6992l3.2441 2.7695c0.096196 0.08173 0.23906 0.07578 0.32812-0.01367l0.033203-0.0332c0.2778-0.27774 0.25979-0.73334-0.039063-0.98828l-2.8594-2.4414c-0.089687-0.076553-0.083379-0.20178 0-0.28516l3.9434-3.4434c0.05669-0.049502 0.084794-0.045281 0.13281-0.025391 0.048018 0.019891 0.074219 0.036067 0.074219 0.11133v6c0 1-1 2-2 2h-5.5c-0.27614 0-0.5-0.22386-0.5-0.5v-0.55528a1.1326 1.1326 65.466 0 0-0.39058-0.85568l-0.27521-0.23866a0.20192 0.20192 155.47 0 0-0.33422 0.15255v1.4971c0 0.82843 0.67157 1.5 1.5 1.5h5.5c2 0 3-2 3-3v-6c0-0.41995-0.2367-0.77798-0.55469-0.9668-0.07266-0.043146-0.19918-0.095114-0.28125-0.11523-0.08865-0.021734-0.18051-0.032779-0.27344-0.03125z" color="#000000" fill="#786d7d" style="-inkscape-stroke:none"/></svg>
