<svg width="16" height="16" version="1.1" xml:space="preserve" xmlns="http://www.w3.org/2000/svg"><path d="m3.5 2c-1.3748 0-2.5 1.1252-2.5 2.5v7c0 1.3748 1.1252 2.5 2.5 2.5h2.5c2.2032 0 4-1.7968 4-4v-5c0-0.47828-0.30695-0.87587-0.69141-1.0352-0.38446-0.15925-0.88442-0.096006-1.2227 0.24219l-2.9434 2.9434c-0.46553 0.46553-0.46553 1.2337 0 1.6992l2.2559 2.2559c0.087317 0.08732 0.22908 0.08732 0.31641 0l0.033203-0.033203c0.28452-0.2845 0.28452-0.74674 0-1.0312l-1.8984-1.8984c-0.083379-0.083379-0.083379-0.20178 0-0.28516l2.9434-2.9434c0.053218-0.053218 0.084797-0.045281 0.13281-0.025391 0.048018 0.01989 0.074219 0.036065 0.074219 0.11133v5c0 1.6628-1.3372 3-3 3h-2.5c-0.83435 0-1.5-0.66565-1.5-1.5v-7c0-0.83435 0.66565-1.5 1.5-1.5h9c0.83435 0 1.5 0.66565 1.5 1.5v7c0 0.83435-0.66565 1.5-1.5 1.5h-1c-0.43991 0-0.86412-0.15195-1.2031-0.42578-0.08711-0.07037-0.21374-0.071448-0.29297 0.007812l-0.048828 0.048828c-0.2845 0.28451-0.28657 0.75622 0.058594 0.96094 0.44625 0.26464 0.95882 0.4082 1.4863 0.4082h1c1.3748 0 2.5-1.1252 2.5-2.5v-7c0-1.3748-1.1252-2.5-2.5-2.5h-9zm8.5996 2.6758c-0.14458 0.00356-0.28956 0.050411-0.41602 0.14062-0.18071 0.12894-0.45627 0.32575-0.68359 0.48828v1.2305c0.61173-0.43789 1.2239-0.87579 1.6719-1.1953 0.11241-0.080175 0.1387-0.23519 0.058594-0.34766-0.15017-0.21084-0.3899-0.32234-0.63086-0.31641zm-8.207 0.0019532c-0.24059-0.0060868-0.48067 0.10359-0.63086 0.31445-0.080073 0.11243-0.05384 0.26752 0.058594 0.34766 0.34626 0.24681 0.82865 0.59115 1.2949 0.92383l0.7168-0.7168c-0.36164-0.25796-0.75339-0.53776-1.0234-0.73047-0.12644-0.090227-0.27166-0.13502-0.41602-0.13867z" fill="#786d7d" style="-inkscape-stroke:none"/><g transform="translate(-1e-5)"><path d="m6.5508 8.5938c-0.13532 0.00703-0.26729 0.042199-0.36719 0.11133l-3.4629 2.3965-0.00195 2e-3c-0.1038 0.07355-0.21392 0.13731-0.32824 0.19094-0.061709 0.02895-0.11317 0.10451-0.11317 0.17268v0.03281c0 0.21578 0.053028 0.41655 0.14685 0.59049 0.066848 0.12393 0.25195 0.17143 0.37996 0.11221 0.17175-0.07946 0.33685-0.1742 0.49272-0.28473l4.207-2.9141c0.12343-0.085496 0.10043-0.16455-0.046875-0.19336-0.17766-0.03475-0.35077-0.08692-0.51953-0.15625-0.11224-0.046112-0.25139-0.067576-0.38672-0.060547zm2.875 0c-0.10128 0.00532-0.20097 0.025963-0.28516 0.060547-0.16876 0.06933-0.34382 0.1215-0.52148 0.15625-0.14731 0.028812-0.16836 0.10786-0.044922 0.19336l4.207 2.9141c0.16691 0.11837 0.34414 0.21891 0.5289 0.30192 0.07709 0.03464 0.18526 0.0066 0.22971-0.0652 0.11638-0.18804 0.1828-0.41216 0.1828-0.6547v-0.08726c0-0.05752-0.04267-0.12302-0.09409-0.14878-0.09319-0.04669-0.18359-0.09976-0.2692-0.16044l-2e-3 -2e-3 -3.4628-2.3964c-0.12487-0.086411-0.29995-0.1202-0.46875-0.11133z" color="#000000" fill="#786d7d" opacity=".2" style="-inkscape-stroke:none"/></g></svg>
