<svg width="16" height="16" version="1.1" xml:space="preserve" xmlns="http://www.w3.org/2000/svg"><path d="m1 3.5v9a1.5 1.5 45 0 0 1.5 1.5h5.5c2 0 3-2 3-3v-6c0-0.41995-0.23665-0.77773-0.55464-0.96655-0.072661-0.043146-0.20012-0.096039-0.28219-0.11616-0.3546-0.086935-0.7612 0.013781-1.0772 0.28974l-3.9434 3.4434c-0.4959 0.43303-0.50075 1.2718 0 1.6992l3.244 2.7689a0.24195 0.24195 177.74 0 0 0.32817-0.012944l0.033787-0.033787a0.67323 0.67323 87.741 0 0-0.038976-0.98811l-2.8599-2.4411c-0.089687-0.076553-0.083379-0.20178 0-0.28516l3.9434-3.4434c0.05669-0.049502 0.084794-0.045281 0.13281-0.025391 0.048018 0.01989 0.074219 0.036067 0.074219 0.11133v6c0 1-1 2-2 2h-5.5a0.5 0.5 45 0 1-0.5-0.5v-9a0.5 0.5 135 0 1 0.5-0.5h9.8468c0.08458 0 0.22192-8.113e-4 0.30606 0.00754 0.76131 0.075526 1.3471 0.70977 1.3471 1.4925v7c0 0.83435-0.66565 1.5-1.5 1.5h-0.1c-0.43794 0-0.86-0.0011-1.1982-0.23161-0.09212-0.0628-0.21955-0.06471-0.29878 0.01452l-0.04843 0.04843c-0.2845 0.2845-0.28264 0.76124 0.08279 0.92412 0.44058 0.19639 0.94457 0.24454 1.4626 0.24454h0.1c1.3748 0 2.5-1.1252 2.5-2.5v-7c0-1.3234-1.0426-2.4155-2.3468-2.4953-0.084499-0.0051744-0.22178-0.0046792-0.30636-0.0046792h-9.8468a1.5 1.5 135 0 0-1.5 1.5z" color="#000000" fill="#786d7d" style="-inkscape-stroke:none"/></svg>
