<svg width="16" height="16" version="1.1" xml:space="preserve" xmlns="http://www.w3.org/2000/svg"><path d="m8.25 0.5c-0.13807 0-0.25 0.11193-0.25 0.25v5.6449l-1.3223-1.3223c-0.09785-0.098915-0.25762-0.098915-0.35547 0l-0.35156 0.35352c-0.09761 0.097627-0.09761 0.25589 0 0.35352l1.998 2c0.2931 0.29412 0.7694 0.29412 1.0625 0l1.998-2c0.09761-0.097627 0.09761-0.25589 0-0.35352l-0.35156-0.35352c-0.09785-0.098914-0.25762-0.098914-0.35547 0l-1.3223 1.3223v-5.6449c0-0.13807-0.11193-0.25-0.25-0.25zm-3.05 1.5c-1.11 0-2.0982 0.71263-2.4492 1.7656l-1.4187 3.6602c-0.254 0.76 0.33277 1.5742 1.1348 1.5742h2.5332c0.118 0 0.22534 0.063922 0.27734 0.16992l0.55273 1.1074c0.22203 0.44265 0.6747 0.72227 1.1699 0.72266h3c0.495 0 0.94892-0.27966 1.1699-0.72266l0.55273-1.1074c0.052383-0.10498 0.16002-0.17093 0.27734-0.16992h2.5449c0.257 0 0.45508 0.19808 0.45508 0.45508v2.5449c0 0.558-0.442 1-1 1h-11c-0.558 0-1-0.442-1-1v-1.4238c6.498e-4 -0.31848-0.25769-0.57682-0.57617-0.57617h-0.11914c-0.16843-3.813e-4 -0.30507 0.13626-0.30469 0.30469v1.6953c0 1.099 0.901 2 2 2h11c1.099 0 2-0.901 2-2v-2.5449c0-0.798-0.65708-1.4551-1.4551-1.4551h-2.5449c-0.495 0-0.94892 0.27966-1.1699 0.72266l-0.55273 1.1074c-0.05238 0.10498-0.16002 0.17093-0.27734 0.16992h-3c-0.11732 0.001009-0.22496-0.064938-0.27734-0.16992l-0.55273-1.1074c-0.22203-0.44265-0.6747-0.72227-1.1699-0.72266h-2.5332c-0.15 0-0.2345-0.11681-0.1875-0.25781l1.4207-3.6602c0.21408-0.64661 0.81888-1.0829 1.5-1.082h1.1457c0.3612-3.732e-4 0.65392-0.29309 0.6543-0.6543v-0.21484c-2.502e-4 -0.072168-0.058692-0.13061-0.13086-0.13086zm4.9816 0c-0.10049-4.158e-4 -0.18206 0.081152-0.18164 0.18164v0.20898c1.36e-4 0.33649 0.27288 0.60924 0.60938 0.60938h1.1906c0.68092-2.26e-4 1.2854 0.43581 1.5 1.082l1.0301 2.4922c0.11657 0.3481 0.44345 0.58204 0.81055 0.58008l0.32617-0.00195c0.0726-3.944e-4 0.12332-0.072007 0.09961-0.14062l-1.3172-3.2461c-0.35605-1.0508-1.3397-1.76-2.4492-1.7656zm5.4102 5.2539c-0.02462 0.00634-0.03305 0.079063-0.01367 0.10156 0.052 0.058 0.09122 0.035375 0.07422-0.015625-0.024-0.069375-0.04578-0.08974-0.06055-0.085938zm-14.406 2.4844c-0.010096 0.01447-0.045219 0.020361-0.074219 0.068359-0.058 0.098-0.041625 0.085609-0.015625 0.099609v0.00195c0.026 0.015 0.064939-0.00402 0.085938-0.041016 0.025-0.083 0.014-0.14337 0.00391-0.12891z" fill="#786d7d" style="-inkscape-stroke:none"/></svg>
