<svg width="16" height="16" version="1.1" xml:space="preserve" xmlns="http://www.w3.org/2000/svg"><g fill="#786d7d"><path d="m3.5 2c-1.3748 0-2.5 1.1252-2.5 2.5v7c0 1.3748 1.1252 2.5 2.5 2.5h0.099609c0.52068 0 0.98197-0.1403 1.3945-0.39844 0.34035-0.21296 0.33529-0.6862 0.050781-0.9707l-0.048828-0.04883c-0.079228-0.079227-0.20591-0.076752-0.29102-0.003904-0.31812 0.27231-0.66684 0.42188-1.1055 0.42188h-0.099609c-0.83435 0-1.5-0.66565-1.5-1.5v-7c0-0.83435 0.66565-1.5 1.5-1.5h9c0.83435 0 1.5 0.66565 1.5 1.5v7c0 0.83435-0.66565 1.5-1.5 1.5h-3.5c-1.6628 0-3-1.3372-3-3v-5c0-0.075261 0.0262-0.091438 0.074219-0.11133 0.048019-0.01989 0.077079-0.025187 0.13281 0.025391l3.2441 2.9434c0.08338 0.083379 0.08338 0.20178 0 0.28516l-2.1699 1.9297c-0.29585 0.26273-0.30926 0.7204-0.029297 1l0.033203 0.0332c0.088827 0.08948 0.23215 0.09377 0.32617 0.0098l2.5469-2.2657c0.49192-0.43754 0.48753-1.2568 0-1.6992l-3.2441-2.9434c-0.35417-0.32141-0.8382-0.40144-1.2227-0.24219-0.38446 0.15925-0.69141 0.55688-0.69141 1.0352v5c0 2.2032 1.7968 4 4 4h3.5c1.3748 0 2.5-1.1252 2.5-2.5v-2a1.8544 1.8544 72.355 0 0-0.34076-1.0713l-0.2553-0.36072a0.98317 0.98317 90 0 1 0-1.136l0.2553-0.36072a1.8544 1.8544 107.64 0 0 0.34076-1.0713v-1c0-1.3748-1.1252-2.5-2.5-2.5z" color="#000000" style="-inkscape-stroke:none"/><ellipse cx="12.499" cy="7.5" rx=".49855" ry=".5" stroke-linecap="round" stroke-linejoin="round"/><ellipse cx="15.499" cy="7.5" rx=".49855" ry=".5" stroke-linecap="round" stroke-linejoin="round"/></g></svg>
