<svg width="16" height="16" version="1.1" xml:space="preserve" xmlns="http://www.w3.org/2000/svg"><path d="m2.5 2c-1.3748 0-2.5 1.1252-2.5 2.5v7c0 1.3748 1.1252 2.5 2.5 2.5h6.0312c0.69406 1.1963 1.9897 2.0059 3.4629 2.0059 2.1973 0 4-1.8027 4-4 0-2.1973-1.8027-4-4-4-2.1973 0-4 1.8027-4 4 0 0.34267 0.044608 0.67601 0.12695 0.99414h-5.6211c-0.83435 0-1.5-0.66566-1.5-1.5v-7c0-0.83435 0.66565-1.5 1.5-1.5h9c0.83434 0 1.5 0.66565 1.5 1.5v2.2812c0 0.12055 0.098558 0.21929 0.21875 0.22852 0.05088 0.0039 0.10598 0.009603 0.16406 0.015625 0.34377 0.035614 0.61719-0.17913 0.61719-0.52539v-2c0-1.3748-1.1252-2.5-2.5-2.5h-9zm8.5996 2.6758c-0.14458 0.00356-0.28957 0.050406-0.41602 0.14062-0.86672 0.61842-2.4108 1.725-3.2773 2.3438-0.22473 0.16046-0.58776 0.16046-0.8125 0-0.86653-0.61868-2.4185-1.7253-3.2852-2.3438-0.12644-0.090227-0.27166-0.13502-0.41602-0.13867-0.24059-0.00609-0.48067 0.10359-0.63086 0.31445-0.080073 0.11243-0.05384 0.26752 0.058594 0.34766 0.92507 0.65936 2.5349 1.8081 3.459 2.4688 0.67392 0.48179 1.7674 0.4817 2.4414 0 0.92422-0.66055 2.5263-1.8091 3.4512-2.4688 0.11241-0.080175 0.1387-0.23519 0.058594-0.34766-0.15016-0.21084-0.3899-0.32234-0.63086-0.31641zm0.89453 4.3301c1.6568 0 3 1.4545 3 3.1113 0 1.6568-1.3432 2.8887-3 2.8887-1.6568 0-3-1.3432-3-3 0-1.6568 1.3432-3 3-3zm-0.75 1c-0.13807 0-0.25 0.11193-0.25 0.25v1.25c0 0.82843 0.67157 1.5 1.5 1.5h1.25c0.13807 0 0.25-0.11193 0.25-0.25v-0.5c0-0.13807-0.11193-0.25-0.25-0.25h-1.25c-0.27614 0-0.5-0.22386-0.5-0.5v-1.25c0-0.13807-0.11193-0.25-0.25-0.25h-0.5z" fill="#786d7d" style="-inkscape-stroke:none"/><path d="m5.5508 8.5938c-0.13532 0.00703-0.26729 0.042199-0.36719 0.11133l-3.4629 2.3965-0.00195 2e-3c-0.1038 0.07355-0.2138 0.13778-0.32812 0.19141-0.061709 0.02895-0.11328 0.1037-0.11328 0.17188v0.033157c0 0.21578 0.052661 0.4159 0.14648 0.58984 0.066848 0.12393 0.25285 0.1725 0.38086 0.11328 0.17175-0.07946 0.33632-0.17462 0.49219-0.28516l4.207-2.9141c0.12343-0.0855 0.10043-0.16455-0.046875-0.19336-0.17766-0.03475-0.35077-0.08692-0.51953-0.15625-0.11224-0.046112-0.25139-0.067576-0.38672-0.060547z" color="#000000" fill="#786d7d" opacity=".2" style="-inkscape-stroke:none"/></svg>
