<svg width="16" height="16" version="1.1" viewBox="0 0 16 16" xml:space="preserve" xmlns="http://www.w3.org/2000/svg"><g transform="translate(2.9941 .99997)" fill="#786d7d"><path d="m-0.4941 2.8e-5c-1.3748 0-2.5 1.1252-2.5 2.5v7c0 1.3748 1.1252 2.5 2.5 2.5h2.334a0.14159 0.14159 0 0 0 0.14062-0.16406l-0.027344-0.16797a0.79074 0.79074 0 0 0-0.78125-0.66797h-1.666c-0.83435 0-1.5-0.66565-1.5-1.5v-7c0-0.83435 0.66565-1.5 1.5-1.5h8.5 0.5c0.21801 0 0.42327 0.046879 0.60938 0.12891 0.44434 0.10306 0.86752 0.26648 1.2598 0.48047 0.33009 0.18008 0.51746 0.058012 0.3418-0.27344-0.4203-0.79303-1.2556-1.3359-2.2109-1.3359h-9zm8.5 2c-2.2032 0-4 1.7968-4 4v1.0879c-0.56728 0.20107-0.97766 0.73211-0.99805 1.3633-8.3e-4 0.0078-0.0014931 0.015608-0.0019531 0.023438-1.43e-4 0.00851 0 0.016851 0 0.025391v1c0 0.5-0.0058595 0.5 0.5 0.5 0.27614 0 0.5-0.22386 0.5-0.5v-1c0-0.27614 0.22386-0.5 0.5-0.5h0.5v-2c0-1.6628 1.3372-3 3-3s3 1.3372 3 3v1c0 0.55228 0.44772 1 1 1v4c0 0.5582-0.4418 1-1 1h-6c-0.5582 0-1-0.4418-1-1v-1c0-0.5-0.0058605-0.5-0.5-0.5-0.27614 0-0.5 0.22386-0.5 0.5v1c0 1.0986 0.90136 2 2 2h6c1.0986 0 2-0.90136 2-2v-4c0-0.55228-0.44772-1-1-1v-1c0-2.2032-1.7968-4-4-4zm-8.1074 0.67773c-0.24059-0.00609-0.48067 0.10359-0.63086 0.31445-0.080073 0.11243-0.05384 0.26752 0.058594 0.34766 0.92507 0.65936 2.5349 1.8081 3.459 2.4688 0.069662 0.049802 0.14496 0.093308 0.22266 0.13281 0.0045-0.3797 0.051763-0.74931 0.13867-1.1055-0.88751-0.63336-2.085-1.4864-2.832-2.0195-0.12644-0.090227-0.27166-0.13502-0.41602-0.13867zm8.1074 1.3223c-1.0986 0-2 0.90136-2 2v2h3c0.55228 0 1-0.44772 1-1v-1c0-1.0986-0.90136-2-2-2zm0 1c0.5582 0 1 0.4418 1 1v1h-2v-1c0-0.5582 0.4418-1 1-1z" style="-inkscape-stroke:none"/><path d="m8.0059 3c-1.6628 0-3 1.3372-3 3v2h-0.5c-0.27614 0-0.5 0.22386-0.5 0.5v1h-1v1.5h1v1c0 0.5582 0.4418 1 1 1h6c0.5582 0 1-0.4418 1-1v-4c-0.55228 0-1-0.44772-1-1v-1c0-1.6628-1.3372-3-3-3zm0 1c1.0986 0 2 0.90136 2 2v1c0 0.55228-0.44772 1-1 1h-3v-2c0-1.0986 0.90136-2 2-2z" opacity=".15994" stroke-linecap="round" stroke-linejoin="round" stroke-width=".012055"/></g><g transform="translate(-1 -1)"><path d="m6.5508 8.5938c-0.13532 0.00703-0.26729 0.042197-0.36719 0.11133l-3.4629 2.3965-0.0019531 0.001954c-0.1038 0.07355-0.21381 0.13778-0.32812 0.19141-0.061709 0.02895-0.11328 0.1037-0.11328 0.17188v0.033203c0 0.21578 0.052662 0.4159 0.14648 0.58984 0.066848 0.12393 0.25285 0.1725 0.38086 0.11328 0.17175-0.07946 0.33632-0.17463 0.49219-0.28516l2.7637-1.9141c0.13201-0.53685 0.47187-0.98521 0.90234-1.3398-0.0084597-0.0033807-0.016953-0.0062991-0.025391-0.0097656-0.11224-0.046112-0.25139-0.067576-0.38672-0.060547z" fill="#786d7d" opacity=".16" style="-inkscape-stroke:none"/></g></svg>
