<svg width="16" height="16" version="1.1" xml:space="preserve" xmlns="http://www.w3.org/2000/svg"><path d="m2.6953 0.99805c-0.031206 0.004851-0.054418 0.033037-0.054687 0.066406-3.462e-4 0.037839 0.028688 0.068633 0.064453 0.068359 0.035765 2.739e-4 0.064799-0.03052 0.064453-0.068359-4.228e-4 -0.0033-0.00108-0.00657-0.00195-0.00977-4.23e-4 -0.0033-0.00108-0.00657-0.00195-0.00977-5.659e-4 -0.00198-0.00122-0.00394-0.00195-0.00586-5.659e-4 -0.00198-0.00122-0.00394-0.00195-0.00586-0.0012-0.00202-0.00251-0.00398-0.00391-0.00586-0.0012-0.00202-0.00251-0.00398-0.00391-0.00586l-0.00586-0.00586c-0.00189-0.00141-0.00384-0.00272-0.00586-0.00391l-0.00195-0.00195c-0.00189-0.00141-0.00384-0.00272-0.00586-0.00391-0.00189-0.00141-0.00384-0.00272-0.00586-0.00391-0.00192-7.499e-4 -0.00388-0.0014-0.00586-0.00195-0.00192-7.4991e-4 -0.00388-0.001402-0.00586-0.001953-0.00325-2.6318e-4 -0.00652-2.6318e-4 -0.00977 0h-0.00195c-0.00325-2.6317e-4 -0.00653-2.6337e-4 -0.00977 0zm1.8047 0.0019531c-0.8225 0-1.5 0.6775-1.5 1.5v10.598c4.92e-5 0.05607 0.045494 0.10151 0.10156 0.10156h0.10938c0.43572-1.57e-4 0.78891-0.35334 0.78906-0.78906v-9.9102c0-0.28206 0.21794-0.5 0.5-0.5h10c0.13974 0 0.26292 0.054248 0.35204 0.14293 0.05269 0.052428 0.13813 0.12861 0.2056 0.16034 0.24742 0.11638 0.45056 0.27331 0.64019 0.43011 0.16668 0.13782 0.3022 0.073591 0.3022-0.14285v-0.090531c-3.8e-5 -0.8225-0.67754-1.5-1.5-1.5zm-2.3945 0.064453c-0.031132 0.00186-0.063288 0.00816-0.095703 0.019531-0.58491 0.20524-1.0098 0.76496-1.0098 1.416v11c0 0.8225 0.6775 1.5 1.5 1.5h3.8103a0.32573 0.32573 126.17 0 0 0.31038-0.42455l-0.00767-0.02408a0.79147 0.79147 36.17 0 0-0.75417-0.55137h-3.3589c-0.28206 0-0.5-0.21794-0.5-0.5v-11c0-0.25088 0.1716-0.451 0.4082-0.49219 0.049685-0.00865 0.091797-0.049097 0.091797-0.099609v-0.4082c0-0.24162-0.17661-0.44854-0.39453-0.43555zm13.516 4.4075-0.2433 0.10502a0.62671 0.62671 123.33 0 0-0.37835 0.5754v7.3477c0 0.28206-0.21794 0.5-0.5 0.5h-0.12237a0.99129 0.99129 146.39 0 0-0.91397 0.60749l-0.02476 0.05897a0.24045 0.24045 56.389 0 0 0.22169 0.33354h0.83942c0.8225 0 1.5-0.6775 1.5-1.5v-7.7793a0.27097 0.27097 33.327 0 0-0.37835-0.24878z" fill="#786d7d" style="-inkscape-stroke:none"/><g transform="translate(-.99998 .00013)" fill="#786d7d" stroke-linejoin="round" stroke-width=".964"><circle cx="11" cy="13.399" r="2.6164" opacity=".16"/><path d="m13.973 3c-0.53118 0-0.97266 0.44147-0.97266 0.97266v5.4277c0 1.7599 0.0033 2.8855-0.10742 3.6289-0.11068 0.74341-0.28472 1.08-0.73633 1.5078l-0.0098 0.0098c-0.63735 0.63735-1.6556 0.63735-2.293 0-0.63735-0.63735-0.63735-1.6556 0-2.293 0.59451-0.59451 1.5211-0.63568 2.1602-0.12109 0.07717 0.06214 0.18968 0.06424 0.25977-0.0059l0.05469-0.05469c0.29001-0.29001 0.29225-0.77269-0.06641-0.96875-0.99497-0.54392-2.2754-0.39651-3.1152 0.44336-1.0195 1.0195-1.0195 2.6875 0 3.707 1.0179 1.0179 2.6813 1.0167 3.7012 2e-3 0.57567-0.54788 0.90221-1.2002 1.0332-2.0801 0.13156-0.88331 0.11914-2.0185 0.11914-3.7754v-5.2305c-8.9e-5 -0.093882 0.07604-0.17001 0.16992-0.16992h0.52344c0.32034 0 0.627 0.127 0.85352 0.35352l0.32031 0.32227c0.0986 0.098933 0.25882 0.098933 0.35742 0l0.01563-0.017578c0.28277-0.27576 0.2889-0.72841 0.01367-1.0117-0.41378-0.41378-0.97538-0.64648-1.5605-0.64648h-0.7207z"/></g></svg>
