<svg version="1.1" viewBox="0 0 16 16" xml:space="preserve" xmlns="http://www.w3.org/2000/svg"><defs><style id="current-color-scheme" type="text/css">.ColorScheme-Text {
        color:#232629;
      }</style></defs><path d="m8.4043 2.0547c-0.063981 0-0.12697 0.025403-0.17578 0.074219l-0.35352 0.35352c-0.09763 0.097631-0.09763 0.25588 0 0.35352l1.125 1.1641h-4c-2.2032 0-4 1.7968-4 4 0 1.7495 1.1333 3.2424 2.7031 3.7832 0.13708 0.047222 0.27146-0.038894 0.29688-0.18164l0.027344-0.15234c0.05661-0.31808-0.15261-0.64757-0.4375-0.79883-0.94741-0.50301-1.5898-1.4983-1.5898-2.6504 0-1.6628 1.3372-3 3-3h4l-1.125 1.1113c-0.09862 0.096632-0.09763 0.25589 0 0.35352l0.35352 0.35352c0.09763 0.097631 0.25588 0.097631 0.35352 0l2.0664-2.0664c0.1538-0.15381 0.15381-0.40479 0-0.55859l-2.0664-2.0645c-0.048815-0.048816-0.11375-0.074219-0.17773-0.074219zm3.959 2.209c-0.10466 0.00668-0.198 0.081166-0.22656 0.19336l-0.0293 0.11719c-0.08185 0.32148 0.11183 0.66221 0.39844 0.82812 0.65935 0.38172 1.1584 1.0073 1.3753 1.7554 0.05707 0.19687 0.24672 0.39141 0.45133 0.38213 0.12168-0.00552 0.22499-0.022407 0.33325-0.036749 0.16506-0.021867 0.28427-0.15717 0.25012-0.32064-0.27668-1.3243-1.2115-2.4112-2.4451-2.9013-0.03586-0.014246-0.072532-0.019803-0.10742-0.017578zm-4.7695 4.793c-0.063972 0-0.12697 0.023451-0.17578 0.072266l-2.0664 2.0645c-0.15381 0.15381-0.1538 0.40479 0 0.55859l1.9668 2.0664c0.097631 0.09763 0.25589 0.09763 0.35352 0l0.35352-0.35352c0.09763-0.09763 0.09862-0.25689 0-0.35352l-1.0254-1.1113h0.75479a0.24521 0.24521 135 0 0 0.24521-0.24521v-0.3348a0.41999 0.41999 45 0 0-0.41999-0.41999h-0.58001l1.125-1.1641c0.09763-0.097631 0.09763-0.25589 0-0.35352l-0.35352-0.35352c-0.048816-0.048815-0.11376-0.072266-0.17773-0.072266z" fill="#786d7d" opacity=".5" style="-inkscape-stroke:none;paint-order:markers stroke fill"/><g transform="translate(-.0031264 -1.0224)" fill="#786e7e" fill-opacity=".50196"><path d="m12.5 9.0547c-0.94874 0-1.8094 0.3875-2.4336 1.0117-0.078027 0.07803-0.15233 0.15899-0.22266 0.24414s-0.13719 0.17394-0.19922 0.26562c-0.21711 0.32088-0.38105 0.67967-0.48047 1.0645-0.014204 0.05497-0.027553 0.11003-0.039062 0.16602-0.04628 0.22449-0.070322 0.45553-0.070312 0.69336 0 0.71155 0.21764 1.3737 0.58984 1.9238 0.062032 0.09168 0.1289 0.18048 0.19922 0.26562s0.14463 0.16807 0.22266 0.24609c0.62422 0.62422 1.4849 1.0098 2.4336 1.0098 0.05929-2e-6 0.11916-9.16e-4 0.17773-0.0039 0.70328-0.03585 1.3516-0.28327 1.8828-0.68164 0.96811-0.78456 1.3624-1.572 1.3867-2.7599 0.01459-0.71191-0.21878-1.3735-0.5918-1.9238-0.26864-0.37653-0.54561-0.67792-0.93163-0.9317-0.55003-0.37247-1.2124-0.58987-1.9238-0.58984zm1.248 1.336c0.04957 0.03041 0.05814 0.09894 0.01758 0.14062l-1.2637 1.2637-1.2656-1.2637c-0.04192-0.0424-0.03225-0.11301 0.01953-0.14258 0.7381-0.49148 1.7148-0.44594 2.4922 2e-3zm-3.291 0.8203c0.02765-0.0044 0.05575 0.0043 0.07617 0.02344l1.2656 1.2656-1.2656 1.2656c-0.04181 0.04227-0.11229 0.03358-0.14258-0.01758-0.0268-0.04556-0.05219-0.09319-0.07617-0.14062-0.39829-0.86839-0.29849-1.7047 0.07612-2.3535 0.0144-0.02373 0.03887-0.03956 0.06641-0.04297zm4.0879 0c0.02791 0.0038 0.05245 0.02045 0.06641 0.04492 0.56214 0.69935 0.45047 1.709 5e-5 2.4903-0.03041 0.04957-0.09894 0.05814-0.14062 0.01758l-1.2637-1.2637 1.2637-1.2637c0.01961-0.01927 0.04691-0.02861 0.07422-0.02539zm-2.043 1.9941 1.2637 1.2637c0.04056 0.04168 0.03199 0.11021-0.01758 0.14062-0.96668 0.46462-1.6059 0.47914-2.4922 0.0019-0.05019-0.0297-0.05973-0.09836-0.01953-0.14062l1.2656-1.2656z" fill="#786d7d" fill-opacity="1" style="-inkscape-stroke:none;paint-order:markers stroke fill"/></g></svg>
