<svg width="16" height="16" version="1.1" xml:space="preserve" xmlns="http://www.w3.org/2000/svg"><path d="m2.6953 0.99805c-0.031206 0.004851-0.054418 0.033037-0.054688 0.066406-3.462e-4 0.037839 0.028688 0.068633 0.064453 0.068359 0.035765 2.739e-4 0.064799-0.03052 0.064453-0.068359-4.229e-4 -0.0033-0.0010831-0.0065656-0.0019531-0.0097656-4.23e-4 -0.0033-0.0010831-0.0065656-0.0019531-0.0097656-5.659e-4 -0.00198-0.0012231-0.0039394-0.0019531-0.0058594-5.659e-4 -0.00198-0.0012232-0.0039394-0.0019531-0.0058594-0.0012-0.00202-0.0025063-0.0039794-0.0039063-0.0058593-0.0012-0.00202-0.0025063-0.0039794-0.0039063-0.0058594l-0.0019531-0.0019532-0.0039062-0.0039062c-0.00189-0.00141-0.0038394-0.0027163-0.0058594-0.0039062l-0.0019531-0.0019532c-0.00189-0.00141-0.0038394-0.0027162-0.0058594-0.0039062-0.00189-0.00141-0.0038394-0.0027163-0.0058594-0.0039063-0.00192-7.499e-4 -0.0038794-0.0014031-0.0058594-0.0019531-0.0019199-7.4991e-4 -0.0038793-0.0014021-0.0058593-0.0019531-0.00325-2.6318e-4 -0.0065157-2.6318e-4 -0.0097657 0h-0.0019531c-0.00325-2.6317e-4 -0.0065156-2.6317e-4 -0.0097656 0zm1.8047 0.0019531c-0.8225 0-1.5 0.6775-1.5 1.5v10.598c4.92e-5 0.05607 0.045491 0.10151 0.10156 0.10156h0.10938c0.43572-1.57e-4 0.78891-0.35334 0.78906-0.78906v-9.9102c0-0.28206 0.21794-0.5 0.5-0.5h10c0.28206 0 0.5 0.21794 0.5 0.5v11c0 0.28206-0.21794 0.5-0.5 0.5h-12c-0.28206 0-0.5-0.21794-0.5-0.5v-11c0-0.25088 0.1716-0.451 0.4082-0.49219 0.049685-0.0086486 0.091797-0.049097 0.091797-0.099609v-0.4082c0-0.27614-0.23091-0.50701-0.49023-0.41602-0.58491 0.20524-1.0098 0.76494-1.0098 1.416v11c0 0.8225 0.6775 1.5 1.5 1.5h12c0.8225 0 1.5-0.6775 1.5-1.5v-11c0-0.8225-0.6775-1.5-1.5-1.5h-10zm5 6a0.5 0.5 0 0 0-0.5 0.5 0.5 0.5 0 0 0 0.5 0.5 0.5 0.5 0 0 0 0.5-0.5 0.5 0.5 0 0 0-0.5-0.5z" color="#000000" fill="#786d7d" style="-inkscape-stroke:none"/><path d="m9.5 2.5a5 5 0 0 0-5 5 5 5 0 0 0 5 5 5 5 0 0 0 5-5 5 5 0 0 0-5-5zm0 1a4 4 0 0 1 4 4 4 4 0 0 1-4 4 4 4 0 0 1-4-4 4 4 0 0 1 4-4z" fill="#786d7d" opacity=".16" stroke-linejoin="round"/></svg>
