<svg width="16" height="16" version="1.1" xml:space="preserve" xmlns="http://www.w3.org/2000/svg"><circle cx="8" cy="8" r="6" fill="#821313" opacity=".16" stroke-linejoin="round"/><path d="m7.9961 1.1914a6.8079 6.8079 0 0 0-6.8066 6.8086 6.8079 6.8079 0 0 0 6.8066 6.8086 6.8079 6.8079 0 0 0 6.8086-6.8086 6.8079 6.8079 0 0 0-6.8086-6.8086zm0 0.98633a5.8221 5.8221 0 0 1 5.8223 5.8223 5.8221 5.8221 0 0 1-5.8223 5.8223 5.8221 5.8221 0 0 1-5.8203-5.8223 5.8221 5.8221 0 0 1 5.8203-5.8223zm0.0039062 4.8223a1 1 0 0 0-1 1 1 1 0 0 0 1 1 1 1 0 0 0 1-1 1 1 0 0 0-1-1z" fill="#821313" stroke-linejoin="round"/></svg>
