<svg width="16" height="16" version="1.1" viewBox="0 0 16 16" xml:space="preserve" xmlns="http://www.w3.org/2000/svg"><path d="m1.2246 0c-0.67058 0-1.2246 0.55404-1.2246 1.2246v0.77539c0 0.54636 0.45364 1 1 1h1.7734c0.40155 0 0.72656-0.32501 0.72656-0.72656v-0.13672c0-0.076037-0.060679-0.13672-0.13672-0.13672h-2.3633v-0.77539c0-0.13014 0.09447-0.22461 0.22461-0.22461h9.7754v1h-6.3047c-0.38392 0-0.69531 0.31139-0.69531 0.69531v0.14453c0 0.088916 0.071236 0.16016 0.16016 0.16016h6.8398c0.54636 0 1-0.45364 1-1v-1c0-0.54636-0.45364-1-1-1h-9.7754zm0 4c-0.67058 0-1.2246 0.55404-1.2246 1.2246v0.77539c0 0.54636 0.45364 1 1 1h0.77344c0.40155 0 0.72656-0.32501 0.72656-0.72656v-0.13672c0-0.076037-0.060679-0.13672-0.13672-0.13672h-1.3633v-0.77539c0-0.13014 0.09447-0.22461 0.22461-0.22461h5.7754v1h-3.3047c-0.38392 0-0.69531 0.31139-0.69531 0.69531v0.14453c0 0.088916 0.071236 0.16016 0.16016 0.16016h3.8398c0.54636 0 1-0.45364 1-1v-1c0-0.54636-0.45364-1-1-1h-5.7754zm0 4c-0.67058 0-1.2246 0.55404-1.2246 1.2246v0.77539c0 0.54636 0.45364 1 1 1h1.7734c0.40155 0 0.72656-0.32501 0.72656-0.72656v-0.13672c0-0.07604-0.060679-0.13672-0.13672-0.13672h-2.3633v-0.77539c0-0.13014 0.09447-0.22461 0.22461-0.22461h7.7754v1h-4.3047c-0.38392 0-0.69531 0.31139-0.69531 0.69531v0.14453c0 0.08892 0.071236 0.16016 0.16016 0.16016h4.8398c0.54636 0 1-0.45364 1-1v-1c0-0.54636-0.45364-1-1-1h-7.7754zm0 4c-0.67058 0-1.2246 0.55404-1.2246 1.2246v0.77539c0 0.54636 0.45364 1 1 1h0.77344c0.40155 0 0.72656-0.32501 0.72656-0.72656v-0.13672c0-0.07604-0.060679-0.13672-0.13672-0.13672h-1.3633v-0.77539c0-0.13014 0.09447-0.22461 0.22461-0.22461h4.7754v1h-2.3047c-0.38392 0-0.69531 0.31139-0.69531 0.69531v0.14453c0 0.08892 0.071236 0.16016 0.16016 0.16016h2.8398c0.54636 0 1-0.45364 1-1v-1c0-0.54636-0.45364-1-1-1h-4.7754z" fill="#786d7d" stroke-linejoin="round" stroke-width=".964"/><g transform="translate(-.04277 .041526)" fill="#786d7d"><g transform="translate(0,2)"><path d="m12.263 7.4585c-0.1215 0-0.2207 0.099201-0.2207 0.2207v1.2793c0 1.099 0.901 2 2 2h0.88867c0.33722-5.51e-4 0.61078-0.27411 0.61133-0.61133v-0.07422c0-0.17342-0.14104-0.31445-0.31445-0.31445h-1.1855c-0.558 0-1-0.442-1-1v-1c0-0.27614-0.22386-0.5-0.5-0.5zm-2.4668 2.5c-0.14028 0-0.25391 0.11363-0.25391 0.25391v0.55078c0 0.109 0.087313 0.19531 0.19531 0.19531h1.3047c0.558 0 1 0.442 1 1v1.2109c0 0.16 0.12906 0.28906 0.28906 0.28906h0.33984c0.20513 5.55e-4 0.37165-0.16597 0.37109-0.37109v-1.1289c0-1.099-0.901-2-2-2z" style="-inkscape-stroke:none"/></g><circle cx="3.5" cy="6.5" r=".5" stroke-linejoin="round" stroke-width=".96891"/></g></svg>
