<svg version="1.1" viewBox="0 0 16 16" xml:space="preserve" xmlns="http://www.w3.org/2000/svg"><defs><style id="current-color-scheme" type="text/css">
      .ColorScheme-Text {
        color:#232629;
      }
      </style></defs><path d="m1.6953 0.99805c-0.031206 0.004851-0.054418 0.033037-0.054687 0.066406-3.462e-4 0.037839 0.028688 0.068633 0.064453 0.068359 0.035765 2.739e-4 0.064799-0.03052 0.064453-0.068359-4.225e-4 -0.0033-0.00108-0.00657-0.00195-0.00977-4.23e-4 -0.0033-0.00108-0.00657-0.00195-0.00977-5.659e-4 -0.00198-0.00122-0.00394-0.00195-0.00586-5.659e-4 -0.00198-0.00122-0.00394-0.00195-0.00586-0.0012-0.00202-0.00251-0.00398-0.00391-0.00586-0.0012-0.00202-0.00251-0.00398-0.00391-0.00586l-0.00586-0.00586c-0.00189-0.00141-0.00384-0.00272-0.00586-0.00391l-0.00195-0.00195c-0.00189-0.00141-0.00384-0.00272-0.00586-0.00391-0.00189-0.00141-0.00384-0.00272-0.00586-0.00391-0.00192-7.499e-4 -0.00388-0.0014-0.00586-0.00195-0.00192-7.4995e-4 -0.00388-0.001402-0.00586-0.001953-0.00325-2.6318e-4 -0.00652-2.6318e-4 -0.00977 0h-0.00195c-0.00325-2.6317e-4 -0.00653-2.6337e-4 -0.00977 0zm1.8047 0.0019531c-0.8225 0-1.5 0.6775-1.5 1.5v10.598c4.92e-5 0.05607 0.045497 0.10151 0.10156 0.10156h0.10938c0.43572-1.57e-4 0.78891-0.35334 0.78906-0.78906v-9.9102c0-0.28206 0.21794-0.5 0.5-0.5h10c0.28206 0 0.5 0.21794 0.5 0.5v2.0918c7.3e-5 0.32506 0.19697 0.6177 0.49805 0.74023l0.0039 0.00195c0.23757 0.097627 0.49818-0.077144 0.49805-0.33398v-2.5c0-0.8225-0.6775-1.5-1.5-1.5zm-2.3945 0.064453c-0.031132 0.00186-0.063288 0.00816-0.095703 0.019531-0.58491 0.20524-1.0098 0.76498-1.0098 1.416v11c0 0.8225 0.6775 1.5 1.5 1.5h2.3203c0.21564 0.0012 0.33467-0.24982 0.19727-0.41602l-0.14062-0.16797c-0.21532-0.26294-0.5371-0.41559-0.87695-0.41602h-1.5c-0.28206 0-0.5-0.21794-0.5-0.5v-11c0-0.25088 0.1716-0.451 0.4082-0.49219 0.049685-0.00865 0.091797-0.049097 0.091797-0.099609v-0.4082c0-0.24162-0.17661-0.44854-0.39453-0.43555zm12 5.3906c-0.06398 0-0.12892 0.025403-0.17774 0.074219l-0.35352 0.35352c-0.09763 0.097631-0.09763 0.25588 0 0.35352l0.72656 0.76367h-1.3008c-1.0716 1.5e-4 -2.0618 0.57193-2.5977 1.5-0.26795 0.4641-0.40234 0.98205-0.40234 1.5 0 0.3453-0.08894 0.6906-0.26758 1-0.35733 0.61892-1.0178 1.0001-1.7324 1h-1.8562a0.14382 0.14382 135 0 0-0.14382 0.14382v0.2467a0.60948 0.60948 45 0 0 0.60948 0.60948h1.3905c1.0716-1.5e-4 2.0618-0.57193 2.5977-1.5 0.26795-0.4641 0.40234-0.98205 0.40234-1.5 0-0.3453 0.08894-0.6906 0.26758-1 0.35733-0.61892 1.0178-1.0001 1.7324-1h1.3008l-0.72656 0.71094c-0.09862 0.09663-0.09763 0.25588 0 0.35352l0.35352 0.35352c0.09763 0.09763 0.25588 0.09763 0.35352 0l1.666-1.666c0.1538-0.15381 0.1538-0.40479 0-0.55859l-1.5274-1.5256c-0.076537-0.076447-0.13858-0.13842-0.13858-0.13842-0.04881-0.048815-0.1118-0.074219-0.17578-0.074219zm-8.1055 1.9267v0.34771a0.27053 0.27053 45 0 0 0.27053 0.27053h1.7295c0.48461-6.78e-5 0.94361 0.17656 1.3008 0.48242 0.067596-0.16447 0.14612-0.32618 0.23633-0.48242 0.080522-0.13945 0.16955-0.27216 0.26562-0.39648-0.51175-0.38514-1.1412-0.60342-1.8027-0.60352h-1.6182a0.38177 0.38177 135 0 0-0.38177 0.38177zm8.1035 3.128c-0.06397 0-0.12697 0.02345-0.17578 0.07226l-0.35352 0.35352c-0.09763 0.09764-0.09862 0.25689 0 0.35352l0.72656 0.71094h-1.3008c-0.48461 6.8e-5 -0.94362-0.17656-1.3008-0.48242-0.0676 0.16447-0.14612 0.32618-0.23633 0.48242-0.08025 0.13898-0.16875 0.27181-0.26367 0.39844 0.51136 0.38412 1.1402 0.60147 1.8008 0.60156h1.3008l-0.72656 0.76367c-0.09763 0.09764-0.09763 0.25589 0 0.35352l0.35352 0.35352c0.04881 0.04882 0.11376 0.07422 0.17774 0.07422 0.06398 1e-6 0.12697-0.02541 0.17578-0.07422l1.666-1.6641c0.1538-0.1538 0.1538-0.40478 0-0.55859l-1.666-1.666c-0.04882-0.04882-0.11376-0.07226-0.17773-0.07226z" fill="#786d7d" style="-inkscape-stroke:none;paint-order:markers stroke fill"/></svg>
