<svg version="1.1" viewBox="0 0 16 16" xml:space="preserve" xmlns="http://www.w3.org/2000/svg"><defs><style id="current-color-scheme" type="text/css">
      .ColorScheme-Text {
        color:#232629;
      }
      </style><style type="text/css">
      .ColorScheme-Text {
        color:#232629;
      }
      </style></defs><path d="m13.105 6.4551c-0.06398 0-0.12892 0.025403-0.17774 0.074219l-0.35352 0.35352c-0.09763 0.097631-0.09763 0.25588 0 0.35352l0.72656 0.76367h-1.3008c-1.0716 1.5e-4 -2.0618 0.57193-2.5977 1.5-0.26795 0.4641-0.40234 0.98205-0.40234 1.5 0 0.3453-0.08894 0.6906-0.26758 1-0.35733 0.61892-1.0178 1.0001-1.7324 1h-1.4562a0.14382 0.14382 135 0 0-0.14382 0.14382v0.2467a0.60948 0.60948 45 0 0 0.60948 0.60948h0.99052c1.0716-1.5e-4 2.0618-0.57193 2.5977-1.5 0.26795-0.4641 0.40234-0.98205 0.40234-1.5 0-0.3453 0.08894-0.6906 0.26758-1 0.35733-0.61892 1.0178-1.0001 1.7324-1h1.3008l-0.72656 0.71094c-0.09862 0.09663-0.09763 0.25588 0 0.35352l0.35352 0.35352c0.09763 0.09763 0.25588 0.09763 0.35352 0l1.666-1.666c0.1538-0.15381 0.1538-0.40479 0-0.55859l-1.5274-1.5256c-0.076537-0.076447-0.13858-0.13842-0.13858-0.13842-0.04881-0.048815-0.1118-0.074219-0.17578-0.074219zm-7.7055 1.9267v0.34771a0.27053 0.27053 45 0 0 0.27053 0.27053h1.3295c0.48461-6.78e-5 0.94361 0.17656 1.3008 0.48242 0.067596-0.16447 0.14612-0.32618 0.23633-0.48242 0.080522-0.13945 0.16955-0.27216 0.26562-0.39648-0.51175-0.38514-1.1412-0.60342-1.8027-0.60352h-1.2182a0.38177 0.38177 135 0 0-0.38177 0.38177zm7.7035 3.128c-0.06397 0-0.12697 0.02345-0.17578 0.07226l-0.35352 0.35352c-0.09763 0.09764-0.09862 0.25689 0 0.35352l0.72656 0.71094h-1.3008c-0.48461 6.8e-5 -0.94362-0.17656-1.3008-0.48242-0.0676 0.16447-0.14612 0.32618-0.23633 0.48242-0.08025 0.13898-0.16875 0.27181-0.26367 0.39844 0.51136 0.38412 1.1402 0.60147 1.8008 0.60156h1.3008l-0.72656 0.76367c-0.09763 0.09764-0.09763 0.25589 0 0.35352l0.35352 0.35352c0.04881 0.04882 0.11376 0.07422 0.17774 0.07422 0.06398 1e-6 0.12697-0.02541 0.17578-0.07422l1.666-1.6641c0.1538-0.1538 0.1538-0.40478 0-0.55859l-1.666-1.666c-0.04882-0.04882-0.11376-0.07226-0.17773-0.07226z" fill="#786d7d" style="-inkscape-stroke:none;paint-order:markers stroke fill"/><path d="m1.2247 0c-0.67058 0-1.2246 0.55405-1.2246 1.2246v0.77539c0 0.54636 0.45364 1 1 1h1.7734c0.40155 0 0.72656-0.32501 0.72656-0.72656v-0.13672c0-0.07604-0.06068-0.13672-0.13672-0.13672h-2.3633v-0.77539c0-0.13014 0.09447-0.22461 0.22461-0.22461h9.7754v1h-6.3047c-0.38392 0-0.69531 0.31139-0.69531 0.69531v0.14453c0 0.08892 0.07124 0.16016 0.16016 0.16016h6.8398c0.54636 0 1-0.45364 1-1v-1c0-0.54636-0.45364-1-1-1zm0 4c-0.67058 0-1.2246 0.55405-1.2246 1.2246v0.77539c0 0.54636 0.45364 1 1 1h0.77344c0.40155 0 0.72656-0.32501 0.72656-0.72656v-0.13672c0-0.07604-0.06068-0.13672-0.13672-0.13672h-1.3633v-0.77539c0-0.13014 0.09447-0.22461 0.22461-0.22461h7.7754c0 1-5e-5 0.11662-5e-5 0.40001 0 0.30031 0.1213 0.3587 0.28454 0.33344 0.47356-0.073277 0.71546-0.1761 0.71546-0.33344 0 0 1e-5 -0.14545 1e-5 -0.40002 0-0.54636-0.45364-1-1-1zm0 4c-0.67058 0-1.2246 0.55405-1.2246 1.2246v0.77539c0 0.54636 0.45364 1 1 1h2.3734c0.0361 0 0.07134-0.0033 0.10574-0.0091 0.07011-0.01184 0.13219-0.08915 0.14139-0.15974l0.09168-0.70333c0.0088308-0.067749-0.043918-0.12782-0.11224-0.12782h-2.6v-0.77539c0-0.13014 0.09447-0.22461 0.22461-0.22461h1.9551c0.22626 1e-6 0.44061-0.10141 0.58411-0.27634l0.36694-0.44732c0.09053-0.11037 0.012011-0.27634-0.13074-0.27634zm0 4c-0.67058 0-1.2246 0.55405-1.2246 1.2246v0.77539c0 0.54636 0.45364 1 1 1h0.77344c0.40155 0 0.72656-0.32502 0.72656-0.72656v-0.13672c0-0.07604-0.06068-0.13672-0.13672-0.13672h-1.3633v-0.77539c0-0.13014 0.09447-0.22461 0.22461-0.22461h1.8551c0.1974 0 0.25824-0.12288 0.29287-0.31716l0.06081-0.34116c0.034627-0.19427-0.26449-0.34169-0.46188-0.34169zm2.4707 2c-0.38392 0-0.69531 0.31139-0.69531 0.69531v0.14453c0 0.08892 0.07124 0.16016 0.16016 0.16016h2.8398c0.17772 0 0.17328-0.08212 4.58e-4 -0.12691-0.4937-0.12793-0.95653-0.34905-1.3648-0.64896-0.15903-0.11683-0.43828-0.22413-0.63568-0.22413z" color="#000000" fill="#786d7d" style="-inkscape-stroke:none;paint-order:markers stroke fill"/></svg>
