<svg width="16" height="16" version="1.1" xml:space="preserve" xmlns="http://www.w3.org/2000/svg"><path d="m4.7363 2.4805c-0.89612 0.002231-1.7422 0.7197-1.7422 1.7109v0.58008a0.2634 0.2634 0 0 0 0.41211 0.21875l0.29492-0.20117a0.6694 0.6694 0 0 0 0.29297-0.55273v-0.044922c0-0.589 0.59756-0.92054 1.0977-0.60938l6.832 4.252c0.14092 0.087683 0.14092 0.24435 0 0.33203l-6.832 4.252c-0.50009 0.31117-1.0977-0.020377-1.0977-0.60938v-4.1367a0.41494 0.41494 0 0 0-0.63867-0.34961l-0.24219 0.1543a0.25911 0.25911 0 0 0-0.11914 0.21875v4.1133c-9e-7 1.3216 1.5048 2.1553 2.627 1.457l6.8301-4.25c0.73487-0.45725 0.73487-1.574 0-2.0312l-6.8301-4.25c-0.28054-0.17456-0.58606-0.25465-0.88477-0.25391zm-1.2363 3.5176a0.5 0.5 0 0 0-0.5 0.5 0.5 0.5 0 0 0 0.5 0.5 0.5 0.5 0 0 0 0.5-0.5 0.5 0.5 0 0 0-0.5-0.5z" color="#000000" fill="#786d7d" stroke-linejoin="round" style="-inkscape-stroke:none"/><g transform="translate(15.538 22.765)" fill="#786d7d"><path d="m-8.1286 16.95c-0.51289 0-1.0256 0.1936-1.4141 0.58203l-6.8789 6.8789c-0.77686 0.77686-0.77686 2.0513 0 2.8281l3.5859 3.5859c0.32001 0.32001 0.75447 0.5 1.207 0.5h7.25a0.75 0.75 0 0 0 0.75-0.75 0.25 0.25 0 0 0-0.25-0.25h-7.75c-0.18773 0-0.36726-0.07429-0.5-0.20703l-3.5859-3.5859c-0.39471-0.39471-0.39471-1.0194 0-1.4141l6.8789-6.8789c0.39471-0.39471 1.0194-0.39471 1.4141 0l3.8789 3.8789c0.39471 0.39471 0.39471 1.0194 0 1.4141l-4.5859 4.5859-3.6162-3.6162a0.75 0.75 0 0 0-1.0607 0 0.24995 0.24995 0 0 0 7.5e-5 0.35348l3.9697 3.9697c0.38634 0.38634 1.0277 0.38634 1.4141 0l4.5859-4.5859c0.77686-0.77686 0.77686-2.0513 0-2.8281l-3.8789-3.8789c-0.38843-0.38843-0.90117-0.58203-1.4141-0.58203z" color="#000000" display="none" style="-inkscape-stroke:none;paint-order:markers stroke fill"/><g transform="translate(-.0059 -.0098)"/></g></svg>
