<svg width="16" height="16" version="1.1" xml:space="preserve" xmlns="http://www.w3.org/2000/svg"><g fill="#786d7d"><path d="m7.998 0.99609c-0.39349 0-0.78703 0.18335-1.0156 0.55078l-4.25 5.8301c-0.17456 0.28054-0.25465 0.58606-0.25391 0.88477 0.00223 0.89612 0.71974 1.7422 1.7109 1.7422h0.58008c0.21241 0.0011 0.33868-0.23679 0.21875-0.41211l-0.20117-0.29492c-0.12447-0.18304-0.33139-0.2927-0.55273-0.29297h-0.044922c-0.589 0-0.92053-0.59752-0.60938-1.0977l4.252-5.832c0.087683-0.14092 0.24435-0.14092 0.33203 0l4.252 5.832c0.31117 0.50009-0.020376 1.0977-0.60938 1.0977h-4.1367c-0.32801-1.209e-4 -0.52647 0.36243-0.34961 0.63867l0.1543 0.24219c0.047794 0.07446 0.13027 0.11938 0.21875 0.11914h4.1133c1.3216 1e-6 2.1553-1.5048 1.457-2.627l-4.25-5.8301c-0.22862-0.36743-0.62213-0.55078-1.0156-0.55078zm-1.502 8.002c-0.27614 0-0.5 0.22386-0.5 0.5s0.22386 0.5 0.5 0.5c0.27614 0 0.5-0.22386 0.5-0.5 0-0.27614-0.22386-0.5-0.5-0.5zm-2.9961 3.002c-0.831 0-1.5 0.669-1.5 1.5s0.669 1.5 1.5 1.5h9c0.831 0 1.5-0.669 1.5-1.5s-0.669-1.5-1.5-1.5h-9zm0 1h9c0.277 0 0.5 0.223 0.5 0.5s-0.223 0.5-0.5 0.5h-9c-0.277 0-0.5-0.223-0.5-0.5s0.223-0.5 0.5-0.5z" style="-inkscape-stroke:none"/><g transform="translate(15.538 22.765)"><path d="m-8.1286 16.95c-0.51289 0-1.0256 0.1936-1.4141 0.58203l-6.8789 6.8789c-0.77686 0.77686-0.77686 2.0513 0 2.8281l3.5859 3.5859c0.32001 0.32001 0.75447 0.5 1.207 0.5h7.25a0.75 0.75 0 0 0 0.75-0.75 0.25 0.25 0 0 0-0.25-0.25h-7.75c-0.18773 0-0.36726-0.07429-0.5-0.20703l-3.5859-3.5859c-0.39471-0.39471-0.39471-1.0194 0-1.4141l6.8789-6.8789c0.39471-0.39471 1.0194-0.39471 1.4141 0l3.8789 3.8789c0.39471 0.39471 0.39471 1.0194 0 1.4141l-4.5859 4.5859-3.6162-3.6162a0.75 0.75 0 0 0-1.0607 0 0.24995 0.24995 0 0 0 7.5e-5 0.35348l3.9697 3.9697c0.38634 0.38634 1.0277 0.38634 1.4141 0l4.5859-4.5859c0.77686-0.77686 0.77686-2.0513 0-2.8281l-3.8789-3.8789c-0.38843-0.38843-0.90117-0.58203-1.4141-0.58203z" color="#000000" display="none" style="-inkscape-stroke:none;paint-order:markers stroke fill"/></g><rect x="3" y="13" width="10" height="1" rx=".5" ry=".5" opacity=".16" stroke-linejoin="round"/></g></svg>
