<svg width="16" height="16" version="1.1" xml:space="preserve" xmlns="http://www.w3.org/2000/svg"><path d="m5.5684 1c-0.15018-0.001765-0.30036 0.0032191-0.44922 0.013672-1.7864 0.12543-3.4502 1.121-4.3828 2.7363-1.2435 2.1537-0.88351 4.8802 0.875 6.6387 1.684 1.684 4.2557 2.0854 6.362 1.0244 0.15511-0.07814 0.20638-0.27139 0.11964-0.42184l-0.016155-0.02802c-0.18047-0.31301-0.57954-0.41514-0.9149-0.28152-1.6502 0.65752-3.5577 0.2857-4.8435-1.0001-1.4419-1.4419-1.7344-3.6657-0.71484-5.4316 1.0196-1.7659 3.0909-2.6235 5.0605-2.0957 1.9697 0.52777 3.3359 2.3066 3.3359 4.3457l-0.00582 3.2715c-0.00109 0.21241 0.23679 0.33868 0.41211 0.21875l0.29492-0.20117c0.18304-0.12447 0.2927-0.33139 0.29297-0.55273v-0.044922c0-0.589 0.59752-0.92053 1.0977-0.60938l2.832 2.252c0.14092 0.08768 0.14092 0.24435 0 0.33203l-2.832 2.252c-0.50009 0.31117-1.0977-0.02038-1.0977-0.60938v-0.13672c1.21e-4 -0.32801-0.36243-0.52647-0.63867-0.34961l-0.24219 0.1543c-0.07462 0.04754-0.11938 0.13028-0.11914 0.21875v0.11328c0 1.3216 1.5048 2.1553 2.627 1.457l2.8301-2.25c0.73487-0.45725 0.73487-1.574 0-2.0313l-2.8301-2.25c-0.28058-0.17456-0.5861-0.25465-0.8848-0.25391-0.25603 6.373e-4 -0.50703 0.060851-0.73633 0.16797v-1.1484c0-2.4869-1.674-4.6688-4.0762-5.3125-0.45041-0.12069-0.90492-0.1822-1.3555-0.1875zm-0.56836 2.4097v3.5903h3.0346c0.14659 0 0.26543-0.11884 0.26543-0.26543v-0.2165c0-0.28612-0.23195-0.51807-0.51807-0.51807h-1.7819v-2.6241c0-0.20758-0.16828-0.37586-0.37586-0.37586h-0.21444c-0.22627 0-0.4097 0.18343-0.4097 0.4097zm5.5 7.5883c-0.27614 0-0.5 0.22386-0.5 0.5s0.22386 0.5 0.5 0.5 0.5-0.22386 0.5-0.5-0.22386-0.5-0.5-0.5z" fill="#786d7d" style="-inkscape-stroke:none"/><g transform="translate(15.538 22.765)" fill="#786d7d"><path d="m-8.1286 16.95c-0.51289 0-1.0256 0.1936-1.4141 0.58203l-6.8789 6.8789c-0.77686 0.77686-0.77686 2.0513 0 2.8281l3.5859 3.5859c0.32001 0.32001 0.75447 0.5 1.207 0.5h7.25a0.75 0.75 0 0 0 0.75-0.75 0.25 0.25 0 0 0-0.25-0.25h-7.75c-0.18773 0-0.36726-0.07429-0.5-0.20703l-3.5859-3.5859c-0.39471-0.39471-0.39471-1.0194 0-1.4141l6.8789-6.8789c0.39471-0.39471 1.0194-0.39471 1.4141 0l3.8789 3.8789c0.39471 0.39471 0.39471 1.0194 0 1.4141l-4.5859 4.5859-3.6162-3.6162a0.75 0.75 0 0 0-1.0607 0 0.24995 0.24995 0 0 0 7.5e-5 0.35348l3.9697 3.9697c0.38634 0.38634 1.0277 0.38634 1.4141 0l4.5859-4.5859c0.77686-0.77686 0.77686-2.0513 0-2.8281l-3.8789-3.8789c-0.38843-0.38843-0.90117-0.58203-1.4141-0.58203z" color="#000000" display="none" style="-inkscape-stroke:none;paint-order:markers stroke fill"/></g></svg>
