<svg version="1.1" viewBox="0 0 16 16" xmlns="http://www.w3.org/2000/svg">
 <defs>
  <style id="current-color-scheme" type="text/css">.ColorScheme-Text {
        color:#232629;
      }</style>
 </defs>
 <path d="m12.404 2.0547c-0.06398 0-0.12697 0.025403-0.17578 0.074219l-0.35352 0.35352c-0.09763 0.097631-0.09763 0.25588 0 0.35352l1.125 1.1641h-2c-2.2032 0-4 1.7968-4 4 0 1.6628-1.3372 3-3 3h-2.4508a0.54919 0.54919 135 0 0-0.54919 0.54919v0.20614a0.24467 0.24467 45 0 0 0.24468 0.24468h2.7553c2.2032 0 4-1.7968 4-4 0-1.6628 1.3372-3 3-3h2l-1.125 1.1113c-0.09862 0.096632-0.09763 0.25589 0 0.35352l0.35352 0.35352c0.09763 0.09763 0.25588 0.097631 0.35352 0l2.0664-2.0664c0.1538-0.15381 0.15381-0.40479 0-0.55859l-2.0664-2.0645c-0.04881-0.048816-0.11375-0.074219-0.17773-0.074219zm-11.404 2.2529v0.099386a0.59298 0.59298 45 0 0 0.59298 0.59298h2.407c0.80548 0 1.5324 0.31554 2.0694 0.8287 0.17235 0.1647 0.38085 0.14899 0.49295-0.061632l0.094054-0.17672c0.1121-0.21062 0.069098-0.52189-0.11472-0.67383-0.6918-0.57184-1.5775-0.91652-2.5417-0.91652h-2.6924a0.30764 0.30764 135 0 0-0.30764 0.30764zm11.406 4.749c-0.06397 0-0.12892 0.023451-0.17773 0.072266l-0.35352 0.35352c-0.09763 0.09763-0.09763 0.25588 0 0.35352l1.125 1.1641h-2c-0.83162 0-1.5795-0.33635-2.1211-0.87926-0.14023-0.14058-0.31399-0.127-0.40734 0.048385l-0.16197 0.30432c-0.093345 0.17539-0.057421 0.43423 0.093381 0.56349 0.6996 0.59963 1.6069 0.96306 2.597 0.96306h2l-1.0254 1.1113c-0.09862 0.09663-0.09763 0.25589 0 0.35352l0.35352 0.35352c0.09763 0.09763 0.25589 0.09763 0.35352 0l1.9668-2.0664c0.1538-0.1538 0.15381-0.40478 0-0.55859l-2.0664-2.0645c-0.04882-0.048815-0.11181-0.072266-0.17578-0.072266z" fill="#786d7d" style="-inkscape-stroke:none;paint-order:markers stroke fill"/>
</svg>
