<svg width="16" height="16" version="1.1" xml:space="preserve" xmlns="http://www.w3.org/2000/svg"><path d="m13.369 1c-1.3036 0-2.3691 1.0655-2.3691 2.3691l-0.005859 9.1309h0.0059v0.13086c-4.1e-5 1.3037 1.0655 2.3691 2.3691 2.3691h0.26172c1.3037 0 2.3691-1.0655 2.3691-2.3691v-9.2617c0-1.3036-1.0655-2.3691-2.3691-2.3691zm-11.633 1.4805c-0.89611 0.00223-1.7422 0.71974-1.7422 1.7109v0.58008c-0.0011 0.21241 0.23679 0.33868 0.41211 0.21875l0.29492-0.20117c0.18304-0.12447 0.2927-0.33138 0.29297-0.55273v-0.044922c0-0.589 0.59752-0.92053 1.0977-0.60938l2.9023 2.1074v4.6211l-2.9023 2.1074c-0.50009 0.31116-1.0977-0.02038-1.0977-0.60938v-4.1367c-3.48e-4 -0.2347-0.19513-0.4224-0.42969-0.41406-0.07417 0.00241-0.14634 0.024667-0.20898 0.064453l-0.24219 0.1543c-0.07446 0.047794-0.11938 0.13028-0.11914 0.21875v4.1133c-1e-6 1.3216 1.5048 2.1553 2.627 1.457l2.373-1.7773v0.32031c0 1.3216 1.5048 2.1553 2.627 1.457l2.8789-2.0996v-1.2324l-3.4082 2.4844c-0.50009 0.31117-1.0977-0.02038-1.0977-0.60938v-1.5527c-1.016e-4 -2.0108 0-4.0679 0-6.0645 0-0.44175 0.3358-0.73893 0.71484-0.72852 0.12635 0.00347 0.25778 0.041351 0.38281 0.11914l3.4082 2.4844v-1.2324l-2.8789-2.0996c-0.28054-0.17456-0.58606-0.25465-0.88477-0.25391-0.89612 0.0022306-1.7422 0.71974-1.7422 1.7109v0.32031l-2.373-1.7773c-0.28054-0.17456-0.58606-0.25465-0.88477-0.25391zm11.633-0.48047h0.26172c0.76695 0 1.3691 0.60223 1.3691 1.3691v9.2617c0 0.76695-0.60223 1.3691-1.3691 1.3691h-0.26172c-0.76695 0-1.3691-0.60223-1.3691-1.3691v-0.13086h-0.0059l0.0059-9.1309c0-0.76695 0.60223-1.3691 1.3691-1.3691zm-12.869 3.998c-0.27614 0-0.5 0.22386-0.5 0.5s0.22386 0.5 0.5 0.5c0.27614 0 0.5-0.22386 0.5-0.5s-0.22386-0.5-0.5-0.5z" fill="#786d7d" style="-inkscape-stroke:none"/><g transform="translate(15.538 22.765)" fill="#786d7d"><path d="m-8.1286 16.95c-0.51289 0-1.0256 0.1936-1.4141 0.58203l-6.8789 6.8789c-0.77686 0.77686-0.77686 2.0513 0 2.8281l3.5859 3.5859c0.32001 0.32001 0.75447 0.5 1.207 0.5h7.25a0.75 0.75 0 0 0 0.75-0.75 0.25 0.25 0 0 0-0.25-0.25h-7.75c-0.18773 0-0.36726-0.07429-0.5-0.20703l-3.5859-3.5859c-0.39471-0.39471-0.39471-1.0194 0-1.4141l6.8789-6.8789c0.39471-0.39471 1.0194-0.39471 1.4141 0l3.8789 3.8789c0.39471 0.39471 0.39471 1.0194 0 1.4141l-4.5859 4.5859-3.6162-3.6162a0.75 0.75 0 0 0-1.0607 0 0.24995 0.24995 0 0 0 7.5e-5 0.35348l3.9697 3.9697c0.38634 0.38634 1.0277 0.38634 1.4141 0l4.5859-4.5859c0.77686-0.77686 0.77686-2.0513 0-2.8281l-3.8789-3.8789c-0.38843-0.38843-0.90117-0.58203-1.4141-0.58203z" color="#000000" display="none" style="-inkscape-stroke:none;paint-order:markers stroke fill"/></g></svg>
