<svg version="1.1" viewBox="0 0 16 16" xmlns="http://www.w3.org/2000/svg">
 <defs>
  <style id="current-color-scheme" type="text/css">.ColorScheme-Text {
        color:#232629;
      }</style>
 </defs>
 <path d="m8.4043 2.0547c-0.063981 0-0.12697 0.025403-0.17578 0.074219l-0.35352 0.35352c-0.09763 0.097631-0.09763 0.25588 0 0.35352l1.125 1.1641h-4c-2.2032 0-4 1.7968-4 4 0 1.7495 1.1333 3.2424 2.7031 3.7832 0.13708 0.047222 0.27146-0.038894 0.29688-0.18164l0.027344-0.15234c0.05661-0.31808-0.15261-0.64757-0.4375-0.79883-0.94741-0.50301-1.5898-1.4983-1.5898-2.6504 0-1.6628 1.3372-3 3-3h4l-1.125 1.1113c-0.09862 0.096632-0.09763 0.25589 0 0.35352l0.35352 0.35352c0.09763 0.097631 0.25588 0.097631 0.35352 0l2.0664-2.0664c0.1538-0.15381 0.15381-0.40479 0-0.55859l-2.0664-2.0645c-0.048815-0.048816-0.11375-0.074219-0.17773-0.074219zm3.959 2.209c-0.10466 0.00668-0.198 0.081166-0.22656 0.19336l-0.0293 0.11719c-0.08185 0.32148 0.11183 0.66221 0.39844 0.82812 0.89463 0.51793 1.4941 1.4848 1.4941 2.5977v2.3174c0 0.17527 0.09498 0.21134 0.20015 0.07118 0.50072-0.66729 0.79985-1.4932 0.79985-2.3886 0-1.6847-1.0497-3.131-2.5293-3.7188-0.03586-0.014246-0.072532-0.019803-0.10742-0.017578zm-1.3633 4.3517v0.22997a0.15468 0.15468 45 0 0 0.15468 0.15468h0.84532v4.3101a0.68993 0.68993 45 0 0 0.68993 0.68993h0.14812a0.16195 0.16195 135 0 0 0.16195-0.16195v-5.478a0.36008 0.36008 45 0 0-0.36008-0.36008h-1.0246a0.61535 0.61535 135 0 0-0.61535 0.61535zm-3.4062 0.44129c-0.063972 0-0.12697 0.023451-0.17578 0.072266l-2.0664 2.0645c-0.15381 0.15381-0.1538 0.40479 0 0.55859l1.9668 2.0664c0.097631 0.09763 0.25589 0.09763 0.35352 0l0.35352-0.35352c0.09763-0.09763 0.09862-0.25689 0-0.35352l-1.0254-1.1113h3.7548a0.24521 0.24521 135 0 0 0.24521-0.24521v-0.3348a0.41999 0.41999 45 0 0-0.41999-0.41999h-3.58l1.125-1.1641c0.09763-0.097631 0.09763-0.25589 0-0.35352l-0.35352-0.35352c-0.048816-0.048815-0.11376-0.072266-0.17773-0.072266z" fill="#786d7d" style="-inkscape-stroke:none;paint-order:markers stroke fill"/>
</svg>
