<svg version="1.1" viewBox="0 0 16 16" xml:space="preserve" xmlns="http://www.w3.org/2000/svg"><defs><style id="current-color-scheme" type="text/css">
      .ColorScheme-Text {
        color:#232629;
      }
      </style></defs><path d="m1.2246 0c-0.67058 0-1.2246 0.55405-1.2246 1.2246v0.77539c0 0.54636 0.45364 1 1 1h1.7734c0.40155 0 0.72656-0.32501 0.72656-0.72656v-0.13672c0-0.076037-0.060679-0.13672-0.13672-0.13672h-2.3633v-0.77539c0-0.13014 0.09447-0.22461 0.22461-0.22461h9.7754v1h-6.3047c-0.38392 0-0.69531 0.31139-0.69531 0.69531v0.14453c0 0.088916 0.071236 0.16016 0.16016 0.16016h6.8398c0.54636 0 1-0.45364 1-1v-1c0-0.54636-0.45364-1-1-1zm0 4c-0.67058 0-1.2246 0.55405-1.2246 1.2246v0.77539c0 0.54636 0.45364 1 1 1h0.77344c0.40155 0 0.72656-0.32501 0.72656-0.72656v-0.13672c0-0.07604-0.060679-0.13672-0.13672-0.13672h-1.3633v-0.77539c0-0.13014 0.09447-0.22461 0.22461-0.22461h7.7754v1h-5.3047c-0.38392 0-0.69531 0.31139-0.69531 0.69531v0.14453c0 0.08892 0.071236 0.16016 0.16016 0.16016h4.8398c0.29448 0 0.53115-0.25035 0.65392-0.51606 0.051816-0.11215 0.1218-0.21669 0.21327-0.30816l0.35352-0.35352c0.10053-0.10053 0.21448-0.181 0.33717-0.24058 0.2277-0.11057 0.44213-0.32712 0.44213-0.58169 0-0.54636-0.45364-1-1-1zm8.8809 2.4551c-0.06398 0-0.12892 0.025403-0.17773 0.074219l-0.35352 0.35352c-0.09763 0.097631-0.09763 0.25588 0 0.35352l0.72656 0.76367h-3.3008c-1.0716 1.5e-4 -2.0618 0.57193-2.5977 1.5-0.5359 0.9282-0.5359 2.0718 0 3 0.51716 0.89574 1.4579 1.4597 2.4863 1.498 0.061647 0.002298 0.11133-0.04768 0.11133-0.10938v-0.30078c0-0.32459-0.27052-0.58018-0.58008-0.67383-0.47982-0.14515-0.89457-0.46758-1.1523-0.91406-0.35726-0.6188-0.35726-1.3812 0-2 0.35733-0.61892 1.0178-1.0001 1.7324-1h3.3008l-0.72656 0.71094c-0.09862 0.09663-0.09763 0.25589 0 0.35352l0.35352 0.35352c0.09763 0.09763 0.25588 0.09763 0.35352 0l1.666-1.666c0.1538-0.15381 0.1538-0.40479 0-0.55859l-1.666-1.6641c-0.04881-0.048815-0.1118-0.074219-0.17578-0.074219zm-8.8809 1.5449c-0.67058 0-1.2246 0.55405-1.2246 1.2246v0.77539c0 0.54636 0.45364 1 1 1h1.7734c0.036104 0 0.071337-0.0033 0.10574-0.0091 0.070112-0.01184 0.13219-0.08915 0.14139-0.15974l0.091677-0.70333a0.11319 0.11319 48.713 0 0-0.11224-0.12782h-2v-0.77539c0-0.13014 0.09447-0.22461 0.22461-0.22461h1.9551a0.75549 0.75549 154.68 0 0 0.58411-0.27634l0.36694-0.44732a0.1691 0.1691 64.681 0 0-0.13074-0.27634zm12.17 0.037109c-0.22341 0.016878-0.39453 0.21956-0.39453 0.45898v0.35547c0 0.081794 0.06688 0.14828 0.14844 0.1543 0.65693 0.048503 1.2515 0.41819 1.584 0.99414 0.35727 0.6188 0.35727 1.3812 0 2-0.35733 0.61892-1.0178 1.0001-1.7324 1h-3.1992l0.72461-0.76367c0.09763-0.09763 0.09763-0.25589 0-0.35352l-0.35352-0.35352c-0.09763-0.09763-0.25589-0.09763-0.35352 0l-1.666 1.6641c-0.15381 0.15381-0.1538 0.40479 0 0.55859l1.666 1.666c0.097631 0.09763 0.25589 0.09763 0.35352 0l0.35352-0.35352c0.09763-0.09763 0.09862-0.25689 0-0.35352l-0.72461-0.71094h3.1992c1.0716-1.5e-4 2.0618-0.57193 2.5977-1.5 0.5359-0.9282 0.5359-2.0718 0-3-0.4524-0.78358-1.2278-1.313-2.1035-1.459-0.0337-0.00562-0.0677-0.00632-0.09961-0.00391zm-12.17 3.9629c-0.67058 0-1.2246 0.55405-1.2246 1.2246v0.77539c0 0.54636 0.45364 1 1 1h0.77344c0.40155 0 0.72656-0.32502 0.72656-0.72656v-0.13672c0-0.07604-0.060679-0.13672-0.13672-0.13672h-1.3633v-0.77539c0-0.13014 0.09447-0.22461 0.22461-0.22461h1.9551c0.1974 0 0.27579-0.13809 0.19287-0.31716-0.051854-0.11199-0.098243-0.22585-0.13919-0.34116-0.066039-0.18595-0.26449-0.34169-0.46188-0.34169zm2.4707 2c-0.38392 0-0.69531 0.31139-0.69531 0.69531v0.14453c0 0.08892 0.071236 0.16016 0.16016 0.16016h2.8398c0.17772 0 0.17328-0.08212 4.578e-4 -0.12691-0.4937-0.12793-0.95653-0.34905-1.3648-0.64896-0.15903-0.11683-0.43828-0.22413-0.63568-0.22413z" color="#000000" fill="#786d7d" style="-inkscape-stroke:none;paint-order:markers stroke fill"/></svg>
