<svg width="16" height="16" version="1.1" xml:space="preserve" xmlns="http://www.w3.org/2000/svg"><path d="m4.3691 2c-1.3037 0-2.3691 1.0655-2.3691 2.3691v0.13086h0.00586c-0.00714 0.062901-0.011719 0.12599-0.011719 0.19141v0.58008c-0.00108 0.21241 0.23679 0.33867 0.41211 0.21875l0.29492-0.20117c0.18304-0.12447 0.29271-0.33138 0.29297-0.55273v-0.044922c0-0.06724 0.0089-0.13145 0.023437-0.19141h-0.017578v-0.13086c0-0.76695 0.60219-1.3691 1.3691-1.3691h0.26172c0.76695 0 1.3691 0.60219 1.3691 1.3691v7.2617c0 0.76695-0.60219 1.3691-1.3691 1.3691h-0.26172c-0.76695 0-1.3691-0.60219-1.3691-1.3691v-0.13086h-0.00586v-3.3281c-3.481e-4 -0.2347-0.19513-0.4224-0.42969-0.41406-0.074172 0.0024097-0.14634 0.024667-0.20898 0.064453l-0.24219 0.1543c-0.074455 0.047794-0.11938 0.13027-0.11914 0.21875v3.3047h0.0058594v0.13086c0 1.3037 1.0655 2.3691 2.3691 2.3691h0.26172c1.3037 0 2.3691-1.0655 2.3691-2.3691v-7.2617c0-1.3037-1.0655-2.3691-2.3691-2.3691zm-1.8691 4.498c-0.27614 0-0.5 0.22386-0.5 0.5s0.22386 0.5 0.5 0.5 0.5-0.22386 0.5-0.5-0.22386-0.5-0.5-0.5z" color="#000000" fill="#786d7d" stroke-linejoin="round" style="-inkscape-stroke:none"/><path d="m11.369 2c-1.3036 0-2.3691 1.0655-2.3691 2.3691l-0.0058594 7.1309h0.0058594v0.13086c0 1.3037 1.0655 2.3691 2.3691 2.3691h0.26172c1.3037 0 2.3691-1.0655 2.3691-2.3691v-7.2617c0-1.3036-1.0655-2.3691-2.3691-2.3691zm0 1h0.26172c0.76695 0 1.3691 0.60219 1.3691 1.3691v7.2617c0 0.76695-0.60219 1.3691-1.3691 1.3691h-0.26172c-0.76695 0-1.3691-0.60219-1.3691-1.3691v-0.13086h-0.00586l0.00586-7.1309c0-0.76695 0.60219-1.3691 1.3691-1.3691z" color="#000000" fill="#786d7d" stroke-linejoin="round" style="-inkscape-stroke:none"/></svg>
