<svg width="16" height="16" version="1.1" viewBox="0 0 16 16" xmlns="http://www.w3.org/2000/svg">
 <path d="m3 1c-1.0986 0-2 0.90136-2 2v10c0 1.0986 0.90136 2 2 2h7.5c2.5 0 4.0038-1.3018 4.4463-3.7514 0.01874-0.13689-0.012962-0.24856-0.29008-0.24856s-0.71417 0.33722-0.82697 0.73528c-0.5001 1.7647-1.3293 2.2647-3.3293 2.2647h-7.5c-0.55821 0-1-0.44179-1-1v-10c0-0.55821 0.44179-1 1-1h10c0.55821 0 1 0.44179 1 1v5c0 0.55228-0.44772 1-1 1h-1c-1.0986 0-2 0.90136-2 2v1.75c0 0.13807 0.11193 0.25 0.25 0.25 0.41421 0 0.75-0.33579 0.75-0.75v-1.25c0-0.55821 0.44179-1 1-1h1c1.1046 0 2-0.89543 2-2v-5c0-1.0986-0.90136-2-2-2z" color="#000000" fill="#786d7d" stroke-linecap="square" style="-inkscape-stroke:none;paint-order:markers stroke fill"/>
</svg>
