<svg width="16" height="16" version="1.1" viewBox="0 0 16 16" xmlns="http://www.w3.org/2000/svg">
 <g fill="#786d7d">
  <path d="m4 0c-1.0986 0-2 0.90136-2 2v12c0 1.0986 0.90136 2 2 2h7.1809c0.06602 5.43e-4 0.11968-0.05312 0.11914-0.11914v-0.23633c5.09e-4 -0.35618-0.28836-0.64504-0.64453-0.64453h-6.6555c-0.55821 0-1-0.44179-1-1v-12c0-0.55821 0.44179-1 1-1h9c0.55821 0 1 0.44179 1 1v11.5c0 0.63634-0.36585 1.1346-0.86803 1.3632-0.325 0.14799-0.63197 0.42854-0.63197 0.78845v0.11958c0 0.12632 0.10267 0.22981 0.22839 0.21796 1.1877-0.11197 2.2716-1.0873 2.2716-2.4892v-11.5c0-1.0986-0.90136-2-2-2zm7.5305 15.91c-0.02491-7.47e-4 -0.04539 0.01884-0.04492 0.04297-4.71e-4 0.02412 0.02001 0.04372 0.04492 0.04297 0.02415-3.24e-4 0.04342-0.01959 0.04297-0.04297-1.6e-5 -6.51e-4 -1.6e-5 -0.0013 0-2e-3 -1.6e-5 -6.51e-4 -1.6e-5 -0.0013 0-2e-3 -1.6e-5 -6.51e-4 -1.6e-5 -0.0013 0-2e-3 -1.6e-5 -6.51e-4 -1.6e-5 -0.0013 0-2e-3 -6.73e-4 -6.31e-4 -0.0013-0.0013-2e-3 -2e-3 -1.6e-5 -6.51e-4 -1.6e-5 -0.0013 0-2e-3 -1.6e-5 -6.51e-4 -1.6e-5 -0.0013 0-2e-3 -6.73e-4 -6.31e-4 -0.0013-0.0013-0.0019-2e-3 -1.6e-5 -6.51e-4 -1.6e-5 -0.0013 0-2e-3 -6.73e-4 -6.31e-4 -0.0013-0.0013-2e-3 -2e-3 -1.6e-5 -6.51e-4 -1.6e-5 -0.0013 0-2e-3 -6.73e-4 -6.31e-4 -0.0013-0.0013-2e-3 -2e-3 -1.6e-5 -6.51e-4 -1.6e-5 -0.0013 0-2e-3 -6.73e-4 -6.31e-4 -0.0013-0.0013-0.0019-2e-3 -6.51e-4 1.4e-5 -0.0013 1.4e-5 -2e-3 0-1.6e-5 -6.51e-4 -1.6e-5 -0.0013 0-2e-3 -6.73e-4 -6.31e-4 -0.0013-0.0013-0.0019-2e-3 -6.73e-4 -6.31e-4 -0.0013-0.0013-2e-3 -2e-3 -6.51e-4 1.4e-5 -0.0013 1.4e-5 -0.0019 0-6.73e-4 -6.31e-4 -0.0013-0.0013-2e-3 -2e-3 -6.51e-4 1.4e-5 -0.0013 1.4e-5 -0.0019 0-6.73e-4 -6.31e-4 -0.0013-0.0013-2e-3 -2e-3 -6.51e-4 1.4e-5 -0.0013 1.4e-5 -2e-3 0-6.73e-4 -6.31e-4 -0.0013-0.0013-0.0019-2e-3 -6.51e-4 1.4e-5 -0.0013 1.4e-5 -2e-3 0-6.73e-4 -6.31e-4 -0.0013-0.0013-0.0019-2e-3 -6.51e-4 1.4e-5 -0.0013 1.4e-5 -2e-3 0-6.51e-4 1.4e-5 -0.0013 1.4e-5 -0.0019 0-6.51e-4 1.4e-5 -0.0013 1.4e-5 -2e-3 0-6.51e-4 1.4e-5 -0.0013 1.4e-5 -0.0019 0-6.73e-4 -6.31e-4 -0.0013-0.0013-2e-3 -2e-3 -6.51e-4 1.4e-5 -0.0013 1.4e-5 -2e-3 0z" color="#000000" style="-inkscape-stroke:none"/>
  <path d="m6 1.9061v12.094c0 0.5574-0.4426 0.99911-1 0.99805l-0.55664-2e-3 -0.00195 1 0.55859 2e-3c1.0985 0.002098 2-0.89953 2-1.998v-12.144a0.35578 0.35578 45 0 0-0.35578-0.35578h-0.23817a0.40605 0.40605 135 0 0-0.40605 0.40605z" color="#000000" opacity=".43992" style="-inkscape-stroke:none"/>
  <path d="m11 14.09v-12.094c0-0.5574 0.4426-0.99911 1-0.99805l0.55664 2e-3 2e-3 -1-0.55859-2e-3c-1.0986-0.0021-2.0001 0.89953-2.0001 1.998v12.144a0.35578 0.35578 45 0 0 0.35578 0.35578h0.23817a0.40605 0.40605 135 0 0 0.40605-0.40605z" color="#000000" opacity=".43992" style="-inkscape-stroke:none"/>
 </g>
</svg>
