<svg width="16" height="16" version="1.1" viewBox="0 0 16 16" xml:space="preserve" xmlns="http://www.w3.org/2000/svg"><path d="m13 0c1.0986 0 2 0.90136 2 2v1.4512c0 0.39063-0.12501 0.41387-0.32422 0.07813-0.11992-0.20211-0.25137-0.39796-0.39648-0.58594-0.14701-0.19043-0.2793-0.52891-0.2793-0.76954v-0.17383c0-0.5582-0.4418-1-1-1h-0.52539c-0.43471 0-1.1127-0.14159-1.5312-0.25781-0.75231-0.20889-1.5121-0.26569-2.2578-0.18164-0.32671 0.03682-0.65001 0.10117-0.96875 0.19141-0.4009 0.11349-1.0499 0.24805-1.4668 0.24805h-2.25c-0.5582 0-1 0.4418-1 1v8.9102a1.6376 1.6376 0 0 1-0.47852 1.1562l-0.23047 0.23047a0.17073 0.17073 0 0 1-0.29102-0.11914v-10.178c0-1.0986 0.90136-2 2-2zm-3.8418 1.4961c1.1815-0.00957 2.3324 0.37612 3.2695 1.0957 2.2203 1.707 2.7374 4.8437 1.1836 7.1738-1.3922 2.0608-4.0527 2.9404-6.4277 1.9688-0.37113-0.152-0.48955-0.6014-0.28906-0.94922l0.052734-0.09375c0.027221-0.04681 0.0873-0.06318 0.13477-0.03711 2.0981 1.132 4.4988 0.42982 5.7539-1.4062 1.2874-1.9202 0.85918-4.5108-0.97656-5.916-1.8323-1.4093-4.4432-1.1522-5.9648 0.58789-1.3261 1.5101-1.4564 3.7291-0.31445 5.3828 0.38792 0.56136 0.4118 1.3675-0.11133 1.8906l-4.6113 4.6094c-0.08639 0.08683-0.22611 0.08683-0.3125 0l-0.44922-0.44726c-0.03051-0.02997-0.03051-0.0794 0-0.10938l4.7129-4.7129c0.16412-0.16412 0.16999-0.46432 0.0059-0.70117-1.3826-2.006-1.2263-4.6946 0.37891-6.5273 1.0015-1.1437 2.4447-1.802 3.9648-1.8086zm5.7617 8.0215c0.05079 0.011276 0.08008 0.10837 0.08008 0.29102v4.1914c0 1.0986-0.90136 2-2 2h-7.1816c-0.06602 5.43e-4 -0.11968-0.05312-0.11914-0.11914v-0.23633c-5.09e-4 -0.35617 0.28836-0.64504 0.64453-0.64453h6.6563c0.5582 0 1-0.4418 1-1v-2.5703c0-0.38141 0.20876-0.92096 0.42578-1.2344 0.01033-0.01491 0.02107-0.02985 0.03125-0.04492l0.0019-2e-3v-2e-3c0.08881-0.13304 0.17091-0.26818 0.24805-0.40616 0.08909-0.15935 0.1621-0.23393 0.21289-0.22266zm-8.2402 0.82031c0.04103 0.0038 0.072266 0.04201 0.072266 0.08398 0 0.04663-0.036339 0.08501-0.082031 0.08594-0.045693 0-0.075503-0.03932-0.082031-0.08594-0.00933-0.0718 0.035847-0.08864 0.091796-0.08398zm-3.5176 4.1074c0.10844 0.01032 0.21809 0.06558 0.3125 0.1543 0.11545 0.10848 0.24767 0.19769 0.39258 0.26367 0.325 0.14799 0.63281 0.42915 0.63281 0.78906v0.11914c0 0.12632-0.1028 0.22865-0.22852 0.2168-0.56852-0.0536-1.1125-0.30571-1.5254-0.70703-0.17206-0.16724-0.14645-0.46488 0.02344-0.63477l0.08399-0.08398c0.09198-0.09198 0.20016-0.1275 0.30859-0.11719zm-2.4316 1.1133c-0.04801-2e-3 -0.10468 0.04408-0.10352 0.07031-1e-3 0.04635 0.03567 0.08493 0.08203 0.08594 0.04663 0 0.09051-0.03838 0.08399-0.08594-0.0077-0.0507-0.03369-0.06911-0.0625-0.07031zm4.7383 0.34961v2e-3c0.02491-7.47e-4 0.04539 0.01884 0.04492 0.04297 4.71e-4 0.02412-0.02001 0.04372-0.04492 0.04297-0.02415-3.24e-4 -0.04342-0.01959-0.04297-0.04297v-8e-3l2e-3 -2e-3v-4e-3l2e-3 -2e-3v-2e-3l2e-3 -2e-3v-2e-3l2e-3 -2e-3v-2e-3l2e-3 -2e-3h2e-3v-2e-3l4e-3 -4e-3h2e-3l2e-3 -2e-3h2e-3l2e-3 -2e-3h2e-3l2e-3 -2e-3h2e-3c6.73e-4 -6.29e-4 0.0014-0.0032 2e-3 -0.0039h8e-3z" color="#000000" fill="#786d7d" style="-inkscape-stroke:none"/></svg>
