<svg width="16" height="16" version="1.1" viewBox="0 0 16 16" xmlns="http://www.w3.org/2000/svg">
 <g fill="#786d7d">
  <path d="m4 0c-1.0986 0-2 0.90136-2 2v12c0 1.0986 0.90136 2 2 2h6.8809c0.06602 5.43e-4 0.11968-0.05312 0.11914-0.11914v-0.23633c5.09e-4 -0.35618-0.28836-0.64504-0.64453-0.64453h-6.3555c-0.55821 0-1-0.44179-1-1v-12c0-0.55821 0.44179-1 1-1h9c0.55821 0 1 0.44179 1 1v11.5c0 0.69175-0.43235 1.2203-1.0022 1.4168-0.26353 0.09087-0.49783 0.31033-0.49783 0.59045v0.37563c0 0.06471 0.05249 0.11746 0.11712 0.11433 1.2304-0.059553 2.3829-1.0516 2.3829-2.4972v-11.5c0-1.0986-0.90136-2-2-2zm7.2305 15.91c-0.02491-7.47e-4 -0.04539 0.01884-0.04492 0.04297-4.71e-4 0.02412 0.02001 0.04372 0.04492 0.04297 0.1055-0.01937 0.05154-0.08758 0.0058-0.08497-6.51e-4 1.4e-5 -0.0013 1.4e-5 -0.0019 0-6.73e-4 -6.31e-4 -0.0013-0.0013-2e-3 -2e-3 -6.51e-4 1.4e-5 -0.0021-6.97e-4 -2e-3 0z" color="#000000" style="-inkscape-stroke:none"/>
  <path d="m8 1.9061v12.094c0 0.5574-0.4426 0.99911-1 0.99805l-0.55664-2e-3 -0.00195 1 0.55859 2e-3c1.0985 0.002098 2-0.89953 2-1.998v-12.144a0.35578 0.35578 45 0 0-0.35578-0.35578h-0.23817a0.40605 0.40605 135 0 0-0.40605 0.40605z" color="#000000" opacity=".43992" style="-inkscape-stroke:none"/>
 </g>
</svg>
