<svg width="16" height="16" version="1.1" viewBox="0 0 16 16" xmlns="http://www.w3.org/2000/svg">
 <path d="m3 2c-1.0986 0-2 0.90137-2 2v7.793c0 0.58516 0.23271 1.1468 0.64648 1.5605l2 2c0.46721 0.46721 1.2398 0.46721 1.707 0l2-2c0.22651-0.22651 0.53318-0.35352 0.85352-0.35352h0.65234a0.14026 0.14026 0 0 0 0.14062-0.14062v-0.14453a0.71387 0.71387 0 0 0-0.71484-0.71484h-0.078125c-0.58517 0-1.1468 0.23271-1.5605 0.64648l-2 2c-0.085068 0.08507-0.2079 0.08507-0.29297 0l-2-2c-0.22651-0.22651-0.35352-0.53318-0.35352-0.85352v-7.793c0-0.55821 0.44179-1 1-1h10c0.5582 0 1 0.44179 1 1v4c0 2.1659-1.7217 3.9299-3.8711 3.998-0.00535 1.69e-4 -0.010269-1.49e-4 -0.015625 0-0.062409 0.001732-0.11328 0.052799-0.11328 0.11523v0.06836c0 0.59979 0.53374 0.80972 0.98242 0.72266 2.2937-0.44509 4.018-2.4789 4.0176-4.9043v-4c0-1.0986-0.90137-2-2-2h-10zm6.8027 10.016a0.076786 0.076864 0 0 0-0.066406 0.076172 0.076786 0.076864 0 0 0 0.078125 0.076172 0.076786 0.076864 0 0 0 0.076172-0.076172 0.076786 0.076864 0 0 0-0.0039062-0.023438 0.076786 0.076864 0 0 0-0.0058594-0.013671 0.076786 0.076864 0 0 0-0.0058594-0.009766 0.076786 0.076864 0 0 0-0.0039062-0.00586 0.076786 0.076864 0 0 0-0.011719-0.009765 0.076786 0.076864 0 0 0-0.0097656-0.005859 0.076786 0.076864 0 0 0-0.021484-0.007813 0.076786 0.076864 0 0 0-0.013672 0 0.076786 0.076864 0 0 0-0.011719 0zm-1.0156 0.72461a0.052865 0.057624 0 0 1 0.0019531 0 0.052865 0.057624 0 0 1 0.0058594 0.001954 0.052865 0.057624 0 0 1 0.0019531 0 0.052865 0.057624 0 0 1 0.0058594 0.001953 0.052865 0.057624 0 0 1 0.0019531 0 0.052865 0.057624 0 0 1 0.0019531 0.001953 0.052865 0.057624 0 0 1 0.0058594 0.001953 0.052865 0.057624 0 0 1 0.0019531 0.001953 0.052865 0.057624 0 0 1 0.0019531 0 0.052865 0.057624 0 0 1 0.0019532 0.001953 0.052865 0.057624 0 0 1 0.0019531 0.001953 0.052865 0.057624 0 0 1 0.0019531 0.001953 0.052865 0.057624 0 0 1 0.0019532 0.001953 0.052865 0.057624 0 0 1 0.0019531 0.001954 0.052865 0.057624 0 0 1 0.0019531 0.001953 0.052865 0.057624 0 0 1 0.0019531 0.001953 0.052865 0.057624 0 0 1 0 0.001953 0.052865 0.057624 0 0 1 0.0039063 0.005859 0.052865 0.057624 0 0 1 0 0.001954 0.052865 0.057624 0 0 1 0.0019531 0.005859 0.052865 0.057624 0 0 1 0.0019531 0.001953 0.052865 0.057624 0 0 1 0 0.001953 0.052865 0.057624 0 0 1 0 0.001953 0.052865 0.057624 0 0 1 0 0.001953 0.052865 0.057624 0 0 1 0.0019532 0.00586 0.052865 0.057624 0 0 1 0 0.001953 0.052865 0.057624 0 0 1 0 0.001953 0.052865 0.057624 0 0 1 0 0.001953 0.052865 0.057624 0 0 1-0.052734 0.056641 0.052865 0.057624 0 0 1-0.052734-0.056641 0.052865 0.057624 0 0 1 0.052734-0.058594z" fill="#786d7d" style="-inkscape-stroke:none;paint-order:markers stroke fill"/>
 <path d="m4.0312 3c0.24875 0.44921 0.5655 1.0981 0.77344 1.6914-0.7308-0.1122-1.5263-0.84669-1.9043-1.3184-0.090541-0.11297-0.12384-0.23195-0.12109-0.34766-0.24859 0.055854-0.46352 0.20173-0.60352 0.4043 0.00759 0.022292 0.014849 0.045423 0.023438 0.066406 0.30975 0.75675 0.98517 1.3249 1.8066 1.7695 0.31764 0.17194 0.66002 0.32632 1.0195 0.46094 0.088777 0.30885 0.17365 0.62144 0.25 0.93359 0.086556 0.3539 0.16278 0.7069 0.23047 1.0488-0.55083 0.64462-1.0478 1.3191-1.4648 1.9863-0.36485 0.58371-0.50097 1.127-0.38867 1.6055 0.1123 0.47845 0.50149 0.82512 0.92578 0.93164 0.84859 0.21304 1.8618-0.37373 2.127-1.5449 0.11248-0.49677 0.080183-1.1128-0.0097656-1.8477-0.032717-0.26724-0.074576-0.5482-0.125-0.83789 0.52041-0.57541 1.0828-1.117 1.6602-1.584 0.0029-0.00236 0.0049-0.0035 0.00781-0.00586 1.5725 0.12031 3.0751-0.092051 4.0254-0.87891 0.21757-0.18015 0.38619-0.32708 0.51953-0.4707 0.13335-0.14362 0.28652-0.26748 0.28906-0.5957 0.001303-0.16411-0.092528-0.35666-0.20312-0.45508-0.1106-0.098423-0.21455-0.13541-0.30664-0.16211-0.18418-0.053405-0.35574-0.063602-0.57227-0.072266-1.3504-0.054031-2.742 0.61917-4.0391 1.6016-0.31086-0.028074-0.62353-0.07042-0.93359-0.12891-0.40419-0.07624-0.80293-0.17616-1.1816-0.29492-0.21691-0.71455-0.45513-1.3873-0.70898-1.9551zm7.5137 1.625c0.12318 0.00424 0.24009 0.02285 0.3457 0.058594-0.31523 0.39172-1.9345 1.2083-2.9043 0.9668 0.48092-0.38232 1.6963-1.0551 2.5586-1.0254zm-5.5449 1.375c0.22558 0.056538 0.80286-0.020009 1.0332 0.023437 0.029417 0.00554 0.06038 0.010268 0.089844 0.015625-0.052852 0.048445-0.043337 0.1098-0.13466 0.21463-0.19582 0.22478-0.5397 0.55573-0.73569 0.72838-0.061421 0.05411-0.21863-0.016666-0.2527 0.017931-0.028722-0.11744 0.030144-0.88287 0-1zm-0.082031 2.7227c0.075835 0.65416 0.074677 1.7018 0.019531 1.9453-0.16623 0.73416-0.87415 0.66258-1.1172 0.60156-0.12152-0.030507-0.17122-0.067707-0.20117-0.19531s-0.011874-0.41269 0.26367-0.85352c0.24813-0.39696 0.72904-1.1001 1.0352-1.498z" color="#000000" fill="#786d7d" opacity=".7" stroke-width=".0059086" style="-inkscape-stroke:none"/>
</svg>
