<?xml version="1.0" encoding="UTF-8" standalone="no"?>
<svg
   width="16"
   height="16"
   version="1.1"
   xml:space="preserve"
   id="svg16857"
   sodipodi:docname="preview.svg"
   inkscape:version="1.2.2 (b0a8486541, 2022-12-01)"
   xmlns:inkscape="http://www.inkscape.org/namespaces/inkscape"
   xmlns:sodipodi="http://sodipodi.sourceforge.net/DTD/sodipodi-0.dtd"
   xmlns="http://www.w3.org/2000/svg"
   xmlns:svg="http://www.w3.org/2000/svg"><defs
     id="defs16861" /><sodipodi:namedview
     id="namedview16859"
     pagecolor="#ffffff"
     bordercolor="#666666"
     borderopacity="1.0"
     inkscape:showpageshadow="2"
     inkscape:pageopacity="0.0"
     inkscape:pagecheckerboard="0"
     inkscape:deskcolor="#d1d1d1"
     showgrid="false"
     inkscape:zoom="9.7073882"
     inkscape:cx="-4.8931802"
     inkscape:cy="-17.718463"
     inkscape:window-width="3840"
     inkscape:window-height="2137"
     inkscape:window-x="2560"
     inkscape:window-y="0"
     inkscape:window-maximized="1"
     inkscape:current-layer="svg16857" /><path
     d="m 7.999,3 c -1.583,-4.08e-5 -2.9762,1.0696 -3.3867,2.6016 -0.41048,1.532 0.26125,3.1543 1.6348,3.9473 1.3735,0.793 3.1149,0.56288 4.2363,-0.55859 0.73195,-0.73195 1.0839,-1.7255 1.0195,-2.7109 -0.02865,-0.43878 -0.49882,-0.78023 -0.93945,-0.77539 l -0.12109,0.00195 c -0.07753,8.507e-4 -0.11496,0.058209 -0.08789,0.13086 0.338,0.90733 0.12599,1.9424 -0.57813,2.6465 -0.80485,0.80485 -2.0436,0.96951 -3.0293,0.40039 -0.98574,-0.56911 -1.4626,-1.7248 -1.168,-2.8242 0.29459,-1.0994 1.2859,-1.8594 2.4199,-1.8594 2.7299,-0.00236 5.4384,1.401 6.9219,3.6777 0.03258,0.05001 0.07616,0.18451 0.07617,0.32227 8e-6,0.13775 -0.04363,0.27232 -0.07617,0.32227 -1.4834,2.2768 -4.1923,3.6801 -6.9258,3.6777 -2.7328,-0.0024 -5.4385,-1.4096 -6.918,-3.6777 C 1.044482,8.272448 1.002605,8.13685 1.002821,8.00009 1.003038,7.86334 1.04523,7.73141 1.07704,7.68368 1.7232,6.71445 2.63794,5.89498 3.64154,5.27748 3.97153,5.07442 4.19472,4.62203 4.09271,4.24818 4.080497,4.203423 4.067578,4.159128 4.053648,4.11146 4.025704,4.015844 3.927528,3.97246 3.838808,4.01771 c -1.3883,0.70802 -2.6935,1.7609 -3.5938,3.1113 -0.17988,0.26982 -0.24172,0.57319 -0.24219,0.87109 -4.71e-4,0.2979 0.060319,0.59737 0.23633,0.86719 1.6788,2.5737 4.6834,4.1302 7.7559,4.1328 3.0734,0.0027 6.081,-1.5502 7.7637,-4.1328 0.17581,-0.26984 0.2383,-0.56981 0.23828,-0.86719 -1.7e-5,-0.29738 -0.06247,-0.59736 -0.23828,-0.86719 -1.6827,-2.5826 -4.6896,-4.1355 -7.7598,-4.1328 z M 7.9181508,4.2945139 C 6.6829107,4.2933731 5.6807325,5.2940104 5.6799726,6.5292509 5.6788303,7.7658354 6.6815663,8.7685714 7.9181508,8.7674291 9.1533913,8.7666692 10.154029,7.764491 10.152888,6.5292509 10.151399,6.0364951 9.9871881,5.5580297 9.6857748,5.1682086 9.7992078,5.3593392 9.8584567,5.5777492 9.8571637,5.8000019 9.8567745,6.4754258 9.3093324,7.0228679 8.6339085,7.0232571 7.9584845,7.0228679 7.4110424,6.4754258 7.4106532,5.8000019 7.4091881,5.123268 7.9571731,4.5737799 8.6339085,4.5733914 8.8675688,4.574158 9.0961272,4.6417923 9.2925777,4.7683029 8.8999876,4.4616654 8.4162474,4.2949 7.9180975,4.2944623 Z"
     color="#000000"
     fill="#786d7d"
     stroke-linejoin="round"
     style="-inkscape-stroke:none"
     id="path16853"
     sodipodi:nodetypes="cccccccccccccscsssccscccscccsccccccccccccccc" /><path
     d="m3 1c-1.099 0-2 0.901-2 2v1.4151c0 0.18714 0.1126 0.2371 0.25631 0.11724 0.18287-0.15251 0.3706-0.29781 0.56147-0.43701 0.099993-0.072924 0.18221-0.23077 0.18221-0.35454v-0.74074c0-0.558 0.442-1 1-1h10c0.558 0 1 0.442 1 1v0.5c0 0.20837 0.3151 0.26953 0.78906 0.26953 0.21106 0 0.21094-0.15827 0.21094-0.26953v-0.5c0-1.099-0.902-2-2-2zm-2 10.737v1.2626c0 1.099 0.901 2 2 2h10c1.099 0 2-0.901 2-2v-1.3503c0-0.19916-0.11866-0.25105-0.26991-0.12149-0.10174 0.08716-0.20508 0.17234-0.31004 0.25536-0.2272 0.1797-0.42005 0.54896-0.42005 0.83867v0.37778c0 0.558-0.442 1-1 1h-10c-0.558 0-1-0.442-1-1v-0.30238c0-0.33351-0.22227-0.75829-0.48283-0.96639-0.060454-0.048284-0.12037-0.097273-0.17974-0.14695-0.1899-0.15891-0.33744-0.094464-0.33744 0.15317z"
     fill="#786d7d"
     style="-inkscape-stroke:none"
     id="path16855" /></svg>
