<svg width="16" height="16" version="1.1" xml:space="preserve" xmlns="http://www.w3.org/2000/svg"><path d="m6.4043 2c-0.38003-1.002e-4 -0.74683 0.15127-1.0156 0.41992l-2.9668 2.9668c-0.26879 0.26865-0.41982 0.63364-0.41992 1.0137l-0.0019531 4.1953c-1.002e-4 0.38003 0.15127 0.74683 0.41992 1.0156l2.9668 2.9668c0.26865 0.26879 0.63364 0.41982 1.0137 0.41992l4.1953 0.001953c0.38003 9.9e-5 0.74683-0.15127 1.0156-0.41992l2.9668-2.9668c0.26879-0.26865 0.41982-0.63364 0.41992-1.0137l0.001953-4.1953c9.9e-5 -0.38003-0.15127-0.74683-0.41992-1.0156l-0.66084-0.66084a0.07095 0.07095 0.039538 0 0-0.10027-6.92e-5l-0.13181 0.13145a0.74222 0.74222 90 0 0-4e-6 1.0511l0.18589 0.18538c0.081437 0.08148 0.12698 0.19144 0.12695 0.30664l-2e-3 4.1973c-3e-5 0.1152-0.04547 0.2252-0.12695 0.30664l-2.9668 2.9668c-0.081386 0.081437-0.19139 0.12698-0.30659 0.12695l-4.1973-2e-3c-0.1152 6.4e-5 -0.2252-0.045427-0.30664-0.12691l-2.9668-2.9668c-0.081436-0.08148-0.12698-0.19144-0.12695-0.30664l0.00195-4.1973c3.66e-5 -0.1152 0.045477-0.2252 0.12696-0.30664l2.9668-2.9668c0.08148-0.081437 0.19144-0.12698 0.30664-0.12695l4.1973 0.00195c0.1152 3.04e-5 0.2252 0.045474 0.30664 0.12695l1.0172 1.0172a0.11108 0.11108 3.7063e-5 0 0 0.1571 1e-7l0.11365-0.11365a0.72808 0.72808 90 0 0 0-1.0297l-0.58087-0.58087c-0.26865-0.26879-0.63364-0.41982-1.0137-0.41992zm-1.9043 6.3724v0.095573a0.53199 0.53199 45 0 0 0.53199 0.53199h6.9519a0.5161 0.5161 135 0 0 0.5161-0.5161v-0.11146a0.37244 0.37244 45 0 0-0.37244-0.37244h-7.2551a0.37244 0.37244 135 0 0-0.37244 0.37244z" color="#000000" fill="#786d7d" style="-inkscape-stroke:none"/></svg>
