<?xml version="1.0" encoding="UTF-8" standalone="no"?>
<svg
   width="16"
   height="16"
   version="1.1"
   viewBox="0 0 16 16"
   xml:space="preserve"
   id="svg63343"
   sodipodi:docname="smiley-add.svg"
   inkscape:version="1.2.2 (b0a8486541, 2022-12-01)"
   xmlns:inkscape="http://www.inkscape.org/namespaces/inkscape"
   xmlns:sodipodi="http://sodipodi.sourceforge.net/DTD/sodipodi-0.dtd"
   xmlns="http://www.w3.org/2000/svg"
   xmlns:svg="http://www.w3.org/2000/svg"><defs
     id="defs63347"><inkscape:path-effect
       effect="fillet_chamfer"
       id="path-effect66166"
       is_visible="true"
       lpeversion="1"
       nodesatellites_param="F,0,0,1,0,0,0,1 @ F,0,0,1,0,0,0,1 @ F,0,0,1,0,0,0,1 @ F,0,0,1,0,0,0,1 @ F,0,0,1,0,0.22416258,0,1 @ F,0,0,1,0,0.6108993,0,1 @ F,0,0,1,0,0,0,1 @ F,0,0,1,0,0,0,1 @ F,0,0,1,0,0,0,1 @ F,0,0,1,0,0,0,1 @ F,0,0,1,0,0,0,1 @ F,0,0,1,0,0,0,1 @ F,0,0,1,0,0,0,1 @ F,0,0,1,0,0,0,1 @ F,0,0,1,0,0,0,1 @ F,0,0,1,0,0,0,1 | F,0,0,1,0,0,0,1 @ F,0,0,1,0,0,0,1 @ F,0,0,1,0,0,0,1 @ F,0,0,1,0,0,0,1 | F,0,0,1,0,0,0,1 @ F,0,0,1,0,0,0,1 @ F,0,0,1,0,0,0,1 @ F,0,0,1,0,0,0,1 @ F,0,0,1,0,0,0,1 @ F,0,0,1,0,0.83180301,0,1 @ F,0,0,1,0,0.24973325,0,1 @ F,0,0,1,0,0,0,1 @ F,0,0,1,0,0,0,1 | F,0,0,1,0,0,0,1 @ F,0,0,1,0,0,0,1 @ F,0,0,1,0,0,0,1 @ F,0,0,1,0,0,0,1 | F,0,0,1,0,0,0,1 @ F,0,0,1,0,0,0,1 @ F,0,0,1,0,0,0,1 @ F,0,0,1,0,0,0,1 | F,0,0,1,0,0,0,1 @ F,0,0,1,0,0,0,1 @ F,0,0,1,0,0,0,1 @ F,0,0,1,0,0,0,1 @ F,0,0,1,0,0,0,1 @ F,0,0,1,0,0,0,1 @ F,0,0,1,0,0,0,1 @ F,0,0,1,0,0,0,1 @ F,0,0,1,0,0,0,1 @ F,0,0,1,0,0,0,1"
       unit="px"
       method="auto"
       mode="F"
       radius="0"
       chamfer_steps="1"
       flexible="false"
       use_knot_distance="true"
       apply_no_radius="true"
       apply_with_radius="true"
       only_selected="false"
       hide_knots="false" /><inkscape:path-effect
       effect="fillet_chamfer"
       id="path-effect64021"
       is_visible="true"
       lpeversion="1"
       nodesatellites_param="F,0,0,1,0,0,0,1 @ F,0,0,1,0,0,0,1 @ F,0,0,1,0,0,0,1 @ F,0,0,1,0,0,0,1 @ F,0,0,1,0,0,0,1 @ F,0,0,1,0,0,0,1 @ F,0,0,1,0,0,0,1 @ F,0,0,1,0,0.61035093,0,1 @ F,0,0,1,0,0.18011247,0,1 @ F,0,0,1,0,0,0,1 @ F,0,0,1,0,0,0,1 @ F,0,0,1,0,0,0,1 @ F,0,0,1,0,0,0,1 @ F,0,0,1,0,0,0,1 @ F,0,0,1,0,0,0,1 @ F,0,0,1,0,0,0,1 @ F,0,0,1,0,0,0,1 @ F,0,0,1,0,0.15296035,0,1 @ F,0,0,1,0,0.55040003,0,1 @ F,0,0,1,0,0,0,1"
       unit="px"
       method="auto"
       mode="F"
       radius="0"
       chamfer_steps="1"
       flexible="false"
       use_knot_distance="true"
       apply_no_radius="true"
       apply_with_radius="true"
       only_selected="false"
       hide_knots="false" /></defs><sodipodi:namedview
     id="namedview63345"
     pagecolor="#ffffff"
     bordercolor="#666666"
     borderopacity="1.0"
     inkscape:showpageshadow="2"
     inkscape:pageopacity="0.0"
     inkscape:pagecheckerboard="0"
     inkscape:deskcolor="#d1d1d1"
     showgrid="true"
     inkscape:zoom="32.392321"
     inkscape:cx="1.142246"
     inkscape:cy="10.882209"
     inkscape:window-width="2320"
     inkscape:window-height="1032"
     inkscape:window-x="2737"
     inkscape:window-y="377"
     inkscape:window-maximized="0"
     inkscape:current-layer="svg63343"><inkscape:grid
       type="xygrid"
       id="grid63518" /></sodipodi:namedview><path
     id="path64019"
     style="color:#000000;opacity:1;fill:#786d7d;fill-opacity:0.996078;stroke:none;stroke-linejoin:round;-inkscape-stroke:none"
     d="M 5.6074219,1 C 3.0638938,1 1,3.0638938 1,5.6074219 V 10.392578 C 1,12.936107 3.0638938,15 5.6074219,15 h 4.5609941 a 0.22416258,0.22416258 135 0 0 0.224162,-0.224163 V 14.610899 A 0.6108993,0.6108993 45 0 0 9.7816788,14 H 5.6074219 C 3.6005946,14 2,12.399405 2,10.392578 V 5.6074219 C 2,3.6005946 3.6005946,2 5.6074219,2 h 4.7851561 c 0.256872,0 0.5075,0.025934 0.748047,0.076172 0.08269,0.017269 0.164748,-0.031404 0.185547,-0.1132813 l 0.07422,-0.2871094 C 11.475231,1.381162 11.295378,1.0784272 10.994141,1.0390625 10.79676,1.0132695 10.596307,1 10.392578,1 Z m 6.9921871,0.5996094 c -0.276142,0 -0.5,0.2238576 -0.5,0.5 0,0.2761424 0.223858,0.5 0.5,0.5 0.276142,0 0.5,-0.2238576 0.5,-0.5 0,-0.2761424 -0.223858,-0.5 -0.5,-0.5 z m 1.314453,1.46875 c -0.116225,0.00537 -0.233215,0.046729 -0.333984,0.1230468 l -0.166016,0.125 C 13.334767,3.3764627 13.318929,3.4901141 13.375,3.5722656 13.769537,4.1503114 14,4.8481608 14,5.6074219 V 9.0580408 A 0.75064384,0.75064384 42.064036 0 0 14.827439,9.804746 0.23756091,0.23756091 122.82756 0 0 15,9.5372658 V 5.6074219 C 15,4.7810962 14.782999,4.0034651 14.402344,3.3320312 14.298516,3.1488917 14.107771,3.0594026 13.914062,3.0683594 Z M 5.5,5 C 5.2238606,5 5,5.2238606 5,5.5 5,5.7761394 5.2238606,6 5.5,6 5.7761394,6 6,5.7761394 6,5.5 6,5.2238606 5.7761394,5 5.5,5 Z m 5,0 C 10.22386,5 10,5.2238606 10,5.5 10,5.7761394 10.22386,6 10.5,6 10.77614,6 11,5.7761394 11,5.5 11,5.2238606 10.77614,5 10.5,5 Z M 10.234375,9.4492188 C 10.063094,9.4622241 9.8961723,9.5558815 9.78125,9.6953125 8.8944318,10.77131 7.1407326,10.779711 6.2402344,9.7207031 6.0500748,9.4970735 5.7341827,9.3844652 5.4707031,9.515625 L 5.2441406,9.6269531 c -0.1052798,0.05241 -0.1491994,0.1817035 -0.089844,0.2832031 1.2327974,2.1081958 4.4587089,2.1082958 5.6914064,0 0.05931,-0.1014296 0.01544,-0.2307931 -0.08984,-0.2832031 L 10.5,9.5 C 10.43824,9.46926 10.373864,9.453239 10.308594,9.449219 c -0.02447,-0.00151 -0.04975,-0.00186 -0.07422,-2e-7 z"
     sodipodi:nodetypes="ssssccssssssccsssssssssccssccsssssssssssssccscccccccc"
     inkscape:path-effect="#path-effect66166"
     inkscape:original-d="M 5.6074219,1 C 3.0638938,1 1,3.0638938 1,5.6074219 V 10.392578 C 1,12.936107 3.0638938,15 5.6074219,15 H 10.392578 V 14 H 5.6074219 C 3.6005946,14 2,12.399405 2,10.392578 V 5.6074219 C 2,3.6005946 3.6005946,2 5.6074219,2 h 4.7851561 c 0.256872,0 0.5075,0.025934 0.748047,0.076172 0.08269,0.017269 0.164748,-0.031404 0.185547,-0.1132813 l 0.07422,-0.2871094 C 11.475231,1.381162 11.295378,1.0784272 10.994141,1.0390625 10.79676,1.0132695 10.596307,1 10.392578,1 Z m 6.9921871,0.5996094 c -0.276142,0 -0.5,0.2238576 -0.5,0.5 0,0.2761424 0.223858,0.5 0.5,0.5 0.276142,0 0.5,-0.2238576 0.5,-0.5 0,-0.2761424 -0.223858,-0.5 -0.5,-0.5 z m 1.314453,1.46875 c -0.116225,0.00537 -0.233215,0.046729 -0.333984,0.1230468 l -0.166016,0.125 C 13.334767,3.3764627 13.318929,3.4901141 13.375,3.5722656 13.769537,4.1503114 14,4.8481608 14,5.6074219 V 9.8898438 L 15,9.786999 V 5.6074219 C 15,4.7810962 14.782999,4.0034651 14.402344,3.3320312 14.298516,3.1488917 14.107771,3.0594026 13.914062,3.0683594 Z M 5.5,5 C 5.2238606,5 5,5.2238606 5,5.5 5,5.7761394 5.2238606,6 5.5,6 5.7761394,6 6,5.7761394 6,5.5 6,5.2238606 5.7761394,5 5.5,5 Z m 5,0 C 10.22386,5 10,5.2238606 10,5.5 10,5.7761394 10.22386,6 10.5,6 10.77614,6 11,5.7761394 11,5.5 11,5.2238606 10.77614,5 10.5,5 Z M 10.234375,9.4492188 C 10.063094,9.4622241 9.8961723,9.5558815 9.78125,9.6953125 8.8944318,10.77131 7.1407326,10.779711 6.2402344,9.7207031 6.0500748,9.4970735 5.7341827,9.3844652 5.4707031,9.515625 L 5.2441406,9.6269531 c -0.1052798,0.05241 -0.1491994,0.1817035 -0.089844,0.2832031 1.2327974,2.1081958 4.4587089,2.1082958 5.6914064,0 0.05931,-0.1014296 0.01544,-0.2307931 -0.08984,-0.2832031 L 10.5,9.5 C 10.43824,9.46926 10.373864,9.453239 10.308594,9.449219 c -0.02447,-0.00151 -0.04975,-0.00186 -0.07422,-2e-7 z" /><g
     transform="translate(.043301 -.013366)"
     id="g63331" /><g
     id="g65785"
     transform="translate(2e-5,-1.6e-4)"><g
       fill="#786d7d"
       id="g65760"><g
         transform="rotate(-90,8.5001,7.5)"
         id="g65756" /><path
         d="m -8.1286,16.95 c -0.51289,0 -1.0256,0.1936 -1.4141,0.58203 l -6.8789,6.8789 c -0.77686,0.77686 -0.77686,2.0513 0,2.8281 l 3.5859,3.5859 c 0.32001,0.32001 0.75447,0.5 1.207,0.5 h 7.25 a 0.75,0.75 0 0 0 0.75,-0.75 0.25,0.25 0 0 0 -0.25,-0.25 h -7.75 c -0.18773,0 -0.36726,-0.07429 -0.5,-0.20703 l -3.5859,-3.5859 c -0.39471,-0.39471 -0.39471,-1.0194 0,-1.4141 l 6.8789,-6.8789 c 0.39471,-0.39471 1.0194,-0.39471 1.4141,0 l 3.8789,3.8789 c 0.39471,0.39471 0.39471,1.0194 0,1.4141 l -4.5859,4.5859 -3.6162,-3.6162 a 0.75,0.75 0 0 0 -1.0607,0 0.24995,0.24995 0 0 0 7.5e-5,0.35348 l 3.9697,3.9697 c 0.38634,0.38634 1.0277,0.38634 1.4141,0 l 4.5859,-4.5859 c 0.77686,-0.77686 0.77686,-2.0513 0,-2.8281 l -3.8789,-3.8789 c -0.38843,-0.38843 -0.90117,-0.58203 -1.4141,-0.58203 z"
         color="#000000"
         display="none"
         style="-inkscape-stroke:none;paint-order:markers stroke fill"
         id="path65758" /></g><g
       transform="translate(-0.0059,-0.0098)"
       fill="#786d7d"
       id="g65768"><g
         transform="translate(0,2)"
         id="g65764"><path
           d="m 12.221,7.5 c -0.1215,0 -0.2207,0.099201 -0.2207,0.2207 V 9 c 0,1.099 0.901,2 2,2 h 0.88867 c 0.33722,-5.51e-4 0.61078,-0.27411 0.61133,-0.61133 V 10.31445 C 15.5003,10.14103 15.35926,10 15.18585,10 h -1.1855 c -0.558,0 -1,-0.442 -1,-1 V 8 c 0,-0.27614 -0.22386,-0.5 -0.5,-0.5 z M 9.7542,10 c -0.14028,0 -0.25391,0.11363 -0.25391,0.25391 v 0.55078 C 9.50029,10.91369 9.587603,11 9.6956,11 h 1.3047 c 0.558,0 1,0.442 1,1 v 1.2109 c 0,0.16 0.12906,0.28906 0.28906,0.28906 h 0.33984 c 0.20513,5.55e-4 0.37165,-0.16597 0.37109,-0.37109 v -1.1289 c 0,-1.099 -0.901,-2 -2,-2 z"
           style="-inkscape-stroke:none"
           id="path65762" /></g></g></g><g
     id="g66162"
     transform="translate(2e-5,-1.6e-4)"><g
       fill="#786d7d"
       id="g66154"><g
         transform="rotate(-90,8.5001,7.5)"
         id="g66150" /><path
         d="m -8.1286,16.95 c -0.51289,0 -1.0256,0.1936 -1.4141,0.58203 l -6.8789,6.8789 c -0.77686,0.77686 -0.77686,2.0513 0,2.8281 l 3.5859,3.5859 c 0.32001,0.32001 0.75447,0.5 1.207,0.5 h 7.25 a 0.75,0.75 0 0 0 0.75,-0.75 0.25,0.25 0 0 0 -0.25,-0.25 h -7.75 c -0.18773,0 -0.36726,-0.07429 -0.5,-0.20703 l -3.5859,-3.5859 c -0.39471,-0.39471 -0.39471,-1.0194 0,-1.4141 l 6.8789,-6.8789 c 0.39471,-0.39471 1.0194,-0.39471 1.4141,0 l 3.8789,3.8789 c 0.39471,0.39471 0.39471,1.0194 0,1.4141 l -4.5859,4.5859 -3.6162,-3.6162 a 0.75,0.75 0 0 0 -1.0607,0 0.24995,0.24995 0 0 0 7.5e-5,0.35348 l 3.9697,3.9697 c 0.38634,0.38634 1.0277,0.38634 1.4141,0 l 4.5859,-4.5859 c 0.77686,-0.77686 0.77686,-2.0513 0,-2.8281 l -3.8789,-3.8789 c -0.38843,-0.38843 -0.90117,-0.58203 -1.4141,-0.58203 z"
         color="#000000"
         display="none"
         style="-inkscape-stroke:none;paint-order:markers stroke fill"
         id="path66152" /></g><g
       transform="translate(-0.0059,-0.0098)"
       fill="#786d7d"
       id="g66160"><g
         transform="translate(0,2)"
         id="g66158" /></g></g></svg>
