<?xml version="1.0" encoding="UTF-8" standalone="no"?>
<svg
   width="16"
   height="16"
   version="1.1"
   viewBox="0 0 16 16"
   xml:space="preserve"
   id="svg63343"
   sodipodi:docname="smiley.svg"
   inkscape:version="1.2.2 (b0a8486541, 2022-12-01)"
   xmlns:inkscape="http://www.inkscape.org/namespaces/inkscape"
   xmlns:sodipodi="http://sodipodi.sourceforge.net/DTD/sodipodi-0.dtd"
   xmlns="http://www.w3.org/2000/svg"
   xmlns:svg="http://www.w3.org/2000/svg"><defs
     id="defs63347"><inkscape:path-effect
       effect="fillet_chamfer"
       id="path-effect64021"
       is_visible="true"
       lpeversion="1"
       nodesatellites_param="F,0,0,1,0,0,0,1 @ F,0,0,1,0,0,0,1 @ F,0,0,1,0,0,0,1 @ F,0,0,1,0,0,0,1 @ F,0,0,1,0,0,0,1 @ F,0,0,1,0,0,0,1 @ F,0,0,1,0,0,0,1 @ F,0,0,1,0,0.61035093,0,1 @ F,0,0,1,0,0.18011247,0,1 @ F,0,0,1,0,0,0,1 @ F,0,0,1,0,0,0,1 @ F,0,0,1,0,0,0,1 @ F,0,0,1,0,0,0,1 @ F,0,0,1,0,0,0,1 @ F,0,0,1,0,0,0,1 @ F,0,0,1,0,0,0,1 @ F,0,0,1,0,0,0,1 @ F,0,0,1,0,0.15296035,0,1 @ F,0,0,1,0,0.55040003,0,1 @ F,0,0,1,0,0,0,1"
       unit="px"
       method="auto"
       mode="F"
       radius="0"
       chamfer_steps="1"
       flexible="false"
       use_knot_distance="true"
       apply_no_radius="true"
       apply_with_radius="true"
       only_selected="false"
       hide_knots="false" /></defs><sodipodi:namedview
     id="namedview63345"
     pagecolor="#ffffff"
     bordercolor="#666666"
     borderopacity="1.0"
     inkscape:showpageshadow="2"
     inkscape:pageopacity="0.0"
     inkscape:pagecheckerboard="0"
     inkscape:deskcolor="#d1d1d1"
     showgrid="true"
     inkscape:zoom="32.392321"
     inkscape:cx="1.142246"
     inkscape:cy="10.882209"
     inkscape:window-width="2320"
     inkscape:window-height="1032"
     inkscape:window-x="2737"
     inkscape:window-y="377"
     inkscape:window-maximized="0"
     inkscape:current-layer="svg63343"><inkscape:grid
       type="xygrid"
       id="grid63518" /></sodipodi:namedview><path
     id="path64019"
     style="color:#000000;opacity:1;fill:#786d7d;fill-opacity:0.996078;stroke:none;stroke-linejoin:round;-inkscape-stroke:none"
     d="M 5.6074219 1 C 3.0638913 1 1 3.0638913 1 5.6074219 L 1 10.392578 C 1 12.936109 3.0638913 15 5.6074219 15 L 10.392578 15 C 12.936109 15 15 12.936109 15 10.392578 L 15 5.6074219 C 15 4.7810954 14.783 4.0034657 14.402344 3.3320312 C 14.236219 3.0390077 13.848796 2.9878919 13.580078 3.1914062 L 13.414062 3.3164062 C 13.334766 3.3764627 13.318929 3.490114 13.375 3.5722656 C 13.769537 4.150312 14 4.8481601 14 5.6074219 L 14 10.392578 C 14 12.399407 12.399407 14 10.392578 14 L 5.6074219 14 C 3.6005926 14 2 12.399407 2 10.392578 L 2 5.6074219 C 2 3.6005926 3.6005926 2 5.6074219 2 L 10.392578 2 C 10.64945 2 10.900078 2.0259339 11.140625 2.0761719 C 11.223315 2.0934409 11.305373 2.0447678 11.326172 1.9628906 L 11.400391 1.6757812 C 11.475232 1.3811618 11.295379 1.0784272 10.994141 1.0390625 C 10.79676 1.0132695 10.596307 1 10.392578 1 L 5.6074219 1 z M 12.599609 1.5996094 A 0.5 0.5 0 0 0 12.099609 2.0996094 A 0.5 0.5 0 0 0 12.599609 2.5996094 A 0.5 0.5 0 0 0 13.099609 2.0996094 A 0.5 0.5 0 0 0 12.599609 1.5996094 z M 5.5 5 C 5.2238603 5 5 5.2238603 5 5.5 C 5 5.7761397 5.2238603 6 5.5 6 C 5.7761397 6 6 5.7761397 6 5.5 C 6 5.2238603 5.7761397 5 5.5 5 z M 10.5 5 C 10.22386 5 10 5.2238603 10 5.5 C 10 5.7761397 10.22386 6 10.5 6 C 10.77614 6 11 5.7761397 11 5.5 C 11 5.2238603 10.77614 5 10.5 5 z M 10.234375 9.4492188 C 10.063094 9.4622242 9.8961724 9.5558814 9.78125 9.6953125 C 8.8944309 10.771311 7.1407335 10.779712 6.2402344 9.7207031 C 6.0500746 9.4970733 5.7341829 9.3844651 5.4707031 9.515625 L 5.2441406 9.6269531 C 5.1388607 9.6793631 5.0949409 9.8086564 5.1542969 9.9101562 C 6.3870956 12.018354 9.6130044 12.018454 10.845703 9.9101562 C 10.905013 9.8087264 10.861139 9.6793631 10.755859 9.6269531 L 10.5 9.5 C 10.43824 9.46926 10.373864 9.4532387 10.308594 9.4492188 C 10.28412 9.44771 10.258844 9.4473608 10.234375 9.4492188 z " /><g
     transform="translate(.043301 -.013366)"
     id="g63331" /></svg>
