<svg width="16" height="16" version="1.1" viewBox="0 0 16 16" xml:space="preserve" xmlns="http://www.w3.org/2000/svg"><path d="m3 1c-1.0986 0-2 0.90137-2 2v8.793c0 0.58516 0.23271 1.1468 0.64648 1.5605l2 2c0.46721 0.46721 1.2398 0.46721 1.707 0l2-2c0.22651-0.22651 0.53318-0.35352 0.85352-0.35352h0.65234c0.077745 2e-4 0.14082-0.06288 0.14062-0.14062v-0.14453c5.371e-4 -0.39502-0.31982-0.71538-0.71484-0.71484h-0.078125c-0.58517 0-1.1468 0.23271-1.5605 0.64648l-2 2c-0.085068 0.08507-0.2079 0.08507-0.29297 0l-2-2c-0.22651-0.22651-0.35352-0.53318-0.35352-0.85352v-8.793c0-0.55821 0.44179-1 1-1h10c0.5582 0 1 0.44179 1 1v5c0 2.1659-1.7217 3.9299-3.8711 3.998-0.0053 1.69e-4 -0.01027-1.49e-4 -0.01563 0-0.062404 0.001732-0.11328 0.052799-0.11328 0.11523v0.06836c0 0.59979 0.53374 0.80972 0.98242 0.72266 2.2937-0.44509 4.018-2.4789 4.0176-4.9043v-5c0-1.0986-0.90137-2-2-2h-10zm6.8027 11.016c-0.038049 0.0052-0.066413 0.03773-0.066406 0.07617 3.776e-4 0.04271 0.035465 0.07692 0.078125 0.07617 0.0419-3.34e-4 0.075796-0.03423 0.076172-0.07617-8.05e-5 -8e-3 -0.0014-0.01587-0.00391-0.02344-0.00151-0.0047-0.00347-0.0093-0.00586-0.01367-0.00171-0.0034-0.00367-0.0067-0.00586-0.0098-0.00121-2e-3 -0.00252-4e-3 -0.00391-0.0059-0.00357-0.0036-0.0075-0.0069-0.011719-0.0098-0.00311-0.0022-0.00637-0.0042-0.00977-0.0059-0.00673-0.0037-0.013973-0.0063-0.021484-0.0078-0.00455-4.07e-4 -0.00912-4.07e-4 -0.013672 0-0.0039-2.99e-4 -0.00782-2.99e-4 -0.011719 0zm-1.0156 0.72461c6.51e-4 -1.3e-5 0.0013-1.3e-5 0.00195 0 0.00199 5.27e-4 0.00394 0.0012 0.00586 2e-3 6.51e-4 -1.3e-5 0.0013-1.3e-5 0.00195 0 0.00199 5.27e-4 0.00394 0.0012 0.00586 2e-3 6.51e-4 -1.3e-5 0.0013-1.3e-5 0.00195 0 6.659e-4 6.33e-4 0.00132 0.0013 0.00195 2e-3 0.00199 5.27e-4 0.00394 0.0012 0.00586 2e-3 6.659e-4 6.33e-4 0.00132 0.0013 0.00195 2e-3 6.51e-4 -1.3e-5 0.0013-1.3e-5 0.00195 0 6.659e-4 6.33e-4 0.00132 0.0013 0.00195 2e-3 6.659e-4 6.33e-4 0.00132 0.0013 0.00195 2e-3 6.659e-4 6.33e-4 0.00132 0.0013 0.00195 2e-3 6.659e-4 6.33e-4 0.00132 0.0013 0.00195 2e-3 6.659e-4 6.33e-4 0.00132 0.0013 0.00195 2e-3 6.659e-4 6.33e-4 0.00132 0.0013 0.00195 2e-3 6.659e-4 6.33e-4 0.00132 0.0013 0.00195 2e-3 1.01e-5 6.51e-4 1.01e-5 0.0013 0 2e-3 0.00141 0.0019 0.00272 0.0038 0.00391 0.0059 1.01e-5 6.51e-4 1.01e-5 0.0013 0 2e-3 7.475e-4 0.0019 0.0014 0.0039 0.00195 0.0059 6.659e-4 6.33e-4 0.00132 0.0013 0.00195 2e-3 1.01e-5 6.51e-4 1.01e-5 0.0013 0 2e-3 1.01e-5 6.51e-4 1.01e-5 0.0013 0 2e-3 1.01e-5 6.51e-4 1.01e-5 0.0013 0 2e-3 7.476e-4 0.0019 0.0014 0.0039 0.00195 0.0059 1.01e-5 6.51e-4 1.01e-5 0.0013 0 2e-3 1.01e-5 6.51e-4 1.01e-5 0.0013 0 2e-3 1.01e-5 6.51e-4 1.01e-5 0.0013 0 2e-3 -4.912e-4 0.03139-0.023937 0.05657-0.052734 0.05664-0.028797-7.3e-5 -0.052243-0.02526-0.052734-0.05664-4.966e-4 -0.03215 0.023237-0.05852 0.052734-0.05859z" fill="#786d7d" style="-inkscape-stroke:none;paint-order:markers stroke fill"/><g transform="translate(2e-5,-9.995e-5)"><path d="m5.5 4c-0.27614 0-0.5 0.22386-0.5 0.5s0.22386 0.5 0.5 0.5 0.5-0.22386 0.5-0.5-0.22386-0.5-0.5-0.5zm5 0c-0.27614 0-0.5 0.22386-0.5 0.5s0.22386 0.5 0.5 0.5 0.5-0.22386 0.5-0.5-0.22386-0.5-0.5-0.5zm-0.26562 4.4492c0.16844-0.033688-0.3382 0.10666-0.45312 0.24609-0.88682 1.076-2.6405 1.0844-3.541 0.025391-0.19016-0.22363-0.50605-0.33624-0.76953-0.20508l-0.22656 0.11133c-0.10528 0.05241-0.1492 0.1817-0.089844 0.2832 1.2328 2.1082 4.4587 2.1083 5.6914 0 0.05931-0.10143 0.01544-0.23079-0.08984-0.2832l-0.25586-0.12695c-0.06176-0.03074-0.12614-0.046761-0.19141-0.050781-0.02447-0.00151-0.09828 0.00481-0.07422 0z" color="#000000" fill="#786d7d" fill-opacity=".99608" style="-inkscape-stroke:none"/></g></svg>
