<svg width="16" height="16" version="1.1" viewBox="0 0 16 16" xmlns="http://www.w3.org/2000/svg">
 <path transform="matrix(1.0008 0 0 1.0008 -.92296 -.024993)" d="m10.872 1.0242c-0.8846 0-1.6855 0.36033-2.2697 0.94068-0.20907 0.20768-0.11915 0.48079 0.14442 0.61281 0.071717 0.035924 0.14333 0.073365 0.21273 0.11319 0.10976 0.062995 0.26034 0.03915 0.35129-0.04879 0.40313-0.38978 0.95231-0.62842 1.5613-0.62842 1.246-1e-7 2.2444 1.0002 2.2444 2.2463 0 0.52742-0.2644 1.1734-0.48986 1.5691-0.073637 0.12924-0.040563 0.29853 0.085871 0.38252 0.32849 0.21821 0.78872 0.10757 0.96215-0.26932 0.23168-0.50347 0.43131-1.1253 0.43131-1.6823 0-1.7801-1.4536-3.2358-3.2338-3.2358zm-3.9208 1.9985c-1.7802 1e-7 -3.2319 1.4557-3.2319 3.2358 0 0.55697 0.19768 1.1788 0.42936 1.6823 0.17342 0.37689 0.63366 0.48754 0.96215 0.26932 0.12643-0.083991 0.16146-0.25328 0.087823-0.38252-0.22545-0.39571-0.49181-1.0417-0.49181-1.5691 0-1.2461 0.99833-2.2463 2.2444-2.2463 1.246-3e-7 2.2463 1.0003 2.2463 2.2463 0 0.623-0.25202 1.3056-0.6616 1.8326-0.40958 0.527-0.97266 0.89581-1.5867 0.9114-2.5248 0.064118-4.8603 1.1333-5.6948 2.9235-0.1955 0.41938-0.26438 0.93372-0.26542 1.3349v0.001952c-0.002489 0.959 0.78387 1.7467 1.7428 1.7467h8.3568c0.95973 3.5e-5 1.7486-0.78689 1.7486-1.7467-2.1e-5 -0.40925-0.077302-0.92215-0.28494-1.3408-0.56066-1.1302-1.4572-1.6687-2.5352-2.1624-0.31903-0.1461-0.69517 0.0033977-0.83529 0.32397v0.001952l-0.0019516 0.001951c-0.07643 0.17484 0.0025029 0.38223 0.1776 0.45863 1.0161 0.44349 1.813 0.81562 2.3088 1.815 0.03576 0.07208 0.085228 0.24576 0.121 0.4235 0.03578 0.17774 0.06049 0.36745 0.0605 0.4801 5e-6 0.42606-0.3329 0.75723-0.75918 0.75723h-8.3568c-0.4244 0-0.75637-0.33264-0.75528-0.75723 6.083e-4 -0.23484 0.10131-0.76814 0.17174-0.91921 0.68489-1.4693 2.561-2.2209 4.8029-2.3556 0.89731 1.973e-4 1.708-0.49206 2.2912-1.2022 0.58321-0.71014 0.94263-1.6392 0.94263-2.5293 0-1.7802-1.4536-3.2358-3.2338-3.2358zm4.4341 4.0184c-0.19106 0.022363-0.3603 0.17703-0.39813 0.36886l-0.037081 0.1854c-0.043234 0.21923 0.10353 0.40577 0.32592 0.4274 2.0558 0.19997 3.705 0.96912 4.3989 2.3244 0.13703 0.26761 0.20221 0.73679 0.17174 0.91726-0.070685 0.41866-0.32893 0.75918-0.75332 0.75918h-0.81382c-0.41583 0-0.64863 0.3247-0.60695 0.73771 0.00347 0.03438 0.007098 0.067544 0.009758 0.10148 0.00642 0.08164 0.076123 0.14832 0.15808 0.14832h1.2529c0.95892 0 1.7453-0.7877 1.7428-1.7467v-0.001951c-0.001042-0.40119-0.069919-0.91552-0.26542-1.3349-0.76854-1.6486-2.8112-2.6829-5.1015-2.8864-0.02782-0.002472-0.056625-0.0031947-0.083919 0zm-6.1593 1.2041c-0.034091 0.024643-0.022602 0.082805 0.0078064 0.10929 0.091087 0.032474 0.11336-0.035511 0.10539-0.078065-0.00714-0.038126-0.10508-0.037089-0.11319-0.031226zm4.1901 1.975c0.02153-0.007211 0.047553 0.007318 0.068307 0.046839 0.042308 0.08057 3.66e-4 0.080943-0.040984 0.10344-0.081807 0.0445-0.074689-0.037772-0.070258-0.074162 0.00487-0.040025 0.021406-0.068901 0.042936-0.076113z" fill="#786d7d"/>
</svg>
