<svg width="16" height="16" version="1.1" viewBox="0 0 16 16" xml:space="preserve" xmlns="http://www.w3.org/2000/svg"><defs><style id="current-color-scheme" type="text/css">
      .ColorScheme-Text {
        color:#232629;
      }
      </style><style type="text/css">
      .ColorScheme-Text {
        color:#232629;
      }
      </style></defs><path d="m8 0.50195c-0.1136 4.035e-5 -0.22639 0.002656-0.33984 0.007813-1.8153 0.082507-3.6018 0.81825-4.9727 2.1934-2.7418 2.7502-2.929 7.1527-0.42969 10.125 1.6158 1.9217 4.0122 2.8384 6.3641 2.6448 0.2115-0.01741 0.28364-0.18319 0.1846-0.37079-0.034248-0.06487-0.066387-0.1306-0.096429-0.19708-0.10371-0.2295-0.36497-0.40773-0.61691-0.4042-1.8904 0.026511-3.7682-0.76935-5.0697-2.3173-2.1714-2.5825-2.0091-6.384 0.37305-8.7734 2.3012-2.3083 5.9262-2.5482 8.5039-0.61133 0.15098 0.11345 0.36513 0.095945 0.48633-0.048828l0.27344-0.32617c0.08277-0.098873 0.0702-0.24658-0.03125-0.32617-1.3621-1.0686-2.9981-1.5963-4.6289-1.5957zm0.048828 2.6914c-0.23758-0.002049-0.47323 0.014391-0.70508 0.046875-1.7061 0.23904-3.2096 1.3918-3.8398 3.0684-0.091859 0.24435 0.060204 0.5029 0.3125 0.57031l0.050781 0.015625c0.2523 0.067415 0.50969-0.084176 0.60742-0.32617 0.65257-1.6158 2.3232-2.5807 4.0488-2.3379 0.25848 0.036367 0.51817-0.11108 0.58594-0.36328l0.013672-0.052734c0.067763-0.2522-0.082322-0.51391-0.33984-0.55664-0.24607-0.040833-0.49081-0.062353-0.73438-0.064453zm6.3301 1.1465c-0.03104 0.00385-0.06298 0.014598-0.0918 0.03125l-0.45898 0.26562c-0.10884 0.062894-0.145 0.20155-0.08594 0.3125 3e-3 0.00569 6e-3 0.011387 9e-3 0.017093 0.01904 0.03681 0.06644 0.057885 0.10715 0.050174 0.046715-0.0088553 0.09407-0.014369 0.14167-0.016486h0.4803c0.21691 0 0.32364-0.16184 0.22726-0.35614-0.030382-0.061243-0.061752-0.12222-0.094269-0.18292-0.047146-0.088007-0.14124-0.13264-0.23438-0.12109zm-0.37891 2.8091v2.2514c0 1.7599 0.0033 2.8855-0.10742 3.6289-0.11068 0.74341-0.28472 1.08-0.73633 1.5078l-0.0098 0.0098c-0.63735 0.63735-1.6556 0.63735-2.293 0-0.63735-0.63735-0.63735-1.6556 0-2.293 0.59451-0.59451 1.5211-0.63568 2.1602-0.12109 0.07717 0.06214 0.18968 0.06428 0.25977-0.0059l0.05469-0.05469c0.29001-0.29001 0.29226-0.77269-0.06641-0.96875-0.99497-0.54392-2.2754-0.39652-3.1152 0.44336-1.0195 1.0195-1.0195 2.6875 0 3.707 1.0179 1.0179 2.6813 1.0166 3.7012 2e-3 0.57567-0.54788 0.90222-1.2002 1.0332-2.0801 0.1316-0.88334 0.11918-2.0185 0.11918-3.7754v-2.2277a0.17271 0.17271 135 0 1 0.17271-0.17271h0.04728a0.45306 0.45306 148.28 0 0 0.40523-0.25045l0.14642-0.29284a0.31558 0.31558 58.283 0 0-0.28226-0.45671h-0.34044a1.1489 1.1489 135 0 0-1.1489 1.1489zm-6-0.80324c-0.90832 0-1.6543 0.74598-1.6543 1.6543s0.74598 1.6562 1.6543 1.6562 1.6562-0.74793 1.6562-1.6562-0.74793-1.6543-1.6562-1.6543zm0 1c0.36789 0 0.65625 0.28643 0.65625 0.6543s-0.28836 0.65625-0.65625 0.65625-0.6543-0.28838-0.6543-0.65625 0.2864-0.6543 0.6543-0.6543z" color="#000000" fill="#786d7d" stroke-linejoin="round" style="-inkscape-stroke:none"/><circle cx="13.5" cy="3.5" r=".5" fill="#786d7d"/><g transform="translate(.19143 -1.9926)"><circle cx="11.8" cy="15.399" r="2.6164" fill="#786d7d" opacity=".16" stroke-linejoin="round" stroke-width=".964"/></g></svg>
