<?xml version="1.0" encoding="UTF-8" standalone="no"?>
<svg
   width="16"
   height="16"
   version="1.1"
   viewBox="0 0 16 16"
   xml:space="preserve"
   id="svg62685"
   sodipodi:docname="tools-media-optical-erase.svg"
   inkscape:version="1.2.2 (b0a8486541, 2022-12-01)"
   xmlns:inkscape="http://www.inkscape.org/namespaces/inkscape"
   xmlns:sodipodi="http://sodipodi.sourceforge.net/DTD/sodipodi-0.dtd"
   xmlns="http://www.w3.org/2000/svg"
   xmlns:svg="http://www.w3.org/2000/svg"><sodipodi:namedview
     id="namedview62687"
     pagecolor="#ffffff"
     bordercolor="#666666"
     borderopacity="1.0"
     inkscape:showpageshadow="2"
     inkscape:pageopacity="0.0"
     inkscape:pagecheckerboard="0"
     inkscape:deskcolor="#d1d1d1"
     showgrid="false"
     inkscape:zoom="55.339385"
     inkscape:cx="11.384297"
     inkscape:cy="5.5656564"
     inkscape:window-width="3840"
     inkscape:window-height="2137"
     inkscape:window-x="2560"
     inkscape:window-y="0"
     inkscape:window-maximized="1"
     inkscape:current-layer="svg62685" /><defs
     id="defs62673"><style
       id="current-color-scheme"
       type="text/css">
      .ColorScheme-Text {
        color:#232629;
      }
      </style><style
       type="text/css"
       id="style62669">
      .ColorScheme-Text {
        color:#232629;
      }
      </style><style
       type="text/css"
       id="style62671">.ColorScheme-Text {
        color:#232629;
      }
      .ColorScheme-NegativeText {
        color:#da4453;
      }</style></defs><path
     d="m8.5 0.0019531c-0.1136 4.039e-5 -0.22639 0.0026625-0.33984 0.0078125-1.8153 0.08251-3.6018 0.81821-4.9727 2.1934-1.5829 1.5878-2.3114 3.7262-2.166 5.8223l0.99414-0.99414c0.10891-1.505 0.73861-2.9754 1.8809-4.1211 2.3012-2.3083 5.9262-2.5482 8.5039-0.61133 0.15098 0.11345 0.36513 0.095946 0.48633-0.048828l0.27344-0.32617c0.08277-0.098872 0.0702-0.24658-0.03125-0.32617-1.3621-1.0686-2.9981-1.5962-4.6289-1.5957zm5.5 2.498c-0.27614 0-0.5 0.22386-0.5 0.5s0.22386 0.5 0.5 0.5 0.5-0.22386 0.5-0.5-0.22386-0.5-0.5-0.5zm0.87695 1.3398c-0.03107 0.00387-0.06103 0.014598-0.08984 0.03125l-0.45898 0.26562c-0.10884 0.062894-0.145 0.20155-0.08594 0.3125 1.5385 2.8898 0.69074 6.482-2.0098 8.375-0.85192 0.59717-1.7999 0.96253-2.7676 1.1074 0.075978 0.16608 0.12305 0.34778 0.12305 0.54883 0 0.15539-0.024377 0.30529-0.066406 0.44922 1.1487-0.15676 2.2757-0.58094 3.2832-1.2871 3.114-2.1828 4.0926-6.3515 2.3086-9.6816-0.04715-0.088005-0.14312-0.13269-0.23633-0.12109z"
     fill="#786d7d"
     style="-inkscape-stroke:none"
     id="path62675" /><g
     transform="translate(-2.5779 -.019751)"
     id="g62683"><path
       id="path62677"
       style="-inkscape-stroke:none;paint-order:markers stroke fill;fill:#821313;fill-opacity:1;opacity:0.16"
       d="M 10.497822 4.644751 C 9.9785051 4.6522308 9.4658486 4.8466456 9.1052437 5.207251 L 5.8142281 8.5002197 L 9.8142281 12.50022 C 10.204748 12.890739 10.837791 12.890739 11.228291 12.50022 L 13.812275 9.9142822 C 14.593324 9.133233 14.593325 7.8671565 13.812275 7.0861573 L 11.935322 5.207251 C 11.544797 4.8167264 11.017139 4.6372712 10.497822 4.644751 z M 11.087666 5.8302979 A 1.6897498 1.6897498 0 0 1 12.777119 7.519751 A 1.6897498 1.6897498 0 0 1 11.087666 9.2092041 A 1.6897498 1.6897498 0 0 1 9.3962594 7.519751 A 1.6897498 1.6897498 0 0 1 11.087666 5.8302979 z " /><path
       d="m9.5 0.625c-0.51289 0-1.0256 0.1936-1.4141 0.58203l-6.8789 6.8789c-0.77686 0.77686-0.77686 2.0513 0 2.8281l3.5859 3.5859c0.32001 0.32001 0.75447 0.5 1.207 0.5h7.25a0.75 0.75 135 0 0 0.75-0.75 0.25 0.25 45 0 0-0.25-0.25h-7.75c-0.18773 0-0.36726-0.074287-0.5-0.20703l-3.5859-3.5859c-0.39471-0.39471-0.39471-1.0194 0-1.4141l6.8789-6.8789c0.39471-0.39471 1.0194-0.39471 1.4141 0l3.8789 3.8789c0.39471 0.39471 0.39471 1.0194 0 1.4141l-4.5859 4.5859-3.6162-3.6162a0.75 0.75 6.909e-7 0 0-1.0607 0 0.24995 0.24995 89.988 0 0 7.56e-5 0.35348l3.9697 3.9697c0.38634 0.38634 1.0277 0.38634 1.4141 0l4.5859-4.5859c0.77686-0.77686 0.77686-2.0513 0-2.8281l-3.8789-3.8789c-0.38843-0.38843-0.90117-0.58203-1.4141-0.58203z"
       color="#000000"
       display="none"
       fill="#786d7d"
       style="-inkscape-stroke:none;paint-order:markers stroke fill"
       id="path62679" /><path
       d="m 10.5008,4.6448 c 0.51289,0 1.0256,0.1936 1.4141,0.58203 l 1.8789,1.8789 c 0.77686,0.77686 0.77686,2.0513 0,2.8281 l -2.5859,2.5859 c -0.38634,0.38634 -1.0277,0.38634 -1.4141,0 l -2.3242,-2.3242 c -0.09761,-0.09761 -0.097589,-0.25589 0,-0.35352 0.29289,-0.29289 0.76765,-0.29289 1.0605,0 l 1.9707,1.9707 2.5859,-2.5859 c 0.39471,-0.39471 0.39471,-1.0194 0,-1.4141 l -1.8789,-1.8789 c -0.39471,-0.39471 -1.0194,-0.39471 -1.4141,0 l -4.8789,4.8789 c -0.39471,0.39471 -0.39471,1.0194 0,1.4141 l 1.2324,1.2324 c 0.35912,0.35912 0.84564,0.56055 1.3535,0.56055 h 1.5771 c 0.41421,0 0.75,0.33579 0.75,0.75 0,0.13807 -0.11193,0.25 -0.25,0.25 H 7.5007 c -0.7727,0 -1.5142,-0.30713 -2.0605,-0.85352 l -1.2324,-1.2324 c -0.77686,-0.77686 -0.77686,-2.0513 0,-2.8281 L 9.0867,5.22684 C 9.47513,4.83841 9.98787,4.64481 10.5008,4.64481 Z m 0.6025,9.375 c 0.26491,0.01334 0.47461,0.23166 0.47461,0.5 0,0.277 -0.223,0.5 -0.5,0.5 -0.277,0 -0.5,-0.223 -0.5,-0.5 0,-0.277 0.223,-0.5 0.5,-0.5 0.0087,0 0.01685,-4.3e-4 0.02539,0 z"
       color="#000000"
       fill="#821313"
       stroke-linecap="square"
       style="-inkscape-stroke:none"
       id="path62681"
       sodipodi:nodetypes="ccscscscccscscscsssssscscsccssssss" /></g></svg>
