<svg width="16" height="16" version="1.1" viewBox="0 0 16 16" xml:space="preserve" xmlns="http://www.w3.org/2000/svg"><defs><style id="current-color-scheme" type="text/css">
      .ColorScheme-Text {
        color:#232629;
      }
      </style><style type="text/css">
      .ColorScheme-Text {
        color:#232629;
      }
      </style></defs><path d="m8 0.50195c-0.1136 4.035e-5 -0.22639 0.0026555-0.33984 0.0078125-1.8153 0.082507-3.6018 0.81817-4.9727 2.1934-2.7418 2.7502-2.929 7.1527-0.42969 10.125 1.7845 2.1223 4.5206 3.0182 7.0977 2.5469 0.08381-0.01533 0.11268-0.08471 0.066406-0.15625-0.076053-0.1176-0.14481-0.23967-0.20703-0.36328-0.11773-0.2339-0.39718-0.39932-0.6582-0.37695-2.0432 0.17508-4.1251-0.62038-5.5332-2.2949-2.1715-2.5825-2.0091-6.384 0.37305-8.7734 2.3012-2.3083 5.9262-2.5482 8.5039-0.61133 0.15098 0.11345 0.36513 0.095946 0.48633-0.048828l0.27344-0.32617c0.08277-0.098872 0.0702-0.24658-0.03125-0.32617-1.3621-1.0686-2.9981-1.5962-4.6289-1.5957zm5.5 2.498c-0.27614 0-0.5 0.22386-0.5 0.5s0.22386 0.5 0.5 0.5 0.5-0.22386 0.5-0.5-0.22386-0.5-0.5-0.5zm-5.4512 0.19336c-0.23758-0.00205-0.47323 0.014391-0.70508 0.046875-1.7061 0.23904-3.2096 1.3919-3.8398 3.0684-0.091859 0.24435 0.060199 0.50289 0.3125 0.57031l0.050781 0.013672c0.2523 0.067415 0.50968-0.08222 0.60742-0.32422 0.65257-1.6158 2.3231-2.5807 4.0488-2.3379 0.25848 0.036367 0.51818-0.11108 0.58594-0.36328l0.013672-0.052734c0.067764-0.2522-0.080372-0.5139-0.33789-0.55664-0.24607-0.040833-0.49276-0.062352-0.73633-0.064453zm6.3301 1.1465c-0.03104 0.0038499-0.062977 0.014598-0.091797 0.03125l-0.45898 0.26562c-0.10884 0.062894-0.145 0.20155-0.085937 0.3125 0.72056 1.3535 0.91601 2.8606 0.64453 4.2754-0.02831 0.14754 0.026906 0.35453 0.12891 0.46484l0.37695 0.41016c0.126 0.13626 0.2761 0.10252 0.32617-0.076171 0.50749-1.8111 0.33715-3.803-0.60547-5.5625-0.047145-0.088005-0.14124-0.13264-0.23438-0.12109zm-1.4941 1.6289c-0.08483 0.0050966-0.1655 0.041608-0.22656 0.10352l-0.19141 0.19531c-1.046 1.1507-1.0387 2.9272 0.017578 4.0684l1.334 1.4414c0.70118 0.7575 0.69006 1.9343-0.027343 2.6758l-0.009766 0.009766h-0.001953c-0.69456 0.71786-1.8089 0.7212-2.5059 0.005859-0.71956-0.74429-0.7404-1.9219-0.048829-2.6934l0.48633-0.54883c0.099149-0.11223 0.088622-0.28347-0.023438-0.38281l-0.023438-0.021484c-0.28749-0.25504-0.72728-0.22881-0.98242 0.058593l-0.20312 0.22852c-1.0366 1.1579-1.0039 2.9375 0.076172 4.0547v0.001954h0.001953c1.0783 1.1068 2.8669 1.1027 3.9414-0.007813l0.009765-0.009765h0.001954c1.0826-1.1189 1.1007-2.9081 0.042968-4.0508l-1.334-1.4414c-0.70725-0.76406-0.71215-1.9462-0.011719-2.7168l0.046875-0.050781c0.11442-0.12657 0.14421-0.30838 0.076172-0.46484l-0.10352-0.24414c-0.045752-0.10675-0.14171-0.18366-0.25586-0.20508-0.028482-0.0053745-0.057661-0.0075583-0.085937-0.0058594zm-4.8848 0.37695c-0.90832 0-1.6543 0.74598-1.6543 1.6543s0.74598 1.6562 1.6543 1.6562 1.6562-0.74803 1.6562-1.6562-0.74803-1.6543-1.6562-1.6543zm0 1c0.36789 0 0.65625 0.28643 0.65625 0.6543s-0.28836 0.65625-0.65625 0.65625-0.6543-0.28838-0.6543-0.65625 0.2864-0.6543 0.6543-0.6543zm4.5 5.6543a0.5 0.5 0 0 0-0.5 0.5 0.5 0.5 0 0 0 0.5 0.5 0.5 0.5 0 0 0 0.5-0.5 0.5 0.5 0 0 0-0.5-0.5z" fill="#786d7d" style="-inkscape-stroke:none"/><circle cx="12.527" cy="13.164" r="2.8191" fill="#786d7d" opacity=".17" stroke-linejoin="round"/></svg>
