<svg width="16" height="16" version="1.1" viewBox="0 0 16 16" xml:space="preserve" xmlns="http://www.w3.org/2000/svg"><defs><style id="current-color-scheme" type="text/css">
      .ColorScheme-Text {
        color:#232629;
      }
      </style><style type="text/css">
      .ColorScheme-Text {
        color:#232629;
      }
      </style><style type="text/css">
      .ColorScheme-Text {
        color:#232629;
      }
      </style><style type="text/css">
      .ColorScheme-Text {
        color:#232629;
      }
      </style></defs><g fill="#786d7d"><path d="m8 0.50195c-0.1136 4.035e-5 -0.22639 0.0026555-0.33984 0.0078125-1.8153 0.082506-3.6018 0.81826-4.9727 2.1934-2.7418 2.7502-2.9289 7.1527-0.42969 10.125 1.2552 1.4928 2.9805 2.377 4.791 2.6074 0.078263 0.009961 0.13161-0.045478 0.11719-0.12305l-0.097656-0.52148c-0.037674-0.2026-0.23409-0.39234-0.43555-0.43555-1.3665-0.29306-2.6459-1.026-3.6094-2.1719-2.1714-2.5825-2.0091-6.384 0.37305-8.7734 2.3012-2.3083 5.9262-2.5481 8.5039-0.61133 0.15098 0.11345 0.36513 0.095945 0.48633-0.048828l0.27344-0.32617c0.08277-0.098873 0.0702-0.24658-0.03125-0.32617-1.3621-1.0686-2.9981-1.5963-4.6289-1.5957zm5.5 2.498c-0.27614 0-0.5 0.22386-0.5 0.5s0.22386 0.5 0.5 0.5 0.5-0.22386 0.5-0.5-0.22386-0.5-0.5-0.5zm-5.4512 0.19336c-0.23758-0.002049-0.47323 0.014391-0.70508 0.046875-1.7061 0.23904-3.2096 1.3919-3.8398 3.0684-0.091859 0.24435 0.060205 0.5029 0.3125 0.57031l0.050781 0.015625c0.2523 0.067415 0.50969-0.084177 0.60742-0.32617 0.65256-1.6158 2.3232-2.5807 4.0488-2.3379 0.25848 0.036367 0.51817-0.11108 0.58594-0.36328l0.013672-0.052734c0.067763-0.2522-0.082322-0.51391-0.33984-0.55664-0.24607-0.040833-0.49081-0.062353-0.73438-0.064453zm6.3633 1.1426c-0.01163-2.872e-4 -0.023506 5.126e-4 -0.035156 0.0019531-0.03104 0.00385-0.061034 0.014598-0.089844 0.03125l-0.45898 0.26562c-0.10884 0.062894-0.14696 0.20155-0.087891 0.3125 0.51577 0.96879 0.76363 2.0165 0.76367 3.0527 9e-6 0.20497 0.15298 0.33745 0.35352 0.29492l0.45703-0.097656c0.10159-0.021544 0.1858-0.12271 0.18555-0.22656-0.002877-1.1936-0.2912-2.4001-0.88672-3.5117-0.041252-0.077004-0.11975-0.12104-0.20117-0.12305zm-6.4121 2.0098c-0.90832 0-1.6543 0.74598-1.6543 1.6543 0 0.50868 0.23397 0.96494 0.59961 1.2695 0.080022 0.066661 0.19772 0.042842 0.25391-0.044922l0.29883-0.4668c0.074894-0.11699 0.033721-0.27198-0.042969-0.38672-0.07-0.10473-0.10938-0.23266-0.10938-0.37109 0-0.36786 0.28641-0.6543 0.6543-0.6543 0.30271 0 0.55218 0.19314 0.63086 0.4668 0.028768 0.10006 0.11037 0.1875 0.21484 0.1875h0.52344c0.15865 0 0.28937-0.12914 0.26172-0.28516-0.13714-0.77388-0.81991-1.3691-1.6309-1.3691zm1 2.6543c-0.54636 0-1 0.45364-1 1v4.5c0 0.8225 0.6775 1.5 1.5 1.5h2.5c0.54636 0 1-0.45364 1-1v-0.81641l1.8145 1.4883c0.50051 0.30031 1.1855-0.088186 1.1855-0.67188v-5c0-0.58369-0.68504-0.97218-1.1855-0.67188l-1.8145 1.4883v-0.81641c0-0.54636-0.45364-1-1-1h-3zm0 1h3v0.90039c0 0.54636 0.45364 1 1 1h0.011719a0.35475 0.35475 0 0 0 0.22461-0.080079l1.7637-1.4375v4.2344l-1.7656-1.4395a0.3456 0.3456 0 0 0-0.21875-0.078125h-0.015625c-0.54636 0-1 0.45364-1 1v0.90039h-2.5c-0.28206 0-0.5-0.21794-0.5-0.5v-4.5z" color="#000000" stroke-linejoin="round" style="-inkscape-stroke:none"/><g><path d="m12 10.9v-0.9h-3v5h3v-0.9h2l1 0.9v-5l-1 0.9z" opacity=".16"/><circle cx="3.5" cy="8.5" r=".5" opacity=".16"/><circle cx="10.5" cy="4.5" r=".5" opacity=".16"/></g></g></svg>
