<svg width="16" height="16" version="1.1" viewBox="0 0 16 16" xml:space="preserve" xmlns="http://www.w3.org/2000/svg"><defs><style id="current-color-scheme" type="text/css">
      .ColorScheme-Text {
        color:#232629;
      }
      </style><style type="text/css">
      .ColorScheme-Text {
        color:#232629;
      }
      </style></defs><g fill="#786d7d"><path d="m8 0.50195c-0.1136 4.035e-5 -0.22639 0.0026555-0.33984 0.0078125-1.8153 0.082508-3.6018 0.81821-4.9727 2.1934-2.7418 2.7502-2.929 7.1527-0.42969 10.125 2.4993 2.9723 6.8668 3.5435 10.047 1.3145 3.114-2.1828 4.0926-6.3515 2.3086-9.6816-0.06286-0.11734-0.21091-0.15645-0.32617-0.089844l-0.45898 0.26562c-0.10884 0.062894-0.14501 0.20155-0.085937 0.3125 1.5385 2.8898 0.69074 6.482-2.0098 8.375-2.7629 1.9367-6.5375 1.4419-8.709-1.1406-2.1715-2.5825-2.0091-6.384 0.37305-8.7734 2.3012-2.3083 5.9262-2.5482 8.5039-0.61133 0.15098 0.11345 0.36513 0.095946 0.48633-0.048828l0.27344-0.32617c0.08277-0.098872 0.0702-0.24658-0.03125-0.32617-1.3621-1.0686-2.9981-1.5962-4.6289-1.5957zm5.5 2.498a0.5 0.5 0 0 0-0.5 0.5 0.5 0.5 0 0 0 0.5 0.5 0.5 0.5 0 0 0 0.5-0.5 0.5 0.5 0 0 0-0.5-0.5zm-5.543 3.3457c-0.88899 0.022807-1.6113 0.76017-1.6113 1.6543 0 0.90832 0.74598 1.6562 1.6543 1.6562s1.6562-0.74798 1.6562-1.6562-0.74798-1.6543-1.6562-1.6543c-0.014192 0-0.028858-3.62e-4 -0.042969 0zm0.042969 1c0.36789 0 0.65625 0.28643 0.65625 0.6543s-0.28836 0.65625-0.65625 0.65625-0.6543-0.28838-0.6543-0.65625 0.2864-0.6543 0.6543-0.6543z" style="-inkscape-stroke:none"/><path d="m7.1747 3.2677c-0.22844 0.064648-0.35582 0.30897-0.29261 0.54549l0.01466 0.054711c0.067416 0.25229 0.32607 0.39882 0.58458 0.36302 0.83408-0.11549 1.687 0.049021 2.4242 0.47468 0.7372 0.42563 1.306 1.0818 1.6232 1.8621 0.09828 0.24177 0.35501 0.39453 0.60718 0.32664l0.05283-0.014154c0.25217-0.067893 0.40547-0.32904 0.31346-0.57332-0.39002-1.0355-1.1281-1.9096-2.0948-2.4677-0.96671-0.55813-2.0949-0.76159-3.1869-0.58171-0.016098 0.00265-0.030554 0.00594-0.045783 0.010246zm-3.3586 5.8559c-0.25229 0.067415-0.40572 0.32705-0.31397 0.57144 0.087673 0.23352 0.1926 0.45645 0.31256 0.66844 0.11701 0.20678 0.25006 0.4034 0.39412 0.58795 1.0601 1.358 2.8094 2.0831 4.5764 1.7906 0.25754-0.04262 0.40616-0.30353 0.3384-0.55574l-0.013649-0.05094c-0.067766-0.2522-0.32613-0.39937-0.58458-0.36302-1.7256 0.24276-3.3972-0.72225-4.0498-2.3381-0.097745-0.24203-0.35439-0.39217-0.60668-0.32475z" opacity=".16" style="-inkscape-stroke:none"/><path d="m10.969 4.222c-0.20077-0.12672-0.46764-0.058183-0.60133 0.14691l-0.0309 0.047469c-0.14261 0.21877-0.07874 0.5091 0.12066 0.67747 0.64336 0.54325 1.091 1.2877 1.2671 2.1205 0.17609 0.83284 0.06813 1.6945-0.30028 2.4519-0.11416 0.23469-0.0562 0.52776 0.16283 0.66996l0.04584 0.02984c0.21904 0.1422 0.51575 0.08171 0.63597-0.15 0.50961-0.9822 0.66646-2.1154 0.43555-3.2075-0.23092-1.0921-0.83361-2.0673-1.6972-2.7594-0.01277-0.010169-0.02481-0.018789-0.03819-0.027248zm-6.6006 1.4154c-0.21876-0.14261-0.51443-0.083217-0.63491 0.14836-0.11511 0.22129-0.21082 0.44833-0.28833 0.67925-0.075606 0.22524-0.13295 0.45562-0.17395 0.68612-0.30168 1.6961 0.32812 3.482 1.7266 4.6009 0.20383 0.16309 0.49724 0.09926 0.63955-0.1197l0.028768-0.0442c0.14231-0.21896 0.079111-0.50951-0.12066-0.67746-1.3339-1.1214-1.7332-3.0097-0.96739-4.5751 0.11471-0.23447 0.054867-0.52571-0.1639-0.66832z" opacity=".16" style="-inkscape-stroke:none"/><path d="m9.0398 3.3101c-0.23584-0.027266-0.4467 0.1501-0.47838 0.39286l-0.00729 0.056169c-0.033794 0.25895 0.14952 0.49298 0.40217 0.55837 0.81517 0.21101 1.5411 0.68808 2.0605 1.3625 0.51943 0.67441 0.79532 1.4978 0.79129 2.3401-0.0012 0.26098 0.17792 0.50003 0.43693 0.53334l0.05424 0.00704c0.25902 0.033309 0.50025-0.14973 0.50826-0.41064 0.033933-1.106-0.31549-2.1954-0.99662-3.0797-0.68114-0.88435-1.6467-1.5023-2.7249-1.7521-0.015914-0.00363-0.0305-0.00619-0.046224-0.00802zm-5.3364 4.1346c-0.25895-0.033796-0.49972 0.1478-0.50801 0.40871-0.00791 0.24931 0.00416 0.49541 0.034306 0.73711 0.029406 0.23576 0.0775 0.46825 0.14038 0.69376 0.4627 1.6595 1.8038 2.9964 3.549 3.3992 0.25436 0.05872 0.49117-0.12589 0.52461-0.38489l0.00679-0.0523c0.033435-0.25899-0.14937-0.49351-0.40217-0.55836-1.6879-0.43302-2.8658-1.9621-2.8535-3.7048 0.0018436-0.26102-0.17824-0.49761-0.43719-0.5314z" opacity=".16" style="-inkscape-stroke:none"/></g></svg>
