<svg width="16" height="16" version="1.1" viewBox="0 0 16 16" xmlns="http://www.w3.org/2000/svg">
 <path d="m2.5 14h2.5l0.9311-0.20557 4.3842-4.293-2-2-1.4141 2e-7 -3.6772 3.5859z" color="#000000" fill="#786d7d" opacity=".5" style="-inkscape-stroke:none"/>
 <path d="m7 1c-0.55228 0-1 0.44772-1 1s0.44772 1 1 1 1-0.44772 1-1-0.44772-1-1-1zm2.5 1c-0.27614-1e-7 -0.5 0.22386-0.5 0.5s0.22386 0.5 0.5 0.5c0.27614 1e-7 0.5-0.22386 0.5-0.5s-0.22386-0.5-0.5-0.5zm1.6191 1.3906c-0.25802 0.040352-0.49664 0.16137-0.68164 0.3457l-2.4688 2.4688c-0.04909 0.04853-0.073866 0.1118-0.074219 0.17578-3.499e-4 0.063975 0.023716 0.12866 0.072266 0.17773 0.2931 0.29412 0.7694 0.29412 1.0625 0l2.1055-2.1035c0.09822-0.098012 0.25725-0.098012 0.35547 0l1.0508 1.0508c0.10277 0.10235 0.10277 0.26874 0 0.37109l-7.9199 7.9219c-0.13274 0.13274-0.31227 0.20703-0.5 0.20703-0.18773-3e-6 -0.36726-0.07429-0.5-0.20703l-0.41602-0.41602c-0.13274-0.13274-0.20703-0.31227-0.20703-0.5 2e-6 -0.18772 0.074288-0.36726 0.20703-0.5l4.293-4.293 0.66992 0.66992c0.29289 0.29294 0.74816 0.27533 1.041-0.017578 0.09892-0.09785 0.09892-0.25762 0-0.35547l-1.0039-1.0039c-0.38633-0.38633-1.0277-0.38633-1.4141 0l-4.293 4.293c-0.32001 0.32001-0.5 0.75447-0.5 1.207 6e-7 0.45256 0.17999 0.88702 0.5 1.207l0.41602 0.41602c0.32001 0.32001 0.75447 0.5 1.207 0.5 0.45256 1e-6 0.88702-0.17999 1.207-0.5l7.8848-7.8848c0.51407-0.51319 0.51407-1.3462 0-1.8594l-1.0254-1.0254c-0.28024-0.27963-0.67743-0.40816-1.0684-0.3457z" fill="#786d7d" stroke-linecap="square"/>
</svg>
