<svg width="16" height="16" version="1.1" viewBox="0 0 16 16" xml:space="preserve" xmlns="http://www.w3.org/2000/svg"><defs><style id="current-color-scheme" type="text/css">
      .ColorScheme-Text {
        color:#232629;
      }
      </style><style type="text/css">
      .ColorScheme-Text {
        color:#232629;
      }
      </style></defs><path d="m8 0.50195c-0.1136 4.035e-5 -0.22639 0.002656-0.33984 0.007813-1.8153 0.082508-3.6018 0.81825-4.9727 2.1934-2.7418 2.7502-2.929 7.1527-0.42969 10.125 2.4993 2.9723 6.8669 3.5435 10.047 1.3145 3.114-2.1828 4.0926-6.3518 2.3086-9.6819-0.06286-0.11734-0.21063-0.15663-0.32589-0.090023l-0.45946 0.26551c-0.10884 0.062894-0.14574 0.20195-0.08667 0.3129 1.5385 2.8898 0.69171 6.4822-2.0088 8.3752-2.7629 1.9367-6.5375 1.4419-8.709-1.1406-2.1715-2.5825-2.0091-6.384 0.37305-8.7734 2.3012-2.3083 5.9258-2.5477 8.5035-0.61086 0.15098 0.11345 0.36622 0.09506 0.48742-0.049714l0.27326-0.32642c0.082772-0.098872 0.069879-0.24636-0.031566-0.32595-1.3621-1.0686-2.9983-1.5958-4.6291-1.5953zm0.048828 2.6914c-0.23758-0.002049-0.47323 0.014391-0.70508 0.046875-1.7061 0.23904-3.2097 1.391-3.8399 3.0675-0.091859 0.24435 0.060079 0.5047 0.31238 0.57212l0.0512 0.013681c0.2523 0.067415 0.50889-0.084122 0.60663-0.32612 0.65257-1.6158 2.3235-2.5804 4.0492-2.3376 0.25848 0.036367 0.51805-0.11008 0.58581-0.36228l0.014372-0.053491c0.067764-0.2522-0.08173-0.51398-0.33925-0.55672-0.24607-0.040833-0.49175-0.061897-0.73532-0.063998zm-0.048828 3.1523c-0.90832 0-1.6543 0.74598-1.6543 1.6543s0.74598 1.6562 1.6543 1.6562 1.6562-0.74793 1.6562-1.6562-0.74793-1.6543-1.6562-1.6543zm0 1c0.36789 0 0.65625 0.28643 0.65625 0.6543s-0.28836 0.65625-0.65625 0.65625-0.6543-0.28838-0.6543-0.65625 0.2864-0.6543 0.6543-0.6543zm3.5274 2.0886c-0.31702 0.78008-0.88587 1.437-1.6231 1.8626-0.73721 0.42562-1.5912 0.59003-2.4255 0.47459-0.25852-0.035772-0.5177 0.11083-0.58499 0.36316l-0.014141 0.05303c-0.067288 0.25233 0.082615 0.51416 0.34018 0.55662 1.0918 0.17999 2.2178-0.02208 3.1845-0.5802 0.96671-0.55813 1.7054-1.4324 2.0956-2.468 0.09204-0.24428-0.05979-0.50491-0.31199-0.57267l-0.05349-0.014372c-0.2522-0.067763-0.50878 0.083505-0.60703 0.32528z" color="#000000" fill="#786d7d" stroke-linejoin="round" style="-inkscape-stroke:none"/><circle cx="13.5" cy="3.5" r=".5" fill="#786d7d"/></svg>
