<svg width="16" height="16" version="1.1" viewBox="0 0 16 16" xml:space="preserve" xmlns="http://www.w3.org/2000/svg"><defs><style id="current-color-scheme" type="text/css">
      .ColorScheme-Text {
        color:#232629;
      }
      </style><style type="text/css">
      .ColorScheme-Text {
        color:#232629;
      }
      </style></defs><path d="m8 0.50195c-0.1136 4.035e-5 -0.22639 0.0026555-0.33984 0.0078125-1.8153 0.082508-3.6018 0.81821-4.9727 2.1934-2.7418 2.7502-2.929 7.1527-0.42969 10.125 1.251 1.4877 2.9695 2.3728 4.7734 2.6074a6.046 6.046 0 0 1-1.4023-1.3809c-0.98166-0.38431-1.8826-1.0114-2.6055-1.8711-2.1715-2.5825-2.0091-6.384 0.37305-8.7734 2.3012-2.3083 5.9262-2.5482 8.5039-0.61133 0.15098 0.11345 0.36513 0.095946 0.48633-0.048828l0.27344-0.32617c0.08277-0.098872 0.0702-0.24658-0.03125-0.32617-1.3621-1.0686-2.9981-1.5962-4.6289-1.5957zm5.5 2.498a0.5 0.5 0 0 0-0.5 0.5 0.5 0.5 0 0 0 0.5 0.5 0.5 0.5 0 0 0 0.5-0.5 0.5 0.5 0 0 0-0.5-0.5zm-5.4512 0.19336c-0.23758-0.00205-0.47323 0.014391-0.70508 0.046875-1.7061 0.23904-3.2096 1.3919-3.8398 3.0684-0.091859 0.24435 0.0602 0.50289 0.3125 0.57031l0.050781 0.013672c0.2523 0.067415 0.50968-0.082221 0.60742-0.32422 0.65257-1.6158 2.3231-2.5807 4.0488-2.3379 0.25848 0.036367 0.51818-0.11108 0.58594-0.36328l0.013672-0.052734c0.067764-0.2522-0.080371-0.5139-0.33789-0.55664-0.24607-0.040833-0.49276-0.062352-0.73633-0.064453zm6.3301 1.1465c-0.031044 0.0038496-0.062982 0.014598-0.091797 0.03125l-0.45898 0.26562c-0.10884 0.062894-0.14501 0.20155-0.085937 0.3125 0.11418 0.21448 0.21266 0.43306 0.30078 0.6543a6.046 6.046 0 0 1 1.3906 1.4062c-0.11532-0.87204-0.3847-1.7357-0.82031-2.5488-0.047145-0.088005-0.14124-0.13264-0.23438-0.12109z" fill="#786d7d" opacity=".7" style="-inkscape-stroke:none"/><path d="m10.5 5.5a5 5 0 0 0-5 5 5 5 0 0 0 5 5 5 5 0 0 0 5-5 5 5 0 0 0-5-5zm0 1a4 4 0 0 1 4 4 4 4 0 0 1-4 4 4 4 0 0 1-4-4 4 4 0 0 1 4-4zm0 2.5a1.5 1.5 0 0 0-1.5 1.5 1.5 1.5 0 0 0 1.5 1.5 1.5 1.5 0 0 0 1.5-1.5 1.5 1.5 0 0 0-1.5-1.5zm0 1a0.5 0.5 0 0 1 0.5 0.5 0.5 0.5 0 0 1-0.5 0.5 0.5 0.5 0 0 1-0.5-0.5 0.5 0.5 0 0 1 0.5-0.5z" fill="#786d7d" stroke-linejoin="round"/></svg>
