<svg width="16" height="16" version="1.1" viewBox="0 0 16 16" xml:space="preserve" xmlns="http://www.w3.org/2000/svg"><g fill="#786d7d"><path d="m6.4355 6a0.43621 0.43621 0 0 0-0.43555 0.43555v0.044922a0.51994 0.51994 0 0 0 0.51953 0.51953h3.4805v3h-3v-1.9082a0.59235 0.59235 0 0 0-0.5918-0.5918h-0.048828a0.36022 0.36022 0 0 0-0.35938 0.35938v2.3301a0.81047 0.81047 0 0 0 0.81055 0.81055h3.1719a1.0178 1.0178 0 0 0 1.0176-1.0176v-3.1309a0.85146 0.85146 0 0 0-0.85156-0.85156h-3.7129zm2.0645 2a0.5 0.5 0 0 0-0.5 0.5 0.5 0.5 0 0 0 0.5 0.5 0.5 0.5 0 0 0 0.5-0.5 0.5 0.5 0 0 0-0.5-0.5z" opacity=".7" stroke-linejoin="round" stroke-width=".964"/><path d="m10.899 3.193-1.8008-1.9316a0.83539 0.83539 180 0 0-1.2221 1e-7l-1.8008 1.9316a0.51778 0.51778 88.996 0 0 0.012601 0.7192l0.25 0.25a0.13973 0.13973 178.67 0 0 0.2021-0.00471l1.9471-2.1375 1.856 2.0374a0.26891 0.26891 1.3342 0 0 0.38895 0.00906l0.1543-0.1543a0.51778 0.51778 91.004 0 0 0.0126-0.7192z" color="#000000" style="-inkscape-stroke:none"/><path d="m10.899 13.807-1.8008 1.9316a0.83539 0.83539 3.6335e-6 0 1-1.2221 0l-1.8008-1.9316a0.51778 0.51778 91.004 0 1 0.012601-0.7192l0.25-0.25a0.13973 0.13973 1.3341 0 1 0.2021 0.0047l1.9471 2.1375 1.856-2.0374a0.26891 0.26891 178.67 0 1 0.38895-0.0091l0.1543 0.1543a0.51778 0.51778 88.996 0 1 0.0126 0.7192z" color="#000000" style="-inkscape-stroke:none"/></g></svg>
