<svg width="16" height="16" version="1.1" viewBox="0 0 16 16" xml:space="preserve" xmlns="http://www.w3.org/2000/svg"><g fill="#786d7d"><path d="m6.4355 6a0.43621 0.43621 0 0 0-0.43555 0.43555v0.044922a0.51994 0.51994 0 0 0 0.51953 0.51953h3.4805v3h-3v-1.9082a0.59235 0.59235 0 0 0-0.5918-0.5918h-0.048828a0.36022 0.36022 0 0 0-0.35938 0.35938v2.3301a0.81047 0.81047 0 0 0 0.81055 0.81055h3.1719a1.0178 1.0178 0 0 0 1.0176-1.0176v-3.1309a0.85146 0.85146 0 0 0-0.85156-0.85156h-3.7129zm2.0645 2a0.5 0.5 0 0 0-0.5 0.5 0.5 0.5 0 0 0 0.5 0.5 0.5 0.5 0 0 0 0.5-0.5 0.5 0.5 0 0 0-0.5-0.5z" opacity=".7" stroke-linejoin="round" stroke-width=".964"/><path d="m3.18 6.0882-1.9316 1.8008a0.83539 0.83539 90 0 0 0 1.2221l1.9316 1.8008a0.51778 0.51778 179 0 0 0.7192-0.0126l0.25-0.25a0.13973 0.13973 88.666 0 0-0.00471-0.2021l-2.1375-1.9471 2.0374-1.856a0.26891 0.26891 91.334 0 0 0.00906-0.38895l-0.1543-0.1543a0.51778 0.51778 1.0038 0 0-0.7192-0.012602z" color="#000000" style="-inkscape-stroke:none"/><path d="m13.794 6.0882 1.9316 1.8008a0.83539 0.83539 90 0 1 0 1.2221l-1.9316 1.8008a0.51778 0.51778 1.0038 0 1-0.7192-0.0126l-0.25-0.25a0.13973 0.13973 91.334 0 1 0.0047-0.2021l2.1375-1.9471-2.0374-1.856a0.26891 0.26891 88.666 0 1-0.0091-0.38895l0.1543-0.1543a0.51778 0.51778 179 0 1 0.7192-0.012601z" color="#000000" style="-inkscape-stroke:none"/></g></svg>
