<svg width="16" height="16" version="1.1" viewBox="0 0 16 16" xml:space="preserve" xmlns="http://www.w3.org/2000/svg"><path d="m6.4355 6a0.43621 0.43621 0 0 0-0.43555 0.43555v0.044922a0.51994 0.51994 0 0 0 0.51953 0.51953h3.4805v3h-3v-1.9082a0.59235 0.59235 0 0 0-0.5918-0.5918h-0.048828a0.36022 0.36022 0 0 0-0.35938 0.35938v2.3301a0.81047 0.81047 0 0 0 0.81055 0.81055h3.1719a1.0178 1.0178 0 0 0 1.0176-1.0176v-3.1309a0.85146 0.85146 0 0 0-0.85156-0.85156h-3.7129zm2.0645 2a0.5 0.5 0 0 0-0.5 0.5 0.5 0.5 0 0 0 0.5 0.5 0.5 0.5 0 0 0 0.5-0.5 0.5 0.5 0 0 0-0.5-0.5z" fill="#786d7d" opacity=".7" stroke-linejoin="round" stroke-width=".964"/><path d="m8.3887 1.002a0.83539 0.83539 0 0 0-0.51367 0.25977l-1.8008 1.9316a0.51778 0.51778 0 0 0 0.013672 0.71875l0.25 0.25a0.13973 0.13973 0 0 0 0.20117-0.0039063l1.9473-2.1387 1.8574 2.0371a0.26891 0.26891 0 0 0 0.38867 0.0097656l0.1543-0.1543a0.51778 0.51778 0 0 0 0.011719-0.71875l-1.8008-1.9316a0.83539 0.83539 0 0 0-0.70898-0.25977zm-4.8457 4.9473a0.51778 0.51778 0 0 0-0.36328 0.13867l-1.9316 1.8008a0.83539 0.83539 0 0 0 0 1.2227l1.9316 1.8008a0.51778 0.51778 0 0 0 0.71875-0.013671l0.1543-0.1543a0.26891 0.26891 0 0 0-0.0078125-0.38867l-2.0371-1.8555 2.1367-1.9473a0.13973 0.13973 0 0 0 0.0039063-0.20117l-0.25-0.25a0.51778 0.51778 0 0 0-0.35547-0.15234zm9.8887 0a0.51778 0.51778 0 0 0-0.35742 0.15234l-0.25 0.25a0.13973 0.13973 0 0 0 0.005859 0.20117l2.1367 1.9473-2.0371 1.8555a0.26891 0.26891 0 0 0-0.009766 0.38867l0.1543 0.1543a0.51778 0.51778 0 0 0 0.7207 0.013671l1.9316-1.8008a0.83539 0.83539 0 0 0 0-1.2227l-1.9316-1.8008a0.51778 0.51778 0 0 0-0.36328-0.13867zm-7.0293 6.8516a0.13973 0.13973 0 0 0-0.064453 0.03711l-0.25 0.25a0.51778 0.51778 0 0 0-0.013672 0.71875l1.8008 1.9316a0.83539 0.83539 0 0 0 1.2227 0l1.8008-1.9316a0.51778 0.51778 0 0 0-0.011719-0.71875l-0.1543-0.1543a0.26891 0.26891 0 0 0-0.38867 0.009765l-1.8574 2.0371-1.9473-2.1387a0.13973 0.13973 0 0 0-0.13672-0.041016z" color="#000000" fill="#786d7d" style="-inkscape-stroke:none"/></svg>
