<svg version="1.1" viewBox="0 0 16 16" xml:space="preserve" xmlns="http://www.w3.org/2000/svg"><defs><style id="current-color-scheme" type="text/css">
      .ColorScheme-NegativeText {
        color:#da4453;
      }
      </style><style type="text/css">
      .ColorScheme-NegativeText {
        color:#da4453;
      }
      </style><style type="text/css">
      .ColorScheme-NegativeText {
        color:#da4453;
      }
      </style></defs><g><rect x="3" y="6" width="10" height="8" rx=".5" ry=".5" fill="#821313" opacity=".16" stroke-linejoin="round"/><path d="m6 1c-1.0928 0-2.1413 0.43427-2.9141 1.207l-6e-3 0.0059-4e-3 0.0039c-0.71594 0.75782-1.0596 1.7949-0.9375 2.8301l0.72852 8.0039c0.0999 1.0992 1.0291 1.9492 2.1328 1.9492 2-5e-5 4-2.3e-5 6 0 1.1037 1.3e-5 2.0329-0.85004 2.1328-1.9492l0.77539-8.5098c0.0748-0.81987-0.58475-1.541-1.408-1.541h-6.75c-0.41421 0-0.75 0.33579-0.75 0.75 0 0.13807 0.11193 0.25 0.25 0.25h7.25c0.25078 1e-6 0.43481 0.20142 0.41211 0.45117l-0.77344 8.5098c-0.0539 0.59291-0.54332 1.0391-1.1387 1.0391h-6c-0.59535-1e-6 -1.0848-0.44616-1.1387-1.0391l-0.72852-8.0195v-0.0078c-0.0886-0.74096 0.15705-1.4798 0.66797-2.0234 0.58487-0.5815 1.3742-0.91017 2.1992-0.91017h5.25c0.41421 0 0.75-0.33579 0.75-0.75 0-0.13807-0.11193-0.25-0.25-0.25z" color="#000000" fill="#786d7d" stroke-linecap="square" style="-inkscape-stroke:none"/><rect x="4" y="6" width="8" height="1" rx=".5" ry=".5" fill="#821313" opacity=".5" stroke-linejoin="round"/></g></svg>
