<svg width="16" height="16" version="1.1" viewBox="0 0 16 16" xmlns="http://www.w3.org/2000/svg">
 <g fill="#786d7d">
  <path d="m8 1c-2.2032 0-4 1.7968-4 4v2c-0.55228 0-1 0.44772-1 1v5c0 1.0986 0.90136 2 2 2h6c1.0986 0 2-0.90136 2-2v-1a0.5 0.5 45 0 0-0.5-0.5 0.5 0.5 135 0 0-0.5 0.5v1c0 0.55821-0.44179 1-1 1h-6c-0.55821 0-1-0.44179-1-1v-5c0.55228 0 1-0.44772 1-1v-2c0-1.6628 1.3372-3 3-3s3 1.3372 3 3h-1c0-1.0986-0.90136-2-2-2s-2 0.90136-2 2v2c0 0.55228 0.44772 1 1 1h4.5c0.27614 0 0.5 0.22386 0.5 0.5v0.5a0.5 0.5 45 0 0 0.5 0.5 0.5 0.5 135 0 0 0.5-0.5v-0.5c0-0.82843-0.67157-1.5-1.5-1.5h-4.5v-2c0-0.55821 0.44179-1 1-1s1 0.44179 1 1c0 0.55228 0.44772 1 1 1h1c0.55228 0 1-0.44772 1-1 0-2.2032-1.7968-4-4-4z" color="#000000" style="-inkscape-stroke:none"/>
  <circle cx="12.5" cy="8.5" r=".5" stroke-linecap="round" stroke-linejoin="round"/>
  <circle cx="12.5" cy="10.5" r=".5" stroke-linecap="round" stroke-linejoin="round"/>
 </g>
</svg>
