<svg width="16" height="16" version="1.1" viewBox="0 0 16 16" xml:space="preserve" xmlns="http://www.w3.org/2000/svg"><path d="m8.5 0.49805c-0.19235-1e-8 -0.3847 0.073643-0.53125 0.2207l-1.8984 1.9004c-0.09761 0.09763-0.09761 0.25589 0 0.35352l0.35156 0.35352c0.09785 0.09891 0.25762 0.09891 0.35547 0l1.2227-1.2227v4.6465c0 0.13807 0.11193 0.25 0.25 0.25h0.5c0.13807 0 0.25-0.11193 0.25-0.25v-4.6465l1.2227 1.2227c0.09785 0.09891 0.25762 0.09891 0.35547 0l0.35156-0.35352c0.09761-0.09763 0.09761-0.25589 0-0.35352l-1.8984-1.9004c-0.14655-0.14706-0.3389-0.2207-0.53125-0.2207zm-4.5 2.502c-1.108 0-2 0.892-2 2v8c0 1.108 0.892 2 2 2h9c1.108 0 2-0.892 2-2v-8c0-1.108-0.892-2-2-2h-0.87109c-0.071417-5.379e-4 -0.12945 0.057493-0.12891 0.12891v0.095703c-1.49e-4 0.4283 0.34709 0.77554 0.77539 0.77539h0.22461c0.554 0 1 0.446 1 1v8c0 0.554-0.446 1-1 1h-9c-0.554 0-1-0.446-1-1v-8c0-0.554 0.446-1 1-1h0.31055c0.3807-1.876e-4 0.68926-0.30876 0.68945-0.68945v-0.074219c-7.72e-5 -0.13049-0.10584-0.23625-0.23633-0.23633h-0.76367zm4.5 5c-0.27614 0-0.5 0.22386-0.5 0.5s0.22386 0.5 0.5 0.5 0.5-0.22386 0.5-0.5-0.22386-0.5-0.5-0.5z" fill="#786d7d" style="-inkscape-stroke:none"/></svg>
