<svg width="16" height="16" version="1.1" viewBox="0 0 16 16" xml:space="preserve" xmlns="http://www.w3.org/2000/svg"><path transform="matrix(1.0008 0 0 1.0008 -.92296 -.024993)" d="m10.872 1.0242c-0.8846 0-1.6855 0.36033-2.2697 0.94068-0.20907 0.20768-0.11915 0.48079 0.14442 0.61281 0.071717 0.035924 0.14333 0.073365 0.21273 0.11319 0.10976 0.062995 0.26034 0.039149 0.35129-0.04879 0.40313-0.38978 0.95231-0.62842 1.5613-0.62842 1.246-1e-7 2.2444 1.0002 2.2444 2.2463 0 0.52742-0.2644 1.1734-0.48986 1.5691-0.07364 0.12924-0.04056 0.29853 0.08587 0.38252 0.32849 0.21821 0.78872 0.10757 0.96215-0.26932 0.23168-0.50347 0.43131-1.1253 0.43131-1.6823 0-1.7801-1.4536-3.2358-3.2338-3.2358zm-3.9208 1.9985c-1.7802 1e-7 -3.2319 1.4557-3.2319 3.2358 0 0.55697 0.19768 1.1788 0.42936 1.6823 0.17342 0.37689 0.63366 0.48754 0.96215 0.26932 0.12643-0.083991 0.16146-0.25328 0.087823-0.38252-0.22545-0.39571-0.49181-1.0417-0.49181-1.5691 0-1.2461 0.99833-2.2463 2.2444-2.2463 1.246-3e-7 2.2463 1.0003 2.2463 2.2463 0 0.623-0.25202 1.3056-0.6616 1.8326-0.40958 0.527-0.97266 0.89581-1.5867 0.9114-2.5248 0.064118-4.8603 1.1333-5.6948 2.9235-0.1955 0.41938-0.26438 0.93372-0.26542 1.3349v2e-3c-0.002489 0.959 0.78387 1.7467 1.7428 1.7467h7.734c0.17586 0 0.30368-0.14357 0.32516-0.3178 0.0075-0.06111 0.01869-0.12168 0.03346-0.18126 0.07151-0.28832-0.01713-0.48846-0.31606-0.48846h-7.7765c-0.4244 0-0.75637-0.33264-0.75528-0.75723 6.083e-4 -0.23484 0.10131-0.76814 0.17174-0.91921 0.68489-1.4693 2.561-2.2209 4.8029-2.3556 0.89731 1.973e-4 1.708-0.49206 2.2912-1.2022 0.58321-0.71013 0.94263-1.6392 0.94263-2.5293 0-1.7802-1.4536-3.2358-3.2338-3.2358zm4.4341 4.0184c-0.19106 0.022363-0.3603 0.17703-0.39813 0.36886l-0.03708 0.1854c-0.04323 0.21923 0.10353 0.40577 0.32592 0.4274 1.6355 0.15909 3.0111 0.68018 3.8554 1.5685 0.08774 0.092321 0.22625 0.099329 0.31632 0.00926l0.18821-0.18821c0.03184-0.032638 0.06596-0.06296 0.10198-0.090824 0.16546-0.12799 0.23036-0.30615 0.08346-0.45665-1.0027-1.0273-2.604-1.6684-4.3521-1.8237-0.02782-0.00247-0.05662-0.00319-0.08392 0zm-6.1593 1.2041c-0.034091 0.024643-0.022602 0.082805 0.00781 0.10929 0.091087 0.032474 0.11336-0.035511 0.10539-0.078065-0.00714-0.038126-0.10508-0.037089-0.11319-0.031226zm4.5453 1.4579c-0.24695-0.0045628-0.4843 0.14014-0.58939 0.38057v2e-3l-0.00195 2e-3c-0.07643 0.17484 0.0025 0.38223 0.1776 0.45863 1.0161 0.44349 1.813 0.81562 2.3088 1.815 0.03576 0.07208 0.08523 0.24576 0.121 0.4235 0.0089 0.04422 0.01691 0.08846 0.02394 0.13177 0.02563 0.15792 0.10876 0.18106 0.22672 0.07333 0.07496-0.06846 0.15551-0.13175 0.23389-0.19254 0.12428-0.09639 0.11583-0.25245-0.0069-0.35395-0.40776-0.33714-0.7756-0.76596-1.1548-1.1458-0.2068-0.20394-0.31752-0.48665-0.3327-0.77524-0.010643-0.20181-0.11074-0.446-0.29152-0.53777-0.15191-0.077119-0.30836-0.15142-0.46873-0.22486-0.079758-0.036525-0.16359-0.055076-0.2459-0.056597zm-0.35519 0.51718c0.02153-0.0072 0.047553 0.0073 0.068307 0.04684 0.042308 0.08057 3.66e-4 0.08094-0.040984 0.10344-0.081807 0.0445-0.074689-0.03777-0.070258-0.07416 0.00487-0.04002 0.021406-0.0689 0.042936-0.07611z" fill="#786d7d"/><g transform="matrix(.88333 0 0 .88333 -.18818 1.9857)" fill="#786d7d" stroke-width="1.1321"><path d="m11.591-0.012317c-1.5403 0-2.7793 1.239-2.7793 2.7793 0 0.013235 0.1117 0.1226 0.00221 0.0398-0.46601-0.35306-1.1361-0.97089-1.7687-0.97089-1.5403 1e-7 -2.7771 1.239-2.7771 2.7793 0 0.66094 0.32146 1.4423 0.59699 1.9259 0.0653 0.11461 0.034883 0.26297-0.075177 0.33609-0.29759 0.19769-0.68834 0.14233-0.91318-0.12603 0.45029 0.68852 0.55348 0.82846 1.1188 1.4881-2.3616 1.2678-2.647 1.3789-3.781 3.6218-0.10133 0.21736-0.2137 0.83751-0.21448 1.1409-0.001441 0.55633 0.43866 0.99793 0.99499 0.9972l9.4878-0.013267c0.07493-0.20308 0.19025-0.38939 0.34493-0.54393 0.30252-0.33752 0.65623-0.67004 1.0006-0.98086 0.27149-0.24504 0.25071-0.61267-0.01738-0.86139-0.36446-0.33814-0.70604-0.72567-1.0562-1.0764-0.50627-0.49927-0.50627-1.4155 0-1.9148l0.26533-0.26533c0.23398-0.23583 0.5633-0.37316 0.89549-0.37146 0.32845 0.00126 0.65309 0.1383 0.88444 0.37146l1.4195 1.4173c0.0978 0.097567 0.19122 0.098426 0.28744 0.00221l1.1409-1.1409c-1.1042-1.1544-2.9916-1.7572-5.1474-1.8861-0.6635 1.4e-4 -1.2877-0.23358-1.8308-0.61911l-0.23659 0.068544c0.19897-0.40435 0.33063-0.83825 0.37367-1.2647 0.46844 0.47775 1.0549 0.79967 1.6937 0.81589 0.7026 0.01784 1.3907 0.10067 2.0475 0.24543 0.5623-0.65608 0.66814-0.79827 1.1122-1.477-0.22611 0.26014-0.61248 0.31254-0.90655 0.11719-0.11006-0.07312-0.13826-0.22148-0.072966-0.33609 0.27554-0.4836 0.597-1.2649 0.597-1.9259 0-1.5403-1.1463-2.3723-2.6866-2.3723zm3.0691 4.517c0.04259-0.049 0.08122-0.1043 0.11055-0.16804-0.04516 0.06925-0.07144 0.10826-0.11055 0.16804zm-10.783 2.2465c-0.037031-0.056623-0.061522-0.091978-0.10392-0.15699 0.027471 0.059693 0.064732 0.11021 0.10392 0.15699z" opacity=".16" stroke-width="1.252"/></g><path d="m15.45 9.9791a0.123 0.123 0 0 0-0.088 0.037l-1.224 1.222c-0.42 0.42-1.09 0.42-1.511 0l-1.256-1.255a0.218 0.218 0 0 0-0.31 0l-0.24 0.24a0.299 0.299 0 0 0 0 0.426l1.196 1.198c0.75 0.75 1.98 0.75 2.73 0l1.184-1.18a0.184 0.184 0 0 0 0-0.262l-0.391-0.389a0.127 0.127 0 0 0-0.09-0.037zm-2.068 2.82c-0.495 0-0.99 0.185-1.365 0.56l-1.129 1.129a0.54 0.54 0 0 0 0 0.766l0.053 0.052a0.244 0.244 0 0 0 0.348 0l1.338-1.338c0.42-0.42 1.09-0.42 1.511 0l1.007 1.007a0.43 0.43 0 0 0 0.61 0l0.199-0.197a0.153 0.153 0 0 0 0-0.215l-1.206-1.204a1.922 1.922 0 0 0-1.366-0.56z" fill="#821313" style="-inkscape-stroke:none"/><path d="m11.217 10.151-0.234 0.234c-0.032 0.032-0.032 0.07 0 0.102l1.197 1.199a1.707 1.707 0 0 0 2.406 0l1.251-1.25-0.285-0.285-1.251 1.25a1.3 1.3 0 0 1-1.836 0zm2.166 2.877c-0.438 0-0.873 0.163-1.204 0.494l-1.028 1.029a0.308 0.308 0 0 0 0 0.441l0.052 0.053c0.01 0.01 0.014 0.01 0.024 0l1.238-1.238a1.3 1.3 0 0 1 1.836 0l1.107 1.107a0.197 0.197 0 0 0 0.285 0v-2e-3l0.142-0.143-1.25-1.247a1.692 1.692 0 0 0-1.202-0.494z" fill="#821313" style="-inkscape-stroke:none"/><g transform="matrix(-.88333 0 0 .88333 16.193 -.0070407)" fill="#786d7d" stroke-width="1.1321"><path d="m8.5 7v6" color="#000000" stroke-width="1.252" style="-inkscape-stroke:none"/></g></svg>
