<svg width="16" height="16" version="1.1" viewBox="0 0 16 16" xml:space="preserve" xmlns="http://www.w3.org/2000/svg"><path transform="matrix(1.0008 0 0 1.0008 -.92296 -.024993)" d="m10.872 1.0242c-0.8846 0-1.6855 0.36034-2.2697 0.94068-0.20907 0.20768-0.11915 0.48079 0.14442 0.61281 0.071717 0.035924 0.14333 0.073365 0.21273 0.11319 0.10976 0.062995 0.26034 0.039148 0.35129-0.04879 0.40313-0.38977 0.95231-0.62842 1.5613-0.62842 1.246-1e-7 2.2444 1.0002 2.2444 2.2463 0 0.52742-0.2644 1.1734-0.48986 1.5691-0.07364 0.12924-0.040559 0.29853 0.085871 0.38252 0.32849 0.21821 0.78872 0.10757 0.96215-0.26932 0.23168-0.50347 0.43131-1.1253 0.43131-1.6823 0-1.7801-1.4537-3.2358-3.2338-3.2358zm-3.9208 1.9985c-1.7802 1e-7 -3.2319 1.4557-3.2319 3.2358 0 0.55697 0.19768 1.1788 0.42936 1.6823 0.17342 0.37689 0.63366 0.48754 0.96215 0.26932 0.12643-0.083991 0.16146-0.25328 0.087823-0.38252-0.22545-0.39571-0.49181-1.0417-0.49181-1.5691 0-1.2461 0.99834-2.2463 2.2444-2.2463 1.246-3e-7 2.2463 1.0003 2.2463 2.2463 0 0.623-0.25202 1.3056-0.6616 1.8326-0.40958 0.527-0.97266 0.89581-1.5867 0.9114-2.5248 0.064118-4.8603 1.1333-5.6948 2.9235-0.1955 0.41938-0.26438 0.93372-0.26542 1.3349v0.001952c-0.002489 0.95899 0.78387 1.7467 1.7428 1.7467h8.3568c0.18111 7e-6 0.35628-0.029505 0.52108-0.081967 0.1742-0.055456 0.30445-0.27748 0.30445-0.46058v-0.029274a0.41596 0.41596 0 0 0-0.4157-0.4157h-0.40984-0.47815-7.8787c-0.4244 0-0.75637-0.33264-0.75528-0.75723 6.083e-4 -0.23484 0.10131-0.76814 0.17174-0.91921 0.68489-1.4692 2.561-2.2209 4.8029-2.3556 0.89731 1.973e-4 1.708-0.49206 2.2912-1.2022 0.58321-0.71013 0.94263-1.6392 0.94263-2.5293 0-1.7802-1.4537-3.2358-3.2338-3.2358zm4.4341 4.0184c-0.19106 0.022363-0.3603 0.17703-0.39813 0.36886l-0.037081 0.1854c-0.04323 0.21923 0.10353 0.40577 0.32592 0.4274 0.5804 0.056457 1.127 0.15834 1.6296 0.3064 0.32667 0.096235 0.87369 0.20722 1.1749 0.36105 0.15707 0.080224 0.29936 0.18634 0.4196 0.31421 0.063368 0.06739 0.16742 0.17292 0.24005 0.23029 0.39555 0.31242 0.71454 0.68223 0.93482 1.1124 0.045895 0.089628 0.083189 0.20058 0.11124 0.31616 0.047591 0.19608 0.22536 0.33151 0.42155 0.37471 0.12699 0.027963 0.25013 0.074519 0.36495 0.121 0.14495 0.058677 0.26395-0.025391 0.25176-0.1815-0.026731-0.34231-0.10213-0.7248-0.25371-1.05-0.76853-1.6486-2.8112-2.6829-5.1015-2.8864-0.02782-0.00247-0.056619-0.00319-0.083919 0zm-6.1593 1.2041c-0.034091 0.024643-0.022606 0.082805 0.0078064 0.10929 0.091087 0.032474 0.11336-0.035511 0.10539-0.078065-0.00714-0.038126-0.10508-0.037089-0.11319-0.031226zm7.908 1.2803c-0.12141 0-0.22053 0.099127-0.22053 0.22053v1.2783c0 1.0982 0.90031 1.9985 1.9985 1.9985h0.88798c0.33696-5.51e-4 0.61031-0.2739 0.61086-0.61086v-0.074162c0-0.17328-0.14092-0.31421-0.31421-0.31421h-1.1846c-0.55757 0-0.99923-0.44166-0.99923-0.99923v-0.99923c0-0.27593-0.22369-0.49961-0.49961-0.49961h-0.27908zm-3.3626 0.1776c-0.24695-0.00456-0.4843 0.14014-0.58939 0.38057v0.001952l-0.0019516 0.001951c-0.07643 0.17484 0.0025002 0.38223 0.1776 0.45863 0.21821 0.095238 0.42543 0.18754 0.62257 0.28298 0.23972 0.11607 0.64125 0.19676 0.9075 0.18931 0.059523-0.001668 0.11964-0.003595 0.17955-0.003904 0.46756-0.002408 0.58818-0.27321 0.20492-0.5406-0.41943-0.29261-0.87224-0.51604-1.2549-0.71429-0.079757-0.036524-0.16359-0.055076-0.2459-0.056597zm-0.35519 0.51718c0.02153-0.0072 0.047553 0.007299 0.068307 0.046839 0.042308 0.08057 3.66e-4 0.08094-0.040984 0.10344-0.081807 0.0445-0.074689-0.037772-0.070258-0.074162 0.00487-0.04002 0.021406-0.068903 0.042936-0.076113zm1.2529 1.8033c-0.14017 0-0.25371 0.11354-0.25371 0.25371v0.55036c0 0.10892 0.08724 0.19516 0.19516 0.19516h1.3037c0.55757 0 0.99923 0.44166 0.99923 0.99923v1.21c0 0.15988 0.12896 0.28884 0.28884 0.28884h0.33958c0.20497 5.55e-4 0.37137-0.16584 0.37081-0.37081v-1.128c0-1.0981-0.90031-1.9985-1.9985-1.9985h-1.2451z" fill="#786d7d"/></svg>
