<svg width="16" height="16" version="1.1" viewBox="0 0 16 16" xmlns="http://www.w3.org/2000/svg">
 <path d="m8.0449 0.83594c-2.0808 1.1e-7 -3.7773 1.6985-3.7773 3.7793 0 0.64449 0.23234 1.3841 0.50586 1.9785 0.18506 0.40218 0.66812 0.51536 1.0176 0.2832 0.11006-0.073114 0.13952-0.22133 0.074219-0.33594-0.27553-0.4836-0.59766-1.2648-0.59766-1.9258 0-1.5403 1.237-2.7793 2.7773-2.7793 1.5403-3e-7 2.7793 1.239 2.7793 2.7793 0 1.5403-1.2398 3.3379-2.7793 3.377-2.9973 0.076117-5.7594 1.3517-6.7363 3.4473-0.2252 0.48309-0.30737 1.0889-0.30859 1.5586v0.001953c-0.002844 1.0977 0.89646 2 1.9941 2h10.002c1.0987 4.1e-5 2-0.90133 2-2-2.4e-5 -0.47826-0.091046-1.0826-0.33008-1.5645-0.65899-1.3283-1.7034-1.9565-2.9883-2.5449-0.33576-0.15376-0.731 0.0034147-0.87891 0.3418l-0.001953 0.0058593c-0.071736 0.16412 0.002309 0.35434 0.16602 0.42578 1.2174 0.53132 2.1998 0.99369 2.8066 2.2168 0.10444 0.21052 0.22655 0.8242 0.22656 1.1191 7e-6 0.55821-0.44179 1-1 1h-10.002c-0.55633 0-0.99558-0.44172-0.99414-0.99805 7.86e-4 -0.30343 0.11352-0.92326 0.21484-1.1406 0.84201-1.8062 3.1276-2.7076 5.8301-2.8691 2.0806 4.575e-4 3.7793-2.2962 3.7793-4.377 0-2.0808-1.6985-3.7793-3.7793-3.7793zm-2.0156 6.1484a0.088621 0.082094 41.263 0 0-0.050781 0.025391 0.088621 0.082094 41.263 0 0 0.011719 0.12109 0.088621 0.082094 41.263 0 0 0.12109-0.0039063 0.088621 0.082094 41.263 0 0 0.0097657-0.013672 0.088621 0.082094 41.263 0 0 0-0.080078 0.088621 0.082094 41.263 0 0-0.013672-0.017578 0.088621 0.082094 41.263 0 0-0.0058594-0.0058594 0.088621 0.082094 41.263 0 1-0.0019531-0.0019531 0.088621 0.082094 41.263 0 0-0.070312-0.023438zm4.9805 2.3945a0.088621 0.082094 41.263 0 1 0.068359 0.023438 0.088621 0.082094 41.263 0 1 0.021484 0.025391 0.088621 0.082094 41.263 0 1 0 0.080078 0.088621 0.082094 41.263 0 1-0.001953 0.0019531 0.088621 0.082094 41.263 0 1-0.003906 0.0058594 0.088621 0.082094 41.263 0 1-0.003906 0.0058594 0.088621 0.082094 41.263 0 1-0.12109 0.0039062 0.088621 0.082094 41.263 0 1-0.011719-0.12109 0.088621 0.082094 41.263 0 1 0.052735-0.025391z" color="#000000" fill="#786d7d" stroke-linejoin="round" style="-inkscape-stroke:none"/>
</svg>
