<?xml version="1.0" encoding="UTF-8" standalone="no"?>
<svg
   id="svg9"
   version="1.1"
   viewBox="0 0 16 16"
   sodipodi:docname="vcs-push.svg"
   inkscape:version="1.2.2 (b0a8486541, 2022-12-01)"
   xmlns:inkscape="http://www.inkscape.org/namespaces/inkscape"
   xmlns:sodipodi="http://sodipodi.sourceforge.net/DTD/sodipodi-0.dtd"
   xmlns="http://www.w3.org/2000/svg"
   xmlns:svg="http://www.w3.org/2000/svg">
  <defs
     id="defs5681">
    <inkscape:path-effect
       effect="fillet_chamfer"
       id="path-effect7017"
       is_visible="true"
       lpeversion="1"
       nodesatellites_param="F,0,0,1,0,0,0,1 @ F,0,0,1,0,0,0,1 @ F,0,0,1,0,0,0,1 @ F,0,1,1,0,0.25,0,1 @ F,0,0,1,0,0.75,0,1 @ F,0,0,1,0,0,0,1 @ F,0,0,1,0,0,0,1 @ F,0,0,1,0,0,0,1 @ F,0,0,1,0,0,0,1 @ F,0,0,1,0,0,0,1 @ F,0,0,1,0,0,0,1 @ F,0,0,1,0,0.75,0,1 @ F,0,1,1,0,0.25,0,1 @ F,0,0,1,0,0,0,1 @ F,0,0,1,0,0,0,1 @ F,0,0,1,0,0,0,1"
       unit="px"
       method="auto"
       mode="F"
       radius="0.25"
       chamfer_steps="1"
       flexible="false"
       use_knot_distance="true"
       apply_no_radius="true"
       apply_with_radius="true"
       only_selected="true"
       hide_knots="false" />
    <inkscape:path-effect
       effect="fillet_chamfer"
       id="path-effect7007"
       is_visible="true"
       lpeversion="1"
       nodesatellites_param="F,0,0,1,0,0,0,1 @ F,0,0,1,0,1,0,1 @ F,0,0,1,0,1,0,1 @ F,0,0,1,0,1,0,1 @ F,0,0,1,0,1,0,1 @ F,0,0,1,0,0,0,1"
       unit="px"
       method="auto"
       mode="F"
       radius="0"
       chamfer_steps="1"
       flexible="false"
       use_knot_distance="true"
       apply_no_radius="true"
       apply_with_radius="true"
       only_selected="false"
       hide_knots="false" />
    <inkscape:path-effect
       effect="fillet_chamfer"
       id="path-effect7005"
       is_visible="true"
       lpeversion="1"
       nodesatellites_param="F,0,0,1,0,0,0,1 @ F,0,0,1,0,0.5,0,1 @ F,0,0,1,0,0.5014245,0,1 @ F,0,0,1,0,0.5014245,0,1 @ F,0,0,1,0,0.5014245,0,1 @ F,0,0,1,0,0.61497178,0,1 @ F,0,0,1,0,0.49382717,0,1 @ F,0,0,1,0,0.52421652,0,1 @ F,0,0,1,0,0.676156,0,1 @ F,0,0,1,0,0.5,0,1 @ F,0,0,1,0,0.5014245,0,1 @ F,0,0,1,0,0,0,1"
       unit="px"
       method="auto"
       mode="F"
       radius="0.5"
       chamfer_steps="1"
       flexible="false"
       use_knot_distance="true"
       apply_no_radius="true"
       apply_with_radius="true"
       only_selected="true"
       hide_knots="false" />
  </defs>
  <sodipodi:namedview
     id="namedview5679"
     pagecolor="#ffffff"
     bordercolor="#000000"
     borderopacity="0.25"
     inkscape:showpageshadow="2"
     inkscape:pageopacity="0.0"
     inkscape:pagecheckerboard="0"
     inkscape:deskcolor="#ffffff"
     showgrid="false"
     showborder="false"
     inkscape:zoom="1"
     inkscape:cx="34"
     inkscape:cy="-10"
     inkscape:window-width="2560"
     inkscape:window-height="1355"
     inkscape:window-x="0"
     inkscape:window-y="0"
     inkscape:window-maximized="1"
     inkscape:current-layer="svg9">
    <inkscape:grid
       type="xygrid"
       id="grid5800" />
    <inkscape:grid
       type="xygrid"
       id="grid5856"
       spacingx="0.5"
       spacingy="0.5"
       empspacing="1"
       empcolor="#0099e5"
       empopacity="0.09019608" />
  </sodipodi:namedview>
  <style
     id="current-color-scheme"
     type="text/css">.ColorScheme-Text {
            color:#232629;
        }</style>
  <path
     style="color:#000000;fill:#786d7d;stroke-linecap:square;-inkscape-stroke:none"
     d="M 3.5,12 C 2.677496,12 2,12.677496 2,13.5 2,14.322504 2.677496,15 3.5,15 H 6.75 C 6.8880712,15 7,14.888071 7,14.75 7,14.335786 6.6642136,14 6.25,14 H 3.5 C 3.2179356,14 3,13.782064 3,13.5 3,13.217936 3.2179356,13 3.5,13 h 9 c 0.282064,0 0.5,0.217936 0.5,0.5 0,0.282064 -0.217936,0.5 -0.5,0.5 H 9.75 C 9.3357864,14 9,14.335786 9,14.75 9,14.888071 9.1119288,15 9.25,15 H 12.5 C 13.322504,15 14,14.322504 14,13.5 14,12.677496 13.322504,12 12.5,12 Z"
     id="path5858"
     sodipodi:nodetypes="ssccccssssccccsssss" />
  <path
     style="color:#000000;fill:#786d7d;stroke-linecap:square;-inkscape-stroke:none"
     d="M 8.0019531,1 C 7.5321213,1.0036796 7.0858515,1.2078864 6.7753906,1.5605469 L 4,4.6621094 C 3.588358,5.1223852 3.5193763,5.801169 3.828125,6.3359375 l 0.00195,0.00195 v 0.00391 C 4.0756364,6.7549489 4.5252803,7.0060835 5.0058594,7 H 5.9980469 L 6,7.0019531 C 6,8.0013021 6,9.000651 6,10 c 0,0.546362 0.4536377,1 1,1 H 8.9980469 C 9.545195,11 10,10.545196 10,9.9980469 V 7.0019531 l 0.002,-0.00195 h 0.996094 c 0.495635,0 0.952173,-0.2813009 1.173828,-0.7246094 v -0.00195 C 12.428359,5.7604624 12.348372,5.1386512 11.970703,4.7070312 L 9.2011719,1.5429687 C 8.8997661,1.1985051 8.4635717,1 8.0058594,1 h -0.00195 z m 0.00586,1 c 0.1692389,5.313e-4 0.329918,0.073757 0.4414063,0.2011719 L 11.21875,5.3671875 c 0.112203,0.1282317 0.134798,0.3065737 0.05859,0.4589844 v 0.00195 C 11.224135,5.9345418 11.117023,6 10.998047,6 H 10.001953 C 9.4548045,6 9,6.4548045 9,7.0019531 V 9.9980469 L 8.9980469,10 H 7 C 7,9.000651 7,8.0013021 7,7.0019531 7,6.4548045 6.5451955,6 5.9980469,6 H 4.9960937 4.9941406 C 4.8701519,6.0015695 4.7574784,5.937964 4.6933594,5.8320312 4.6011292,5.6686966 4.6207932,5.4701824 4.7460937,5.3300781 L 7.5253906,2.2226563 v -0.00195 C 7.6477565,2.0817046 7.8226997,2.0019744 8.0078131,2 Z"
     id="path7003"
     sodipodi:nodetypes="ccccccccccsssccsccccscccccccsssccccsccccccc" />
</svg>
