<svg xmlns="http://www.w3.org/2000/svg" xml:space="preserve" width="16" height="16"><g fill="#786d7d"><path d="M2.443 1 0 3.156v10.19L2 15h7.886c0-.785.42-1.309.895-1.784l.63-.629c.067-.068.174-.041.247-.101-.073-.06-.18-.034-.248-.102v-.002l-1.097-1.097a1.255 1.255 0 0 1 0-1.734l.24-.24a1.171 1.171 0 0 1 1.62 0l1.155 1.155c.073.073.13.073.203 0h.002l.922-.922C15.001 9 15.472 8.935 16 8.848v-5.65L13.654 1z" opacity=".161"/><path d="M2 1C.901 1 0 1.901 0 3v10c0 1.099.901 2 2 2h7.995c.311 0 .425-.223.38-.529-.037-.257-.301-.471-.68-.471H2c-.558 0-1-.442-1-1V3c0-.558.442-1 1-1h12c.558 0 1 .442 1 1v2H2.135A.134.134 0 0 0 2 5.135v.47c0 .219.176.395.395.395H15c.546 0 1-.454 1-1V3c0-1.099-.902-2-2-2zm9.736 2a.237.237 0 0 0-.236.236v.54c0 .123.1.224.225.224h1.552c.123 0 .223-.1.223-.223v-.556c0-.122-.1-.221-.22-.221zm4.022 3.5a.758.758 0 0 0-.758.758v1.426c0 .318.253.489.57.502.022 0 .045.002.068.005.208.022.362-.058.362-.27V6.7a.2.2 0 0 0-.2-.199zm.057 5.566c-.087.08-.186.148-.284.21-.183.115-.153.257.012.395.062.052.12.11.179.172.151.16.278.112.28-.108.001-.2 0-.401-.001-.602 0-.165-.066-.178-.186-.066zm-2.385 2.385c-.033 0-.065.018-.102.055l-.21.21c-.157.157-.104.285.117.284h.377c.227-.001.281-.132.12-.293l-.2-.201c-.037-.037-.07-.055-.102-.055z" style="-inkscape-stroke:none"/><ellipse cx="11.284" cy="3.917" rx=".086" ry=".081"/><path d="M8.5 7v6" color="#000" style="-inkscape-stroke:none"/></g><path fill="#821313" d="M15.497 9.862a.123.123 0 0 0-.088.037l-1.224 1.222c-.42.42-1.09.42-1.511 0l-1.256-1.255a.218.218 0 0 0-.31 0l-.24.24a.299.299 0 0 0 0 .426l1.196 1.198c.75.75 1.98.75 2.73 0l1.184-1.18a.184.184 0 0 0 0-.262l-.391-.389a.127.127 0 0 0-.09-.037zm-2.068 2.82c-.495 0-.99.185-1.365.56l-1.129 1.129a.54.54 0 0 0 0 .766l.053.052a.244.244 0 0 0 .348 0l1.338-1.338c.42-.42 1.09-.42 1.511 0l1.007 1.007a.43.43 0 0 0 .61 0l.199-.197a.153.153 0 0 0 0-.215l-1.206-1.204a1.922 1.922 0 0 0-1.366-.56z" style="-inkscape-stroke:none"/><path fill="#821313" d="m11.264 10.034-.234.234c-.032.032-.032.07 0 .102l1.197 1.199a1.707 1.707 0 0 0 2.406 0l1.251-1.25-.285-.285-1.251 1.25a1.3 1.3 0 0 1-1.836 0zm2.166 2.877c-.438 0-.873.163-1.204.494l-1.028 1.029a.308.308 0 0 0 0 .441l.052.053c.01.01.014.01.024 0l1.238-1.238a1.3 1.3 0 0 1 1.836 0l1.107 1.107a.197.197 0 0 0 .285 0v-.002l.142-.143-1.25-1.247a1.692 1.692 0 0 0-1.202-.494z" style="-inkscape-stroke:none"/></svg>