<svg width="16" height="16" version="1.1" xml:space="preserve" xmlns="http://www.w3.org/2000/svg"><path d="m2 1c-1.099 0-2 0.90101-2 2v10c0 1.099 0.90101 2 2 2h3c1.6569 0 3-1.3431 3-3v-3.6465c-1.318e-4 -0.74747-0.60606-1.3534-1.3535-1.3535h-2.8926c-0.41615 5.209e-4 -0.75339 0.33775-0.75391 0.75391v4.6523c-5.41e-5 0.32794 0.26581 0.5938 0.59375 0.59375h1.6504c0.41754 2.29e-4 0.75609-0.33832 0.75586-0.75586v-0.16602c-1.665e-4 -0.04308-0.035047-0.077955-0.078125-0.078125h-1.791c-0.07212-3.64e-4 -0.1305-0.058739-0.13086-0.13086v-3.707c-3.618e-4 -0.08968 0.072429-0.16247 0.16211-0.16211h2.4453c0.21662 4.65e-4 0.39211 0.17596 0.39258 0.39258v3.6074c0 1.1046-0.89543 2-2 2h-3c-0.558 0-1-0.44201-1-1v-10c0-0.558 0.442-1 1-1h12c0.55799 0 1 0.442 1 1v2h-12.865c-0.074375 1.29e-4 -0.13464 0.060387-0.13477 0.13477v0.4707c0 0.218 0.17653 0.39453 0.39453 0.39453h9.832c0.25392 0 0.58156-0.17658 0.79883-0.30469 0.10985-0.064774 0.23023-0.11198 0.35547-0.13672 0.29353-0.058426 0.60924 0.0045901 0.85742 0.17188l0.15234 0.10156a0.99709 0.99709 0 0 0 0.55469 0.16797h0.054688c0.54599 0 1-0.454 1-1v-2c0-1.099-0.90201-2-2-2h-12zm9.7363 2c-0.1306-1.816e-4 -0.23651 0.10573-0.23633 0.23633v0.53906c0 0.123 0.09961 0.22461 0.22461 0.22461h1.5527c0.123 0 0.22266-0.099654 0.22266-0.22266v-0.55664c3.91e-4 -0.12205-0.098654-0.22109-0.2207-0.2207h-1.543zm-0.4707 0.81836c-0.04503 0.0073-0.078115 0.046178-0.078125 0.091797 0 0.052 0.040797 0.09375 0.091797 0.09375 0.11535-0.0080699 0.11535-0.17748 0-0.18555-0.0046-3.467e-4 -0.009102-3.455e-4 -0.013672 0zm2.3457 2.7109c-0.050419-0.0032146-0.098754 0.020581-0.12695 0.0625l-3.3828 5.0508c-0.10282 0.15202 0.005929 0.35718 0.18945 0.35742h2.5645l-1.5938 2.3398c-0.29557 0.43363-0.18364 1.0248 0.25 1.3203 0.022643 0.015144 0.05328 0.009015 0.068359-0.013672l2.9863-4.3848c0.07547-0.11128-0.004211-0.26167-0.13867-0.26172h-2.6914l2.5117-3.75c0.081362-0.12072 0.04894-0.2846-0.072266-0.36523l-0.49414-0.33008c-0.020751-0.014587-0.04503-0.023353-0.070313-0.025391zm2.1465 0.16992c-0.10884-1.169e-4 -0.21173 0.022559-0.30469 0.064453-0.12252 0.05522-0.18229 0.24414-0.18359 0.37891-0.002271 0.23459-0.065822 0.46631-0.19726 0.66211v0.0019531a0.44934 0.44934 0 0 0-0.072266 0.25195v1.6875c0 0.22991 0.17172 0.50575 0.32031 0.67969 0.05193 0.06078 0.09717 0.1263 0.13477 0.19727 0.19652 0.37091 0.17114 0.84986-0.064453 1.1973l-0.001953 0.001954-0.20312 0.29883c-0.12068 0.17667-0.18537 0.38566-0.18555 0.59961v0.2793c0 0.55799-0.44201 1-1 1h-0.009766c-0.053783-2.86e-4 -0.10423 0.026036-0.13476 0.070312l-0.48828 0.7207c-0.06059 0.088327 0.002265 0.20845 0.10937 0.20898h0.52344c1.099 0 2-0.90101 2-2v-6.0996c6.49e-4 -0.11061-0.08861-0.20074-0.19922-0.20117h-0.042969zm-7.5957 7.3008c-0.097801-2e-6 -0.18634 0.05958-0.22266 0.15039l-0.2793 0.69922c-0.04773 0.082672 0.039121 0.15039 0.10156 0.15039h2.0234c0.19344 0 0.33389-0.15721 0.35156-0.34961 0.0076-0.0829 0.021132-0.16505 0.039062-0.24609 0.050983-0.2304-0.052558-0.4043-0.28906-0.4043h-1.7246z" fill="#786d7d" style="-inkscape-stroke:none"/></svg>
