<svg width="16" height="16" version="1.1" xml:space="preserve" xmlns="http://www.w3.org/2000/svg"><g transform="translate(0,2)" fill="#786d7d"><path d="m4.1426-2c-0.41012-5.389e-4 -0.74273 0.33207-0.74219 0.74219v0.046875c-8.96e-5 0.11653 0.094399 0.21103 0.21094 0.21094h1.459c0.18206 0 0.32504 0.15314 0.38477 0.32422 0.13647 0.39091 0.51179 0.67578 0.94531 0.67578h3.1992c0.42453 0 0.7923-0.27389 0.93555-0.65234 0.0691-0.18256 0.2237-0.34766 0.41992-0.34766h1.4785c0.09177 1.8715e-4 0.1662-0.074242 0.16602-0.16602v-0.17773c-4.32e-4 -0.36226-0.29399-0.65582-0.65625-0.65625h-1.3438c-0.46531 0-0.86284 0.32856-0.9707 0.76367-0.031574 0.12737-0.13608 0.23633-0.26758 0.23633h-2.6836c-0.15308 0-0.27385-0.12692-0.31641-0.27344-0.12092-0.41631-0.50915-0.72656-0.96094-0.72656zm-0.46289 0.72656c0.051114-0.00918 0.062672 0.033203 0.0625 0.0625-1.703e-4 0.02895-0.028783 0.062021-0.0625 0.0625-0.034287 3.175e-4 -0.062011-0.028215-0.0625-0.0625-3.207e-4 -0.034858 0.02819-0.056338 0.0625-0.0625zm-1.6797 0.27344c-1.099 0-2 0.901-2 2v10c0 1.6569 1.3431 3 3 3h3.9688c0.11216-4e-5 0.20308-0.09095 0.20312-0.20312v-0.125c0-0.37107-0.30081-0.67188-0.67188-0.67188h-1.5c-0.65392 0-1-0.40148-1-1v-0.5c0-0.28206 0.2643-0.5 0.5-0.5s0.5 0.21794 0.5 0.5v0.33789c3e-5 0.36566 0.29645 0.66208 0.66211 0.66211h0.070312c0.14785 1.7e-4 0.26775-0.11973 0.26758-0.26758v-0.73242c0-0.8225-0.6775-1.5-1.5-1.5s-1.5 0.6775-1.5 1.5v0.5c0 0.36346 0.10045 0.70466 0.27148 1h-0.27148c-1.1046 0-2-0.89543-2-2v-10c0-0.558 0.442-1 1-1h0.16406c0.13087 0 0.23438 0.10762 0.26562 0.23438 0.10743 0.4357 0.50497 0.76562 0.9707 0.76562h1.4668c0.23929-4.329e-4 0.36813-0.20344 0.43359-0.43359l0.099609-0.35156c0.032453-0.11409-0.096234-0.21475-0.21484-0.21484h-1.4688c-0.17504 0-0.31187-0.14529-0.36719-0.31055-0.13291-0.39707-0.51126-0.68945-0.94922-0.68945zm11.6 0c-0.47602 0-0.88196 0.34491-0.97852 0.79492-0.023959 0.11167-0.11415 0.20508-0.22852 0.20508h-1.6328c-0.08825 4.9744e-4 -0.18468 0.075377-0.16016 0.16016l0.09961 0.3457c0.075824 0.26213 0.22127 0.49406 0.49414 0.49414h1.4062c0.48427 0 0.89516-0.3569 0.98242-0.81836 0.018774-0.099282 0.10004-0.18164 0.20117-0.18164h0.2168c0.558 0 1 0.442 1 1v2h-12.865c-0.074951-2.1e-6 -0.13533 0.061768-0.13477 0.13672v0.46875c0 0.21815 0.17638 0.39453 0.39453 0.39453h12.605c0.546 0 1-0.454 1-1v-2c0-1.099-0.902-2-2-2zm2.1582 5.5c-0.41808 0-0.75781 0.33973-0.75781 0.75781v5.7422c0 0.74006-0.40252 1.3846-1 1.7305v-5.2305c0-0.8225-0.67747-1.5-1.5-1.5-0.82253 1.5e-5 -1.5 0.6775-1.5 1.5v5.4199l-0.080078 0.080078h-1.4199c-0.83435 0-1.5-0.66565-1.5-1.5v-2c0-0.28206 0.2643-0.5 0.5-0.5s0.5 0.21794 0.5 0.5v2.0332c0 0.27133 0.11714 0.55851 0.37305 0.65234l0.2168 0.08008c0.14229 0.05217 0.30172-0.02088 0.33789-0.16797 0.04716-0.19177 0.072266-0.3927 0.072266-0.59766v-2c0-0.8225-0.79289-1.5-1.5-1.5s-1.5 0.6775-1.5 1.5v2c0 1.3748 1.1252 2.5 2.5 2.5h1.5c0.54636 0 1-0.45364 1-1v-5.5c0-0.28206 0.2643-0.5 0.5-0.5s0.5 0.21794 0.5 0.5v6.2346c0 0.26544 0.1594 0.24831 0.28023 0.24831 1.5251-0.14146 2.7198-1.4208 2.7198-2.9829v-6.3008c0-0.11046-0.088759-0.19922-0.19922-0.19922zm-6.0352 7.584c0.0214 0.0066 0.034261 0.03592 0.025391 0.06055-0.0059 0.01619-0.04799 0.03479-0.0625 0.02539-0.0148-0.0096-0.033667-0.03055-0.023437-0.04687 0.01254-0.02002 0.025499-0.03201 0.037109-0.03711 0.0087-0.0038 0.016298-0.0042 0.023437-2e-3zm-2.209 1.7383c-0.0033 3.8e-4 -0.00657 9.53e-4 -0.00977 2e-3 -0.0033 3.8e-4 -0.00657 9.53e-4 -0.00977 2e-3 -2e-3 0.0012-0.00396 0.0025-0.00586 0.0039-0.0033 1e-3 -0.00657 0.0023-0.00977 0.0039-0.0028 0.0024-0.00541 5e-3 -0.00781 0.0078l-0.00195 2e-3c-2e-3 0.0018-0.00396 0.0038-0.00586 0.0059-0.0014 0.0019-0.00271 0.0038-0.00391 0.0059-0.0015 0.0032-0.00281 0.0064-0.00391 0.0098-0.0053 0.01206-0.00801 0.02549-0.00781 0.03906 6.71e-4 0.0438 0.030849 0.07916 0.068359 0.08008 0.03827 3.13e-4 0.069623-0.0354 0.070312-0.08008 5.19e-4 -0.0413-0.025487-0.07654-0.060547-0.08203-0.0032-2.66e-4 -0.00647-2.66e-4 -0.00977 0z" style="-inkscape-stroke:none"/></g></svg>
