<svg width="16" height="16" version="1.1" xml:space="preserve" xmlns="http://www.w3.org/2000/svg"><path d="m2 1c-1.099 0-2 0.901-2 2v10c0 1.099 0.901 2 2 2h12c1.099 0 2-0.901 2-2v-6.3008c0-0.11046-0.088762-0.19922-0.19922-0.19922h-0.042969c-0.41808 0-0.75781 0.33973-0.75781 0.75781v5.7422c0 0.558-0.442 1-1 1h-12c-0.558 0-1-0.442-1-1v-10c0-0.558 0.442-1 1-1h12c0.558 0 1 0.442 1 1v2h-12.865c-0.074951-2.1e-6 -0.13532 0.06177-0.13477 0.13672v0.46875c0 0.21815 0.17638 0.39453 0.39453 0.39453h12.605c0.546 0 1-0.454 1-1v-2c0-1.099-0.902-2-2-2h-12zm9.7363 2c-0.13034 0-0.23633 0.10599-0.23633 0.23633v0.53906c5.51e-4 0.12387 0.10073 0.22461 0.22461 0.22461h1.5527c0.12261 0 0.22266-0.10005 0.22266-0.22266v-0.55664c0-0.1215-0.0992-0.2207-0.2207-0.2207h-1.543zm-0.46484 0.83594a0.086 0.081 0 0 0-0.074218 0.082031 0.086 0.081 0 0 0 0.085937 0.080078 0.086 0.081 0 0 0 0.085938-0.080078 0.086 0.081 0 0 0-0.001953-0.025391 0.086 0.081 0 0 0-0.011719-0.021484 0.086 0.081 0 0 0-0.00586-0.0058594 0.086 0.081 0 0 0-0.011718-0.011719 0.086 0.081 0 0 0-0.054688-0.017578 0.086 0.081 0 0 0-0.011719 0zm-5.0859 2.7637c-0.10272 0-0.18555 0.082822-0.18555 0.18555v6.3184c-1e-6 0.16364 0.13324 0.29632 0.29688 0.29688h0.068359c0.35015 0 0.63477-0.28462 0.63477-0.63477v-5.4922c4e-7 -0.37208-0.30175-0.67438-0.67383-0.67383h-0.14062zm2.0977 0.40039a0.28369 0.28369 0 0 0-0.2832 0.2832v0.43359a0.28369 0.28369 0 0 0 0.2832 0.2832h5.4336a0.28369 0.28369 0 0 0 0.2832-0.2832v-0.43359a0.28369 0.28369 0 0 0-0.2832-0.2832h-5.4336zm-5.6953 0.0078125c-0.32589-3.2e-4 -0.59016 0.26395-0.58984 0.58984v2.0039c2.81e-4 0.22425 0.182 0.40597 0.40625 0.40625h2.0879c0.2796 5.32e-4 0.50639-0.22626 0.50586-0.50586v-1.1582c-2.59e-4 -0.18543-0.15051-0.33568-0.33594-0.33594h-0.66406v1h-1v-1h1v-0.5c5.21e-4 -0.27636-0.22364-0.50052-0.5-0.5h-0.91016zm5.8262 1.9922a0.41327 0.41327 0 0 0-0.41406 0.41406v0.17188a0.41327 0.41327 0 0 0 0.41406 0.41406h5.3027a0.28369 0.28369 0 0 0 0.2832-0.2832v-0.43359a0.28369 0.28369 0 0 0-0.2832-0.2832h-5.3027zm0 2a0.41327 0.41327 0 0 0-0.41406 0.41406v0.17188a0.41327 0.41327 0 0 0 0.41406 0.41406h4.3027a0.28369 0.28369 0 0 0 0.2832-0.2832v-0.43359a0.28369 0.28369 0 0 0-0.2832-0.2832h-4.3027z" fill="#786d7d" style="-inkscape-stroke:none"/></svg>
