<svg width="16" height="16" version="1.1" xml:space="preserve" xmlns="http://www.w3.org/2000/svg"><g fill="#786d7d"><path d="m2 1c-1.099 0-2 0.901-2 2v10c0 1.099 0.901 2 2 2h12c1.099 0 2-0.901 2-2v-6.3008c0-0.11046-0.088762-0.19922-0.19922-0.19922h-0.042969c-0.41808 0-0.75781 0.33973-0.75781 0.75781v5.7422c0 0.558-0.442 1-1 1h-12c-0.558 0-1-0.442-1-1v-10c0-0.558 0.442-1 1-1h12c0.558 0 1 0.442 1 1v2h-12.865c-0.074951-2.1e-6 -0.13533 0.06177-0.13477 0.13672v0.46875c0 0.21815 0.17638 0.39453 0.39453 0.39453h12.605c0.546 0 1-0.454 1-1v-2c0-1.099-0.902-2-2-2h-12zm9.7363 2c-0.13034 0-0.23633 0.10599-0.23633 0.23633v0.53906c5.51e-4 0.12387 0.10073 0.22461 0.22461 0.22461h1.5527c0.12261 0 0.22266-0.10005 0.22266-0.22266v-0.55664c0-0.1215-0.0992-0.2207-0.2207-0.2207h-1.543zm-6.5508 3.5996c-0.10272 0-0.18555 0.082827-0.18555 0.18555v6.3184c0 0.16364 0.13324 0.29632 0.29688 0.29688h0.068359c0.35015 0 0.63477-0.28462 0.63477-0.63477v-5.4922c0-0.37208-0.30175-0.67438-0.67383-0.67383h-0.14062zm5.4883 0c-0.37208-5.529e-4 -0.67383 0.30175-0.67383 0.67383v5.4922c0 0.35015 0.28462 0.63477 0.63477 0.63477h0.068359c0.16364-5.51e-4 0.29688-0.13324 0.29688-0.29688v-6.3184c0-0.10272-0.082822-0.18555-0.18555-0.18555h-0.14062zm-8.9434 1.4004a0.23027 0.23027 0 0 0-0.23047 0.23047v0.29688a0.47215 0.47215 0 0 0 0.47266 0.47266h2.0547a0.47215 0.47215 0 0 0 0.47266-0.47266v-0.29688a0.23027 0.23027 0 0 0-0.23047-0.23047h-2.5391zm5 0a0.23027 0.23027 0 0 0-0.23047 0.23047v0.53906a0.23027 0.23027 0 0 0 0.23047 0.23047h2.5391a0.23027 0.23027 0 0 0 0.23047-0.23047v-0.22656a0.54269 0.54269 0 0 0-0.54297-0.54297h-2.2266zm5 0a0.23027 0.23027 0 0 0-0.23047 0.23047v0.53906a0.23027 0.23027 0 0 0 0.23047 0.23047h2.2969a0.47215 0.47215 0 0 0 0.47266-0.47266v-0.29688a0.23027 0.23027 0 0 0-0.23047-0.23047h-2.5391zm-9.6875 3a0.54269 0.54269 0 0 0-0.54297 0.54297v0.22656a0.23027 0.23027 0 0 0 0.23047 0.23047h2.5391a0.23027 0.23027 0 0 0 0.23047-0.23047v-0.53906a0.23027 0.23027 0 0 0-0.23047-0.23047h-2.2266zm4.9297 0a0.47215 0.47215 0 0 0-0.47266 0.47266v0.29688a0.23027 0.23027 0 0 0 0.23047 0.23047h2.5391a0.23027 0.23027 0 0 0 0.23047-0.23047v-0.53906a0.23027 0.23027 0 0 0-0.23047-0.23047h-2.2969zm5.0703 0a0.54269 0.54269 0 0 0-0.54297 0.54297v0.22656a0.23027 0.23027 0 0 0 0.23047 0.23047h2.5391a0.23027 0.23027 0 0 0 0.23047-0.23047v-0.53906a0.23027 0.23027 0 0 0-0.23047-0.23047h-2.2266z" style="-inkscape-stroke:none"/><ellipse cx="11.284" cy="3.917" rx=".086" ry=".081"/></g></svg>
