<svg width="16" height="16" version="1.1" viewBox="0 0 16 16" xml:space="preserve" xmlns="http://www.w3.org/2000/svg"><path d="m13.25 0.51953c-0.13807 0-0.25 0.11193-0.25 0.25v5.6465l-1.2227-1.2227c-0.09785-0.09891-0.25762-0.09891-0.35547 0l-0.35156 0.35352c-0.09761 0.09763-0.09761 0.25589 0 0.35352l1.8984 1.9004c0.2931 0.29412 0.7694 0.29412 1.0625 0l1.8984-1.9004c0.09761-0.09763 0.09761-0.25589 0-0.35352l-0.35156-0.35352c-0.09785-0.09891-0.25762-0.09891-0.35547 0l-1.2227 1.2227v-5.6465c0-0.13807-0.11193-0.25-0.25-0.25zm-11.25 0.48047c-0.54636 0-1 0.45364-1 1v1c0 0.54636 0.45364 1 1 1h2.3457c0.085513 0 0.1543-0.068784 0.1543-0.1543v-0.37695c0-0.25887-0.20988-0.46875-0.46875-0.46875h-2.0312v-1h2.7754c0.13014 0 0.22461 0.094466 0.22461 0.22461v1c0 0.15162 0.12377 0.27539 0.27539 0.27539h0.22461c0.27614 0 0.5-0.22386 0.5-0.5v-0.77539c0-0.67058-0.55403-1.2246-1.2246-1.2246zm0 4c-0.54636 0-1 0.45364-1 1v1c0 0.54636 0.45364 1 1 1h3.4785c0.28793 0 0.52148-0.23356 0.52148-0.52148v-0.33789c0-0.077888-0.062738-0.14062-0.14062-0.14062h-3.8594v-1h5.7754c0.13014 0 0.22461 0.094466 0.22461 0.22461v0.77539h-1.0703c-0.23706 0-0.42969 0.19263-0.42969 0.42969v0.4082c0 0.089435 0.072674 0.16211 0.16211 0.16211h1.3633c0.53267 0 0.97461-0.44194 0.97461-0.97461v-0.80078c0-0.67058-0.55403-1.2246-1.2246-1.2246zm0 4c-0.54636 0-1 0.45364-1 1v1c0 0.54636 0.45364 1 1 1h6.8398c0.088916 0 0.16016-0.07124 0.16016-0.16016v-0.14453c0-0.38392-0.31139-0.69531-0.69531-0.69531h-6.3047v-1h8.7754c0.13014 0 0.22461 0.094468 0.22461 0.22461v0.77539h-1.3633c-0.076037 0-0.13672 0.060682-0.13672 0.13672v0.13672c0 0.40155 0.32501 0.72656 0.72656 0.72656h0.77344c0.54636 0 1-0.45364 1-1v-0.77539c0-0.67058-0.55403-1.2246-1.2246-1.2246zm0 4c-0.54636 0-1 0.45364-1 1v1c0 0.54636 0.45364 1 1 1h8.8398c0.088916 0 0.16016-0.07124 0.16016-0.16016v-0.14453c0-0.38392-0.31139-0.69531-0.69531-0.69531h-8.3047v-1h11.775c0.13014 0 0.22461 0.094471 0.22461 0.22461v0.77539h-2.3633c-0.076037 0-0.13672 0.060682-0.13672 0.13672v0.13672c0 0.40155 0.32501 0.72656 0.72656 0.72656h1.7734c0.54636 0 1-0.45364 1-1v-0.77539c0-0.67058-0.55403-1.2246-1.2246-1.2246z" color="#000000" fill="#786d7d" style="-inkscape-stroke:none"/></svg>
