<svg width="16" height="16" version="1.1" xml:space="preserve" xmlns="http://www.w3.org/2000/svg"><path d="m2 1c-1.099 0-2 0.901-2 2v11c0 1.099 0.901 2 2 2h12c1.099 0 2-0.901 2-2v-7.0996c0-0.11046-0.088762-0.20117-0.19922-0.20117h-0.04297c-0.41886-5.537e-4 -0.75837 0.33895-0.75781 0.75781v6.543c0 0.558-0.442 1-1 1h-12c-0.558 0-1-0.442-1-1v-11c0-0.558 0.442-1 1-1h12c0.558 0 1 0.442 1 1v2h-12.865c-0.074558 0-0.13477 0.060207-0.13477 0.13477v0.4707c0 0.218 0.17653 0.39453 0.39453 0.39453h12.605c0.546 0 1-0.454 1-1v-2c0-1.099-0.902-2-2-2h-12zm9.7363 2c-0.13034 0-0.23633 0.10599-0.23633 0.23633v0.53906c0 0.123 0.09961 0.22461 0.22461 0.22461h1.5527c0.123 0 0.22266-0.099656 0.22266-0.22266v-0.55664c5.54e-4 -0.12189-0.098809-0.2207-0.2207-0.2207h-1.543zm-0.4707 0.81836c-0.04546 0.00692-0.07815 0.045818-0.07813 0.091797 0 0.052 0.0408 0.09375 0.0918 0.09375 0.124 0 0.124-0.18555 0-0.18555-0.0043-3.134e-4 -0.0094-3.134e-4 -0.01367 0zm-8.6758 3.1816c-0.32589-3.209e-4 -0.59016 0.26395-0.58984 0.58984v2.0039c2.81e-4 0.22425 0.182 0.40597 0.40625 0.40625h2.0879c0.2796 5.32e-4 0.50639-0.22626 0.50586-0.50586v-1.1582c-2.589e-4 -0.18543-0.15051-0.33568-0.33594-0.33594h-0.66406v1h-1v-1h1v-0.5c5.21e-4 -0.27636-0.22364-0.50052-0.5-0.5h-0.91016zm0.0566 4c-0.35719-3.65e-4 -0.64685 0.28929-0.64648 0.64648v2.0039c-1.106e-4 0.19313 0.15648 0.34972 0.34961 0.34961h2.2988c0.19414-5e-5 0.35151-0.15742 0.35156-0.35156v-1.2129c1.272e-4 -0.2406-0.19495-0.43568-0.43555-0.43555h-0.56445v1h-1v-1h1v-0.30664c-1.876e-4 -0.38285-0.31051-0.69317-0.69336-0.69336h-0.66016z" fill="#786d7d" style="-inkscape-stroke:none"/><path d="m7.5898 7c-0.32589-3.209e-4 -0.59016 0.26395-0.58984 0.58984v2.0039c2.81e-4 0.22425 0.182 0.40597 0.40625 0.40625h2.0879c0.2796 5.32e-4 0.50639-0.22626 0.50586-0.50586v-1.1582c-2.58e-4 -0.18543-0.15051-0.33568-0.33594-0.33594h-0.66406v1h-1v-1h1v-0.5c5.21e-4 -0.27636-0.22364-0.50052-0.5-0.5h-0.91016zm4 0c-0.32589-3.209e-4 -0.59016 0.26395-0.58984 0.58984v2.0039c2.81e-4 0.22425 0.182 0.40597 0.40625 0.40625h2.0879c0.2796 5.32e-4 0.50639-0.22626 0.50586-0.50586v-1.1582c-2.59e-4 -0.18543-0.15051-0.33568-0.33594-0.33594h-0.66406v1h-1v-1h1v-0.5c5.21e-4 -0.27636-0.22364-0.50052-0.5-0.5h-0.91016zm-3.9434 4c-0.35719-3.65e-4 -0.64685 0.28929-0.64648 0.64648v2.0039c-1.106e-4 0.19313 0.15648 0.34972 0.34961 0.34961h2.2988c0.19414-5e-5 0.35151-0.15742 0.35156-0.35156v-1.2129c1.275e-4 -0.2406-0.19495-0.43568-0.43555-0.43555h-0.56445v1h-1v-1h1v-0.30664c-1.876e-4 -0.38285-0.31051-0.69317-0.69336-0.69336h-0.66016z" fill="#786d7d" opacity=".69046" style="-inkscape-stroke:none"/></svg>
