<svg xmlns="http://www.w3.org/2000/svg" xml:space="preserve" width="16" height="16"><g fill="#786d7d"><path d="M2 1C.901 1 0 1.901 0 3v10c0 1.099.901 2 2 2h12c1.099 0 2-.901 2-2V6.7a.2.2 45 0 0-.2-.2h-.043a.757.757 135 0 0-.757.757V13c0 .558-.442 1-1 1H2c-.558 0-1-.442-1-1V3c0-.558.442-1 1-1h12c.558 0 1 .442 1 1v2H2.135A.135.135 135 0 0 2 5.136v.469A.395.395 45 0 0 2.395 6H15c.546 0 1-.454 1-1V3c0-1.099-.902-2-2-2zm9.5 2.236v.54a.225.225 45 0 0 .225.224h1.553a.222.222 135 0 0 .222-.222V3.22a.22.22 45 0 0-.22-.22h-1.544a.236.236 135 0 0-.236.236z" color="#000" style="-inkscape-stroke:none"/><ellipse cx="11.284" cy="3.917" rx=".086" ry=".081"/><path d="M8.5 7v6M6 7.273v5.493a.634.634 45 0 0 .634.634h.07A.297.297 135 0 0 7 13.103V6.786a.186.186 45 0 0-.186-.186h-.14A.673.673 135 0 0 6 7.273z" color="#000" style="-inkscape-stroke:none" transform="matrix(-1 0 0 1 16 0)"/><path d="M10 5v10H2a2 2 0 0 1-2-2V5zM2.8 7.568a.719.719 0 0 0-.509.21v-.003l-.39.39a.529.529 0 0 1 0 .001.79.79 0 0 0 0 1.106.529.529 0 0 1 0 .002l.882.878c.148.149.331.231.504.334-.173.104-.356.186-.504.334l-.906.903a.529.529 0 0 1 0 .002.752.752 0 0 0 0 1.058.529.529 0 0 1 .002.002l.197.196.002.002a1.035 1.035 0 0 0 1.451-.002l.707-.707a.45.45 0 0 1 .668 0l.838.837a.85.85 0 0 0 1.192 0l.052-.052c.44-.44.44-1.17 0-1.61l-.629-.629c-.148-.148-.33-.23-.503-.334.172-.103.355-.185.503-.334a.529.529 0 0 1 .002 0l.795-.798a.907.907 0 0 0 0-1.27l-.24-.24a.825.825 0 0 0-1.154 0l-.856.855a.45.45 0 0 1-.668 0 .529.529 0 0 1 0-.002l-.923-.92a.723.723 0 0 0-.512-.209z" opacity=".2"/></g><path fill="#821313" d="M13.197 8.162a.123.123 0 0 0-.088.037l-.924.922c-.42.42-1.09.42-1.511 0l-.856-.855a.218.218 0 0 0-.31 0l-.24.24a.299.299 0 0 0 0 .426l.796.798c.75.75 1.98.75 2.73 0l.884-.88a.184.184 0 0 0 0-.262l-.391-.389a.127.127 0 0 0-.09-.037zm-1.768 2.52c-.495 0-.99.185-1.365.56l-.629.63a.54.54 0 0 0 0 .765l.053.052c.097.097.25.097.348 0l.838-.837a1.062 1.062 0 0 1 1.511 0l.707.707a.43.43 0 0 0 .61 0l.199-.198a.153.153 0 0 0 0-.215l-.906-.904a1.922 1.922 0 0 0-1.366-.56z" style="-inkscape-stroke:none" transform="matrix(-1 0 0 1 16 0)"/><path fill="#821313" d="m9.664 8.434-.234.234c-.032.032-.032.07 0 .102l.797.798a1.707 1.707 0 0 0 2.406 0l.851-.85-.285-.284-.851.85a1.3 1.3 0 0 1-1.836 0zm1.766 2.476c-.438 0-.873.164-1.203.494l-.63.63a.308.308 0 0 0 0 .44l.053.053c.01.01.014.01.024 0l.838-.837a1.3 1.3 0 0 1 1.836 0l.707.707a.197.197 0 0 0 .285 0 .299.299 0 0 1 0-.002l.142-.143-.85-.848a1.692 1.692 0 0 0-1.202-.494z" style="-inkscape-stroke:none" transform="matrix(-1 0 0 1 16 0)"/></svg>