<svg width="16" height="16" version="1.1" viewBox="0 0 16 16" xml:space="preserve" xmlns="http://www.w3.org/2000/svg"><circle cx="11" cy="13.399" r="2.6164" fill="#786d7d" opacity=".16" stroke-linejoin="round" stroke-width=".964"/><path d="m1.2246 0c-0.67058 0-1.2246 0.55404-1.2246 1.2246v0.77539c0 0.54636 0.45364 1 1 1h1.7734c0.40155 0 0.72656-0.32501 0.72656-0.72656v-0.13672c0-0.076037-0.060679-0.13672-0.13672-0.13672h-2.3633v-0.77539c0-0.13014 0.09447-0.22461 0.22461-0.22461h9.7754v1h-6.3047c-0.38392 0-0.69531 0.31139-0.69531 0.69531v0.14453c0 0.088916 0.071236 0.16016 0.16016 0.16016h6.8398c0.54636 0 1-0.45364 1-1v-1c0-0.54636-0.45364-1-1-1h-9.7754zm12.748 3c-0.53118 0-0.97266 0.44147-0.97266 0.97266v5.4277c0 1.7599 0.0033 2.8855-0.10742 3.6289-0.11068 0.74341-0.28472 1.08-0.73633 1.5078l-0.005859 0.00586-0.003907 0.003906c-0.63735 0.63735-1.6556 0.63735-2.293 0-0.63735-0.63735-0.63735-1.6556 0-2.293 0.59451-0.59451 1.5211-0.63568 2.1602-0.12109 0.07717 0.06214 0.18968 0.064241 0.25977-0.005859l0.054687-0.054687c0.29001-0.29001 0.29225-0.77269-0.066406-0.96875-0.99497-0.54392-2.2754-0.39651-3.1152 0.44336-1.0195 1.0195-1.0195 2.6875 0 3.707 1.0179 1.0179 2.6813 1.0167 3.7012 0.001953 0.57567-0.54788 0.90221-1.2002 1.0332-2.0801 0.13156-0.88331 0.11914-2.0185 0.11914-3.7754v-5.2305c-8.9e-5 -0.093882 0.07604-0.17001 0.16992-0.16992h0.023437c0.32034 0 0.627 0.127 0.85352 0.35352l0.32031 0.32227c0.098599 0.098933 0.25882 0.098933 0.35742 0l0.015625-0.017578c0.28277-0.27576 0.2889-0.72841 0.013672-1.0117-0.41378-0.41378-0.97538-0.64648-1.5605-0.64648h-0.2207zm-12.748 1c-0.67058 0-1.2246 0.55404-1.2246 1.2246v0.77539c0 0.54636 0.45364 1 1 1h0.77344c0.40155 0 0.72656-0.32501 0.72656-0.72656v-0.13672c0-0.076037-0.060679-0.13672-0.13672-0.13672h-1.3633v-0.77539c0-0.13014 0.09447-0.22461 0.22461-0.22461h7.7754v1h-5.3047c-0.38392 0-0.69531 0.31139-0.69531 0.69531v0.14453c0 0.088916 0.071236 0.16016 0.16016 0.16016h5.8398c0.54636 0 1-0.45364 1-1v-1c0-0.54636-0.45364-1-1-1h-7.7754zm0 4c-0.67058 0-1.2246 0.55404-1.2246 1.2246v0.77539c0 0.54636 0.45364 1 1 1h1.7734c0.40155 0 0.72656-0.32501 0.72656-0.72656v-0.13672c0-0.07604-0.060679-0.13672-0.13672-0.13672h-2.3633v-0.77539c0-0.13014 0.09447-0.22461 0.22461-0.22461h6.7754v1h-3.3047c-0.38392 0-0.69531 0.31139-0.69531 0.69531v0.14453c0 0.08892 0.071236 0.16016 0.16016 0.16016h3.8398c0.54636 0 1-0.45364 1-1v-1c0-0.54636-0.45364-1-1-1h-6.7754zm0 4c-0.67058 0-1.2246 0.55404-1.2246 1.2246v0.77539c0 0.54636 0.45364 1 1 1h0.77344c0.40155 0 0.72656-0.32501 0.72656-0.72656v-0.13672c0-0.07604-0.060679-0.13672-0.13672-0.13672h-1.3633v-0.77539c0-0.13014 0.09447-0.22461 0.22461-0.22461h4.7754v1h-2.3047c-0.38392 0-0.69531 0.31139-0.69531 0.69531v0.14453c0 0.08892 0.071236 0.16016 0.16016 0.16016h2.8398c0.54636 0 1-0.45364 1-1v-1c0-0.54636-0.45364-1-1-1h-4.7754z" fill="#786d7d" stroke-linejoin="round" stroke-width=".964"/></svg>
