<?xml version="1.0" encoding="UTF-8" standalone="no"?>
<svg
   version="1.1"
   viewBox="0 0 16 16"
   id="svg3470"
   sodipodi:docname="view-pages-continuous.svg"
   inkscape:version="1.2.2 (b0a8486541, 2022-12-01)"
   xmlns:inkscape="http://www.inkscape.org/namespaces/inkscape"
   xmlns:sodipodi="http://sodipodi.sourceforge.net/DTD/sodipodi-0.dtd"
   xmlns="http://www.w3.org/2000/svg"
   xmlns:svg="http://www.w3.org/2000/svg">
  <sodipodi:namedview
     id="namedview3472"
     pagecolor="#ffffff"
     bordercolor="#000000"
     borderopacity="0.25"
     inkscape:showpageshadow="2"
     inkscape:pageopacity="0.0"
     inkscape:pagecheckerboard="0"
     inkscape:deskcolor="#ffffff"
     showgrid="false"
     showborder="false"
     inkscape:zoom="8"
     inkscape:cx="46"
     inkscape:cy="6.75"
     inkscape:window-width="2560"
     inkscape:window-height="1355"
     inkscape:window-x="0"
     inkscape:window-y="0"
     inkscape:window-maximized="1"
     inkscape:current-layer="svg3470">
    <inkscape:grid
       type="xygrid"
       id="grid3591" />
  </sodipodi:namedview>
  <defs
     id="defs3464">
    <inkscape:path-effect
       effect="fillet_chamfer"
       id="path-effect4206"
       is_visible="true"
       lpeversion="1"
       nodesatellites_param="F,0,0,1,0,0,0,1 @ F,0,0,1,0,0,0,1 @ F,0,0,1,0,0.75,0,1 @ F,0,0,1,0,0.25,0,1 @ F,0,0,1,0,0,0,1 @ F,0,0,1,0,0,0,1 @ F,0,0,1,0,0,0,1 @ F,0,0,1,0,0,0,1 @ F,0,0,1,0,0.75,0,1 @ F,0,1,1,0,0.25,0,1 @ F,0,0,1,0,0,0,1 @ F,0,0,1,0,0,0,1 | F,0,0,1,0,0.25,0,1 @ F,0,0,1,0,0,0,1 @ F,0,0,1,0,0,0,1 @ F,0,0,1,0,0,0,1 @ F,0,0,1,0,0,0,1 @ F,0,0,1,0,0,0,1 @ F,0,0,1,0,0,0,1 @ F,0,0,1,0,0,0,1 @ F,0,0,1,0,0,0,1 @ F,0,0,1,0,0,0,1 @ F,0,0,1,0,0.75,0,1 | F,0,0,1,0,0.33,0,1 @ F,0,0,1,0,0,0,1 @ F,0,0,1,0,0,0,1 @ F,0,0,1,0,0,0,1 @ F,0,0,1,0,0,0,1 @ F,0,0,1,0,0,0,1 @ F,0,0,1,0,0,0,1 @ F,0,0,1,0,0,0,1 @ F,0,0,1,0,0,0,1 @ F,0,0,1,0,0,0,1 @ F,0,0,1,0,0.33,0,1"
       unit="px"
       method="auto"
       mode="F"
       radius="0.25"
       chamfer_steps="1"
       flexible="false"
       use_knot_distance="true"
       apply_no_radius="true"
       apply_with_radius="true"
       only_selected="true"
       hide_knots="false" />
    <style
       type="text/css"
       id="current-color-scheme">
        .ColorScheme-Text {
        color:#232629;
      }</style>
  </defs>
  <path
     id="path248"
     style="color:#000000;display:inline;fill:#786d7d;fill-opacity:1;stroke-linecap:square;-inkscape-stroke:none;paint-order:markers stroke fill"
     d="M 4,9 C 2.9013561,9 2,9.901356 2,11 v 3.25 C 2,14.664214 2.3357864,15 2.75,15 2.8880712,15 3,14.888071 3,14.75 V 11 c 0,-0.558205 0.4417947,-1 1,-1 h 8 c 0.558205,0 1,0.441795 1,1 v 3.25 C 13,14.664214 13.335786,15 13.75,15 13.888071,15 14,14.888071 14,14.75 V 11 C 14,9.901356 13.098644,9 12,9 Z M 2,0.25 V 6 C 2,7.098644 2.901356,8 4,8 H 8.5 C 11.277489,8 13.58053,5.926797 13.947266,3.248047 13.966006,3.111161 13.933369,3 13.65625,3 13.379131,3 12.942883,3.336317 12.830078,3.734375 12.295137,5.622046 10.56252,7 8.5,7 H 4 C 3.441795,7 3,6.558205 3,6 V 0.75 C 3,0.3357864 2.664214,0 2.25,0 2.111929,0 2,0.1119288 2,0.25 Z M 12.946316,0.324085 C 12.811682,0.7173056 12.438854,1 12,1 H 10 C 8.901356,1 8,1.9013561 8,3 V 5.75 C 8,5.888071 8.111929,6 8.25,6 8.664214,6 9,5.664214 9,5.25 V 3 C 9,2.4417946 9.441795,2 10,2 h 2 C 12.992647,2 13.816393,1.2768348 13.973134,0.3286064 14.002831,0.1489544 13.852254,0 13.67,0 h -0.34 c -0.182254,0 -0.324916,0.1524408 -0.383684,0.324085 z"
     sodipodi:nodetypes="ssssssssssssssssssssssssssssssssssssssssss" />
</svg>
