<svg width="16" height="16" version="1.1" viewBox="0 0 16 16" xml:space="preserve" xmlns="http://www.w3.org/2000/svg"><path d="m2.5 1c-1.3807 0-2.5 1.1193-2.5 2.5v9c0 1.3807 1.1193 2.5 2.5 2.5h2.7016c0.46036 0 0.57012-0.26737 0.30129-0.64065-0.083711-0.11624-0.16356-0.23601-0.23922-0.35935h-2.7637c-0.82843 0-1.5-0.67158-1.5-1.5v-9c0-0.82843 0.67157-1.5 1.5-1.5h6.6582c0.19863-6.849e-4 0.36931-0.14115 0.4082-0.33594l0.066406-0.32812c0.034849-0.17381-0.098121-0.33601-0.27539-0.33594zm8 0c-0.27614 0-0.5 0.22386-0.5 0.5s0.22386 0.5 0.5 0.5 0.5-0.22386 0.5-0.5-0.22386-0.5-0.5-0.5zm1.2422 0c-0.14038-2.1649e-4 -0.26138 0.09871-0.28906 0.23633l-0.0918 0.45703c-0.031874 0.15889 0.089901 0.3071 0.25196 0.30664h0.38672c0.55228 0 1 0.44772 1 1v6.1152c0.20689 0.055505 0.40965 0.12299 0.60776 0.20128 0.21994 0.086914 0.39224-0.019987 0.39224-0.25653v-6.06c0-1.1046-0.89543-2-2-2zm-1.3359 5.7715c-0.15391 0.024294-0.29615 0.09678-0.40625 0.20703l-2.3457 2.3594c-0.080234 0.081744-0.21165 0.082619-0.29297 0.00195l-1.3066-1.3008c-0.32051-0.31845-0.83388-0.33131-1.1699-0.029297l-3.2852 2.9531c-0.11691 0.10523-0.12653 0.28526-0.021484 0.40234l0.070312 0.07813c0.22354 0.2503 0.60793 0.27132 0.85742 0.04687l2.7246-2.4512c0.12043-0.10859 0.30467-0.1043 0.41992 0.00977l1.0156 1.0098c0.028118 0.02772 0.057555 0.05398 0.088193 0.07871 0.11338 0.09151 0.31959 0.07444 0.44223-0.0048 0.026363-0.01703 0.052691-0.03386 0.078951-0.05051 0.26466-0.16782 0.55129-0.19998 0.82759-0.14154 0.15662 0.033128 0.3676-0.0034 0.48068-0.11714l1.7972-1.8077c0.06476-0.065712 0.1705-0.066585 0.23633-0.00195l0.86945 0.86208c0.02895 0.028709 0.08548 0.051684 0.12626 0.051832 8e-3 2.89e-5 0.01593 7.75e-5 0.02383 1.508e-4 0.18812 0.00176 0.37387 0.013043 0.55746 0.033714 0.07517 0.00846 0.16475-0.018785 0.20035-0.063011 0.1458-0.18049 0.13146-0.442-0.0332-0.60547l-1.3184-1.3164c-0.16716-0.16637-0.40388-0.24262-0.63672-0.20508z" color="#000000" fill="#786d7d" style="-inkscape-stroke:none"/><g transform="translate(.043301 -.013366)"/><g fill="#786d7d"><path d="m11.527 7.4746-4.1328 2.1602-0.69922-0.94531-2.3984-0.14648-3.2969 2.916v2.541h4.2637c-0.047831-0.077968-0.094175-0.15756-0.13867-0.23828a1.0691 1.0691 0 0 0-0.0019531 0c-0.25733-0.46793-0.25733-1.0418 0-1.5098 0.53897-0.97931 1.3586-1.6665 2.1523-2.1699 0.48002-0.30438 1.0346-0.1645 1.4648 0.15625 0.55546-0.66377 1.3278-1.2102 2.4473-1.2969 0.15258-0.011757 0.30229-0.015034 0.44922-0.013672 0.46877 0.0043808 0.92522 0.069977 1.3633 0.1875v-0.19336l-1.4727-1.4473z" opacity=".16"/><ellipse cx="3.5" cy="4.4897" rx="1.5" ry="1.5243" opacity=".5"/><path d="m11.628 9.9961c-0.11869-0.0011-0.23778 0.0025-0.35742 0.01172-1.3206 0.10218-1.9473 0.7016-2.1543 1.4296-0.2609 0.91776 0.16744 1.9053 1.0234 2.2832 0.71913 0.31745 1.5618 0.24355 2.2207-0.34375 0.36617-0.32641 0.53233-0.74147 0.58789-1.1054 0.0172-0.11266-0.07313-0.20928-0.1875-0.21484l-0.60547-0.0293c-0.08719-0.0042-0.1543-0.0072-0.1543-0.03125 1.03e-4 -0.54475-0.43583-0.98936-0.98047-1 0.09922-0.02276 0.20488-0.03953 0.31835-0.04883 1.4651-0.12002 2.6807 0.85489 3.4785 2.0528-0.81281 1.1853-2.3307 2.0012-3.8301 2-1.4946-0.0012-2.9839-0.8134-3.795-1.9902 0.25586-0.35433 0.56988-0.7036 0.93945-0.99609 0.24036-0.19023 0.33183-0.52736 0.17578-0.79101l-0.08594-0.14648c-0.07686-0.12986-0.24539-0.17275-0.37304-0.0918-0.69657 0.44174-1.371 1.0271-1.7871 1.7832-0.082 0.14911-0.082 0.3294 0 0.47851 0.95133 1.7258 2.9544 2.7483 4.9258 2.75 1.9714 0.0017 3.9973-1.0153 4.9531-2.75 0.082-0.14911 0.082-0.3294 0-0.47851-0.87924-1.5957-2.5321-2.7549-4.3125-2.7715z" color="#000000" stroke-linejoin="round" stroke-width=".99996" style="-inkscape-stroke:none"/></g></svg>
