<?xml version="1.0" encoding="UTF-8" standalone="no"?>
<svg
   viewBox="0 0 16 16"
   version="1.1"
   id="svg6646"
   sodipodi:docname="view-multiple-objects.svg"
   inkscape:version="1.2.2 (b0a8486541, 2022-12-01)"
   xmlns:inkscape="http://www.inkscape.org/namespaces/inkscape"
   xmlns:sodipodi="http://sodipodi.sourceforge.net/DTD/sodipodi-0.dtd"
   xmlns="http://www.w3.org/2000/svg"
   xmlns:svg="http://www.w3.org/2000/svg">
  <sodipodi:namedview
     id="namedview6648"
     pagecolor="#ffffff"
     bordercolor="#000000"
     borderopacity="0.25"
     inkscape:showpageshadow="2"
     inkscape:pageopacity="0.0"
     inkscape:pagecheckerboard="0"
     inkscape:deskcolor="#d1d1d1"
     showgrid="true"
     inkscape:zoom="23.970307"
     inkscape:cx="0.20859141"
     inkscape:cy="1.0846753"
     inkscape:window-width="2560"
     inkscape:window-height="1355"
     inkscape:window-x="0"
     inkscape:window-y="0"
     inkscape:window-maximized="1"
     inkscape:current-layer="svg6646">
    <inkscape:grid
       type="xygrid"
       id="grid6767" />
    <inkscape:grid
       type="xygrid"
       id="grid6769"
       spacingx="0.5"
       spacingy="0.5"
       empcolor="#0099e5"
       empopacity="0.07843137"
       empspacing="1" />
  </sodipodi:namedview>
  <defs
     id="defs3051">
    <inkscape:path-effect
       effect="fillet_chamfer"
       id="path-effect7297"
       is_visible="true"
       lpeversion="1"
       nodesatellites_param="F,0,0,1,0,0,0,1 @ F,0,0,1,0,0,0,1 @ F,0,0,1,0,0,0,1 @ F,0,0,1,0,0,0,1 @ F,0,0,1,0,0,0,1 @ F,0,0,1,0,0,0,1 @ F,0,0,1,0,0,0,1 @ F,0,0,1,0,0,0,1 | F,0,0,1,0,0,0,1 @ F,0,0,1,0,0,0,1 @ F,0,0,1,0,0,0,1 @ F,0,0,1,0,0,0,1 @ F,0,0,1,0,0,0,1 @ F,0,0,1,0,0,0,1 @ F,0,0,1,0,0,0,1 @ F,0,0,1,0,0,0,1 | F,0,0,1,0,0,0,1 @ F,0,0,1,0,0,0,1 @ F,0,0,1,0,0,0,1 @ F,0,0,1,0,0,0,1 @ F,0,0,1,0,0,0,1 @ F,0,0,1,0,0,0,1 @ F,0,0,1,0,0,0,1 @ F,0,0,1,0,0,0,1 | F,0,0,1,0,0,0,1 @ F,0,0,1,0,0,0,1 @ F,0,0,1,0,0,0,1 @ F,0,0,1,0,0,0,1 @ F,0,0,1,0,0,0,1 @ F,0,0,1,0,0,0,1 @ F,0,0,1,0,0,0,1 @ F,0,0,1,0,0,0,1 | F,0,0,1,0,0,0,1 @ F,0,0,1,0,0,0,1 @ F,0,0,1,0,0,0,1 @ F,0,0,1,0,0,0,1 @ F,0,0,1,0,0,0,1 @ F,0,0,1,0,0,0,1 @ F,0,0,1,0,0,0,1 @ F,0,0,1,0,0,0,1 @ F,0,1,1,0,0.33,0,1 @ F,0,1,1,0,0.33,0,1 @ F,0,0,1,0,0,0,1 @ F,0,0,1,0,0,0,1 @ F,0,0,1,0,0,0,1 @ F,0,0,1,0,0,0,1 @ F,0,0,1,0,0,0,1 @ F,0,0,1,0,0,0,1 @ F,0,0,1,0,0,0,1 @ F,0,0,1,0,0,0,1 @ F,0,1,1,0,0.33,0,1 @ F,0,1,1,0,0.33,0,1"
       unit="px"
       method="auto"
       mode="F"
       radius="0.33"
       chamfer_steps="1"
       flexible="false"
       use_knot_distance="true"
       apply_no_radius="true"
       apply_with_radius="true"
       only_selected="true"
       hide_knots="false" />
    <style
       type="text/css"
       id="current-color-scheme">
      .ColorScheme-Text {
        color:#232629;
      }
      </style>
  </defs>
  <path
     id="rect6777"
     style="opacity:0.15;fill:#786d7d"
     d="m 12,3 h 2 v 4 h -2 z" />
  <path
     id="rect6771"
     style="color:#000000;fill:#786d7d;-inkscape-stroke:none"
     d="M 2.5,2 C 1.677651,2 1,2.677651 1,3.5 v 3 C 1,7.322349 1.677651,8 2.5,8 h 6 C 9.322349,8 10,7.322349 10,6.5 v -3 C 10,2.677651 9.322349,2 8.5,2 Z m 10,0 C 11.677651,2 11,2.677651 11,3.5 v 3 C 11,7.322349 11.677651,8 12.5,8 h 1 C 14.322349,8 15,7.322349 15,6.5 v -3 C 15,2.677651 14.322349,2 13.5,2 Z m -10,1 h 6 C 8.7856477,3 9,3.2143523 9,3.5 v 3 C 9,6.7856477 8.7856477,7 8.5,7 h -6 C 2.2143523,7 2,6.7856477 2,6.5 v -3 C 2,3.2143523 2.2143523,3 2.5,3 Z m 10,0 h 1 C 13.785648,3 14,3.2143523 14,3.5 v 3 C 14,6.7856477 13.785648,7 13.5,7 h -1 C 12.214352,7 12,6.7856477 12,6.5 v -3 C 12,3.2143523 12.214352,3 12.5,3 Z M 2.5,9 C 1.677651,9 1,9.677651 1,10.5 v 2 C 1,13.322349 1.677651,14 2.5,14 h 11 c 0.822349,0 1.5,-0.677651 1.5,-1.5 v -2 C 15,9.677651 14.322349,9 13.5,9 H 11.83 A 0.53395122,0.53395122 148.28253 0 0 11.35242,9.295161 L 11.14758,9.704839 A 0.20395122,0.20395122 58.282526 0 0 11.33,10 h 2.17 c 0.285648,0 0.5,0.214352 0.5,0.5 v 2 C 14,12.785648 13.785648,13 13.5,13 H 2.5 C 2.2143523,13 2,12.785648 2,12.5 v -2 C 2,10.214352 2.2143523,10 2.5,10 H 9.17 A 0.53395122,0.53395122 148.28253 0 0 9.6475805,9.704839 L 9.8524195,9.295161 A 0.20395122,0.20395122 58.282526 0 0 9.67,9 Z"
     sodipodi:nodetypes="ssssssssssssssssssssssssssssssssssssssssssssccssssssssccs" />
</svg>
