<svg width="16" height="16" version="1.1" xml:space="preserve" xmlns="http://www.w3.org/2000/svg"><g transform="matrix(1 0 0 -1 0 14)" fill="#786d7d"><path d="m3 13c-1.6569 0-3-1.3431-3-3v-8c0-1.099 0.901-2 2-2h0.40039c0.43796 0 0.81631 0.29238 0.94922 0.68945 0.05532 0.16526 0.19215 0.31055 0.36719 0.31055h1.4688c0.11861 9e-5 0.2473 0.10075 0.21484 0.21484l-0.099609 0.35156c-0.06546 0.23015-0.1943 0.43316-0.43359 0.43359h-1.4668c-0.46573 0-0.86327-0.32993-0.9707-0.76562-0.03125-0.12676-0.13476-0.23438-0.26562-0.23438h-0.16406c-0.558 0-1 0.442-1 1v8c0 1.1046 0.8954 2 2 2h10c1.1046 0 2-0.8954 2-2v-4.7422c0-0.41808 0.33973-0.75781 0.75781-0.75781h0.042969c0.11046 0 0.19922 0.088759 0.19922 0.19922v5.3008c0 1.6569-1.3431 3-3 3h-10zm2.9863-2c-1.098-0.006995-1.9923-0.91396-1.9863-2.0117v-0.0019532c4.697e-4 -0.14267 0.022796-0.27288 0.054688-0.38867 0.044477-0.1615 0.22828-0.22875 0.38086-0.1582l0.48633 0.22461c0.081022 0.037461 0.10992 0.13195 0.089844 0.21875-0.0075545 0.032667-0.011719 0.066283-0.011719 0.10742v0.0039062c-0.0035521 0.55756 0.43491 1.0013 0.99219 1.0059 0.56255-0.0010398 1.0078-0.44694 1.0078-1.0098v-0.0078125c0-0.54882-0.4336-0.98242-0.98242-0.98242h-0.52344c-1.9239 0-3.4941-1.5702-3.4941-3.4941v-0.5332c2e-7 -0.5312 0.44146-0.97266 0.97266-0.97266h6.2148c0.44249 0 0.8125 0.37001 0.8125 0.8125v0.79492c0 1.207-0.63297 2.2719-1.5879 2.873-0.23348 0.14698-0.53153 0.03017-0.64258-0.22266l-0.12891-0.29492c-0.039645-0.090261 8.417e-4 -0.19596 0.087891-0.24219 0.75527-0.40106 1.2715-1.1933 1.2715-2.1133v-0.60742h-6v0.50586c0 1.3835 1.1107 2.4941 2.4941 2.4941h0.52344c1.0893 0 1.9824 0.89316 1.9824 1.9824v0.0078125c-1.2e-6 1.1039-0.90584 2.0098-2.0098 2.0098h-0.0039063zm9.7207-7a0.70746 0.70746 0 0 1-0.70703-0.70703v-1.293c0-0.558-0.442-1-1-1h-0.2168c-0.10113 0-0.1824 0.082359-0.20117 0.18164-0.08726 0.46146-0.49815 0.81836-0.98242 0.81836h-1.4062c-0.27287-8e-5 -0.41831-0.23201-0.49414-0.49414l-0.09961-0.3457c-0.02452-0.084775 0.071912-0.15966 0.16016-0.16016h1.6328c0.11437 0 0.20456-0.093408 0.22852-0.20508 0.09656-0.45001 0.5025-0.79492 0.97852-0.79492h0.40039c1.098 0 2 0.901 2 2v1.7812a0.21944 0.21944 0 0 1-0.21875 0.21875h-0.074219zm-9.3066-3c-0.43352 0-0.80884-0.28487-0.94531-0.67578-0.05973-0.17108-0.20271-0.32422-0.38477-0.32422h-1.459c-0.11654 9e-5 -0.21103-0.094408-0.21094-0.21094v-0.046875c-5.4e-4 -0.41012 0.33207-0.74273 0.74219-0.74219h1.2578c0.45179 0 0.84002 0.31025 0.96094 0.72656 0.04256 0.14652 0.16333 0.27344 0.31641 0.27344h2.6836c0.1315 0 0.236-0.10896 0.26758-0.23633 0.10786-0.43511 0.50539-0.76367 0.9707-0.76367h1.3438c0.36226 4.3e-4 0.65582 0.29399 0.65625 0.65625v0.17773c1.8e-4 0.09177-0.074245 0.1662-0.16602 0.16602h-1.4785c-0.19622 0-0.35082 0.1651-0.41992 0.34766-0.14325 0.37845-0.51102 0.65234-0.93555 0.65234h-3.1992zm-2.7207-1.1484c0.033717-4.79e-4 0.06233-0.03355 0.0625-0.0625 1.72e-4 -0.029297-0.011386-0.07168-0.0625-0.0625-0.03431 0.006162-0.062821 0.027642-0.0625 0.0625 4.89e-4 0.034285 0.028213 0.062818 0.0625 0.0625z" style="-inkscape-stroke:none"/></g></svg>
