<svg width="16" height="16" version="1.1" viewBox="0 0 16 16" xml:space="preserve" xmlns="http://www.w3.org/2000/svg"><path d="m2.5 1c-1.3807 0-2.5 1.1193-2.5 2.5v9c0 1.3807 1.1193 2.5 2.5 2.5h9c1.3807 0 2.5-1.1193 2.5-2.5v-9.5c0-1.1046-0.89543-2-2-2h-0.25781a0.29439 0.29439 0 0 0-0.28906 0.23633l-0.091797 0.45703a0.25624 0.25624 0 0 0 0.25195 0.30664h0.38672c0.55228 0 1 0.44772 1 1v9.5c0 0.82843-0.67157 1.5-1.5 1.5h-9c-0.82843 0-1.5-0.67157-1.5-1.5v-9c0-0.82843 0.67157-1.5 1.5-1.5h6.6582a0.41773 0.41773 0 0 0 0.4082-0.33594l0.066406-0.32812a0.28075 0.28075 0 0 0-0.27539-0.33594h-6.8574zm8 0c-0.27614 0-0.5 0.22386-0.5 0.5s0.22386 0.5 0.5 0.5 0.5-0.22386 0.5-0.5-0.22386-0.5-0.5-0.5zm-0.09375 5.7715a0.7364 0.7364 0 0 0-0.40625 0.20703l-2.3457 2.3594a0.20661 0.20661 0 0 1-0.29297 0.0019532l-1.3066-1.3008a0.85193 0.85193 0 0 0-1.1699-0.029297l-3.2852 2.9531a0.28513 0.28513 0 0 0-0.021484 0.40234l0.070312 0.078125a0.6061 0.6061 0 0 0 0.85742 0.046875l2.7246-2.4512a0.30582 0.30582 0 0 1 0.41992 0.0097656l1.0156 1.0098a1.1933 1.1933 0 0 0 1.6875-0.003906l2.0273-2.0391a0.16727 0.16727 0 0 1 0.23633-0.0019531l1.1816 1.1738a0.25508 0.25508 0 0 0 0.37695-0.019531l0.21875-0.26953a0.4525 0.4525 0 0 0-0.033203-0.60547l-1.3184-1.3164a0.7364 0.7364 0 0 0-0.63672-0.20508z" color="#000000" fill="#786d7d" style="-inkscape-stroke:none"/><g transform="translate(.043301 -.013366)"/><path d="m1 11.459 3.2971-2.9167 2.3979 0.14762 0.70028 0.94503 4.1319-2.1603 1.4729 1.4481-1.8e-5 5.0775h-12z" fill="#786d7d" opacity=".16"/><ellipse cx="3.5" cy="4.4897" rx="1.5" ry="1.5243" fill="#786d7d" opacity=".5"/></svg>
