<svg width="16" height="16" version="1.1" xml:space="preserve" xmlns="http://www.w3.org/2000/svg"><path d="m7.999 3c-1.583-4.08e-5 -2.9762 1.0696-3.3867 2.6016-0.41048 1.532 0.26125 3.1543 1.6348 3.9473 1.3735 0.793 3.1149 0.56288 4.2363-0.55859 0.73195-0.73195 1.0839-1.7255 1.0195-2.7109-0.02865-0.43878-0.49882-0.78023-0.93945-0.77539l-0.12109 0.00195c-0.07753 8.507e-4 -0.11496 0.058209-0.08789 0.13086 0.338 0.90733 0.12599 1.9424-0.57813 2.6465-0.80485 0.80485-2.0436 0.96951-3.0293 0.40039-0.98574-0.56911-1.4626-1.7248-1.168-2.8242 0.29459-1.0994 1.2859-1.8594 2.4199-1.8594 2.7299-0.00236 5.4384 1.401 6.9219 3.6777 0.03258 0.05001 0.07616 0.18451 0.07617 0.32227 8e-6 0.13775-0.04363 0.27232-0.07617 0.32227-1.4834 2.2768-4.1923 3.6801-6.9258 3.6777-2.7328-0.0024-5.4385-1.4096-6.918-3.6777-0.032558-0.049912-0.074435-0.18551-0.074219-0.32227 2.17e-4 -0.13675 0.042409-0.26868 0.074219-0.31641 0.64616-0.96923 1.5609-1.7887 2.5645-2.4062 0.32999-0.20306 0.55318-0.65545 0.45117-1.0293-0.012213-0.044757-0.025132-0.089052-0.039062-0.13672-0.027944-0.095616-0.12612-0.139-0.21484-0.09375-1.3883 0.70802-2.6935 1.7609-3.5938 3.1113-0.17988 0.26982-0.24172 0.57319-0.24219 0.87109-4.71e-4 0.2979 0.060319 0.59737 0.23633 0.86719 1.6788 2.5737 4.6834 4.1302 7.7559 4.1328 3.0734 0.0027 6.081-1.5502 7.7637-4.1328 0.17581-0.26984 0.2383-0.56981 0.23828-0.86719-1.7e-5 -0.29738-0.06247-0.59736-0.23828-0.86719-1.6827-2.5826-4.6896-4.1355-7.7598-4.1328zm-0.0152 1.3832c-1.2052-0.0011131-2.1831 0.97521-2.1838 2.1804-0.0011146 1.2065 0.97726 2.1849 2.1838 2.1838 1.2052-7.414e-4 2.1816-0.97857 2.1804-2.1838-0.001453-0.48078-0.16167-0.94762-0.45576-1.328 0.11068 0.18649 0.16849 0.39959 0.16722 0.61644-3.797e-4 0.65901-0.53452 1.1932-1.1935 1.1935-0.65901-3.797e-4 -1.1932-0.53452-1.1935-1.1935-0.0014295-0.66029 0.53324-1.1964 1.1935-1.1968 0.22798 7.48e-4 0.45099 0.066739 0.64267 0.19018-0.38305-0.29919-0.85504-0.4619-1.3411-0.46233z" color="#000000" fill="#786d7d" stroke-linejoin="round" style="-inkscape-stroke:none"/></svg>
