<svg width="16" height="16" version="1.1" xml:space="preserve" xmlns="http://www.w3.org/2000/svg"><g transform="translate(0,2)" fill="#786d7d"><path d="m4.1422-2c-0.41012-5.389e-4 -0.74273 0.33207-0.74219 0.74219v0.046875c-8.96e-5 0.11653 0.094403 0.21103 0.21094 0.21094h1.459c0.18206 0 0.32504 0.15314 0.38477 0.32422 0.13647 0.39091 0.51179 0.67578 0.94531 0.67578h3.2c0.42453 0 0.7923-0.27389 0.93555-0.65234 0.069101-0.18256 0.2237-0.34766 0.41992-0.34766h1.4785c0.09177 1.8715e-4 0.1662-0.07425 0.16602-0.16602v-0.17773c-4.32e-4 -0.36226-0.29399-0.65582-0.65625-0.65625h-1.3438c-0.46531 0-0.86284 0.32856-0.9707 0.76367-0.031574 0.12737-0.13608 0.23633-0.26758 0.23633h-2.6844c-0.15308 0-0.27385-0.12692-0.31641-0.27344-0.12092-0.41631-0.50915-0.72656-0.96094-0.72656zm-0.4618 0.72656c0.051114-0.00918 0.061586 0.033579 0.061414 0.062876-1.703e-4 0.02895-0.027697 0.060935-0.061414 0.061414-0.034287 3.175e-4 -0.062387-0.027129-0.062876-0.061414-3.207e-4 -0.034858 0.028566-0.056714 0.062876-0.062876zm-1.6804 0.27344c-1.099 0-2 0.901-2 2v10c0 1.6569 1.3431 3 3 3h10c1.6569 0 3-1.3431 3-3v-6.3008c0-0.11046-0.088762-0.19922-0.19922-0.19922h-0.04297c-0.41808 0-0.75781 0.33973-0.75781 0.75781v5.7422c0 1.1046-0.89543 2-2 2h-10c-1.1046 0-2-0.89543-2-2v-10c0-0.558 0.442-1 1-1h0.16367c0.13087 0 0.23437 0.10762 0.26562 0.23438 0.10743 0.4357 0.50497 0.76562 0.9707 0.76562h1.4664c0.23929-4.329e-4 0.36813-0.20344 0.43359-0.43359l0.1-0.35156c0.032453-0.11409-0.096226-0.21475-0.21484-0.21484h-1.4688c-0.17504 0-0.31187-0.14529-0.36719-0.31055-0.13291-0.39707-0.51126-0.68945-0.94922-0.68945h-0.4zm11.6 0c-0.47602 0-0.88196 0.34491-0.97852 0.79492-0.023959 0.11167-0.11415 0.20508-0.22852 0.20508h-1.6328c-0.088245 4.9744e-4 -0.18468 0.075385-0.16016 0.16016l0.1 0.3457c0.075824 0.26213 0.22127 0.49406 0.49414 0.49414h1.4059c0.48427 0 0.89516-0.3569 0.98242-0.81836 0.018774-0.099282 0.10004-0.18164 0.20117-0.18164h0.21641c0.558 0 1 0.442 1 1v2h-12.865c-0.074951-2.1e-6 -0.13533 0.06177-0.13477 0.13672v0.46875c0 0.21815 0.17638 0.39453 0.39453 0.39453h12.605c0.546 0 1-0.454 1-1v-2c0-1.099-0.902-2-2-2h-0.4z" style="-inkscape-stroke:none"/></g><path d="m2.3086 7c-0.17106 0-0.30859 0.13753-0.30859 0.30859v0.38281c0 0.17106 0.13753 0.30859 0.30859 0.30859h2.3828c0.17106 0 0.30859-0.13753 0.30859-0.30859v-0.38281c0-0.17106-0.13753-0.30859-0.30859-0.30859h-2.3828zm4 0c-0.17106 0-0.30859 0.13753-0.30859 0.30859v0.38281c0 0.17106 0.13753 0.30859 0.30859 0.30859h1.3828c0.17106 0 0.30859-0.13753 0.30859-0.30859v-0.38281c0-0.17106-0.13753-0.30859-0.30859-0.30859h-1.3828zm3 0c-0.17106 0-0.30859 0.13753-0.30859 0.30859v0.38281c0 0.17106 0.13753 0.30859 0.30859 0.30859h1.3828c0.17106 0 0.30859-0.13753 0.30859-0.30859v-0.38281c0-0.17106-0.13753-0.30859-0.30859-0.30859h-1.3828zm3 0c-0.17106 0-0.30859 0.13753-0.30859 0.30859v0.38281c0 0.17106 0.13753 0.30859 0.30859 0.30859h1.3828c0.17106 0 0.30859-0.13753 0.30859-0.30859v-0.38281c0-0.17106-0.13753-0.30859-0.30859-0.30859h-1.3828zm-10 3c-0.17106 0-0.30859 0.13753-0.30859 0.30859v0.38281c0 0.17106 0.13753 0.30859 0.30859 0.30859h2.3828c0.17106 0 0.30859-0.13753 0.30859-0.30859v-0.38281c0-0.17106-0.13753-0.30859-0.30859-0.30859h-2.3828zm4 0c-0.17106 0-0.30859 0.13753-0.30859 0.30859v0.38281c0 0.17106 0.13753 0.30859 0.30859 0.30859h1.3828c0.17106 0 0.30859-0.13753 0.30859-0.30859v-0.38281c0-0.17106-0.13753-0.30859-0.30859-0.30859h-1.3828zm3 0c-0.17106 0-0.30859 0.13753-0.30859 0.30859v0.38281c0 0.17106 0.13753 0.30859 0.30859 0.30859h1.3828c0.17106 0 0.30859-0.13753 0.30859-0.30859v-0.38281c0-0.17106-0.13753-0.30859-0.30859-0.30859h-1.3828zm3 0c-0.17106 0-0.30859 0.13753-0.30859 0.30859v0.38281c0 0.17106 0.13753 0.30859 0.30859 0.30859h1.3828c0.17106 0 0.30859-0.13753 0.30859-0.30859v-0.38281c0-0.17106-0.13753-0.30859-0.30859-0.30859h-1.3828zm-10 3c-0.17106 0-0.30859 0.13753-0.30859 0.30859v0.082031c0 0.34708 0.32484 0.60938 0.60938 0.60938h2.082c0.17106 0 0.30859-0.13753 0.30859-0.30859v-0.38281c0-0.17106-0.13753-0.30859-0.30859-0.30859h-2.3828zm4 0c-0.17106 0-0.30859 0.13753-0.30859 0.30859v0.38281c0 0.17106 0.13753 0.30859 0.30859 0.30859h1.3828c0.17106 0 0.30859-0.13753 0.30859-0.30859v-0.38281c0-0.17106-0.13753-0.30859-0.30859-0.30859h-1.3828zm3 0c-0.17106 0-0.30859 0.13753-0.30859 0.30859v0.38281c0 0.17106 0.13753 0.30859 0.30859 0.30859h1.3828c0.17106 0 0.30859-0.13753 0.30859-0.30859v-0.38281c0-0.17106-0.13753-0.30859-0.30859-0.30859h-1.3828zm3 0c-0.17106 0-0.30859 0.13753-0.30859 0.30859v0.38281c0 0.17106 0.13753 0.30859 0.30859 0.30859h1.082c0.25486 0 0.60938-0.32678 0.60938-0.60938v-0.082031c0-0.17106-0.13753-0.30859-0.30859-0.30859h-1.3828z" fill="#786d7d" opacity=".5"/></svg>
