<svg width="16" height="16" version="1.1" viewBox="0 0 16 16" xmlns="http://www.w3.org/2000/svg">
 <path d="m12.5 3c-0.8225 0-1.5 0.6775-1.5 1.5v9.4199l-0.080078 0.080078h-2.4199c-0.83435 0-1.5-0.66565-1.5-1.5v-5c0-0.28206 0.21794-0.5 0.5-0.5h1c0.28206 0 0.5 0.21794 0.5 0.5v5.0332c0 0.27133 0.11714 0.55851 0.37305 0.65234l0.2168 0.08008c0.14229 0.05217 0.30172-0.02088 0.33789-0.16797 0.047161-0.19177 0.072266-0.3927 0.072266-0.59766v-5c0-0.8225-0.6775-1.5-1.5-1.5h-1c-0.8225 0-1.5 0.6775-1.5 1.5v5c0 1.3748 1.1252 2.5 2.5 2.5h2.5c0.54636 0 1-0.45364 1-1v-9.5c0-0.28206 0.21794-0.5 0.5-0.5h1c0.28206 0 0.5 0.21794 0.5 0.5v9.5h-0.76953c-0.38605-4.3e-4 -0.73919 0.21735-0.91211 0.5625l-0.05664 0.11523c-0.07404 0.14808 0.03366 0.3223 0.19922 0.32227h1.5391c0.54636 0 1-0.45364 1-1v-9.5c0-0.8225-0.6775-1.5-1.5-1.5zm-10 6c-0.8225 0-1.5 0.6775-1.5 1.5v2.5c0 1.0956 0.88633 2 2 2h2.9688c0.11216-4e-5 0.20308-0.09095 0.20312-0.20312v-0.125c0-0.37107-0.30081-0.67188-0.67188-0.67188h-2.5c-0.65392 0-1-0.40148-1-1v-2.5c0-0.28206 0.21794-0.5 0.5-0.5h1c0.28206 0 0.5 0.21794 0.5 0.5v2.3379c3e-5 0.36566 0.29645 0.66208 0.66211 0.66211h0.070312c0.14785 1.7e-4 0.26775-0.11973 0.26758-0.26758v-2.7324c0-0.8225-0.6775-1.5-1.5-1.5zm7.2227 4.084c0.021404 0.0066 0.034265 0.03592 0.025391 0.06055-0.00586 0.01619-0.047993 0.03479-0.0625 0.02539-0.014798-0.0096-0.033672-0.03055-0.023437-0.04687 0.01254-0.02002 0.025499-0.03201 0.037109-0.03711 0.00871-0.0038 0.016303-0.0042 0.023437-2e-3zm-3.209 1.7383c-0.00329 3.8e-4 -0.00655 1e-3 -0.00977 2e-3 -0.00329 3.8e-4 -0.00655 1e-3 -0.00977 2e-3 -0.00201 0.0012-0.00396 0.0025-0.00586 0.0039-0.00333 1e-3 -0.0066 0.0023-0.00977 0.0039-0.00277 0.0024-0.00538 5e-3 -0.00781 0.0078-6.612e-4 6.37e-4 -0.00131 0.0013-0.00195 2e-3 -0.00204 0.0018-4e-3 0.0038-0.00586 0.0059-0.00138 0.0019-0.00268 0.0038-0.00391 0.0059-0.00149 0.0032-0.00279 0.0064-0.00391 0.0098-0.00535 0.01206-0.00803 0.02549-0.00781 0.03906 6.716e-4 0.0438 0.030855 0.07916 0.068359 0.08008 0.038266 3.13e-4 0.06962-0.0354 0.070312-0.08008 5.198e-4 -0.0413-0.025488-0.07654-0.060547-0.08203-0.00325-2.66e-4 -0.00651-2.66e-4 -0.00977 0-6.51e-4 -1.1e-5 -0.0013-1.1e-5 -0.00195 0z" fill="#786d7d" style="-inkscape-stroke:none"/>
</svg>
