<?xml version="1.0" encoding="UTF-8"?>
<svg width="16" height="16" version="1.1" xml:space="preserve" xmlns="http://www.w3.org/2000/svg"><path d="m2 1c-1.108 0-2 0.892-2 2v10c0 1.108 0.892 2 2 2h12c1.108 0 2-0.892 2-2v-10c0-1.108-0.892-2-2-2h-12zm1.1152 6h9.7695c0.61771 0 1.1152 0.49753 1.1152 1.1152v3.7695c0 0.61771-0.49753 1.1152-1.1152 1.1152h-9.7695c-0.61771 0-1.1152-0.49753-1.1152-1.1152v-3.7695c0-0.61771 0.49753-1.1152 1.1152-1.1152z" fill="#786d7d" opacity=".08" stroke-linejoin="round"/><path d="m2 1c-1.099 0-2 0.901-2 2v10c0 1.099 0.901 2 2 2h12c1.099 0 2-0.901 2-2v-6.0996a0.2 0.2 0 0 0-0.19922-0.20117h-0.042969a0.757 0.757 0 0 0-0.75781 0.75781v5.543c0 0.558-0.442 1-1 1h-12c-0.558 0-1-0.442-1-1v-10c0-0.558 0.442-1 1-1h12c0.558 0 1 0.442 1 1v2h-12.865a0.135 0.135 0 0 0-0.13477 0.13477v0.4707c0 0.218 0.17653 0.39453 0.39453 0.39453h12.605c0.546 0 1-0.454 1-1v-2c0-1.099-0.902-2-2-2h-12zm9.7363 2a0.236 0.236 0 0 0-0.23633 0.23633v0.53906c0 0.123 0.09961 0.22461 0.22461 0.22461h1.5527c0.123 0 0.22266-0.099656 0.22266-0.22266v-0.55664a0.22 0.22 0 0 0-0.2207-0.2207h-1.543zm-0.4707 0.81836a0.093 0.093 0 0 0-0.078125 0.091797c0 0.052 0.040797 0.09375 0.091797 0.09375a0.093 0.093 0 0 0 0-0.18555 0.09 0.09 0 0 0-0.013672 0zm-8.8125 3.1816a0.45296 0.45296 0 0 0-0.45312 0.45312v1.2754a0.27158 0.27158 0 0 0 0.27148 0.27148h0.47461a0.25453 0.25453 0 0 0 0.25391-0.25391v-0.74609h0.76367a0.31728 0.31728 0 0 0 0.30469-0.22656l0.1582-0.5293a0.18937 0.18937 0 0 0-0.18164-0.24414h-1.5918zm9.877 0a0.44372 0.44372 0 0 0-0.42578 0.31641l-0.091797 0.31055a0.2897 0.2897 0 0 0 0.27734 0.37305h0.91016v0.83594a0.165 0.165 0 0 0 0.16406 0.16406h0.42188a0.41322 0.41322 0 0 0 0.41406-0.41406v-1.2598a0.32561 0.32561 0 0 0-0.32617-0.32617h-1.3438zm0.89062 4a0.22042 0.22042 0 0 0-0.2207 0.2207v0.66211a0.11775 0.11775 0 0 1-0.11719 0.11719h-0.56641a0.31638 0.31638 0 0 0-0.31641 0.31641v0.35352a0.33044 0.33044 0 0 0 0.33008 0.33008h1.3066a0.36298 0.36298 0 0 0 0.36328-0.36328v-1.1348a0.50257 0.50257 0 0 0-0.50195-0.50195h-0.27734zm-11.008 0.042969a0.17739 0.17739 0 0 0-0.21289 0.17383v1.5664a0.21638 0.21638 0 0 0 0.2168 0.2168h1.5664a0.16099 0.16099 0 0 0 0.1543-0.20703l-0.17578-0.58594a0.29082 0.29082 0 0 0-0.27734-0.20703h-0.26758a0.21638 0.21638 0 0 1-0.2168-0.2168v-0.36719a0.26394 0.26394 0 0 0-0.21289-0.25781l-0.57422-0.11523z" fill="#786d7d" fill-opacity=".91373" style="-inkscape-stroke:none"/></svg>
