<?xml version="1.0" encoding="UTF-8"?>
<svg width="16" height="16" version="1.1" xml:space="preserve" xmlns="http://www.w3.org/2000/svg"><path d="m2 1c-1.099 0-2 0.901-2 2v11c0 1.099 0.901 2 2 2h12c1.099 0 2-0.901 2-2v-7.1c0-0.11046-0.089543-0.2-0.2-0.2h-0.042c-0.41886-5.537e-4 -0.75855 0.33914-0.758 0.758v6.542c0 0.558-0.442 1-1 1h-12c-0.558 0-1-0.442-1-1v-11c0-0.558 0.442-1 1-1h12c0.558 0 1 0.442 1 1v2h-12.865c-0.074558 0-0.135 0.060442-0.135 0.135v0.47c0 0.218 0.177 0.395 0.395 0.395h12.605c0.546 0 1-0.454 1-1v-2c0-1.099-0.902-2-2-2zm9.736 2c-0.13034 0-0.236 0.10566-0.236 0.236v0.54c0 0.123 0.1 0.224 0.225 0.224h1.552c0.123 0 0.223-0.1 0.223-0.223v-0.556c5.54e-4 -0.12189-0.098106-0.221-0.22-0.221zm-0.47 0.818c-0.04546 0.00692-0.07903 0.046021-0.079 0.092 0 0.052 0.041 0.094 0.092 0.094 0.124 0 0.124-0.186 0-0.186-0.0043-3.134e-4 -0.0087-3.134e-4 -0.013 0z" color="#000000" fill="#786d7d" style="-inkscape-stroke:none"/><path d="m2 7.5893v2.004a0.40676 0.40676 45 0 0 0.40676 0.40676h2.0883a0.5049 0.5049 135 0 0 0.5049-0.5049v-1.1587a0.33641 0.33641 45 0 0-0.33641-0.33641h-0.66359v1h-1v-1h1v-0.50094a0.49906 0.49906 45 0 0-0.49906-0.49906h-0.91168a0.58926 0.58926 135 0 0-0.58926 0.58926zm4-0.27477v0.29904a0.38647 0.38647 45 0 0 0.38647 0.38647h6.3714a0.24218 0.24218 135 0 0 0.24218-0.24218v-0.14492a0.6129 0.6129 45 0 0-0.6129-0.6129h-6.0726a0.31449 0.31449 135 0 0-0.31449 0.31449zm0 2.0585v0.23668a0.39033 0.39033 45 0 0 0.39033 0.39033h3.4149a0.19472 0.19472 135 0 0 0.19472-0.19472v-0.46769a0.33759 0.33759 45 0 0-0.33759-0.33759h-3.2894a0.37299 0.37299 135 0 0-0.37299 0.37299zm-4 2.2728v2.0048a0.34941 0.34941 45 0 0 0.34941 0.34941h2.2989a0.35165 0.35165 135 0 0 0.35165-0.35165v-1.213a0.43532 0.43532 45 0 0-0.43532-0.43532h-0.56468v1h-1v-1h1v-0.3063a0.6937 0.6937 45 0 0-0.6937-0.6937h-0.66048a0.64582 0.64582 135 0 0-0.64582 0.64582zm4 0.0983v0.07517a0.18072 0.18072 45 0 0 0.18072 0.18071h6.1976a0.62171 0.62171 135 0 0 0.62171-0.62171v-0.18252a0.19577 0.19577 45 0 0-0.19577-0.19577h-6.0601a0.74411 0.74411 135 0 0-0.74411 0.74411zm0 1.5307v0.11029a0.61494 0.61494 45 0 0 0.61494 0.61494h3.1407a0.24436 0.24436 135 0 0 0.24436-0.24436v-0.25482a0.50082 0.50082 45 0 0-0.50082-0.50082h-3.2244a0.27477 0.27477 135 0 0-0.27477 0.27477z" fill="#786d7d" stroke-linejoin="round"/></svg>
