<?xml version="1.0" encoding="UTF-8" standalone="no"?>
<svg
   viewBox="0 0 16 16"
   version="1.1"
   id="svg6"
   sodipodi:docname="view-readermode.svg"
   inkscape:version="1.2.2 (b0a8486541, 2022-12-01)"
   xmlns:inkscape="http://www.inkscape.org/namespaces/inkscape"
   xmlns:sodipodi="http://sodipodi.sourceforge.net/DTD/sodipodi-0.dtd"
   xmlns="http://www.w3.org/2000/svg"
   xmlns:svg="http://www.w3.org/2000/svg">
  <sodipodi:namedview
     id="namedview8"
     pagecolor="#ffffff"
     bordercolor="#000000"
     borderopacity="0.25"
     inkscape:showpageshadow="2"
     inkscape:pageopacity="0.0"
     inkscape:pagecheckerboard="0"
     inkscape:deskcolor="#d1d1d1"
     showgrid="true"
     inkscape:zoom="46.536465"
     inkscape:cx="9.6268593"
     inkscape:cy="5.4580854"
     inkscape:window-width="2560"
     inkscape:window-height="1355"
     inkscape:window-x="0"
     inkscape:window-y="0"
     inkscape:window-maximized="1"
     inkscape:current-layer="svg6">
    <inkscape:grid
       type="xygrid"
       id="grid1362" />
    <inkscape:grid
       type="xygrid"
       id="grid1364"
       spacingx="0.5"
       spacingy="0.5"
       empspacing="1"
       empcolor="#0099e5"
       empopacity="0.07058824" />
  </sodipodi:namedview>
  <defs
     id="defs3051">
    <inkscape:path-effect
       effect="fillet_chamfer"
       id="path-effect1370"
       is_visible="true"
       lpeversion="1"
       nodesatellites_param="F,0,0,1,0,0,0,1 @ F,0,0,1,0,0,0,1 @ F,0,0,1,0,0,0,1 @ F,0,0,1,0,0,0,1 @ F,0,0,1,0,0,0,1 @ F,0,0,1,0,0,0,1 @ F,0,0,1,0,0,0,1 @ F,0,0,1,0,0,0,1 @ F,0,0,1,0,0,0,1 @ F,0,0,1,0,0,0,1 @ F,0,0,1,0,0,0,1 @ F,0,0,1,0,0,0,1 @ F,0,0,1,0,0,0,1 @ F,0,0,1,0,0,0,1 @ F,0,0,1,0,0,0,1 @ F,0,0,1,0,0,0,1 @ F,0,0,1,0,0,0,1 @ F,0,0,1,0,0,0,1 @ F,0,0,1,0,0,0,1 @ F,0,0,1,0,0,0,1 @ F,0,0,1,0,0,0,1 @ F,0,0,1,0,0,0,1 @ F,0,0,1,0,0.75,0,1 @ F,0,1,1,0,0.25,0,1 @ F,0,0,1,0,0,0,1 @ F,0,0,1,0,0,0,1 @ F,0,0,1,0,0,0,1 @ F,0,0,1,0,0,0,1 @ F,0,0,1,0,0,0,1 @ F,0,0,1,0,0,0,1 @ F,0,0,1,0,0,0,1 @ F,0,0,1,0,0,0,1 @ F,0,0,1,0,0,0,1 @ F,0,0,1,0,0,0,1 @ F,0,0,1,0,0,0,1 @ F,0,0,1,0,0,0,1 @ F,0,0,1,0,0,0,1 @ F,0,0,1,0,0,0,1 @ F,0,0,1,0,0,0,1 @ F,0,0,1,0,0,0,1 @ F,0,0,1,0,0,0,1 @ F,0,0,1,0,0.75,0,1 @ F,0,1,1,0,0.25,0,1"
       unit="px"
       method="auto"
       mode="F"
       radius="0.25"
       chamfer_steps="1"
       flexible="false"
       use_knot_distance="true"
       apply_no_radius="true"
       apply_with_radius="true"
       only_selected="true"
       hide_knots="false" />
    <style
       type="text/css"
       id="current-color-scheme">
      .ColorScheme-Text {
        color:#232629;
      }
      </style>
    <inkscape:path-effect
       effect="fillet_chamfer"
       id="path-effect1453"
       is_visible="true"
       lpeversion="1"
       nodesatellites_param="F,0,0,1,0,0,0,1 @ F,0,1,1,0,3,0,1 @ F,0,0,1,0,0.5,0,1 @ F,0,0,1,0,0.5,0,1 @ F,0,1,1,0,3,0,1 @ F,0,0,1,0,0.5,0,1 @ F,0,0,1,0,0.5,0,1 @ F,0,1,1,0,3,0,1 @ F,0,0,1,0,0.5,0,1 @ F,0,0,1,0,0.5,0,1 @ F,0,1,1,0,3,0,1 @ F,0,0,1,0,0.5,0,1 @ F,0,0,1,0,0,0,1"
       unit="px"
       method="auto"
       mode="F"
       radius="3"
       chamfer_steps="1"
       flexible="false"
       use_knot_distance="true"
       apply_no_radius="true"
       apply_with_radius="true"
       only_selected="true"
       hide_knots="false"
       satellites_param="F,0,0,1,0,0,0,1 @ F,0,1,1,0,3,0,1 @ F,0,0,1,0,0.5,0,1 @ F,0,0,1,0,0.5,0,1 @ F,0,1,1,0,3,0,1 @ F,0,0,1,0,0.5,0,1 @ F,0,0,1,0,0.5,0,1 @ F,0,1,1,0,3,0,1 @ F,0,0,1,0,0.5,0,1 @ F,0,0,1,0,0.5,0,1 @ F,0,1,1,0,3,0,1 @ F,0,0,1,0,0.5,0,1 @ F,0,0,1,0,0,0,1" />
  </defs>
  <path
     style="color:#000000;fill:#786d7d;stroke-linecap:square;-inkscape-stroke:none"
     d="M 3.9960938,1.7636719 C 3.1589937,1.8711725 2.3522351,2.2159461 1.6816406,2.7832031 l 0.044922,-0.035156 -0.087891,0.058594 C 1.2401503,3.0723216 1,3.5210367 1,4 v 9 c 0,0.585224 0.7064239,0.963296 1.1933594,0.638672 l 0.087891,-0.05859 c 1.3447807,-0.89652 3.0927194,-0.89652 4.4375,0 l 0.087891,0.05859 C 7.1600056,13.874249 7.5753082,14 8,14 8.4246918,14 8.8399944,13.874249 9.1933594,13.638672 l 0.087891,-0.05859 c 1.3447806,-0.89652 3.0927186,-0.89652 4.4374996,0 l 0.08789,0.05859 C 14.293576,13.963296 15,13.585224 15,13 V 4 C 15,3.5210367 14.75985,3.0723217 14.361328,2.8066406 l -0.08789,-0.058594 c -1.678312,-1.118874 -3.868564,-1.118874 -5.5468755,0 l -0.087891,0.058594 C 8.2401503,3.0723217 8,3.5210367 8,4 V 9.25 A 0.75,0.75 45 0 0 8.75,10 0.25,0.25 135 0 0 9,9.75 V 4 C 9,3.8542193 9.0720625,3.7195365 9.1933594,3.6386719 L 9.28125,3.5800781 c 1.344781,-0.8965204 3.092719,-0.8965204 4.4375,0 l 0.08789,0.058594 C 13.927938,3.7195365 14,3.8542193 14,4 v 8.666016 c -1.64124,-0.958966 -3.677795,-0.98173 -5.2734375,0.08203 l -0.087891,0.05859 C 8.4494986,12.932756 8.2273579,13 8,13 7.7726421,13 7.5505014,12.932756 7.3613281,12.806641 l -0.087891,-0.05859 C 5.6777955,11.684286 3.6412405,11.70705 2,12.666016 V 4 C 2,3.8542193 2.0720625,3.7195365 2.1933594,3.6386719 l 0.1113281,-0.074219 0.021484,-0.019531 C 3.4051751,2.8034257 4.5570336,2.4996437 5.8326969,2.9667127 6.2212216,3.1089664 6.6566188,2.9802898 6.8353622,2.6066272 l 1.16e-4,-2.425e-4 C 6.8950594,2.4818305 6.8465811,2.3244066 6.7231285,2.2626181 5.8380282,1.8196221 4.8315356,1.6877591 3.9960938,1.7636719 Z"
     id="path1451"
     sodipodi:nodetypes="cccsssccccscsssssssssccccssssscccscccssccccc" />
</svg>
