<svg width="16" height="16" version="1.1" viewBox="0 0 16 16" xmlns="http://www.w3.org/2000/svg">
 <path d="m5.2199 1.627c-0.41408-0.0067559-0.80859 0.2539-0.94531 0.66406l-1.7388 4.3691a0.18473 0.18473 65.068 0 0 0.11322 0.24357l0.21285 0.070951a0.61498 0.61498 155.08 0 0 0.76576-0.35576l1.5884-3.986 2.1824 0.69141c0.39475 0.13131 0.82221 0.1318 1.2168 0l2.2684-0.69141 1.3914 3.5762c0.12319 0.36956 0.33197 0.70502 0.60742 0.98047l0.81055 0.81055h-12.42a0.17247 0.17247 135 0 0-0.17247 0.17247v0.10662a0.7209 0.7209 45 0 0 0.7209 0.7209h12.372c0.33198 0 0.62052-0.22008 0.73242-0.49023 0.1119-0.27016 0.062869-0.62854-0.17188-0.86328l-1.1641-1.1641c-0.1657-0.1657-0.29113-0.36754-0.36523-0.58984l-1.3992-3.6016c-0.16831-0.50494-0.72759-0.78386-1.2324-0.61523l-2.2957 0.69922c-0.18949 0.063297-0.39246 0.063059-0.58203 0l-2.2078-0.69922c-0.094674-0.031492-0.19155-0.047269-0.28711-0.048828zm-0.62617 8.375c-1.1526-0.043669-2.2062 0.71869-2.5098 1.8516-0.32379 1.2084 0.30318 2.4783 1.459 2.957 0.95743 0.39658 2.0411 0.15182 2.7404-0.55972 0.24353-0.24778 0.13617-0.6421-0.16541-0.81638l-0.095963-0.05546c-0.12328-0.071235-0.27944-0.027041-0.37021 0.082439-0.41386 0.49917-1.1075 0.68151-1.7261 0.42529-0.69931-0.28966-1.0709-1.0443-0.875-1.7754s0.89408-1.1984 1.6445-1.0996c0.75045 0.098798 1.3047 0.73136 1.3047 1.4883 2.76e-5 0.27613 0.22387 0.49997 0.5 0.5h3c0.27613-2.8e-5 0.49997-0.22387 0.5-0.5 0-0.75692 0.55424-1.3895 1.3047-1.4883 0.75045-0.0988 1.4486 0.36848 1.6445 1.0996 0.19591 0.73113-0.17569 1.4857-0.875 1.7754-0.60405 0.2502-1.2797 0.08219-1.6965-0.39069-0.11058-0.12547-0.29422-0.17819-0.43935-0.09452l-0.12531 0.07225c-0.2646 0.15256-0.35879 0.49683-0.15198 0.72074 0.69709 0.75473 1.8137 1.0229 2.7959 0.61604 1.1558-0.47875 1.7828-1.7486 1.459-2.957-0.32379-1.2084-1.5019-1.9953-2.7422-1.832-1.0523 0.13854-1.7584 0.97892-1.9863 1.9785h-2.375c-0.22796-0.99959-0.934-1.84-1.9863-1.9785-0.07752-0.010205-0.15558-0.01662-0.23242-0.019531z" color="#000000" fill="#786d7d" stroke-linejoin="round" style="-inkscape-stroke:none"/>
 <path d="m4.0038 2.9924-2.0038 5.0076h12l-2.9723-5.7402-3.4306 0.77655-2.5138-0.83257z" fill="#786d7d" opacity=".16"/>
</svg>
