<svg xmlns="http://www.w3.org/2000/svg" xml:space="preserve" width="16" height="16"><g fill="#786d7d"><path d="M2 1C.901 1 0 1.901 0 3v10c0 1.099.901 2 2 2h12c1.099 0 2-.901 2-2V6.7a.2.2 0 0 0-.2-.2h-.042a.757.757 0 0 0-.758.758V13c0 .558-.442 1-1 1H9.514c-.212 0-.42.063-.596.182l-.205.136a.504.504 0 0 1-.547.01l-.254-.156A1.141 1.141 0 0 0 7.311 14H2c-.56 0-1-.442-1-1V3c0-.558.44-1 1-1h12c.557 0 1 .442 1 1v2H2.134A.135.135 0 0 0 2 5.135v.47c0 .218.177.395.395.395h4.573a2.966 2.966 168.69 0 0 1.14-.228 1.276 1.276 2.872 0 1 .964.048 2.796 2.796 9.783 0 0 1.042.18H15c.547 0 1-.454 1-1V3c0-1.099-.901-2-2-2zm9.736 2a.236.236 0 0 0-.236.236v.54c0 .123.1.224.225.224h1.552c.123 0 .223-.1.223-.223v-.556A.22.22 0 0 0 13.28 3zm-3.55 3.6A.186.186 0 0 0 8 6.785v6.319c0 .164.133.297.297.296h.068A.634.634 0 0 0 9 12.766V7.273a.673.673 0 0 0-.674-.673z" color="#000" style="-inkscape-stroke:none"/><ellipse cx="11.284" cy="3.917" rx=".086" ry=".081"/><path d="M8.5 7v6" color="#000" style="-inkscape-stroke:none"/></g></svg>