<?xml version="1.0" encoding="UTF-8"?>
<svg width="16" height="16" version="1.1" xml:space="preserve" xmlns="http://www.w3.org/2000/svg"><path d="m2 1c-1.099 0-2 0.901-2 2v11c0 1.099 0.901 2 2 2h12c1.099 0 2-0.901 2-2v-7.0996c0-0.11046-0.088762-0.20117-0.19922-0.20117h-0.042969c-0.41886-5.537e-4 -0.75837 0.33895-0.75781 0.75781v6.543c0 0.558-0.442 1-1 1h-12c-0.558 0-1-0.442-1-1v-11c0-0.558 0.442-1 1-1h12c0.558 0 1 0.442 1 1v2h-12.865c-0.074558 0-0.13477 0.060207-0.13477 0.13477v0.4707c0 0.218 0.17653 0.39453 0.39453 0.39453h0.60547v1.9609 1.0391 1 1.8066c4.19e-4 0.6589 0.53446 1.1929 1.1934 1.1934h1.1836c0.23386-5.19e-4 0.42331-0.18997 0.42383-0.42383v-0.1543c3.31e-4 -0.23313-0.18874-0.42221-0.42188-0.42188h-1.0742c-0.15315-6.4e-5 -0.27728-0.1242-0.27734-0.27734v-2.7227h1.3652c0.22532-3.01e-4 0.4079-0.18288 0.4082-0.4082v-0.22852c1.061e-4 -0.20068-0.1626-0.36339-0.36328-0.36328h-1.2305c-0.099069-4.089e-4 -0.17928-0.080619-0.17969-0.17969v-1.8203h10.973c0.546 0 1-0.454 1-1v-2c0-1.099-0.902-2-2-2h-12zm9.7363 2c-0.13034 0-0.23633 0.10599-0.23633 0.23633v0.53906c0 0.123 0.09961 0.22461 0.22461 0.22461h1.5527c0.123 0 0.22266-0.099657 0.22266-0.22266v-0.55664c5.54e-4 -0.12189-0.098809-0.2207-0.2207-0.2207h-1.543zm-0.4707 0.81836c-0.04546 0.00692-0.078155 0.045818-0.078125 0.091797 0 0.052 0.040797 0.09375 0.091797 0.09375 0.124 0 0.124-0.18555 0-0.18555-0.0043-3.134e-4 -0.009402-3.132e-4 -0.013672 0zm-4.6758 3.1816a0.58926 0.58926 0 0 0-0.58984 0.58984v2.0039a0.40676 0.40676 0 0 0 0.40625 0.40625h2.0879a0.5049 0.5049 0 0 0 0.50586-0.50586v-1.1582a0.33641 0.33641 0 0 0-0.33594-0.33594h-0.66406v1h-1v-1h1v-0.5a0.49906 0.49906 0 0 0-0.5-0.5h-0.91016zm0.056641 4a0.64582 0.64582 0 0 0-0.64648 0.64648v2.0039a0.34941 0.34941 0 0 0 0.34961 0.34961h2.2988a0.35165 0.35165 0 0 0 0.35156-0.35156v-1.2129a0.43532 0.43532 0 0 0-0.43555-0.43555h-0.56445v1h-1v-1h1v-0.30664a0.6937 0.6937 0 0 0-0.69336-0.69336h-0.66016z" fill="#786d7d" style="-inkscape-stroke:none"/></svg>
