<svg xmlns="http://www.w3.org/2000/svg" xml:space="preserve" width="16" height="16"><g fill="#786d7d"><path d="M2 1C.901 1 0 1.901 0 3v10c0 1.099.901 2 2 2h12c1.099 0 2-.901 2-2V6.7a.2.2 45 0 0-.2-.2h-.043a.757.757 135 0 0-.757.757v1.892a1.563 1.563 74.991 0 0 .21.782l.18.313a.65.65 92.785 0 1-.034.704l-.112.156a1.306 1.306 107.79 0 0-.244.76V13c0 .558-.442 1-1 1h-1.487a1.07 1.07 163.08 0 0-.596.181l-.205.138a.504.504 179 0 1-.547.01l-.252-.157a1.14 1.14 15.921 0 0-.602-.172H2c-.558 0-1-.442-1-1V3c0-.558.442-1 1-1h12c.558 0 1 .442 1 1v2H2.135A.135.135 135 0 0 2 5.136v.469A.395.395 45 0 0 2.395 6H15c.546 0 1-.454 1-1V3c0-1.099-.902-2-2-2zm9.5 2.236v.54a.225.225 45 0 0 .225.224h1.553a.222.222 135 0 0 .222-.222V3.22a.22.22 45 0 0-.22-.22h-1.544a.236.236 135 0 0-.236.236z" color="#000" style="-inkscape-stroke:none"/><ellipse cx="11.284" cy="3.917" rx=".086" ry=".081"/><path d="M8.5 7v6M6 7.273v5.493a.634.634 45 0 0 .634.634h.07A.297.297 135 0 0 7 13.103V6.786a.186.186 45 0 0-.186-.186h-.14A.673.673 135 0 0 6 7.273zM11.221 7.5a.22.22 0 0 0-.22.219v1.28c0 1.1.9 2 2 2h.888a.612.612 0 0 0 .611-.61v-.075a.314.314 0 0 0-.314-.314H13c-.558 0-1-.442-1-1V8a.5.5 0 0 0-.5-.5h-.279zM8.754 10a.254.254 0 0 0-.254.254v.55c0 .109.088.196.196.196H10c.559 0 1 .442 1 1v1.21c0 .16.13.29.29.29h.34a.37.37 0 0 0 .37-.371V12c0-1.099-.901-2-2-2H8.754z" color="#000" style="-inkscape-stroke:none"/></g></svg>