<?xml version="1.0" encoding="UTF-8" standalone="no"?>
<svg
   width="16"
   height="16"
   version="1.1"
   xml:space="preserve"
   id="svg38743"
   sodipodi:docname="view-time-schedule-edit.svg"
   inkscape:version="1.2.2 (b0a8486541, 2022-12-01)"
   xmlns:inkscape="http://www.inkscape.org/namespaces/inkscape"
   xmlns:sodipodi="http://sodipodi.sourceforge.net/DTD/sodipodi-0.dtd"
   xmlns="http://www.w3.org/2000/svg"
   xmlns:svg="http://www.w3.org/2000/svg"><defs
     id="defs38747"><inkscape:path-effect
       effect="fillet_chamfer"
       id="path-effect42849"
       is_visible="true"
       lpeversion="1"
       nodesatellites_param="F,0,0,1,0,0,0,1 @ F,0,0,1,0,0,0,1 @ F,0,0,1,0,0,0,1 @ F,0,0,1,0,0,0,1 @ F,0,0,1,0,0,0,1 @ F,0,0,1,0,0,0,1 @ F,0,0,1,0,0,0,1 @ F,0,0,1,0,0,0,1 @ F,0,0,1,0,0,0,1 @ F,0,0,1,0,0,0,1 @ F,0,0,1,0,0,0,1 @ F,0,0,1,0,0,0,1 @ F,0,0,1,0,0,0,1 @ F,0,0,1,0,0,0,1 @ F,0,0,1,0,0,0,1 @ F,0,0,1,0,0,0,1 @ F,0,0,1,0,0,0,1 @ F,0,0,1,0,0,0,1 @ F,0,0,1,0,0,0,1 @ F,0,0,1,0,0,0,1 | F,0,0,1,0,0,0,1 @ F,0,0,1,0,0,0,1 @ F,0,0,1,0,0,0,1 @ F,0,0,1,0,0,0,1 | F,0,0,1,0,0,0,1 @ F,0,0,1,0,0,0,1 @ F,0,0,1,0,0,0,1 @ F,0,0,1,0,0,0,1 @ F,0,0,1,0,0.33,0,1 @ F,0,0,1,0,0.33,0,1 @ F,0,0,1,0,0,0,1 @ F,0,0,1,0,0,0,1 @ F,0,0,1,0,0,0,1 @ F,0,0,1,0,0,0,1 @ F,0,0,1,0,0,0,1 @ F,0,0,1,0,0,0,1 @ F,0,0,1,0,0,0,1 @ F,0,0,1,0,0,0,1 @ F,0,0,1,0,0,0,1 @ F,0,0,1,0,0,0,1 @ F,0,0,1,0,0,0,1 @ F,0,0,1,0,0,0,1 @ F,0,0,1,0,0,0,1 @ F,0,0,1,0,0,0,1 | F,0,0,1,0,0,0,1 @ F,0,0,1,0,0,0,1 @ F,0,0,1,0,0,0,1 @ F,0,0,1,0,0,0,1 @ F,0,0,1,0,0,0,1 @ F,0,0,1,0,0,0,1 @ F,0,0,1,0,0,0,1 @ F,0,0,1,0,0,0,1 @ F,0,0,1,0,0,0,1 @ F,0,0,1,0,0,0,1 @ F,0,0,1,0,0,0,1 @ F,0,0,1,0,0,0,1 @ F,0,0,1,0,0.33,0,1 @ F,0,0,1,0,0,0,1 @ F,0,0,1,0,0.6660156,0,1 @ F,0,0,1,0,0,0,1 @ F,0,0,1,0,0,0,1 | F,0,0,1,0,0,0,1 @ F,0,0,1,0,0,0,1 @ F,0,0,1,0,0,0,1 @ F,0,0,1,0,0,0,1 @ F,0,0,1,0,0.33,0,1 @ F,0,0,1,0,0,0,1 @ F,0,0,1,0,0.671875,0,1 | F,0,0,1,0,0,0,1 @ F,0,0,1,0,0,0,1 @ F,0,0,1,0,0,0,1 @ F,0,0,1,0,0,0,1 @ F,0,0,1,0,0,0,1 @ F,0,0,1,0,0,0,1 @ F,0,0,1,0,0,0,1 @ F,0,0,1,0,0,0,1 @ F,0,0,1,0,0,0,1 @ F,0,0,1,0,0,0,1 @ F,0,0,1,0,0,0,1 @ F,0,0,1,0,0,0,1 @ F,0,0,1,0,0,0,1 @ F,0,0,1,0,0,0,1 @ F,0,0,1,0,0,0,1 @ F,0,0,1,0,0,0,1 @ F,0,0,1,0,0,0,1 @ F,0,0,1,0,0,0,1 @ F,0,0,1,0,0,0,1 @ F,0,0,1,0,0,0,1 @ F,0,0,1,0,0,0,1 @ F,0,0,1,0,0,0,1 @ F,0,0,1,0,0,0,1 @ F,0,0,1,0,0,0,1 @ F,0,0,1,0,0,0,1 @ F,0,0,1,0,0,0,1 @ F,0,0,1,0,0,0,1 @ F,0,0,1,0,0,0,1 @ F,0,0,1,0,0,0,1 @ F,0,0,1,0,0,0,1 @ F,0,0,1,0,0,0,1 @ F,0,0,1,0,0,0,1 | F,0,0,1,0,0.33,0,1 @ F,0,0,1,0,0.33,0,1 @ F,0,0,1,0,0.33,0,1 @ F,0,0,1,0,0,0,1 @ F,0,0,1,0,0,0,1 @ F,0,0,1,0,0.33,0,1 @ F,0,0,1,0,0.33,0,1 @ F,0,0,1,0,0.33,0,1 @ F,0,0,1,0,0.33,0,1 @ F,0,0,1,0,0,0,1 @ F,0,0,1,0,0,0,1 @ F,0,0,1,0,0.33,0,1 | F,0,0,1,0,0.47508737,0,1 @ F,0,0,1,0,0.33,0,1 @ F,0,0,1,0,0,0,1 @ F,0,0,1,0,0,0,1 @ F,0,0,1,0,0.33,0,1 @ F,0,1,1,0,0.47508737,0,1 @ F,0,0,1,0,0,0,1 @ F,0,0,1,0,0,0,1"
       unit="px"
       method="auto"
       mode="F"
       radius="0.33"
       chamfer_steps="1"
       flexible="false"
       use_knot_distance="true"
       apply_no_radius="true"
       apply_with_radius="true"
       only_selected="true"
       hide_knots="false" /><inkscape:path-effect
       effect="fillet_chamfer"
       id="path-effect39544"
       is_visible="true"
       lpeversion="1"
       nodesatellites_param="F,0,0,1,0,0,0,1 @ F,0,0,1,0,0,0,1 @ F,0,0,1,0,0,0,1 @ F,0,0,1,0,0,0,1 @ F,0,0,1,0,0,0,1 @ F,0,0,1,0,0,0,1 @ F,0,0,1,0,0,0,1 @ F,0,0,1,0,0,0,1 @ F,0,0,1,0,0,0,1 @ F,0,0,1,0,0,0,1 @ F,0,0,1,0,0,0,1 @ F,0,0,1,0,0,0,1 @ F,0,0,1,0,0,0,1 @ F,0,0,1,0,0,0,1 @ F,0,0,1,0,0,0,1 @ F,0,0,1,0,0,0,1 @ F,0,0,1,0,0,0,1 @ F,0,0,1,0,0,0,1 @ F,0,0,1,0,0,0,1 @ F,0,0,1,0,0,0,1 | F,0,0,1,0,0,0,1 @ F,0,0,1,0,0,0,1 @ F,0,0,1,0,0,0,1 @ F,0,0,1,0,0,0,1 | F,0,0,1,0,0,0,1 @ F,0,0,1,0,0,0,1 @ F,0,0,1,0,0,0,1 @ F,0,0,1,0,0,0,1 @ F,0,1,1,0,0.75,0,1 @ F,0,0,1,0,0.33,0,1 @ F,0,0,1,0,0,0,1 @ F,0,0,1,0,0,0,1 @ F,0,0,1,0,0,0,1 @ F,0,0,1,0,0,0,1 @ F,0,0,1,0,0,0,1 @ F,0,0,1,0,0,0,1 @ F,0,0,1,0,0,0,1 @ F,0,0,1,0,0,0,1 @ F,0,0,1,0,0,0,1 @ F,0,0,1,0,0,0,1 @ F,0,0,1,0,0,0,1 @ F,0,0,1,0,0,0,1 @ F,0,0,1,0,0,0,1 @ F,0,0,1,0,0,0,1 | F,0,0,1,0,0,0,1 @ F,0,0,1,0,0,0,1 @ F,0,0,1,0,0,0,1 @ F,0,0,1,0,0,0,1 @ F,0,0,1,0,0,0,1 @ F,0,0,1,0,0,0,1 @ F,0,0,1,0,0,0,1 @ F,0,0,1,0,0,0,1 @ F,0,0,1,0,0,0,1 @ F,0,0,1,0,0,0,1 @ F,0,0,1,0,0,0,1 @ F,0,0,1,0,0,0,1 @ F,0,0,1,0,0,0,1 @ F,0,0,1,0,0,0,1 @ F,0,0,1,0,0,0,1 @ F,0,0,1,0,0,0,1 @ F,0,0,1,0,0,0,1 @ F,0,0,1,0,0,0,1 @ F,0,0,1,0,0,0,1 @ F,0,0,1,0,0,0,1 @ F,0,0,1,0,0,0,1 | F,0,0,1,0,0,0,1 @ F,0,0,1,0,0,0,1 @ F,0,0,1,0,0.33,0,1 @ F,0,1,1,0,0.75,0,1 @ F,0,0,1,0,0,0,1 @ F,0,0,1,0,0,0,1 | F,0,0,1,0,0.33,0,1 @ F,0,0,1,0,0.33,0,1 @ F,0,0,1,0,0.33,0,1 @ F,0,0,1,0,0,0,1 @ F,0,0,1,0,0,0,1 @ F,0,0,1,0,0.33,0,1 @ F,0,0,1,0,0.33,0,1 @ F,0,0,1,0,0.33,0,1 @ F,0,0,1,0,0.33,0,1 @ F,0,0,1,0,0,0,1 @ F,0,0,1,0,0,0,1 @ F,0,0,1,0,0.33,0,1 | F,0,0,1,0,0.33,0,1 @ F,0,0,1,0,0,0,1 @ F,0,0,1,0,0.33,0,1 @ F,0,0,1,0,0.33,0,1 @ F,0,0,1,0,0,0,1 @ F,0,0,1,0,0.33,0,1 @ F,0,0,1,0,0.33,0,1 @ F,0,0,1,0,0,0,1 @ F,0,0,1,0,0.33,0,1 @ F,0,0,1,0,0.33,0,1 @ F,0,0,1,0,0,0,1 @ F,0,0,1,0,0.33,0,1"
       unit="px"
       method="auto"
       mode="F"
       radius="0.75"
       chamfer_steps="1"
       flexible="false"
       use_knot_distance="true"
       apply_no_radius="true"
       apply_with_radius="true"
       only_selected="true"
       hide_knots="false" /></defs><sodipodi:namedview
     id="namedview38745"
     pagecolor="#ffffff"
     bordercolor="#000000"
     borderopacity="0.25"
     inkscape:showpageshadow="2"
     inkscape:pageopacity="0.0"
     inkscape:pagecheckerboard="0"
     inkscape:deskcolor="#ffffff"
     showgrid="true"
     showborder="true"
     inkscape:zoom="45.254834"
     inkscape:cx="7.1594562"
     inkscape:cy="8.8388348"
     inkscape:window-width="2560"
     inkscape:window-height="1355"
     inkscape:window-x="0"
     inkscape:window-y="0"
     inkscape:window-maximized="1"
     inkscape:current-layer="svg38743"><inkscape:grid
       type="xygrid"
       id="grid38866" /><inkscape:grid
       type="xygrid"
       id="grid38868"
       empspacing="1"
       empcolor="#0099e5"
       empopacity="0.07843137"
       spacingy="0.5"
       spacingx="0.5" /></sodipodi:namedview><path
     d="m 13.6016,5.7187513 c -0.51289,0 -1.0256,0.1936 -1.4141,0.5820299 l -0.58594,0.58594 c -0.38634,0.38634 -0.38634,1.0277 0,1.4141001 l 1.9,1.8999997 1.293,-1.2929997 c 0.77686,-0.77686 1.1769,-1.6513 0.4,-2.4281 L 15.01565,6.3008112 c -0.38843,-0.38843 -0.90117,-0.58203 -1.4141,-0.58203 z"
     color="#000000"
     opacity="0.15"
     style="-inkscape-stroke:none;fill:#786d7d;fill-opacity:1"
     id="path41656" /><path
     id="path41793"
     style="fill:#786d7d;fill-opacity:1;stroke:none;stroke-width:3;stroke-dasharray:none;stroke-opacity:1"
     d="M 4.1425781,0 C 3.7324589,-5.3889892e-4 3.3998506,0.33206832 3.4003906,0.7421875 v 0.046875 C 3.400301,0.90559226 3.4947893,1.00009 3.6113281,1 H 5.0703125 C 5.2523721,1 5.3953483,1.153139 5.4550781,1.3242188 5.5915479,1.715128 5.9668716,2 6.4003906,2 H 9.5996094 C 10.024139,2 10.391906,1.7261056 10.535156,1.3476562 10.604256,1.1650966 10.758858,1 10.955078,1 h 1.478516 c 0.09177,1.872e-4 0.166195,-0.0742418 0.166015,-0.16601562 V 0.65625 C 12.599177,0.29399072 12.305619,4.2999914e-4 11.943359,0 h -1.34375 C 10.134301,0 9.736766,0.32856274 9.6289062,0.76367188 9.5973324,0.89104162 9.4928279,1 9.3613281,1 H 6.6777344 C 6.5246546,1 6.4038881,0.8730822 6.3613281,0.7265625 6.2404083,0.31025334 5.8521798,0 5.4003906,0 Z M 3.6796875,0.7265625 c 0.051114,-0.00918 0.062672,0.0332031 0.0625,0.0625 -1.703e-4,0.0289499 -0.028783,0.062021 -0.0625,0.0625 -0.034287,3.175e-4 -0.062011,-0.0282151 -0.0625,-0.0625 -3.207e-4,-0.0348579 0.02819,-0.056338 0.0625,-0.0625 z M 2,1 C 0.9010022,1 0,1.9010022 0,3 v 10 c 0,1.656896 1.3431034,3 3,3 H 3.3809375 C 3.5631915,16 3.6490587,15.864983 3.5982203,15.6901 3.5641747,15.572983 3.5384761,15.452423 3.5219212,15.32901 3.4977093,15.148517 3.352254,15 3.17,15 H 3 C 1.8954022,15 1,14.104568 1,13 V 3 C 1,2.4420012 1.4420012,2 2,2 H 2.1640625 C 2.2949323,2 2.3984475,2.1076152 2.4296875,2.234375 2.5371173,2.6700742 2.9346616,3 3.4003906,3 H 4.8671875 C 5.1064771,2.9995671 5.2353214,2.7965558 5.3007812,2.5664062 L 5.4003906,2.2148438 C 5.4328436,2.100754 5.3041567,2.00009 5.1855469,2 h -1.46875 C 3.5417573,2 3.4049292,1.8547129 3.3496094,1.6894531 3.2166996,1.2923839 2.8383498,1 2.4003906,1 Z M 13.599609,1 C 13.123591,1 12.717654,1.3449127 12.621094,1.7949219 12.597135,1.9065917 12.506948,2 12.392578,2 h -1.632812 c -0.08825,4.974e-4 -0.184677,0.075377 -0.160157,0.1601562 l 0.09961,0.3457032 C 10.775043,2.7679888 10.920491,2.99992 11.193359,3 h 1.40625 C 13.083879,3 13.494771,2.6430998 13.582031,2.1816406 13.600805,2.0823588 13.682073,2 13.783203,2 H 14 c 0.557998,0 1,0.4420012 1,1 v 0.2149219 c 0,0.182254 0.143791,0.3701125 0.305481,0.4537083 0.161052,0.083266 0.28148,0.1722754 0.331238,0.2024636 C 15.848146,4.0197023 16,3.8678303 16,3.5 V 3 C 16,1.9010022 15.097998,1 14,1 Z M 2.1347656,5 C 2.0598148,4.9999979 1.99944,5.0617678 2,5.1367188 v 0.46875 C 2,5.8236182 2.1763818,6 2.3945312,6 H 9.908281 c 0.182254,0 0.399232,-0.1343241 0.527067,-0.2634529 0.0014,-0.00138 0.0027,-0.00275 0.0041,-0.00413 L 10.696788,5.4750873 A 0.27829971,0.27829971 67.500002 0 0 10.5,5 Z M 14,5 c -0.45256,2e-7 -0.887082,0.1799903 -1.207031,0.5 L 11.5,6.7929688 c -0.38634,0.3863396 -0.38634,1.0276628 0,1.4140624 l 0.722656,0.7207032 c 0.09785,0.098914 0.257619,0.098914 0.355469,0 0.29285,-0.2928497 0.291037,-0.7677472 -0.002,-1.0605469 L 12.207031,7.5 13.5,6.2070312 C 13.63274,6.0742914 13.81227,6 14,6 c 0.18773,1e-7 0.36726,0.074289 0.5,0.2070312 L 14.792969,6.5 C 14.925709,6.6327399 15,6.8122702 15,7 15,7.1877298 14.925709,7.3672601 14.792969,7.5 L 7.5,14.792969 C 7.3672601,14.925709 7.1877298,15 7,15 H 6 V 14 C 6,13.81227 6.074291,13.63274 6.2070312,13.5 L 10.175781,9.53125 c 0.29412,-0.2930997 0.29412,-0.7694003 0,-1.0625 C 10.077631,8.371651 9.9193455,8.37253 9.8222656,8.4707 L 5.5,12.792969 C 5.1799903,13.112978 5,13.5475 5,14 v 1 c 0,0.546359 0.4536405,1 1,1 h 1 c 0.4525595,0 0.8870816,-0.17999 1.2070312,-0.5 L 15.5,8.2070312 C 15.82001,7.8870216 16,7.4524995 16,7 16,6.5475005 15.82001,6.1129184 15.5,5.7929688 L 15.207031,5.5 C 14.887022,5.1799903 14.4525,5 14,5 Z M 2,7.33 V 9.67 A 0.33,0.33 45 0 0 2.33,10 H 2.67 A 0.33,0.33 135 0 0 3,9.67 V 9 H 5 V 9.67 A 0.33,0.33 45 0 0 5.33,10 H 5.67 A 0.33,0.33 135 0 0 6,9.67 V 7.33 A 0.33,0.33 45 0 0 5.67,7 H 5.33 A 0.33,0.33 135 0 0 5,7.33 V 8 H 3 V 7.33 A 0.33,0.33 45 0 0 2.67,7 H 2.33 A 0.33,0.33 135 0 0 2,7.33 Z m 13.664062,2.834063 -0.430717,0.430717 A 0.79669048,0.79669048 112.5 0 0 15,11.158125 L 15,13 c 0,1.104598 -0.895432,2 -2,2 h -1.841875 a 0.79669048,0.79669048 157.5 0 0 -0.563345,0.233345 l -0.430717,0.430717 A 0.19678763,0.19678763 67.5 0 0 10.303212,16 H 13 c 1.656896,0 3,-1.343104 3,-3 v -2.696788 a 0.19678763,0.19678763 22.5 0 0 -0.335938,-0.139149 z"
     inkscape:path-effect="#path-effect42849"
     inkscape:original-d="M 4.1425781,0 C 3.7324589,-5.3889892e-4 3.3998506,0.33206832 3.4003906,0.7421875 v 0.046875 C 3.400301,0.90559226 3.4947893,1.00009 3.6113281,1 H 5.0703125 C 5.2523721,1 5.3953483,1.153139 5.4550781,1.3242188 5.5915479,1.715128 5.9668716,2 6.4003906,2 H 9.5996094 C 10.024139,2 10.391906,1.7261056 10.535156,1.3476562 10.604256,1.1650966 10.758858,1 10.955078,1 h 1.478516 c 0.09177,1.872e-4 0.166195,-0.0742418 0.166015,-0.16601562 V 0.65625 C 12.599177,0.29399072 12.305619,4.2999914e-4 11.943359,0 h -1.34375 C 10.134301,0 9.736766,0.32856274 9.6289062,0.76367188 9.5973324,0.89104162 9.4928279,1 9.3613281,1 H 6.6777344 C 6.5246546,1 6.4038881,0.8730822 6.3613281,0.7265625 6.2404083,0.31025334 5.8521798,0 5.4003906,0 Z M 3.6796875,0.7265625 c 0.051114,-0.00918 0.062672,0.0332031 0.0625,0.0625 -1.703e-4,0.0289499 -0.028783,0.062021 -0.0625,0.0625 -0.034287,3.175e-4 -0.062011,-0.0282151 -0.0625,-0.0625 -3.207e-4,-0.0348579 0.02819,-0.056338 0.0625,-0.0625 z M 2,1 C 0.9010022,1 0,1.9010022 0,3 v 10 c 0,1.656896 1.3431034,3 3,3 H 3.7109375 C 3.5760151,15.693187 3.5,15.355617 3.5,15 H 3 C 1.8954022,15 1,14.104568 1,13 V 3 C 1,2.4420012 1.4420012,2 2,2 H 2.1640625 C 2.2949323,2 2.3984475,2.1076152 2.4296875,2.234375 2.5371173,2.6700742 2.9346616,3 3.4003906,3 H 4.8671875 C 5.1064771,2.9995671 5.2353214,2.7965558 5.3007812,2.5664062 L 5.4003906,2.2148438 C 5.4328436,2.100754 5.3041567,2.00009 5.1855469,2 h -1.46875 C 3.5417573,2 3.4049292,1.8547129 3.3496094,1.6894531 3.2166996,1.2923839 2.8383498,1 2.4003906,1 Z M 13.599609,1 C 13.123591,1 12.717654,1.3449127 12.621094,1.7949219 12.597135,1.9065917 12.506948,2 12.392578,2 h -1.632812 c -0.08825,4.974e-4 -0.184677,0.075377 -0.160157,0.1601562 l 0.09961,0.3457032 C 10.775043,2.7679888 10.920491,2.99992 11.193359,3 h 1.40625 C 13.083879,3 13.494771,2.6430998 13.582031,2.1816406 13.600805,2.0823588 13.682073,2 13.783203,2 H 14 c 0.557998,0 1,0.4420012 1,1 v 0.5449219 c 0.308424,0.088023 0.55893,0.2789776 0.636719,0.3261719 C 15.828421,4.0058375 15.916096,4.0824849 16,4.1660156 V 3 C 16,1.9010022 15.097998,1 14,1 Z M 2.1347656,5 C 2.0598148,4.9999979 1.99944,5.0617678 2,5.1367188 v 0.46875 C 2,5.8236182 2.1763818,6 2.3945312,6 h 7.8437498 c 0.05332,-0.094773 0.118726,-0.1851324 0.201172,-0.2675781 L 11.171875,5 Z M 14,5 c -0.45256,2e-7 -0.887082,0.1799903 -1.207031,0.5 L 11.5,6.7929688 c -0.38634,0.3863396 -0.38634,1.0276628 0,1.4140624 l 0.722656,0.7207032 c 0.09785,0.098914 0.257619,0.098914 0.355469,0 0.29285,-0.2928497 0.291037,-0.7677472 -0.002,-1.0605469 L 12.207031,7.5 13.5,6.2070312 C 13.63274,6.0742914 13.81227,6 14,6 c 0.18773,1e-7 0.36726,0.074289 0.5,0.2070312 L 14.792969,6.5 C 14.925709,6.6327399 15,6.8122702 15,7 15,7.1877298 14.925709,7.3672601 14.792969,7.5 L 7.5,14.792969 C 7.3672601,14.925709 7.1877298,15 7,15 H 6 V 14 C 6,13.81227 6.074291,13.63274 6.2070312,13.5 L 10.175781,9.53125 c 0.29412,-0.2930997 0.29412,-0.7694003 0,-1.0625 C 10.077631,8.371651 9.9193455,8.37253 9.8222656,8.4707 L 5.5,12.792969 C 5.1799903,13.112978 5,13.5475 5,14 v 1 c 0,0.546359 0.4536405,1 1,1 h 1 c 0.4525595,0 0.8870816,-0.17999 1.2070312,-0.5 L 15.5,8.2070312 C 15.82001,7.8870216 16,7.4524995 16,7 16,6.5475005 15.82001,6.1129184 15.5,5.7929688 L 15.207031,5.5 C 14.887022,5.1799903 14.4525,5 14,5 Z M 2,7 v 3 H 3 V 9 h 2 v 1 H 6 V 7 H 5 V 8 H 3 V 7 Z m 14,2.828125 -1,1 V 13 c 0,1.104598 -0.895432,2 -2,2 h -2.171875 l -1,1 H 13 c 1.656896,0 3,-1.343104 3,-3 z" /></svg>
