<?xml version="1.0" encoding="UTF-8" standalone="no"?>
<svg
   viewBox="0 0 16 16"
   version="1.1"
   id="svg7312"
   sodipodi:docname="view-media-equalizer.svg"
   inkscape:version="1.2.2 (b0a8486541, 2022-12-01)"
   xmlns:inkscape="http://www.inkscape.org/namespaces/inkscape"
   xmlns:sodipodi="http://sodipodi.sourceforge.net/DTD/sodipodi-0.dtd"
   xmlns="http://www.w3.org/2000/svg"
   xmlns:svg="http://www.w3.org/2000/svg">
  <sodipodi:namedview
     id="namedview7314"
     pagecolor="#ffffff"
     bordercolor="#000000"
     borderopacity="0.25"
     inkscape:showpageshadow="2"
     inkscape:pageopacity="0.0"
     inkscape:pagecheckerboard="0"
     inkscape:deskcolor="#ffffff"
     showgrid="false"
     showborder="false"
     inkscape:zoom="32"
     inkscape:cx="3.09375"
     inkscape:cy="7.0625"
     inkscape:window-width="2560"
     inkscape:window-height="1355"
     inkscape:window-x="0"
     inkscape:window-y="0"
     inkscape:window-maximized="1"
     inkscape:current-layer="svg7312">
    <inkscape:grid
       type="xygrid"
       id="grid7433" />
    <inkscape:grid
       type="xygrid"
       id="grid7435"
       spacingx="0.5"
       spacingy="0.5"
       empcolor="#0099e5"
       empopacity="0.08235294"
       empspacing="1" />
  </sodipodi:namedview>
  <defs
     id="defs3051">
    <inkscape:path-effect
       effect="fillet_chamfer"
       id="path-effect8037"
       is_visible="true"
       lpeversion="1"
       nodesatellites_param="F,0,0,1,0,0.75,0,1 @ F,0,0,1,0,0.33,0,1 @ F,0,0,1,0,0,0,1 @ F,0,0,1,0,0.33,0,1 @ F,0,1,1,0,0.25,0,1 | F,0,0,1,0,0.25,0,1 @ F,0,0,1,0,0.33,0,1 @ F,0,0,1,0,0,0,1 @ F,0,0,1,0,0.33,0,1 @ F,0,0,1,0,0.75,0,1 | F,0,0,1,0,0.33,0,1 @ F,0,0,1,0,0.75,0,1 @ F,0,0,1,0,0.25,0,1 @ F,0,0,1,0,0.33,0,1 @ F,0,0,1,0,0,0,1 | F,0,0,1,0,0.33,0,1 @ F,0,0,1,0,0.75,0,1 @ F,0,0,1,0,0.25,0,1 @ F,0,0,1,0,0.33,0,1 @ F,0,0,1,0,0,0,1 | F,0,0,1,0,0.25,0,1 @ F,0,0,1,0,0.33,0,1 @ F,0,0,1,0,0,0,1 @ F,0,0,1,0,0.33,0,1 @ F,0,0,1,0,0.75,0,1"
       unit="px"
       method="auto"
       mode="F"
       radius="0.25"
       chamfer_steps="1"
       flexible="false"
       use_knot_distance="true"
       apply_no_radius="true"
       apply_with_radius="true"
       only_selected="true"
       hide_knots="false" />
    <style
       type="text/css"
       id="current-color-scheme">
      .ColorScheme-Text {
        color:#232629;
      }
      </style>
  </defs>
  <circle
     style="opacity:0.15;fill:#786d7d;fill-opacity:1;stroke:none;stroke-width:2;stroke-dasharray:none;stroke-opacity:1"
     id="path7931"
     cx="8.5"
     cy="12.5"
     r="1.5" />
  <path
     id="path7437"
     style="color:#000000;fill:#786d7d;-inkscape-stroke:none"
     d="M 3.25 1 A 0.25 0.25 0 0 0 3 1.25 L 3 2.7109375 C 3 2.8931913 3.1462751 3.0171654 3.328125 3.0058594 C 3.3850159 3.0023194 3.4421804 3 3.5 3 C 3.5578259 3 3.6149773 3.0023194 3.671875 3.0058594 C 3.853714 3.0171571 4 2.8931913 4 2.7109375 L 4 1.75 A 0.75 0.75 0 0 0 3.25 1 z M 8.75 1 A 0.75 0.75 0 0 0 8 1.75 L 8 8.7109375 C 8 8.8931913 8.1462751 9.0171652 8.328125 9.0058594 C 8.3850163 9.0023224 8.4421804 9 8.5 9 C 8.5578259 9 8.6149773 9.0023194 8.671875 9.0058594 C 8.853714 9.0171611 9 8.8931913 9 8.7109375 L 9 1.25 A 0.25 0.25 0 0 0 8.75 1 z M 13.25 1 A 0.25 0.25 0 0 0 13 1.25 L 13 2.7109375 C 13 2.8931913 13.146275 3.0171652 13.328125 3.0058594 C 13.385016 3.0023224 13.44218 3 13.5 3 C 13.55783 3 13.614977 3.0023194 13.671875 3.0058594 C 13.853714 3.0171614 14 2.8931913 14 2.7109375 L 14 1.75 A 0.75 0.75 0 0 0 13.25 1 z M 3.5 4 C 2.1252146 4 1 5.1252146 1 6.5 C 1 7.8747854 2.1252146 9 3.5 9 C 4.8747854 9 6 7.8747854 6 6.5 C 6 5.1252146 4.8747854 4 3.5 4 z M 13.5 4 C 12.125214 4 11 5.1252146 11 6.5 C 11 7.8747854 12.125214 9 13.5 9 C 14.874786 9 16 7.8747854 16 6.5 C 16 5.1252146 14.874786 4 13.5 4 z M 3.5 5 C 4.334347 5 5 5.665653 5 6.5 C 5 7.334347 4.334347 8 3.5 8 C 2.665653 8 2 7.334347 2 6.5 C 2 5.665653 2.665653 5 3.5 5 z M 13.5 5 C 14.334347 5 15 5.665653 15 6.5 C 15 7.334347 14.334347 8 13.5 8 C 12.665653 8 12 7.334347 12 6.5 C 12 5.665653 12.665653 5 13.5 5 z M 3.328125 9.9941406 C 3.146286 9.9828343 3 10.106809 3 10.289062 L 3 14.25 A 0.75 0.75 0 0 0 3.75 15 A 0.25 0.25 0 0 0 4 14.75 L 4 10.289062 C 4 10.106809 3.8537249 9.9828348 3.671875 9.9941406 C 3.6149837 9.9976776 3.5578196 10 3.5 10 C 3.4421737 10 3.3850227 9.9976783 3.328125 9.9941406 z M 13.328125 9.9941406 C 13.146286 9.9828343 13 10.106809 13 10.289062 L 13 14.25 A 0.75 0.75 0 0 0 13.75 15 A 0.25 0.25 0 0 0 14 14.75 L 14 10.289062 C 14 10.106809 13.853725 9.9828348 13.671875 9.9941406 C 13.614984 9.9976776 13.55782 10 13.5 10 C 13.442174 10 13.385023 9.9976783 13.328125 9.9941406 z M 8.5 10 C 7.1252146 10 6 11.125214 6 12.5 C 6 13.874786 7.1252146 15 8.5 15 C 9.8747854 15 11 13.874786 11 12.5 C 11 11.125214 9.8747854 10 8.5 10 z M 8.5 11 C 9.334347 11 10 11.665653 10 12.5 C 10 13.334347 9.334347 14 8.5 14 C 7.665653 14 7 13.334347 7 12.5 C 7 11.665653 7.665653 11 8.5 11 z " />
</svg>
