<svg width="16" height="16" version="1.1" viewBox="0 0 16 16" xml:space="preserve" xmlns="http://www.w3.org/2000/svg"><path d="m3 1c-1.098 0-2 0.901-2 2v1c0 0.546 0.454 1 1 1h10.605c0.218 0 0.39453-0.17653 0.39453-0.39453v-0.4707c0-0.074566-0.060206-0.13477-0.13477-0.13477h-10.865v-1c0-0.558 0.442-1 1-1h10c0.558 0 1 0.442 1 1v5c0 0.55228-0.44772 1-1 1h-1c-1.0986 0-2 0.90136-2 2v1.75c0 0.13807 0.11193 0.25 0.25 0.25 0.41421 0 0.75-0.33579 0.75-0.75v-1.25c0-0.5582 0.4418-1 1-1h1c1.1046 0 2-0.89543 2-2v-5c0-1.099-0.901-2-2-2zm-2 5.1312v6.8688c0 1.0986 0.90136 2 2 2h7.5c2.5 0 4.0047-1.3023 4.4473-3.752 0.01874-0.13689-0.013897-0.24805-0.29102-0.24805s-0.71337 0.33632-0.82617 0.73438c-0.5001 1.7647-1.3301 2.2656-3.3301 2.2656h-7.5c-0.5582 0-1-0.4418-1-1v-6.5c0-0.27614-0.22808-0.49382-0.49467-0.56291-0.047213-0.012235-0.09376-0.02617-0.13958-0.041729-0.21023-0.071388-0.36575 0.013442-0.36575 0.23584z" color="#000000" fill="#786d7d" stroke-linecap="square" style="-inkscape-stroke:none;paint-order:markers stroke fill"/></svg>
