<svg width="16" height="16" version="1.1" viewBox="0 0 16 16" xml:space="preserve" xmlns="http://www.w3.org/2000/svg"><path d="m3.5 0a0.5 0.5 0 0 0-0.5 0.5v0.24219a0.25739 0.25739 0 0 0 0.25781 0.25781h3.6738l-3.8652 4.6406c-0.42755 0.51306-0.031134 1.3594 0.63672 1.3594h4.5586a0.23831 0.23831 0 0 0 0.23828-0.23828v-0.089844a0.67223 0.67223 0 0 0-0.67188-0.67188h-3.7617l3.998-4.7949c0.376-0.4512 0.022874-1.2051-0.56445-1.2051h-4zm9 4.0195c-0.19235 0-0.3847 0.073643-0.53125 0.2207l-1.8984 1.9004c-0.097609 0.09763-0.097609 0.25589 0 0.35352l0.35156 0.35352c0.09785 0.09891 0.25762 0.09891 0.35547 0l1.2227-1.2227v5.291l-1.2227-1.2227c-0.09785-0.09891-0.25762-0.09891-0.35547 0l-0.35156 0.35352c-0.097609 0.09763-0.097609 0.25589 0 0.35352l1.8984 1.9004c0.2931 0.29412 0.7694 0.29412 1.0625 0l1.8984-1.9004c0.097608-0.09763 0.097608-0.25589 0-0.35352l-0.35156-0.35352c-0.09785-0.09891-0.25762-0.09891-0.35547 0l-1.2227 1.2227v-5.291l1.2227 1.2227c0.09785 0.09891 0.25762 0.09891 0.35547 0l0.35156-0.35352c0.097608-0.09763 0.097608-0.25589 0-0.35352l-1.8984-1.9004c-0.14655-0.14706-0.3389-0.2207-0.53125-0.2207zm-7.5 4.9805c-0.97096 0-1.7881 0.70493-1.9648 1.627-0.039058 0.20374 0.13411 0.37305 0.3418 0.37305h0.44531c0.097696 0 0.17675-0.07963 0.19336-0.17578 0.081602-0.47227 0.48634-0.82422 0.98438-0.82422h1c0.55821 0 1 0.4418 1 1v0.5c0 0.28206-0.21794 0.5-0.5 0.5h-1.5c-1.0986 0-2 0.90136-2 2s0.90136 2 2 2h1c0.41355 0 0.79905-0.12783 1.1191-0.3457 0.13305 0.20615 0.36379 0.3457 0.62305 0.3457h0.52344a0.23371 0.23371 0 0 0 0.23438-0.23438v-0.37305a0.39211 0.39211 0 0 0-0.39258-0.39258 0.11743 0.11743 0 0 1-0.10742-0.12695v-0.87305-2.5-0.5c0-1.0986-0.90136-2-2-2h-1zm2 3.9121v1.0879c0 0.5582-0.44179 1-1 1h-1c-0.55821 0-1-0.4418-1-1s0.44179-1 1-1h1.5c0.175 0 0.34326-0.03168 0.5-0.087891z" fill="#786d7d" style="-inkscape-stroke:none"/></svg>
