<svg width="16" height="16" version="1.1" viewBox="0 0 16 16" xml:space="preserve" xmlns="http://www.w3.org/2000/svg"><path d="m12.25 15.521c-0.13807 0-0.25-0.11193-0.25-0.25v-5.6465l-1.2227 1.2227c-0.09785 0.09891-0.25762 0.09891-0.35547 0l-0.35156-0.35352c-0.09761-0.09763-0.09761-0.25589 0-0.35352l1.8984-1.9004c0.2931-0.29412 0.7694-0.29412 1.0625 0l1.8984 1.9004c0.09761 0.09763 0.09761 0.25589 0 0.35352l-0.35156 0.35352c-0.09785 0.09891-0.25762 0.09891-0.35547 0l-1.2227-1.2227v5.6465c0 0.13807-0.11193 0.25-0.25 0.25z" color="#000000" fill="#786d7d" style="-inkscape-stroke:none"/><path d="m5 9c-0.97096 0-1.7878 0.70402-1.9646 1.626-0.039058 0.20374 0.13294 0.37395 0.34063 0.37395h0.44706c0.097696 0 0.17527-0.07989 0.19189-0.17604 0.081602-0.47227 0.48697-0.82396 0.98501-0.82396h1c0.55821 0 1 0.44179 1 1v0.5c0 0.28206-0.21794 0.5-0.5 0.5h-1.5c-1.0986 0-2 0.90136-2 2s0.90136 2 2 2h1c0.41355 0 0.79905-0.12783 1.1191-0.3457 0.13305 0.20615 0.36379 0.3457 0.62305 0.3457h0.5241a0.23371 0.23371 135 0 0 0.23371-0.23371v-0.37418a0.39211 0.39211 45 0 0-0.39211-0.39211 0.11743 0.11743 49.485 0 1-0.10789-0.12626v-3.8737c0-1.0986-0.90136-2-2-2zm2 3.9121v1.0879c0 0.55821-0.44179 1-1 1h-1c-0.55821 0-1-0.44179-1-1s0.44179-1 1-1h1.5c0.175 0 0.34326-0.03168 0.5-0.08789zm-4-12.412v0.24261a0.25739 0.25739 45 0 0 0.25739 0.25739h3.6742l-3.8652 4.6406c-0.42755 0.51306-0.031135 1.3594 0.63672 1.3594h4.5586a0.23831 0.23831 135 0 0 0.23831-0.23831v-0.089469a0.67223 0.67223 45 0 0-0.67223-0.67223h-3.7614l3.998-4.7949c0.376-0.4512 0.022875-1.2051-0.56445-1.2051h-4a0.5 0.5 135 0 0-0.5 0.5z" color="#000000" fill="#786d7d" style="-inkscape-stroke:none"/></svg>
