<svg width="16" height="16" version="1.1" viewBox="0 0 16 16" xml:space="preserve" xmlns="http://www.w3.org/2000/svg"><path d="m2.2246 0c-0.67058 2.9606e-16 -1.2246 0.55403-1.2246 1.2246v0.77539c0 0.54636 0.45364 1 1 1h1.7734c0.40155 0 0.72656-0.32501 0.72656-0.72656v-0.13672c0-0.076037-0.060679-0.13672-0.13672-0.13672h-2.3633v-0.77539c0-0.13014 0.094468-0.22461 0.22461-0.22461h11.775v1h-8.3047c-0.38392 0-0.69531 0.31139-0.69531 0.69531v0.14453c0 0.088916 0.071236 0.16016 0.16016 0.16016h8.8398c0.54636 0 1-0.45364 1-1v-1c0-0.54636-0.45364-1-1-1h-11.775zm0 4c-0.67058 0-1.2246 0.55403-1.2246 1.2246v0.77539c0 0.54636 0.45364 1 1 1h0.77344c0.40155 0 0.72656-0.32501 0.72656-0.72656v-0.13672c0-0.076037-0.060682-0.13672-0.13672-0.13672h-1.3633v-0.77539c0-0.13014 0.094468-0.22461 0.22461-0.22461h8.7754v1h-6.3047c-0.38392 0-0.69531 0.31139-0.69531 0.69531v0.14453c0 0.088916 0.07124 0.16016 0.16016 0.16016h6.8398c0.54636 0 1-0.45364 1-1v-1c0-0.54636-0.45364-1-1-1h-8.7754zm11.275 3.9785c-0.19235 0-0.3847 0.073643-0.53125 0.2207l-1.8984 1.9004c-0.097609 0.09763-0.097609 0.25589 0 0.35352l0.35156 0.35352c0.09785 0.09891 0.25762 0.09891 0.35547 0l1.2227-1.2227v5.6465c0 0.13807 0.11193 0.25 0.25 0.25h0.5c0.13807 0 0.25-0.11193 0.25-0.25v-5.6465l1.2227 1.2227c0.09785 0.09891 0.25762 0.09891 0.35547 0l0.35156-0.35352c0.097609-0.09763 0.097609-0.25589 0-0.35352l-1.8984-1.9004c-0.14655-0.14706-0.3389-0.2207-0.53125-0.2207zm-11.275 0.021484c-0.67058 0-1.2246 0.55403-1.2246 1.2246v0.80078c0 0.53266 0.44194 0.97461 0.97461 0.97461h1.3633c0.089435 0 0.16211-0.072674 0.16211-0.16211v-0.4082c0-0.23706-0.19263-0.42969-0.42969-0.42969h-1.0703v-0.77539c0-0.13014 0.094466-0.22461 0.22461-0.22461h5.7754v1h-3.8594c-0.077888 0-0.14062 0.062738-0.14062 0.14062v0.33789c0 0.28793 0.23356 0.52148 0.52148 0.52148h3.4785c0.54636 0 1-0.45364 1-1v-1c0-0.54636-0.45364-1-1-1h-5.7754zm0 4c-0.67058 0-1.2246 0.55403-1.2246 1.2246v0.77539c0 0.27614 0.22386 0.5 0.5 0.5h0.22461c0.15162 0 0.27539-0.12378 0.27539-0.27539v-1c0-0.13014 0.094466-0.22461 0.22461-0.22461h2.7754v1h-2.0312c-0.25887 0-0.46875 0.20988-0.46875 0.46875v0.37695c0 0.085517 0.068784 0.1543 0.1543 0.1543h2.3457c0.54636 0 1-0.45364 1-1v-1c0-0.54636-0.45364-1-1-1h-2.7754z" color="#000000" fill="#786d7d" style="-inkscape-stroke:none"/></svg>
