<svg width="16" height="16" version="1.1" xml:space="preserve" xmlns="http://www.w3.org/2000/svg"><g fill="#786d7d"><path d="m2 1c-1.099 0-2 0.901-2 2v10c0 1.099 0.901 2 2 2h12c1.099 0 2-0.901 2-2v-6.3c0-0.11046-0.089543-0.2-0.2-0.2h-0.043c-0.41808 0-0.757 0.33892-0.757 0.757v5.743c0 0.558-0.442 1-1 1h-12c-0.558 0-1-0.442-1-1v-10c0-0.558 0.442-1 1-1h12c0.558 0 1 0.442 1 1v2h-12.865c-0.074951-2.1e-6 -0.13556 0.061051-0.135 0.136v0.469c0 0.21815 0.17685 0.395 0.395 0.395h12.605c0.546 0 1-0.454 1-1v-2c0-1.099-0.902-2-2-2zm9.5 2.236v0.54c5.51e-4 0.12387 0.10112 0.224 0.225 0.224h1.553c0.12261 0 0.222-0.099393 0.222-0.222v-0.558c0-0.1215-0.098497-0.22-0.22-0.22h-1.544c-0.13034 0-0.236 0.10566-0.236 0.236z" color="#000000" style="-inkscape-stroke:none"/><ellipse cx="11.284" cy="3.917" rx=".086" ry=".081"/><path d="m10 7.273v5.493c0 0.35015 0.28385 0.634 0.634 0.634h0.07c0.16364-5.51e-4 0.296-0.13336 0.296-0.297v-6.317c0-0.10272-0.083275-0.186-0.186-0.186h-0.14c-0.37208-5.529e-4 -0.674 0.30092-0.674 0.673z" color="#000000" style="-inkscape-stroke:none"/><path d="m6 7.273v5.493c0 0.35015-0.28385 0.634-0.634 0.634h-0.07c-0.16364-5.51e-4 -0.296-0.13336-0.296-0.297v-6.317c0-0.10272 0.083275-0.186 0.186-0.186h0.14c0.37208-5.529e-4 0.674 0.30092 0.674 0.673z" color="#000000" style="-inkscape-stroke:none"/></g></svg>
