<svg width="16" height="16" version="1.1" viewBox="0 0 16 16" xmlns="http://www.w3.org/2000/svg">
 <circle cx="11" cy="13.399" r="2.6164" fill="#786d7d" opacity=".16" stroke-linejoin="round" stroke-width=".964"/>
 <path d="m2 1c-1.0986 0-2 0.90137-2 2v5.793c0 0.58516 0.23272 1.1468 0.64648 1.5605l1.5 1.5c0.46721 0.46721 1.2398 0.46721 1.707 0l1.5-1.5c0.22651-0.22651 0.53318-0.35352 0.85352-0.35352h0.65234c0.077745 2e-4 0.14082-0.062885 0.14062-0.14062v-0.14453c5.371e-4 -0.39502-0.31983-0.71538-0.71484-0.71484h-0.078125c-0.58517 0-1.1468 0.23272-1.5605 0.64648l-1.5 1.5c-0.085068 0.08507-0.2079 0.08507-0.29297 0l-1.5-1.5c-0.22651-0.22651-0.35352-0.53318-0.35352-0.85352v-5.793c0-0.55821 0.44179-1 1-1h8c0.5582 0 1 0.44179 1 1v5c1.8e-5 0.55229-0.44771 1-1 1h-1.824c-0.14546 0-0.29059 0.25879-0.29059 0.82021 0 0.097171 0.020058 0.17979 0.1146 0.17979h2c1.1046-2.8e-6 2-0.89543 2-2v-5c3e-6 -1.0986-0.90137-2-2-2zm0.1582 2c-0.08727 2.474e-4 -0.15796 0.070933-0.1582 0.1582v0.029297c-3.554e-4 0.44888 0.36362 0.81286 0.8125 0.8125h6.0586c0.071209 3.96e-5 0.12895-0.057697 0.12891-0.12891v-0.10938c-1.442e-4 -0.42063-0.34109-0.76157-0.76172-0.76172zm11.814 0c-0.53118 0-0.97266 0.44147-0.97266 0.97266v5.4277c0 1.7599 0.0033 2.8855-0.10742 3.6289-0.11068 0.74341-0.28472 1.08-0.73633 1.5078l-0.0098 0.0098c-0.63735 0.63735-1.6556 0.63735-2.293 0-0.63735-0.63735-0.63735-1.6556 0-2.293 0.59451-0.59451 1.5211-0.63568 2.1602-0.12109 0.07717 0.06214 0.18968 0.0642 0.25977-0.0059l0.05469-0.05469c0.29001-0.29001 0.29225-0.77269-0.06641-0.96875-0.99497-0.54392-2.2754-0.39652-3.1152 0.44336-1.0195 1.0195-1.0195 2.6875 0 3.707 1.0179 1.0179 2.6813 1.0167 3.7012 2e-3 0.57567-0.54788 0.90221-1.2002 1.0332-2.0801 0.13156-0.88331 0.11918-2.0185 0.11918-3.7754v-5.2305c-8.9e-5 -0.093882 0.07604-0.17001 0.16992-0.16992h0.02344c0.32034 0 0.627 0.127 0.85352 0.35352l0.32031 0.32227c0.0986 0.098933 0.25882 0.098933 0.35742 0l0.01563-0.017578c0.28277-0.27576 0.28889-0.72841 0.013664-1.0117-0.41378-0.41378-0.97538-0.64648-1.5605-0.64648zm-11.584 2c-0.21463 7.39e-5 -0.3886 0.17404-0.38867 0.38867 0.013482 0.35111 0.30905 0.62481 0.66016 0.61133h6.9512c0.21463-7.39e-5 0.3886-0.17404 0.38867-0.38867-0.070258-0.40765-0.45753-0.68128-0.86523-0.61133zm0 2c-0.21463 7.39e-5 -0.3886 0.17404-0.38867 0.38867 0.012413 0.35003 0.30622 0.62372 0.65625 0.61133h2.9551c0.21463-7.39e-5 0.3886-0.17404 0.38867-0.38867v-0.22266c-7.39e-5 -0.21463-0.17404-0.3886-0.38867-0.38867zm4.3984 2.7402h0.00195c0.00199 5.42e-4 0.00394 0.00115 0.00586 0.00195h0.00195c0.00199 5.41e-4 0.00394 0.00115 0.00586 0.00195h0.00195l0.00195 0.00195c0.00199 5.419e-4 0.00394 0.00115 0.00586 0.00195l0.0019637 0.0019656h0.00195l0.01365 0.01365c1.06e-5 6.67e-4 1.06e-5 0.00321 0 0.00391 0.00142 0.0019 0.00272 0.00376 0.00391 0.00586v0.00195c7.478e-4 0.0019 0.0014 0.00386 0.00195 0.00586l0.00195 0.00195v0.00585c7.478e-4 0.0019 0.0014 0.00386 0.00195 0.00586v0.00781c-4.917e-4 0.03138-0.023937 0.056571-0.052734 0.056641-0.028797-7.3e-5 -0.052242-0.025261-0.052734-0.056641-4.945e-4 -0.03215 0.023239-0.058514 0.052734-0.058594z" fill="#786d7d" stroke-linejoin="round" stroke-width=".964"/>
</svg>
