<?xml version="1.0" encoding="UTF-8" standalone="no"?>
<svg
   width="16"
   height="16"
   version="1.1"
   xml:space="preserve"
   id="svg38743"
   sodipodi:docname="view-time-schedule-insert.svg"
   inkscape:version="1.2.2 (b0a8486541, 2022-12-01)"
   xmlns:inkscape="http://www.inkscape.org/namespaces/inkscape"
   xmlns:sodipodi="http://sodipodi.sourceforge.net/DTD/sodipodi-0.dtd"
   xmlns="http://www.w3.org/2000/svg"
   xmlns:svg="http://www.w3.org/2000/svg"><defs
     id="defs38747"><inkscape:path-effect
       effect="fillet_chamfer"
       id="path-effect39544"
       is_visible="true"
       lpeversion="1"
       nodesatellites_param="F,0,0,1,0,0,0,1 @ F,0,0,1,0,0,0,1 @ F,0,0,1,0,0,0,1 @ F,0,0,1,0,0,0,1 @ F,0,0,1,0,0,0,1 @ F,0,0,1,0,0,0,1 @ F,0,0,1,0,0,0,1 @ F,0,0,1,0,0,0,1 @ F,0,0,1,0,0,0,1 @ F,0,0,1,0,0,0,1 @ F,0,0,1,0,0,0,1 @ F,0,0,1,0,0,0,1 @ F,0,0,1,0,0,0,1 @ F,0,0,1,0,0,0,1 @ F,0,0,1,0,0,0,1 @ F,0,0,1,0,0,0,1 @ F,0,0,1,0,0,0,1 @ F,0,0,1,0,0,0,1 @ F,0,0,1,0,0,0,1 @ F,0,0,1,0,0,0,1 | F,0,0,1,0,0,0,1 @ F,0,0,1,0,0,0,1 @ F,0,0,1,0,0,0,1 @ F,0,0,1,0,0,0,1 | F,0,0,1,0,0,0,1 @ F,0,0,1,0,0,0,1 @ F,0,0,1,0,0,0,1 @ F,0,0,1,0,0,0,1 @ F,0,1,1,0,0.75,0,1 @ F,0,0,1,0,0.33,0,1 @ F,0,0,1,0,0,0,1 @ F,0,0,1,0,0,0,1 @ F,0,0,1,0,0,0,1 @ F,0,0,1,0,0,0,1 @ F,0,0,1,0,0,0,1 @ F,0,0,1,0,0,0,1 @ F,0,0,1,0,0,0,1 @ F,0,0,1,0,0,0,1 @ F,0,0,1,0,0,0,1 @ F,0,0,1,0,0,0,1 @ F,0,0,1,0,0,0,1 @ F,0,0,1,0,0,0,1 @ F,0,0,1,0,0,0,1 @ F,0,0,1,0,0,0,1 | F,0,0,1,0,0,0,1 @ F,0,0,1,0,0,0,1 @ F,0,0,1,0,0,0,1 @ F,0,0,1,0,0,0,1 @ F,0,0,1,0,0,0,1 @ F,0,0,1,0,0,0,1 @ F,0,0,1,0,0,0,1 @ F,0,0,1,0,0,0,1 @ F,0,0,1,0,0,0,1 @ F,0,0,1,0,0,0,1 @ F,0,0,1,0,0,0,1 @ F,0,0,1,0,0,0,1 @ F,0,0,1,0,0,0,1 @ F,0,0,1,0,0,0,1 @ F,0,0,1,0,0,0,1 @ F,0,0,1,0,0,0,1 @ F,0,0,1,0,0,0,1 @ F,0,0,1,0,0,0,1 @ F,0,0,1,0,0,0,1 @ F,0,0,1,0,0,0,1 @ F,0,0,1,0,0,0,1 | F,0,0,1,0,0,0,1 @ F,0,0,1,0,0,0,1 @ F,0,0,1,0,0.33,0,1 @ F,0,1,1,0,0.75,0,1 @ F,0,0,1,0,0,0,1 @ F,0,0,1,0,0,0,1 | F,0,0,1,0,0.33,0,1 @ F,0,0,1,0,0.33,0,1 @ F,0,0,1,0,0.33,0,1 @ F,0,0,1,0,0,0,1 @ F,0,0,1,0,0,0,1 @ F,0,0,1,0,0.33,0,1 @ F,0,0,1,0,0.33,0,1 @ F,0,0,1,0,0.33,0,1 @ F,0,0,1,0,0.33,0,1 @ F,0,0,1,0,0,0,1 @ F,0,0,1,0,0,0,1 @ F,0,0,1,0,0.33,0,1 | F,0,0,1,0,0.33,0,1 @ F,0,0,1,0,0,0,1 @ F,0,0,1,0,0.33,0,1 @ F,0,0,1,0,0.33,0,1 @ F,0,0,1,0,0,0,1 @ F,0,0,1,0,0.33,0,1 @ F,0,0,1,0,0.33,0,1 @ F,0,0,1,0,0,0,1 @ F,0,0,1,0,0.33,0,1 @ F,0,0,1,0,0.33,0,1 @ F,0,0,1,0,0,0,1 @ F,0,0,1,0,0.33,0,1"
       unit="px"
       method="auto"
       mode="F"
       radius="0.75"
       chamfer_steps="1"
       flexible="false"
       use_knot_distance="true"
       apply_no_radius="true"
       apply_with_radius="true"
       only_selected="true"
       hide_knots="false" /></defs><sodipodi:namedview
     id="namedview38745"
     pagecolor="#ffffff"
     bordercolor="#000000"
     borderopacity="0.25"
     inkscape:showpageshadow="2"
     inkscape:pageopacity="0.0"
     inkscape:pagecheckerboard="0"
     inkscape:deskcolor="#ffffff"
     showgrid="true"
     showborder="true"
     inkscape:zoom="32.90625"
     inkscape:cx="4.2241216"
     inkscape:cy="8.4178537"
     inkscape:window-width="2560"
     inkscape:window-height="1355"
     inkscape:window-x="0"
     inkscape:window-y="0"
     inkscape:window-maximized="1"
     inkscape:current-layer="svg38743"><inkscape:grid
       type="xygrid"
       id="grid38866" /><inkscape:grid
       type="xygrid"
       id="grid38868"
       empspacing="1"
       empcolor="#0099e5"
       empopacity="0.07843137"
       spacingy="0.5"
       spacingx="0.5" /></sodipodi:namedview><path
     id="path38739"
     style="-inkscape-stroke:none;fill:#786d7d;fill-opacity:1"
     d="m 4.1425781,-2 c -0.4101192,-5.389e-4 -0.7427275,0.3320683 -0.7421875,0.7421875 v 0.046875 C 3.400301,-1.0944077 3.4947893,-0.99991 3.6113281,-1 h 1.4589844 c 0.1820596,0 0.3250358,0.15313909 0.3847656,0.32421875 C 5.5915479,-0.28487203 5.9668716,0 6.4003906,0 H 9.5996094 C 10.024139,0 10.391906,-0.27389451 10.535156,-0.65234375 10.604256,-0.83490339 10.758858,-1 10.955078,-1 h 1.478516 c 0.09177,1.8715e-4 0.166195,-0.074242 0.166015,-0.1660156 V -1.34375 C 12.599177,-1.7060092 12.305619,-1.99957 11.943359,-2 h -1.34375 C 10.134301,-2 9.736766,-1.6714373 9.6289062,-1.2363281 9.5973324,-1.1089585 9.4928279,-1 9.3613281,-1 H 6.6777344 C 6.5246546,-1 6.4038881,-1.1269177 6.3613281,-1.2734375 6.2404083,-1.6897467 5.8521798,-2 5.4003906,-2 Z m -0.4628906,0.7265625 c 0.051114,-0.00918 0.062672,0.033203 0.0625,0.0625 -1.703e-4,0.02895 -0.028783,0.062021 -0.0625,0.0625 -0.034287,3.175e-4 -0.062011,-0.028215 -0.0625,-0.0625 -3.207e-4,-0.034858 0.02819,-0.056338 0.0625,-0.0625 z M 2,-1 C 0.9010022,-1 0,-0.0989978 0,1 v 10 c 0,1.656896 1.3431034,3 3,3 h 6.833984 c 0.414214,0 0.448863,-0.156395 0.1291103,-0.418748 C 9.8368829,13.477697 9.7170278,13.366429 9.6042368,13.248039 9.4785579,13.116122 9.2389728,13 9.0567188,13 H 3 C 1.8954022,13 1,12.104568 1,11 V 1 C 1,0.44200112 1.4420012,0 2,0 H 2.1640625 C 2.2949323,0 2.3984475,0.10761526 2.4296875,0.234375 2.5371173,0.67007412 2.9346616,1 3.4003906,1 H 4.8671875 C 5.1064771,0.9995671 5.2353214,0.79655579 5.3007812,0.56640625 l 0.099609,-0.3515625 C 5.4328436,0.10075397 5.3041567,8.999982e-5 5.1855469,0 h -1.46875 C 3.5417573,0 3.4049292,-0.1452872 3.3496094,-0.31054688 3.2166996,-0.70761608 2.8383498,-1 2.4003906,-1 Z m 11.599609,0 c -0.476018,0 -0.881955,0.34491278 -0.978515,0.79492188 C 12.597135,-0.09340835 12.506948,0 12.392578,0 h -1.632812 c -0.08825,4.97439e-4 -0.184677,0.07537742 -0.160157,0.16015625 l 0.09961,0.34570313 C 10.775043,0.76798884 10.920491,0.99992 11.193359,1 h 1.40625 C 13.083879,1 13.494771,0.6430997 13.582031,0.18164062 13.600805,0.08235883 13.682073,0 13.783203,0 H 14 c 0.557998,0 1,0.44200112 1,1 V 3 H 2.1347656 C 2.0598148,2.9999979 1.99944,3.0617678 2,3.1367188 v 0.46875 C 2,3.8236182 2.1763818,4 2.3945312,4 H 15 c 0.545998,0 1,-0.454001 1,-1 V 1 c 0,-1.0989978 -0.902002,-2 -2,-2 z m 2.158203,5.5 C 15.339734,4.5 15,4.8397333 15,5.2578125 v 1.7910937 c 0,0.182254 0.116404,0.4214815 0.248708,0.5467541 0.11689,0.1106776 0.226901,0.228224 0.329466,0.3519663 C 15.84211,8.2660602 16,8.2306198 16,7.8164062 V 4.6992188 C 16,4.588759 15.911241,4.5 15.800781,4.5 Z M 2,5.33 V 7.67 A 0.33,0.33 45 0 0 2.33,8 H 2.67 A 0.33,0.33 135 0 0 3,7.67 V 7 H 7 V 7.67 A 0.33,0.33 45 0 0 7.33,8 H 7.67 A 0.33,0.33 135 0 0 8,7.67 V 5.33 A 0.33,0.33 45 0 0 7.67,5 H 7.33 A 0.33,0.33 135 0 0 7,5.33 V 6 H 3 V 5.33 A 0.33,0.33 45 0 0 2.67,5 H 2.33 A 0.33,0.33 135 0 0 2,5.33 Z m 10,3 V 10 H 10.33 A 0.33,0.33 135 0 0 10,10.33 v 0.34 A 0.33,0.33 45 0 0 10.33,11 L 12,11 v 1.67 A 0.33,0.33 45 0 0 12.33,13 h 0.34 A 0.33,0.33 135 0 0 13,12.67 V 11 h 1.67 A 0.33,0.33 135 0 0 15,10.67 V 10.33 A 0.33,0.33 45 0 0 14.67,10 H 13 V 8.33 A 0.33,0.33 45 0 0 12.67,8 H 12.33 A 0.33,0.33 135 0 0 12,8.33 Z"
     transform="translate(0,2)" /></svg>
