<svg width="16" height="16" version="1.1" xml:space="preserve" xmlns="http://www.w3.org/2000/svg"><path d="m4.1855 1.2988c-0.10272 0-0.18555 0.082824-0.18555 0.18555v1.5156h-0.95703c-0.29994-1.55e-4 -0.54312 0.24303-0.54297 0.54297v0.22656c-1.11e-4 0.12733 0.10314 0.23058 0.23047 0.23047h1.2695v2h-0.95703c-0.29994-1.55e-4 -0.54312 0.24303-0.54297 0.54297v0.22656c-1.11e-4 0.12733 0.10314 0.23058 0.23047 0.23047h1.2695v2h-1.2695c-0.12733-1.106e-4 -0.23058 0.10314-0.23047 0.23047v0.53906c-1.11e-4 0.12733 0.10314 0.23058 0.23047 0.23047h1.2695v2h-0.95703c-0.29994-1.55e-4 -0.54312 0.24303-0.54297 0.54297v0.22656c-1.11e-4 0.12733 0.10314 0.23058 0.23047 0.23047h1.2695v1.5039c0 0.16364 0.13324 0.29632 0.29688 0.29688h0.068359c0.35015 0 0.63477-0.28462 0.63477-0.63476v-1.166h3v1.166c0 0.35015 0.28462 0.63476 0.63477 0.63476h0.068359c0.16364-5.51e-4 0.29688-0.13324 0.29688-0.29688v-1.5039h3v1.166c0 0.35015 0.28462 0.63476 0.63477 0.63476h0.06836c0.16364-5.51e-4 0.29687-0.13324 0.29687-0.29688v-1.5039h1.2695c0.12733 1.11e-4 0.23058-0.10314 0.23047-0.23047v-0.53906c1.11e-4 -0.12733-0.10314-0.23058-0.23047-0.23047h-1.2695v-2h1.0273c0.26116 2.82e-4 0.47294-0.2115 0.47266-0.47266v-0.29688c1.11e-4 -0.12733-0.10314-0.23058-0.23047-0.23047h-1.2695v-2h1.2695c0.12733 1.11e-4 0.23058-0.10314 0.23047-0.23047v-0.53906c1.11e-4 -0.12733-0.10314-0.23058-0.23047-0.23047h-1.2695v-2h1.2695c0.12733 1.11e-4 0.23058-0.10314 0.23047-0.23047v-0.53906c1.11e-4 -0.12733-0.10314-0.23058-0.23047-0.23047h-1.2695v-1.5156c0-0.10272-0.082817-0.18555-0.18555-0.18555h-0.14062c-0.37208-5.529e-4 -0.67383 0.30175-0.67383 0.67383v1.0273h-3v-1.5156c0-0.10272-0.082817-0.18555-0.18555-0.18555h-0.14062c-0.37208-5.529e-4 -0.67383 0.30175-0.67383 0.67383v1.0273h-3v-1.0273c0-0.37208-0.30175-0.67438-0.67383-0.67383zm0.81445 2.7012h3v2h-3zm4 0h3v2h-3zm-4 3h3v2h-3zm4 0h3v2h-3zm-4 3h3v2h-3zm4 0h3v2h-3z" fill="#786d7d" opacity=".1379" style="-inkscape-stroke:none"/><path d="m3 0c-1.099 0-2 0.901-2 2v12c0 1.099 0.901 2 2 2h11c1.099 0 2-0.901 2-2v-9.3008c0-0.11046-0.088761-0.19922-0.19922-0.19922h-0.042969c-0.41808 0-0.75781 0.33973-0.75781 0.75781v8.7422c0 0.558-0.442 1-1 1h-11c-0.558 0-1-0.442-1-1v-12c0-0.558 0.442-1 1-1h11c0.558 0 1 0.442 1 1v1 1c0.546 0 1-0.454 1-1v-1c0-1.099-0.902-2-2-2h-11zm1 3v1h1v-1h-1zm4 0v1h1v-1h-1zm4 0v1h1v-1h-1zm-8 3v1h1v-1h-1zm4 0v1h1v-1h-1zm4 0v1h1v-1h-1zm-8 3v1h1v-1h-1zm4 0v1h1v-1h-1zm4 0v1h1v-1h-1zm-8 3v1h1v-1h-1zm4 0v1h1v-1h-1zm4 0v1h1v-1h-1z" fill="#786d7d" style="-inkscape-stroke:none"/></svg>
