<svg width="16" height="16" version="1.1" xml:space="preserve" xmlns="http://www.w3.org/2000/svg"><g transform="translate(0,2)" fill="#786d7d"><path d="m4.1426-2c-0.41012-5.389e-4 -0.74273 0.33207-0.74219 0.74219v0.046875c-8.96e-5 0.11653 0.094401 0.21103 0.21094 0.21094h1.459c0.18206 0 0.32504 0.15314 0.38477 0.32422 0.13647 0.39091 0.51179 0.67578 0.94531 0.67578h3.1992c0.42453 0 0.7923-0.27389 0.93555-0.65234 0.069101-0.18256 0.2237-0.34766 0.41992-0.34766h1.4785c0.09177 1.8715e-4 0.1662-0.074246 0.16602-0.16602v-0.17773c-4.32e-4 -0.36226-0.29399-0.65582-0.65625-0.65625h-1.3438c-0.46531 0-0.86284 0.32856-0.9707 0.76367-0.031574 0.12737-0.13608 0.23633-0.26758 0.23633h-2.6836c-0.15308 0-0.27385-0.12692-0.31641-0.27344-0.12092-0.41631-0.50915-0.72656-0.96094-0.72656h-1.2578zm-0.46289 0.72656c0.051114-0.00918 0.062672 0.033203 0.0625 0.0625-1.703e-4 0.02895-0.028783 0.062021-0.0625 0.0625-0.034287 3.175e-4 -0.062011-0.028215-0.0625-0.0625-3.207e-4 -0.034858 0.02819-0.056338 0.0625-0.0625zm-1.6797 0.27344c-1.099 0-2 0.901-2 2v10c0 1.6569 1.3431 3 3 3h10c1.6569 0 3-1.3431 3-3v-6.3008c0-0.11046-0.088761-0.19922-0.19922-0.19922h-0.042969c-0.41808 0-0.75781 0.33973-0.75781 0.75781v5.7422c0 1.1046-0.89543 2-2 2h-10c-1.1046 0-2-0.89543-2-2v-10c0-0.558 0.442-1 1-1h0.16406c0.13087 0 0.23438 0.10762 0.26562 0.23438 0.10743 0.4357 0.50497 0.76562 0.9707 0.76562h1.4668c0.23929-4.329e-4 0.36813-0.20344 0.43359-0.43359l0.099609-0.35156c0.032453-0.11409-0.09623-0.21475-0.21484-0.21484h-1.4688c-0.17504 0-0.31187-0.14529-0.36719-0.31055-0.13291-0.39707-0.51126-0.68945-0.94922-0.68945h-0.40039zm11.6 0c-0.47602 0-0.88196 0.34491-0.97852 0.79492-0.023959 0.11167-0.11415 0.20508-0.22852 0.20508h-1.6328c-0.088245 4.9744e-4 -0.18468 0.075381-0.16016 0.16016l0.09961 0.3457c0.075824 0.26213 0.22127 0.49406 0.49414 0.49414h1.4062c0.48427 0 0.89516-0.3569 0.98242-0.81836 0.018774-0.099282 0.10004-0.18164 0.20117-0.18164h0.2168c0.558 0 1 0.442 1 1v2h-12.865c-0.074951-2.1e-6 -0.13533 0.061769-0.13477 0.13672v0.46875c0 0.21815 0.17638 0.39453 0.39453 0.39453h12.605c0.546 0 1-0.454 1-1v-2c0-1.099-0.902-2-2-2h-0.40039zm-7.0234 6.0059c-0.14253-0.00232-0.2842 0.0046502-0.42578 0.019531-0.75512 0.079351-1.4855 0.40177-2.0625 0.95508-1.154 1.1066-1.4138 2.861-0.62891 4.2539 0.72027 1.2783 2.1568 1.9637 3.582 1.748 0.21346-0.032303 0.33707-0.24839 0.28125-0.45703l-0.097656-0.36524c-0.042297-0.15809-0.20528-0.25164-0.36719-0.22852-0.98707 0.14096-1.969-0.33188-2.4688-1.2188-0.54873-0.97386-0.36931-2.1892 0.4375-2.9629 0.80681-0.77368 2.0266-0.90156 2.9766-0.3125 0.78035 0.48387 1.2093 1.3465 1.1523 2.2305-0.020803 0.32285 0.14369 0.65496 0.45312 0.75195l0.3125 0.097656c0.078806 0.024703 0.16226-0.01983 0.18359-0.099609 0.39712-1.4853-0.22275-3.0705-1.5391-3.8867-0.55202-0.34229-1.1715-0.51534-1.7891-0.52539zm3.918 0c-0.17154 9.252e-4 -0.34325 0.014331-0.51563 0.041016-0.20654 0.031973-0.32748 0.24136-0.27344 0.44336l0.13086 0.49219c0.0255 0.09531 0.12383 0.15141 0.2207 0.13281 1.0446-0.20057 2.1047 0.2958 2.6133 1.2461 0.53692 1.0032 0.31358 2.2352-0.54102 2.9863-0.8546 0.75117-2.1072 0.81548-3.0332 0.1543-0.79295-0.5662-1.1595-1.5308-0.97656-2.457 0.051501-0.26081-0.060442-0.54313-0.30664-0.64453l-0.38477-0.1582c-0.085944-0.035399-0.18557 0.0042591-0.2168 0.091797-0.5233 1.4671-0.012629 3.1224 1.2656 4.0352 1.3241 0.94546 3.1334 0.85343 4.3555-0.2207 1.222-1.0741 1.5451-2.8566 0.77734-4.291-0.62382-1.1655-1.8388-1.8584-3.1152-1.8516z" style="-inkscape-stroke:none"/></g></svg>
