<?xml version="1.0" encoding="UTF-8" standalone="no"?>
<svg
   viewBox="0 0 16 16"
   version="1.1"
   id="svg2823"
   sodipodi:docname="view-pages-facing-first-centered.svg"
   inkscape:version="1.2.2 (b0a8486541, 2022-12-01)"
   xmlns:inkscape="http://www.inkscape.org/namespaces/inkscape"
   xmlns:sodipodi="http://sodipodi.sourceforge.net/DTD/sodipodi-0.dtd"
   xmlns="http://www.w3.org/2000/svg"
   xmlns:svg="http://www.w3.org/2000/svg">
  <defs
     id="defs2827">
    <inkscape:path-effect
       effect="fillet_chamfer"
       id="path-effect3451"
       is_visible="true"
       lpeversion="1"
       nodesatellites_param="F,0,0,1,0,0,0,1 @ F,0,0,1,0,0,0,1 @ F,0,0,1,0,0,0,1 @ F,0,0,1,0,0,0,1 @ F,0,0,1,0,0,0,1 @ F,0,0,1,0,0.33,0,1 @ F,0,0,1,0,0.33,0,1 @ F,0,0,1,0,0,0,1 @ F,0,0,1,0,0,0,1 @ F,0,0,1,0,0,0,1 @ F,0,0,1,0,0,0,1 @ F,0,0,1,0,0,0,1 @ F,0,0,1,0,0,0,1 @ F,0,0,1,0,0,0,1 @ F,0,0,1,0,0,0,1 @ F,0,0,1,0,0,0,1 @ F,0,0,1,0,0,0,1 @ F,0,1,1,0,0.25,0,1 @ F,0,0,1,0,0.75,0,1 @ F,0,0,1,0,0,0,1 @ F,0,0,1,0,0,0,1 @ F,0,0,1,0,0,0,1 @ F,0,0,1,0,0,0,1 @ F,0,0,1,0,0,0,1 @ F,0,0,1,0,0,0,1"
       unit="px"
       method="auto"
       mode="F"
       radius="0.25"
       chamfer_steps="1"
       flexible="false"
       use_knot_distance="true"
       apply_no_radius="true"
       apply_with_radius="true"
       only_selected="true"
       hide_knots="false" />
    <inkscape:path-effect
       effect="fillet_chamfer"
       id="path-effect3443"
       is_visible="true"
       lpeversion="1"
       nodesatellites_param="F,0,0,1,0,0,0,1 @ F,0,0,1,0,2.5,0,1 @ F,0,0,1,0,1,0,1 @ F,0,0,1,0,1,0,1 @ F,0,0,1,0,1,0,1 @ F,0,0,1,0,0.5,0,1 @ F,0,0,1,0,1,0,1 @ F,0,0,1,0,0,0,1"
       unit="px"
       method="auto"
       mode="F"
       radius="0"
       chamfer_steps="1"
       flexible="false"
       use_knot_distance="true"
       apply_no_radius="true"
       apply_with_radius="true"
       only_selected="false"
       hide_knots="false" />
  </defs>
  <sodipodi:namedview
     id="namedview2825"
     pagecolor="#ffffff"
     bordercolor="#000000"
     borderopacity="0.25"
     inkscape:showpageshadow="2"
     inkscape:pageopacity="0.0"
     inkscape:pagecheckerboard="0"
     inkscape:deskcolor="#ffffff"
     showgrid="false"
     showborder="false"
     inkscape:zoom="11.313708"
     inkscape:cx="9.9878833"
     inkscape:cy="12.020815"
     inkscape:window-width="2560"
     inkscape:window-height="1355"
     inkscape:window-x="0"
     inkscape:window-y="0"
     inkscape:window-maximized="1"
     inkscape:current-layer="svg2823">
    <inkscape:grid
       type="xygrid"
       id="grid2946" />
    <inkscape:grid
       type="xygrid"
       id="grid2948"
       spacingx="0.5"
       spacingy="0.5"
       empcolor="#0099e5"
       empopacity="0.08235294"
       empspacing="1" />
  </sodipodi:namedview>
  <style
     type="text/css"
     id="current-color-scheme">
        .ColorScheme-Text {
            color:#232629;
        }</style>
  <path
     id="rect2950"
     style="color:#000000;fill:#786d7d;-inkscape-stroke:none"
     d="M 5.5 0 C 4.6774968 0 4 0.67749684 4 1.5 L 4 7.5 C 4 8.3225032 4.6774968 9 5.5 9 L 9 9 C 10.539611 9 11.817202 7.8272881 11.982422 6.3300781 C 12.002413 6.1489198 11.852176 6 11.669922 6 L 11.330078 6 C 11.147824 6 11.001943 6.1484407 10.972656 6.328125 C 10.817438 7.2804179 9.9984877 8 9 8 L 5.5 8 C 5.2179359 8 5 7.7820641 5 7.5 L 5 1.5 C 5 1.2179359 5.2179359 1 5.5 1 L 10.5 1 C 10.782064 1 11 1.2179359 11 1.5 L 11 4 L 9.5 4 C 8.6774968 4 8 4.6774968 8 5.5 L 8 6.75 A 0.25 0.25 0 0 0 8.25 7 A 0.75 0.75 0 0 0 9 6.25 L 9 5.5 C 9 5.2179359 9.2179359 5 9.5 5 L 11 5 C 11.546361 5 12 4.5463614 12 4 L 12 1.5 C 12 0.67749684 11.322503 0 10.5 0 L 5.5 0 z M 3 10 C 2.4546502 10 2 10.454651 2 11 L 2 15 C 2 15.545349 2.4546502 16 3 16 L 6 16 C 6.5453498 16 7 15.545349 7 15 L 7 11 C 7 10.454651 6.5453498 10 6 10 L 3 10 z M 10 10 C 9.4546502 10 9 10.454651 9 11 L 9 15 C 9 15.545349 9.4546502 16 10 16 L 13 16 C 13.545349 16 14 15.545349 14 15 L 14 11 C 14 10.454651 13.545349 10 13 10 L 10 10 z M 3 11 L 6 11 L 6 15 L 3 15 L 3 11 z M 10 11 L 13 11 L 13 15 L 10 15 L 10 11 z " />
</svg>
