<svg xmlns="http://www.w3.org/2000/svg" xml:space="preserve" width="16" height="16"><g fill="#786d7d"><path d="M2 1C.901 1 0 1.901 0 3v10c0 1.099.901 2 2 2h12c1.099 0 2-.901 2-2V6.7a.2.2 0 0 0-.2-.2h-.042a.757.757 0 0 0-.758.758V13c0 .558-.442 1-1 1H5.514a1.07 1.07 0 0 0-.596.182l-.205.136a.504.504 0 0 1-.547.01l-.254-.156A1.14 1.14 0 0 0 3.311 14H2c-.56 0-1-.442-1-1v-.875a2.75 2.75 0 0 0-.259-1.16A1.296 1.296 0 0 1 .75 9.887v-.002A2.846 2.846 0 0 0 1 8.719v-5.72c0-.557.442-1 1-1h12c.558 0 1 .443 1 1v2H2.135A.135.135 0 0 0 2 5.136v.47A.395.395 0 0 0 2.395 6H15c.546 0 1-.454 1-1V3c0-1.099-.902-2-2-2H2zm9.736 2a.236.236 0 0 0-.236.236v.54a.225.225 0 0 0 .225.224h1.552a.222.222 0 0 0 .223-.223v-.556A.22.22 0 0 0 13.28 3h-1.544zm-2.55 3.6A.186.186 0 0 0 9 6.785v6.319a.297.297 0 0 0 .297.296h.068a.634.634 0 0 0 .635-.634V7.273a.673.673 0 0 0-.674-.673h-.14zm-4.965.9A.22.22 0 0 0 4 7.719v1.28c0 1.1.901 2 2 2h.889a.612.612 0 0 0 .611-.61v-.075A.314.314 0 0 0 7.186 10H6c-.558 0-1-.442-1-1V8a.5.5 0 0 0-.5-.5h-.28zM1.754 10a.254.254 0 0 0-.254.254v.55c0 .108.087.196.195.196H3c.558 0 1 .442 1 1v1.21c0 .16.13.29.29.29h.339A.37.37 0 0 0 5 13.129V12c0-1.099-.901-2-2-2H1.754z" color="#000" style="-inkscape-stroke:none"/><ellipse cx="11.284" cy="3.917" rx=".086" ry=".081"/><path d="M8.5 7v6" color="#000" style="-inkscape-stroke:none"/></g></svg>