<svg width="16" height="16" version="1.1" xml:space="preserve" xmlns="http://www.w3.org/2000/svg"><g fill="#786d7d"><path d="m6.7363 2.9805c-0.89612 0.002231-1.7422 0.7197-1.7422 1.7109v0.58008c-0.00109 0.21241 0.23679 0.33868 0.41211 0.21875l0.29492-0.20117c0.18304-0.12447 0.2927-0.33138 0.29297-0.55273v-0.044922c0-0.589 0.59756-0.92054 1.0977-0.60938l4.332 2.752c0.14092 0.087683 0.14092 0.24435 0 0.33203l-4.332 2.752c-0.50009 0.31117-1.0977-0.02038-1.0977-0.60938v-1.6367c1.211e-4 -0.32801-0.36243-0.52647-0.63867-0.34961l-0.24219 0.1543c-0.074456 0.047794-0.11938 0.13027-0.11914 0.21875v1.6133c-9e-7 1.3216 1.5048 2.1553 2.627 1.457l4.3301-2.75c0.73487-0.45725 0.73487-1.574 0-2.0312l-4.3301-2.75c-0.28054-0.17456-0.58606-0.25465-0.88477-0.25391zm-1.2363 3.0176c-0.27614 0-0.5 0.22386-0.5 0.5s0.22386 0.5 0.5 0.5 0.5-0.22386 0.5-0.5-0.22386-0.5-0.5-0.5z" color="#000000" stroke-linejoin="round" style="-inkscape-stroke:none"/><g transform="translate(15.538 22.765)"><path d="m-8.1286 16.95c-0.51289 0-1.0256 0.1936-1.4141 0.58203l-6.8789 6.8789c-0.77686 0.77686-0.77686 2.0513 0 2.8281l3.5859 3.5859c0.32001 0.32001 0.75447 0.5 1.207 0.5h7.25a0.75 0.75 0 0 0 0.75-0.75 0.25 0.25 0 0 0-0.25-0.25h-7.75c-0.18773 0-0.36726-0.07429-0.5-0.20703l-3.5859-3.5859c-0.39471-0.39471-0.39471-1.0194 0-1.4141l6.8789-6.8789c0.39471-0.39471 1.0194-0.39471 1.4141 0l3.8789 3.8789c0.39471 0.39471 0.39471 1.0194 0 1.4141l-4.5859 4.5859-3.6162-3.6162a0.75 0.75 0 0 0-1.0607 0 0.24995 0.24995 0 0 0 7.5e-5 0.35348l3.9697 3.9697c0.38634 0.38634 1.0277 0.38634 1.4141 0l4.5859-4.5859c0.77686-0.77686 0.77686-2.0513 0-2.8281l-3.8789-3.8789c-0.38843-0.38843-0.90117-0.58203-1.4141-0.58203z" color="#000000" display="none" style="-inkscape-stroke:none;paint-order:markers stroke fill"/></g><path d="m1 3v8c0 1.1046 0.89543 2 2 2h4.5903a0.40969 0.40969 45 0 1 0.40969 0.4097v1.2432a0.34714 0.34714 135 0 1-0.34714 0.34714h-2.1504a0.50241 0.50241 135 0 0-0.50241 0.50241v0.22731a0.27028 0.27028 45 0 0 0.27028 0.27028h6.4931a0.23659 0.23659 135 0 0 0.23659-0.23659v-0.11582a0.64759 0.64759 45 0 0-0.64759-0.64759h-1.9993a0.35315 0.35315 45 0 1-0.35315-0.35315v-1.3136a0.33326 0.33326 135 0 1 0.33326-0.33326h4.6667c1.1046 0 2-0.89543 2-2v-8c0-1.0447-0.80095-1.9023-1.8223-1.9922-0.097874-0.0086185-0.17773 0.071853-0.17773 0.1701v0.64125c0 0.099889 0.08175 0.17917 0.1799 0.197 0.46642 0.084732 0.8201 0.49299 0.8201 0.98386v8c0 0.55228-0.44772 1-1 1h-11c-0.55228 0-1-0.44772-1-1v-8c0-0.55228 0.44772-1 1-1h9.8044c0.108 0 0.19752-0.088533 0.17668-0.19433-0.090452-0.45927-0.49534-0.80567-0.98113-0.80567h-9c-1.1046 0-2 0.89543-2 2z" stroke-linejoin="round" stroke-width="1.4512"/></g></svg>
