<?xml version="1.0" encoding="UTF-8" standalone="no"?>
<svg
   viewBox="0 0 16 16"
   version="1.1"
   id="svg8054"
   sodipodi:docname="view-object-histogram-logarithmic.svg"
   inkscape:version="1.2.2 (b0a8486541, 2022-12-01)"
   xmlns:inkscape="http://www.inkscape.org/namespaces/inkscape"
   xmlns:sodipodi="http://sodipodi.sourceforge.net/DTD/sodipodi-0.dtd"
   xmlns="http://www.w3.org/2000/svg"
   xmlns:svg="http://www.w3.org/2000/svg">
  <sodipodi:namedview
     id="namedview8056"
     pagecolor="#ffffff"
     bordercolor="#000000"
     borderopacity="0.25"
     inkscape:showpageshadow="2"
     inkscape:pageopacity="0.0"
     inkscape:pagecheckerboard="0"
     inkscape:deskcolor="#d1d1d1"
     showgrid="false"
     inkscape:zoom="34.953796"
     inkscape:cx="1.459069"
     inkscape:cy="5.6360116"
     inkscape:window-width="2560"
     inkscape:window-height="1355"
     inkscape:window-x="0"
     inkscape:window-y="0"
     inkscape:window-maximized="1"
     inkscape:current-layer="svg8054">
    <inkscape:grid
       type="xygrid"
       id="grid8175" />
    <inkscape:grid
       type="xygrid"
       id="grid8177"
       empspacing="1"
       spacingx="0.5"
       spacingy="0.5"
       empcolor="#0099e5"
       empopacity="0.07843137" />
  </sodipodi:namedview>
  <defs
     id="defs3051">
    <inkscape:path-effect
       effect="fillet_chamfer"
       id="path-effect9353"
       is_visible="true"
       lpeversion="1"
       nodesatellites_param="F,0,1,1,0,0.25,0,1 @ F,0,0,1,0,0,0,1 @ F,0,0,1,0,0,0,1 @ F,0,1,1,0,0.25,0,1 @ F,0,0,1,0,0.75,0,1 @ F,0,0,1,0,0,0,1 @ F,0,0,1,0,0,0,1 @ F,0,0,1,0,0.75,0,1"
       unit="px"
       method="auto"
       mode="F"
       radius="0.25"
       chamfer_steps="1"
       flexible="false"
       use_knot_distance="true"
       apply_no_radius="true"
       apply_with_radius="true"
       only_selected="true"
       hide_knots="false" />
    <inkscape:path-effect
       effect="fillet_chamfer"
       id="path-effect9347"
       is_visible="true"
       lpeversion="1"
       nodesatellites_param="F,0,0,1,0,0.33,0,1 @ F,0,0,1,0,0,0,1 @ F,0,0,1,0,0.5,0,1 @ F,0,0,1,0,0,0,1 @ F,0,0,1,0,0.5,0,1 @ F,0,0,1,0,0,0,1 @ F,0,0,1,0,0.5,0,1 @ F,0,0,1,0,0.33,0,1 @ F,0,0,1,0,0.33,0,1 @ F,0,0,1,0,0,0,1 @ F,0,1,1,0,0.5,0,1 @ F,0,0,1,0,0,0,1 @ F,0,1,1,0,0.5,0,1 @ F,0,0,1,0,0,0,1 @ F,0,0,1,0,0,0,1 @ F,0,1,1,0,0.5,0,1 @ F,0,0,1,0,0,0,1 @ F,0,1,1,0,0.5,0,1 @ F,0,0,1,0,0,0,1 @ F,0,0,1,0,0.33,0,1 @ F,0,0,1,0,0.33,0,1 @ F,0,0,1,0,0.5,0,1 @ F,0,0,1,0,0,0,1 @ F,0,0,1,0,0.33,0,1 @ F,0,0,1,0,0.33,0,1 @ F,0,0,1,0,0,0,1 @ F,0,0,1,0,0,0,1 @ F,0,0,1,0,0.5,0,1 @ F,0,0,1,0,0,0,1 @ F,0,0,1,0,0.5,0,1 @ F,0,0,1,0,0,0,1 @ F,0,0,1,0,0.33,0,1"
       unit="px"
       method="auto"
       mode="F"
       radius="0.5"
       chamfer_steps="1"
       flexible="false"
       use_knot_distance="true"
       apply_no_radius="true"
       apply_with_radius="true"
       only_selected="true"
       hide_knots="false" />
    <inkscape:path-effect
       effect="fillet_chamfer"
       id="path-effect9343"
       is_visible="true"
       lpeversion="1"
       nodesatellites_param="F,0,0,1,0,0,0,1 @ F,0,0,1,0,1,0,1 @ F,0,0,1,0,0,0,1"
       unit="px"
       method="auto"
       mode="F"
       radius="0"
       chamfer_steps="1"
       flexible="false"
       use_knot_distance="true"
       apply_no_radius="true"
       apply_with_radius="true"
       only_selected="false"
       hide_knots="false" />
    <style
       type="text/css"
       id="current-color-scheme">
      .ColorScheme-Text {
        color:#232629;
      }
      </style>
  </defs>
  <path
     style="opacity:0.15;fill:#786d7d;fill-opacity:1;stroke:none;stroke-width:1;stroke-dasharray:none;stroke-opacity:1"
     d="M 3,8 H 4 L 7,6 V 5 h 1 v 2 l 1,1 2,2 h 2 v 3 H 3 Z"
     id="path9345"
     sodipodi:nodetypes="cccccccccccc" />
  <path
     id="path8179"
     style="color:#000000;fill:#786d7d;-inkscape-stroke:none"
     d="M 2.25 2 A 0.25 0.25 0 0 0 2 2.25 L 2 12.5 C 2 13.322503 2.6774968 14 3.5 14 L 13.75 14 A 0.25 0.25 0 0 0 14 13.75 A 0.75 0.75 0 0 0 13.25 13 L 3.5 13 C 3.2179359 13 3 12.782064 3 12.5 L 3 2.75 A 0.75 0.75 0 0 0 2.25 2 z M 7.3300781 2 A 0.33 0.33 0 0 0 7 2.3300781 L 7 4 L 6.5 4 A 0.5 0.5 0 0 0 6 4.5 L 6 6 L 5.5 6 A 0.5 0.5 0 0 0 5 6.5 L 5 7 L 4.5 7 A 0.5 0.5 0 0 0 4 7.5 L 4 8.6699219 A 0.33 0.33 0 0 0 4.3300781 9 L 4.6699219 9 A 0.33 0.33 0 0 0 5 8.6699219 L 5 8 L 5.5 8 A 0.5 0.5 0 0 0 6 7.5 L 6 7 L 6.5 7 A 0.5 0.5 0 0 0 7 6.5 L 7 5 L 8 5 L 8 7.5 A 0.5 0.5 0 0 0 8.5 8 L 9 8 L 9 9.5 A 0.5 0.5 0 0 0 9.5 10 L 12 10 L 12 10.669922 A 0.33 0.33 0 0 0 12.330078 11 L 12.669922 11 A 0.33 0.33 0 0 0 13 10.669922 L 13 9.5 A 0.5 0.5 0 0 0 12.5 9 L 12 9 L 12 6.3300781 A 0.33 0.33 0 0 0 11.669922 6 L 11.330078 6 A 0.33 0.33 0 0 0 11 6.3300781 L 11 9 L 10 9 L 10 7.5 A 0.5 0.5 0 0 0 9.5 7 L 9 7 L 9 4.5 A 0.5 0.5 0 0 0 8.5 4 L 8 4 L 8 2.3300781 A 0.33 0.33 0 0 0 7.6699219 2 L 7.3300781 2 z " />
</svg>
