<svg width="16" height="16" version="1.1" xml:space="preserve" xmlns="http://www.w3.org/2000/svg"><path d="m12.431 4.5582-0.23576 0.23576c-0.119 0.119-0.09487 0.27935 0.05061 0.36395 1.0737 0.62442 2.0078 1.48 2.6851 2.5195 0.03258 0.05001 0.07616 0.18452 0.07617 0.32227 8e-6 0.13775-0.04363 0.27232-0.07617 0.32227-1.4834 2.2768-4.1923 3.6801-6.9258 3.6777-0.76999-6.76e-4 -1.5372-0.11462-2.2759-0.32663-0.17547-0.05036-0.42058 0.0075-0.54968 0.13655l-0.3188 0.31879c-0.12847 0.12847-0.095385 0.28624 0.076222 0.34588 0.98172 0.34119 2.0206 0.5245 3.0681 0.52541 3.0734 0.0027 6.081-1.5502 7.7637-4.1328 0.17581-0.26984 0.2383-0.56981 0.23828-0.86719-1.7e-5 -0.29738-0.06247-0.59736-0.23828-0.86719-0.7012-1.0762-1.6335-1.971-2.7036-2.651-0.18921-0.12024-0.47569-0.081813-0.63422 0.076722zm-1.4218 1.4218-0.29619 0.29619c-0.10617 0.10617-0.18865 0.31433-0.20233 0.46378-0.051991 0.56789-0.29734 1.116-0.72428 1.5429-0.38716 0.38716-0.87469 0.62591-1.3862 0.70625-0.2353 0.036963-0.56693 0.16678-0.73557 0.33541l-0.36689 0.36689c-0.11307 0.11307-0.079664 0.23983 0.077576 0.26864 1.1116 0.20367 2.2856-0.13771 3.1181-0.97016 0.73194-0.73195 1.0839-1.7255 1.0195-2.7109-0.0065-0.099388-0.03619-0.19322-0.08308-0.27916-0.08281-0.15176-0.29779-0.1427-0.42068-0.01981z" color="#000000" fill="#786d7d" fill-opacity=".5" stroke-linejoin="round" style="-inkscape-stroke:none"/><path d="m12.877 1.6891c-0.15083-2.438e-4 -0.29557 0.05948-0.40234 0.16602l-10.98 10.98c-0.12089 0.12078-0.12089 0.31672 0 0.4375l0.26953 0.26953c0.12078 0.12089 0.31672 0.12089 0.4375 0l11.164-11.164c0.12089-0.12078 0.12089-0.31672 0-0.4375l-0.08789-0.085937c-0.10629-0.10606-0.25024-0.16574-0.40039-0.16602zm-4.8672 1.3105c-1.583-4.08e-5 -2.9762 1.0696-3.3867 2.6016-0.23653 0.88275-0.11247 1.7957 0.29688 2.5625l0.75195-0.75195c-0.18567-0.48303-0.22362-1.0243-0.082031-1.5527 0.29459-1.0994 1.2859-1.8594 2.4199-1.8594 0.23227-2.008e-4 0.46395 0.010576 0.6949 0.030902 0.17421 0.015332 0.41511-0.0667 0.53878-0.19037l0.44283-0.44283c0.11178-0.11178 0.076941-0.2287-0.078742-0.25609-0.52618-0.092573-1.0609-0.14208-1.5978-0.14162zm-4.0938 1c-0.022117 8.019e-4 -0.044225 0.0062668-0.066406 0.017578-1.3883 0.70801-2.6935 1.7609-3.5937 3.1113-0.17988 0.26982-0.24172 0.5732-0.24219 0.87109-4.71e-4 0.2979 0.06032 0.59737 0.23633 0.86719 0.51749 0.79332 1.1619 1.488 1.8945 2.0723l0.71484-0.71484c-0.69046-0.53359-1.2952-1.1722-1.7715-1.9023-0.032558-0.049912-0.074435-0.18551-0.074219-0.32227 2.17e-4 -0.13675 0.042409-0.26868 0.074219-0.31641 0.64616-0.96923 1.5609-1.7887 2.5645-2.4062 0.32999-0.20306 0.55318-0.65545 0.45117-1.0293-0.012213-0.044757-0.025132-0.089052-0.039062-0.13672-0.020958-0.071712-0.082085-0.11373-0.14844-0.11133z" color="#000000" fill="#786d7d" stroke-linejoin="round" style="-inkscape-stroke:none"/></svg>
