<svg width="16" height="16" version="1.1" viewBox="0 0 16 16" xml:space="preserve" xmlns="http://www.w3.org/2000/svg"><path d="m8.5 3c-0.277 0-0.5 0.223-0.5 0.5v2c0-0.277-0.223-0.5-0.5-0.5s-0.5 0.223-0.5 0.5v1c0-0.277-0.223-0.5-0.5-0.5s-0.5 0.223-0.5 0.5v1.5h-1v-0.5c0-0.277-0.223-0.5-0.5-0.5s-0.5 0.223-0.5 0.5v-1c0-0.277-0.223-0.5-0.5-0.5s-0.5 0.223-0.5 0.5v1.5h-0.5c-0.277 0-0.5 0.223-0.5 0.5s0.223 0.5 0.5 0.5h0.5v2c0 0.277 0.223 0.5 0.5 0.5s0.5-0.223 0.5-0.5v-1.5c0 0.277 0.223 0.5 0.5 0.5s0.5-0.223 0.5-0.5v-0.5h1v1.5c0 0.277 0.223 0.5 0.5 0.5s0.5-0.223 0.5-0.5v1c0 0.277 0.223 0.5 0.5 0.5s0.5-0.223 0.5-0.5v1.5c0 0.277 0.223 0.5 0.5 0.5s0.5-0.223 0.5-0.5v-3.5c0 0.277 0.223 0.5 0.5 0.5s0.5-0.223 0.5-0.5v-0.5h1v2.5c0 0.277 0.223 0.5 0.5 0.5s0.5-0.223 0.5-0.5v-1c0 0.277 0.223 0.5 0.5 0.5s0.5-0.223 0.5-0.5v-1.5h0.5c0.277 0 0.5-0.223 0.5-0.5s-0.223-0.5-0.5-0.5h-0.5v-1.5c0-0.277-0.223-0.5-0.5-0.5s-0.5 0.223-0.5 0.5v-1c0-0.277-0.223-0.5-0.5-0.5s-0.5 0.223-0.5 0.5v2.5h-1v-0.5c0-0.277-0.223-0.5-0.5-0.5s-0.5 0.223-0.5 0.5v-4c0-0.277-0.223-0.5-0.5-0.5z" fill="#786d7d" opacity=".6"/><path d="m2.6953 0.99805c-0.03121 0.00485-0.054418 0.033037-0.054688 0.066406-3.46e-4 0.037839 0.028693 0.068633 0.064453 0.068359 0.03576 2.739e-4 0.064803-0.03052 0.064453-0.068359-4.228e-4 -0.0033-0.0010531-0.0065656-0.0019531-0.0097656-4.23e-4 -0.0033-0.0011531-0.0065656-0.0019531-0.0097656-5.66e-4 -0.00198-0.0011531-0.0039394-0.0019531-0.0058594-5.66e-4 -0.00198-0.0011532-0.0039394-0.0019531-0.0058594-0.0012-0.00202-0.0025063-0.0039794-0.0039063-0.0058593-0.0012-0.00202-0.0025063-0.0039794-0.0039063-0.0058594l-0.0019531-0.0019532-0.0039062-0.0039062c-0.0019-0.00141-0.0037594-0.0027163-0.0058594-0.0039062l-0.0019531-0.0019532c-0.0019-0.00141-0.0037594-0.0027162-0.0058594-0.0039062-0.0019-0.00141-0.0037594-0.0027163-0.0058594-0.0039063-0.0019-7.499e-4 -0.0038594-0.0014031-0.0058594-0.0019531-0.0018999-7.499e-4 -0.0038593-0.0014031-0.0058593-0.0019531-0.0032-2.632e-4 -0.0064657-2.632e-4 -0.0097657 0h-0.0019531c-0.0032-2.632e-4 -0.0064756-2.636e-4 -0.0097656 0zm1.5762 0.0019531c-0.1494-5.3668e-4 -0.27094 0.12014-0.27148 0.26953v0.10742c-2.323e-4 0.3442 0.27885 0.62305 0.62305 0.62305h8.877c0.28206 0 0.5 0.21794 0.5 0.5v11c0 0.28206-0.21794 0.5-0.5 0.5h-11c-0.28206 0-0.5-0.21794-0.5-0.5v-11c0-0.25088 0.1716-0.451 0.4082-0.49219 0.04969-0.00865 0.091797-0.049097 0.091797-0.099609v-0.4082c0-0.27614-0.23091-0.50701-0.49023-0.41602-0.58491 0.20524-1.0098 0.76498-1.0098 1.416v11c0 0.8225 0.6775 1.5 1.5 1.5h11c0.8225 0 1.5-0.6775 1.5-1.5v-11c0-0.8225-0.6775-1.5-1.5-1.5h-9.2285z" fill="#786d7d"/></svg>
