<svg xmlns="http://www.w3.org/2000/svg" xml:space="preserve" width="16" height="16"><path fill="#786d7d" d="M2 1C.901 1 0 1.901 0 3v10c0 1.099.901 2 2 2h12c1.099 0 2-.901 2-2V6.7a.2.2 0 0 0-.2-.2h-.042a.757.757 0 0 0-.758.758v.562c0 .515.166 1.003.363 1.479.134.322.072.667-.097.972-.187.34-.266.75-.266 1.137V13c0 .558-.442 1-1 1H2c-.558 0-1-.442-1-1v-1.695c0-.514-.14-.746-.319-1.335-.105-.346-.086-.66.14-1.05.201-.35.203-.782.179-1.186V3c0-.558.442-1 1-1h12c.558 0 1 .442 1 1v2H2.135A.135.135 0 0 0 2 5.135v.47c0 .218.177.395.395.395H15c.546 0 1-.454 1-1V3c0-1.099-.902-2-2-2zm9.736 2a.236.236 0 0 0-.236.236v.54c0 .123.1.224.225.224h1.552c.123 0 .223-.1.223-.223v-.556A.22.22 0 0 0 13.28 3zm-.45.836c-.05 0-.09.036-.089.082 0 .045.04.08.088.08.048 0 .086-.036.086-.08a.078.078 0 0 0-.03-.06.092.092 0 0 0-.057-.021zM2.537 9a.634.634 0 0 0-.635.635v.068c0 .164.133.297.297.297h11.918a.186.186 0 0 0 .185-.186v-.14A.673.673 0 0 0 13.63 9z" color="#000" style="-inkscape-stroke:none"/></svg>