<svg width="16" height="16" version="1.1" xml:space="preserve" xmlns="http://www.w3.org/2000/svg"><path d="m2.5 1c-1.1769-3e-6 -1.844 1.4502-1.0781 2.3438l4.373 5.1016c0.13238 0.15444 0.20508 0.35128 0.20508 0.55469v4.3465c0 0.3588 0.14278 0.70333 0.39648 0.95703l0.68945 0.68945c0.33819 0.33819 0.8382 0.40144 1.2227 0.24219 0.38446-0.15925 0.69141-0.55688 0.69141-1.0352v-5.2c0-0.15494 0.042185-0.30607 0.1208-0.43756 0.040896-0.068403 0.061641-0.17773 0.033711-0.25247l-0.16992-0.45475a0.30267 0.30267 9.8314 0 0-0.51487-0.089224l-0.024401 0.028924c-0.28756 0.33551-0.44531 0.76319-0.44531 1.2051v5.2c0 0.07526-0.0262 0.09144-0.074219 0.11133-0.048019 0.01989-0.079595 0.02783-0.13281-0.02539l-0.68945-0.68945c-0.06644-0.066441-0.10352-0.15604-0.10352-0.25v-4.3465c0-0.44189-0.15773-0.86957-0.44531-1.2051l-4.373-5.1016c-0.257-0.29984-0.076542-0.69336 0.31836-0.69336h10c0.3949-1.5e-6 0.57536 0.39352 0.31836 0.69336l-3.0418 3.5499a1.0337 1.0337 101.63 0 0-0.20178 0.98066l0.073471 0.23533a0.20024 0.20024 11.604 0 0 0.34331 0.070494l0.17247-0.20161 3.4141-3.9844c0.7659-0.89356 0.098752-2.3438-1.0781-2.3438z" color="#000000" fill="#786d7d" style="-inkscape-stroke:none"/></svg>
