<?xml version="1.0" encoding="UTF-8"?>
<svg width="16" height="16" version="1.1" xml:space="preserve" xmlns="http://www.w3.org/2000/svg"><path d="m2 1c-1.099 0-2 0.901-2 2v11c0 1.099 0.901 2 2 2h12c1.099 0 2-0.901 2-2v-7.0996c0-0.11046-0.088762-0.20117-0.19922-0.20117h-0.042969c-0.41886-5.537e-4 -0.75837 0.33895-0.75781 0.75781v6.543c0 0.558-0.442 1-1 1h-12c-0.558 0-1-0.442-1-1v-11c0-0.558 0.442-1 1-1h12c0.558 0 1 0.442 1 1v2h-12.865c-0.074558 0-0.13477 0.060207-0.13477 0.13477v0.4707c0 0.218 0.17653 0.39453 0.39453 0.39453h12.605c0.546 0 1-0.454 1-1v-2c0-1.099-0.902-2-2-2h-12zm9.7363 2c-0.13034 0-0.23633 0.10599-0.23633 0.23633v0.53906c0 0.123 0.09961 0.22461 0.22461 0.22461h1.5527c0.123 0 0.22266-0.099656 0.22266-0.22266v-0.55664c5.54e-4 -0.12189-0.098809-0.2207-0.2207-0.2207h-1.543zm-0.4707 0.81836c-0.04546 0.00692-0.078155 0.045818-0.078125 0.091797 0 0.052 0.040797 0.09375 0.091797 0.09375 0.124 0 0.124-0.18555 0-0.18555-0.0043-3.134e-4 -0.009372-3.134e-4 -0.013672 0zm-8.9512 3.1816a0.31449 0.31449 0 0 0-0.31445 0.31445v0.29883a0.38647 0.38647 0 0 0 0.38672 0.38672h1.3711a0.24218 0.24218 0 0 0 0.24219-0.24219v-0.14453a0.6129 0.6129 0 0 0-0.61328-0.61328h-1.0723zm2.9297 0a0.24436 0.24436 0 0 0-0.24414 0.24414v0.25586a0.50082 0.50082 0 0 0 0.5 0.5h1.2246a0.27477 0.27477 0 0 0 0.27539-0.27539v-0.10938a0.61494 0.61494 0 0 0-0.61523-0.61523h-1.1406zm3.0703 0a0.31449 0.31449 0 0 0-0.31445 0.31445v0.29883a0.38647 0.38647 0 0 0 0.38672 0.38672h5.3711a0.24218 0.24218 0 0 0 0.24219-0.24219v-0.14453a0.6129 0.6129 0 0 0-0.61328-0.61328h-5.0723zm-5.9414 2a0.37299 0.37299 0 0 0-0.37305 0.37305v0.23633a0.39033 0.39033 0 0 0 0.39062 0.39062h1.4141a0.19472 0.19472 0 0 0 0.19531-0.19531v-0.4668a0.33759 0.33759 0 0 0-0.33789-0.33789h-1.2891zm3.248 0a0.62171 0.62171 0 0 0-0.62109 0.62109v0.18359a0.19577 0.19577 0 0 0 0.19531 0.19531h1.0605a0.74411 0.74411 0 0 0 0.74414-0.74414v-0.074219a0.18072 0.18072 0 0 0-0.18164-0.18164h-1.1973zm2.752 0a0.37299 0.37299 0 0 0-0.37305 0.37305v0.23633a0.39033 0.39033 0 0 0 0.39062 0.39062h2.4141a0.19472 0.19472 0 0 0 0.19531-0.19531v-0.4668a0.33759 0.33759 0 0 0-0.33789-0.33789h-2.2891zm-5.6289 2a0.74411 0.74411 0 0 0-0.74414 0.74414v0.074218a0.18072 0.18072 0 0 0 0.18164 0.18164h1.1973a0.62171 0.62171 0 0 0 0.62109-0.62109v-0.18359a0.19577 0.19577 0 0 0-0.19531-0.19531h-1.0605zm2.4512 0a0.19472 0.19472 0 0 0-0.19531 0.19531v0.4668a0.33759 0.33759 0 0 0 0.33789 0.33789h1.2891a0.37299 0.37299 0 0 0 0.37305-0.37305v-0.23633a0.39033 0.39033 0 0 0-0.39062-0.39062h-1.4141zm3.5488 0a0.74411 0.74411 0 0 0-0.74414 0.74414v0.074218a0.18072 0.18072 0 0 0 0.18164 0.18164h5.1973a0.62171 0.62171 0 0 0 0.62109-0.62109v-0.18359a0.19577 0.19577 0 0 0-0.19531-0.19531h-5.0605zm-6.4688 2a0.27477 0.27477 0 0 0-0.27539 0.27539v0.10938a0.61494 0.61494 0 0 0 0.61523 0.61523h1.1406a0.24436 0.24436 0 0 0 0.24414-0.24414v-0.25586a0.50082 0.50082 0 0 0-0.5-0.5h-1.2246zm2.9668 0a0.24218 0.24218 0 0 0-0.24219 0.24219v0.14453a0.6129 0.6129 0 0 0 0.61328 0.61328h1.0723a0.31449 0.31449 0 0 0 0.31445-0.31445v-0.29883a0.38647 0.38647 0 0 0-0.38672-0.38672h-1.3711zm3.0332 0a0.27477 0.27477 0 0 0-0.27539 0.27539v0.10938a0.61494 0.61494 0 0 0 0.61523 0.61523h2.1406a0.24436 0.24436 0 0 0 0.24414-0.24414v-0.25586a0.50082 0.50082 0 0 0-0.5-0.5h-2.2246z" fill="#786d7d" style="-inkscape-stroke:none"/></svg>
