<svg width="16" height="16" version="1.1" xml:space="preserve" xmlns="http://www.w3.org/2000/svg"><path d="m4.1426 0c-0.41012-5.389e-4 -0.74273 0.33207-0.74219 0.74219v0.046875c-8.96e-5 0.11653 0.094401 0.21103 0.21094 0.21094h1.459c0.18206 0 0.32504 0.15314 0.38477 0.32422 0.13647 0.39091 0.51179 0.67578 0.94531 0.67578h3.1992c0.42453 0 0.7923-0.27389 0.93555-0.65234 0.0691-0.18256 0.2237-0.34766 0.41992-0.34766h1.4785c0.09177 1.872e-4 0.1662-0.074246 0.16602-0.16602v-0.17773c-4.32e-4 -0.36226-0.29399-0.65582-0.65625-0.65625h-1.3438c-0.46531 0-0.86284 0.32856-0.9707 0.76367-0.031574 0.12737-0.13608 0.23633-0.26758 0.23633h-2.6836c-0.15308 0-0.27385-0.12692-0.31641-0.27344-0.12092-0.41631-0.50915-0.72656-0.96094-0.72656zm-0.46289 0.72656c0.051114-0.00918 0.062672 0.033203 0.0625 0.0625-1.703e-4 0.02895-0.028783 0.062021-0.0625 0.0625-0.034287 3.175e-4 -0.062011-0.028215-0.0625-0.0625-3.207e-4 -0.034858 0.02819-0.056338 0.0625-0.0625zm-1.6797 0.27344c-1.099 0-2 0.901-2 2v10c0 1.6569 1.3431 3 3 3h2.2929a0.36816 0.36816 117.5 0 0 0.30161-0.57928l-0.091751-0.13107a0.67905 0.67905 27.504 0 0-0.5563-0.28964h-1.9464c-1.1046 0-2-0.89543-2-2v-10c0-0.558 0.442-1 1-1h0.16406c0.13087 0 0.23438 0.10762 0.26562 0.23438 0.10743 0.4357 0.50497 0.76562 0.9707 0.76562h1.4668c0.23929-4.329e-4 0.36813-0.20344 0.43359-0.43359l0.099609-0.35156c0.032453-0.11409-0.09623-0.21475-0.21484-0.21484h-1.4688c-0.17504 0-0.31187-0.14529-0.36719-0.31055-0.13291-0.39707-0.51126-0.68945-0.94922-0.68945zm11.6 0c-0.47602 0-0.88196 0.34491-0.97852 0.79492-0.023959 0.11167-0.11415 0.20508-0.22852 0.20508h-1.6328c-0.08825 4.974e-4 -0.18468 0.075381-0.16016 0.16016l0.09961 0.3457c0.075824 0.26213 0.22127 0.49406 0.49414 0.49414h1.4062c0.48427 0 0.89516-0.3569 0.98242-0.81836 0.018774-0.099282 0.10004-0.18164 0.20117-0.18164h0.2168c0.558 0 1 0.442 1 1v2h-12.865c-0.074951-2.1e-6 -0.13533 0.061769-0.13477 0.13672v0.46875c0 0.21815 0.17638 0.39453 0.39453 0.39453h12.605c0.546 0 1-0.454 1-1v-2c0-1.099-0.902-2-2-2zm2.1582 5.5c-0.41808 0-0.75781 0.33973-0.75781 0.75781v5.7422c0 1.1046-0.89543 2-2 2h-4.5c-0.83374 0-1.4991-0.66626-1.498-1.5l0.00195-1.0098-0.00655-1.056a0.63941 0.63941 71.971 0 0-0.12016-0.36918l-0.72364-1.0069a0.094708 0.094708 108.07 0 1 0.047382-0.14526l1.205-0.39536a0.54681 0.54681 144.08 0 0 0.27005-0.19561l0.7455-1.0138a0.10433 0.10433 0.10698 0 1 0.16834 3.143e-4l0.78059 1.0698a0.3341 0.3341 36.092 0 0 0.16499 0.12027l1.3177 0.43578a0.057611 0.057611 72.08 0 1 0.0286 0.088447l-0.80784 1.1176a0.36159 0.36159 108.07 0 0-0.06854 0.21003l-0.00724 1.4582-1.15-0.37035a1.1414 1.1414 0.089636 0 0-0.69638-0.0011l-0.067095 0.02137a0.49002 0.49002 117.3 0 0-0.318 0.6161l0.12707 0.3975a0.092906 0.092906 27.299 0 0 0.1167 0.06023l0.2597-0.08275a0.74859 0.74859 0.054852 0 1 0.45592 4.37e-4l1.2213 0.39175c0.50368 0.16202 1.0461-0.23068 1.0488-0.75977l0.0074-1.4455a0.2371 0.2371 108.05 0 1 0.04482-0.13752l0.84619-1.1728c0.30979-0.42894 0.10393-1.0663-0.3984-1.2324l-1.3381-0.44362a0.34665 0.34665 36.082 0 1-0.17072-0.12441l-0.83298-1.139c-0.15612-0.21357-0.4025-0.32003-0.64844-0.32031-0.24593-2.867e-4 -0.49182 0.10711-0.64844 0.32031l-0.80018 1.0883a0.52855 0.52855 144.07 0 1-0.26093 0.18907l-1.2846 0.42183c-0.50272 0.16497-0.71109 0.80275-0.40234 1.2324l0.8438 1.1739a0.24126 0.24126 71.967 0 1 0.045353 0.13931l0.00538 0.86062-0.0019545 1.0078c-0.0016585 1.3746 1.1234 2.5 2.498 2.5h4.5c1.6569 0 3-1.3431 3-3v-6.3008c0-0.11046-0.088761-0.19922-0.19922-0.19922z" fill="#786d7d" style="-inkscape-stroke:none"/></svg>
