<?xml version="1.0" encoding="UTF-8" standalone="no"?>
<svg
   width="16"
   height="16"
   version="1.1"
   viewBox="0 0 16 16"
   id="svg6793"
   sodipodi:docname="view-media-artist.svg"
   inkscape:version="1.2.2 (b0a8486541, 2022-12-01)"
   xmlns:inkscape="http://www.inkscape.org/namespaces/inkscape"
   xmlns:sodipodi="http://sodipodi.sourceforge.net/DTD/sodipodi-0.dtd"
   xmlns="http://www.w3.org/2000/svg"
   xmlns:svg="http://www.w3.org/2000/svg">
  <defs
     id="defs6797">
    <inkscape:path-effect
       effect="fillet_chamfer"
       id="path-effect7502"
       is_visible="true"
       lpeversion="1"
       nodesatellites_param="F,0,0,1,0,0,0,1 @ F,0,0,1,0,0,0,1 @ F,0,0,1,0,0,0,1 @ F,0,0,1,0,0,0,1 @ F,0,0,1,0,0,0,1 @ F,0,0,1,0,0,0,1 @ F,0,0,1,0,0,0,1 @ F,0,0,1,0,0,0,1 @ F,0,0,1,0,0,0,1 @ F,0,0,1,0,0,0,1 @ F,0,0,1,0,0,0,1 @ F,0,0,1,0,0,0,1 @ F,0,0,1,0,0,0,1 @ F,0,0,1,0,0,0,1 @ F,0,0,1,0,0,0,1 @ F,0,0,1,0,0,0,1 @ F,0,0,1,0,0,0,1 @ F,0,0,1,0,0,0,1 @ F,0,0,1,0,0,0,1 @ F,0,0,1,0,0,0,1 @ F,0,0,1,0,0,0,1 @ F,0,0,1,0,0,0,1 @ F,0,0,1,0,0,0,1 @ F,0,0,1,0,0,0,1 @ F,0,0,1,0,0,0,1 @ F,0,0,1,0,0,0,1 @ F,0,0,1,0,0,0,1 @ F,0,0,1,0,0.80956971,0,1 @ F,0,0,1,0,0.15384039,0,1 @ F,0,0,1,0,0,0,1 @ F,0,0,1,0,0,0,1 | F,0,0,1,0,0,0,1 @ F,0,0,1,0,0,0,1 @ F,0,0,1,0,0,0,1 @ F,0,0,1,0,0,0,1 @ F,0,0,1,0,0,0,1 @ F,0,0,1,0,0,0,1 @ F,0,0,1,0,0,0,1 @ F,0,0,1,0,0,0,1 @ F,0,0,1,0,0,0,1 @ F,0,0,1,0,0.46697816,0,1 @ F,0,0,1,0,0,0,1 @ F,0,0,1,0,0.23435272,0,1 @ F,0,0,1,0,0,0,1 @ F,0,0,1,0,0,0,1 | F,0,0,1,0,0,0,1 @ F,0,0,1,0,0,0,1 @ F,0,0,1,0,0,0,1 @ F,0,0,1,0,0,0,1 @ F,0,0,1,0,0,0,1 @ F,0,0,1,0,0,0,1 @ F,0,0,1,0,0,0,1 @ F,0,0,1,0,0,0,1 @ F,0,0,1,0,0,0,1 @ F,0,0,1,0,0,0,1 @ F,0,0,1,0,0,0,1 | F,0,0,1,0,0,0,1 @ F,0,0,1,0,0,0,1 @ F,0,0,1,0,0,0,1 @ F,0,0,1,0,0,0,1 @ F,0,0,1,0,0,0,1 @ F,0,0,1,0,0,0,1 @ F,0,0,1,0,0,0,1 @ F,0,0,1,0,0,0,1 @ F,0,0,1,0,0,0,1 @ F,0,0,1,0,0,0,1"
       unit="px"
       method="auto"
       mode="F"
       radius="0"
       chamfer_steps="1"
       flexible="false"
       use_knot_distance="true"
       apply_no_radius="true"
       apply_with_radius="true"
       only_selected="false"
       hide_knots="false" />
    <inkscape:path-effect
       effect="fillet_chamfer"
       id="path-effect7491"
       is_visible="true"
       lpeversion="1"
       nodesatellites_param="F,0,0,1,0,0,0,1 @ F,0,0,1,0,3.3193398,0,1 @ F,0,0,1,0,0,0,1"
       unit="px"
       method="auto"
       mode="F"
       radius="0"
       chamfer_steps="1"
       flexible="false"
       use_knot_distance="true"
       apply_no_radius="true"
       apply_with_radius="true"
       only_selected="false"
       hide_knots="false" />
    <inkscape:path-effect
       effect="fillet_chamfer"
       id="path-effect7113"
       is_visible="true"
       lpeversion="1"
       nodesatellites_param="F,0,1,1,0,1.5,0,1 @ F,0,1,1,0,1.5,0,1 @ F,0,1,1,0,1.5,0,1 @ F,0,0,1,0,1.5,0,1"
       unit="px"
       method="auto"
       mode="F"
       radius="0"
       chamfer_steps="1"
       flexible="false"
       use_knot_distance="true"
       apply_no_radius="true"
       apply_with_radius="true"
       only_selected="false"
       hide_knots="false" />
  </defs>
  <sodipodi:namedview
     id="namedview6795"
     pagecolor="#ffffff"
     bordercolor="#666666"
     borderopacity="1.0"
     inkscape:showpageshadow="2"
     inkscape:pageopacity="0.0"
     inkscape:pagecheckerboard="0"
     inkscape:deskcolor="#d1d1d1"
     showgrid="true"
     inkscape:zoom="22.950078"
     inkscape:cx="6.928081"
     inkscape:cy="11.742879"
     inkscape:window-width="1552"
     inkscape:window-height="1094"
     inkscape:window-x="3478"
     inkscape:window-y="942"
     inkscape:window-maximized="0"
     inkscape:current-layer="svg6793">
    <inkscape:grid
       type="xygrid"
       id="grid6968"
       spacingx="0.5"
       spacingy="0.5"
       empspacing="2" />
  </sodipodi:namedview>
  <path
     id="path6791"
     style="fill:#786d7d;fill-opacity:1;-inkscape-stroke:none"
     d="M 3.5,0 C 2.1800028,0 1,1.143908 1,2.5 V 14 c 0,1.098644 0.9013561,2 2,2 H 11.059375 12.7 12.989062 c 0.770397,0 1.377908,-0.5053 1.601563,-1.123047 0.223655,-0.617745 -0.05551,-1.265922 -0.511719,-1.886719 -0.615499,-0.837556 -1.399066,-1.532288 -2.401172,-2.099609 -0.08394,-0.03844 -0.171231,-0.05699 -0.257812,-0.05859 -0.259743,-0.0048 -0.510161,0.146599 -0.621094,0.400391 l -0.002,0.0059 c -0.07174,0.16412 0.0023,0.354345 0.166016,0.425781 1.037106,0.483756 1.839924,1.055379 2.477343,2.095704 0.18474,0.301513 0.304875,0.512492 0.208985,0.777343 C 13.553328,14.801963 13.342672,15 12.989062,15 H 12.7 11.059375 3 C 2.4417947,15 2,14.558205 2,14 V 2.5 C 2,1.6943595 2.7734698,1 3.5,1 h 9 C 13.211072,1 14,1.66916 14,2.5 v 8.19043 C 14,11.137543 14.362457,11.5 14.80957,11.5 h 0.03659 C 14.931123,11.5 15,11.431123 15,11.34616 V 2.5 C 15,1.1461144 13.834665,0 12.5,0 Z m 4.5449219,2.8359375 c -2.0807895,10e-8 -3.7773438,1.6985074 -3.7773438,3.7792969 0,0.6444865 0.2323409,1.3841186 0.5058594,1.9785156 0.185059,0.402178 0.6681001,0.5153621 1.0175781,0.2832031 C 5.9010751,8.8038396 5.9305339,8.6556251 5.8652344,8.5410156 5.5897059,8.0574181 5.2675781,7.2762309 5.2675781,6.6152344 c 0,-1.5402925 1.2370513,-2.7792969 2.7773438,-2.7792969 1.540292,-3e-7 2.7792971,1.2390044 2.7792971,2.7792969 0,1.540292 -1.2398051,3.3378531 -2.7792971,3.3769531 C 6.0669485,10.042419 4.191446,10.615852 2.8637869,11.601893 2.656782,11.755634 2.5,12.103604 2.5,12.361509 V 13 c 0,0.01394 4.912e-4,0.02766 0.00145,0.04115 0.00913,0.128005 0.1282933,0.137279 0.2110135,0.03776 1.070308,-1.287655 3.0533024,-1.950526 5.3324551,-2.086724 2.0805904,4.53e-4 3.7792974,-2.2961641 3.7792974,-4.3769536 0,-2.0807895 -1.698508,-3.7792969 -3.779297,-3.7792969 z M 6.0292969,8.984375 c -0.019879,0.00204 -0.03786,0.011032 -0.050781,0.025391 -0.030768,0.03397 -0.025492,0.088488 0.011719,0.1210938 0.037023,0.032366 0.09137,0.030623 0.1210937,-0.00391 L 6.1132812,9.125 c 0.00139,-0.00189 0.0027,-0.00385 0.00391,-0.00586 0.00139,-0.00189 0.0027,-0.00385 0.00391,-0.00586 0.013579,-0.023992 0.013579,-0.054051 0,-0.080078 -0.00383,-0.00635 -0.00843,-0.012258 -0.013672,-0.017578 -0.00187,-0.00204 -0.00382,-0.00399 -0.00586,-0.00586 l -0.00195,-0.00195 C 6.0800328,8.9903085 6.0543025,8.981728 6.0292969,8.984375 Z m 4.9804691,2.394531 c 0.02439,-0.0021 0.04931,0.0065 0.06836,0.02344 0.0086,0.0072 0.01591,0.01578 0.02148,0.02539 0.01358,0.02603 0.01358,0.05609 0,0.08008 l -0.002,0.002 c -0.0012,0.002 -0.0025,0.004 -0.0039,0.0059 -0.0012,0.002 -0.0025,0.004 -0.0039,0.0059 -0.02973,0.03452 -0.08407,0.0363 -0.121094,0.0039 -0.03721,-0.03261 -0.04249,-0.08712 -0.01172,-0.121094 0.01339,-0.01478 0.0321,-0.0238 0.05274,-0.02539 z"
     sodipodi:nodetypes="ssssccssscscccscsccssssssccssssscscsssccsccssccccccccccccccccccccsccccscc" />
</svg>
