<svg width="16" height="16" version="1.1" viewBox="0 0 16 16" xml:space="preserve" xmlns="http://www.w3.org/2000/svg"><path d="m2.2246 0c-0.67058 0-1.2246 0.55403-1.2246 1.2246v0.77539c0 0.54636 0.45364 1 1 1h1.7734c0.40155 0 0.72656-0.32501 0.72656-0.72656v-0.13672c0-0.076037-0.060679-0.13672-0.13672-0.13672h-2.3633v-0.77539c0-0.13014 0.094469-0.22461 0.22461-0.22461h11.775v1h-8.3047c-0.38392 0-0.69531 0.31139-0.69531 0.69531v0.14453c0 0.088916 0.071236 0.16016 0.16016 0.16016h8.8398c0.54636 0 1-0.45364 1-1v-1c0-0.54636-0.45364-1-1-1zm0 4c-0.67058 0-1.2246 0.55403-1.2246 1.2246v0.77539c0 0.54636 0.45364 1 1 1h0.77344c0.40155 0 0.72656-0.32501 0.72656-0.72656v-0.13672c0-0.076037-0.060682-0.13672-0.13672-0.13672h-1.3633v-0.77539c0-0.13014 0.094469-0.22461 0.22461-0.22461h5.7754v1h-3.3047c-0.38392 0-0.69531 0.31139-0.69531 0.69531v0.14453c0 0.088916 0.071241 0.16016 0.16016 0.16016h3.8398c0.54636 0 1-0.45364 1-1v-1c0-0.54636-0.45364-1-1-1zm11.275 0c-0.19235 0-0.3847 0.07364-0.53125 0.2207l-1.8984 1.9004c-0.09761 0.09763-0.09761 0.25589 0 0.35352l0.35156 0.35352c0.09785 0.09891 0.25762 0.09891 0.35547 0l1.2227-1.2227v7.6914l-1.2227-1.2227c-0.09785-0.09891-0.25762-0.09891-0.35547 0l-0.35156 0.35352c-0.09761 0.09763-0.09761 0.25589 0 0.35352l1.8984 1.9004c0.14655 0.14706 0.3389 0.2207 0.53125 0.2207s0.3847-0.07364 0.53125-0.2207l1.8984-1.9004c0.09761-0.09763 0.09761-0.25589 0-0.35352l-0.35156-0.35352c-0.09785-0.09891-0.25762-0.09891-0.35547 0l-1.2227 1.2227v-7.6914l1.2227 1.2227c0.09785 0.09891 0.25762 0.09891 0.35547 0l0.35156-0.35352c0.09761-0.09763 0.09761-0.25589 0-0.35352l-1.8984-1.9004c-0.14655-0.14706-0.3389-0.2207-0.53125-0.2207zm-11.275 4c-0.67058 0-1.2246 0.55403-1.2246 1.2246v0.77539c0 0.54636 0.45364 1 1 1h1.7734c0.40155 0 0.72656-0.32501 0.72656-0.72656v-0.13672c0-0.076037-0.060679-0.13672-0.13672-0.13672h-2.3633v-0.77539c0-0.13014 0.094469-0.22461 0.22461-0.22461h7.7754v1h-4.3047c-0.38392 0-0.69531 0.31139-0.69531 0.69531v0.14453c0 0.088916 0.071236 0.16016 0.16016 0.16016h4.8398c0.54636 0 1-0.45364 1-1v-1c0-0.54636-0.45364-1-1-1zm0 4c-0.67058 0-1.2246 0.55403-1.2246 1.2246v0.77539c0 0.54636 0.45364 1 1 1h0.77344c0.40155 0 0.72656-0.32501 0.72656-0.72656v-0.13672c0-0.076037-0.060682-0.13672-0.13672-0.13672h-1.3633v-0.77539c0-0.13014 0.094469-0.22461 0.22461-0.22461h3.7754v1h-1.3047c-0.38392 0-0.69531 0.31139-0.69531 0.69531v0.14453c0 0.088916 0.07124 0.16016 0.16016 0.16016h1.8398c0.54636 0 1-0.45364 1-1v-1c0-0.54636-0.45364-1-1-1z" color="#000000" fill="#786d7d" style="-inkscape-stroke:none"/></svg>
