<?xml version="1.0" encoding="UTF-8" standalone="no"?>
<svg
   width="16"
   height="16"
   version="1.1"
   viewBox="0 0 16 16"
   xml:space="preserve"
   id="svg6226"
   sodipodi:docname="view-web-browser-dom-tree.svg"
   inkscape:version="1.2.2 (b0a8486541, 2022-12-01)"
   xmlns:inkscape="http://www.inkscape.org/namespaces/inkscape"
   xmlns:sodipodi="http://sodipodi.sourceforge.net/DTD/sodipodi-0.dtd"
   xmlns="http://www.w3.org/2000/svg"
   xmlns:svg="http://www.w3.org/2000/svg"><sodipodi:namedview
     id="namedview6228"
     pagecolor="#ffffff"
     bordercolor="#666666"
     borderopacity="1.0"
     inkscape:showpageshadow="2"
     inkscape:pageopacity="0.0"
     inkscape:pagecheckerboard="0"
     inkscape:deskcolor="#d1d1d1"
     showgrid="true"
     inkscape:zoom="41.278384"
     inkscape:cx="13.263601"
     inkscape:cy="8.9635293"
     inkscape:window-width="2560"
     inkscape:window-height="1355"
     inkscape:window-x="0"
     inkscape:window-y="0"
     inkscape:window-maximized="1"
     inkscape:current-layer="svg6226"><inkscape:grid
       type="xygrid"
       id="grid6347" /><inkscape:grid
       type="xygrid"
       id="grid1083"
       spacingx="0.5"
       spacingy="0.5"
       empcolor="#0099e5"
       empopacity="0.08235294"
       empspacing="1" /></sodipodi:namedview><defs
     id="defs6212"><inkscape:path-effect
       effect="fillet_chamfer"
       id="path-effect2047"
       is_visible="true"
       lpeversion="1"
       nodesatellites_param="F,0,0,1,0,0,0,1 @ F,0,0,1,0,0,0,1 @ F,0,0,1,0,0,0,1 @ F,0,0,1,0,0,0,1 @ F,0,0,1,0,0,0,1 @ F,0,0,1,0,0,0,1 @ F,0,0,1,0,0,0,1 @ F,0,0,1,0,0,0,1 @ F,0,0,1,0,0,0,1 @ F,0,0,1,0,0,0,1 @ F,0,1,1,0,0.25,0,1 @ F,0,0,1,0,1,0,1 @ F,0,0,1,0,0,0,1 | F,0,0,1,0,0,0,1 @ F,0,0,1,0,0,0,1 @ F,0,0,1,0,0,0,1 @ F,0,0,1,0,0,0,1 @ F,0,0,1,0,0,0,1 @ F,0,0,1,0,0,0,1 @ F,0,0,1,0,0,0,1 @ F,0,0,1,0,0,0,1 @ F,0,0,1,0,0,0,1 @ F,0,0,1,0,0,0,1 @ F,0,0,1,0,0,0,1 @ F,0,0,1,0,0,0,1 @ F,0,0,1,0,0,0,1 @ F,0,0,1,0,0,0,1 @ F,0,0,1,0,0,0,1 @ F,0,0,1,0,0,0,1 @ F,0,0,1,0,0,0,1 @ F,0,0,1,0,0,0,1 @ F,0,0,1,0,0,0,1 @ F,0,0,1,0,0,0,1 @ F,0,0,1,0,0,0,1 @ F,0,0,1,0,0,0,1 @ F,0,0,1,0,0,0,1 @ F,0,0,1,0,0,0,1 @ F,0,0,1,0,0,0,1 @ F,0,0,1,0,0,0,1 @ F,0,0,1,0,0,0,1 @ F,0,0,1,0,0,0,1 @ F,0,0,1,0,0,0,1 @ F,0,0,1,0,0,0,1 @ F,0,0,1,0,0,0,1 @ F,0,0,1,0,0,0,1 @ F,0,0,1,0,0,0,1 @ F,0,0,1,0,0,0,1 @ F,0,0,1,0,0,0,1 @ F,0,0,1,0,0,0,1 @ F,0,0,1,0,0,0,1 @ F,0,0,1,0,0,0,1 @ F,0,0,1,0,0,0,1 @ F,0,0,1,0,0,0,1 @ F,0,0,1,0,0,0,1 @ F,0,0,1,0,0,0,1 @ F,0,0,1,0,0,0,1 @ F,0,0,1,0,0,0,1 @ F,0,0,1,0,0,0,1 @ F,0,0,1,0,0,0,1 @ F,0,0,1,0,0,0,1 @ F,0,0,1,0,0,0,1 @ F,0,0,1,0,0,0,1 @ F,0,0,1,0,0,0,1 @ F,0,0,1,0,0,0,1 @ F,0,0,1,0,0,0,1 @ F,0,0,1,0,0,0,1 @ F,0,0,1,0,0,0,1 @ F,0,0,1,0,0,0,1 @ F,0,0,1,0,0,0,1 @ F,0,0,1,0,0,0,1 @ F,0,0,1,0,0,0,1 @ F,0,0,1,0,0,0,1 @ F,0,0,1,0,0,0,1 @ F,0,0,1,0,0,0,1 @ F,0,0,1,0,0,0,1 @ F,0,0,1,0,0,0,1 @ F,0,0,1,0,0,0,1 @ F,0,0,1,0,0,0,1 @ F,0,0,1,0,0,0,1 @ F,0,0,1,0,0,0,1 @ F,0,0,1,0,0,0,1 @ F,0,0,1,0,0,0,1 @ F,0,0,1,0,0,0,1 @ F,0,0,1,0,0,0,1 @ F,0,0,1,0,0,0,1 @ F,0,0,1,0,0,0,1 @ F,0,0,1,0,0,0,1 @ F,0,0,1,0,0,0,1 @ F,0,0,1,0,0,0,1 @ F,0,0,1,0,0,0,1 @ F,0,0,1,0,0,0,1 @ F,0,0,1,0,0,0,1 @ F,0,0,1,0,0,0,1 @ F,0,0,1,0,0,0,1 @ F,0,0,1,0,0,0,1 @ F,0,0,1,0,0,0,1 @ F,0,0,1,0,0,0,1 @ F,0,0,1,0,0,0,1 @ F,0,0,1,0,0,0,1 @ F,0,0,1,0,0,0,1 @ F,0,0,1,0,0,0,1 @ F,0,0,1,0,0,0,1 @ F,0,0,1,0,0,0,1 @ F,0,0,1,0,0,0,1 @ F,0,0,1,0,0,0,1 @ F,0,0,1,0,0,0,1 @ F,0,0,1,0,0,0,1 @ F,0,0,1,0,0,0,1 @ F,0,0,1,0,0,0,1 @ F,0,0,1,0,0,0,1 @ F,0,0,1,0,0,0,1 @ F,0,0,1,0,0,0,1 @ F,0,0,1,0,0,0,1 @ F,0,0,1,0,0,0,1 @ F,0,0,1,0,0,0,1 | F,0,0,1,0,0,0,1 @ F,0,0,1,0,0,0,1 @ F,0,0,1,0,0,0,1 @ F,0,0,1,0,0,0,1 @ F,0,0,1,0,0,0,1 @ F,0,0,1,0,0,0,1 @ F,0,0,1,0,0,0,1 @ F,0,0,1,0,0,0,1 @ F,0,0,1,0,0,0,1 @ F,0,0,1,0,0,0,1 @ F,0,0,1,0,0,0,1 @ F,0,0,1,0,0,0,1 @ F,0,0,1,0,0,0,1 @ F,0,0,1,0,0,0,1 @ F,0,0,1,0,0,0,1 @ F,0,0,1,0,0,0,1 @ F,0,0,1,0,0,0,1 @ F,0,0,1,0,0,0,1 @ F,0,0,1,0,0,0,1 @ F,0,0,1,0,0,0,1 @ F,0,0,1,0,0,0,1 @ F,0,0,1,0,0,0,1 @ F,0,0,1,0,0,0,1 @ F,0,0,1,0,0,0,1 @ F,0,0,1,0,0,0,1 @ F,0,0,1,0,0,0,1 @ F,0,0,1,0,0,0,1 @ F,0,0,1,0,0,0,1 | F,0,0,1,0,0,0,1 @ F,0,0,1,0,0,0,1 @ F,0,0,1,0,0,0,1 @ F,0,0,1,0,0,0,1 @ F,0,0,1,0,0,0,1 @ F,0,0,1,0,0,0,1 @ F,0,0,1,0,0,0,1 @ F,0,0,1,0,0,0,1 @ F,0,0,1,0,0,0,1 @ F,0,0,1,0,0,0,1 @ F,0,0,1,0,0,0,1 @ F,0,0,1,0,0,0,1 @ F,0,0,1,0,0,0,1 @ F,0,0,1,0,0,0,1 @ F,0,0,1,0,0,0,1 @ F,0,0,1,0,0,0,1 @ F,0,0,1,0,0,0,1 @ F,0,0,1,0,0,0,1 @ F,0,0,1,0,0,0,1 @ F,0,0,1,0,0,0,1 @ F,0,0,1,0,0,0,1 @ F,0,0,1,0,0,0,1 @ F,0,0,1,0,0,0,1 @ F,0,0,1,0,0,0,1 @ F,0,0,1,0,0,0,1 @ F,0,0,1,0,0,0,1 @ F,0,0,1,0,0,0,1 @ F,0,0,1,0,0,0,1 @ F,0,0,1,0,0,0,1 @ F,0,0,1,0,0,0,1 @ F,0,0,1,0,0,0,1 @ F,0,0,1,0,0,0,1 @ F,0,0,1,0,0,0,1"
       unit="px"
       method="auto"
       mode="F"
       radius="0.25"
       chamfer_steps="1"
       flexible="false"
       use_knot_distance="true"
       apply_no_radius="true"
       apply_with_radius="true"
       only_selected="true"
       hide_knots="false" /><inkscape:path-effect
       effect="fillet_chamfer"
       id="path-effect2045"
       is_visible="true"
       lpeversion="1"
       nodesatellites_param="F,0,0,1,0,0,0,1 @ F,0,0,1,0,0,0,1 @ F,0,0,1,0,0,0,1 @ F,0,0,1,0,1,0,1 @ F,0,1,1,0,0.25,0,1 @ F,0,0,1,0,0,0,1 @ F,0,0,1,0,0,0,1 @ F,0,0,1,0,0,0,1 @ F,0,0,1,0,0,0,1 @ F,0,0,1,0,0,0,1 @ F,0,0,1,0,0,0,1 @ F,0,0,1,0,0,0,1 | F,0,0,1,0,0,0,1 @ F,0,0,1,0,0,0,1 @ F,0,0,1,0,0,0,1 @ F,0,0,1,0,0,0,1 @ F,0,0,1,0,0,0,1 @ F,0,0,1,0,0,0,1 @ F,0,0,1,0,0,0,1 @ F,0,0,1,0,0,0,1 @ F,0,0,1,0,0,0,1 @ F,0,0,1,0,0,0,1 @ F,0,0,1,0,0,0,1 @ F,0,0,1,0,0,0,1 @ F,0,0,1,0,0,0,1 @ F,0,0,1,0,0,0,1 @ F,0,0,1,0,0,0,1 @ F,0,0,1,0,0,0,1 @ F,0,0,1,0,0,0,1 @ F,0,0,1,0,0,0,1 @ F,0,0,1,0,0,0,1 @ F,0,0,1,0,0,0,1 @ F,0,0,1,0,0,0,1 @ F,0,0,1,0,0,0,1 @ F,0,0,1,0,0,0,1 @ F,0,0,1,0,0,0,1 @ F,0,0,1,0,0,0,1 @ F,0,0,1,0,0,0,1 @ F,0,0,1,0,0,0,1 @ F,0,0,1,0,0,0,1 @ F,0,0,1,0,0,0,1 @ F,0,0,1,0,0,0,1 @ F,0,0,1,0,0,0,1 @ F,0,0,1,0,0,0,1 @ F,0,0,1,0,0,0,1 @ F,0,0,1,0,0,0,1 @ F,0,0,1,0,0,0,1 @ F,0,0,1,0,0,0,1 @ F,0,0,1,0,0,0,1 @ F,0,0,1,0,0,0,1 @ F,0,0,1,0,0,0,1 @ F,0,0,1,0,0,0,1 @ F,0,0,1,0,0,0,1 @ F,0,0,1,0,0,0,1 @ F,0,0,1,0,0,0,1 @ F,0,0,1,0,0,0,1 @ F,0,0,1,0,0,0,1 @ F,0,0,1,0,0,0,1 @ F,0,0,1,0,0,0,1 @ F,0,0,1,0,0,0,1 @ F,0,0,1,0,0,0,1 @ F,0,0,1,0,0,0,1 @ F,0,0,1,0,0,0,1 @ F,0,0,1,0,0,0,1 @ F,0,0,1,0,0,0,1 @ F,0,0,1,0,0,0,1 @ F,0,0,1,0,0,0,1 @ F,0,0,1,0,0,0,1 @ F,0,0,1,0,0,0,1 @ F,0,0,1,0,0,0,1 @ F,0,0,1,0,0,0,1 @ F,0,0,1,0,0,0,1 @ F,0,0,1,0,0,0,1 @ F,0,0,1,0,0,0,1 @ F,0,0,1,0,0,0,1 @ F,0,0,1,0,0,0,1 @ F,0,0,1,0,0,0,1 @ F,0,0,1,0,0,0,1 @ F,0,0,1,0,0,0,1 @ F,0,0,1,0,0,0,1 @ F,0,0,1,0,0,0,1 @ F,0,0,1,0,0,0,1 @ F,0,0,1,0,0,0,1 @ F,0,0,1,0,0,0,1 @ F,0,0,1,0,0,0,1 @ F,0,0,1,0,0,0,1 @ F,0,0,1,0,0,0,1 @ F,0,0,1,0,0,0,1 @ F,0,0,1,0,0,0,1 @ F,0,0,1,0,0,0,1 @ F,0,0,1,0,0,0,1 @ F,0,0,1,0,0,0,1 @ F,0,0,1,0,0,0,1 @ F,0,0,1,0,0,0,1 @ F,0,0,1,0,0,0,1 @ F,0,0,1,0,0,0,1 @ F,0,0,1,0,0,0,1 @ F,0,0,1,0,0,0,1 @ F,0,0,1,0,0,0,1 @ F,0,0,1,0,0,0,1 @ F,0,0,1,0,0,0,1 @ F,0,0,1,0,0,0,1 @ F,0,0,1,0,0,0,1 @ F,0,0,1,0,0,0,1 @ F,0,0,1,0,0,0,1 @ F,0,0,1,0,0,0,1 @ F,0,0,1,0,0,0,1 @ F,0,0,1,0,0,0,1 @ F,0,0,1,0,0,0,1 @ F,0,0,1,0,0,0,1 @ F,0,0,1,0,0,0,1 @ F,0,0,1,0,0,0,1 @ F,0,0,1,0,0,0,1 @ F,0,0,1,0,0,0,1 | F,0,0,1,0,0,0,1 @ F,0,0,1,0,0,0,1 @ F,0,0,1,0,0,0,1 @ F,0,0,1,0,0,0,1 @ F,0,0,1,0,0,0,1 @ F,0,0,1,0,0,0,1 @ F,0,0,1,0,0,0,1 @ F,0,0,1,0,0,0,1 @ F,0,0,1,0,0,0,1 @ F,0,0,1,0,0,0,1 @ F,0,0,1,0,0,0,1 @ F,0,0,1,0,0,0,1 @ F,0,0,1,0,0,0,1 @ F,0,0,1,0,0,0,1 @ F,0,0,1,0,0,0,1 @ F,0,0,1,0,0,0,1 @ F,0,0,1,0,0,0,1 @ F,0,0,1,0,0,0,1 @ F,0,0,1,0,0,0,1 @ F,0,0,1,0,0,0,1 @ F,0,0,1,0,0,0,1 @ F,0,0,1,0,0,0,1 @ F,0,0,1,0,0,0,1 @ F,0,0,1,0,0,0,1 @ F,0,0,1,0,0,0,1 @ F,0,0,1,0,0,0,1 @ F,0,0,1,0,0,0,1 @ F,0,0,1,0,0,0,1 | F,0,0,1,0,0,0,1 @ F,0,0,1,0,0,0,1 @ F,0,0,1,0,0,0,1 @ F,0,0,1,0,0,0,1 @ F,0,0,1,0,0,0,1 @ F,0,0,1,0,0,0,1 @ F,0,0,1,0,0,0,1 @ F,0,0,1,0,0,0,1 @ F,0,0,1,0,0,0,1 @ F,0,0,1,0,0,0,1 @ F,0,0,1,0,0,0,1 @ F,0,0,1,0,0,0,1 @ F,0,0,1,0,0,0,1 @ F,0,0,1,0,0,0,1 @ F,0,0,1,0,0,0,1 @ F,0,0,1,0,0,0,1 @ F,0,0,1,0,0,0,1 @ F,0,0,1,0,0,0,1 @ F,0,0,1,0,0,0,1 @ F,0,0,1,0,0,0,1 @ F,0,0,1,0,0,0,1 @ F,0,0,1,0,0,0,1 @ F,0,0,1,0,0,0,1 @ F,0,0,1,0,0,0,1 @ F,0,0,1,0,0,0,1 @ F,0,0,1,0,0,0,1 @ F,0,0,1,0,0,0,1 @ F,0,0,1,0,0,0,1 @ F,0,0,1,0,0,0,1 @ F,0,0,1,0,0,0,1 @ F,0,0,1,0,0,0,1 @ F,0,0,1,0,0,0,1 @ F,0,0,1,0,0,0,1"
       unit="px"
       method="auto"
       mode="F"
       radius="0.25"
       chamfer_steps="1"
       flexible="false"
       use_knot_distance="true"
       apply_no_radius="true"
       apply_with_radius="true"
       only_selected="true"
       hide_knots="false" /><inkscape:path-effect
       effect="fillet_chamfer"
       id="path-effect2043"
       is_visible="true"
       lpeversion="1"
       nodesatellites_param="F,0,0,1,0,0,0,1 @ F,0,0,1,0,0,0,1 @ F,0,0,1,0,0,0,1 @ F,0,0,1,0,0,0,1 @ F,0,0,1,0,0.75,0,1 @ F,0,0,1,0,0.25,0,1 @ F,0,1,1,0,1,0,1 @ F,0,0,1,0,0,0,1 @ F,0,0,1,0,0,0,1 @ F,0,0,1,0,0,0,1 @ F,0,0,1,0,0,0,1 @ F,0,0,1,0,0,0,1 @ F,0,0,1,0,0,0,1 @ F,0,0,1,0,0,0,1 @ F,0,0,1,0,0,0,1 @ F,0,0,1,0,0,0,1 @ F,0,0,1,0,0,0,1 @ F,0,0,1,0,0,0,1 @ F,0,0,1,0,0,0,1 @ F,0,0,1,0,0,0,1 @ F,0,0,1,0,0,0,1 @ F,0,0,1,0,0,0,1 | F,0,0,1,0,0,0,1 @ F,0,0,1,0,0,0,1 @ F,0,0,1,0,0,0,1 @ F,0,0,1,0,0,0,1 | F,0,0,1,0,0,0,1 @ F,0,0,1,0,0,0,1 @ F,0,0,1,0,0,0,1 @ F,0,0,1,0,0,0,1"
       unit="px"
       method="auto"
       mode="F"
       radius="1"
       chamfer_steps="1"
       flexible="false"
       use_knot_distance="true"
       apply_no_radius="true"
       apply_with_radius="true"
       only_selected="true"
       hide_knots="false" /><style
       id="current-color-scheme"
       type="text/css">
      .ColorScheme-Text {
        color:#232629;
      }
      </style><style
       type="text/css"
       id="style6210">
      .ColorScheme-Text {
        color:#232629;
      }
      </style></defs><path
     id="path6214"
     style="-inkscape-stroke:none;paint-order:markers stroke fill;fill:#786d7d;fill-opacity:1;stroke:none;stroke-opacity:1"
     d="M 8,0 C 3.5885088,0 0,3.5884088 0,8 c 0,4.411492 3.5884088,8 8,8 0.1134852,0 0.2263011,-0.0026 0.3384589,-0.0077 0.5513741,-0.02497 0.5360033,-0.251116 0.171412,-0.65825 C 8.4359873,15.251545 8.3688856,15.162827 8.3094243,15.068753 8.2357031,14.952119 8.1047219,14.857422 8,14.857422 4.2062076,14.857422 1.1425781,11.793792 1.1425781,8 1.1425781,4.2062076 4.2062076,1.1425781 8,1.1425781 c 3.793792,0 6.857422,3.0636295 6.857422,6.8574219 0,0.1057618 0.09655,0.2377883 0.213101,0.3116426 0.09537,0.060434 0.18521,0.128711 0.268625,0.2039459 0.405826,0.3660269 0.629379,0.3819285 0.65334,-0.1694761 C 15.997472,8.2313958 16,8.1160193 16,8 16,3.5885088 12.411592,0 8,0 Z M 9.4746094,1.796875 9.3886719,2.0507812 9.1054688,2.5976562 7.7578125,2.8222656 C 7.6124756,2.8470049 7.492046,2.9487343 7.4433594,3.0878906 L 6.9238281,4.5546875 c -0.047792,0.1347066 -0.021073,0.2846287 0.070312,0.3945313 l 0.5429688,0.65625 c 0.098251,0.1193352 0.2558404,0.1723702 0.40625,0.1367187 0.049072,-0.012123 0.095443,-0.033321 0.1367187,-0.0625 L 8.5898438,5.3242188 c 6.533e-4,-6.488e-4 0.0013,-0.0013 0.00195,-0.00195 L 9.2089844,4.8886719 9.8886719,5.0117188 c 0.0026,6.769e-4 0.0052,0.00133 0.00781,0.00195 l 0.7949221,0.1269531 0.396485,0.7832031 0.07813,0.1582031 -0.375,0.00977 L 10.144531,6.0625 C 10.091911,6.06049 10.039432,6.06912 9.9902344,6.087891 l -0.3085938,0.1171875 -0.09375,-0.072266 0.00977,-0.1914063 C 9.6111013,5.6906516 9.388074,5.492405 9.140625,5.5351562 L 7.9648438,5.7363281 c -0.00722,0.00175 -0.01438,0.0037 -0.021484,0.00586 -0.069795,0.01561 -0.1339712,0.050063 -0.1855469,0.099609 L 7.3710938,6.2128906 c -0.035016,0.033519 -0.063495,0.073257 -0.083984,0.1171875 L 6.9511719,7.0546875 6.6660156,7.4589844 c -0.081869,0.1165993 -0.093842,0.268499 -0.03125,0.3964844 l 0.3378906,0.6972656 c 0.042417,0.088064 0.1162788,0.1570485 0.2070313,0.1933594 l 0.7402344,0.2910156 c 0.1012622,0.039731 0.2144978,0.035484 0.3125,-0.011719 l 0.027344,-0.013672 C 8.4304153,8.7109458 8.6780624,8.4602551 8.9746094,8.2832031 L 8.4882812,8.1445312 C 8.3972972,8.1190512 8.3001644,8.1273769 8.2148438,8.1679688 L 8.0488281,8.2480469 7.609375,8.0742188 7.4394531,7.7226562 7.6113281,7.4785156 c 0.013506,-0.01909 0.025272,-0.039354 0.035156,-0.060547 L 7.9667969,6.7265625 8.2128906,6.4863281 8.8320312,6.3828125 c 0.00789,0.095077 0.050259,0.1839914 0.1191407,0.25 l 0.4296875,0.3242187 c 0.1067685,0.080935 0.2475405,0.1015713 0.3730468,0.054688 l 0.4374998,-0.1660157 0.580078,0.027344 c 0.0085,2.749e-4 0.01693,2.749e-4 0.02539,0 h 0.03711 l -0.08203,0.1699219 c -0.0546,0.1137394 -0.05096,0.2468335 0.0098,0.3574218 L 11.09375,8 h 1.263672 c -0.01939,-0.016314 -0.04032,-0.030705 -0.0625,-0.042969 L 11.830078,7.71875 11.542969,7.1992188 11.710938,6.8476562 c 0.02102,0.00696 0.04258,0.012187 0.06445,0.015625 l 0.521484,0.041016 c 0.09031,0.00709 0.180394,-0.016291 0.255859,-0.066406 l 0.554688,-0.3671875 c 0.09867,-0.067799 0.162301,-0.1757619 0.173828,-0.2949219 l 0.123047,0.1347657 0.06445,0.53125 c 0.03165,0.2701261 0.315173,0.4329807 0.564453,0.3242187 L 14.457031,6.9765625 14.242188,6.4902344 14.193359,6.0878906 c -0.0088,-0.084061 -0.04359,-0.1632789 -0.09961,-0.2265625 l -0.429688,-0.46875 c -0.04048,-0.045015 -0.09054,-0.080387 -0.146484,-0.1035156 L 13.222656,5.1679688 c -0.07487,-0.030587 -0.157173,-0.038069 -0.236328,-0.021484 l -0.345703,0.074219 c -0.233559,0.048654 -0.374735,0.2875671 -0.304687,0.515625 L 12.404297,5.9609375 12.21875,6.0839844 12.068359,6.0722656 11.8125,5.5625 c 2e-6,-6.51e-4 2e-6,-0.0013 0,-0.00195 2e-6,-6.51e-4 2e-6,-0.0013 0,-0.00195 L 11.320312,4.5917969 C 11.262109,4.4767142 11.152598,4.3962123 11.025391,4.375 L 10.03125,4.2148438 9.1855469,4.0605469 C 9.0789303,4.0417101 8.9692096,4.0663269 8.8808594,4.1289062 L 8.125,4.6601562 7.921875,4.8007812 7.7636719,4.609375 8.1269531,3.5839844 9.4375,3.3632812 C 9.5632011,3.3423377 9.671725,3.2634771 9.7304688,3.1503906 L 10.123047,2.3945312 c 0.0085,-0.017685 0.01566,-0.035962 0.02148,-0.054687 l 0.0957,-0.28125 z M 4.4902344,2.9804688 3.9765625,3.4414062 4.109375,3.5898438 4.2988281,3.8964844 4.0546875,4.359375 3.5625,4.9433594 3.2871094,5.2382812 3.0253906,5.4160156 C 2.8657725,5.5244717 2.8261621,5.7427691 2.9375,5.9003906 L 2.9785156,5.9609375 2.8417969,5.9882812 2.4023438,5.8457031 2.1855469,6.4980469 2.7109375,6.671875 c 0.056155,0.018063 0.1160034,0.021426 0.1738281,0.00977 l 0.75,-0.1464844 C 3.8804182,6.4877054 3.9954453,6.2027284 3.8515625,5.9980469 L 3.703125,5.7890625 l 0.00195,-0.00195 c 0.021276,-0.01406 0.040927,-0.030436 0.058594,-0.048828 L 4.0722656,5.40625 c 0.004,-0.00381 0.00791,-0.00772 0.011719,-0.011719 L 4.6054688,4.7753906 c 0.017258,-0.019092 0.032326,-0.040056 0.044922,-0.0625 L 5,4.0429688 C 5.056817,3.9349819 5.052361,3.8050138 4.988281,3.7011719 l -0.3085937,-0.5 C 4.6694132,3.183903 4.6576497,3.1675649 4.6445312,3.1523438 Z m -2.4179688,4.2050781 -0.042969,0.6875 0.9648437,0.058594 0.8203125,0.052734 0.4453125,0.2148438 0.3046875,0.6816406 c 0.026918,0.059703 0.070274,0.1105111 0.125,0.1464844 L 5.1035153,9.298828 5.1093753,9.341797 4.7773441,9.8339845 C 4.742814,9.8850153 4.7225818,9.9443629 4.71875,10.005859 l -0.048828,0.789063 -0.5410157,0.791016 c -0.013978,0.02017 -0.025764,0.04178 -0.035156,0.06445 L 3.8222656,12.322266 3.671875,12.535156 4.2324219,12.935547 4.40625,12.6875 c 0.015587,-0.02122 0.028693,-0.04416 0.039063,-0.06836 l 0.2753906,-0.673829 0.5722657,-0.83789 c 0.035553,-0.05139 0.056481,-0.111471 0.060547,-0.173828 L 5.4003906,10.142578 5.7578125,9.6152344 C 5.8079189,9.5414741 5.8275183,9.4511771 5.8125,9.3632812 L 5.7578125,9.0371094 C 5.7423292,8.942037 5.6878021,8.8577678 5.6074219,8.8046875 L 5.1523438,8.5058594 4.8398438,7.8027344 C 4.8058822,7.7278941 4.7463177,7.6676369 4.671875,7.6328125 L 4.0527344,7.3339844 C 4.0129308,7.314896 3.9698335,7.3036244 3.9257812,7.3007812 L 3.0390625,7.2441406 Z" /><g
     transform="matrix(0.97873036,0,0,0.97873036,0.17466124,0.15602244)"
     fill="none"
     opacity="0.81046"
     stroke="#786d7d"
     stroke-linejoin="round"
     id="g6224" /><path
     id="rect1137"
     style="color:#000000;fill:#786d7d;-inkscape-stroke:none"
     d="m 12,9 c -0.54535,0 -1,0.4546497 -1,1 v 1 H 10 V 10.75 A 0.75,0.75 45 0 0 9.25,10 0.25,0.25 135 0 0 9,10.25 V 13 a 1,1 45 0 0 1,1 h 1 v 1 c 0,0.54535 0.45465,1 1,1 h 2 c 0.54535,0 1,-0.45465 1,-1 v -1 c 0,-0.54535 -0.45465,-1 -1,-1 h -2 -2 v -1 h 2 2 c 0.54535,0 1,-0.45465 1,-1 V 10 C 15,9.4546497 14.54535,9 14,9 Z m 0,1 h 2 v 1 h -2 z m 0,4 h 2 v 1 h -2 z" /></svg>
