<?xml version="1.0" encoding="UTF-8"?>
<svg width="16" height="16" version="1.1" xml:space="preserve" xmlns="http://www.w3.org/2000/svg"><path d="m2 1c-1.099 0-2 0.90101-2 2v10c0 1.099 0.90101 2 2 2h2c1.6569 0 3-1.3431 3-3v-3.6465c-1.318e-4 -0.74747-0.60604-1.3534-1.3535-1.3535h-2.8926c-0.41615 5.209e-4 -0.75339 0.33775-0.75391 0.75391v4.6523c-5.41e-5 0.32794 0.26581 0.5938 0.59375 0.59375h1.6504c0.41754 2.29e-4 0.75609-0.33832 0.75586-0.75586v-0.16602c-1.665e-4 -0.043078-0.035047-0.077958-0.078125-0.078125h-1.791c-0.07212-3.64e-4 -0.1305-0.058739-0.13086-0.13086v-3.707c-3.618e-4 -0.08968 0.072429-0.16247 0.16211-0.16211h2.4453c0.21662 4.65e-4 0.39211 0.17596 0.39258 0.39258v3.6074c0 1.1046-0.89543 2-2 2h-2c-0.558 0-1-0.44201-1-1v-10c0-0.558 0.442-1 1-1h12c0.55799 0 1 0.442 1 1v2h-12.865c-0.074375 1.29e-4 -0.13464 0.060391-0.13477 0.13477v0.4707c0 0.218 0.17653 0.39453 0.39453 0.39453h12.605c0.54599 0 1-0.454 1-1v-2c0-1.099-0.90201-2-2-2zm9.7363 2c-0.1306-1.816e-4 -0.23651 0.10573-0.23633 0.23633v0.53906c0 0.123 0.09961 0.22461 0.22461 0.22461h1.5527c0.123 0 0.22266-0.099657 0.22266-0.22266v-0.55664c3.91e-4 -0.12205-0.098651-0.22109-0.2207-0.2207zm-0.4707 0.81836c-0.04503 0.0073-0.07812 0.046178-0.07813 0.091797 0 0.052 0.0408 0.09375 0.0918 0.09375 0.11535-0.00807 0.11535-0.17748 0-0.18555-0.0046-3.467e-4 -0.0091-3.463e-4 -0.01367-2e-7zm4.4922 2.8809c-0.41871-4.494e-4 -0.75826 0.3391-0.75781 0.75781v5.543c0 0.55799-0.44201 1-1 1h-3.6289c-0.75729 1.3e-4 -1.3712-0.61381-1.3711-1.3711v-4.6289h3.8125c0.10344 2.777e-4 0.18722 0.084062 0.1875 0.1875v3.6953c5.31e-4 0.06494-0.052248 0.11772-0.11719 0.11719h-2.1602c-0.39922-2.54e-4 -0.72291 0.32344-0.72266 0.72266v0.06836c-5.213e-4 0.11563 0.09335 0.2095 0.20898 0.20898h3.2051c0.32376 3.75e-4 0.58631-0.26218 0.58594-0.58594v-4.793c2.6e-5 -0.34303-0.27806-0.62112-0.62109-0.62109h-4.7852c-0.32794-5.41e-5 -0.5938 0.26581-0.59375 0.59375v5.0918c-2.875e-4 1.2784 1.0361 2.3147 2.3145 2.3145h3.6855c1.099 0 2-0.90101 2-2v-6.0996c6.49e-4 -0.11061-0.08861-0.20074-0.19922-0.20117zm-8.818 7.4511-0.27972 0.69931a0.10963 0.10963 55.901 0 0 0.10179 0.15035h1.0592a0.17885 0.17885 135 0 0 0.17885-0.17885v-0.28206a0.53909 0.53909 45 0 0-0.53909-0.53909h-0.29898a0.23917 0.23917 145.9 0 0-0.22207 0.15035z" fill="#786d7d" style="-inkscape-stroke:none"/></svg>
