<?xml version="1.0" encoding="UTF-8" standalone="no"?>
<svg
   version="1.1"
   viewBox="0 0 16 16"
   id="svg5"
   sodipodi:docname="virtual-desktops.svg"
   inkscape:version="1.2.2 (b0a8486541, 2022-12-01)"
   xmlns:inkscape="http://www.inkscape.org/namespaces/inkscape"
   xmlns:sodipodi="http://sodipodi.sourceforge.net/DTD/sodipodi-0.dtd"
   xmlns="http://www.w3.org/2000/svg"
   xmlns:svg="http://www.w3.org/2000/svg">
  <defs
     id="defs9">
    <inkscape:path-effect
       effect="fillet_chamfer"
       id="path-effect559"
       is_visible="true"
       lpeversion="1"
       nodesatellites_param="F,0,0,1,0,0,0,1 @ F,0,0,1,0,0,0,1 @ F,0,0,1,0,0,0,1 @ F,0,0,1,0,0,0,1 @ F,0,0,1,0,0,0,1 @ F,0,0,1,0,0,0,1 @ F,0,0,1,0,0,0,1 @ F,0,0,1,0,0,0,1 | F,0,0,1,0,0,0,1 @ F,0,0,1,0,0,0,1 @ F,0,0,1,0,0,0,1 @ F,0,0,1,0,0,0,1 @ F,0,0,1,0,0.75,0,1 @ F,0,0,1,0,0.25,0,1 @ F,0,0,1,0,0,0,1 @ F,0,0,1,0,0,0,1 @ F,0,0,1,0,0,0,1 @ F,0,0,1,0,0,0,1 @ F,0,0,1,0,0,0,1 @ F,0,0,1,0,0,0,1 @ F,0,0,1,0,0,0,1 @ F,0,0,1,0,0,0,1 @ F,0,0,1,0,0.75,0,1 @ F,0,0,1,0,0.25,0,1 @ F,0,0,1,0,0,0,1 @ F,0,0,1,0,0,0,1 @ F,0,0,1,0,0,0,1 @ F,0,0,1,0,0,0,1 | F,0,0,1,0,0,0,1 @ F,0,0,1,0,0,0,1 @ F,0,0,1,0,0,0,1 @ F,0,0,1,0,0,0,1 @ F,0,0,1,0,0,0,1 @ F,0,0,1,0,0,0,1 @ F,0,0,1,0,0,0,1 @ F,0,0,1,0,0,0,1 | F,0,1,1,0,0.33,0,1 @ F,0,1,1,0,0.33,0,1 @ F,0,1,1,0,0.33,0,1 @ F,0,1,1,0,0.33,0,1 | F,0,0,1,0,0,0,1 @ F,0,0,1,0,0,0,1 @ F,0,0,1,0,0,0,1 @ F,0,0,1,0,0,0,1 @ F,0,0,1,0,0,0,1 @ F,0,0,1,0,0,0,1 @ F,0,0,1,0,0,0,1 @ F,0,0,1,0,0,0,1 | F,0,0,1,0,0,0,1 @ F,0,0,1,0,0,0,1 @ F,0,0,1,0,0,0,1 @ F,0,0,1,0,0,0,1 @ F,0,0,1,0,0,0,1 @ F,0,0,1,0,0,0,1 @ F,0,0,1,0,0,0,1 @ F,0,0,1,0,0,0,1 | F,0,0,1,0,0,0,1 @ F,0,0,1,0,0,0,1 @ F,0,0,1,0,0,0,1 @ F,0,0,1,0,0,0,1 @ F,0,0,1,0,0,0,1 @ F,0,0,1,0,0,0,1 @ F,0,0,1,0,0,0,1 @ F,0,0,1,0,0,0,1 | F,0,0,1,0,0,0,1 @ F,0,0,1,0,0,0,1 @ F,0,0,1,0,0,0,1 @ F,0,0,1,0,0,0,1 @ F,0,0,1,0,0,0,1 @ F,0,0,1,0,0,0,1 @ F,0,0,1,0,0,0,1 @ F,0,0,1,0,0,0,1 | F,0,1,1,0,0.33,0,1 @ F,0,1,1,0,0.33,0,1 @ F,0,1,1,0,0.33,0,1 @ F,0,1,1,0,0.33,0,1"
       unit="px"
       method="auto"
       mode="F"
       radius="0.33"
       chamfer_steps="1"
       flexible="false"
       use_knot_distance="true"
       apply_no_radius="true"
       apply_with_radius="true"
       only_selected="true"
       hide_knots="false" />
  </defs>
  <sodipodi:namedview
     id="namedview7"
     pagecolor="#ffffff"
     bordercolor="#000000"
     borderopacity="0.25"
     inkscape:showpageshadow="2"
     inkscape:pageopacity="0.0"
     inkscape:pagecheckerboard="0"
     inkscape:deskcolor="#d1d1d1"
     showgrid="true"
     inkscape:zoom="32.836271"
     inkscape:cx="10.460993"
     inkscape:cy="6.2126421"
     inkscape:window-width="2560"
     inkscape:window-height="1355"
     inkscape:window-x="0"
     inkscape:window-y="0"
     inkscape:window-maximized="1"
     inkscape:current-layer="svg5">
    <inkscape:grid
       type="xygrid"
       id="grid238" />
    <inkscape:grid
       type="xygrid"
       id="grid240"
       spacingx="0.5"
       spacingy="0.5"
       empspacing="1"
       empcolor="#0099e5"
       empopacity="0.08235294" />
  </sodipodi:namedview>
  <style
     type="text/css"
     id="current-color-scheme">
        .ColorScheme-Text {
            color:#232629;
        }
    </style>
  <path
     id="rect561"
     style="fill:#786d7d;fill-opacity:0.15;stroke:none"
     d="m 10,3 v 5 h 5 V 3 Z m -8,7 v 4 h 5 v -4 z"
     sodipodi:nodetypes="cccccccccc" />
  <path
     id="rect341"
     style="color:#000000;fill:#786d7d;-inkscape-stroke:none"
     d="M 2.5,2 C 1.677651,2 1,2.677651 1,3.5 v 3 C 1,7.322349 1.677651,8 2.5,8 h 4 C 7.322349,8 8,7.322349 8,6.5 v -3 C 8,2.677651 7.322349,2 6.5,2 Z m 8,0 C 9.677651,2 9,2.677651 9,3.5 v 3 C 9,7.322349 9.677651,8 10.5,8 h 0.75 C 11.664214,8 12,7.6642136 12,7.25 12,7.1119288 11.888071,7 11.75,7 H 10.5 C 10.214352,7 10,6.7856477 10,6.5 v -3 C 10,3.2143523 10.214352,3 10.5,3 h 4 C 14.785648,3 15,3.2143523 15,3.5 v 3 C 15,6.7856477 14.785648,7 14.5,7 H 13.75 C 13.335786,7 13,7.3357864 13,7.75 13,7.8880712 13.111929,8 13.25,8 H 14.5 C 15.322349,8 16,7.322349 16,6.5 v -3 C 16,2.677651 15.322349,2 14.5,2 Z m -8,1 h 4 C 6.7856477,3 7,3.2143523 7,3.5 v 3 C 7,6.7856477 6.7856477,7 6.5,7 h -4 C 2.2143523,7 2,6.7856477 2,6.5 v -3 C 2,3.2143523 2.2143523,3 2.5,3 Z M 3,5.33 V 5.67 C 3,5.852254 3.147746,6 3.33,6 H 5.67 C 5.852254,6 6,5.852254 6,5.67 V 5.33 C 6,5.147746 5.852254,5 5.67,5 H 3.33 C 3.147746,5 3,5.147746 3,5.33 Z M 2.5,9 C 1.677651,9 1,9.677651 1,10.5 v 3 C 1,14.322349 1.677651,15 2.5,15 h 4 C 7.322349,15 8,14.322349 8,13.5 v -3 C 8,9.677651 7.322349,9 6.5,9 Z m 8,0 C 9.677651,9 9,9.677651 9,10.5 v 3 c 0,0.822349 0.677651,1.5 1.5,1.5 h 4 c 0.822349,0 1.5,-0.677651 1.5,-1.5 v -3 C 16,9.677651 15.322349,9 14.5,9 Z m -8,1 h 4 C 6.7856477,10 7,10.214352 7,10.5 v 3 C 7,13.785648 6.7856477,14 6.5,14 h -4 C 2.2143523,14 2,13.785648 2,13.5 v -3 C 2,10.214352 2.2143523,10 2.5,10 Z m 8,0 h 4 c 0.285648,0 0.5,0.214352 0.5,0.5 v 3 c 0,0.285648 -0.214352,0.5 -0.5,0.5 h -4 C 10.214352,14 10,13.785648 10,13.5 v -3 C 10,10.214352 10.214352,10 10.5,10 Z m 0.5,2.33 v 0.34 c 0,0.182254 0.147746,0.33 0.33,0.33 h 2.34 C 13.852254,13 14,12.852254 14,12.67 V 12.33 C 14,12.147746 13.852254,12 13.67,12 H 11.33 C 11.147746,12 11,12.147746 11,12.33 Z"
     sodipodi:nodetypes="sssssssssssssssssssssssssssssssssssssssssssssssssssssssssssssssssssssssssssssssssssssssssssssss" />
</svg>
