<?xml version="1.0" encoding="UTF-8" standalone="no"?>
<svg
   version="1.1"
   viewBox="0 0 16 16"
   id="svg5"
   sodipodi:docname="widget-alternatives.svg"
   inkscape:version="1.2.2 (b0a8486541, 2022-12-01)"
   xmlns:inkscape="http://www.inkscape.org/namespaces/inkscape"
   xmlns:sodipodi="http://sodipodi.sourceforge.net/DTD/sodipodi-0.dtd"
   xmlns="http://www.w3.org/2000/svg"
   xmlns:svg="http://www.w3.org/2000/svg">
  <defs
     id="defs9">
    <inkscape:path-effect
       effect="fillet_chamfer"
       id="path-effect1099"
       is_visible="true"
       lpeversion="1"
       nodesatellites_param="F,0,0,1,0,0,0,1 @ F,0,0,1,0,0,0,1 @ F,0,0,1,0,0,0,1 @ F,0,0,1,0,0,0,1 @ F,0,0,1,0,0,0,1 @ F,0,0,1,0,0,0,1 @ F,0,0,1,0,0,0,1 @ F,0,0,1,0,0,0,1 | F,0,0,1,0,0,0,1 @ F,0,0,1,0,0,0,1 @ F,0,0,1,0,0,0,1 @ F,0,0,1,0,0,0,1 @ F,0,0,1,0,0,0,1 @ F,0,0,1,0,0,0,1 @ F,0,0,1,0,0,0,1 @ F,0,0,1,0,0,0,1 | F,0,0,1,0,0.33,0,1 @ F,0,1,1,0,1.5,0,1 @ F,0,0,1,0,0.75,0,1 @ F,0,0,1,0,0.25,0,1 @ F,0,0,1,0,0,0,1 @ F,0,0,1,0,0.33,0,1 | F,0,0,1,0,0.75,0,1 @ F,0,0,1,0,0.25,0,1 @ F,0,0,1,0,0,0,1 @ F,0,0,1,0,0.33,0,1 @ F,0,0,1,0,0.33,0,1 @ F,0,1,1,0,1.5,0,1 | F,0,0,1,0,0,0,1 @ F,0,0,1,0,0,0,1 @ F,0,0,1,0,0,0,1 @ F,0,0,1,0,0,0,1 @ F,0,0,1,0,0,0,1 @ F,0,0,1,0,0,0,1 @ F,0,0,1,0,0,0,1 @ F,0,0,1,0,0,0,1 | F,0,0,1,0,0,0,1 @ F,0,0,1,0,0,0,1 @ F,0,0,1,0,0,0,1 @ F,0,0,1,0,0,0,1 @ F,0,0,1,0,0,0,1 @ F,0,0,1,0,0,0,1 @ F,0,0,1,0,0,0,1 @ F,0,0,1,0,0,0,1"
       unit="px"
       method="auto"
       mode="F"
       radius="1.5"
       chamfer_steps="1"
       flexible="false"
       use_knot_distance="true"
       apply_no_radius="true"
       apply_with_radius="true"
       only_selected="true"
       hide_knots="false" />
  </defs>
  <sodipodi:namedview
     id="namedview7"
     pagecolor="#ffffff"
     bordercolor="#000000"
     borderopacity="0.25"
     inkscape:showpageshadow="2"
     inkscape:pageopacity="0.0"
     inkscape:pagecheckerboard="0"
     inkscape:deskcolor="#d1d1d1"
     showgrid="false"
     inkscape:zoom="32.836271"
     inkscape:cx="6.9587682"
     inkscape:cy="8.6489723"
     inkscape:window-width="2560"
     inkscape:window-height="1355"
     inkscape:window-x="0"
     inkscape:window-y="0"
     inkscape:window-maximized="1"
     inkscape:current-layer="svg5">
    <inkscape:grid
       type="xygrid"
       id="grid238" />
    <inkscape:grid
       type="xygrid"
       id="grid240"
       spacingx="0.5"
       spacingy="0.5"
       empcolor="#0099e5"
       empopacity="0.08235294"
       empspacing="1" />
  </sodipodi:namedview>
  <style
     type="text/css"
     id="current-color-scheme">
        .ColorScheme-Text {
            color:#232629;
        }
    </style>
  <path
     id="path305"
     style="color:#000000;fill:#786d7d;-inkscape-stroke:none"
     d="M 10.5,2 C 9.6776498,2 9,2.6776502 9,3.5 v 1 C 9,5.3223498 9.6776498,6 10.5,6 h 2 C 13.32235,6 14,5.3223498 14,4.5 v -1 C 14,2.6776502 13.32235,2 12.5,2 Z m 0,1 h 2 C 12.785648,3 13,3.214352 13,3.5 v 1 C 13,4.785648 12.785648,5 12.5,5 h -2 C 10.214352,5 10,4.785648 10,4.5 v -1 C 10,3.214352 10.214352,3 10.5,3 Z M 5.4131392,4.8798296 3.353629,6.9393398 A 0.62132034,0.62132034 67.5 0 0 3.7929688,8 H 11.25 A 0.75,0.75 135 0 0 12,7.25 0.25,0.25 45 0 0 11.75,7 H 4.7070312 L 6.1201704,5.5868608 a 0.33,0.33 90 0 0 0,-0.4666904 L 5.8798296,4.8798296 a 0.33,0.33 0 0 0 -0.4666904,0 z M 4,9.75 A 0.25,0.25 45 0 0 4.25,10 h 7.042969 l -1.4131393,1.413139 a 0.33000003,0.33000003 90.000013 0 0 -10e-8,0.46669 l 0.2403414,0.240342 a 0.32999986,0.32999986 3.8323845e-6 0 0 0.46669,0 l 2.05951,-2.059511 A 0.62132047,0.62132047 67.499996 0 0 12.207031,9 H 4.75 A 0.75,0.75 135 0 0 4,9.75 Z M 3.5,11 C 2.6776502,11 2,11.67765 2,12.5 v 1 C 2,14.32235 2.6776502,15 3.5,15 h 2 C 6.3223498,15 7,14.32235 7,13.5 v -1 C 7,11.67765 6.3223498,11 5.5,11 Z m 0,1 h 2 C 5.785648,12 6,12.214352 6,12.5 v 1 C 6,13.785648 5.785648,14 5.5,14 h -2 C 3.214352,14 3,13.785648 3,13.5 v -1 C 3,12.214352 3.214352,12 3.5,12 Z" />
</svg>
