<svg xmlns="http://www.w3.org/2000/svg" xml:space="preserve" width="16" height="16"><path fill="#786d7d" d="M2 1C.901 1 0 1.901 0 3v10c0 1.099.901 2 2 2h12c1.099 0 2-.901 2-2V6.7a.2.2 45 0 0-.2-.2h-.043a.757.757 135 0 0-.757.757V13c0 .558-.442 1-1 1h-3.643a1.97 1.97 168.68 0 0-.758.152l-.472.196a.864.864 1.887 0 1-.717-.023l-.344-.171A1.473 1.473 13.203 0 0 7.41 14H2c-.558 0-1-.442-1-1V3c0-.558.442-1 1-1h12c.558 0 1 .442 1 1v2H2.135A.135.135 135 0 0 2 5.136v.469A.395.395 45 0 0 2.395 6H15c.546 0 1-.454 1-1V3c0-1.099-.902-2-2-2zm9.5 2.236v.54a.225.225 45 0 0 .225.224h1.553a.222.222 135 0 0 .222-.222V3.22a.22.22 45 0 0-.22-.22h-1.544a.236.236 135 0 0-.236.236z" color="#000" style="-inkscape-stroke:none"/><ellipse cx="11.284" cy="3.917" fill="#786d7d" rx=".086" ry=".081"/><g fill="#786d7d"><path d="M8.953 7.39a.104.104 0 0 0-.074.027l-.235.234a.43.43 0 0 0 0 .602l2.15 2.15a.275.275 0 0 1 0 .39l-2.347 2.348a.153.153 0 0 0 0 .207l.1.1c.106.106.256.168.406.168s.3-.062.406-.168l2.045-2.045c.44-.44.44-1.17 0-1.61L9.027 7.418a.104.104 0 0 0-.074-.028z"/><path d="m8.953 7.507-.227.226a.322.322 0 0 0 0 .438l2.15 2.15a.402.402 0 0 1 0 .555L8.53 13.223a.031.031 0 0 0 0 .043l.1.1c.17.17.478.17.648 0l2.045-2.045a1.03 1.03 0 0 0 0-1.445z"/><path d="m8.953 7.592-.184.184a.258.258 0 0 0 0 .352l2.15 2.15a.469.469 0 0 1 0 .64l-2.325 2.327.078.078a.414.414 0 0 0 .562 0l2.045-2.045a.969.969 0 0 0 0-1.36z"/></g></svg>