<svg width="16" height="16" version="1.1" xml:space="preserve" xmlns="http://www.w3.org/2000/svg"><path d="m2 1c-1.099 0-2 0.901-2 2v10c0 1.099 0.901 2 2 2h12c1.099 0 2-0.901 2-2v-6.0996c6.49e-4 -0.11061-0.08861-0.20074-0.19922-0.20117h-0.04297c-0.41871-4.494e-4 -0.75826 0.3391-0.75781 0.75781v5.543c0 0.558-0.442 1-1 1h-12c-0.558 0-1-0.442-1-1v-10c0-0.558 0.442-1 1-1h0.041016c0.022611-0.35104 0.10156-0.6879 0.23047-1zm3.2031 0c-1.2063 0-2.1953 0.99208-2.1953 2.2031v1.8047c0 0.13117-0.069436 0.25066-0.18359 0.31445l-0.00586 0.00391c-0.16593 0.092281-0.22458 0.30208-0.13281 0.46875l0.11328 0.20508h-0.80273c-0.26514 0-0.51381 0.2484-0.54297 0.48047-0.022542 0.17939 0.080099 0.39798 0.24609 0.51953h7.2539c0.28964 6.5e-6 0.54923-0.23495 0.60742-0.48242 0.058192-0.24747-0.071014-0.57308-0.33008-0.70312l-1.1035-0.55469c-0.085682-0.043008-0.13867-0.12844-0.13867-0.22461v-1.832c1e-7 -1.211-0.98905-2.2031-2.1953-2.2031zm3.7969 0c-0.13268 0-0.19916 0.098447-0.1582 0.22461 0.13447 0.41422 0.60053 0.77539 1.1582 0.77539h4c0.558 0 1 0.442 1 1v2h-4.1074c-0.12712 0-0.19108 0.096626-0.16406 0.2207 0.0096 0.044056 0.01744 0.089186 0.02344 0.13672 0.0086 0.06808 0.01375 0.13393 0.01367 0.19727-3.21e-4 0.24937 0.13039 0.44531 0.38086 0.44531h3.8535c0.546 0 1-0.454 1-1v-2c0-1.099-0.902-2-2-2zm-3.7969 1h0.58984c0.66796 0 1.1992 0.53252 1.1992 1.2031v1.832c1e-6 0.40757 0.26907 0.73249 0.59375 0.96484h-4.1621c0.31108-0.25545 0.58008-0.58093 0.58008-0.99219v-1.8047c1e-7 -0.6706 0.53126-1.2031 1.1992-1.2031zm8.2969 1c-0.27614 0-0.5 0.22386-0.5 0.5s0.22386 0.5 0.5 0.5 0.5-0.22386 0.5-0.5-0.22386-0.5-0.5-0.5zm-9.998 4.502 0.97266 0.25c0.31205 0.080329 0.52539 0.35822 0.52539 0.68164v3.209c-0.0056575 0.46751 0.36638 0.85122 0.83203 0.85742 0.090334 2.02e-4 0.16426-0.07337 0.16406-0.16406v-3.9023c0-0.35769-0.13161-0.67148-0.33984-0.93164z" fill="#786d7d" style="-inkscape-stroke:none"/><path d="m3.057 3.1237 2.4959-2 2.3819 2v3.4847h-4.8778z" fill="#786d7d" opacity=".16" stroke-linejoin="round"/></svg>
