<svg xmlns="http://www.w3.org/2000/svg" xml:space="preserve" width="16" height="16"><path fill="#786d7d" d="M2 1C.901 1 0 1.901 0 3v10c0 1.099.901 2 2 2h12c1.099 0 2-.901 2-2V6.7a.2.2 45 0 0-.2-.2h-.043a.757.757 135 0 0-.757.757V13c0 .558-.442 1-1 1H8.757a1.97 1.97 168.68 0 0-.758.152l-.472.196a.864.864 1.887 0 1-.717-.023l-.344-.171A1.473 1.473 13.203 0 0 5.81 14H2c-.558 0-1-.442-1-1V3c0-.558.442-1 1-1h12c.558 0 1 .442 1 1v2H2.135A.135.135 135 0 0 2 5.136v.469A.395.395 45 0 0 2.395 6H15c.546 0 1-.454 1-1V3c0-1.099-.902-2-2-2zm9.5 2.236v.54a.225.225 45 0 0 .225.224h1.553a.222.222 135 0 0 .222-.222V3.22a.22.22 45 0 0-.22-.22h-1.544a.236.236 135 0 0-.236.236z" color="#000" style="-inkscape-stroke:none"/><ellipse cx="11.284" cy="3.917" fill="#786d7d" rx=".086" ry=".081"/><g fill="#786d7d"><path d="M7.087 7.39a.1.1 0 0 1 .074.027l.235.234a.43.43 0 0 1 0 .602l-2.15 2.15a.275.275 0 0 0 0 .39l2.347 2.348a.153.153 0 0 1 0 .207l-.1.1c-.106.106-.256.168-.406.168s-.3-.062-.406-.168l-2.045-2.045c-.44-.44-.44-1.17 0-1.61l2.377-2.376a.104.104 0 0 1 .074-.028z"/><path d="m7.087 7.507.227.226a.322.322 0 0 1 0 .438l-2.15 2.15a.402.402 0 0 0 0 .555l2.347 2.347a.031.031 0 0 1 0 .043l-.1.1a.477.477 0 0 1-.648 0l-2.045-2.045a1.03 1.03 0 0 1 0-1.445z"/><path d="m7.087 7.592.184.184a.258.258 0 0 1 0 .352l-2.15 2.15a.469.469 0 0 0 0 .64l2.325 2.327-.078.078a.414.414 0 0 1-.562 0L4.76 11.278a.969.969 0 0 1 0-1.36z"/></g></svg>