<svg xmlns="http://www.w3.org/2000/svg" xml:space="preserve" width="16" height="16"><path fill="#786d7d" d="M2 1C.901 1 0 1.901 0 3v10c0 1.099.901 2 2 2h12c1.099 0 2-.901 2-2V6.9a.2.2 0 0 0-.2-.2h-.042a.757.757 0 0 0-.758.758V13c0 .558-.442 1-1 1H2c-.558 0-1-.442-1-1V3c0-.558.442-1 1-1h12c.558 0 1 .442 1 1v2H2.135A.135.135 0 0 0 2 5.135v.47c0 .218.177.395.395.395H15c.546 0 1-.454 1-1V3c0-1.099-.902-2-2-2zm9.736 2a.236.236 0 0 0-.236.236v.54c0 .123.1.224.225.224h1.552c.123 0 .223-.1.223-.223v-.556A.22.22 0 0 0 13.28 3zm-.47.818a.093.093 0 0 0-.079.092c0 .052.041.094.092.094a.093.093 0 0 0 0-.186.09.09 0 0 0-.013 0z" color="#000" style="-inkscape-stroke:none"/></svg>