<svg width="16" height="16" version="1.1" xml:space="preserve" xmlns="http://www.w3.org/2000/svg"><g fill="#786d7d"><path d="m13.5 3c-0.27614 0-0.5 0.22386-0.5 0.5s0.22386 0.5 0.5 0.5 0.5-0.22386 0.5-0.5-0.22386-0.5-0.5-0.5z" style="-inkscape-stroke:none"/><path d="m9 1c-0.13268 0-0.19916 0.098447-0.1582 0.22461 0.13447 0.41422 0.60053 0.77539 1.1582 0.77539h4c0.558 0 1 0.442 1 1v2h-4.1074c-0.12712 0-0.19108 0.096626-0.16406 0.2207 0.0096 0.044056 0.01744 0.089186 0.02344 0.13672 0.0086 0.06808 0.01375 0.13393 0.01367 0.19727-3.21e-4 0.24937 0.13039 0.44531 0.38086 0.44531h3.8535c0.546 0 1-0.454 1-1v-2c0-1.099-0.902-2-2-2z" style="-inkscape-stroke:none"/><path d="m2 1c-1.099 0-2 0.901-2 2v10c0 1.099 0.901 2 2 2h12c1.099 0 2-0.901 2-2v-6.0996c6.49e-4 -0.11061-0.08861-0.20074-0.19922-0.20117h-0.04297c-0.41871-4.494e-4 -0.75826 0.3391-0.75781 0.75781v5.543c0 0.558-0.442 1-1 1h-12c-0.558 0-1-0.442-1-1v-10c0-0.558 0.442-1 1-1h0.041016c0.022611-0.35104 0.10156-0.6879 0.23047-1z" style="-inkscape-stroke:none"/><path d="m5.1992 1c-1.2063 0-2.1953 0.99209-2.1953 2.2031v1.8047c0 0.13117-0.069437 0.25066-0.18359 0.31445l-0.00586 0.00391c-0.16592 0.092277-0.22458 0.30208-0.13281 0.46875l0.11328 0.20508h-0.80273c-0.26513 0-0.51381 0.2484-0.54297 0.48047-0.022543 0.17938 0.0801 0.39798 0.24609 0.51953h1.1113l1-1h-0.38672c0.31108-0.25545 0.58008-0.58094 0.58008-0.99219v-1.8047c0-0.6706 0.53127-1.2031 1.1992-1.2031h0.58984c0.55053 0 1.0084 0.36258 1.1523 0.86523l0.75195-0.75195c-0.37984-0.66279-1.0927-1.1133-1.9043-1.1133zm5.043 0.037109c-0.05628 0-0.11312 0.021326-0.15625 0.064453l-9.5879 9.5879c-0.086254 0.08625-0.086254 0.22625 0 0.3125l0.39648 0.39453c0.086254 0.08626 0.22429 0.08626 0.31055 0l9.5898-9.5879c0.08625-0.086255 0.08625-0.22429 0-0.31055l-0.39648-0.39648c-0.04313-0.043127-0.09997-0.064453-0.15625-0.064453zm-1.7188 4.4238-1.5391 1.5391h1.9648c0.28964 6.5e-6 0.54923-0.23495 0.60742-0.48242 0.05819-0.24747-0.07101-0.57308-0.33008-0.70312zm-2.5859 2.5859-0.94141 0.94141v2.6543c-0.0056575 0.46751 0.36638 0.85122 0.83203 0.85742 0.090334 2.02e-4 0.16426-0.07337 0.16406-0.16406v-3.9023c0-0.13567-0.019818-0.26421-0.054688-0.38672z" opacity=".68074" style="-inkscape-stroke:none"/></g></svg>
