<svg xmlns="http://www.w3.org/2000/svg" xml:space="preserve" width="16" height="16"><path fill="#786d7d" d="M2 1C.901 1 0 1.901 0 3v10c0 1.099.901 2 2 2h8.818a.182.182 0 0 0 .182-.182v-.17a.649.649 0 0 0-.648-.648H2c-.558 0-1-.442-1-1V3c0-.558.442-1 1-1h12c.558 0 1 .442 1 1v2H2.135A.135.135 0 0 0 2 5.135v.47c0 .218.177.395.395.395H15c.546 0 1-.454 1-1V3c0-1.099-.902-2-2-2H2zm9.736 2a.236.236 0 0 0-.236.236v.54c0 .123.1.224.225.224h1.552c.123 0 .223-.1.223-.223v-.556A.22.22 0 0 0 13.28 3h-1.544zm-.47.818a.093.093 0 0 0-.079.092c0 .052.041.094.092.094a.093.093 0 0 0 0-.186.09.09 0 0 0-.013 0zM15.758 6.7a.757.757 0 0 0-.758.758v3.065c0 .264.224.448.47.535.05.017.097.036.143.056.216.095.387-.012.387-.248V6.9a.2.2 0 0 0-.2-.2h-.042zM12.22 9.5a.22.22 0 0 0-.22.22V11c0 1.099.901 2 2 2h.889a.612.612 0 0 0 .611-.611v-.075a.314.314 0 0 0-.314-.314H14c-.558 0-1-.442-1-1v-1a.5.5 0 0 0-.5-.5h-.28zM9.754 12a.254.254 0 0 0-.254.254v.55c0 .109.087.196.195.196H11c.558 0 1 .442 1 1v1.211c0 .16.13.289.29.289h.339a.37.37 0 0 0 .371-.371V14c0-1.099-.901-2-2-2H9.754zm5.783 1.9a.895.895 0 0 0-.217.04 1.57 1.57 0 0 1-.431.06h-.635a.254.254 0 0 0-.254.254v.428c0 .175.143.32.316.293a2.007 2.007 0 0 0 1.27-.764c.163-.213.125-.314-.049-.31z" color="#000" style="-inkscape-stroke:none"/></svg>