<svg xmlns="http://www.w3.org/2000/svg" xml:space="preserve" width="16" height="16"><path fill="#786d7d" d="M5 1c-.826 0-1.538.51-1.842 1.23-.06.145.036.27.194.27h.205c.317 0 .707-.248.986-.39A.998.998 0 0 1 5 2h9c.558 0 1 .442 1 1v2h-.895a.606.606 0 0 0-.605.606v.242a.152.152 0 0 0 .152.152H15c.546 0 1-.454 1-1V3c0-1.099-.901-2-2-2H5zM2 3C.901 3 0 3.901 0 5v8c0 1.099.901 2 2 2h9c1.099 0 2-.901 2-2V8.898a.2.2 0 0 0-.2-.199h-.042a.757.757 0 0 0-.758.758V13c0 .558-.442 1-1 1H2c-.558 0-1-.442-1-1V5c0-.558.442-1 1-1h9c.558 0 1 .442 1 1v2H2.135A.135.135 0 0 0 2 7.135v.47c0 .218.177.395.395.395H12c.546 0 1-.454 1-1V5c0-1.099-.901-2-2-2H2zm6.736 2a.236.236 0 0 0-.236.236v.54c0 .123.1.224.225.224h1.552c.123 0 .223-.1.223-.223v-.556A.22.22 0 0 0 10.28 5H8.735zm-.47.818a.093.093 0 0 0-.079.092c0 .052.041.094.092.094a.093.093 0 0 0 0-.186.09.09 0 0 0-.013 0zm7.492.881a.757.757 0 0 0-.758.758V11c0 .558-.442 1-1 1h-.11a.391.391 0 0 0-.39.39v.214a.396.396 0 0 0 .396.396H14c1.099 0 2-.901 2-2V6.898a.2.2 0 0 0-.2-.199h-.042z" color="#000" style="-inkscape-stroke:none"/></svg>