<?xml version="1.0" encoding="UTF-8" standalone="no"?>
<svg
   viewBox="0 0 16 16"
   version="1.1"
   id="svg1228"
   sodipodi:docname="xml-attribute-delete.svg"
   inkscape:version="1.2.2 (b0a8486541, 2022-12-01)"
   xmlns:inkscape="http://www.inkscape.org/namespaces/inkscape"
   xmlns:sodipodi="http://sodipodi.sourceforge.net/DTD/sodipodi-0.dtd"
   xmlns="http://www.w3.org/2000/svg"
   xmlns:svg="http://www.w3.org/2000/svg">
  <sodipodi:namedview
     id="namedview1230"
     pagecolor="#ffffff"
     bordercolor="#000000"
     borderopacity="0.25"
     inkscape:showpageshadow="false"
     inkscape:pageopacity="0.0"
     inkscape:pagecheckerboard="0"
     inkscape:deskcolor="#ffffff"
     showgrid="false"
     inkscape:zoom="32"
     inkscape:cx="8.390625"
     inkscape:cy="8.75"
     inkscape:window-width="2560"
     inkscape:window-height="1355"
     inkscape:window-x="0"
     inkscape:window-y="0"
     inkscape:window-maximized="1"
     inkscape:current-layer="svg1228">
    <inkscape:grid
       type="xygrid"
       id="grid1365" />
    <inkscape:grid
       type="xygrid"
       id="grid1367"
       empspacing="1"
       spacingx="0.5"
       spacingy="0.5"
       empcolor="#0099e5"
       empopacity="0.08235294" />
  </sodipodi:namedview>
  <defs
     id="defs3051">
    <inkscape:path-effect
       effect="fillet_chamfer"
       id="path-effect2066"
       is_visible="true"
       lpeversion="1"
       nodesatellites_param="F,0,0,1,0,0,0,1 @ F,0,0,1,0,0,0,1 @ F,0,0,1,0,0,0,1 @ F,0,0,1,0,0,0,1 @ F,0,0,1,0,0,0,1 @ F,0,1,1,0,0.25,0,1 @ F,0,0,1,0,0.75,0,1 @ F,0,0,1,0,0,0,1 @ F,0,0,1,0,0,0,1 @ F,0,0,1,0,0,0,1 @ F,0,0,1,0,0,0,1 @ F,0,0,1,0,0,0,1 @ F,0,0,1,0,0,0,1 @ F,0,0,1,0,0,0,1 @ F,0,0,1,0,0,0,1 @ F,0,0,1,0,0,0,1 @ F,0,0,1,0,0,0,1 | F,0,0,1,0,0,0,1 @ F,0,0,1,0,0,0,1 @ F,0,0,1,0,0,0,1 @ F,0,0,1,0,0,0,1 @ F,0,0,1,0,0,0,1 @ F,0,0,1,0,0,0,1 @ F,0,0,1,0,0,0,1 @ F,0,0,1,0,0,0,1 @ F,0,0,1,0,0,0,1 @ F,0,0,1,0,0,0,1 @ F,0,0,1,0,0,0,1 @ F,0,0,1,0,0.75,0,1 @ F,0,1,1,0,0.25,0,1 @ F,0,0,1,0,0,0,1 @ F,0,0,1,0,0,0,1 @ F,0,0,1,0,0,0,1 @ F,0,0,1,0,0,0,1 @ F,0,0,1,0,0,0,1 @ F,0,0,1,0,0,0,1 @ F,0,0,1,0,0,0,1 @ F,0,0,1,0,0,0,1 @ F,0,0,1,0,0,0,1 @ F,0,0,1,0,0,0,1 @ F,0,0,1,0,0,0,1 @ F,0,0,1,0,0,0,1 @ F,0,0,1,0,0,0,1 @ F,0,0,1,0,0,0,1 @ F,0,0,1,0,0,0,1 @ F,0,0,1,0,0,0,1 @ F,0,0,1,0,0,0,1 @ F,0,0,1,0,0,0,1 @ F,0,0,1,0,0,0,1 @ F,0,0,1,0,0,0,1 @ F,0,0,1,0,0,0,1 @ F,0,0,1,0,0,0,1 @ F,0,0,1,0,0,0,1 @ F,0,0,1,0,0,0,1 @ F,0,0,1,0,0,0,1 @ F,0,0,1,0,0,0,1 @ F,0,0,1,0,0,0,1 @ F,0,0,1,0,0,0,1 @ F,0,0,1,0,0,0,1 @ F,0,0,1,0,0,0,1 @ F,0,0,1,0,0,0,1 @ F,0,0,1,0,0,0,1"
       unit="px"
       method="auto"
       mode="F"
       radius="0.25"
       chamfer_steps="1"
       flexible="false"
       use_knot_distance="true"
       apply_no_radius="true"
       apply_with_radius="true"
       only_selected="true"
       hide_knots="false" />
    <inkscape:path-effect
       effect="fillet_chamfer"
       id="path-effect2064"
       is_visible="true"
       lpeversion="1"
       nodesatellites_param="F,0,1,1,0,0.33,0,1 @ F,0,1,1,0,0.33,0,1 @ F,0,0,1,0,0,0,1 @ F,0,1,1,0,0.33,0,1 @ F,0,1,1,0,0.33,0,1 @ F,0,0,1,0,0,0,1 @ F,0,1,1,0,0.33,0,1 @ F,0,1,1,0,0.33,0,1 @ F,0,0,1,0,0,0,1 @ F,0,1,1,0,0.33,0,1 @ F,0,1,1,0,0.33,0,1 @ F,0,0,1,0,0,0,1"
       unit="px"
       method="auto"
       mode="F"
       radius="0.33"
       chamfer_steps="1"
       flexible="false"
       use_knot_distance="true"
       apply_no_radius="true"
       apply_with_radius="true"
       only_selected="true"
       hide_knots="false" />
    <inkscape:path-effect
       effect="fillet_chamfer"
       id="path-effect2062"
       is_visible="true"
       lpeversion="1"
       nodesatellites_param="F,0,0,1,0,0,0,1 @ F,0,0,1,0,0,0,1 @ F,0,0,1,0,0,0,1 @ F,0,0,1,0,0,0,1 @ F,0,0,1,0,0,0,1 @ F,0,0,1,0,0,0,1 @ F,0,0,1,0,0,0,1 @ F,0,0,1,0,0,0,1 @ F,0,0,1,0,0,0,1 @ F,0,0,1,0,0,0,1 @ F,0,0,1,0,0,0,1 @ F,0,1,1,0,0.33,0,1 @ F,0,1,1,0,0.33,0,1 @ F,0,0,1,0,0,0,1 | F,0,0,1,0,0,0,1 @ F,0,0,1,0,0,0,1 @ F,0,0,1,0,0,0,1 @ F,0,0,1,0,0,0,1 @ F,0,0,1,0,0,0,1 @ F,0,0,1,0,0,0,1 @ F,0,0,1,0,0,0,1 @ F,0,0,1,0,0,0,1 @ F,0,0,1,0,0,0,1 @ F,0,0,1,0,0,0,1 @ F,0,0,1,0,0,0,1 @ F,0,0,1,0,0,0,1 @ F,0,0,1,0,0,0,1 @ F,0,0,1,0,0,0,1 @ F,0,0,1,0,0,0,1 @ F,0,0,1,0,0,0,1 @ F,0,0,1,0,0,0,1 @ F,0,0,1,0,0,0,1 @ F,0,0,1,0,0,0,1 @ F,0,0,1,0,0,0,1 @ F,0,0,1,0,0,0,1 @ F,0,0,1,0,0,0,1 @ F,0,0,1,0,0,0,1 @ F,0,0,1,0,0,0,1 @ F,0,0,1,0,0,0,1 @ F,0,0,1,0,0,0,1 @ F,0,0,1,0,0,0,1 @ F,0,0,1,0,0,0,1 @ F,0,0,1,0,0,0,1 @ F,0,0,1,0,0,0,1 @ F,0,0,1,0,0,0,1 @ F,0,0,1,0,0,0,1 @ F,0,1,1,0,0.33,0,1 @ F,0,1,1,0,0.33,0,1 @ F,0,0,1,0,0,0,1 @ F,0,0,1,0,0,0,1 @ F,0,0,1,0,0,0,1 @ F,0,0,1,0,0,0,1 @ F,0,0,1,0,0,0,1 @ F,0,0,1,0,0,0,1 @ F,0,0,1,0,0,0,1 @ F,0,0,1,0,0,0,1"
       unit="px"
       method="auto"
       mode="F"
       radius="0.33"
       chamfer_steps="1"
       flexible="false"
       use_knot_distance="true"
       apply_no_radius="true"
       apply_with_radius="true"
       only_selected="true"
       hide_knots="false" />
    <style
       type="text/css"
       id="current-color-scheme">
      .ColorScheme-Text {
        color:#232629;
      }
      .ColorScheme-NegativeText {
        color:#da4453;
      }
      </style>
    <inkscape:path-effect
       effect="fillet_chamfer"
       id="path-effect97609"
       is_visible="true"
       lpeversion="1"
       satellites_param="F,0,0,1,0,0,0,1 @ F,0,0,1,0,1.5,0,1 @ F,0,0,1,0,1.5,0,1 @ F,0,0,1,0,0.69337525,0,1 @ F,0,0,1,0,0.5,0,1 @ F,0,0,1,0,1.5,0,1 @ F,0,0,1,0,1.5,0,1 @ F,0,0,1,0,1.5,0,1 @ F,0,0,1,0,0.5,0,1 @ F,0,0,1,0,1.5,0,1 @ F,0,0,1,0,0.5,0,1 @ F,0,0,1,0,1.5,0,1 @ F,0,0,1,0,1.5,0,1 @ F,0,0,1,0,0.5,0,1 @ F,0,0,1,0,0,0,1"
       unit="px"
       method="auto"
       mode="F"
       radius="0.5"
       chamfer_steps="1"
       flexible="false"
       use_knot_distance="true"
       apply_no_radius="true"
       apply_with_radius="true"
       only_selected="true"
       hide_knots="false"
       nodesatellites_param="F,0,0,1,0,0,0,1 @ F,0,0,1,0,1.5,0,1 @ F,0,0,1,0,1.5,0,1 @ F,0,0,1,0,0.69337525,0,1 @ F,0,0,1,0,0.5,0,1 @ F,0,0,1,0,1.5,0,1 @ F,0,0,1,0,1.5,0,1 @ F,0,0,1,0,1.5,0,1 @ F,0,0,1,0,0.5,0,1 @ F,0,0,1,0,1.5,0,1 @ F,0,0,1,0,0.5,0,1 @ F,0,0,1,0,1.5,0,1 @ F,0,0,1,0,1.5,0,1 @ F,0,0,1,0,0.5,0,1 @ F,0,0,1,0,0,0,1" />
  </defs>
  <path
     id="path97574"
     style="color:#000000;fill:#786d7d;-inkscape-stroke:none"
     d="m 430.91351,532.89035 c -0.0646,-0.002 -0.12901,-4.2e-4 -0.19336,0.004 -0.51483,0.0346 -1.01651,0.25807 -1.38867,0.66406 l -4.14844,4.52539 c -0.30174,0.32918 -0.46875,0.76048 -0.46875,1.20703 v 1.25 a 0.25,0.25 45 0 0 0.25,0.25 0.75,0.75 135 0 0 0.75,-0.75 v -0.75 c 0,-0.19665 0.0722,-0.3863 0.20508,-0.53125 l 4.14844,-4.52539 c 0.39041,-0.4259 1.03466,-0.46949 1.47851,-0.0996 l 0.17041,0.14214 c 0.13996,0.11674 0.37515,0.12711 0.53385,0.0376 0.12692,-0.0716 0.25766,-0.13616 0.39163,-0.19347 0.16752,-0.0717 0.19493,-0.21175 0.055,-0.32847 L 432.187,533.367 c -0.37022,-0.30851 -0.82153,-0.4653 -1.27344,-0.47656 z m -2.19922,5.90039 c -1.09864,0 -2,0.90135 -2,2 0,0.14578 -0.0721,0.28047 -0.19336,0.36133 l -0.50781,0.33789 c -0.29408,0.19606 -0.63874,0.30078 -0.99219,0.30078 h -1.80664 c -0.48449,0 -0.89119,0.30599 -1.06055,0.69336 -0.16937,0.38738 -0.11805,0.89042 0.21094,1.24609 l 1.66406,1.79883 c 0.0594,0.0643 0.0528,0.10975 0.0273,0.16797 -0.0255,0.0582 -0.055,0.0937 -0.14258,0.0937 h -0.75 a 0.75,0.75 135 0 0 -0.75,0.75 0.25,0.25 45 0 0 0.25,0.25 h 1.25 c 0.4845,0 0.88922,-0.30599 1.05859,-0.69336 0.16936,-0.38738 0.12001,-0.89238 -0.20898,-1.24805 l -1.66406,-1.79687 c -0.0594,-0.0643 -0.0529,-0.10976 -0.0274,-0.16797 0.0254,-0.0582 0.055,-0.0937 0.14258,-0.0937 h 1.80664 c 0.55079,0 1.0886,-0.16324 1.54688,-0.46875 l 0.50781,-0.33789 c 0.39852,-0.26568 0.63867,-0.7144 0.63867,-1.19336 0,-0.55821 0.4418,-1 1,-1 0.55821,0 1,0.44179 1,1 0,0.5582 -0.44179,1 -1,1 -0.45256,0 -0.88702,0.17999 -1.20703,0.5 l -0.58594,0.58594 c -0.33819,0.33819 -0.40338,0.83624 -0.24414,1.2207 0.15925,0.38445 0.55884,0.69336 1.03711,0.69336 h 2.5 c 0.45803,0 0.89441,-0.19274 1.20508,-0.5293 l 2.09055,-2.26344 c 0.12366,-0.13388 0.0768,-0.2589 -0.10167,-0.29573 -0.15423,-0.0318 -0.30645,-0.0728 -0.45585,-0.12254 -0.17286,-0.0576 -0.40866,-0.009 -0.53232,0.12531 l -1.73509,1.87867 c -0.1217,0.13185 -0.29127,0.20703 -0.4707,0.20703 h -2.5 c -0.0753,0 -0.0934,-0.0262 -0.11328,-0.0742 -0.0199,-0.048 -0.026,-0.0796 0.0273,-0.13281 l 0.58594,-0.58594 c 0.13275,-0.13275 0.31228,-0.20703 0.5,-0.20703 1.09865,0 2,-0.90136 2,-2 0,-1.09865 -0.90135,-2 -2,-2 z"
     transform="translate(-421.71429,-531.79074)" />
  <path
     id="path2049"
     style="color:#000000;fill:#821313;-inkscape-stroke:none"
     d="m 432.83446,535.67057 -0.24034,0.24034 a 0.329999,0.329999 89.999913 0 0 0,0.46669 l 1.41314,1.41314 -1.41314,1.41314 a 0.329999,0.329999 90.000087 0 0 0,0.46669 l 0.24034,0.24034 a 0.329999,0.329999 179.99991 0 0 0.46669,0 l 1.41314,-1.41314 1.41314,1.41314 a 0.329999,0.329999 8.6997119e-5 0 0 0.46669,0 l 0.24034,-0.24034 a 0.329999,0.329999 89.999913 0 0 0,-0.46669 l -1.41314,-1.41314 1.41314,-1.41314 a 0.329999,0.329999 90.000087 0 0 0,-0.46669 l -0.24034,-0.24034 a 0.329999,0.329999 179.99991 0 0 -0.46669,0 l -1.41314,1.41314 -1.41314,-1.41314 a 0.329999,0.329999 8.6997119e-5 0 0 -0.46669,0 z"
     transform="translate(-421.71429,-531.79074)" />
</svg>
