<svg version="1.1" viewBox="0 0 16 16" xml:space="preserve" xmlns="http://www.w3.org/2000/svg"><defs><style id="current-color-scheme" type="text/css">
 
      </style></defs><path d="m4.5 2.8965c-0.063967 1.37e-5 -0.12894 0.025404-0.17773 0.074219l-3.8223 3.8223c-0.32001 0.32001-0.5 0.75447-0.5 1.207s0.17999 0.88702 0.5 1.207l3.8223 3.8223c0.097631 0.09763 0.25784 0.09763 0.35547 0 0.29285-0.29289 0.29093-0.7677-0.0019532-1.0605l-3.4688-3.4688c-0.13274-0.13274-0.20703-0.31227-0.20703-0.5s0.074288-0.36726 0.20703-0.5l3.4688-3.4688c0.29289-0.29289 0.29289-0.76961 0-1.0625-0.048815-0.048794-0.11181-0.072279-0.17578-0.072266zm7 0c-0.06398 0-0.12892 0.025403-0.17773 0.074219-0.29285 0.29289-0.29108 0.7677 0.001953 1.0605l3.4688 3.4688c0.13274 0.13274 0.20703 0.31227 0.20703 0.5 0 0.11525-0.016972 0.31385-0.28516 0.58203-0.20503 0.20503-0.4363 0.43962-0.64062 0.64648-0.12958 0.13119-0.17652 0.37614-0.13086 0.55469 0.054828 0.21439 0.061742 0.37844 0.060547 0.57812-7.09e-4 0.1186 0.11259 0.23601 0.19336 0.15625 0.008753-0.008643 0.017388-0.016842 0.02539-0.027344 0.20934-0.20934 0.75406-0.76187 1.332-1.3398 0.41476-0.41477 0.44531-1.0462 0.44531-1.1504 0-0.45256-0.17999-0.88702-0.5-1.207l-3.8223-3.8223c-0.048815-0.048816-0.11375-0.074219-0.17773-0.074219zm-4 1.1035c-0.97096 0-1.7881 0.70488-1.9648 1.627-0.03906 0.20374 0.13411 0.37305 0.3418 0.37305h0.44531c0.0977 0 0.17675-0.079631 0.19336-0.17578 0.0816-0.47227 0.48634-0.82422 0.98438-0.82422h1c0.55821 0 1 0.4418 1 1v0.5c0 0.28206-0.21794 0.5-0.5 0.5h-1.5c-1.0986 0-2 0.90136-2 2 0 1.0986 0.90136 2 2 2h1c0.41355 0 0.79909-0.12783 1.1191-0.3457 0.13305 0.20615 0.36379 0.3457 0.62305 0.3457h0.52344c0.1296 3.72e-4 0.23475-0.10478 0.23438-0.23438v-0.37305c2.6e-4 -0.21692-0.17565-0.39284-0.39258-0.39258-0.064764-0.0053072-0.11291-0.062204-0.10742-0.12695v-0.87305-2.5-0.5c0-1.0986-0.90136-2-2-2h-1zm2 3.9121v1.0879c0 0.5582-0.44179 1-1 1h-1c-0.55821 0-1-0.4418-1-1s0.44179-1 1-1h1.5c0.175 0 0.34326-0.031681 0.5-0.087891zm2.8301 2.0879c-0.18225 0-0.33008 0.14782-0.33008 0.33008v1.6699h-1.6699c-0.18225 0-0.33008 0.14782-0.33008 0.33008v0.33984c0 0.18225 0.14782 0.33008 0.33008 0.33008h1.6699v1.6699c0 0.18225 0.14782 0.33008 0.33008 0.33008h0.33984c0.18225 0 0.33008-0.14782 0.33008-0.33008v-1.6699h1.6699c0.18225 0 0.33008-0.14782 0.33008-0.33008v-0.33984c0-0.18225-0.14782-0.33008-0.33008-0.33008h-1.6699v-1.6699c0-0.18225-0.14782-0.33008-0.33008-0.33008h-0.33984z" color="#000000" fill="#786d7d" stroke-linecap="square" style="-inkscape-stroke:none"/></svg>
