<?xml version="1.0" encoding="UTF-8" standalone="no"?>
<svg
   viewBox="0 0 16 16"
   version="1.1"
   id="svg6"
   sodipodi:docname="y-zoom-in.svg"
   inkscape:version="1.2.2 (b0a8486541, 2022-12-01)"
   xmlns:inkscape="http://www.inkscape.org/namespaces/inkscape"
   xmlns:sodipodi="http://sodipodi.sourceforge.net/DTD/sodipodi-0.dtd"
   xmlns="http://www.w3.org/2000/svg"
   xmlns:svg="http://www.w3.org/2000/svg">
  <sodipodi:namedview
     id="namedview8"
     pagecolor="#ffffff"
     bordercolor="#000000"
     borderopacity="0.25"
     inkscape:showpageshadow="2"
     inkscape:pageopacity="0.0"
     inkscape:pagecheckerboard="0"
     inkscape:deskcolor="#ffffff"
     showgrid="true"
     showborder="true"
     inkscape:zoom="25.45547"
     inkscape:cx="2.2195622"
     inkscape:cy="13.828069"
     inkscape:window-width="2560"
     inkscape:window-height="1355"
     inkscape:window-x="0"
     inkscape:window-y="0"
     inkscape:window-maximized="1"
     inkscape:current-layer="svg6">
    <inkscape:grid
       type="xygrid"
       id="grid237" />
    <inkscape:grid
       type="xygrid"
       id="grid239"
       empspacing="1"
       spacingx="0.5"
       spacingy="0.5"
       empcolor="#0099e5"
       empopacity="0.08235294" />
  </sodipodi:namedview>
  <defs
     id="defs3051">
    <inkscape:path-effect
       effect="fillet_chamfer"
       id="path-effect1899"
       is_visible="true"
       lpeversion="1"
       nodesatellites_param="F,0,0,1,0,1,0,1 @ F,0,0,1,0,0.33,0,1 @ F,0,0,1,0,0.33,0,1 @ F,0,0,1,0,0,0,1 @ F,0,0,1,0,0.33,0,1 @ F,0,0,1,0,0.33,0,1 | F,0,0,1,0,0.33,0,1 @ F,0,0,1,0,0.33,0,1 @ F,0,0,1,0,0.75,0,1 @ F,0,0,1,0,0.25,0,1 | F,0,1,1,0,0.75,0,1 @ F,0,0,1,0,0.33,0,1 @ F,0,0,1,0,0.33,0,1 @ F,0,0,1,0,0,0,1 @ F,0,0,1,0,0.33,0,1 @ F,0,0,1,0,0.33,0,1 @ F,0,0,1,0,0,0,1 @ F,0,0,1,0,0.33,0,1 @ F,0,0,1,0,0.33,0,1 | F,0,0,1,0,0.33,0,1 @ F,0,0,1,0,0.33,0,1 @ F,0,0,1,0,0.33,0,1 @ F,0,0,1,0,0.33,0,1 | F,0,0,1,0,0.33,0,1 @ F,0,0,1,0,0.33,0,1 @ F,0,0,1,0,0.33,0,1 @ F,0,0,1,0,0.33,0,1 | F,0,0,1,0,0.75,0,1 @ F,0,0,1,0,0.33,0,1 @ F,0,0,1,0,0.33,0,1 @ F,0,0,1,0,0.25,0,1 | F,0,0,1,0,0,0,1 @ F,0,0,1,0,0,0,1 @ F,0,0,1,0,0,0,1 @ F,0,0,1,0,0,0,1 @ F,0,0,1,0,0,0,1 @ F,0,0,1,0,0,0,1 @ F,0,0,1,0,0,0,1 @ F,0,0,1,0,0,0,1 | F,0,0,1,0,0,0,1 @ F,0,0,1,0,0,0,1 @ F,0,0,1,0,0,0,1 @ F,0,0,1,0,0,0,1 @ F,0,0,1,0,0,0,1 @ F,0,0,1,0,0,0,1 @ F,0,0,1,0,0,0,1 @ F,0,0,1,0,0,0,1 | F,0,0,1,0,0.33,0,1 @ F,0,0,1,0,0,0,1 @ F,0,0,1,0,0.33,0,1 @ F,0,0,1,0,0.33,0,1 @ F,0,0,1,0,1,0,1 @ F,0,0,1,0,0.33,0,1 | F,0,0,1,0,0.33,0,1 @ F,0,0,1,0,0.33,0,1 @ F,0,0,1,0,0.33,0,1 @ F,0,0,1,0,0.33,0,1 | F,0,0,1,0,0.33,0,1 @ F,0,0,1,0,0.33,0,1 @ F,0,0,1,0,0.33,0,1 @ F,0,0,1,0,0.33,0,1"
       unit="px"
       method="auto"
       mode="F"
       radius="0.75"
       chamfer_steps="1"
       flexible="false"
       use_knot_distance="true"
       apply_no_radius="true"
       apply_with_radius="true"
       only_selected="true"
       hide_knots="false" />
    <style
       type="text/css"
       id="current-color-scheme">
      .ColorScheme-Text {
        color:#232629;
      }
      </style>
  </defs>
  <path
     id="rect293"
     style="color:#000000;fill:#786d7d;-inkscape-stroke:none"
     d="M 2,2 V 2.67 A 0.33,0.33 45 0 0 2.33,3 H 2.67 A 0.33,0.33 135 0 0 3,2.67 V 2 H 3.67 A 0.33,0.33 135 0 0 4,1.67 V 1.33 A 0.33,0.33 45 0 0 3.67,1 H 3 A 1,1 135 0 0 2,2 Z M 5,1.33 V 1.67 A 0.33,0.33 45 0 0 5.33,2 H 6.25 A 0.75,0.75 135 0 0 7,1.25 0.25,0.25 45 0 0 6.75,1 H 5.33 A 0.33,0.33 135 0 0 5,1.33 Z M 9.9696699,2.3232989 7.8798296,4.4131392 a 0.33,0.33 90 0 0 0,0.4666904 l 0.2403408,0.2403408 a 0.33,0.33 0 0 0 0.4666904,0 L 10,3.7070312 V 8.67 A 0.33,0.33 45 0 0 10.33,9 h 0.34 A 0.33,0.33 135 0 0 11,8.67 V 3.7070312 l 1.413139,1.4131391 a 0.33000015,0.33000015 1.9687303e-5 0 0 0.46669,2e-7 l 0.240342,-0.240341 a 0.32999979,0.32999979 90.000014 0 0 0,-0.4666903 L 11.03033,2.3232988 a 0.75000005,0.75000005 180 0 0 -1.0606601,1e-7 z M 2,4.33 V 5.67 A 0.33,0.33 45 0 0 2.33,6 H 2.67 A 0.33,0.33 135 0 0 3,5.67 V 4.33 A 0.33,0.33 45 0 0 2.67,4 H 2.33 A 0.33,0.33 135 0 0 2,4.33 Z m 0,3 V 8.67 A 0.33,0.33 45 0 0 2.33,9 H 2.67 A 0.33,0.33 135 0 0 3,8.67 V 7.33 A 0.33,0.33 45 0 0 2.67,7 H 2.33 A 0.33,0.33 135 0 0 2,7.33 Z m 12,2.42 v 0.92 A 0.33,0.33 45 0 0 14.33,11 h 0.34 A 0.33,0.33 135 0 0 15,10.67 L 15,9.25 A 0.25,0.25 45 0 0 14.75,9 0.75,0.75 135 0 0 14,9.75 Z M 2.5,10 C 1.6776502,10 1,10.67765 1,11.5 v 2 C 1,14.32235 1.6776502,15 2.5,15 h 2 C 5.3223498,15 6,14.32235 6,13.5 v -2 C 6,10.67765 5.3223498,10 4.5,10 Z m 0,1 h 2 C 4.785648,11 5,11.214352 5,11.5 v 2 C 5,13.785648 4.785648,14 4.5,14 h -2 C 2.214352,14 2,13.785648 2,13.5 v -2 C 2,11.214352 2.214352,11 2.5,11 Z M 14,12.33 V 13 H 13.33 A 0.33,0.33 135 0 0 13,13.33 v 0.34 A 0.33,0.33 45 0 0 13.33,14 H 14 a 1,1 135 0 0 1,-1 V 12.33 A 0.33,0.33 45 0 0 14.67,12 H 14.33 A 0.33,0.33 135 0 0 14,12.33 Z m -7,1 v 0.34 A 0.33,0.33 45 0 0 7.33,14 H 8.67 A 0.33,0.33 135 0 0 9,13.67 V 13.33 A 0.33,0.33 45 0 0 8.67,13 H 7.33 A 0.33,0.33 135 0 0 7,13.33 Z m 3,0 v 0.34 A 0.33,0.33 45 0 0 10.33,14 h 1.34 A 0.33,0.33 135 0 0 12,13.67 V 13.33 A 0.33,0.33 45 0 0 11.67,13 H 10.33 A 0.33,0.33 135 0 0 10,13.33 Z" />
</svg>
