<svg width="16" height="16" version="1.1" xml:space="preserve" xmlns="http://www.w3.org/2000/svg"><path d="m9.437 0.684a5.681 5.681 0 0 1 3.506 1.175 5.708 5.708 0 0 1 1.27 7.692c-1.493 2.21-4.348 3.155-6.895 2.113-0.398-0.163-0.525-0.645-0.31-1.018l0.058-0.101a0.107 0.107 0 0 1 0.144-0.04c2.25 1.214 4.824 0.46 6.17-1.509a4.696 4.696 0 0 0-1.046-6.344 4.696 4.696 0 0 0-6.398 0.631 4.7 4.7 0 0 0-0.336 5.772c0.416 0.602 0.44 1.466-0.121 2.027l-4.291 4.29a0.237 0.237 0 0 1-0.336 0l-0.48-0.48a0.082 0.082 0 0 1 0-0.117l4.4-4.4c0.176-0.176 0.182-0.498 6e-3 -0.752a5.708 5.708 0 0 1 0.406-7 5.686 5.686 0 0 1 4.253-1.94zm-2.658 9.482c0.044 4e-3 0.076 0.045 0.076 0.09 0 0.05-0.039 0.091-0.088 0.092-0.049 0-0.081-0.042-0.088-0.092-0.01-0.077 0.04-0.095 0.1-0.09zm-5.838 5.021a0.09 0.09 0 0 0 0.088 0.092c0.05 0 0.097-0.041 0.09-0.092-0.022-0.145-0.18-0.045-0.178 0z" color="#000000" fill="#786d7d" style="-inkscape-stroke:none"/></svg>
