<svg width="16" height="16" version="1.1" xml:space="preserve" xmlns="http://www.w3.org/2000/svg"><path d="m9.543 0.68359a5.686 5.686 0 0 0-4.2539 1.9395 5.708 5.708 0 0 0-0.40625 7c0.175 0.254 0.17014 0.57695-0.0058594 0.75195l-4.4004 4.4004a0.082 0.082 0 0 0 0 0.11719l0.48047 0.48047a0.237 0.237 0 0 0 0.33789 0l4.2891-4.291c0.132-0.132 0.23273-0.28141 0.30273-0.44141 0.052-0.12-0.019234-0.28109-0.11523-0.37109a1 1 0 0 1-0.32227-0.71289v-0.59961a1.735 1.735 0 0 0-0.14453-0.60938 4.701 4.701 0 0 1-0.076172-3.75c0.108-0.261 0.2207-0.6887 0.2207-0.9707v-0.25781c-1e-7 -0.481 0.43892-0.91992 0.91992-0.91992h0.083984c0.304 0 0.75534-0.13744 1.0273-0.27344a4.692 4.692 0 0 1 4.3711 0.09375c0.169 0.093 0.45544 0.17969 0.64844 0.17969h0.21875a0.863 0.863 0 0 1 0.83203 0.83008v0.27344c0 0.178 0.079063 0.44356 0.16406 0.60156a4.693 4.693 0 0 1 0.042968 4.3809c-0.106 0.204-0.20703 0.54444-0.20703 0.77344v0.24414c-1e-3 0.522-0.47605 0.99805-0.99805 0.99805h-0.5a1.728 1.728 0 0 0-0.58984 0.13477c-1.239 0.552-2.7026 0.56323-4.0586-0.13477-0.079-0.042-0.15833-0.086-0.23633 0l-0.054688 0.095703c-0.215 0.373-0.087453 0.85458 0.31055 1.0176 2.547 1.042 5.4015 0.096717 6.8945-2.1133a5.708 5.708 0 0 0-1.2695-7.6914 5.681 5.681 0 0 0-3.5059-1.1758zm-3.2617 2.3164a0.282 0.282 0 0 0-0.28125 0.28125v1.7363a0.15 0.15 0 0 0 0.17969 0.14648l0.49414-0.099609a0.407 0.407 0 0 0 0.32617-0.39844v-0.66602h0.75781a0.327 0.327 0 0 0 0.3125-0.23242l0.14844-0.49805a0.21 0.21 0 0 0-0.19922-0.26953h-1.7383zm4.5508 0a0.098 0.098 0 0 0-0.09375 0.12695l0.11133 0.37305a0.701 0.701 0 0 0 0.67188 0.5h0.47852v0.73828a0.35 0.35 0 0 0 0.25 0.33594l0.5 0.15039a0.194 0.194 0 0 0 0.25-0.18555v-1.6699a0.368 0.368 0 0 0-0.36719-0.36914h-1.8008zm-4.6133 4.6426a0.23 0.23 0 0 0-0.21875 0.22852v1.6816a0.448 0.448 0 0 0 0.44727 0.44727h1.2949a0.293 0.293 0 0 0 0.28711-0.34961l-0.10742-0.54102a0.136 0.136 0 0 0-0.13281-0.10938h-0.78906v-0.46094a0.872 0.872 0 0 0-0.48242-0.7793l-0.18555-0.09375a0.23 0.23 0 0 0-0.11328-0.023438zm6.5156 0.13672-0.46484 0.14062a0.377 0.377 0 0 0-0.26953 0.35938v0.0019531 0.71875h-0.47461a0.525 0.525 0 0 0-0.52539 0.52539v0.38086a0.094 0.094 0 0 0 0.09375 0.09375h1.4629a0.443 0.443 0 0 0 0.44336-0.44336v-1.5801a0.206 0.206 0 0 0-0.26562-0.19727zm-11.576 7.332c0.031 1e-3 0.058406 0.021172 0.066406 0.076172 7e-3 0.05-0.039844 0.091797-0.089844 0.091797a0.09 0.09 0 0 1-0.087891-0.091797c-1e-3 -0.028 0.060328-0.079172 0.11133-0.076172z" fill="#786d7d" style="-inkscape-stroke:none"/></svg>
