<svg width="16" height="16" version="1.1" viewBox="0 0 16 16" xml:space="preserve" xmlns="http://www.w3.org/2000/svg"><g fill="#786d7d"><path d="m6.541 2.0293c-0.062192-6.614e-4 -0.12361 0.0012792-0.18555 0.0039062-0.29727 0.01261-0.59037 0.06269-0.87305 0.14844-0.75379 0.22866-1.4298 0.70978-1.8926 1.4023-0.81017 1.2125-0.77165 2.7841 0.041016 3.9473 0.020081 0.025084 0.08328 0.051511 0.060547 0.074219l-3.6328 3.6289c-0.22794 0.2277-0.22782 0.5964 0 0.82422l0.125 0.125c0.0937 0.0937 0.2461 0.09366 0.33984 0l4.1934-4.1895c0.18199-0.18116 0.19954-0.47266 0.035156-0.66992l-0.039062-0.046875c-0.0082761-0.0099313-0.016552-0.019863-0.025391-0.029297-0.80462-0.8458-0.91777-2.1334-0.26562-3.1094 0.66388-0.99356 1.9292-1.3772 3.0332-0.91992 1.104 0.45729 1.7273 1.6249 1.4941 2.7969-0.21132 1.0624-1.0719 1.8502-2.1211 1.9883-0.18121 0.023845-0.33008 0.17062-0.33008 0.35352v0.54102c0 0.06985 0.05715 0.12751 0.12695 0.125 1.6119-0.058071 2.9879-1.2221 3.3047-2.8145 0.325-1.6339-0.55273-3.2766-2.0918-3.9141-0.42084-0.17432-0.86153-0.261-1.2969-0.26562zm-2.2637 7.9707c-0.15302 0-0.27734 0.12432-0.27734 0.27734v0.50586c0 0.12013-0.096664 0.2168-0.2168 0.2168h-0.45117c-0.18372 0-0.33203 0.14831-0.33203 0.33203v0.43359c0 0.12945 0.10492 0.23438 0.23438 0.23438h0.60742c0.08756 0 0.1582 0.070645 0.1582 0.1582v0.58984c0 0.13948 0.11247 0.25195 0.25195 0.25195h0.64648c0.05608 0 0.10156-0.045483 0.10156-0.10156v-0.89844h1.7188c0.15506 0 0.28125-0.12619 0.28125-0.28125v-0.4375c0-0.15506-0.12619-0.28125-0.28125-0.28125h-1.7188v-0.88867c0-0.06135-0.049979-0.11133-0.11133-0.11133h-0.61133zm7.8027 0c-0.04429 0-0.080078 0.035788-0.080078 0.080078v0.91992h-1.666c-0.18408 0-0.33398 0.1499-0.33398 0.33398v0.33203c0 0.18408 0.1499 0.33398 0.33398 0.33398h1.666v0.91992c0 0.04429 0.035788 0.080078 0.080078 0.080078h0.43164c0.26988 0 0.48828-0.21841 0.48828-0.48828v-0.35156c0-0.08885 0.071315-0.16016 0.16016-0.16016h0.52734c0.17256 0 0.3125-0.13994 0.3125-0.3125v-0.375c0-0.17256-0.13994-0.3125-0.3125-0.3125h-0.56836c-0.06578 0-0.11914-0.053366-0.11914-0.11914v-0.39258c0-0.26988-0.21841-0.48828-0.48828-0.48828h-0.43164z" style="-inkscape-stroke:none"/><path d="m11.23 15.908v2e-3c-0.02491-7.47e-4 -0.04539 0.01884-0.04492 0.04297-4.71e-4 0.02412 0.02001 0.04372 0.04492 0.04297 0.1055-0.01937 0.0516-0.08855 0.0059-0.08594h-2e-3l-2e-3 -2e-3z" style="-inkscape-stroke:none"/><path d="m4 0c-1.0986 0-2 0.90136-2 2v5.6328c3.076e-4 0.074255 0.090146 0.11118 0.14258 0.058594l0.058594-0.058594c0.17832-0.17832 0.23736-0.50806 0.1543-0.74609-0.42672-1.2228-0.41798-2.5638 0.27148-3.7129 0.054932-0.091553 0.15115-0.23647 0.21484-0.32227 0.00476-0.00641 0.00889-0.013157 0.013672-0.019531 0.076932-0.10245 0.14453-0.28593 0.14453-0.41406v-0.41797c0-0.55821 0.44179-1 1-1h9c0.55821 0 1 0.44179 1 1v11.5c0 0.69175-0.4321 1.2195-1.002 1.416-0.26353 0.09087-0.49805 0.31168-0.49805 0.5918v0.375c0 0.06471 0.05256 0.11836 0.11719 0.11524 1.2304-0.059553 2.3828-1.0524 2.3828-2.498v-11.5c0-1.0986-0.90136-2-2-2zm-1.3951 11.564-0.40561 0.40482c-0.10577 0.10556-0.19041 0.31228-0.18978 0.46172 0.00222 0.52411 0.00515 1.6392 0.00529 1.7913 4.4e-6 5e-3 1.9e-6 0.01319 3.18e-5 0.01825 0.0058782 0.99314 0.96799 1.7597 1.9851 1.7597h6.8809c0.06602 5.43e-4 0.11968-0.053121 0.11914-0.11914v-0.23633c5.09e-4 -0.35618-0.28836-0.64504-0.64453-0.64453h-6.3555c-0.55821 0-1-0.44179-1-1v-2.2719a0.23152 0.23152 22.528 0 0-0.39506-0.16387z" opacity=".5" style="-inkscape-stroke:none"/></g></svg>
