<svg width="16" height="16" version="1.1" xml:space="preserve" xmlns="http://www.w3.org/2000/svg"><path d="m9.543 0.68359c-1.6302 0.0070738-3.1799 0.713-4.2539 1.9395-1.7214 1.9654-1.887 4.8487-0.4043 7 0.175 0.254 0.17014 0.57595-0.0058594 0.75195l-4.4004 4.4004c-0.032719 0.03214-0.032719 0.085047 0 0.11719l0.47852 0.47852c0.092648 0.09311 0.24524 0.09311 0.33789 0l4.291-4.2891c0.561-0.561 0.53514-1.4253 0.11914-2.0273-1.2246-1.7735-1.0843-4.1521 0.33789-5.7715 1.6318-1.866 4.4316-2.1422 6.3965-0.63086 1.9686 1.507 2.4275 4.2845 1.0469 6.3438-1.346 1.969-3.9199 2.7238-6.1699 1.5098-0.050902-0.02795-0.11534-0.011137-0.14453 0.039063l-0.058594 0.10156c-0.215 0.373-0.087453 0.85458 0.31055 1.0176 2.547 1.042 5.4015 0.096717 6.8945-2.1133 1.6663-2.4988 1.1116-5.8608-1.2695-7.6914-1.0049-0.77168-2.2389-1.186-3.5059-1.1758zm-3.4375 3.3164c-0.05799 0-0.10547 0.047479-0.10547 0.10547v4.4746c0 0.232 0.18792 0.41992 0.41992 0.41992h0.38672c0.10659 0 0.19336-0.086768 0.19336-0.19336v-4.2676c-0.0011-0.29817-0.24285-0.53851-0.54102-0.53906h-0.35352zm4.5195 0c-0.34541-5.54e-4 -0.62555 0.27959-0.625 0.625v0.1875c-1e-6 0.10344 0.08406 0.18695 0.1875 0.1875h1.7363c0.04175 5.388e-4 0.075632 0.034424 0.076172 0.076172v0.86133c0 0.034794-0.027706 0.0625-0.0625 0.0625h-1.2129c-0.40002 5.517e-4 -0.72461 0.32459-0.72461 0.72461v1.6992c5.5e-4 0.31789 0.25828 0.57562 0.57617 0.57617h1.7715c0.36032 5.539e-4 0.6529-0.29203 0.65234-0.65234v-0.050781c5.56e-4 -0.16426-0.13262-0.29743-0.29688-0.29688h-1.6328c-0.038659 0-0.070312-0.031653-0.070312-0.070312v-0.87305c0-0.03148 0.025161-0.056641 0.056641-0.056641h1.3652c0.31922 0 0.57812-0.2589 0.57812-0.57812v-1.6816c0-0.40869-0.33154-0.74023-0.74023-0.74023h-1.6348zm-2.4102 1c-0.11874 0-0.21484 0.096103-0.21484 0.21484v0.53516c0 0.138 0.112 0.25 0.25 0.25h0.62695c0.068162 5.61e-4 0.12361-0.054885 0.12305-0.12305v-0.66016c5.57e-4 -0.12008-0.096721-0.21735-0.2168-0.2168h-0.56836zm-0.12891 2c-0.04711 5.478e-4 -0.085938 0.038828-0.085938 0.085938v0.58594c0 0.181 0.14713 0.32812 0.32812 0.32812h0.50781c0.09 0 0.16406-0.073063 0.16406-0.16406v-0.58203c5.56e-4 -0.14051-0.1134-0.25446-0.25391-0.25391h-0.66016zm-1.2012 3.166c-0.06-5e-3 -0.10961 0.012843-0.099609 0.089843 7e-3 0.05 0.038891 0.091797 0.087891 0.091797 0.049-1e-3 0.087891-0.041797 0.087891-0.091797 0-0.045-0.032172-0.085843-0.076172-0.089843zm-5.7266 4.9453c0.031 2e-3 0.058406 0.022172 0.066406 0.076172 7e-3 0.051-0.039844 0.091797-0.089844 0.091797-0.049711-0.00109-0.089011-0.042087-0.087891-0.091797-1e-3 -0.028 0.060328-0.078172 0.11133-0.076172z" fill="#786d7d" style="-inkscape-stroke:none"/></svg>
