<svg width="16" height="16" version="1.1" xml:space="preserve" xmlns="http://www.w3.org/2000/svg"><g fill="#786d7d"><path d="m9.4707 0c-1.5602 0.00677-3.0424 0.68365-4.0703 1.8574-1.6475 1.881-1.8076 4.6404-0.38867 6.6992 0.16748 0.24309 0.16258 0.55031-0.0058594 0.71875l-4.2109 4.2109c-0.031313 0.030764-0.031313 0.080568 0 0.11133l0.45898 0.46094c0.088669 0.08911 0.2336 0.08911 0.32227 0l4.1074-4.1055c0.5369-0.5369 0.51336-1.3653 0.11523-1.9414-1.172-1.6973-1.0388-3.9736 0.32227-5.5234 1.5617-1.7859 4.2425-2.0499 6.123-0.60352 1.8841 1.4423 2.3213 4.0995 1 6.0703-1.2882 1.8844-3.751 2.6072-5.9043 1.4453-0.048715-0.02675-0.11073-0.010931-0.13867 0.037109l-0.054688 0.097656c-0.20576 0.35698-0.084027 0.81861 0.29688 0.97461 2.4376 0.99724 5.1688 0.091623 6.5977-2.0234 1.5947-2.3915 1.064-5.6094-1.2148-7.3613-0.96176-0.73853-2.1429-1.1348-3.3555-1.125zm-2.623 9.2656c-0.041588 0.0053009-0.070312 0.029688-0.0625 0.089844 7e-3 0.05 0.038891 0.091797 0.087891 0.091797 0.049-1e-3 0.087891-0.041797 0.087891-0.091797 0-0.045-0.032172-0.085844-0.076172-0.089844-0.013125-0.0010937-0.025465-0.0014843-0.037109 0zm0.42969 2.7344c-0.15302 0-0.27734 0.12432-0.27734 0.27734v0.50586c0 0.12013-0.096667 0.2168-0.2168 0.2168h-0.45117c-0.18372 0-0.33203 0.14831-0.33203 0.33203v0.43359c0 0.12945 0.10493 0.23438 0.23438 0.23438h0.60742c0.08756 0 0.1582 0.070643 0.1582 0.1582v0.58984c0 0.13948 0.11247 0.25195 0.25195 0.25195h0.64648c0.05608 0 0.10156-0.045483 0.10156-0.10156v-0.89844h1.7188c0.15506 0 0.28125-0.12618 0.28125-0.28125v-0.4375c0-0.15506-0.12619-0.28125-0.28125-0.28125h-1.7188v-0.88867c0-0.06135-0.049978-0.11133-0.11133-0.11133h-0.61133zm5.8027 0c-0.04429 0-0.080078 0.035788-0.080078 0.080078v0.91992h-1.666c-0.18409 0-0.33398 0.1499-0.33398 0.33398v0.33203c0 0.18409 0.1499 0.33398 0.33398 0.33398h1.666v0.91992c0 0.04429 0.035788 0.080078 0.080078 0.080078h0.43164c0.26987 0 0.48828-0.21841 0.48828-0.48828v-0.35156c0-0.08885 0.071306-0.16016 0.16016-0.16016h0.52734c0.17256 0 0.3125-0.13994 0.3125-0.3125v-0.375c0-0.17256-0.13994-0.3125-0.3125-0.3125h-0.56836c-0.06578 0-0.11914-0.053361-0.11914-0.11914v-0.39258c0-0.26987-0.21841-0.48828-0.48828-0.48828h-0.43164zm-11.932 2.3105c-0.048721 0.003948-0.1025 0.049922-0.10156 0.076172-0.00112 0.04971 0.03818 0.090707 0.087891 0.091797 0.05 0 0.096844-0.040797 0.089844-0.091797-8e-3 -0.054-0.035406-0.074172-0.066406-0.076172-0.0031875-1.25e-4 -0.0065176-2.63e-4 -0.0097656 0z" style="-inkscape-stroke:none"/><path d="m12.246 5c0.14028 0 0.254 0.11372 0.254 0.254v0.55c0 0.109-0.087 0.196-0.195 0.196h-1.305c-0.558 0-1 0.442-1 1v1.21c0 0.16-0.13 0.29-0.289 0.29h-0.34c-0.20513 5.552e-4 -0.37156-0.16587-0.371-0.371v-1.129c0-1.099 0.901-2 2-2z" style="-inkscape-stroke:none"/><path d="m9.779 2.5c0.122 0 0.221 0.1 0.221 0.22v1.28c0 1.099-0.901 2-2 2h-0.889c-0.33722-5.506e-4 -0.61045-0.27378-0.611-0.611v-0.075c0-0.17342 0.14058-0.314 0.314-0.314h1.186c0.558 0 1-0.442 1-1v-1c0-0.27614 0.22386-0.5 0.5-0.5h0.28z" style="-inkscape-stroke:none"/></g></svg>
