<svg width="16" height="16" version="1.1" xml:space="preserve" xmlns="http://www.w3.org/2000/svg"><path d="m2.158 15.111c-0.051-2e-3 -0.112 0.048-0.111 0.076-0.00112 0.04971 0.038289 0.09091 0.088 0.092 0.05 0 0.097-0.041 0.09-0.092-8e-3 -0.054-0.036-0.074-0.067-0.076z" fill="#786d7d" style="-inkscape-stroke:none"/><path d="m7.885 10.166c0.044 4e-3 0.076 0.045 0.076 0.09 0 0.05-0.039 0.091-0.088 0.092-0.049 0-0.081-0.042-0.088-0.092-0.01-0.077 0.04-0.095 0.1-0.09z" style="-inkscape-stroke:none"/><g fill="#786d7d"><path d="m7.8145 6c-0.17342 0-0.31445 0.14104-0.31445 0.31445v0.074219c5.506e-4 0.33722 0.27411 0.61078 0.61133 0.61133h3.8887 1.3047c0.108 0 0.19531-0.086313 0.19531-0.19531v-0.55078c0-0.14028-0.11363-0.25391-0.25391-0.25391h-1.2461-4.1855z" style="-inkscape-stroke:none"/><path d="m10.471 1.001c1.2126-0.009825 2.3936 0.38599 3.3554 1.1245 2.2788 1.7519 2.8101 4.9701 1.2154 7.3616-1.4289 2.1151-4.1612 3.0195-6.5988 2.0222-0.3809-0.156-0.50245-0.61729-0.29668-0.97427l0.055509-0.09666c0.027939-0.04804 0.089099-0.06503 0.13781-0.03828 2.1533 1.1618 4.6168 0.44024 5.905-1.4442 1.3213-1.9708 0.88302-4.6292-1.0011-6.0715-1.8805-1.4464-4.5614-1.182-6.1232 0.60389-1.3611 1.5498-1.4936 3.8268-0.32157 5.5241 0.39813 0.57614 0.4211 1.403-0.1158 1.9399l-4.1067 4.1057c-0.088669 0.08911-0.2329 0.08911-0.32157 0l-0.45938-0.45938c-0.031313-0.03076-0.031313-0.08121 0-0.11197l4.211-4.211c0.16844-0.16844 0.17322-0.47661 0.0057422-0.7197-1.419-2.0589-1.2589-4.8183 0.38856-6.6993 1.0279-1.1738 2.5101-1.8499 4.0703-1.8567z" style="-inkscape-stroke:none"/><g transform="translate(-17.987 -8.8785)"><path d="m19.987 16.191v0.56844c0 0.06578-0.05332 0.1191-0.1191 0.11911h-0.39224c-0.26987 0-0.48865 0.21878-0.48865 0.48865v0.43115c0 0.04429 0.03591 0.0802 0.0802 0.0802h0.9198v1.6667c0 0.18409 0.14923 0.33332 0.33332 0.33332h0.33337c0.18409 0 0.33332-0.14923 0.33332-0.33332v-1.6667h0.9198c0.04429 0 0.0802-0.03591 0.0802-0.0802v-0.43115c0-0.26987-0.21878-0.48865-0.48865-0.48865h-0.35048c-0.08885 0-0.16087-0.07202-0.16087-0.16087v-0.52668c0-0.17256-0.13989-0.31245-0.31245-0.31245h-0.3751c-0.17256 0-0.31245 0.13989-0.31245 0.31245zm0-6.0316v1.7192h-0.88892c-0.06135 0-0.11108 0.04973-0.11108 0.11108v0.61185c0 0.15302 0.12405 0.27707 0.27707 0.27707h0.50541c0.12013 0 0.21751 0.09738 0.21751 0.21751v0.44983c0 0.18372 0.14894 0.33266 0.33266 0.33266h0.43295c0.12945 0 0.23439-0.10494 0.23439-0.23439v-0.60706c0-0.08756 0.07099-0.15855 0.15855-0.15855h0.5889c0.13948 0 0.25255-0.11307 0.25255-0.25255v-0.6459c0-0.05608-0.04547-0.10155-0.10155-0.10155h-0.89845v-1.7192c0-0.15506-0.1257-0.28077-0.28077-0.28077h-0.43846c-0.15506 0-0.28077 0.1257-0.28077 0.28077z" style="-inkscape-stroke:none"/></g></g></svg>
