<svg width="16" height="16" version="1.1" viewBox="0 0 16 16" xml:space="preserve" xmlns="http://www.w3.org/2000/svg"><g fill="#786d7d"><path d="m11 2.3125v0.56844a0.11911 0.11911 135 0 1-0.1191 0.11911h-0.39224a0.48865 0.48865 135 0 0-0.48865 0.48865v0.43115a0.0802 0.0802 45 0 0 0.0802 0.0802h0.9198v1.6667a0.33332 0.33332 45 0 0 0.33332 0.33332h0.33337a0.33332 0.33332 135 0 0 0.33332-0.33332v-1.6667h0.9198a0.0802 0.0802 135 0 0 0.0802-0.0802v-0.43115a0.48865 0.48865 45 0 0-0.48865-0.48865h-0.35048a0.16087 0.16087 45 0 1-0.16087-0.16087v-0.52668a0.31245 0.31245 45 0 0-0.31245-0.31245h-0.3751a0.31245 0.31245 135 0 0-0.31245 0.31245zm-4.6445 1.7208c-0.29727 0.01261-0.59037 0.06269-0.87305 0.14844-0.7538 0.22866-1.4298 0.70978-1.8926 1.4023-0.81017 1.2125-0.77165 2.7841 0.041016 3.9473 0.020081 0.025084 0.040228 0.049328 0.060547 0.074219l-3.6328 3.6289c-0.22835 0.22729-0.22835 0.59693 0 0.82422l0.125 0.125c0.094049 0.09335 0.24579 0.09335 0.33984 0l4.1934-4.1895c0.18199-0.18116 0.19718-0.47071 0.035156-0.66992l-0.039062-0.046875c-0.0080816-0.01009-0.016552-0.019863-0.025391-0.029297-0.80462-0.8458-0.91778-2.1334-0.26562-3.1094 0.66388-0.99356 1.9292-1.3772 3.0332-0.91992 1.104 0.45729 1.7273 1.6249 1.4941 2.7969-0.21132 1.0624-1.0719 1.8502-2.1211 1.9883-0.18121 0.023845-0.33008 0.17062-0.33008 0.35352v0.54102c0 0.06985 0.05715 0.12751 0.12695 0.125 1.6119-0.058071 2.9879-1.2221 3.3047-2.8145 0.325-1.6339-0.55273-3.2766-2.0918-3.9141-0.48096-0.19922-0.98696-0.28273-1.4824-0.26172zm4.6445 6.2476v1.7192h-0.88892a0.11108 0.11108 135 0 0-0.11108 0.11108v0.61185a0.27707 0.27707 45 0 0 0.27707 0.27707h0.50541a0.21751 0.21751 45 0 1 0.21751 0.21751v0.44983a0.33266 0.33266 45 0 0 0.33266 0.33266h0.43295a0.23439 0.23439 135 0 0 0.23439-0.23439v-0.60706a0.15855 0.15855 135 0 1 0.15855-0.15855h0.5889a0.25255 0.25255 135 0 0 0.25255-0.25255v-0.6459a0.10155 0.10155 45 0 0-0.10155-0.10155h-0.89845v-1.7192a0.28077 0.28077 45 0 0-0.28077-0.28077h-0.43846a0.28077 0.28077 135 0 0-0.28077 0.28077z" style="-inkscape-stroke:none"/><path d="m11.23 15.908v2e-3c-0.02491-7.47e-4 -0.04539 0.01884-0.04492 0.04297-4.71e-4 0.02412 0.02001 0.04372 0.04492 0.04297 0.1055-0.01937 0.0516-0.08855 0.0059-0.08594h-2e-3l-2e-3 -2e-3z" style="-inkscape-stroke:none"/><path d="m4 0c-1.0986 0-2 0.90136-2 2v7.6328c3.076e-4 0.074255 0.090146 0.11118 0.14258 0.058594l0.058594-0.058594c0.17831-0.17832 0.23736-0.50806 0.1543-0.74609-0.42672-1.2228-0.41798-2.5638 0.27148-3.7129 0.054932-0.091553 0.15115-0.23647 0.21484-0.32227 0.00476-0.00641 0.00889-0.013157 0.013672-0.019531 0.076932-0.10245 0.14453-0.28593 0.14453-0.41406v-2.418c0-0.55821 0.44179-1 1-1h9c0.55821 0 1 0.44179 1 1v11.5c0 0.69175-0.4321 1.2195-1.002 1.416-0.26353 0.09087-0.49805 0.31168-0.49805 0.5918v0.375c0 0.06471 0.05256 0.11836 0.11719 0.11524 1.2304-0.059553 2.3828-1.0524 2.3828-2.498v-11.5c0-1.0986-0.90136-2-2-2zm-1.3951 13.564-0.40561 0.40482c-0.10577 0.10556-0.18359 0.3127-0.1514 0.4585 0.19765 0.89531 1.0003 1.5725 1.9521 1.5725h6.8809c0.06602 5.43e-4 0.11968-0.053121 0.11914-0.11914v-0.23633c5.09e-4 -0.35618-0.28836-0.64504-0.64453-0.64453h-6.3555c-0.55821 0-1-0.44179-1-1v-0.27192a0.23152 0.23152 22.528 0 0-0.39506-0.16387z" opacity=".5" style="-inkscape-stroke:none"/></g></svg>
