<svg width="16" height="16" version="1.1" viewBox="0 0 16 16" xml:space="preserve" xmlns="http://www.w3.org/2000/svg"><g fill="#786d7d"><path d="m4 0c-1.0986 0-2 0.90136-2 2v5.834c0.28909-0.28909 0.42847-0.8699 0.34538-1.3044-0.2737-1.4315-0.15566-2.5256 0.4944-3.6243 0.08465-0.14308 0.16021-0.38961 0.16021-0.55587v-0.34935c0-0.55821 0.44179-1 1-1h9c0.55821 0 1 0.44179 1 1v0.34358c0 0.38842 0.32524 0.8029 0.57176 1.0962 0.13901 0.16539 0.24402 0.36485 0.30519 0.57585 0.04133 0.00136 0.08244 0.00558 0.12305 0.011719v-2.0273c0-1.0986-0.90136-2-2-2zm10.914 6.916c-0.086691 0.41382-0.35959 0.78845-0.72696 0.96762-0.099416 0.048484-0.1871 0.16122-0.1871 0.27196v5.3444c0 0.69175-0.4321 1.2195-1.002 1.416-0.26353 0.09087-0.49805 0.31168-0.49805 0.5918v0.375c0 0.06471 0.05256 0.11836 0.11719 0.11524 1.2304-0.059553 2.3828-1.0524 2.3828-2.498v-6.5c0-0.05717-0.13461-0.083985-0.08594-0.083985zm-12.502 4.8403-0.17746 0.17712a0.80049 0.80049 112.53 0 0-0.23501 0.56658v1.5c0 1.0986 0.90136 2 2 2h6.8809c0.06602 5.43e-4 0.11968-0.053121 0.11914-0.11914v-0.23633c5.09e-4 -0.35618-0.28836-0.64504-0.64453-0.64453h-6.3555c-0.55821 0-1-0.44179-1-1v-2a0.3443 0.3443 22.528 0 0-0.58753-0.2437zm8.818 4.1519v2e-3c-0.02491-7.47e-4 -0.04539 0.01884-0.04492 0.04297-4.71e-4 0.02412 0.02001 0.04372 0.04492 0.04297 0.1055-0.01937 0.0516-0.08855 0.0059-0.08594h-2e-3l-2e-3 -2e-3z" opacity=".5" style="-inkscape-stroke:none"/></g><path d="m6.3555 2.0332c-0.29727 0.01261-0.59037 0.06269-0.87305 0.14844-0.7538 0.22866-1.4298 0.70978-1.8926 1.4023-0.81017 1.2125-0.77165 2.7841 0.041016 3.9473 0.020081 0.025084 0.040228 0.049328 0.060547 0.074219l-3.6328 3.6289a0.58146 0.58146 0 0 0 0 0.82422l0.125 0.125a0.2412 0.2412 0 0 0 0.33984 0l4.1934-4.1895c0.18199-0.18116 0.19718-0.47071 0.035156-0.66992l-0.039062-0.046875c-0.0080816-0.01009-0.016552-0.019863-0.025391-0.029297-0.80462-0.8458-0.91778-2.1334-0.26562-3.1094 0.66388-0.99356 1.9292-1.3772 3.0332-0.91992 1.104 0.45729 1.7273 1.6249 1.4941 2.7969-0.21132 1.0624-1.0719 1.8502-2.1211 1.9883-0.18121 0.023844-0.33008 0.17062-0.33008 0.35352v0.54102c0 0.069852 0.05715 0.12751 0.12695 0.125 1.6119-0.05807 2.9879-1.2221 3.3047-2.8145 0.325-1.6339-0.55273-3.2766-2.0918-3.9141-0.48096-0.19922-0.98696-0.28273-1.4824-0.26172zm6.8164 1.9648a0.16492 0.16492 0 0 0-0.16406 0.16406v0.83789h-1.7891a0.22682 0.22682 0 0 0-0.22656 0.22656v0.4668a0.3056 0.3056 0 0 0 0.30469 0.30469h1.7109v0.86914a0.12999 0.12999 0 0 0 0.13086 0.13086h0.57617a0.29318 0.29318 0 0 0 0.29297-0.29297v-0.3418a0.36495 0.36495 0 0 1 0.36524-0.36523h0.35547a0.28499 0.28499 0 0 0 0.28516-0.28516v-0.54688a0.16535 0.16535 0 0 0-0.16602-0.16602h-0.53711a0.30201 0.30201 0 0 1-0.30274-0.30273v-0.38281a0.31717 0.31717 0 0 0-0.31641-0.31641h-0.51953zm-6.7656 6.002a0.40695 0.40695 0 0 0-0.40625 0.40625v1.5938h-0.91797a0.08252 0.08252 0 0 0-0.082031 0.082031v0.60742a0.31054 0.31054 0 0 0 0.31055 0.31055h0.47461a0.21433 0.21433 0 0 1 0.21484 0.21484v0.44336a0.34193 0.34193 0 0 0 0.3418 0.3418h0.41211a0.24572 0.24572 0 0 0 0.24609-0.24609v-0.57617a0.17747 0.17747 0 0 1 0.17773-0.17773h0.45312a0.36866 0.36866 0 0 0 0.36914-0.36914v-0.54883a0.08252 0.08252 0 0 0-0.082031-0.082031h-0.91797v-1.6719a0.32853 0.32853 0 0 0-0.32812-0.32812h-0.26562z" color="#000000" fill="#786d7d" stroke-linejoin="round" style="-inkscape-stroke:none"/></svg>
