<svg width="16" height="16" version="1.1" xml:space="preserve" xmlns="http://www.w3.org/2000/svg"><g fill="#786d7d"><path d="m11 3v1h1v5h1v-6zm1 6h-5v-1h-1v2h6z" fill-opacity=".29"/><path d="m9.543 0.684c1.267-0.010266 2.5011 0.40332 3.506 1.175 2.3811 1.8306 2.9363 5.1932 1.27 7.692-1.493 2.21-4.348 3.155-6.895 2.113-0.398-0.163-0.525-0.645-0.31-1.018l0.054-0.095c0.078-0.086 0.157-0.042 0.236 0 1.356 0.698 2.82 0.686 4.059 0.135 0.18717-0.07944 0.38691-0.12514 0.59-0.135h0.5c0.522 0 0.997-0.476 0.998-0.998v-0.244c0-0.23 0.1-0.57 0.205-0.774 0.7103-1.3772 0.69496-3.0163-0.041-4.38-0.085-0.158-0.164-0.426-0.164-0.604v-0.272c-0.01695-0.45119-0.37881-0.81305-0.83-0.83h-0.22c-0.194 0-0.48-0.088-0.65-0.181-1.3526-0.74838-2.9871-0.78279-4.37-0.092-0.272 0.135-0.724 0.273-1.028 0.273h-0.084c-0.481 0-0.92 0.439-0.92 0.92v0.258c0 0.282-0.111 0.71-0.218 0.97-0.49678 1.2061-0.46998 2.5644 0.074 3.75 0.084655 0.1929 0.13345 0.39961 0.144 0.61v0.6c0 0.27 0.127 0.527 0.323 0.712 0.095 0.091 0.166 0.25 0.113 0.372-0.07 0.159-0.168 0.308-0.3 0.441l-4.292 4.291c-0.092649 0.09311-0.24335 0.09311-0.336 0l-0.48-0.48c-0.033404-0.03224-0.033404-0.08576 0-0.118l4.4-4.4c0.176-0.176 0.181-0.498 6e-3 -0.752-1.4827-2.1513-1.3154-5.0346 0.406-7 1.0742-1.2267 2.6234-1.9332 4.254-1.94zm-8.385 14.427c-0.051-2e-3 -0.112 0.048-0.111 0.076-0.00112 0.04971 0.038289 0.09091 0.088 0.092 0.05 0 0.097-0.041 0.09-0.092-8e-3 -0.054-0.036-0.074-0.067-0.076z" color="#000000" style="-inkscape-stroke:none"/><path d="m6.281 3c-0.15542-5.561e-4 -0.28156 0.12558-0.281 0.281v3.272c0 0.247 0.2 0.447 0.447 0.447h3.11c0.24443-5.499e-4 0.44245-0.19857 0.443-0.443v-3.188c-5.51e-4 -0.20395-0.16604-0.369-0.37-0.369zm5.719 0v1h1v-0.69c0-0.17121-0.13879-0.31-0.31-0.31zm-3 1v2h-2v-2zm3 2v1h1v-1zm-6 3.298v0.391c0 0.172 0.139 0.31 0.31 0.31h0.69v-0.999h-0.702c-0.16497-9e-7 -0.29855 0.13403-0.298 0.299zm3-0.298v1h1v-1zm3 0v1h0.634c0.20214 0 0.366-0.16386 0.366-0.366v-0.634z" color="#000000" style="-inkscape-stroke:none"/></g></svg>
