<svg width="16" height="16" version="1.1" xml:space="preserve" xmlns="http://www.w3.org/2000/svg"><g transform="matrix(-1,0,0,1,16.075,0)" fill="#786d7d"><path d="m7.2887 3.291c0.027253-0.00105 0.053828 0.00865 0.074 0.027l0.234 0.235c0.16324 0.16708 0.16324 0.43392 0 0.601l-2.15 2.15c-0.1088 0.10763-0.1088 0.28337 0 0.391l2.348 2.348c0.05376 0.058528 0.05376 0.14847 0 0.207l-0.1 0.1c-0.10824 0.10681-0.25394 0.16709-0.406 0.168-0.15 0-0.3-0.062-0.407-0.168l-2.044-2.045c-0.44-0.44-0.44-1.17 0-1.61l2.377-2.377c0.020172-0.018355 0.046747-0.028051 0.074-0.027z"/><path d="m6.457 0.684a5.681 5.681 0 0 0-3.506 1.175 5.708 5.708 0 0 0-1.27 7.692c1.493 2.21 4.348 3.155 6.895 2.113 0.398-0.163 0.525-0.645 0.31-1.018l-0.058-0.101a0.107 0.107 0 0 0-0.144-0.04c-2.25 1.214-4.824 0.46-6.17-1.509a4.696 4.696 0 0 1 1.046-6.344 4.696 4.696 0 0 1 6.398 0.631 4.7 4.7 0 0 1 0.336 5.772c-0.416 0.602-0.44 1.466 0.121 2.027l4.291 4.29a0.237 0.237 0 0 0 0.336 0l0.48-0.48a0.082 0.082 0 0 0 0-0.117l-4.4-4.4c-0.176-0.176-0.182-0.498-6e-3 -0.752a5.708 5.708 0 0 0-0.406-7 5.686 5.686 0 0 0-4.253-1.94zm2.658 9.482c-0.044 4e-3 -0.076 0.045-0.076 0.09 0 0.05 0.039 0.091 0.088 0.092 0.049 0 0.081-0.042 0.088-0.092 0.01-0.077-0.04-0.095-0.1-0.09zm5.838 5.021a0.09 0.09 0 0 1-0.088 0.092c-0.05 0-0.097-0.041-0.09-0.092 0.022-0.145 0.18-0.045 0.178 0z" color="#000000" style="-inkscape-stroke:none"/></g></svg>
