<svg width="16" height="16" version="1.1" xml:space="preserve" xmlns="http://www.w3.org/2000/svg"><path d="m9.543 0.684a5.681 5.681 0 0 1 3.506 1.175 5.708 5.708 0 0 1 1.27 7.692c-1.493 2.21-4.348 3.155-6.895 2.113-0.398-0.163-0.525-0.645-0.31-1.018l0.058-0.101a0.107 0.107 0 0 1 0.144-0.04c2.25 1.214 4.824 0.46 6.17-1.509a4.696 4.696 0 0 0-1.046-6.344 4.696 4.696 0 0 0-6.398 0.631 4.7 4.7 0 0 0-0.336 5.772c0.416 0.602 0.44 1.466-0.121 2.027l-4.291 4.29a0.237 0.237 0 0 1-0.336 0l-0.48-0.48a0.082 0.082 0 0 1 0-0.117l4.4-4.4c0.176-0.176 0.181-0.498 6e-3 -0.752a5.708 5.708 0 0 1 0.406-7 5.686 5.686 0 0 1 4.253-1.94zm2.352 3.316a0.105 0.105 0 0 1 0.105 0.105v4.475a0.42 0.42 0 0 1-0.42 0.42h-0.387a0.193 0.193 0 0 1-0.193-0.193v-4.267a0.542 0.542 0 0 1 0.541-0.54zm-3.995 0a0.1 0.1 0 0 1 0.1 0.1v4.544a0.356 0.356 0 0 1-0.356 0.356h-0.452a0.194 0.194 0 0 1-0.192-0.193v-4.137a0.67 0.67 0 0 1 0.67-0.67zm1.885 1a0.215 0.215 0 0 1 0.215 0.215v0.535a0.25 0.25 0 0 1-0.25 0.25h-0.627a0.122 0.122 0 0 1-0.123-0.123v-0.66a0.216 0.216 0 0 1 0.217-0.217zm0.13 2a0.086 0.086 0 0 1 0.085 0.086v0.586a0.328 0.328 0 0 1-0.328 0.328h-0.508a0.164 0.164 0 0 1-0.164-0.164v-0.582a0.253 0.253 0 0 1 0.254-0.254h0.66zm-3.03 3.166c0.044 4e-3 0.076 0.045 0.076 0.09 0 0.05-0.039 0.091-0.088 0.092-0.049 0-0.081-0.042-0.088-0.092-0.01-0.077 0.04-0.095 0.1-0.09zm-5.727 4.945c-0.051-2e-3 -0.112 0.048-0.111 0.076a0.09 0.09 0 0 0 0.088 0.092c0.05 0 0.097-0.041 0.09-0.092-8e-3 -0.054-0.036-0.074-0.067-0.076z" color="#000000" fill="#786d7d" style="-inkscape-stroke:none"/></svg>
