<?xml version="1.0" encoding="UTF-8" standalone="no"?>
<svg
   width="16"
   height="16"
   version="1.1"
   xml:space="preserve"
   id="svg6"
   xmlns="http://www.w3.org/2000/svg"
   xmlns:svg="http://www.w3.org/2000/svg"><defs
     id="defs10" /><path
     d="M 5.8418,0.4961 C 4.6603,0.4865273 3.5094,0.87222 2.5723,1.5918 0.352,3.2988 -0.1651,6.4355 1.3887,8.7656 2.7809,10.8264 5.4414,11.706 7.8164,10.7344 8.18753,10.5824 8.30595,10.133 8.10546,9.78518 L 8.052726,9.69143 C 8.025505,9.64462 7.965426,9.62825 7.917956,9.65432 c -2.0981,1.132 -4.4988,0.42982 -5.7539,-1.4062 -1.2874,-1.9202 -0.85918,-4.5108 0.97656,-5.916 1.8323,-1.4093 4.4432,-1.1522 5.9648,0.58789 1.3261,1.5101 1.4564,3.7291 0.31445,5.3828 -0.38792,0.56136 -0.4118,1.3675 0.11133,1.8906 l 4.6113,4.6094 c 0.08639,0.08683 0.22611,0.08683 0.3125,0 l 0.44922,-0.44726 c 0.03051,-0.02997 0.03051,-0.0794 0,-0.10938 l -4.7129,-4.7129 c -0.16412,-0.16412 -0.16999,-0.46432 -0.0059,-0.70117 1.3826,-2.006 1.2263,-4.6946 -0.37891,-6.5273 -1.0015,-1.1437 -2.4447,-1.802 -3.9648,-1.8086 z M 8.3203,9.3379 C 8.27927,9.3417 8.248034,9.37991 8.248034,9.42188 c 0,0.04663 0.036339,0.08501 0.082031,0.08594 0.045693,0 0.075503,-0.03932 0.082031,-0.08594 C 8.421426,9.35008 8.376249,9.33324 8.3203,9.3379 Z m 5.9492,5.2207 c 0.04801,-0.002 0.10468,0.04408 0.10352,0.07031 10e-4,0.04635 -0.03567,0.08493 -0.08203,0.08594 -0.04663,0 -0.09051,-0.03838 -0.08399,-0.08594 0.0077,-0.0507 0.03369,-0.06911 0.0625,-0.07031 z"
     color="#000000"
     fill="#786d7d"
     style="-inkscape-stroke:none"
     id="path4" /></svg>
