<?xml version="1.0" encoding="UTF-8"?>
<!-- Created with Inkscape (http://www.inkscape.org/) -->
<svg width="16" height="16" version="1.1" viewBox="0 0 16 16" xmlns="http://www.w3.org/2000/svg">
 <path d="m7.7913 2c-0.77751 0-1.52 0.32899-2.043 0.9043l-3.6035 3.9629c-0.58096 0.63905-0.58096 1.6266 0 2.2656l3.6035 3.9629c0.52301 0.57531 1.2655 0.9043 2.043 0.9043h1.5c0.48539 0 0.89162-0.30559 1.0625-0.69336 0.17088-0.38778 0.1205-0.89372-0.20703-1.252l-0.79297-0.74414c-0.082699-0.09046-0.15618-0.18212-0.2207-0.27734-0.064786-0.09561-0.2022-0.19352-0.31641-0.21094l-0.50586-0.07617c-0.18895-0.02882-0.32859 0.1038-0.27539 0.28711 0.13696 0.47194 0.4289 0.78582 0.58008 0.95117l0.79492 0.74609c0.14602 0.11589 0.016612 0.26953-0.11914 0.26953h-1.5c-0.49629 0-0.96889-0.20894-1.3027-0.57617l-3.6035-3.9629c-0.24008-0.26409-0.24008-0.65779 0-0.92188l3.6035-3.9629c0.33384-0.36723 0.80645-0.57617 1.3027-0.57617h1.5c0.089356 0 0.12018 0.036 0.14648 0.0957 0.026309 0.0597 0.032945 0.10789-0.027344 0.17383l-2.4199 2.6465c-0.70241 0.76827-0.79314 1.8086-0.43164 2.6289 0.3615 0.82033 1.1914 1.4551 2.2324 1.4551h3.5c1.093 0 1.9896-0.89526 1.9923-2.0124 0.0026-1.1171-0.89988-1.9951-1.9981-1.9913l-1.4961 0.0059c-0.6357 0.0018-1.2161 0.15066-1.7031 0.44116-0.25182 0.15016-0.27755 0.49076-0.087891 0.7148 0.16738 0.19772 0.46564 0.21292 0.69922 0.087891 0.31389-0.16802 0.67863-0.24274 1.0938-0.2439l1.498-0.00586c0.55576-0.00193 0.99548 0.41475 0.99417 0.9908-0.0013 0.57605-0.4388 1.0129-0.99222 1.0129h-3.5c-0.64493 0-1.0995-0.36711-1.3164-0.85938-0.21693-0.49226-0.18128-1.0748 0.25391-1.5508l2.418-2.6445c0.32753-0.35823 0.37791-0.86418 0.20703-1.252-0.17088-0.38777-0.57711-0.69336-1.0625-0.69336zm1.3398 4.6797c0.084234-0.019625 0.1265 0.086122 0.13281 0.11133 0.01494 0.05962-0.05265 0.11117-0.11719 0.11133-0.064537-1.615e-4 -0.11686-0.049866-0.11719-0.11133-2.431e-4 -0.056112 0.044229-0.09797 0.10156-0.11133zm-0.58017 0.38241c-0.01118 0.047488 0.041591 0.088334 0.092817 0.088722 0.051757 3.277e-4 0.093962-0.039428 0.094181-0.088722-2.204e-4 -0.049293-0.042831-0.08223-0.094181-0.088722-0.061693-0.0078-0.088028 0.068384-0.092817 0.088722zm-0.074446 0.2919c-0.043939-4.495e-4 -0.07971 0.033533-0.079347 0.07538 4.091e-4 0.041329 0.035951 0.074502 0.079347 0.074057 0.042881-2.488e-4 0.077619-0.03322 0.078025-0.074057 3.569e-4 -0.041353-0.034603-0.075127-0.078025-0.07538z" color="#000000" fill="#786d7d" style="-inkscape-stroke:none"/>
</svg>
