<?xml version="1.0" encoding="UTF-8" standalone="no"?>
<svg
   version="1.1"
   viewBox="0 0 16 16"
   id="svg7"
   sodipodi:docname="view-refresh.svg"
   inkscape:version="1.2.2 (b0a8486541, 2022-12-01)"
   xmlns:inkscape="http://www.inkscape.org/namespaces/inkscape"
   xmlns:sodipodi="http://sodipodi.sourceforge.net/DTD/sodipodi-0.dtd"
   xmlns="http://www.w3.org/2000/svg"
   xmlns:svg="http://www.w3.org/2000/svg">
  <sodipodi:namedview
     id="namedview9"
     pagecolor="#ffffff"
     bordercolor="#000000"
     borderopacity="0.25"
     inkscape:showpageshadow="2"
     inkscape:pageopacity="0.0"
     inkscape:pagecheckerboard="0"
     inkscape:deskcolor="#d1d1d1"
     showgrid="true"
     inkscape:zoom="11.313709"
     inkscape:cx="-8.396893"
     inkscape:cy="14.318912"
     inkscape:window-width="2560"
     inkscape:window-height="1355"
     inkscape:window-x="0"
     inkscape:window-y="0"
     inkscape:window-maximized="1"
     inkscape:current-layer="svg7">
    <inkscape:grid
       type="xygrid"
       id="grid238" />
    <inkscape:grid
       type="xygrid"
       id="grid240"
       empspacing="1"
       spacingx="0.5"
       spacingy="0.5"
       empcolor="#0099e5"
       empopacity="0.08235294" />
  </sodipodi:namedview>
  <defs
     id="defs3">
    <inkscape:path-effect
       effect="fillet_chamfer"
       id="path-effect1857"
       is_visible="true"
       lpeversion="1"
       nodesatellites_param="F,0,0,1,0,0,0,1 @ F,0,0,1,0,0.33,0,1 @ F,0,0,1,0,0.33,0,1 @ F,0,0,1,0,0,0,1 @ F,0,0,1,0,0,0,1 @ F,0,0,1,0,0,0,1 @ F,0,0,1,0,0.75,0,1 @ F,0,0,1,0,0.25,0,1 @ F,0,1,1,0,1.3726036,0,1 @ F,0,0,1,0,0,0,1 | F,0,1,1,0,1.3726036,0,1 @ F,0,0,1,0,0,0,1 @ F,0,0,1,0,0,0,1 @ F,0,0,1,0,0.33,0,1 @ F,0,0,1,0,0.33,0,1 @ F,0,0,1,0,0,0,1 @ F,0,0,1,0,0,0,1 @ F,0,0,1,0,0,0,1 @ F,0,0,1,0,0.75,0,1 @ F,0,0,1,0,0.25,0,1"
       unit="px"
       method="auto"
       mode="F"
       radius="0.5"
       chamfer_steps="1"
       flexible="false"
       use_knot_distance="true"
       apply_no_radius="true"
       apply_with_radius="true"
       only_selected="true"
       hide_knots="false" />
    <style
       type="text/css"
       id="current-color-scheme">.ColorScheme-Text {
        color:#232629;
      }</style>
  </defs>
  <path
     id="path294"
     style="color:#000000;fill:#786d7d;-inkscape-stroke:none"
     d="M 8,1 C 6.7298349,1 5.5381785,1.341648 4.5102645,1.9356753 4.3524802,2.0268582 4.3329878,2.2118941 4.4618609,2.3407671 L 4.7178266,2.5967329 C 4.8466997,2.7256059 5.0780537,2.7541188 5.2398522,2.6702773 6.0656784,2.2423472 7.003631,2 8,2 c 3.319621,0 6,2.6803791 6,6 0,0.7360603 -0.135321,1.4391985 -0.376953,2.089844 L 11.794002,8.2607989 a 0.74999986,0.74999986 180 0 0 -1.06066,1e-7 c -0.09759,0.097592 -0.09752,0.2558153 1.46e-4,0.3534069 0.729497,0.728908 1.45902,1.4577891 2.188392,2.1868211 0.53616,0.535911 1.317955,0.45486 1.5952,-0.24939 C 14.828438,9.7607351 15,8.9000796 15,8 15,4.1399407 11.860059,1 8,1 Z M 1.4829194,5.4483626 C 1.1715618,6.2392645 1,7.0999203 1,8 c 0,3.860059 3.1399407,7 7,7 1.270165,0 2.461821,-0.341649 3.489735,-0.935676 0.157784,-0.09118 0.177277,-0.276218 0.0484,-0.405091 L 11.282173,13.403267 C 11.1533,13.274394 10.921946,13.245881 10.760148,13.329723 9.9343217,13.757653 8.9963688,14 8,14 4.6803791,14 2,11.319621 2,8 2,7.264192 2.1335257,6.5606151 2.375,5.9101562 l 1.830998,1.8309981 a 0.74999998,0.74999998 6.0660546e-7 0 0 1.0606602,0 0.24994663,0.24994663 89.987765 0 0 -7.55e-5,-0.3534779 L 3.0779992,5.1990929 C 2.5419642,4.6630579 1.7601646,4.744112 1.4829194,5.4483626 Z"
     sodipodi:nodetypes="sccssccccsscssccsscccc" />
</svg>
