<?xml version="1.0" encoding="UTF-8" standalone="no"?>
<!-- Created with Inkscape (http://www.inkscape.org/) -->

<svg
   width="16"
   height="16"
   viewBox="0 0 16 16"
   version="1.1"
   id="svg5"
   inkscape:version="1.2.2 (b0a8486541, 2022-12-01)"
   sodipodi:docname="camera-photo.svg"
   xmlns:inkscape="http://www.inkscape.org/namespaces/inkscape"
   xmlns:sodipodi="http://sodipodi.sourceforge.net/DTD/sodipodi-0.dtd"
   xmlns="http://www.w3.org/2000/svg"
   xmlns:svg="http://www.w3.org/2000/svg">
  <sodipodi:namedview
     id="namedview7"
     pagecolor="#ffffff"
     bordercolor="#000000"
     borderopacity="0.36078431"
     inkscape:pageshadow="2"
     inkscape:pageopacity="0.0"
     inkscape:pagecheckerboard="0"
     inkscape:document-units="px"
     showgrid="false"
     inkscape:showpageshadow="false"
     borderlayer="false"
     inkscape:snap-global="true"
     inkscape:deskcolor="#ffffff"
     showborder="false"
     inkscape:zoom="24.605405"
     inkscape:cx="8.0063708"
     inkscape:cy="7.213862"
     inkscape:window-width="945"
     inkscape:window-height="975"
     inkscape:window-x="965"
     inkscape:window-y="10"
     inkscape:window-maximized="1"
     inkscape:current-layer="layer1">
    <inkscape:grid
       type="xygrid"
       id="grid881"
       empspacing="4"
       color="#3f3fff"
       opacity="0.07843137"
       empcolor="#3f3fff"
       empopacity="0.18039216" />
    <inkscape:grid
       type="xygrid"
       id="grid849"
       spacingx="0.5"
       spacingy="0.5"
       empspacing="1"
       empcolor="#3f3fff"
       empopacity="0.05882353" />
  </sodipodi:namedview>
  <defs
     id="defs2">
    <inkscape:path-effect
       effect="fillet_chamfer"
       id="path-effect2340"
       is_visible="true"
       lpeversion="1"
       nodesatellites_param="F,0,0,1,0,0,0,1 @ F,0,0,1,0,0,0,1 @ F,0,0,1,0,0,0,1 @ F,0,0,1,0,0,0,1 @ F,0,0,1,0,0,0,1 @ F,0,0,1,0,0,0,1 @ F,0,0,1,0,0,0,1 @ F,0,0,1,0,0,0,1 @ F,0,0,1,0,0,0,1 @ F,0,0,1,0,0,0,1 @ F,0,0,1,0,0,0,1 @ F,0,1,1,0,0.33,0,1 @ F,0,1,1,0,0.33,0,1 @ F,0,0,1,0,0,0,1 @ F,0,0,1,0,0,0,1 @ F,0,0,1,0,0,0,1 @ F,0,0,1,0,0,0,1 @ F,0,0,1,0,0,0,1 @ F,0,0,1,0,0,0,1 @ F,0,0,1,0,0,0,1 @ F,0,0,1,0,0,0,1 @ F,0,0,1,0,0,0,1 @ F,0,0,1,0,0,0,1 @ F,0,0,1,0,0,0,1 @ F,0,0,1,0,0,0,1 @ F,0,0,1,0,0,0,1 @ F,0,0,1,0,0,0,1 @ F,0,0,1,0,0,0,1 @ F,0,0,1,0,0,0,1 @ F,0,0,1,0,0,0,1 @ F,0,0,1,0,0,0,1 @ F,0,0,1,0,0,0,1 @ F,0,0,1,0,0,0,1 @ F,0,0,1,0,0,0,1 @ F,0,1,1,0,0.33,0,1 @ F,0,1,1,0,0.33,0,1 @ F,0,0,1,0,0,0,1 @ F,0,0,1,0,0,0,1 @ F,0,0,1,0,0,0,1 @ F,0,0,1,0,0,0,1 @ F,0,0,1,0,0,0,1 @ F,0,0,1,0,0,0,1 @ F,0,0,1,0,0,0,1 @ F,0,0,1,0,0,0,1 @ F,0,0,1,0,0,0,1 @ F,0,0,1,0,0,0,1"
       unit="px"
       method="auto"
       mode="F"
       radius="0.33"
       chamfer_steps="1"
       flexible="false"
       use_knot_distance="true"
       apply_no_radius="true"
       apply_with_radius="true"
       only_selected="true"
       hide_knots="false" />
    <inkscape:path-effect
       effect="fillet_chamfer"
       id="path-effect2223"
       is_visible="true"
       lpeversion="1"
       nodesatellites_param="F,0,0,1,0,0,0,1 @ F,0,0,1,0,2.5,0,1 @ F,0,0,1,0,0,0,1"
       unit="px"
       method="auto"
       mode="F"
       radius="0"
       chamfer_steps="1"
       flexible="false"
       use_knot_distance="true"
       apply_no_radius="true"
       apply_with_radius="true"
       only_selected="false"
       hide_knots="false" />
    <inkscape:path-effect
       effect="fillet_chamfer"
       id="path-effect2112"
       is_visible="true"
       lpeversion="1"
       nodesatellites_param="F,0,0,1,0,0,0,1 @ F,0,0,1,0,1.5,0,1 @ F,0,0,1,0,1.5,0,1 @ F,0,0,1,0,1.5,0,1 @ F,0,0,1,0,1.5,0,1 @ F,0,0,1,0,0.5,0,1 @ F,0,0,1,0,0.5,0,1 @ F,0,0,1,0,0.5,0,1 @ F,0,0,1,0,1.1094004,0,1 @ F,0,0,1,0,0.5,0,1 @ F,0,0,1,0,2.5,0,1 @ F,0,0,1,0,2.5,0,1 @ F,0,0,1,0,2.5,0,1 @ F,0,0,1,0,0,0,1"
       unit="px"
       method="auto"
       mode="F"
       radius="0"
       chamfer_steps="1"
       flexible="false"
       use_knot_distance="true"
       apply_no_radius="true"
       apply_with_radius="true"
       only_selected="false"
       hide_knots="false" />
    <clipPath
       clipPathUnits="userSpaceOnUse"
       id="clipath_lpe_path-effect164286">
      <circle
         style="display:none;fill:#c8c8c8;fill-opacity:1;stroke:none;stroke-width:0.1;stroke-linecap:square;stroke-miterlimit:4;stroke-dasharray:none;stroke-opacity:1"
         id="circle164297"
         cx="-79"
         cy="120"
         r="8" />
    </clipPath>
    <inkscape:path-effect
       effect="powerclip"
       id="path-effect164286"
       is_visible="true"
       lpeversion="1"
       inverse="true"
       flatten="false"
       hide_clip="false"
       message="Use fill-rule evenodd on &lt;b&gt;fill and stroke&lt;/b&gt; dialog if no flatten result after convert clip to paths." />
    <clipPath
       clipPathUnits="userSpaceOnUse"
       id="clipath_lpe_path-effect164290">
      <rect
         style="display:block;fill:#c8c8c8;fill-opacity:1;stroke:none;stroke-width:0.2;stroke-linecap:square;stroke-miterlimit:4;stroke-dasharray:none;stroke-opacity:1"
         id="rect164292"
         width="16"
         height="16"
         x="-87"
         y="112" />
    </clipPath>
    <inkscape:path-effect
       effect="powerclip"
       id="path-effect164290"
       is_visible="true"
       lpeversion="1"
       inverse="true"
       flatten="false"
       hide_clip="false"
       message="Use fill-rule evenodd on &lt;b&gt;fill and stroke&lt;/b&gt; dialog if no flatten result after convert clip to paths." />
  </defs>
  <g
     inkscape:label="Layer 1"
     inkscape:groupmode="layer"
     id="layer1">
    <path
       id="path375"
       style="color:#000000;fill:#786d7d;-inkscape-stroke:none;paint-order:markers stroke fill;fill-opacity:1"
       d="M 6 3 C 5.528304 3 5.083799 3.2222526 4.8007812 3.5996094 L 3.9003906 4.8007812 C 3.8057006 4.9270347 3.6578166 5 3.5 5 L 3 5 C 1.9013561 5 1 5.9013561 1 7 L 1 12 C 1 13.098644 1.9013561 14 3 14 L 13 14 C 14.098644 14 15 13.098644 15 12 L 15 7 C 15 6.013191 14.272304 5.1856155 13.328125 5.0273438 C 13.148509 4.9972351 13 5.1478243 13 5.3300781 L 13 5.6699219 C 13 5.8521757 13.152177 5.9950397 13.324219 6.0527344 C 13.71995 6.1854439 14 6.5556787 14 7 L 14 12 C 14 12.558205 13.558205 13 13 13 L 3 13 C 2.4417947 13 2 12.558205 2 12 L 2 7 C 2 6.4417947 2.4417947 6 3 6 L 3.5 6 C 3.971696 6 4.4162011 5.7777474 4.6992188 5.4003906 L 5.5996094 4.1992188 C 5.6942994 4.0729654 5.8421834 4 6 4 L 10 4 C 10.145781 4 10.280464 4.0720631 10.361328 4.1933594 L 10.46875 4.3535156 C 10.73022 4.7457195 10.73022 5.2542805 10.46875 5.6464844 L 10.361328 5.8066406 C 10.280464 5.9279373 10.145781 6 10 6 L 8 6 C 6.3490731 6 5 7.3490731 5 9 C 5 10.650926 6.3490731 12 8 12 C 9.6509269 12 11 10.650926 11 9 C 11 8.7649274 10.97208 8.5361748 10.919922 8.3164062 C 10.877858 8.1391722 10.678348 8 10.496094 8 L 10.064453 8 C 9.8821993 8 9.8115038 8.1282145 9.875 8.2988281 C 9.9561075 8.5167625 10 8.7524849 10 9 C 10 10.110489 9.1104885 11 8 11 C 6.8895115 11 6 10.110489 6 9 C 6 7.8895115 6.8895115 7 8 7 L 10 7 C 10.478963 7 10.92768 6.7598488 11.193359 6.3613281 L 11.300781 6.2011719 C 11.784605 5.4754382 11.784605 4.5245618 11.300781 3.7988281 L 11.193359 3.6386719 C 10.92768 3.2401512 10.478963 3 10 3 L 6 3 z M 12.5 7 A 0.5 0.5 0 0 0 12 7.5 A 0.5 0.5 0 0 0 12.5 8 A 0.5 0.5 0 0 0 13 7.5 A 0.5 0.5 0 0 0 12.5 7 z " />
  </g>
</svg>
