<?xml version="1.0" encoding="UTF-8"?>
<!-- Created with Inkscape (http://www.inkscape.org/) -->
<svg width="16" height="16" version="1.1" viewBox="0 0 16 16" xmlns="http://www.w3.org/2000/svg">
 <path d="m13.996 8.205c0 0.77751-0.32899 1.52-0.9043 2.043l-3.9629 3.6035c-0.63905 0.58096-1.6266 0.58096-2.2656 0l-3.9629-3.6035c-0.57531-0.52301-0.9043-1.2655-0.9043-2.043v-1.5c0-0.48539 0.30559-0.89162 0.69336-1.0625 0.38778-0.17088 0.89372-0.1205 1.252 0.20703l0.74414 0.79297c0.09046 0.082699 0.18212 0.15618 0.27734 0.2207 0.09561 0.064786 0.19352 0.2022 0.21094 0.31641l0.07617 0.50586c0.02882 0.18895-0.1038 0.32859-0.28711 0.27539-0.47194-0.13696-0.78582-0.4289-0.95117-0.58008l-0.74609-0.79492c-0.11589-0.14602-0.26953-0.016612-0.26953 0.11914v1.5c0 0.49629 0.20894 0.96889 0.57617 1.3027l3.9629 3.6035c0.26409 0.24008 0.65779 0.24008 0.92188 0l3.9629-3.6035c0.36723-0.33384 0.57617-0.80645 0.57617-1.3027v-1.5c0-0.089356-0.036-0.12018-0.0957-0.14648-0.0597-0.026309-0.10789-0.032945-0.17383 0.027344l-2.6465 2.4199c-0.76827 0.70241-1.8086 0.79314-2.6289 0.43164-0.82033-0.3615-1.4551-1.1914-1.4551-2.2324v-3.5c0-1.093 0.89526-1.9896 2.0124-1.9923 1.1171-0.0026245 1.9951 0.89988 1.9913 1.9981l-0.0059 1.4961c-0.0018 0.6357-0.15066 1.2161-0.44116 1.7031-0.15016 0.25182-0.49076 0.27755-0.7148 0.087891-0.19772-0.16738-0.21292-0.46564-0.087891-0.69922 0.16802-0.31389 0.24274-0.67863 0.2439-1.0937l0.00586-1.498c0.00193-0.55576-0.41475-0.99548-0.9908-0.99417s-1.0129 0.4388-1.0129 0.99222v3.5c0 0.64493 0.36711 1.0995 0.85938 1.3164 0.49226 0.21693 1.0748 0.18128 1.5508-0.25391l2.6445-2.418c0.35823-0.32753 0.86418-0.37791 1.252-0.20703 0.38777 0.17088 0.69336 0.57711 0.69336 1.0625zm-4.6797-1.3398c0.019625-0.084234-0.086122-0.1265-0.11133-0.13281-0.05962-0.01494-0.11117 0.05265-0.11133 0.11719 1.615e-4 0.064537 0.049866 0.11686 0.11133 0.11719 0.056112 2.431e-4 0.09797-0.044229 0.11133-0.10156zm-0.38241 0.58017c-0.047488 0.01118-0.088334-0.041591-0.088722-0.092817-3.277e-4 -0.051757 0.039428-0.093962 0.088722-0.094181 0.049293 2.204e-4 0.08223 0.042831 0.088722 0.094181 0.0078 0.061693-0.068384 0.088028-0.088722 0.092817zm-0.2919 0.074446c4.495e-4 0.043939-0.033533 0.07971-0.07538 0.079347-0.041329-4.091e-4 -0.074502-0.035951-0.074057-0.079347 2.488e-4 -0.042881 0.03322-0.077619 0.074057-0.078025 0.041353-3.569e-4 0.075127 0.034603 0.07538 0.078025z" color="#000000" fill="#786d7d" style="-inkscape-stroke:none"/>
</svg>
